%TF.GenerationSoftware,KiCad,Pcbnew,8.0.5*%
%TF.CreationDate,2025-04-10T18:40:22-04:00*%
%TF.ProjectId,LowerPOGO,4c6f7765-7250-44f4-974f-2e6b69636164,v4*%
%TF.SameCoordinates,Original*%
%TF.FileFunction,Legend,Top*%
%TF.FilePolarity,Positive*%
%FSLAX46Y46*%
G04 Gerber Fmt 4.6, Leading zero omitted, Abs format (unit mm)*
G04 Created by KiCad (PCBNEW 8.0.5) date 2025-04-10 18:40:22*
%MOMM*%
%LPD*%
G01*
G04 APERTURE LIST*
%ADD10C,0.150000*%
%ADD11C,0.120000*%
G04 APERTURE END LIST*
D10*
X134916666Y-123304819D02*
X134916666Y-124019104D01*
X134916666Y-124019104D02*
X134869047Y-124161961D01*
X134869047Y-124161961D02*
X134773809Y-124257200D01*
X134773809Y-124257200D02*
X134630952Y-124304819D01*
X134630952Y-124304819D02*
X134535714Y-124304819D01*
X135440476Y-124304819D02*
X135630952Y-124304819D01*
X135630952Y-124304819D02*
X135726190Y-124257200D01*
X135726190Y-124257200D02*
X135773809Y-124209580D01*
X135773809Y-124209580D02*
X135869047Y-124066723D01*
X135869047Y-124066723D02*
X135916666Y-123876247D01*
X135916666Y-123876247D02*
X135916666Y-123495295D01*
X135916666Y-123495295D02*
X135869047Y-123400057D01*
X135869047Y-123400057D02*
X135821428Y-123352438D01*
X135821428Y-123352438D02*
X135726190Y-123304819D01*
X135726190Y-123304819D02*
X135535714Y-123304819D01*
X135535714Y-123304819D02*
X135440476Y-123352438D01*
X135440476Y-123352438D02*
X135392857Y-123400057D01*
X135392857Y-123400057D02*
X135345238Y-123495295D01*
X135345238Y-123495295D02*
X135345238Y-123733390D01*
X135345238Y-123733390D02*
X135392857Y-123828628D01*
X135392857Y-123828628D02*
X135440476Y-123876247D01*
X135440476Y-123876247D02*
X135535714Y-123923866D01*
X135535714Y-123923866D02*
X135726190Y-123923866D01*
X135726190Y-123923866D02*
X135821428Y-123876247D01*
X135821428Y-123876247D02*
X135869047Y-123828628D01*
X135869047Y-123828628D02*
X135916666Y-123733390D01*
X123916666Y-135304819D02*
X123916666Y-136019104D01*
X123916666Y-136019104D02*
X123869047Y-136161961D01*
X123869047Y-136161961D02*
X123773809Y-136257200D01*
X123773809Y-136257200D02*
X123630952Y-136304819D01*
X123630952Y-136304819D02*
X123535714Y-136304819D01*
X124297619Y-135304819D02*
X124964285Y-135304819D01*
X124964285Y-135304819D02*
X124535714Y-136304819D01*
X176224819Y-108429523D02*
X176939104Y-108429523D01*
X176939104Y-108429523D02*
X177081961Y-108477142D01*
X177081961Y-108477142D02*
X177177200Y-108572380D01*
X177177200Y-108572380D02*
X177224819Y-108715237D01*
X177224819Y-108715237D02*
X177224819Y-108810475D01*
X176320057Y-108000951D02*
X176272438Y-107953332D01*
X176272438Y-107953332D02*
X176224819Y-107858094D01*
X176224819Y-107858094D02*
X176224819Y-107619999D01*
X176224819Y-107619999D02*
X176272438Y-107524761D01*
X176272438Y-107524761D02*
X176320057Y-107477142D01*
X176320057Y-107477142D02*
X176415295Y-107429523D01*
X176415295Y-107429523D02*
X176510533Y-107429523D01*
X176510533Y-107429523D02*
X176653390Y-107477142D01*
X176653390Y-107477142D02*
X177224819Y-108048570D01*
X177224819Y-108048570D02*
X177224819Y-107429523D01*
X177224819Y-106953332D02*
X177224819Y-106762856D01*
X177224819Y-106762856D02*
X177177200Y-106667618D01*
X177177200Y-106667618D02*
X177129580Y-106619999D01*
X177129580Y-106619999D02*
X176986723Y-106524761D01*
X176986723Y-106524761D02*
X176796247Y-106477142D01*
X176796247Y-106477142D02*
X176415295Y-106477142D01*
X176415295Y-106477142D02*
X176320057Y-106524761D01*
X176320057Y-106524761D02*
X176272438Y-106572380D01*
X176272438Y-106572380D02*
X176224819Y-106667618D01*
X176224819Y-106667618D02*
X176224819Y-106858094D01*
X176224819Y-106858094D02*
X176272438Y-106953332D01*
X176272438Y-106953332D02*
X176320057Y-107000951D01*
X176320057Y-107000951D02*
X176415295Y-107048570D01*
X176415295Y-107048570D02*
X176653390Y-107048570D01*
X176653390Y-107048570D02*
X176748628Y-107000951D01*
X176748628Y-107000951D02*
X176796247Y-106953332D01*
X176796247Y-106953332D02*
X176843866Y-106858094D01*
X176843866Y-106858094D02*
X176843866Y-106667618D01*
X176843866Y-106667618D02*
X176796247Y-106572380D01*
X176796247Y-106572380D02*
X176748628Y-106524761D01*
X176748628Y-106524761D02*
X176653390Y-106477142D01*
X123916666Y-144304819D02*
X123916666Y-145019104D01*
X123916666Y-145019104D02*
X123869047Y-145161961D01*
X123869047Y-145161961D02*
X123773809Y-145257200D01*
X123773809Y-145257200D02*
X123630952Y-145304819D01*
X123630952Y-145304819D02*
X123535714Y-145304819D01*
X124535714Y-144733390D02*
X124440476Y-144685771D01*
X124440476Y-144685771D02*
X124392857Y-144638152D01*
X124392857Y-144638152D02*
X124345238Y-144542914D01*
X124345238Y-144542914D02*
X124345238Y-144495295D01*
X124345238Y-144495295D02*
X124392857Y-144400057D01*
X124392857Y-144400057D02*
X124440476Y-144352438D01*
X124440476Y-144352438D02*
X124535714Y-144304819D01*
X124535714Y-144304819D02*
X124726190Y-144304819D01*
X124726190Y-144304819D02*
X124821428Y-144352438D01*
X124821428Y-144352438D02*
X124869047Y-144400057D01*
X124869047Y-144400057D02*
X124916666Y-144495295D01*
X124916666Y-144495295D02*
X124916666Y-144542914D01*
X124916666Y-144542914D02*
X124869047Y-144638152D01*
X124869047Y-144638152D02*
X124821428Y-144685771D01*
X124821428Y-144685771D02*
X124726190Y-144733390D01*
X124726190Y-144733390D02*
X124535714Y-144733390D01*
X124535714Y-144733390D02*
X124440476Y-144781009D01*
X124440476Y-144781009D02*
X124392857Y-144828628D01*
X124392857Y-144828628D02*
X124345238Y-144923866D01*
X124345238Y-144923866D02*
X124345238Y-145114342D01*
X124345238Y-145114342D02*
X124392857Y-145209580D01*
X124392857Y-145209580D02*
X124440476Y-145257200D01*
X124440476Y-145257200D02*
X124535714Y-145304819D01*
X124535714Y-145304819D02*
X124726190Y-145304819D01*
X124726190Y-145304819D02*
X124821428Y-145257200D01*
X124821428Y-145257200D02*
X124869047Y-145209580D01*
X124869047Y-145209580D02*
X124916666Y-145114342D01*
X124916666Y-145114342D02*
X124916666Y-144923866D01*
X124916666Y-144923866D02*
X124869047Y-144828628D01*
X124869047Y-144828628D02*
X124821428Y-144781009D01*
X124821428Y-144781009D02*
X124726190Y-144733390D01*
X173190476Y-150804819D02*
X173190476Y-151519104D01*
X173190476Y-151519104D02*
X173142857Y-151661961D01*
X173142857Y-151661961D02*
X173047619Y-151757200D01*
X173047619Y-151757200D02*
X172904762Y-151804819D01*
X172904762Y-151804819D02*
X172809524Y-151804819D01*
X173619048Y-150900057D02*
X173666667Y-150852438D01*
X173666667Y-150852438D02*
X173761905Y-150804819D01*
X173761905Y-150804819D02*
X174000000Y-150804819D01*
X174000000Y-150804819D02*
X174095238Y-150852438D01*
X174095238Y-150852438D02*
X174142857Y-150900057D01*
X174142857Y-150900057D02*
X174190476Y-150995295D01*
X174190476Y-150995295D02*
X174190476Y-151090533D01*
X174190476Y-151090533D02*
X174142857Y-151233390D01*
X174142857Y-151233390D02*
X173571429Y-151804819D01*
X173571429Y-151804819D02*
X174190476Y-151804819D01*
X174809524Y-150804819D02*
X174904762Y-150804819D01*
X174904762Y-150804819D02*
X175000000Y-150852438D01*
X175000000Y-150852438D02*
X175047619Y-150900057D01*
X175047619Y-150900057D02*
X175095238Y-150995295D01*
X175095238Y-150995295D02*
X175142857Y-151185771D01*
X175142857Y-151185771D02*
X175142857Y-151423866D01*
X175142857Y-151423866D02*
X175095238Y-151614342D01*
X175095238Y-151614342D02*
X175047619Y-151709580D01*
X175047619Y-151709580D02*
X175000000Y-151757200D01*
X175000000Y-151757200D02*
X174904762Y-151804819D01*
X174904762Y-151804819D02*
X174809524Y-151804819D01*
X174809524Y-151804819D02*
X174714286Y-151757200D01*
X174714286Y-151757200D02*
X174666667Y-151709580D01*
X174666667Y-151709580D02*
X174619048Y-151614342D01*
X174619048Y-151614342D02*
X174571429Y-151423866D01*
X174571429Y-151423866D02*
X174571429Y-151185771D01*
X174571429Y-151185771D02*
X174619048Y-150995295D01*
X174619048Y-150995295D02*
X174666667Y-150900057D01*
X174666667Y-150900057D02*
X174714286Y-150852438D01*
X174714286Y-150852438D02*
X174809524Y-150804819D01*
X199988095Y-151154819D02*
X199988095Y-150154819D01*
X199988095Y-150631009D02*
X200559523Y-150631009D01*
X200559523Y-151154819D02*
X200559523Y-150154819D01*
X201464285Y-150488152D02*
X201464285Y-151154819D01*
X201226190Y-150107200D02*
X200988095Y-150821485D01*
X200988095Y-150821485D02*
X201607142Y-150821485D01*
X198690476Y-135304819D02*
X198690476Y-136019104D01*
X198690476Y-136019104D02*
X198642857Y-136161961D01*
X198642857Y-136161961D02*
X198547619Y-136257200D01*
X198547619Y-136257200D02*
X198404762Y-136304819D01*
X198404762Y-136304819D02*
X198309524Y-136304819D01*
X199119048Y-135400057D02*
X199166667Y-135352438D01*
X199166667Y-135352438D02*
X199261905Y-135304819D01*
X199261905Y-135304819D02*
X199500000Y-135304819D01*
X199500000Y-135304819D02*
X199595238Y-135352438D01*
X199595238Y-135352438D02*
X199642857Y-135400057D01*
X199642857Y-135400057D02*
X199690476Y-135495295D01*
X199690476Y-135495295D02*
X199690476Y-135590533D01*
X199690476Y-135590533D02*
X199642857Y-135733390D01*
X199642857Y-135733390D02*
X199071429Y-136304819D01*
X199071429Y-136304819D02*
X199690476Y-136304819D01*
X200023810Y-135304819D02*
X200642857Y-135304819D01*
X200642857Y-135304819D02*
X200309524Y-135685771D01*
X200309524Y-135685771D02*
X200452381Y-135685771D01*
X200452381Y-135685771D02*
X200547619Y-135733390D01*
X200547619Y-135733390D02*
X200595238Y-135781009D01*
X200595238Y-135781009D02*
X200642857Y-135876247D01*
X200642857Y-135876247D02*
X200642857Y-136114342D01*
X200642857Y-136114342D02*
X200595238Y-136209580D01*
X200595238Y-136209580D02*
X200547619Y-136257200D01*
X200547619Y-136257200D02*
X200452381Y-136304819D01*
X200452381Y-136304819D02*
X200166667Y-136304819D01*
X200166667Y-136304819D02*
X200071429Y-136257200D01*
X200071429Y-136257200D02*
X200023810Y-136209580D01*
X107563095Y-104404819D02*
X107563095Y-103404819D01*
X107563095Y-103881009D02*
X108134523Y-103881009D01*
X108134523Y-104404819D02*
X108134523Y-103404819D01*
X109134523Y-104404819D02*
X108563095Y-104404819D01*
X108848809Y-104404819D02*
X108848809Y-103404819D01*
X108848809Y-103404819D02*
X108753571Y-103547676D01*
X108753571Y-103547676D02*
X108658333Y-103642914D01*
X108658333Y-103642914D02*
X108563095Y-103690533D01*
X182388095Y-104579819D02*
X182388095Y-103579819D01*
X182388095Y-104056009D02*
X182959523Y-104056009D01*
X182959523Y-104579819D02*
X182959523Y-103579819D01*
X183388095Y-103675057D02*
X183435714Y-103627438D01*
X183435714Y-103627438D02*
X183530952Y-103579819D01*
X183530952Y-103579819D02*
X183769047Y-103579819D01*
X183769047Y-103579819D02*
X183864285Y-103627438D01*
X183864285Y-103627438D02*
X183911904Y-103675057D01*
X183911904Y-103675057D02*
X183959523Y-103770295D01*
X183959523Y-103770295D02*
X183959523Y-103865533D01*
X183959523Y-103865533D02*
X183911904Y-104008390D01*
X183911904Y-104008390D02*
X183340476Y-104579819D01*
X183340476Y-104579819D02*
X183959523Y-104579819D01*
X92488095Y-151154819D02*
X92488095Y-150154819D01*
X92488095Y-150631009D02*
X93059523Y-150631009D01*
X93059523Y-151154819D02*
X93059523Y-150154819D01*
X93440476Y-150154819D02*
X94059523Y-150154819D01*
X94059523Y-150154819D02*
X93726190Y-150535771D01*
X93726190Y-150535771D02*
X93869047Y-150535771D01*
X93869047Y-150535771D02*
X93964285Y-150583390D01*
X93964285Y-150583390D02*
X94011904Y-150631009D01*
X94011904Y-150631009D02*
X94059523Y-150726247D01*
X94059523Y-150726247D02*
X94059523Y-150964342D01*
X94059523Y-150964342D02*
X94011904Y-151059580D01*
X94011904Y-151059580D02*
X93964285Y-151107200D01*
X93964285Y-151107200D02*
X93869047Y-151154819D01*
X93869047Y-151154819D02*
X93583333Y-151154819D01*
X93583333Y-151154819D02*
X93488095Y-151107200D01*
X93488095Y-151107200D02*
X93440476Y-151059580D01*
X134440476Y-141304819D02*
X134440476Y-142019104D01*
X134440476Y-142019104D02*
X134392857Y-142161961D01*
X134392857Y-142161961D02*
X134297619Y-142257200D01*
X134297619Y-142257200D02*
X134154762Y-142304819D01*
X134154762Y-142304819D02*
X134059524Y-142304819D01*
X135440476Y-142304819D02*
X134869048Y-142304819D01*
X135154762Y-142304819D02*
X135154762Y-141304819D01*
X135154762Y-141304819D02*
X135059524Y-141447676D01*
X135059524Y-141447676D02*
X134964286Y-141542914D01*
X134964286Y-141542914D02*
X134869048Y-141590533D01*
X136392857Y-142304819D02*
X135821429Y-142304819D01*
X136107143Y-142304819D02*
X136107143Y-141304819D01*
X136107143Y-141304819D02*
X136011905Y-141447676D01*
X136011905Y-141447676D02*
X135916667Y-141542914D01*
X135916667Y-141542914D02*
X135821429Y-141590533D01*
X135690476Y-150804819D02*
X135690476Y-151519104D01*
X135690476Y-151519104D02*
X135642857Y-151661961D01*
X135642857Y-151661961D02*
X135547619Y-151757200D01*
X135547619Y-151757200D02*
X135404762Y-151804819D01*
X135404762Y-151804819D02*
X135309524Y-151804819D01*
X136690476Y-151804819D02*
X136119048Y-151804819D01*
X136404762Y-151804819D02*
X136404762Y-150804819D01*
X136404762Y-150804819D02*
X136309524Y-150947676D01*
X136309524Y-150947676D02*
X136214286Y-151042914D01*
X136214286Y-151042914D02*
X136119048Y-151090533D01*
X137071429Y-150900057D02*
X137119048Y-150852438D01*
X137119048Y-150852438D02*
X137214286Y-150804819D01*
X137214286Y-150804819D02*
X137452381Y-150804819D01*
X137452381Y-150804819D02*
X137547619Y-150852438D01*
X137547619Y-150852438D02*
X137595238Y-150900057D01*
X137595238Y-150900057D02*
X137642857Y-150995295D01*
X137642857Y-150995295D02*
X137642857Y-151090533D01*
X137642857Y-151090533D02*
X137595238Y-151233390D01*
X137595238Y-151233390D02*
X137023810Y-151804819D01*
X137023810Y-151804819D02*
X137642857Y-151804819D01*
X97416666Y-123304819D02*
X97416666Y-124019104D01*
X97416666Y-124019104D02*
X97369047Y-124161961D01*
X97369047Y-124161961D02*
X97273809Y-124257200D01*
X97273809Y-124257200D02*
X97130952Y-124304819D01*
X97130952Y-124304819D02*
X97035714Y-124304819D01*
X98416666Y-124304819D02*
X97845238Y-124304819D01*
X98130952Y-124304819D02*
X98130952Y-123304819D01*
X98130952Y-123304819D02*
X98035714Y-123447676D01*
X98035714Y-123447676D02*
X97940476Y-123542914D01*
X97940476Y-123542914D02*
X97845238Y-123590533D01*
X198690476Y-144304819D02*
X198690476Y-145019104D01*
X198690476Y-145019104D02*
X198642857Y-145161961D01*
X198642857Y-145161961D02*
X198547619Y-145257200D01*
X198547619Y-145257200D02*
X198404762Y-145304819D01*
X198404762Y-145304819D02*
X198309524Y-145304819D01*
X199119048Y-144400057D02*
X199166667Y-144352438D01*
X199166667Y-144352438D02*
X199261905Y-144304819D01*
X199261905Y-144304819D02*
X199500000Y-144304819D01*
X199500000Y-144304819D02*
X199595238Y-144352438D01*
X199595238Y-144352438D02*
X199642857Y-144400057D01*
X199642857Y-144400057D02*
X199690476Y-144495295D01*
X199690476Y-144495295D02*
X199690476Y-144590533D01*
X199690476Y-144590533D02*
X199642857Y-144733390D01*
X199642857Y-144733390D02*
X199071429Y-145304819D01*
X199071429Y-145304819D02*
X199690476Y-145304819D01*
X200547619Y-144638152D02*
X200547619Y-145304819D01*
X200309524Y-144257200D02*
X200071429Y-144971485D01*
X200071429Y-144971485D02*
X200690476Y-144971485D01*
X126924819Y-108429523D02*
X127639104Y-108429523D01*
X127639104Y-108429523D02*
X127781961Y-108477142D01*
X127781961Y-108477142D02*
X127877200Y-108572380D01*
X127877200Y-108572380D02*
X127924819Y-108715237D01*
X127924819Y-108715237D02*
X127924819Y-108810475D01*
X127020057Y-108000951D02*
X126972438Y-107953332D01*
X126972438Y-107953332D02*
X126924819Y-107858094D01*
X126924819Y-107858094D02*
X126924819Y-107619999D01*
X126924819Y-107619999D02*
X126972438Y-107524761D01*
X126972438Y-107524761D02*
X127020057Y-107477142D01*
X127020057Y-107477142D02*
X127115295Y-107429523D01*
X127115295Y-107429523D02*
X127210533Y-107429523D01*
X127210533Y-107429523D02*
X127353390Y-107477142D01*
X127353390Y-107477142D02*
X127924819Y-108048570D01*
X127924819Y-108048570D02*
X127924819Y-107429523D01*
X126924819Y-106572380D02*
X126924819Y-106762856D01*
X126924819Y-106762856D02*
X126972438Y-106858094D01*
X126972438Y-106858094D02*
X127020057Y-106905713D01*
X127020057Y-106905713D02*
X127162914Y-107000951D01*
X127162914Y-107000951D02*
X127353390Y-107048570D01*
X127353390Y-107048570D02*
X127734342Y-107048570D01*
X127734342Y-107048570D02*
X127829580Y-107000951D01*
X127829580Y-107000951D02*
X127877200Y-106953332D01*
X127877200Y-106953332D02*
X127924819Y-106858094D01*
X127924819Y-106858094D02*
X127924819Y-106667618D01*
X127924819Y-106667618D02*
X127877200Y-106572380D01*
X127877200Y-106572380D02*
X127829580Y-106524761D01*
X127829580Y-106524761D02*
X127734342Y-106477142D01*
X127734342Y-106477142D02*
X127496247Y-106477142D01*
X127496247Y-106477142D02*
X127401009Y-106524761D01*
X127401009Y-106524761D02*
X127353390Y-106572380D01*
X127353390Y-106572380D02*
X127305771Y-106667618D01*
X127305771Y-106667618D02*
X127305771Y-106858094D01*
X127305771Y-106858094D02*
X127353390Y-106953332D01*
X127353390Y-106953332D02*
X127401009Y-107000951D01*
X127401009Y-107000951D02*
X127496247Y-107048570D01*
X171940476Y-123304819D02*
X171940476Y-124019104D01*
X171940476Y-124019104D02*
X171892857Y-124161961D01*
X171892857Y-124161961D02*
X171797619Y-124257200D01*
X171797619Y-124257200D02*
X171654762Y-124304819D01*
X171654762Y-124304819D02*
X171559524Y-124304819D01*
X172940476Y-124304819D02*
X172369048Y-124304819D01*
X172654762Y-124304819D02*
X172654762Y-123304819D01*
X172654762Y-123304819D02*
X172559524Y-123447676D01*
X172559524Y-123447676D02*
X172464286Y-123542914D01*
X172464286Y-123542914D02*
X172369048Y-123590533D01*
X173273810Y-123304819D02*
X173940476Y-123304819D01*
X173940476Y-123304819D02*
X173511905Y-124304819D01*
X164474819Y-108429523D02*
X165189104Y-108429523D01*
X165189104Y-108429523D02*
X165331961Y-108477142D01*
X165331961Y-108477142D02*
X165427200Y-108572380D01*
X165427200Y-108572380D02*
X165474819Y-108715237D01*
X165474819Y-108715237D02*
X165474819Y-108810475D01*
X164570057Y-108000951D02*
X164522438Y-107953332D01*
X164522438Y-107953332D02*
X164474819Y-107858094D01*
X164474819Y-107858094D02*
X164474819Y-107619999D01*
X164474819Y-107619999D02*
X164522438Y-107524761D01*
X164522438Y-107524761D02*
X164570057Y-107477142D01*
X164570057Y-107477142D02*
X164665295Y-107429523D01*
X164665295Y-107429523D02*
X164760533Y-107429523D01*
X164760533Y-107429523D02*
X164903390Y-107477142D01*
X164903390Y-107477142D02*
X165474819Y-108048570D01*
X165474819Y-108048570D02*
X165474819Y-107429523D01*
X164903390Y-106858094D02*
X164855771Y-106953332D01*
X164855771Y-106953332D02*
X164808152Y-107000951D01*
X164808152Y-107000951D02*
X164712914Y-107048570D01*
X164712914Y-107048570D02*
X164665295Y-107048570D01*
X164665295Y-107048570D02*
X164570057Y-107000951D01*
X164570057Y-107000951D02*
X164522438Y-106953332D01*
X164522438Y-106953332D02*
X164474819Y-106858094D01*
X164474819Y-106858094D02*
X164474819Y-106667618D01*
X164474819Y-106667618D02*
X164522438Y-106572380D01*
X164522438Y-106572380D02*
X164570057Y-106524761D01*
X164570057Y-106524761D02*
X164665295Y-106477142D01*
X164665295Y-106477142D02*
X164712914Y-106477142D01*
X164712914Y-106477142D02*
X164808152Y-106524761D01*
X164808152Y-106524761D02*
X164855771Y-106572380D01*
X164855771Y-106572380D02*
X164903390Y-106667618D01*
X164903390Y-106667618D02*
X164903390Y-106858094D01*
X164903390Y-106858094D02*
X164951009Y-106953332D01*
X164951009Y-106953332D02*
X164998628Y-107000951D01*
X164998628Y-107000951D02*
X165093866Y-107048570D01*
X165093866Y-107048570D02*
X165284342Y-107048570D01*
X165284342Y-107048570D02*
X165379580Y-107000951D01*
X165379580Y-107000951D02*
X165427200Y-106953332D01*
X165427200Y-106953332D02*
X165474819Y-106858094D01*
X165474819Y-106858094D02*
X165474819Y-106667618D01*
X165474819Y-106667618D02*
X165427200Y-106572380D01*
X165427200Y-106572380D02*
X165379580Y-106524761D01*
X165379580Y-106524761D02*
X165284342Y-106477142D01*
X165284342Y-106477142D02*
X165093866Y-106477142D01*
X165093866Y-106477142D02*
X164998628Y-106524761D01*
X164998628Y-106524761D02*
X164951009Y-106572380D01*
X164951009Y-106572380D02*
X164903390Y-106667618D01*
X123416666Y-116304819D02*
X123416666Y-117019104D01*
X123416666Y-117019104D02*
X123369047Y-117161961D01*
X123369047Y-117161961D02*
X123273809Y-117257200D01*
X123273809Y-117257200D02*
X123130952Y-117304819D01*
X123130952Y-117304819D02*
X123035714Y-117304819D01*
X124369047Y-116304819D02*
X123892857Y-116304819D01*
X123892857Y-116304819D02*
X123845238Y-116781009D01*
X123845238Y-116781009D02*
X123892857Y-116733390D01*
X123892857Y-116733390D02*
X123988095Y-116685771D01*
X123988095Y-116685771D02*
X124226190Y-116685771D01*
X124226190Y-116685771D02*
X124321428Y-116733390D01*
X124321428Y-116733390D02*
X124369047Y-116781009D01*
X124369047Y-116781009D02*
X124416666Y-116876247D01*
X124416666Y-116876247D02*
X124416666Y-117114342D01*
X124416666Y-117114342D02*
X124369047Y-117209580D01*
X124369047Y-117209580D02*
X124321428Y-117257200D01*
X124321428Y-117257200D02*
X124226190Y-117304819D01*
X124226190Y-117304819D02*
X123988095Y-117304819D01*
X123988095Y-117304819D02*
X123892857Y-117257200D01*
X123892857Y-117257200D02*
X123845238Y-117209580D01*
X101249819Y-108429523D02*
X101964104Y-108429523D01*
X101964104Y-108429523D02*
X102106961Y-108477142D01*
X102106961Y-108477142D02*
X102202200Y-108572380D01*
X102202200Y-108572380D02*
X102249819Y-108715237D01*
X102249819Y-108715237D02*
X102249819Y-108810475D01*
X101345057Y-108000951D02*
X101297438Y-107953332D01*
X101297438Y-107953332D02*
X101249819Y-107858094D01*
X101249819Y-107858094D02*
X101249819Y-107619999D01*
X101249819Y-107619999D02*
X101297438Y-107524761D01*
X101297438Y-107524761D02*
X101345057Y-107477142D01*
X101345057Y-107477142D02*
X101440295Y-107429523D01*
X101440295Y-107429523D02*
X101535533Y-107429523D01*
X101535533Y-107429523D02*
X101678390Y-107477142D01*
X101678390Y-107477142D02*
X102249819Y-108048570D01*
X102249819Y-108048570D02*
X102249819Y-107429523D01*
X101249819Y-106524761D02*
X101249819Y-107000951D01*
X101249819Y-107000951D02*
X101726009Y-107048570D01*
X101726009Y-107048570D02*
X101678390Y-107000951D01*
X101678390Y-107000951D02*
X101630771Y-106905713D01*
X101630771Y-106905713D02*
X101630771Y-106667618D01*
X101630771Y-106667618D02*
X101678390Y-106572380D01*
X101678390Y-106572380D02*
X101726009Y-106524761D01*
X101726009Y-106524761D02*
X101821247Y-106477142D01*
X101821247Y-106477142D02*
X102059342Y-106477142D01*
X102059342Y-106477142D02*
X102154580Y-106524761D01*
X102154580Y-106524761D02*
X102202200Y-106572380D01*
X102202200Y-106572380D02*
X102249819Y-106667618D01*
X102249819Y-106667618D02*
X102249819Y-106905713D01*
X102249819Y-106905713D02*
X102202200Y-107000951D01*
X102202200Y-107000951D02*
X102154580Y-107048570D01*
X171940476Y-132304819D02*
X171940476Y-133019104D01*
X171940476Y-133019104D02*
X171892857Y-133161961D01*
X171892857Y-133161961D02*
X171797619Y-133257200D01*
X171797619Y-133257200D02*
X171654762Y-133304819D01*
X171654762Y-133304819D02*
X171559524Y-133304819D01*
X172940476Y-133304819D02*
X172369048Y-133304819D01*
X172654762Y-133304819D02*
X172654762Y-132304819D01*
X172654762Y-132304819D02*
X172559524Y-132447676D01*
X172559524Y-132447676D02*
X172464286Y-132542914D01*
X172464286Y-132542914D02*
X172369048Y-132590533D01*
X173511905Y-132733390D02*
X173416667Y-132685771D01*
X173416667Y-132685771D02*
X173369048Y-132638152D01*
X173369048Y-132638152D02*
X173321429Y-132542914D01*
X173321429Y-132542914D02*
X173321429Y-132495295D01*
X173321429Y-132495295D02*
X173369048Y-132400057D01*
X173369048Y-132400057D02*
X173416667Y-132352438D01*
X173416667Y-132352438D02*
X173511905Y-132304819D01*
X173511905Y-132304819D02*
X173702381Y-132304819D01*
X173702381Y-132304819D02*
X173797619Y-132352438D01*
X173797619Y-132352438D02*
X173845238Y-132400057D01*
X173845238Y-132400057D02*
X173892857Y-132495295D01*
X173892857Y-132495295D02*
X173892857Y-132542914D01*
X173892857Y-132542914D02*
X173845238Y-132638152D01*
X173845238Y-132638152D02*
X173797619Y-132685771D01*
X173797619Y-132685771D02*
X173702381Y-132733390D01*
X173702381Y-132733390D02*
X173511905Y-132733390D01*
X173511905Y-132733390D02*
X173416667Y-132781009D01*
X173416667Y-132781009D02*
X173369048Y-132828628D01*
X173369048Y-132828628D02*
X173321429Y-132923866D01*
X173321429Y-132923866D02*
X173321429Y-133114342D01*
X173321429Y-133114342D02*
X173369048Y-133209580D01*
X173369048Y-133209580D02*
X173416667Y-133257200D01*
X173416667Y-133257200D02*
X173511905Y-133304819D01*
X173511905Y-133304819D02*
X173702381Y-133304819D01*
X173702381Y-133304819D02*
X173797619Y-133257200D01*
X173797619Y-133257200D02*
X173845238Y-133209580D01*
X173845238Y-133209580D02*
X173892857Y-133114342D01*
X173892857Y-133114342D02*
X173892857Y-132923866D01*
X173892857Y-132923866D02*
X173845238Y-132828628D01*
X173845238Y-132828628D02*
X173797619Y-132781009D01*
X173797619Y-132781009D02*
X173702381Y-132733390D01*
X97416666Y-132304819D02*
X97416666Y-133019104D01*
X97416666Y-133019104D02*
X97369047Y-133161961D01*
X97369047Y-133161961D02*
X97273809Y-133257200D01*
X97273809Y-133257200D02*
X97130952Y-133304819D01*
X97130952Y-133304819D02*
X97035714Y-133304819D01*
X97845238Y-132400057D02*
X97892857Y-132352438D01*
X97892857Y-132352438D02*
X97988095Y-132304819D01*
X97988095Y-132304819D02*
X98226190Y-132304819D01*
X98226190Y-132304819D02*
X98321428Y-132352438D01*
X98321428Y-132352438D02*
X98369047Y-132400057D01*
X98369047Y-132400057D02*
X98416666Y-132495295D01*
X98416666Y-132495295D02*
X98416666Y-132590533D01*
X98416666Y-132590533D02*
X98369047Y-132733390D01*
X98369047Y-132733390D02*
X97797619Y-133304819D01*
X97797619Y-133304819D02*
X98416666Y-133304819D01*
X97416666Y-141304819D02*
X97416666Y-142019104D01*
X97416666Y-142019104D02*
X97369047Y-142161961D01*
X97369047Y-142161961D02*
X97273809Y-142257200D01*
X97273809Y-142257200D02*
X97130952Y-142304819D01*
X97130952Y-142304819D02*
X97035714Y-142304819D01*
X97797619Y-141304819D02*
X98416666Y-141304819D01*
X98416666Y-141304819D02*
X98083333Y-141685771D01*
X98083333Y-141685771D02*
X98226190Y-141685771D01*
X98226190Y-141685771D02*
X98321428Y-141733390D01*
X98321428Y-141733390D02*
X98369047Y-141781009D01*
X98369047Y-141781009D02*
X98416666Y-141876247D01*
X98416666Y-141876247D02*
X98416666Y-142114342D01*
X98416666Y-142114342D02*
X98369047Y-142209580D01*
X98369047Y-142209580D02*
X98321428Y-142257200D01*
X98321428Y-142257200D02*
X98226190Y-142304819D01*
X98226190Y-142304819D02*
X97940476Y-142304819D01*
X97940476Y-142304819D02*
X97845238Y-142257200D01*
X97845238Y-142257200D02*
X97797619Y-142209580D01*
X123916666Y-126304819D02*
X123916666Y-127019104D01*
X123916666Y-127019104D02*
X123869047Y-127161961D01*
X123869047Y-127161961D02*
X123773809Y-127257200D01*
X123773809Y-127257200D02*
X123630952Y-127304819D01*
X123630952Y-127304819D02*
X123535714Y-127304819D01*
X124821428Y-126304819D02*
X124630952Y-126304819D01*
X124630952Y-126304819D02*
X124535714Y-126352438D01*
X124535714Y-126352438D02*
X124488095Y-126400057D01*
X124488095Y-126400057D02*
X124392857Y-126542914D01*
X124392857Y-126542914D02*
X124345238Y-126733390D01*
X124345238Y-126733390D02*
X124345238Y-127114342D01*
X124345238Y-127114342D02*
X124392857Y-127209580D01*
X124392857Y-127209580D02*
X124440476Y-127257200D01*
X124440476Y-127257200D02*
X124535714Y-127304819D01*
X124535714Y-127304819D02*
X124726190Y-127304819D01*
X124726190Y-127304819D02*
X124821428Y-127257200D01*
X124821428Y-127257200D02*
X124869047Y-127209580D01*
X124869047Y-127209580D02*
X124916666Y-127114342D01*
X124916666Y-127114342D02*
X124916666Y-126876247D01*
X124916666Y-126876247D02*
X124869047Y-126781009D01*
X124869047Y-126781009D02*
X124821428Y-126733390D01*
X124821428Y-126733390D02*
X124726190Y-126685771D01*
X124726190Y-126685771D02*
X124535714Y-126685771D01*
X124535714Y-126685771D02*
X124440476Y-126733390D01*
X124440476Y-126733390D02*
X124392857Y-126781009D01*
X124392857Y-126781009D02*
X124345238Y-126876247D01*
X160940476Y-126304819D02*
X160940476Y-127019104D01*
X160940476Y-127019104D02*
X160892857Y-127161961D01*
X160892857Y-127161961D02*
X160797619Y-127257200D01*
X160797619Y-127257200D02*
X160654762Y-127304819D01*
X160654762Y-127304819D02*
X160559524Y-127304819D01*
X161940476Y-127304819D02*
X161369048Y-127304819D01*
X161654762Y-127304819D02*
X161654762Y-126304819D01*
X161654762Y-126304819D02*
X161559524Y-126447676D01*
X161559524Y-126447676D02*
X161464286Y-126542914D01*
X161464286Y-126542914D02*
X161369048Y-126590533D01*
X162797619Y-126638152D02*
X162797619Y-127304819D01*
X162559524Y-126257200D02*
X162321429Y-126971485D01*
X162321429Y-126971485D02*
X162940476Y-126971485D01*
X98666666Y-150804819D02*
X98666666Y-151519104D01*
X98666666Y-151519104D02*
X98619047Y-151661961D01*
X98619047Y-151661961D02*
X98523809Y-151757200D01*
X98523809Y-151757200D02*
X98380952Y-151804819D01*
X98380952Y-151804819D02*
X98285714Y-151804819D01*
X99571428Y-151138152D02*
X99571428Y-151804819D01*
X99333333Y-150757200D02*
X99095238Y-151471485D01*
X99095238Y-151471485D02*
X99714285Y-151471485D01*
X197690476Y-116304819D02*
X197690476Y-117019104D01*
X197690476Y-117019104D02*
X197642857Y-117161961D01*
X197642857Y-117161961D02*
X197547619Y-117257200D01*
X197547619Y-117257200D02*
X197404762Y-117304819D01*
X197404762Y-117304819D02*
X197309524Y-117304819D01*
X198119048Y-116400057D02*
X198166667Y-116352438D01*
X198166667Y-116352438D02*
X198261905Y-116304819D01*
X198261905Y-116304819D02*
X198500000Y-116304819D01*
X198500000Y-116304819D02*
X198595238Y-116352438D01*
X198595238Y-116352438D02*
X198642857Y-116400057D01*
X198642857Y-116400057D02*
X198690476Y-116495295D01*
X198690476Y-116495295D02*
X198690476Y-116590533D01*
X198690476Y-116590533D02*
X198642857Y-116733390D01*
X198642857Y-116733390D02*
X198071429Y-117304819D01*
X198071429Y-117304819D02*
X198690476Y-117304819D01*
X199642857Y-117304819D02*
X199071429Y-117304819D01*
X199357143Y-117304819D02*
X199357143Y-116304819D01*
X199357143Y-116304819D02*
X199261905Y-116447676D01*
X199261905Y-116447676D02*
X199166667Y-116542914D01*
X199166667Y-116542914D02*
X199071429Y-116590533D01*
X198690476Y-126304819D02*
X198690476Y-127019104D01*
X198690476Y-127019104D02*
X198642857Y-127161961D01*
X198642857Y-127161961D02*
X198547619Y-127257200D01*
X198547619Y-127257200D02*
X198404762Y-127304819D01*
X198404762Y-127304819D02*
X198309524Y-127304819D01*
X199119048Y-126400057D02*
X199166667Y-126352438D01*
X199166667Y-126352438D02*
X199261905Y-126304819D01*
X199261905Y-126304819D02*
X199500000Y-126304819D01*
X199500000Y-126304819D02*
X199595238Y-126352438D01*
X199595238Y-126352438D02*
X199642857Y-126400057D01*
X199642857Y-126400057D02*
X199690476Y-126495295D01*
X199690476Y-126495295D02*
X199690476Y-126590533D01*
X199690476Y-126590533D02*
X199642857Y-126733390D01*
X199642857Y-126733390D02*
X199071429Y-127304819D01*
X199071429Y-127304819D02*
X199690476Y-127304819D01*
X200071429Y-126400057D02*
X200119048Y-126352438D01*
X200119048Y-126352438D02*
X200214286Y-126304819D01*
X200214286Y-126304819D02*
X200452381Y-126304819D01*
X200452381Y-126304819D02*
X200547619Y-126352438D01*
X200547619Y-126352438D02*
X200595238Y-126400057D01*
X200595238Y-126400057D02*
X200642857Y-126495295D01*
X200642857Y-126495295D02*
X200642857Y-126590533D01*
X200642857Y-126590533D02*
X200595238Y-126733390D01*
X200595238Y-126733390D02*
X200023810Y-127304819D01*
X200023810Y-127304819D02*
X200642857Y-127304819D01*
X134440476Y-132304819D02*
X134440476Y-133019104D01*
X134440476Y-133019104D02*
X134392857Y-133161961D01*
X134392857Y-133161961D02*
X134297619Y-133257200D01*
X134297619Y-133257200D02*
X134154762Y-133304819D01*
X134154762Y-133304819D02*
X134059524Y-133304819D01*
X135440476Y-133304819D02*
X134869048Y-133304819D01*
X135154762Y-133304819D02*
X135154762Y-132304819D01*
X135154762Y-132304819D02*
X135059524Y-132447676D01*
X135059524Y-132447676D02*
X134964286Y-132542914D01*
X134964286Y-132542914D02*
X134869048Y-132590533D01*
X136059524Y-132304819D02*
X136154762Y-132304819D01*
X136154762Y-132304819D02*
X136250000Y-132352438D01*
X136250000Y-132352438D02*
X136297619Y-132400057D01*
X136297619Y-132400057D02*
X136345238Y-132495295D01*
X136345238Y-132495295D02*
X136392857Y-132685771D01*
X136392857Y-132685771D02*
X136392857Y-132923866D01*
X136392857Y-132923866D02*
X136345238Y-133114342D01*
X136345238Y-133114342D02*
X136297619Y-133209580D01*
X136297619Y-133209580D02*
X136250000Y-133257200D01*
X136250000Y-133257200D02*
X136154762Y-133304819D01*
X136154762Y-133304819D02*
X136059524Y-133304819D01*
X136059524Y-133304819D02*
X135964286Y-133257200D01*
X135964286Y-133257200D02*
X135916667Y-133209580D01*
X135916667Y-133209580D02*
X135869048Y-133114342D01*
X135869048Y-133114342D02*
X135821429Y-132923866D01*
X135821429Y-132923866D02*
X135821429Y-132685771D01*
X135821429Y-132685771D02*
X135869048Y-132495295D01*
X135869048Y-132495295D02*
X135916667Y-132400057D01*
X135916667Y-132400057D02*
X135964286Y-132352438D01*
X135964286Y-132352438D02*
X136059524Y-132304819D01*
X171940476Y-141304819D02*
X171940476Y-142019104D01*
X171940476Y-142019104D02*
X171892857Y-142161961D01*
X171892857Y-142161961D02*
X171797619Y-142257200D01*
X171797619Y-142257200D02*
X171654762Y-142304819D01*
X171654762Y-142304819D02*
X171559524Y-142304819D01*
X172940476Y-142304819D02*
X172369048Y-142304819D01*
X172654762Y-142304819D02*
X172654762Y-141304819D01*
X172654762Y-141304819D02*
X172559524Y-141447676D01*
X172559524Y-141447676D02*
X172464286Y-141542914D01*
X172464286Y-141542914D02*
X172369048Y-141590533D01*
X173416667Y-142304819D02*
X173607143Y-142304819D01*
X173607143Y-142304819D02*
X173702381Y-142257200D01*
X173702381Y-142257200D02*
X173750000Y-142209580D01*
X173750000Y-142209580D02*
X173845238Y-142066723D01*
X173845238Y-142066723D02*
X173892857Y-141876247D01*
X173892857Y-141876247D02*
X173892857Y-141495295D01*
X173892857Y-141495295D02*
X173845238Y-141400057D01*
X173845238Y-141400057D02*
X173797619Y-141352438D01*
X173797619Y-141352438D02*
X173702381Y-141304819D01*
X173702381Y-141304819D02*
X173511905Y-141304819D01*
X173511905Y-141304819D02*
X173416667Y-141352438D01*
X173416667Y-141352438D02*
X173369048Y-141400057D01*
X173369048Y-141400057D02*
X173321429Y-141495295D01*
X173321429Y-141495295D02*
X173321429Y-141733390D01*
X173321429Y-141733390D02*
X173369048Y-141828628D01*
X173369048Y-141828628D02*
X173416667Y-141876247D01*
X173416667Y-141876247D02*
X173511905Y-141923866D01*
X173511905Y-141923866D02*
X173702381Y-141923866D01*
X173702381Y-141923866D02*
X173797619Y-141876247D01*
X173797619Y-141876247D02*
X173845238Y-141828628D01*
X173845238Y-141828628D02*
X173892857Y-141733390D01*
X160440476Y-116304819D02*
X160440476Y-117019104D01*
X160440476Y-117019104D02*
X160392857Y-117161961D01*
X160392857Y-117161961D02*
X160297619Y-117257200D01*
X160297619Y-117257200D02*
X160154762Y-117304819D01*
X160154762Y-117304819D02*
X160059524Y-117304819D01*
X161440476Y-117304819D02*
X160869048Y-117304819D01*
X161154762Y-117304819D02*
X161154762Y-116304819D01*
X161154762Y-116304819D02*
X161059524Y-116447676D01*
X161059524Y-116447676D02*
X160964286Y-116542914D01*
X160964286Y-116542914D02*
X160869048Y-116590533D01*
X161773810Y-116304819D02*
X162392857Y-116304819D01*
X162392857Y-116304819D02*
X162059524Y-116685771D01*
X162059524Y-116685771D02*
X162202381Y-116685771D01*
X162202381Y-116685771D02*
X162297619Y-116733390D01*
X162297619Y-116733390D02*
X162345238Y-116781009D01*
X162345238Y-116781009D02*
X162392857Y-116876247D01*
X162392857Y-116876247D02*
X162392857Y-117114342D01*
X162392857Y-117114342D02*
X162345238Y-117209580D01*
X162345238Y-117209580D02*
X162297619Y-117257200D01*
X162297619Y-117257200D02*
X162202381Y-117304819D01*
X162202381Y-117304819D02*
X161916667Y-117304819D01*
X161916667Y-117304819D02*
X161821429Y-117257200D01*
X161821429Y-117257200D02*
X161773810Y-117209580D01*
X202049819Y-108379523D02*
X202764104Y-108379523D01*
X202764104Y-108379523D02*
X202906961Y-108427142D01*
X202906961Y-108427142D02*
X203002200Y-108522380D01*
X203002200Y-108522380D02*
X203049819Y-108665237D01*
X203049819Y-108665237D02*
X203049819Y-108760475D01*
X202049819Y-107998570D02*
X202049819Y-107379523D01*
X202049819Y-107379523D02*
X202430771Y-107712856D01*
X202430771Y-107712856D02*
X202430771Y-107569999D01*
X202430771Y-107569999D02*
X202478390Y-107474761D01*
X202478390Y-107474761D02*
X202526009Y-107427142D01*
X202526009Y-107427142D02*
X202621247Y-107379523D01*
X202621247Y-107379523D02*
X202859342Y-107379523D01*
X202859342Y-107379523D02*
X202954580Y-107427142D01*
X202954580Y-107427142D02*
X203002200Y-107474761D01*
X203002200Y-107474761D02*
X203049819Y-107569999D01*
X203049819Y-107569999D02*
X203049819Y-107855713D01*
X203049819Y-107855713D02*
X203002200Y-107950951D01*
X203002200Y-107950951D02*
X202954580Y-107998570D01*
X202049819Y-106760475D02*
X202049819Y-106665237D01*
X202049819Y-106665237D02*
X202097438Y-106569999D01*
X202097438Y-106569999D02*
X202145057Y-106522380D01*
X202145057Y-106522380D02*
X202240295Y-106474761D01*
X202240295Y-106474761D02*
X202430771Y-106427142D01*
X202430771Y-106427142D02*
X202668866Y-106427142D01*
X202668866Y-106427142D02*
X202859342Y-106474761D01*
X202859342Y-106474761D02*
X202954580Y-106522380D01*
X202954580Y-106522380D02*
X203002200Y-106569999D01*
X203002200Y-106569999D02*
X203049819Y-106665237D01*
X203049819Y-106665237D02*
X203049819Y-106760475D01*
X203049819Y-106760475D02*
X203002200Y-106855713D01*
X203002200Y-106855713D02*
X202954580Y-106903332D01*
X202954580Y-106903332D02*
X202859342Y-106950951D01*
X202859342Y-106950951D02*
X202668866Y-106998570D01*
X202668866Y-106998570D02*
X202430771Y-106998570D01*
X202430771Y-106998570D02*
X202240295Y-106950951D01*
X202240295Y-106950951D02*
X202145057Y-106903332D01*
X202145057Y-106903332D02*
X202097438Y-106855713D01*
X202097438Y-106855713D02*
X202049819Y-106760475D01*
X160940476Y-143804819D02*
X160940476Y-144519104D01*
X160940476Y-144519104D02*
X160892857Y-144661961D01*
X160892857Y-144661961D02*
X160797619Y-144757200D01*
X160797619Y-144757200D02*
X160654762Y-144804819D01*
X160654762Y-144804819D02*
X160559524Y-144804819D01*
X161940476Y-144804819D02*
X161369048Y-144804819D01*
X161654762Y-144804819D02*
X161654762Y-143804819D01*
X161654762Y-143804819D02*
X161559524Y-143947676D01*
X161559524Y-143947676D02*
X161464286Y-144042914D01*
X161464286Y-144042914D02*
X161369048Y-144090533D01*
X162797619Y-143804819D02*
X162607143Y-143804819D01*
X162607143Y-143804819D02*
X162511905Y-143852438D01*
X162511905Y-143852438D02*
X162464286Y-143900057D01*
X162464286Y-143900057D02*
X162369048Y-144042914D01*
X162369048Y-144042914D02*
X162321429Y-144233390D01*
X162321429Y-144233390D02*
X162321429Y-144614342D01*
X162321429Y-144614342D02*
X162369048Y-144709580D01*
X162369048Y-144709580D02*
X162416667Y-144757200D01*
X162416667Y-144757200D02*
X162511905Y-144804819D01*
X162511905Y-144804819D02*
X162702381Y-144804819D01*
X162702381Y-144804819D02*
X162797619Y-144757200D01*
X162797619Y-144757200D02*
X162845238Y-144709580D01*
X162845238Y-144709580D02*
X162892857Y-144614342D01*
X162892857Y-144614342D02*
X162892857Y-144376247D01*
X162892857Y-144376247D02*
X162845238Y-144281009D01*
X162845238Y-144281009D02*
X162797619Y-144233390D01*
X162797619Y-144233390D02*
X162702381Y-144185771D01*
X162702381Y-144185771D02*
X162511905Y-144185771D01*
X162511905Y-144185771D02*
X162416667Y-144233390D01*
X162416667Y-144233390D02*
X162369048Y-144281009D01*
X162369048Y-144281009D02*
X162321429Y-144376247D01*
X160940476Y-135304819D02*
X160940476Y-136019104D01*
X160940476Y-136019104D02*
X160892857Y-136161961D01*
X160892857Y-136161961D02*
X160797619Y-136257200D01*
X160797619Y-136257200D02*
X160654762Y-136304819D01*
X160654762Y-136304819D02*
X160559524Y-136304819D01*
X161940476Y-136304819D02*
X161369048Y-136304819D01*
X161654762Y-136304819D02*
X161654762Y-135304819D01*
X161654762Y-135304819D02*
X161559524Y-135447676D01*
X161559524Y-135447676D02*
X161464286Y-135542914D01*
X161464286Y-135542914D02*
X161369048Y-135590533D01*
X162845238Y-135304819D02*
X162369048Y-135304819D01*
X162369048Y-135304819D02*
X162321429Y-135781009D01*
X162321429Y-135781009D02*
X162369048Y-135733390D01*
X162369048Y-135733390D02*
X162464286Y-135685771D01*
X162464286Y-135685771D02*
X162702381Y-135685771D01*
X162702381Y-135685771D02*
X162797619Y-135733390D01*
X162797619Y-135733390D02*
X162845238Y-135781009D01*
X162845238Y-135781009D02*
X162892857Y-135876247D01*
X162892857Y-135876247D02*
X162892857Y-136114342D01*
X162892857Y-136114342D02*
X162845238Y-136209580D01*
X162845238Y-136209580D02*
X162797619Y-136257200D01*
X162797619Y-136257200D02*
X162702381Y-136304819D01*
X162702381Y-136304819D02*
X162464286Y-136304819D01*
X162464286Y-136304819D02*
X162369048Y-136257200D01*
X162369048Y-136257200D02*
X162321429Y-136209580D01*
X138749819Y-108429523D02*
X139464104Y-108429523D01*
X139464104Y-108429523D02*
X139606961Y-108477142D01*
X139606961Y-108477142D02*
X139702200Y-108572380D01*
X139702200Y-108572380D02*
X139749819Y-108715237D01*
X139749819Y-108715237D02*
X139749819Y-108810475D01*
X138845057Y-108000951D02*
X138797438Y-107953332D01*
X138797438Y-107953332D02*
X138749819Y-107858094D01*
X138749819Y-107858094D02*
X138749819Y-107619999D01*
X138749819Y-107619999D02*
X138797438Y-107524761D01*
X138797438Y-107524761D02*
X138845057Y-107477142D01*
X138845057Y-107477142D02*
X138940295Y-107429523D01*
X138940295Y-107429523D02*
X139035533Y-107429523D01*
X139035533Y-107429523D02*
X139178390Y-107477142D01*
X139178390Y-107477142D02*
X139749819Y-108048570D01*
X139749819Y-108048570D02*
X139749819Y-107429523D01*
X138749819Y-107096189D02*
X138749819Y-106429523D01*
X138749819Y-106429523D02*
X139749819Y-106858094D01*
D11*
%TO.C,J9*%
X133400000Y-124650000D02*
X134730000Y-124650000D01*
X133400000Y-125980000D02*
X133400000Y-124650000D01*
X133920000Y-128340000D02*
X133920000Y-128400000D01*
X133920000Y-128340000D02*
X136580000Y-128340000D01*
X133920000Y-128400000D02*
X136580000Y-128400000D01*
X136580000Y-128340000D02*
X136580000Y-128400000D01*
%TO.C,J7*%
X122400000Y-136650000D02*
X123730000Y-136650000D01*
X122400000Y-137980000D02*
X122400000Y-136650000D01*
X122920000Y-140340000D02*
X122920000Y-140400000D01*
X122920000Y-140340000D02*
X125580000Y-140340000D01*
X122920000Y-140400000D02*
X125580000Y-140400000D01*
X125580000Y-140340000D02*
X125580000Y-140400000D01*
%TO.C,J29*%
X165050000Y-101910000D02*
X165050000Y-110540000D01*
X166020000Y-110540000D02*
X166020000Y-110950000D01*
X166740000Y-110540000D02*
X166740000Y-110950000D01*
X167650000Y-101910000D02*
X167650000Y-110540000D01*
X168560000Y-110540000D02*
X168560000Y-110950000D01*
X169280000Y-110540000D02*
X169280000Y-110950000D01*
X170190000Y-101910000D02*
X170190000Y-110540000D01*
X171100000Y-110540000D02*
X171100000Y-110950000D01*
X171820000Y-110540000D02*
X171820000Y-110950000D01*
X172730000Y-101910000D02*
X172730000Y-110540000D01*
X172848100Y-101910000D02*
X172848100Y-110540000D01*
X172966195Y-101910000D02*
X172966195Y-110540000D01*
X173084290Y-101910000D02*
X173084290Y-110540000D01*
X173202385Y-101910000D02*
X173202385Y-110540000D01*
X173320480Y-101910000D02*
X173320480Y-110540000D01*
X173438575Y-101910000D02*
X173438575Y-110540000D01*
X173556670Y-101910000D02*
X173556670Y-110540000D01*
X173640000Y-110540000D02*
X173640000Y-110890000D01*
X173674765Y-101910000D02*
X173674765Y-110540000D01*
X173792860Y-101910000D02*
X173792860Y-110540000D01*
X173910955Y-101910000D02*
X173910955Y-110540000D01*
X174029050Y-101910000D02*
X174029050Y-110540000D01*
X174147145Y-101910000D02*
X174147145Y-110540000D01*
X174265240Y-101910000D02*
X174265240Y-110540000D01*
X174360000Y-110540000D02*
X174360000Y-110890000D01*
X174383335Y-101910000D02*
X174383335Y-110540000D01*
X174501430Y-101910000D02*
X174501430Y-110540000D01*
X174619525Y-101910000D02*
X174619525Y-110540000D01*
X174737620Y-101910000D02*
X174737620Y-110540000D01*
X174855715Y-101910000D02*
X174855715Y-110540000D01*
X174973810Y-101910000D02*
X174973810Y-110540000D01*
X175091905Y-101910000D02*
X175091905Y-110540000D01*
X175210000Y-101910000D02*
X175210000Y-110540000D01*
X175330000Y-101910000D02*
X165050000Y-101910000D01*
X175330000Y-101910000D02*
X175330000Y-110540000D01*
X175330000Y-110540000D02*
X165050000Y-110540000D01*
X175330000Y-112000000D02*
X175330000Y-113110000D01*
X175330000Y-113110000D02*
X174000000Y-113110000D01*
%TO.C,J8*%
X122400000Y-145650000D02*
X123730000Y-145650000D01*
X122400000Y-146980000D02*
X122400000Y-145650000D01*
X122920000Y-149340000D02*
X122920000Y-149400000D01*
X122920000Y-149340000D02*
X125580000Y-149340000D01*
X122920000Y-149400000D02*
X125580000Y-149400000D01*
X125580000Y-149340000D02*
X125580000Y-149400000D01*
%TO.C,J20*%
X172150000Y-152150000D02*
X173480000Y-152150000D01*
X172150000Y-153480000D02*
X172150000Y-152150000D01*
X172670000Y-155840000D02*
X172670000Y-155900000D01*
X172670000Y-155840000D02*
X175330000Y-155840000D01*
X172670000Y-155900000D02*
X175330000Y-155900000D01*
X175330000Y-155840000D02*
X175330000Y-155900000D01*
%TO.C,J23*%
X197650000Y-136650000D02*
X198980000Y-136650000D01*
X197650000Y-137980000D02*
X197650000Y-136650000D01*
X198170000Y-140340000D02*
X198170000Y-140400000D01*
X198170000Y-140340000D02*
X200830000Y-140340000D01*
X198170000Y-140400000D02*
X200830000Y-140400000D01*
X200830000Y-140340000D02*
X200830000Y-140400000D01*
%TO.C,J11*%
X133400000Y-142650000D02*
X134730000Y-142650000D01*
X133400000Y-143980000D02*
X133400000Y-142650000D01*
X133920000Y-146340000D02*
X133920000Y-146400000D01*
X133920000Y-146340000D02*
X136580000Y-146340000D01*
X133920000Y-146400000D02*
X136580000Y-146400000D01*
X136580000Y-146340000D02*
X136580000Y-146400000D01*
%TO.C,J12*%
X134650000Y-152150000D02*
X135980000Y-152150000D01*
X134650000Y-153480000D02*
X134650000Y-152150000D01*
X135170000Y-155840000D02*
X135170000Y-155900000D01*
X135170000Y-155840000D02*
X137830000Y-155840000D01*
X135170000Y-155900000D02*
X137830000Y-155900000D01*
X137830000Y-155840000D02*
X137830000Y-155900000D01*
%TO.C,J1*%
X95900000Y-124650000D02*
X97230000Y-124650000D01*
X95900000Y-125980000D02*
X95900000Y-124650000D01*
X96420000Y-128340000D02*
X96420000Y-128400000D01*
X96420000Y-128340000D02*
X99080000Y-128340000D01*
X96420000Y-128400000D02*
X99080000Y-128400000D01*
X99080000Y-128340000D02*
X99080000Y-128400000D01*
%TO.C,J24*%
X197650000Y-145650000D02*
X198980000Y-145650000D01*
X197650000Y-146980000D02*
X197650000Y-145650000D01*
X198170000Y-149340000D02*
X198170000Y-149400000D01*
X198170000Y-149340000D02*
X200830000Y-149340000D01*
X198170000Y-149400000D02*
X200830000Y-149400000D01*
X200830000Y-149340000D02*
X200830000Y-149400000D01*
%TO.C,J26*%
X115750000Y-101910000D02*
X115750000Y-110540000D01*
X116720000Y-110540000D02*
X116720000Y-110950000D01*
X117440000Y-110540000D02*
X117440000Y-110950000D01*
X118350000Y-101910000D02*
X118350000Y-110540000D01*
X119260000Y-110540000D02*
X119260000Y-110950000D01*
X119980000Y-110540000D02*
X119980000Y-110950000D01*
X120890000Y-101910000D02*
X120890000Y-110540000D01*
X121800000Y-110540000D02*
X121800000Y-110950000D01*
X122520000Y-110540000D02*
X122520000Y-110950000D01*
X123430000Y-101910000D02*
X123430000Y-110540000D01*
X123548100Y-101910000D02*
X123548100Y-110540000D01*
X123666195Y-101910000D02*
X123666195Y-110540000D01*
X123784290Y-101910000D02*
X123784290Y-110540000D01*
X123902385Y-101910000D02*
X123902385Y-110540000D01*
X124020480Y-101910000D02*
X124020480Y-110540000D01*
X124138575Y-101910000D02*
X124138575Y-110540000D01*
X124256670Y-101910000D02*
X124256670Y-110540000D01*
X124340000Y-110540000D02*
X124340000Y-110890000D01*
X124374765Y-101910000D02*
X124374765Y-110540000D01*
X124492860Y-101910000D02*
X124492860Y-110540000D01*
X124610955Y-101910000D02*
X124610955Y-110540000D01*
X124729050Y-101910000D02*
X124729050Y-110540000D01*
X124847145Y-101910000D02*
X124847145Y-110540000D01*
X124965240Y-101910000D02*
X124965240Y-110540000D01*
X125060000Y-110540000D02*
X125060000Y-110890000D01*
X125083335Y-101910000D02*
X125083335Y-110540000D01*
X125201430Y-101910000D02*
X125201430Y-110540000D01*
X125319525Y-101910000D02*
X125319525Y-110540000D01*
X125437620Y-101910000D02*
X125437620Y-110540000D01*
X125555715Y-101910000D02*
X125555715Y-110540000D01*
X125673810Y-101910000D02*
X125673810Y-110540000D01*
X125791905Y-101910000D02*
X125791905Y-110540000D01*
X125910000Y-101910000D02*
X125910000Y-110540000D01*
X126030000Y-101910000D02*
X115750000Y-101910000D01*
X126030000Y-101910000D02*
X126030000Y-110540000D01*
X126030000Y-110540000D02*
X115750000Y-110540000D01*
X126030000Y-112000000D02*
X126030000Y-113110000D01*
X126030000Y-113110000D02*
X124700000Y-113110000D01*
%TO.C,J17*%
X170900000Y-124650000D02*
X172230000Y-124650000D01*
X170900000Y-125980000D02*
X170900000Y-124650000D01*
X171420000Y-128340000D02*
X171420000Y-128400000D01*
X171420000Y-128340000D02*
X174080000Y-128340000D01*
X171420000Y-128400000D02*
X174080000Y-128400000D01*
X174080000Y-128340000D02*
X174080000Y-128400000D01*
%TO.C,J28*%
X153300000Y-101910000D02*
X153300000Y-110540000D01*
X154270000Y-110540000D02*
X154270000Y-110950000D01*
X154990000Y-110540000D02*
X154990000Y-110950000D01*
X155900000Y-101910000D02*
X155900000Y-110540000D01*
X156810000Y-110540000D02*
X156810000Y-110950000D01*
X157530000Y-110540000D02*
X157530000Y-110950000D01*
X158440000Y-101910000D02*
X158440000Y-110540000D01*
X159350000Y-110540000D02*
X159350000Y-110950000D01*
X160070000Y-110540000D02*
X160070000Y-110950000D01*
X160980000Y-101910000D02*
X160980000Y-110540000D01*
X161098100Y-101910000D02*
X161098100Y-110540000D01*
X161216195Y-101910000D02*
X161216195Y-110540000D01*
X161334290Y-101910000D02*
X161334290Y-110540000D01*
X161452385Y-101910000D02*
X161452385Y-110540000D01*
X161570480Y-101910000D02*
X161570480Y-110540000D01*
X161688575Y-101910000D02*
X161688575Y-110540000D01*
X161806670Y-101910000D02*
X161806670Y-110540000D01*
X161890000Y-110540000D02*
X161890000Y-110890000D01*
X161924765Y-101910000D02*
X161924765Y-110540000D01*
X162042860Y-101910000D02*
X162042860Y-110540000D01*
X162160955Y-101910000D02*
X162160955Y-110540000D01*
X162279050Y-101910000D02*
X162279050Y-110540000D01*
X162397145Y-101910000D02*
X162397145Y-110540000D01*
X162515240Y-101910000D02*
X162515240Y-110540000D01*
X162610000Y-110540000D02*
X162610000Y-110890000D01*
X162633335Y-101910000D02*
X162633335Y-110540000D01*
X162751430Y-101910000D02*
X162751430Y-110540000D01*
X162869525Y-101910000D02*
X162869525Y-110540000D01*
X162987620Y-101910000D02*
X162987620Y-110540000D01*
X163105715Y-101910000D02*
X163105715Y-110540000D01*
X163223810Y-101910000D02*
X163223810Y-110540000D01*
X163341905Y-101910000D02*
X163341905Y-110540000D01*
X163460000Y-101910000D02*
X163460000Y-110540000D01*
X163580000Y-101910000D02*
X153300000Y-101910000D01*
X163580000Y-101910000D02*
X163580000Y-110540000D01*
X163580000Y-110540000D02*
X153300000Y-110540000D01*
X163580000Y-112000000D02*
X163580000Y-113110000D01*
X163580000Y-113110000D02*
X162250000Y-113110000D01*
%TO.C,J5*%
X121900000Y-117650000D02*
X123230000Y-117650000D01*
X121900000Y-118980000D02*
X121900000Y-117650000D01*
X122420000Y-121340000D02*
X122420000Y-121400000D01*
X122420000Y-121340000D02*
X125080000Y-121340000D01*
X122420000Y-121400000D02*
X125080000Y-121400000D01*
X125080000Y-121340000D02*
X125080000Y-121400000D01*
%TO.C,J25*%
X90075000Y-101910000D02*
X90075000Y-110540000D01*
X91045000Y-110540000D02*
X91045000Y-110950000D01*
X91765000Y-110540000D02*
X91765000Y-110950000D01*
X92675000Y-101910000D02*
X92675000Y-110540000D01*
X93585000Y-110540000D02*
X93585000Y-110950000D01*
X94305000Y-110540000D02*
X94305000Y-110950000D01*
X95215000Y-101910000D02*
X95215000Y-110540000D01*
X96125000Y-110540000D02*
X96125000Y-110950000D01*
X96845000Y-110540000D02*
X96845000Y-110950000D01*
X97755000Y-101910000D02*
X97755000Y-110540000D01*
X97873100Y-101910000D02*
X97873100Y-110540000D01*
X97991195Y-101910000D02*
X97991195Y-110540000D01*
X98109290Y-101910000D02*
X98109290Y-110540000D01*
X98227385Y-101910000D02*
X98227385Y-110540000D01*
X98345480Y-101910000D02*
X98345480Y-110540000D01*
X98463575Y-101910000D02*
X98463575Y-110540000D01*
X98581670Y-101910000D02*
X98581670Y-110540000D01*
X98665000Y-110540000D02*
X98665000Y-110890000D01*
X98699765Y-101910000D02*
X98699765Y-110540000D01*
X98817860Y-101910000D02*
X98817860Y-110540000D01*
X98935955Y-101910000D02*
X98935955Y-110540000D01*
X99054050Y-101910000D02*
X99054050Y-110540000D01*
X99172145Y-101910000D02*
X99172145Y-110540000D01*
X99290240Y-101910000D02*
X99290240Y-110540000D01*
X99385000Y-110540000D02*
X99385000Y-110890000D01*
X99408335Y-101910000D02*
X99408335Y-110540000D01*
X99526430Y-101910000D02*
X99526430Y-110540000D01*
X99644525Y-101910000D02*
X99644525Y-110540000D01*
X99762620Y-101910000D02*
X99762620Y-110540000D01*
X99880715Y-101910000D02*
X99880715Y-110540000D01*
X99998810Y-101910000D02*
X99998810Y-110540000D01*
X100116905Y-101910000D02*
X100116905Y-110540000D01*
X100235000Y-101910000D02*
X100235000Y-110540000D01*
X100355000Y-101910000D02*
X90075000Y-101910000D01*
X100355000Y-101910000D02*
X100355000Y-110540000D01*
X100355000Y-110540000D02*
X90075000Y-110540000D01*
X100355000Y-112000000D02*
X100355000Y-113110000D01*
X100355000Y-113110000D02*
X99025000Y-113110000D01*
%TO.C,J18*%
X170900000Y-133650000D02*
X172230000Y-133650000D01*
X170900000Y-134980000D02*
X170900000Y-133650000D01*
X171420000Y-137340000D02*
X171420000Y-137400000D01*
X171420000Y-137340000D02*
X174080000Y-137340000D01*
X171420000Y-137400000D02*
X174080000Y-137400000D01*
X174080000Y-137340000D02*
X174080000Y-137400000D01*
%TO.C,J2*%
X95900000Y-133650000D02*
X97230000Y-133650000D01*
X95900000Y-134980000D02*
X95900000Y-133650000D01*
X96420000Y-137340000D02*
X96420000Y-137400000D01*
X96420000Y-137340000D02*
X99080000Y-137340000D01*
X96420000Y-137400000D02*
X99080000Y-137400000D01*
X99080000Y-137340000D02*
X99080000Y-137400000D01*
%TO.C,J3*%
X95900000Y-142650000D02*
X97230000Y-142650000D01*
X95900000Y-143980000D02*
X95900000Y-142650000D01*
X96420000Y-146340000D02*
X96420000Y-146400000D01*
X96420000Y-146340000D02*
X99080000Y-146340000D01*
X96420000Y-146400000D02*
X99080000Y-146400000D01*
X99080000Y-146340000D02*
X99080000Y-146400000D01*
%TO.C,J6*%
X122400000Y-127650000D02*
X123730000Y-127650000D01*
X122400000Y-128980000D02*
X122400000Y-127650000D01*
X122920000Y-131340000D02*
X122920000Y-131400000D01*
X122920000Y-131340000D02*
X125580000Y-131340000D01*
X122920000Y-131400000D02*
X125580000Y-131400000D01*
X125580000Y-131340000D02*
X125580000Y-131400000D01*
%TO.C,J14*%
X159900000Y-127650000D02*
X161230000Y-127650000D01*
X159900000Y-128980000D02*
X159900000Y-127650000D01*
X160420000Y-131340000D02*
X160420000Y-131400000D01*
X160420000Y-131340000D02*
X163080000Y-131340000D01*
X160420000Y-131400000D02*
X163080000Y-131400000D01*
X163080000Y-131340000D02*
X163080000Y-131400000D01*
%TO.C,J4*%
X97150000Y-152150000D02*
X98480000Y-152150000D01*
X97150000Y-153480000D02*
X97150000Y-152150000D01*
X97670000Y-155840000D02*
X97670000Y-155900000D01*
X97670000Y-155840000D02*
X100330000Y-155840000D01*
X97670000Y-155900000D02*
X100330000Y-155900000D01*
X100330000Y-155840000D02*
X100330000Y-155900000D01*
%TO.C,J21*%
X196650000Y-117650000D02*
X197980000Y-117650000D01*
X196650000Y-118980000D02*
X196650000Y-117650000D01*
X197170000Y-121340000D02*
X197170000Y-121400000D01*
X197170000Y-121340000D02*
X199830000Y-121340000D01*
X197170000Y-121400000D02*
X199830000Y-121400000D01*
X199830000Y-121340000D02*
X199830000Y-121400000D01*
%TO.C,J22*%
X197650000Y-127650000D02*
X198980000Y-127650000D01*
X197650000Y-128980000D02*
X197650000Y-127650000D01*
X198170000Y-131340000D02*
X198170000Y-131400000D01*
X198170000Y-131340000D02*
X200830000Y-131340000D01*
X198170000Y-131400000D02*
X200830000Y-131400000D01*
X200830000Y-131340000D02*
X200830000Y-131400000D01*
%TO.C,J10*%
X133400000Y-133650000D02*
X134730000Y-133650000D01*
X133400000Y-134980000D02*
X133400000Y-133650000D01*
X133920000Y-137340000D02*
X133920000Y-137400000D01*
X133920000Y-137340000D02*
X136580000Y-137340000D01*
X133920000Y-137400000D02*
X136580000Y-137400000D01*
X136580000Y-137340000D02*
X136580000Y-137400000D01*
%TO.C,J19*%
X170900000Y-142650000D02*
X172230000Y-142650000D01*
X170900000Y-143980000D02*
X170900000Y-142650000D01*
X171420000Y-146340000D02*
X171420000Y-146400000D01*
X171420000Y-146340000D02*
X174080000Y-146340000D01*
X171420000Y-146400000D02*
X174080000Y-146400000D01*
X174080000Y-146340000D02*
X174080000Y-146400000D01*
%TO.C,J13*%
X159400000Y-117650000D02*
X160730000Y-117650000D01*
X159400000Y-118980000D02*
X159400000Y-117650000D01*
X159920000Y-121340000D02*
X159920000Y-121400000D01*
X159920000Y-121340000D02*
X162580000Y-121340000D01*
X159920000Y-121400000D02*
X162580000Y-121400000D01*
X162580000Y-121340000D02*
X162580000Y-121400000D01*
%TO.C,J30*%
X190875000Y-101860000D02*
X190875000Y-110490000D01*
X191845000Y-110490000D02*
X191845000Y-110900000D01*
X192565000Y-110490000D02*
X192565000Y-110900000D01*
X193475000Y-101860000D02*
X193475000Y-110490000D01*
X194385000Y-110490000D02*
X194385000Y-110900000D01*
X195105000Y-110490000D02*
X195105000Y-110900000D01*
X196015000Y-101860000D02*
X196015000Y-110490000D01*
X196925000Y-110490000D02*
X196925000Y-110900000D01*
X197645000Y-110490000D02*
X197645000Y-110900000D01*
X198555000Y-101860000D02*
X198555000Y-110490000D01*
X198673100Y-101860000D02*
X198673100Y-110490000D01*
X198791195Y-101860000D02*
X198791195Y-110490000D01*
X198909290Y-101860000D02*
X198909290Y-110490000D01*
X199027385Y-101860000D02*
X199027385Y-110490000D01*
X199145480Y-101860000D02*
X199145480Y-110490000D01*
X199263575Y-101860000D02*
X199263575Y-110490000D01*
X199381670Y-101860000D02*
X199381670Y-110490000D01*
X199465000Y-110490000D02*
X199465000Y-110840000D01*
X199499765Y-101860000D02*
X199499765Y-110490000D01*
X199617860Y-101860000D02*
X199617860Y-110490000D01*
X199735955Y-101860000D02*
X199735955Y-110490000D01*
X199854050Y-101860000D02*
X199854050Y-110490000D01*
X199972145Y-101860000D02*
X199972145Y-110490000D01*
X200090240Y-101860000D02*
X200090240Y-110490000D01*
X200185000Y-110490000D02*
X200185000Y-110840000D01*
X200208335Y-101860000D02*
X200208335Y-110490000D01*
X200326430Y-101860000D02*
X200326430Y-110490000D01*
X200444525Y-101860000D02*
X200444525Y-110490000D01*
X200562620Y-101860000D02*
X200562620Y-110490000D01*
X200680715Y-101860000D02*
X200680715Y-110490000D01*
X200798810Y-101860000D02*
X200798810Y-110490000D01*
X200916905Y-101860000D02*
X200916905Y-110490000D01*
X201035000Y-101860000D02*
X201035000Y-110490000D01*
X201155000Y-101860000D02*
X190875000Y-101860000D01*
X201155000Y-101860000D02*
X201155000Y-110490000D01*
X201155000Y-110490000D02*
X190875000Y-110490000D01*
X201155000Y-111950000D02*
X201155000Y-113060000D01*
X201155000Y-113060000D02*
X199825000Y-113060000D01*
%TO.C,J16*%
X159900000Y-145150000D02*
X161230000Y-145150000D01*
X159900000Y-146480000D02*
X159900000Y-145150000D01*
X160420000Y-148840000D02*
X160420000Y-148900000D01*
X160420000Y-148840000D02*
X163080000Y-148840000D01*
X160420000Y-148900000D02*
X163080000Y-148900000D01*
X163080000Y-148840000D02*
X163080000Y-148900000D01*
%TO.C,J15*%
X159900000Y-136650000D02*
X161230000Y-136650000D01*
X159900000Y-137980000D02*
X159900000Y-136650000D01*
X160420000Y-140340000D02*
X160420000Y-140400000D01*
X160420000Y-140340000D02*
X163080000Y-140340000D01*
X160420000Y-140400000D02*
X163080000Y-140400000D01*
X163080000Y-140340000D02*
X163080000Y-140400000D01*
%TO.C,J27*%
X127575000Y-101910000D02*
X127575000Y-110540000D01*
X128545000Y-110540000D02*
X128545000Y-110950000D01*
X129265000Y-110540000D02*
X129265000Y-110950000D01*
X130175000Y-101910000D02*
X130175000Y-110540000D01*
X131085000Y-110540000D02*
X131085000Y-110950000D01*
X131805000Y-110540000D02*
X131805000Y-110950000D01*
X132715000Y-101910000D02*
X132715000Y-110540000D01*
X133625000Y-110540000D02*
X133625000Y-110950000D01*
X134345000Y-110540000D02*
X134345000Y-110950000D01*
X135255000Y-101910000D02*
X135255000Y-110540000D01*
X135373100Y-101910000D02*
X135373100Y-110540000D01*
X135491195Y-101910000D02*
X135491195Y-110540000D01*
X135609290Y-101910000D02*
X135609290Y-110540000D01*
X135727385Y-101910000D02*
X135727385Y-110540000D01*
X135845480Y-101910000D02*
X135845480Y-110540000D01*
X135963575Y-101910000D02*
X135963575Y-110540000D01*
X136081670Y-101910000D02*
X136081670Y-110540000D01*
X136165000Y-110540000D02*
X136165000Y-110890000D01*
X136199765Y-101910000D02*
X136199765Y-110540000D01*
X136317860Y-101910000D02*
X136317860Y-110540000D01*
X136435955Y-101910000D02*
X136435955Y-110540000D01*
X136554050Y-101910000D02*
X136554050Y-110540000D01*
X136672145Y-101910000D02*
X136672145Y-110540000D01*
X136790240Y-101910000D02*
X136790240Y-110540000D01*
X136885000Y-110540000D02*
X136885000Y-110890000D01*
X136908335Y-101910000D02*
X136908335Y-110540000D01*
X137026430Y-101910000D02*
X137026430Y-110540000D01*
X137144525Y-101910000D02*
X137144525Y-110540000D01*
X137262620Y-101910000D02*
X137262620Y-110540000D01*
X137380715Y-101910000D02*
X137380715Y-110540000D01*
X137498810Y-101910000D02*
X137498810Y-110540000D01*
X137616905Y-101910000D02*
X137616905Y-110540000D01*
X137735000Y-101910000D02*
X137735000Y-110540000D01*
X137855000Y-101910000D02*
X127575000Y-101910000D01*
X137855000Y-101910000D02*
X137855000Y-110540000D01*
X137855000Y-110540000D02*
X127575000Y-110540000D01*
X137855000Y-112000000D02*
X137855000Y-113110000D01*
X137855000Y-113110000D02*
X136525000Y-113110000D01*
%TD*%
M02*
