<?xml version="1.0" standalone="no"?>
 <!DOCTYPE svg PUBLIC "-//W3C//DTD SVG 1.1//EN" 
 "http://www.w3.org/Graphics/SVG/1.1/DTD/svg11.dtd"> 
<svg
  xmlns:svg="http://www.w3.org/2000/svg"
  xmlns="http://www.w3.org/2000/svg"
  xmlns:xlink="http://www.w3.org/1999/xlink"
  version="1.1"
  width="135.9916mm" height="75.9968mm" viewBox="0.0000 0.0000 135.9916 75.9968">
<title>SVG Image created as LowerPOGO-F_Cu.svg date 2024/05/21 13:44:24 </title>
  <desc>Image generated by PCBNEW </desc>
<g style="fill:#000000; fill-opacity:1.0000;stroke:#000000; stroke-opacity:1.0000;
stroke-linecap:round; stroke-linejoin:round;"
 transform="translate(0 0) scale(1 1)">
</g>
<g style="fill:#C83434; fill-opacity:1.0000; stroke:none;">
<circle cx="78.6500" cy="14.2100" r="0.8500" /> 
<circle cx="76.1100" cy="14.2100" r="0.8500" /> 
<circle cx="73.5700" cy="14.2100" r="0.8500" /> 
<circle cx="71.0300" cy="14.2100" r="0.8500" /> 
<circle cx="68.4900" cy="14.2100" r="0.8500" /> 
<circle cx="65.9500" cy="14.2100" r="0.8500" /> 
<circle cx="63.4100" cy="14.2100" r="0.8500" /> 
<circle cx="60.8700" cy="14.2100" r="0.8500" /> 
<circle cx="58.3300" cy="14.2100" r="0.8500" /> 
<circle cx="55.7900" cy="14.2100" r="0.8500" /> 
<circle cx="53.2500" cy="14.2100" r="0.8500" /> 
<circle cx="50.7100" cy="14.2100" r="0.8500" /> 
<circle cx="78.6500" cy="16.7500" r="0.8500" /> 
<circle cx="76.1100" cy="16.7500" r="0.8500" /> 
<circle cx="73.5700" cy="16.7500" r="0.8500" /> 
<circle cx="71.0300" cy="16.7500" r="0.8500" /> 
<circle cx="68.4900" cy="16.7500" r="0.8500" /> 
<circle cx="65.9500" cy="16.7500" r="0.8500" /> 
<circle cx="63.4100" cy="16.7500" r="0.8500" /> 
<circle cx="60.8700" cy="16.7500" r="0.8500" /> 
<circle cx="58.3300" cy="16.7500" r="0.8500" /> 
<circle cx="55.7900" cy="16.7500" r="0.8500" /> 
<circle cx="53.2500" cy="16.7500" r="0.8500" /> 
<path style="fill:#C83434; fill-opacity:1.0000; stroke:none;fill-rule:evenodd;"
d="M 49.8600,15.9000
51.5600,15.9000
51.5600,17.6000
49.8600,17.6000
Z" /> 
<circle cx="53.5000" cy="38.0000" r="1.7500" /> 
</g>
<g style="fill:#C83434; fill-opacity:1.0000; stroke:none;">
<circle cx="41.0000" cy="50.0000" r="1.7500" /> 
</g>
<g style="fill:#C83434; fill-opacity:1.0000; stroke:none;">
<circle cx="41.0000" cy="59.0000" r="1.7500" /> 
</g>
<g style="fill:#C83434; fill-opacity:1.0000; stroke:none;">
<circle cx="92.5000" cy="65.5000" r="1.7500" /> 
</g>
<g style="fill:#C83434; fill-opacity:1.0000; stroke:none;">
<circle cx="121.2500" cy="66.0000" r="1.8000" /> 
</g>
<g style="fill:#C83434; fill-opacity:1.0000; stroke:none;">
<circle cx="121.2500" cy="66.0000" r="2.8000" /> 
</g>
<g style="fill:#C83434; fill-opacity:1.0000; stroke:none;">
<circle cx="117.0000" cy="50.0000" r="1.7500" /> 
</g>
<g style="fill:#C83434; fill-opacity:1.0000; stroke:none;">
<circle cx="13.7500" cy="21.0000" r="1.8000" /> 
</g>
<g style="fill:#C83434; fill-opacity:1.0000; stroke:none;">
<circle cx="13.7500" cy="21.0000" r="2.8000" /> 
</g>
<g style="fill:#C83434; fill-opacity:1.0000; stroke:none;">
<circle cx="121.2500" cy="21.0000" r="1.8000" /> 
</g>
<g style="fill:#C83434; fill-opacity:1.0000; stroke:none;">
<circle cx="121.2500" cy="21.0000" r="2.8000" /> 
</g>
<g style="fill:#C83434; fill-opacity:1.0000; stroke:none;">
<circle cx="44.0000" cy="66.0000" r="1.8000" /> 
</g>
<g style="fill:#C83434; fill-opacity:1.0000; stroke:none;">
<circle cx="44.0000" cy="66.0000" r="2.8000" /> 
</g>
<g style="fill:#C83434; fill-opacity:1.0000; stroke:none;">
<circle cx="53.5000" cy="56.0000" r="1.7500" /> 
</g>
<g style="fill:#C83434; fill-opacity:1.0000; stroke:none;">
<circle cx="54.5000" cy="65.5000" r="1.7500" /> 
</g>
<g style="fill:#C83434; fill-opacity:1.0000; stroke:none;">
<circle cx="15.5000" cy="38.0000" r="1.7500" /> 
</g>
<g style="fill:#C83434; fill-opacity:1.0000; stroke:none;">
<circle cx="117.0000" cy="59.0000" r="1.7500" /> 
</g>
<g style="fill:#C83434; fill-opacity:1.0000; stroke:none;">
<circle cx="91.5000" cy="38.0000" r="1.7500" /> 
</g>
<g style="fill:#C83434; fill-opacity:1.0000; stroke:none;">
<circle cx="40.5000" cy="31.0000" r="1.7500" /> 
</g>
<g style="fill:#C83434; fill-opacity:1.0000; stroke:none;">
<circle cx="91.5000" cy="47.0000" r="1.7500" /> 
</g>
<g style="fill:#C83434; fill-opacity:1.0000; stroke:none;">
<circle cx="15.5000" cy="47.0000" r="1.7500" /> 
</g>
<g style="fill:#C83434; fill-opacity:1.0000; stroke:none;">
<circle cx="15.5000" cy="56.0000" r="1.7500" /> 
</g>
<g style="fill:#C83434; fill-opacity:1.0000; stroke:none;">
<circle cx="41.0000" cy="41.0000" r="1.7500" /> 
</g>
<g style="fill:#C83434; fill-opacity:1.0000; stroke:none;">
<circle cx="79.0000" cy="41.0000" r="1.7500" /> 
</g>
<g style="fill:#C83434; fill-opacity:1.0000; stroke:none;">
<circle cx="16.5000" cy="65.5000" r="1.7500" /> 
</g>
<g style="fill:#C83434; fill-opacity:1.0000; stroke:none;">
<circle cx="116.0000" cy="31.0000" r="1.7500" /> 
</g>
<g style="fill:#C83434; fill-opacity:1.0000; stroke:none;">
<circle cx="117.0000" cy="41.0000" r="1.7500" /> 
</g>
<g style="fill:#C83434; fill-opacity:1.0000; stroke:none;">
<circle cx="53.5000" cy="47.0000" r="1.7500" /> 
</g>
<g style="fill:#C83434; fill-opacity:1.0000; stroke:none;">
<circle cx="91.5000" cy="56.0000" r="1.7500" /> 
</g>
<g style="fill:#C83434; fill-opacity:1.0000; stroke:none;">
<circle cx="78.5000" cy="31.0000" r="1.7500" /> 
</g>
<g style="fill:#C83434; fill-opacity:1.0000; stroke:none;">
<circle cx="79.0000" cy="58.5000" r="1.7500" /> 
</g>
<g style="fill:#C83434; fill-opacity:1.0000; stroke:none;">
<circle cx="79.0000" cy="50.0000" r="1.7500" /> 
</g>
<g style="fill:none; 
stroke:#C83434; stroke-width:0.4000; stroke-opacity:1; 
stroke-linecap:round; stroke-linejoin:round;">
<path d="M79.0000 58.5000
L70.2500 67.2500
" />
<path d="M58.5870 67.2500
L56.9130 65.5760
" />
<path d="M56.9130 65.5760
L56.9130 17.8730
" />
<path d="M70.2500 67.2500
L58.5870 67.2500
" />
<path d="M56.9130 17.8730
L55.7900 16.7500
" />
<path d="M48.0000 65.7500
L48.0000 19.4600
" />
<path d="M48.0000 19.4600
L50.7100 16.7500
" />
<path d="M92.5000 65.5000
L88.3370 69.6630
" />
<path d="M88.3370 69.6630
L51.9130 69.6630
" />
<path d="M51.9130 69.6630
L48.0000 65.7500
" />
<path d="M91.5000 56.0000
L79.0000 68.5000
" />
<path d="M50.5000 66.0000
L50.5000 19.5000
" />
<path d="M50.5000 19.5000
L53.2500 16.7500
" />
<path d="M53.0000 68.5000
L50.5000 66.0000
" />
<path d="M79.0000 68.5000
L53.0000 68.5000
" />
<path d="M58.3300 65.2450
L58.3300 16.7500
" />
<path d="M79.0000 50.0000
L73.0000 56.0000
" />
<path d="M73.0000 63.6515
L70.0015 66.6500
" />
<path d="M70.0015 66.6500
L59.7350 66.6500
" />
<path d="M73.0000 56.0000
L73.0000 63.6515
" />
<path d="M59.7350 66.6500
L58.3300 65.2450
" />
<path d="M72.2500 21.3641
L70.6859 19.8000
" />
<path d="M70.6859 19.8000
L63.9200 19.8000
" />
<path d="M63.9200 19.8000
L60.8700 16.7500
" />
<path d="M79.0000 41.0000
L72.2500 34.2500
" />
<path d="M72.2500 34.2500
L72.2500 21.3641
" />
<path d="M89.7500 47.0000
L74.0000 31.2500
" />
<path d="M65.8600 19.2000
L63.4100 16.7500
" />
<path d="M74.0000 31.2500
L74.0000 22.2656
" />
<path d="M91.5000 47.0000
L89.7500 47.0000
" />
<path d="M70.9344 19.2000
L65.8600 19.2000
" />
<path d="M74.0000 22.2656
L70.9344 19.2000
" />
<path d="M67.8000 18.6000
L65.9500 16.7500
" />
<path d="M75.5000 22.9171
L71.1829 18.6000
" />
<path d="M75.5000 28.0000
L75.5000 22.9171
" />
<path d="M78.5000 31.0000
L75.5000 28.0000
" />
<path d="M71.1829 18.6000
L67.8000 18.6000
" />
<path d="M71.4315 18.0000
L69.7400 18.0000
" />
<path d="M80.7500 27.2500
L80.6815 27.2500
" />
<path d="M69.7400 18.0000
L68.4900 16.7500
" />
<path d="M80.6815 27.2500
L71.4315 18.0000
" />
<path d="M91.5000 38.0000
L80.7500 27.2500
" />
<path d="M109.4380 51.4380
L109.4380 20.1410
" />
<path d="M117.0000 59.0000
L109.4380 51.4380
" />
<path d="M109.0470 19.7500
L74.0300 19.7500
" />
<path d="M74.0300 19.7500
L71.0300 16.7500
" />
<path d="M109.4380 20.1410
L109.0470 19.7500
" />
<path d="M110.0380 43.0380
L110.0380 19.8925
" />
<path d="M110.0380 19.8925
L109.2565 19.1110
" />
<path d="M109.2565 19.1110
L75.9310 19.1110
" />
<path d="M75.9310 19.1110
L73.5700 16.7500
" />
<path d="M117.0000 50.0000
L110.0380 43.0380
" />
<path d="M77.8710 18.5110
L76.1100 16.7500
" />
<path d="M109.5051 18.5110
L77.8710 18.5110
" />
<path d="M110.6380 34.6380
L110.6380 19.6439
" />
<path d="M117.0000 41.0000
L110.6380 34.6380
" />
<path d="M110.6380 19.6439
L109.5051 18.5110
" />
<path d="M116.0000 31.0000
L116.0000 24.0000
" />
<path d="M109.9110 17.9110
L79.8110 17.9110
" />
<path d="M116.0000 24.0000
L109.9110 17.9110
" />
<path d="M79.8110 17.9110
L78.6500 16.7500
" />
<path style="fill:#C83434; fill-opacity:1.0000; stroke:none;fill-rule:evenodd;"
d="M 80.2278,3.7722
80.2495,3.8245
80.2495,16.1782
80.2494,16.1804
80.2494,16.3159
80.2835,16.4432
80.2835,16.4432
80.2835,16.4432
80.3494,16.5573
80.4425,16.6505
80.5567,16.7164
80.6840,16.7505
80.6840,16.7505
80.6840,16.7505
80.6841,16.7505
80.8159,16.7505
124.9255,16.7505
124.9778,16.7722
124.9995,16.8245
124.9995,69.7886
124.9778,69.8409
124.9255,69.8626
88.8825,69.8626
88.8301,69.8409
88.8085,69.7886
88.8301,69.7363
89.4417,69.1247
91.3897,67.1766
91.4421,67.1550
91.4775,67.1640
91.5006,67.1766
91.6877,67.2788
91.9491,67.3763
91.9491,67.3763
91.9491,67.3763
92.2217,67.4356
92.2835,67.4400
92.5000,67.4555
92.5000,67.4555
92.5000,67.4555
92.6948,67.4415
92.7783,67.4356
93.0509,67.3763
93.0509,67.3763
93.0509,67.3763
93.3123,67.2788
93.5225,67.1640
93.5572,67.1451
93.7806,66.9779
93.9779,66.7806
94.1451,66.5572
94.2788,66.3123
94.2788,66.3123
94.2788,66.3123
94.3763,66.0509
94.3763,66.0509
94.3763,66.0509
94.3873,66.0000
118.0450,66.0000
118.0651,66.3589
118.0651,66.3589
118.1253,66.7132
118.2248,67.0586
118.3624,67.3906
118.3624,67.3906
118.5362,67.7052
118.5362,67.7052
118.7442,67.9983
118.8502,68.1169
119.9855,66.9817
120.0296,67.0423
120.2077,67.2204
120.2683,67.2645
119.1331,68.3998
119.2517,68.5058
119.5448,68.7138
119.5448,68.7138
119.8594,68.8876
119.8594,68.8876
120.1914,69.0252
120.5368,69.1247
120.5368,69.1247
120.8911,69.1849
120.8911,69.1849
121.2500,69.2050
121.6089,69.1849
121.6089,69.1849
121.9632,69.1247
122.3086,69.0252
122.6406,68.8876
122.6406,68.8876
122.9552,68.7138
122.9552,68.7138
123.2483,68.5058
123.3669,68.3998
123.3669,68.3998
122.2317,67.2645
122.2923,67.2204
122.4704,67.0423
122.5145,66.9817
123.6498,68.1169
123.6498,68.1169
123.7558,67.9983
123.9638,67.7052
123.9638,67.7052
124.1376,67.3906
124.1376,67.3906
124.2752,67.0586
124.3747,66.7132
124.4349,66.3589
124.4349,66.3589
124.4550,66.0000
124.4349,65.6411
124.4349,65.6411
124.3747,65.2868
124.2752,64.9414
124.1376,64.6094
124.1376,64.6094
123.9638,64.2948
123.9638,64.2948
123.7558,64.0017
123.6498,63.8831
123.6498,63.8831
122.5145,65.0183
122.4704,64.9577
122.2923,64.7796
122.2317,64.7355
123.3669,63.6002
123.2483,63.4942
122.9552,63.2862
122.9552,63.2862
122.6406,63.1124
122.6406,63.1124
122.3086,62.9748
121.9632,62.8753
121.9632,62.8753
121.6089,62.8151
121.6089,62.8151
121.2500,62.7950
120.8911,62.8151
120.8911,62.8151
120.5368,62.8753
120.1914,62.9748
119.8594,63.1124
119.8594,63.1124
119.5448,63.2862
119.5448,63.2862
119.2517,63.4942
119.1331,63.6002
120.2683,64.7355
120.2077,64.7796
120.0296,64.9577
119.9855,65.0183
118.8502,63.8831
118.7442,64.0017
118.5362,64.2948
118.5362,64.2948
118.3624,64.6094
118.3624,64.6094
118.2248,64.9414
118.1253,65.2868
118.0651,65.6411
118.0651,65.6411
118.0450,66.0000
94.3873,66.0000
94.4356,65.7783
94.4465,65.6253
94.4555,65.5000
94.4555,65.5000
94.4356,65.2217
94.4247,65.1718
94.3763,64.9491
94.3763,64.9491
94.3763,64.9491
94.2788,64.6877
94.1451,64.4428
94.0343,64.2948
93.9779,64.2194
93.7806,64.0221
93.6689,63.9385
93.5572,63.8549
93.3123,63.7212
93.0509,63.6237
93.0509,63.6237
93.0509,63.6237
92.9428,63.6002
92.7783,63.5644
92.5000,63.5445
92.5000,63.5445
92.2217,63.5644
91.9491,63.6237
91.9491,63.6237
91.6877,63.7212
91.4428,63.8549
91.2194,64.0221
91.0221,64.2194
90.8549,64.4428
90.7212,64.6877
90.6237,64.9491
90.6237,64.9491
90.5644,65.2217
90.5445,65.5000
90.5445,65.5000
90.5644,65.7783
90.6237,66.0509
90.6237,66.0509
90.7212,66.3123
90.7212,66.3123
90.8360,66.5225
90.8420,66.5788
90.8233,66.6103
88.1928,69.2408
88.1405,69.2625
52.1095,69.2625
52.0572,69.2408
48.4222,65.6058
48.4005,65.5535
48.4005,19.6565
48.4222,19.6042
50.2042,17.8222
50.2565,17.8005
51.4545,17.8005
51.5068,17.8222
51.5285,17.8745
51.5068,17.9268
50.1795,19.2541
50.1268,19.3454
50.1268,19.3454
50.1043,19.4295
50.1043,19.4295
50.0995,19.4473
50.0995,19.4473
50.0995,65.9473
50.0995,66.0527
50.1268,66.1546
50.1268,66.1546
50.1795,66.2459
50.1795,66.2459
50.1795,66.2459
52.7541,68.8205
52.8454,68.8732
52.9473,68.9005
52.9473,68.9005
79.0527,68.9005
79.0527,68.9005
79.1546,68.8732
79.2459,68.8205
90.3897,57.6766
90.4421,57.6550
90.4775,57.6640
90.6877,57.7788
90.6877,57.7788
90.9491,57.8763
90.9491,57.8763
90.9491,57.8763
91.2217,57.9356
91.2835,57.9400
91.5000,57.9555
91.5000,57.9555
91.5000,57.9555
91.6948,57.9415
91.7783,57.9356
92.0509,57.8763
92.0509,57.8763
92.0509,57.8763
92.3123,57.7788
92.4210,57.7194
92.5572,57.6451
92.7806,57.4779
92.9779,57.2806
93.1451,57.0572
93.2788,56.8123
93.2788,56.8123
93.2788,56.8123
93.3763,56.5509
93.3763,56.5509
93.3763,56.5509
93.4356,56.2783
93.4555,56.0000
93.4555,56.0000
93.4356,55.7217
93.4356,55.7217
93.3763,55.4491
93.3763,55.4491
93.3763,55.4491
93.2788,55.1877
93.1451,54.9428
93.1033,54.8869
92.9779,54.7194
92.7806,54.5221
92.6689,54.4385
92.5572,54.3549
92.3123,54.2212
92.0509,54.1237
92.0509,54.1237
92.0509,54.1237
91.9960,54.1118
91.7783,54.0644
91.5000,54.0445
91.5000,54.0445
91.2217,54.0644
90.9491,54.1237
90.9491,54.1237
90.6877,54.2212
90.4428,54.3549
90.2194,54.5221
90.0221,54.7194
89.8549,54.9428
89.7212,55.1877
89.6237,55.4491
89.6237,55.4491
89.5644,55.7217
89.5445,56.0000
89.5445,56.0000
89.5644,56.2783
89.6237,56.5509
89.6237,56.5509
89.7212,56.8123
89.7212,56.8123
89.8360,57.0225
89.8420,57.0788
89.8233,57.1103
78.8558,68.0778
78.8035,68.0995
53.1965,68.0995
53.1442,68.0778
50.9222,65.8558
50.9005,65.8035
50.9005,65.5000
52.5445,65.5000
52.5445,65.5000
52.5644,65.7783
52.6237,66.0509
52.6237,66.0509
52.7212,66.3123
52.8549,66.5572
52.8711,66.5788
53.0221,66.7806
53.2194,66.9779
53.3056,67.0423
53.4428,67.1451
53.6877,67.2788
53.9491,67.3763
53.9491,67.3763
53.9491,67.3763
54.2217,67.4356
54.2835,67.4400
54.5000,67.4555
54.5000,67.4555
54.5000,67.4555
54.6948,67.4415
54.7783,67.4356
55.0509,67.3763
55.0509,67.3763
55.0509,67.3763
55.3123,67.2788
55.5225,67.1640
55.5572,67.1451
55.7806,66.9779
55.9779,66.7806
56.1451,66.5572
56.2788,66.3123
56.2788,66.3123
56.2788,66.3123
56.3763,66.0509
56.3763,66.0509
56.3763,66.0509
56.4309,65.7996
56.4632,65.7531
56.5190,65.7430
56.5655,65.7753
56.5673,65.7783
56.5925,65.8219
56.5925,65.8219
56.5925,65.8219
57.4838,66.7132
58.2639,67.4933
58.2639,67.4933
58.2665,67.4959
58.3411,67.5705
58.4324,67.6232
58.4324,67.6232
58.4324,67.6232
58.4833,67.6369
58.5343,67.6505
58.5343,67.6505
58.5343,67.6505
58.6443,67.6505
58.6443,67.6505
70.3027,67.6505
70.3027,67.6505
70.4046,67.6232
70.4959,67.5705
77.8897,60.1766
77.9421,60.1550
77.9775,60.1640
78.1877,60.2788
78.1877,60.2788
78.4491,60.3763
78.4491,60.3763
78.4491,60.3763
78.7217,60.4356
78.7835,60.4400
79.0000,60.4555
79.0000,60.4555
79.0000,60.4555
79.1948,60.4415
79.2783,60.4356
79.5509,60.3763
79.5509,60.3763
79.5509,60.3763
79.8123,60.2788
80.0572,60.1451
80.0572,60.1451
80.0572,60.1451
80.2806,59.9779
80.4779,59.7806
80.6451,59.5572
80.7788,59.3123
80.7788,59.3123
80.7788,59.3123
80.8763,59.0509
80.8763,59.0509
80.8763,59.0509
80.9356,58.7783
80.9555,58.5000
80.9555,58.5000
80.9356,58.2217
80.9282,58.1877
80.8763,57.9491
80.8763,57.9491
80.8763,57.9491
80.7788,57.6877
80.6451,57.4428
80.5236,57.2806
80.4779,57.2194
80.2806,57.0221
80.1689,56.9385
80.0572,56.8549
79.8123,56.7212
79.5509,56.6237
79.5509,56.6237
79.5509,56.6237
79.4960,56.6118
79.2783,56.5644
79.0000,56.5445
79.0000,56.5445
78.7217,56.5644
78.4491,56.6237
78.4491,56.6237
78.1877,56.7212
77.9428,56.8549
77.7194,57.0221
77.5221,57.2194
77.3549,57.4428
77.2212,57.6877
77.1237,57.9491
77.1237,57.9491
77.0644,58.2217
77.0445,58.5000
77.0445,58.5000
77.0644,58.7783
77.1237,59.0509
77.1237,59.0509
77.2212,59.3123
77.2212,59.3123
77.3360,59.5225
77.3420,59.5788
77.3233,59.6103
73.5268,63.4068
73.4745,63.4285
73.4222,63.4068
73.4005,63.3545
73.4005,56.1965
73.4222,56.1442
77.8897,51.6766
77.9421,51.6550
77.9775,51.6640
78.0006,51.6766
78.1877,51.7788
78.4491,51.8763
78.4491,51.8763
78.4491,51.8763
78.7217,51.9356
78.7835,51.9400
79.0000,51.9555
79.0000,51.9555
79.0000,51.9555
79.1948,51.9415
79.2783,51.9356
79.5509,51.8763
79.5509,51.8763
79.5509,51.8763
79.8123,51.7788
80.0225,51.6640
80.0572,51.6451
80.2806,51.4779
80.4779,51.2806
80.6451,51.0572
80.7788,50.8123
80.7788,50.8123
80.7788,50.8123
80.8763,50.5509
80.8763,50.5509
80.8763,50.5509
80.9356,50.2783
80.9555,50.0000
80.9555,50.0000
80.9356,49.7217
80.9356,49.7217
80.8763,49.4491
80.8763,49.4491
80.8763,49.4491
80.7788,49.1877
80.6451,48.9428
80.5223,48.7788
80.4779,48.7194
80.2806,48.5221
80.0695,48.3641
80.0572,48.3549
79.8123,48.2212
79.5509,48.1237
79.5509,48.1237
79.5509,48.1237
79.4960,48.1118
79.2783,48.0644
79.0000,48.0445
79.0000,48.0445
78.7217,48.0644
78.4491,48.1237
78.4491,48.1237
78.1877,48.2212
77.9428,48.3549
77.7194,48.5221
77.5221,48.7194
77.3549,48.9428
77.2212,49.1877
77.1237,49.4491
77.1237,49.4491
77.0644,49.7217
77.0445,50.0000
77.0445,50.0000
77.0644,50.2783
77.1237,50.5509
77.1237,50.5509
77.2212,50.8123
77.2212,50.8123
77.3360,51.0225
77.3420,51.0788
77.3233,51.1103
72.6795,55.7541
72.6268,55.8454
72.6268,55.8454
72.5995,55.9473
72.5995,63.4549
72.5778,63.5073
69.8573,66.2278
69.8049,66.2495
59.9315,66.2495
59.8792,66.2278
59.5282,65.8768
59.5065,65.8245
59.5282,65.7722
59.5805,65.7505
69.5159,65.7505
69.5159,65.7505
69.6432,65.7164
69.7573,65.6505
69.8505,65.5573
69.9164,65.4432
69.9505,65.3159
69.9505,65.3159
69.9505,20.9341
69.9505,20.9341
69.9164,20.8068
69.9164,20.8068
69.8505,20.6927
69.7573,20.5995
69.6432,20.5336
69.6432,20.5336
69.5159,20.4995
69.5159,20.4995
59.5159,20.4995
59.3841,20.4995
59.3841,20.4995
59.2568,20.5336
59.2568,20.5336
59.1427,20.5995
59.0495,20.6927
58.9836,20.8068
58.9836,20.8068
58.9495,20.9341
58.9495,65.1195
58.9278,65.1718
58.8755,65.1935
58.8232,65.1718
58.7522,65.1008
58.7305,65.0485
58.7305,17.7714
58.7522,17.7191
58.7696,17.7062
58.7852,17.6978
58.9164,17.6277
59.0764,17.4964
59.2077,17.3364
59.3052,17.1540
59.3653,16.9559
59.3856,16.7500
59.8144,16.7500
59.8347,16.9559
59.8948,17.1540
59.9923,17.3364
60.1236,17.4964
60.2835,17.6277
60.4660,17.7252
60.6641,17.7853
60.8700,17.8056
61.0759,17.7853
61.2353,17.7370
61.2916,17.7425
61.3091,17.7555
63.5995,20.0459
63.5995,20.0459
63.6741,20.1205
63.7654,20.1732
63.8673,20.2005
63.8673,20.2005
63.8673,20.2005
63.9727,20.2005
70.4893,20.2005
70.5417,20.2222
71.8278,21.5083
71.8495,21.5607
71.8495,34.1973
71.8495,34.3027
71.8768,34.4046
71.8768,34.4046
71.9295,34.4959
71.9295,34.4959
71.9295,34.4959
74.8827,37.4491
77.3233,39.8897
77.3450,39.9421
77.3360,39.9775
77.2212,40.1877
77.2212,40.1877
77.1237,40.4491
77.1237,40.4491
77.0644,40.7217
77.0445,41.0000
77.0445,41.0000
77.0644,41.2783
77.1237,41.5509
77.1237,41.5509
77.2212,41.8123
77.3549,42.0572
77.4385,42.1689
77.5221,42.2806
77.7194,42.4779
77.8869,42.6033
77.9428,42.6451
78.1877,42.7788
78.4491,42.8763
78.4491,42.8763
78.4491,42.8763
78.7217,42.9356
78.7835,42.9400
79.0000,42.9555
79.0000,42.9555
79.0000,42.9555
79.1948,42.9415
79.2783,42.9356
79.5509,42.8763
79.5509,42.8763
79.5509,42.8763
79.8123,42.7788
80.0572,42.6451
80.0572,42.6451
80.0572,42.6451
80.2806,42.4779
80.4779,42.2806
80.6451,42.0572
80.7788,41.8123
80.7788,41.8123
80.7788,41.8123
80.8763,41.5509
80.8763,41.5509
80.8763,41.5509
80.9356,41.2783
80.9555,41.0000
80.9555,41.0000
80.9356,40.7217
80.9356,40.7217
80.8763,40.4491
80.8763,40.4491
80.8763,40.4491
80.7788,40.1877
80.6451,39.9428
80.5223,39.7788
80.4779,39.7194
80.2806,39.5221
80.1689,39.4385
80.0572,39.3549
79.8123,39.2212
79.5509,39.1237
79.5509,39.1237
79.5509,39.1237
79.4960,39.1118
79.2783,39.0644
79.0000,39.0445
79.0000,39.0445
78.7217,39.0644
78.4491,39.1237
78.4491,39.1237
78.1877,39.2212
78.1877,39.2212
77.9775,39.3360
77.9212,39.3420
77.8897,39.3233
75.2858,36.7194
72.6722,34.1058
72.6505,34.0535
72.6505,21.6611
72.6722,21.6088
72.7245,21.5871
72.7768,21.6088
73.5778,22.4098
73.5995,22.4621
73.5995,31.1973
73.5995,31.3027
73.6268,31.4046
73.6268,31.4046
73.6795,31.4959
73.6795,31.4959
73.6795,31.4959
81.6615,39.4779
89.4269,47.2433
89.4269,47.2433
89.4295,47.2459
89.5041,47.3205
89.5552,47.3500
89.5897,47.3949
89.5905,47.3984
89.6237,47.5509
89.6237,47.5509
89.7212,47.8123
89.8549,48.0572
89.9047,48.1237
90.0221,48.2806
90.2194,48.4779
90.3869,48.6033
90.4428,48.6451
90.6877,48.7788
90.9491,48.8763
90.9491,48.8763
90.9491,48.8763
91.2217,48.9356
91.2835,48.9400
91.5000,48.9555
91.5000,48.9555
91.5000,48.9555
91.6948,48.9415
91.7783,48.9356
92.0509,48.8763
92.0509,48.8763
92.0509,48.8763
92.3123,48.7788
92.4210,48.7194
92.5572,48.6451
92.7806,48.4779
92.9779,48.2806
93.1451,48.0572
93.2788,47.8123
93.2788,47.8123
93.2788,47.8123
93.3763,47.5509
93.3763,47.5509
93.3763,47.5509
93.4356,47.2783
93.4555,47.0000
93.4555,47.0000
93.4356,46.7217
93.4356,46.7217
93.3763,46.4491
93.3763,46.4491
93.3763,46.4491
93.2788,46.1877
93.1451,45.9428
93.1033,45.8869
92.9779,45.7194
92.7806,45.5221
92.6689,45.4385
92.5572,45.3549
92.3123,45.2212
92.0509,45.1237
92.0509,45.1237
92.0509,45.1237
91.9960,45.1118
91.7783,45.0644
91.5000,45.0445
91.5000,45.0445
91.2217,45.0644
90.9491,45.1237
90.9491,45.1237
90.6877,45.2212
90.4428,45.3549
90.2194,45.5221
90.0221,45.7194
89.8549,45.9428
89.7212,46.1877
89.7025,46.2380
89.6639,46.2794
89.6073,46.2814
89.5808,46.2644
74.4222,31.1058
74.4005,31.0535
74.4005,22.5626
74.4222,22.5103
74.4745,22.4886
74.5268,22.5103
75.0778,23.0613
75.0995,23.1136
75.0995,27.9473
75.0995,28.0527
75.1268,28.1546
75.1268,28.1546
75.1795,28.2459
75.1795,28.2459
75.1795,28.2459
76.0246,29.0910
76.8233,29.8897
76.8450,29.9421
76.8360,29.9775
76.7212,30.1877
76.7212,30.1877
76.6237,30.4491
76.6237,30.4491
76.5644,30.7217
76.5445,31.0000
76.5445,31.0000
76.5644,31.2783
76.6237,31.5509
76.6237,31.5509
76.7212,31.8123
76.8549,32.0572
76.9385,32.1689
77.0221,32.2806
77.2194,32.4779
77.3869,32.6033
77.4428,32.6451
77.6877,32.7788
77.9491,32.8763
77.9491,32.8763
77.9491,32.8763
78.2217,32.9356
78.2835,32.9400
78.5000,32.9555
78.5000,32.9555
78.5000,32.9555
78.6948,32.9415
78.7783,32.9356
79.0509,32.8763
79.0509,32.8763
79.0509,32.8763
79.3123,32.7788
79.5572,32.6451
79.5572,32.6451
79.5572,32.6451
79.7806,32.4779
79.9779,32.2806
80.1451,32.0572
80.2788,31.8123
80.2788,31.8123
80.2788,31.8123
80.3763,31.5509
80.3763,31.5509
80.3763,31.5509
80.4356,31.2783
80.4422,31.1855
80.4555,31.0000
80.4555,31.0000
80.4356,30.7217
80.4356,30.7217
80.3763,30.4491
80.3763,30.4491
80.3763,30.4491
80.2788,30.1877
80.1451,29.9428
80.1033,29.8869
79.9779,29.7194
79.7806,29.5221
79.6689,29.4385
79.5572,29.3549
79.3123,29.2212
79.0509,29.1237
79.0509,29.1237
79.0509,29.1237
78.9588,29.1037
78.7783,29.0644
78.5000,29.0445
78.5000,29.0445
78.2217,29.0644
77.9491,29.1237
77.9491,29.1237
77.6877,29.2212
77.6877,29.2212
77.4775,29.3360
77.4212,29.3420
77.3897,29.3233
75.9222,27.8558
75.9005,27.8035
75.9005,23.2141
75.9222,23.1617
75.9745,23.1401
76.0268,23.1617
80.3610,27.4959
80.3610,27.4959
80.4356,27.5705
80.5269,27.6232
80.5486,27.6290
80.5818,27.6482
89.8233,36.8897
89.8450,36.9421
89.8360,36.9775
89.7212,37.1877
89.6237,37.4491
89.6237,37.4491
89.5644,37.7217
89.5445,38.0000
89.5445,38.0000
89.5644,38.2783
89.6237,38.5509
89.6237,38.5509
89.7212,38.8123
89.8549,39.0572
89.9047,39.1237
90.0221,39.2806
90.2194,39.4779
90.3869,39.6033
90.4428,39.6451
90.6877,39.7788
90.9491,39.8763
90.9491,39.8763
90.9491,39.8763
91.2217,39.9356
91.2835,39.9400
91.5000,39.9555
91.5000,39.9555
91.5000,39.9555
91.6948,39.9415
91.7783,39.9356
92.0509,39.8763
92.0509,39.8763
92.0509,39.8763
92.3123,39.7788
92.4210,39.7194
92.5572,39.6451
92.7806,39.4779
92.9779,39.2806
93.1451,39.0572
93.2788,38.8123
93.2788,38.8123
93.2788,38.8123
93.3763,38.5509
93.3763,38.5509
93.3763,38.5509
93.4356,38.2783
93.4555,38.0000
93.4555,38.0000
93.4356,37.7217
93.4356,37.7217
93.3763,37.4491
93.3763,37.4491
93.3763,37.4491
93.2788,37.1877
93.1451,36.9428
93.1033,36.8869
92.9779,36.7194
92.7806,36.5221
92.5695,36.3641
92.5572,36.3549
92.3123,36.2212
92.0509,36.1237
92.0509,36.1237
92.0509,36.1237
91.9960,36.1118
91.7783,36.0644
91.5000,36.0445
91.5000,36.0445
91.2217,36.0644
90.9491,36.1237
90.9491,36.1237
90.6877,36.2212
90.4775,36.3360
90.4212,36.3420
90.3897,36.3233
85.8787,31.8123
80.9959,26.9295
80.9959,26.9295
80.9959,26.9295
80.9046,26.8768
80.9046,26.8768
80.8829,26.8710
80.8497,26.8518
74.9320,20.9341
96.4995,20.9341
96.4995,65.4409
96.5336,65.5682
96.5336,65.5682
96.5811,65.6505
96.5995,65.6823
96.6927,65.7755
96.8068,65.8414
96.9341,65.8755
96.9341,65.8755
96.9341,65.8755
107.0659,65.8755
107.0659,65.8755
107.1932,65.8414
107.3073,65.7755
107.4005,65.6823
107.4664,65.5682
107.5005,65.4409
107.5005,65.4409
107.5005,20.9341
107.5005,20.9341
107.4664,20.8068
107.4664,20.8068
107.4005,20.6927
107.3073,20.5995
107.1932,20.5336
107.1932,20.5336
107.0659,20.4995
107.0659,20.4995
97.0659,20.4995
96.9341,20.4995
96.9341,20.4995
96.8068,20.5336
96.8068,20.5336
96.6927,20.5995
96.5995,20.6927
96.5336,20.8068
96.5336,20.8068
96.4995,20.9341
74.9320,20.9341
74.2747,20.2768
74.2530,20.2245
74.2747,20.1722
74.3270,20.1505
108.8505,20.1505
108.9028,20.1722
109.0158,20.2852
109.0375,20.3375
109.0375,51.3853
109.0375,51.4907
109.0648,51.5926
109.0648,51.5926
109.1175,51.6839
109.1175,51.6839
109.1175,51.6839
112.3764,54.9428
115.3233,57.8897
115.3450,57.9421
115.3360,57.9775
115.2212,58.1877
115.1237,58.4491
115.1237,58.4491
115.0644,58.7217
115.0445,59.0000
115.0445,59.0000
115.0644,59.2783
115.1237,59.5509
115.1237,59.5509
115.2212,59.8123
115.3549,60.0572
115.4349,60.1640
115.5221,60.2806
115.7194,60.4779
115.8869,60.6033
115.9428,60.6451
116.1877,60.7788
116.4491,60.8763
116.4491,60.8763
116.4491,60.8763
116.7217,60.9356
116.7835,60.9400
117.0000,60.9555
117.0000,60.9555
117.0000,60.9555
117.1948,60.9415
117.2783,60.9356
117.5509,60.8763
117.5509,60.8763
117.5509,60.8763
117.8123,60.7788
118.0572,60.6451
118.0572,60.6451
118.0572,60.6451
118.2806,60.4779
118.4779,60.2806
118.6451,60.0572
118.7788,59.8123
118.7788,59.8123
118.7788,59.8123
118.8763,59.5509
118.8763,59.5509
118.8763,59.5509
118.9356,59.2783
118.9518,59.0509
118.9555,59.0000
118.9555,59.0000
118.9356,58.7217
118.9356,58.7217
118.8763,58.4491
118.8763,58.4491
118.8763,58.4491
118.7788,58.1877
118.6451,57.9428
118.5223,57.7788
118.4779,57.7194
118.2806,57.5221
118.0695,57.3641
118.0572,57.3549
117.8123,57.2212
117.5509,57.1237
117.5509,57.1237
117.5509,57.1237
117.4890,57.1103
117.2783,57.0644
117.0000,57.0445
117.0000,57.0445
116.7217,57.0644
116.4491,57.1237
116.4491,57.1237
116.1877,57.2212
115.9775,57.3360
115.9212,57.3420
115.8897,57.3233
109.8602,51.2938
109.8385,51.2415
109.8385,43.5835
109.8602,43.5312
109.9125,43.5095
109.9648,43.5312
115.3233,48.8897
115.3450,48.9421
115.3360,48.9775
115.2212,49.1877
115.1237,49.4491
115.1237,49.4491
115.0644,49.7217
115.0445,50.0000
115.0445,50.0000
115.0644,50.2783
115.1237,50.5509
115.1237,50.5509
115.2212,50.8123
115.3549,51.0572
115.3711,51.0788
115.5221,51.2806
115.7194,51.4779
115.8727,51.5926
115.9428,51.6451
116.1877,51.7788
116.4491,51.8763
116.4491,51.8763
116.4491,51.8763
116.7217,51.9356
116.7835,51.9400
117.0000,51.9555
117.0000,51.9555
117.0000,51.9555
117.1948,51.9415
117.2783,51.9356
117.5509,51.8763
117.5509,51.8763
117.5509,51.8763
117.8123,51.7788
118.0225,51.6640
118.0572,51.6451
118.2806,51.4779
118.4779,51.2806
118.6451,51.0572
118.7788,50.8123
118.7788,50.8123
118.7788,50.8123
118.8763,50.5509
118.8763,50.5509
118.8763,50.5509
118.9356,50.2783
118.9555,50.0000
118.9555,50.0000
118.9356,49.7217
118.9356,49.7217
118.8763,49.4491
118.8763,49.4491
118.8763,49.4491
118.7788,49.1877
118.6451,48.9428
118.5223,48.7788
118.4779,48.7194
118.2806,48.5221
118.0695,48.3641
118.0572,48.3549
117.8123,48.2212
117.5509,48.1237
117.5509,48.1237
117.5509,48.1237
117.4960,48.1118
117.2783,48.0644
117.0000,48.0445
117.0000,48.0445
116.7217,48.0644
116.4491,48.1237
116.4491,48.1237
116.1877,48.2212
115.9775,48.3360
115.9212,48.3420
115.8897,48.3233
110.4602,42.8938
110.4385,42.8415
110.4385,35.1835
110.4602,35.1312
110.5125,35.1095
110.5648,35.1312
115.3233,39.8897
115.3450,39.9421
115.3360,39.9775
115.2212,40.1877
115.2212,40.1877
115.1237,40.4491
115.1237,40.4491
115.0644,40.7217
115.0445,41.0000
115.0445,41.0000
115.0644,41.2783
115.1237,41.5509
115.1237,41.5509
115.2212,41.8123
115.3549,42.0572
115.4385,42.1689
115.5221,42.2806
115.7194,42.4779
115.8869,42.6033
115.9428,42.6451
116.1877,42.7788
116.4491,42.8763
116.4491,42.8763
116.4491,42.8763
116.7217,42.9356
116.7835,42.9400
117.0000,42.9555
117.0000,42.9555
117.0000,42.9555
117.1948,42.9415
117.2783,42.9356
117.5509,42.8763
117.5509,42.8763
117.5509,42.8763
117.8123,42.7788
118.0572,42.6451
118.0572,42.6451
118.0572,42.6451
118.2806,42.4779
118.4779,42.2806
118.6451,42.0572
118.7788,41.8123
118.7788,41.8123
118.7788,41.8123
118.8763,41.5509
118.8763,41.5509
118.8763,41.5509
118.9356,41.2783
118.9555,41.0000
118.9555,41.0000
118.9356,40.7217
118.9356,40.7217
118.8763,40.4491
118.8763,40.4491
118.8763,40.4491
118.7788,40.1877
118.6451,39.9428
118.5223,39.7788
118.4779,39.7194
118.2806,39.5221
118.1689,39.4385
118.0572,39.3549
117.8123,39.2212
117.5509,39.1237
117.5509,39.1237
117.5509,39.1237
117.4960,39.1118
117.2783,39.0644
117.0000,39.0445
117.0000,39.0445
116.7217,39.0644
116.4491,39.1237
116.4491,39.1237
116.1877,39.2212
116.1877,39.2212
115.9775,39.3360
115.9212,39.3420
115.8897,39.3233
111.0602,34.4938
111.0385,34.4415
111.0385,19.7835
111.0602,19.7312
111.1125,19.7095
111.1648,19.7312
115.5778,24.1442
115.5995,24.1965
115.5995,29.0314
115.5778,29.0837
115.5412,29.1037
115.4491,29.1237
115.4491,29.1237
115.1877,29.2212
114.9428,29.3549
114.7194,29.5221
114.5221,29.7194
114.3549,29.9428
114.2212,30.1877
114.1237,30.4491
114.1237,30.4491
114.0644,30.7217
114.0445,31.0000
114.0445,31.0000
114.0644,31.2783
114.1237,31.5509
114.1237,31.5509
114.2212,31.8123
114.3549,32.0572
114.4385,32.1689
114.5221,32.2806
114.7194,32.4779
114.8869,32.6033
114.9428,32.6451
115.1877,32.7788
115.4491,32.8763
115.4491,32.8763
115.4491,32.8763
115.7217,32.9356
115.7835,32.9400
116.0000,32.9555
116.0000,32.9555
116.0000,32.9555
116.1948,32.9415
116.2783,32.9356
116.5509,32.8763
116.5509,32.8763
116.5509,32.8763
116.8123,32.7788
117.0572,32.6451
117.0572,32.6451
117.0572,32.6451
117.2806,32.4779
117.4779,32.2806
117.6451,32.0572
117.7788,31.8123
117.7788,31.8123
117.7788,31.8123
117.8763,31.5509
117.8763,31.5509
117.8763,31.5509
117.9356,31.2783
117.9422,31.1855
117.9555,31.0000
117.9555,31.0000
117.9356,30.7217
117.9356,30.7217
117.8763,30.4491
117.8763,30.4491
117.8763,30.4491
117.7788,30.1877
117.6451,29.9428
117.6033,29.8869
117.4779,29.7194
117.2806,29.5221
117.1689,29.4385
117.0572,29.3549
116.8123,29.2212
116.5509,29.1237
116.5509,29.1237
116.5509,29.1237
116.4588,29.1037
116.4122,29.0714
116.4005,29.0314
116.4005,23.9473
116.4005,23.9473
116.3732,23.8454
116.3732,23.8454
116.3205,23.7541
116.2459,23.6795
113.5664,21.0000
118.0450,21.0000
118.0651,21.3589
118.0651,21.3589
118.1253,21.7132
118.2248,22.0586
118.3624,22.3906
118.3624,22.3906
118.5362,22.7052
118.5362,22.7052
118.7442,22.9983
118.8502,23.1169
119.9855,21.9817
120.0296,22.0423
120.2077,22.2204
120.2683,22.2645
119.1331,23.3998
119.2517,23.5058
119.5448,23.7138
119.5448,23.7138
119.8594,23.8876
119.8594,23.8876
120.1914,24.0252
120.5368,24.1247
120.5368,24.1247
120.8911,24.1849
120.8911,24.1849
121.2500,24.2050
121.6089,24.1849
121.6089,24.1849
121.9632,24.1247
122.3086,24.0252
122.6406,23.8876
122.6406,23.8876
122.9552,23.7138
122.9552,23.7138
123.2483,23.5058
123.3669,23.3998
123.3669,23.3998
122.2317,22.2645
122.2923,22.2204
122.4704,22.0423
122.5145,21.9817
123.6498,23.1169
123.6498,23.1169
123.7558,22.9983
123.9638,22.7052
123.9638,22.7052
124.1376,22.3906
124.1376,22.3906
124.2752,22.0586
124.3747,21.7132
124.4349,21.3589
124.4349,21.3589
124.4550,21.0000
124.4349,20.6411
124.4349,20.6411
124.3747,20.2868
124.2752,19.9414
124.1376,19.6094
124.1376,19.6094
123.9638,19.2948
123.9638,19.2948
123.7558,19.0017
123.6498,18.8831
123.6498,18.8831
122.5145,20.0183
122.4704,19.9577
122.2923,19.7796
122.2317,19.7355
123.3669,18.6002
123.2483,18.4942
122.9552,18.2862
122.9552,18.2862
122.6406,18.1124
122.6406,18.1124
122.3086,17.9748
121.9632,17.8753
121.9632,17.8753
121.6089,17.8151
121.6089,17.8151
121.2500,17.7950
120.8911,17.8151
120.8911,17.8151
120.5368,17.8753
120.1914,17.9748
119.8594,18.1124
119.8594,18.1124
119.5448,18.2862
119.5448,18.2862
119.2517,18.4942
119.1331,18.6002
120.2683,19.7355
120.2077,19.7796
120.0296,19.9577
119.9855,20.0183
118.8502,18.8831
118.7442,19.0017
118.5362,19.2948
118.5362,19.2948
118.3624,19.6094
118.3624,19.6094
118.2248,19.9414
118.1253,20.2868
118.0651,20.6411
118.0651,20.6411
118.0450,21.0000
113.5664,21.0000
110.1569,17.5905
110.1569,17.5905
110.1569,17.5905
110.0656,17.5378
110.0656,17.5378
110.0468,17.5328
109.9637,17.5105
109.9637,17.5105
80.0075,17.5105
79.9552,17.4888
79.6555,17.1891
79.6338,17.1367
79.6370,17.1153
79.6853,16.9559
79.7056,16.7500
79.6853,16.5441
79.6252,16.3460
79.5277,16.1636
79.3964,16.0036
79.2364,15.8723
79.0540,15.7748
78.9422,15.7409
78.8559,15.7147
78.6500,15.6944
78.4441,15.7147
78.2460,15.7748
78.0635,15.8723
77.9036,16.0036
77.9036,16.0036
77.7723,16.1635
77.6748,16.3460
77.6147,16.5441
77.6147,16.5441
77.5944,16.7500
77.6147,16.9559
77.6748,17.1540
77.7723,17.3364
77.9036,17.4964
78.0635,17.6277
78.2460,17.7252
78.4441,17.7853
78.6500,17.8056
78.8559,17.7853
79.0153,17.7370
79.0716,17.7425
79.0891,17.7555
79.3178,17.9842
79.3395,18.0365
79.3178,18.0888
79.2655,18.1105
78.0675,18.1105
78.0152,18.0888
77.1155,17.1891
77.0938,17.1367
77.0970,17.1153
77.1453,16.9559
77.1656,16.7500
77.1453,16.5441
77.0852,16.3460
76.9877,16.1636
76.8564,16.0036
76.6964,15.8723
76.5140,15.7748
76.4022,15.7409
76.3159,15.7147
76.1100,15.6944
75.9041,15.7147
75.7060,15.7748
75.5235,15.8723
75.3636,16.0036
75.3636,16.0036
75.2323,16.1635
75.1348,16.3460
75.0747,16.5441
75.0747,16.5441
75.0544,16.7500
75.0747,16.9559
75.1348,17.1540
75.2323,17.3364
75.3636,17.4964
75.5236,17.6277
75.7060,17.7252
75.9041,17.7853
76.1100,17.8056
76.3159,17.7853
76.4753,17.7370
76.5316,17.7425
76.5491,17.7555
77.3778,18.5842
77.3995,18.6365
77.3778,18.6888
77.3255,18.7105
76.1275,18.7105
76.0752,18.6888
74.5755,17.1891
74.5538,17.1367
74.5570,17.1153
74.6053,16.9559
74.6256,16.7500
74.6053,16.5441
74.5452,16.3460
74.4477,16.1636
74.3164,16.0036
74.1564,15.8723
73.9740,15.7748
73.8622,15.7409
73.7759,15.7147
73.5700,15.6944
73.3641,15.7147
73.1660,15.7748
72.9835,15.8723
72.8236,16.0036
72.8236,16.0036
72.6923,16.1635
72.5948,16.3460
72.5347,16.5441
72.5347,16.5441
72.5144,16.7500
72.5347,16.9559
72.5948,17.1540
72.6923,17.3364
72.8236,17.4964
72.9835,17.6277
73.1660,17.7252
73.3641,17.7853
73.5700,17.8056
73.7759,17.7853
73.9353,17.7370
73.9916,17.7425
74.0091,17.7555
75.4768,19.2232
75.4985,19.2755
75.4768,19.3278
75.4245,19.3495
74.2265,19.3495
74.1742,19.3278
72.0355,17.1891
72.0138,17.1367
72.0170,17.1153
72.0653,16.9559
72.0856,16.7500
72.0653,16.5441
72.0052,16.3460
71.9077,16.1636
71.7764,16.0036
71.6165,15.8723
71.4340,15.7748
71.3222,15.7409
71.2359,15.7147
71.0300,15.6944
70.8241,15.7147
70.6260,15.7748
70.4435,15.8723
70.2836,16.0036
70.2836,16.0036
70.1523,16.1635
70.0548,16.3460
69.9947,16.5441
69.9744,16.7500
69.9947,16.9559
70.0548,17.1540
70.1523,17.3364
70.2689,17.4786
70.2854,17.5328
70.2587,17.5827
70.2117,17.5995
69.9365,17.5995
69.8842,17.5778
69.4955,17.1891
69.4738,17.1367
69.4770,17.1153
69.5253,16.9559
69.5456,16.7500
69.5253,16.5441
69.4652,16.3460
69.3677,16.1636
69.2364,16.0036
69.0764,15.8723
68.8940,15.7748
68.7822,15.7409
68.6959,15.7147
68.4900,15.6944
68.2841,15.7147
68.0860,15.7748
67.9035,15.8723
67.7436,16.0036
67.7436,16.0036
67.6123,16.1635
67.5148,16.3460
67.4547,16.5441
67.4547,16.5441
67.4344,16.7500
67.4547,16.9559
67.5148,17.1540
67.6123,17.3364
67.7436,17.4964
67.9035,17.6277
68.0860,17.7252
68.2841,17.7853
68.4900,17.8056
68.6959,17.7853
68.8553,17.7370
68.9116,17.7425
68.9291,17.7555
69.2468,18.0732
69.2685,18.1255
69.2468,18.1778
69.1945,18.1995
67.9965,18.1995
67.9442,18.1778
66.9555,17.1891
66.9338,17.1367
66.9370,17.1153
66.9853,16.9559
67.0056,16.7500
66.9853,16.5441
66.9252,16.3460
66.8277,16.1636
66.6964,16.0036
66.5365,15.8723
66.3540,15.7748
66.2422,15.7409
66.1559,15.7147
65.9500,15.6944
65.7441,15.7147
65.5460,15.7748
65.3635,15.8723
65.2036,16.0036
65.2036,16.0036
65.0723,16.1635
64.9748,16.3460
64.9147,16.5441
64.9147,16.5441
64.8944,16.7500
64.9147,16.9559
64.9748,17.1540
65.0723,17.3364
65.2036,17.4964
65.3636,17.6277
65.5460,17.7252
65.7441,17.7853
65.9500,17.8056
66.1559,17.7853
66.3153,17.7370
66.3716,17.7425
66.3891,17.7555
67.3068,18.6732
67.3285,18.7255
67.3068,18.7778
67.2545,18.7995
66.0565,18.7995
66.0042,18.7778
64.4155,17.1891
64.3938,17.1367
64.3970,17.1153
64.4453,16.9559
64.4656,16.7500
64.4453,16.5441
64.3852,16.3460
64.2877,16.1636
64.1564,16.0036
63.9964,15.8723
63.8140,15.7748
63.7022,15.7409
63.6159,15.7147
63.4100,15.6944
63.2041,15.7147
63.0060,15.7748
62.8235,15.8723
62.6636,16.0036
62.6636,16.0036
62.5323,16.1635
62.4348,16.3460
62.3747,16.5441
62.3747,16.5441
62.3544,16.7500
62.3747,16.9559
62.4348,17.1540
62.5323,17.3364
62.6636,17.4964
62.8235,17.6277
63.0060,17.7252
63.2041,17.7853
63.4100,17.8056
63.6159,17.7853
63.7753,17.7370
63.8316,17.7425
63.8491,17.7555
65.3668,19.2732
65.3885,19.3255
65.3668,19.3778
65.3145,19.3995
64.1165,19.3995
64.0642,19.3778
61.8755,17.1891
61.8538,17.1367
61.8570,17.1153
61.9053,16.9559
61.9256,16.7500
61.9053,16.5441
61.8452,16.3460
61.7477,16.1636
61.6164,16.0036
61.4564,15.8723
61.2740,15.7748
61.1622,15.7409
61.0759,15.7147
60.8700,15.6944
60.6641,15.7147
60.4660,15.7748
60.2835,15.8723
60.1236,16.0036
60.1236,16.0036
59.9923,16.1635
59.8948,16.3460
59.8347,16.5441
59.8347,16.5441
59.8144,16.7500
59.3856,16.7500
59.3653,16.5441
59.3052,16.3460
59.2077,16.1636
59.0764,16.0036
58.9164,15.8723
58.7340,15.7748
58.6222,15.7409
58.5359,15.7147
58.3300,15.6944
58.1241,15.7147
57.9260,15.7748
57.7435,15.8723
57.5836,16.0036
57.5836,16.0036
57.4523,16.1635
57.3548,16.3460
57.2947,16.5441
57.2947,16.5441
57.2744,16.7500
57.2947,16.9559
57.3548,17.1540
57.4523,17.3364
57.5836,17.4964
57.7435,17.6277
57.8748,17.6978
57.8904,17.7062
57.9263,17.7500
57.9295,17.7714
57.9295,65.1923
57.9295,65.2977
57.9531,65.3858
57.9568,65.3996
57.9568,65.3996
58.0095,65.4909
58.0095,65.4909
58.0095,65.4909
58.6445,66.1259
59.2418,66.7232
59.2635,66.7755
59.2418,66.8278
59.1895,66.8495
58.7835,66.8495
58.7312,66.8278
57.3352,65.4318
57.3135,65.3795
57.3135,17.8203
57.2862,17.7184
57.2862,17.7184
57.2335,17.6271
57.2335,17.6271
57.2335,17.6271
56.7955,17.1891
56.7738,17.1367
56.7770,17.1153
56.8253,16.9559
56.8456,16.7500
56.8253,16.5441
56.7652,16.3460
56.6677,16.1636
56.5364,16.0036
56.3764,15.8723
56.1940,15.7748
56.0822,15.7409
55.9959,15.7147
55.7900,15.6944
55.5841,15.7147
55.3860,15.7748
55.2035,15.8723
55.0436,16.0036
55.0436,16.0036
54.9123,16.1635
54.8148,16.3460
54.7547,16.5441
54.7547,16.5441
54.7344,16.7500
54.7547,16.9559
54.8148,17.1540
54.9123,17.3364
55.0436,17.4964
55.2035,17.6277
55.3860,17.7252
55.5841,17.7853
55.7900,17.8056
55.9959,17.7853
56.1553,17.7370
56.2116,17.7425
56.2291,17.7555
56.4908,18.0172
56.5125,18.0695
56.5125,64.9042
56.4908,64.9565
56.4385,64.9782
56.3862,64.9565
56.3692,64.9300
56.2788,64.6877
56.1451,64.4428
56.0343,64.2948
55.9779,64.2194
55.7806,64.0221
55.6689,63.9385
55.5572,63.8549
55.3123,63.7212
55.0509,63.6237
55.0509,63.6237
55.0509,63.6237
54.9428,63.6002
54.7783,63.5644
54.5000,63.5445
54.5000,63.5445
54.2217,63.5644
53.9491,63.6237
53.9491,63.6237
53.6877,63.7212
53.4428,63.8549
53.2194,64.0221
53.0221,64.2194
52.8549,64.4428
52.7212,64.6877
52.6237,64.9491
52.6237,64.9491
52.5644,65.2217
52.5445,65.5000
50.9005,65.5000
50.9005,56.0000
51.5445,56.0000
51.5445,56.0000
51.5644,56.2783
51.6237,56.5509
51.6237,56.5509
51.7212,56.8123
51.8549,57.0572
51.8947,57.1103
52.0221,57.2806
52.2194,57.4779
52.3869,57.6033
52.4428,57.6451
52.6877,57.7788
52.9491,57.8763
52.9491,57.8763
52.9491,57.8763
53.2217,57.9356
53.2835,57.9400
53.5000,57.9555
53.5000,57.9555
53.5000,57.9555
53.6948,57.9415
53.7783,57.9356
54.0509,57.8763
54.0509,57.8763
54.0509,57.8763
54.3123,57.7788
54.4210,57.7194
54.5572,57.6451
54.7806,57.4779
54.9779,57.2806
55.1451,57.0572
55.2788,56.8123
55.2788,56.8123
55.2788,56.8123
55.3763,56.5509
55.3763,56.5509
55.3763,56.5509
55.4356,56.2783
55.4555,56.0000
55.4555,56.0000
55.4356,55.7217
55.4356,55.7217
55.3763,55.4491
55.3763,55.4491
55.3763,55.4491
55.2788,55.1877
55.1451,54.9428
55.1033,54.8869
54.9779,54.7194
54.7806,54.5221
54.6689,54.4385
54.5572,54.3549
54.3123,54.2212
54.0509,54.1237
54.0509,54.1237
54.0509,54.1237
53.9960,54.1118
53.7783,54.0644
53.5000,54.0445
53.5000,54.0445
53.2217,54.0644
52.9491,54.1237
52.9491,54.1237
52.6877,54.2212
52.4428,54.3549
52.2194,54.5221
52.0221,54.7194
51.8549,54.9428
51.7212,55.1877
51.6237,55.4491
51.6237,55.4491
51.5644,55.7217
51.5445,56.0000
50.9005,56.0000
50.9005,47.0000
51.5445,47.0000
51.5445,47.0000
51.5644,47.2783
51.6237,47.5509
51.6237,47.5509
51.7212,47.8123
51.8549,48.0572
51.9047,48.1237
52.0221,48.2806
52.2194,48.4779
52.3869,48.6033
52.4428,48.6451
52.6877,48.7788
52.9491,48.8763
52.9491,48.8763
52.9491,48.8763
53.2217,48.9356
53.2835,48.9400
53.5000,48.9555
53.5000,48.9555
53.5000,48.9555
53.6948,48.9415
53.7783,48.9356
54.0509,48.8763
54.0509,48.8763
54.0509,48.8763
54.3123,48.7788
54.4210,48.7194
54.5572,48.6451
54.7806,48.4779
54.9779,48.2806
55.1451,48.0572
55.2788,47.8123
55.2788,47.8123
55.2788,47.8123
55.3763,47.5509
55.3763,47.5509
55.3763,47.5509
55.4356,47.2783
55.4555,47.0000
55.4555,47.0000
55.4356,46.7217
55.4356,46.7217
55.3763,46.4491
55.3763,46.4491
55.3763,46.4491
55.2788,46.1877
55.1451,45.9428
55.1033,45.8869
54.9779,45.7194
54.7806,45.5221
54.6689,45.4385
54.5572,45.3549
54.3123,45.2212
54.0509,45.1237
54.0509,45.1237
54.0509,45.1237
53.9960,45.1118
53.7783,45.0644
53.5000,45.0445
53.5000,45.0445
53.2217,45.0644
52.9491,45.1237
52.9491,45.1237
52.6877,45.2212
52.4428,45.3549
52.2194,45.5221
52.0221,45.7194
51.8549,45.9428
51.7212,46.1877
51.6237,46.4491
51.6237,46.4491
51.5644,46.7217
51.5445,47.0000
50.9005,47.0000
50.9005,38.0000
51.5445,38.0000
51.5445,38.0000
51.5644,38.2783
51.6237,38.5509
51.6237,38.5509
51.7212,38.8123
51.8549,39.0572
51.9047,39.1237
52.0221,39.2806
52.2194,39.4779
52.3869,39.6033
52.4428,39.6451
52.6877,39.7788
52.9491,39.8763
52.9491,39.8763
52.9491,39.8763
53.2217,39.9356
53.2835,39.9400
53.5000,39.9555
53.5000,39.9555
53.5000,39.9555
53.6948,39.9415
53.7783,39.9356
54.0509,39.8763
54.0509,39.8763
54.0509,39.8763
54.3123,39.7788
54.4210,39.7194
54.5572,39.6451
54.7806,39.4779
54.9779,39.2806
55.1451,39.0572
55.2788,38.8123
55.2788,38.8123
55.2788,38.8123
55.3763,38.5509
55.3763,38.5509
55.3763,38.5509
55.4356,38.2783
55.4555,38.0000
55.4555,38.0000
55.4356,37.7217
55.4356,37.7217
55.3763,37.4491
55.3763,37.4491
55.3763,37.4491
55.2788,37.1877
55.1451,36.9428
55.1033,36.8869
54.9779,36.7194
54.7806,36.5221
54.5695,36.3641
54.5572,36.3549
54.3123,36.2212
54.0509,36.1237
54.0509,36.1237
54.0509,36.1237
53.9960,36.1118
53.7783,36.0644
53.5000,36.0445
53.5000,36.0445
53.2217,36.0644
52.9491,36.1237
52.9491,36.1237
52.6877,36.2212
52.4428,36.3549
52.2194,36.5221
52.0221,36.7194
51.8549,36.9428
51.7212,37.1877
51.6237,37.4491
51.6237,37.4491
51.5644,37.7217
51.5445,38.0000
50.9005,38.0000
50.9005,19.6965
50.9222,19.6442
52.8109,17.7555
52.8633,17.7338
52.8847,17.7370
53.0441,17.7853
53.2500,17.8056
53.4559,17.7853
53.6540,17.7252
53.8364,17.6277
53.9964,17.4964
54.1277,17.3364
54.2252,17.1540
54.2853,16.9559
54.3056,16.7500
54.2853,16.5441
54.2252,16.3460
54.1277,16.1636
53.9964,16.0036
53.8364,15.8723
53.6540,15.7748
53.5422,15.7409
53.4559,15.7147
53.2500,15.6944
53.0441,15.7147
52.8460,15.7748
52.6635,15.8723
52.5036,16.0036
52.5036,16.0036
52.3723,16.1635
52.2748,16.3460
52.2147,16.5441
52.1944,16.7500
52.2147,16.9559
52.2630,17.1153
52.2575,17.1716
52.2445,17.1891
51.8868,17.5468
51.8345,17.5685
51.7822,17.5468
51.7605,17.4945
51.7605,15.8803
51.7544,15.8495
51.7489,15.8218
51.7046,15.7554
51.6823,15.7406
51.6382,15.7111
51.6382,15.7111
51.6090,15.7053
51.5797,15.6995
49.8403,15.6995
49.8110,15.7053
49.7818,15.7111
49.7154,15.7554
49.7154,15.7554
49.6711,15.8218
49.6595,15.8803
49.6595,17.2035
49.6378,17.2558
47.6795,19.2141
47.6268,19.3054
47.6268,19.3054
47.5995,19.4073
47.5995,65.6973
47.5995,65.8027
47.6186,65.8741
47.6268,65.9046
47.6268,65.9046
47.6795,65.9959
47.6795,65.9959
47.6795,65.9959
49.6819,67.9983
51.4199,69.7363
51.4415,69.7886
51.4199,69.8409
51.3675,69.8626
10.0745,69.8626
10.0222,69.8409
10.0005,69.7886
10.0005,65.5000
14.5445,65.5000
14.5445,65.5000
14.5644,65.7783
14.6237,66.0509
14.6237,66.0509
14.7212,66.3123
14.8549,66.5572
14.8711,66.5788
15.0221,66.7806
15.2194,66.9779
15.3056,67.0423
15.4428,67.1451
15.6877,67.2788
15.9491,67.3763
15.9491,67.3763
15.9491,67.3763
16.2217,67.4356
16.2835,67.4400
16.5000,67.4555
16.5000,67.4555
16.5000,67.4555
16.6948,67.4415
16.7783,67.4356
17.0509,67.3763
17.0509,67.3763
17.0509,67.3763
17.3123,67.2788
17.5225,67.1640
17.5572,67.1451
17.7806,66.9779
17.9779,66.7806
18.1451,66.5572
18.2788,66.3123
18.2788,66.3123
18.2788,66.3123
18.3763,66.0509
18.3763,66.0509
18.3763,66.0509
18.3873,66.0000
40.7950,66.0000
40.8151,66.3589
40.8151,66.3589
40.8753,66.7132
40.9748,67.0586
41.1124,67.3906
41.1124,67.3906
41.2862,67.7052
41.2862,67.7052
41.4942,67.9983
41.6002,68.1169
42.7355,66.9817
42.7796,67.0423
42.9577,67.2204
43.0183,67.2645
41.8831,68.3998
42.0017,68.5058
42.2948,68.7138
42.2948,68.7138
42.6094,68.8876
42.6094,68.8876
42.9414,69.0252
43.2868,69.1247
43.2868,69.1247
43.6411,69.1849
43.6411,69.1849
44.0000,69.2050
44.3589,69.1849
44.3589,69.1849
44.7132,69.1247
45.0586,69.0252
45.3906,68.8876
45.3906,68.8876
45.7052,68.7138
45.7052,68.7138
45.9983,68.5058
46.1169,68.3998
46.1169,68.3998
44.9817,67.2645
45.0423,67.2204
45.2204,67.0423
45.2645,66.9817
46.3998,68.1169
46.3998,68.1169
46.5058,67.9983
46.7138,67.7052
46.7138,67.7052
46.8876,67.3906
46.8876,67.3906
47.0252,67.0586
47.1247,66.7132
47.1849,66.3589
47.1849,66.3589
47.2050,66.0000
47.1849,65.6411
47.1849,65.6411
47.1247,65.2868
47.0252,64.9414
46.8876,64.6094
46.8876,64.6094
46.7138,64.2948
46.7138,64.2948
46.5058,64.0017
46.3998,63.8831
46.3998,63.8831
45.2645,65.0183
45.2204,64.9577
45.0423,64.7796
44.9817,64.7355
46.1169,63.6002
45.9983,63.4942
45.7052,63.2862
45.7052,63.2862
45.3906,63.1124
45.3906,63.1124
45.0586,62.9748
44.7132,62.8753
44.7132,62.8753
44.3589,62.8151
44.3589,62.8151
44.0000,62.7950
43.6411,62.8151
43.6411,62.8151
43.2868,62.8753
42.9414,62.9748
42.6094,63.1124
42.6094,63.1124
42.2948,63.2862
42.2948,63.2862
42.0017,63.4942
41.8831,63.6002
43.0183,64.7355
42.9577,64.7796
42.7796,64.9577
42.7355,65.0183
41.6002,63.8831
41.4942,64.0017
41.2862,64.2948
41.2862,64.2948
41.1124,64.6094
41.1124,64.6094
40.9748,64.9414
40.8753,65.2868
40.8151,65.6411
40.8151,65.6411
40.7950,66.0000
18.3873,66.0000
18.4356,65.7783
18.4465,65.6253
18.4555,65.5000
18.4555,65.5000
18.4356,65.2217
18.4247,65.1718
18.3763,64.9491
18.3763,64.9491
18.3763,64.9491
18.2788,64.6877
18.1451,64.4428
18.0343,64.2948
17.9779,64.2194
17.7806,64.0221
17.6689,63.9385
17.5572,63.8549
17.3123,63.7212
17.0509,63.6237
17.0509,63.6237
17.0509,63.6237
16.9428,63.6002
16.7783,63.5644
16.5000,63.5445
16.5000,63.5445
16.2217,63.5644
15.9491,63.6237
15.9491,63.6237
15.6877,63.7212
15.4428,63.8549
15.2194,64.0221
15.0221,64.2194
14.8549,64.4428
14.7212,64.6877
14.6237,64.9491
14.6237,64.9491
14.5644,65.2217
14.5445,65.5000
10.0005,65.5000
10.0005,56.0000
13.5445,56.0000
13.5445,56.0000
13.5644,56.2783
13.6237,56.5509
13.6237,56.5509
13.7212,56.8123
13.8549,57.0572
13.8947,57.1103
14.0221,57.2806
14.2194,57.4779
14.3869,57.6033
14.4428,57.6451
14.6877,57.7788
14.9491,57.8763
14.9491,57.8763
14.9491,57.8763
15.2217,57.9356
15.2835,57.9400
15.5000,57.9555
15.5000,57.9555
15.5000,57.9555
15.6948,57.9415
15.7783,57.9356
16.0509,57.8763
16.0509,57.8763
16.0509,57.8763
16.3123,57.7788
16.4210,57.7194
16.5572,57.6451
16.7806,57.4779
16.9779,57.2806
17.1451,57.0572
17.2788,56.8123
17.2788,56.8123
17.2788,56.8123
17.3763,56.5509
17.3763,56.5509
17.3763,56.5509
17.4356,56.2783
17.4555,56.0000
17.4555,56.0000
17.4356,55.7217
17.4356,55.7217
17.3763,55.4491
17.3763,55.4491
17.3763,55.4491
17.2788,55.1877
17.1451,54.9428
17.1033,54.8869
16.9779,54.7194
16.7806,54.5221
16.6689,54.4385
16.5572,54.3549
16.3123,54.2212
16.0509,54.1237
16.0509,54.1237
16.0509,54.1237
15.9960,54.1118
15.7783,54.0644
15.5000,54.0445
15.5000,54.0445
15.2217,54.0644
14.9491,54.1237
14.9491,54.1237
14.6877,54.2212
14.4428,54.3549
14.2194,54.5221
14.0221,54.7194
13.8549,54.9428
13.7212,55.1877
13.6237,55.4491
13.6237,55.4491
13.5644,55.7217
13.5445,56.0000
10.0005,56.0000
10.0005,47.0000
13.5445,47.0000
13.5445,47.0000
13.5644,47.2783
13.6237,47.5509
13.6237,47.5509
13.7212,47.8123
13.8549,48.0572
13.9047,48.1237
14.0221,48.2806
14.2194,48.4779
14.3869,48.6033
14.4428,48.6451
14.6877,48.7788
14.9491,48.8763
14.9491,48.8763
14.9491,48.8763
15.2217,48.9356
15.2835,48.9400
15.5000,48.9555
15.5000,48.9555
15.5000,48.9555
15.6948,48.9415
15.7783,48.9356
16.0509,48.8763
16.0509,48.8763
16.0509,48.8763
16.3123,48.7788
16.4210,48.7194
16.5572,48.6451
16.7806,48.4779
16.9779,48.2806
17.1451,48.0572
17.2788,47.8123
17.2788,47.8123
17.2788,47.8123
17.3763,47.5509
17.3763,47.5509
17.3763,47.5509
17.4356,47.2783
17.4555,47.0000
17.4555,47.0000
17.4356,46.7217
17.4356,46.7217
17.3763,46.4491
17.3763,46.4491
17.3763,46.4491
17.2788,46.1877
17.1451,45.9428
17.1033,45.8869
16.9779,45.7194
16.7806,45.5221
16.6689,45.4385
16.5572,45.3549
16.3123,45.2212
16.0509,45.1237
16.0509,45.1237
16.0509,45.1237
15.9960,45.1118
15.7783,45.0644
15.5000,45.0445
15.5000,45.0445
15.2217,45.0644
14.9491,45.1237
14.9491,45.1237
14.6877,45.2212
14.4428,45.3549
14.2194,45.5221
14.0221,45.7194
13.8549,45.9428
13.7212,46.1877
13.6237,46.4491
13.6237,46.4491
13.5644,46.7217
13.5445,47.0000
10.0005,47.0000
10.0005,38.0000
13.5445,38.0000
13.5445,38.0000
13.5644,38.2783
13.6237,38.5509
13.6237,38.5509
13.7212,38.8123
13.8549,39.0572
13.9047,39.1237
14.0221,39.2806
14.2194,39.4779
14.3869,39.6033
14.4428,39.6451
14.6877,39.7788
14.9491,39.8763
14.9491,39.8763
14.9491,39.8763
15.2217,39.9356
15.2835,39.9400
15.5000,39.9555
15.5000,39.9555
15.5000,39.9555
15.6948,39.9415
15.7783,39.9356
16.0509,39.8763
16.0509,39.8763
16.0509,39.8763
16.3123,39.7788
16.4210,39.7194
16.5572,39.6451
16.7806,39.4779
16.9779,39.2806
17.1451,39.0572
17.2788,38.8123
17.2788,38.8123
17.2788,38.8123
17.3763,38.5509
17.3763,38.5509
17.3763,38.5509
17.4356,38.2783
17.4555,38.0000
17.4555,38.0000
17.4356,37.7217
17.4356,37.7217
17.3763,37.4491
17.3763,37.4491
17.3763,37.4491
17.2788,37.1877
17.1451,36.9428
17.1033,36.8869
16.9779,36.7194
16.7806,36.5221
16.5695,36.3641
16.5572,36.3549
16.3123,36.2212
16.0509,36.1237
16.0509,36.1237
16.0509,36.1237
15.9960,36.1118
15.7783,36.0644
15.5000,36.0445
15.5000,36.0445
15.2217,36.0644
14.9491,36.1237
14.9491,36.1237
14.6877,36.2212
14.4428,36.3549
14.2194,36.5221
14.0221,36.7194
13.8549,36.9428
13.7212,37.1877
13.6237,37.4491
13.6237,37.4491
13.5644,37.7217
13.5445,38.0000
10.0005,38.0000
10.0005,21.0000
10.5450,21.0000
10.5651,21.3589
10.5651,21.3589
10.6253,21.7132
10.7248,22.0586
10.8624,22.3906
10.8624,22.3906
11.0362,22.7052
11.0362,22.7052
11.2442,22.9983
11.3502,23.1169
12.4855,21.9817
12.5296,22.0423
12.7077,22.2204
12.7683,22.2645
11.6331,23.3998
11.7517,23.5058
12.0448,23.7138
12.0448,23.7138
12.3594,23.8876
12.3594,23.8876
12.6914,24.0252
13.0368,24.1247
13.0368,24.1247
13.3911,24.1849
13.3911,24.1849
13.7500,24.2050
14.1089,24.1849
14.1089,24.1849
14.4632,24.1247
14.8086,24.0252
15.1406,23.8876
15.1406,23.8876
15.4552,23.7138
15.4552,23.7138
15.7483,23.5058
15.8669,23.3998
15.8669,23.3998
14.7317,22.2645
14.7923,22.2204
14.9704,22.0423
15.0145,21.9817
16.1498,23.1169
16.1498,23.1169
16.2558,22.9983
16.4638,22.7052
16.4638,22.7052
16.6376,22.3906
16.6376,22.3906
16.7752,22.0586
16.8747,21.7132
16.9349,21.3589
16.9349,21.3589
16.9550,21.0000
16.9513,20.9341
20.4995,20.9341
20.4995,65.5409
20.5336,65.6682
20.5336,65.6682
20.5811,65.7505
20.5995,65.7823
20.6927,65.8755
20.8068,65.9414
20.9341,65.9755
20.9341,65.9755
20.9341,65.9755
34.5159,65.9755
34.5159,65.9755
34.6432,65.9414
34.7573,65.8755
34.8505,65.7823
34.9164,65.6682
34.9505,65.5409
34.9505,65.5409
34.9505,59.0000
39.0445,59.0000
39.0445,59.0000
39.0644,59.2783
39.1237,59.5509
39.1237,59.5509
39.2212,59.8123
39.3549,60.0572
39.4349,60.1640
39.5221,60.2806
39.7194,60.4779
39.8869,60.6033
39.9428,60.6451
40.1877,60.7788
40.4491,60.8763
40.4491,60.8763
40.4491,60.8763
40.7217,60.9356
40.7835,60.9400
41.0000,60.9555
41.0000,60.9555
41.0000,60.9555
41.1948,60.9415
41.2783,60.9356
41.5509,60.8763
41.5509,60.8763
41.5509,60.8763
41.8123,60.7788
42.0572,60.6451
42.0572,60.6451
42.0572,60.6451
42.2806,60.4779
42.4779,60.2806
42.6451,60.0572
42.7788,59.8123
42.7788,59.8123
42.7788,59.8123
42.8763,59.5509
42.8763,59.5509
42.8763,59.5509
42.9356,59.2783
42.9518,59.0509
42.9555,59.0000
42.9555,59.0000
42.9356,58.7217
42.9356,58.7217
42.8763,58.4491
42.8763,58.4491
42.8763,58.4491
42.7788,58.1877
42.6451,57.9428
42.5223,57.7788
42.4779,57.7194
42.2806,57.5221
42.0695,57.3641
42.0572,57.3549
41.8123,57.2212
41.5509,57.1237
41.5509,57.1237
41.5509,57.1237
41.4890,57.1103
41.2783,57.0644
41.0000,57.0445
41.0000,57.0445
40.7217,57.0644
40.4491,57.1237
40.4491,57.1237
40.1877,57.2212
39.9428,57.3549
39.7194,57.5221
39.5221,57.7194
39.3549,57.9428
39.2212,58.1877
39.1237,58.4491
39.1237,58.4491
39.0644,58.7217
39.0445,59.0000
34.9505,59.0000
34.9505,50.0000
39.0445,50.0000
39.0445,50.0000
39.0644,50.2783
39.1237,50.5509
39.1237,50.5509
39.2212,50.8123
39.3549,51.0572
39.3711,51.0788
39.5221,51.2806
39.7194,51.4779
39.8727,51.5926
39.9428,51.6451
40.1877,51.7788
40.4491,51.8763
40.4491,51.8763
40.4491,51.8763
40.7217,51.9356
40.7835,51.9400
41.0000,51.9555
41.0000,51.9555
41.0000,51.9555
41.1948,51.9415
41.2783,51.9356
41.5509,51.8763
41.5509,51.8763
41.5509,51.8763
41.8123,51.7788
42.0225,51.6640
42.0572,51.6451
42.2806,51.4779
42.4779,51.2806
42.6451,51.0572
42.7788,50.8123
42.7788,50.8123
42.7788,50.8123
42.8763,50.5509
42.8763,50.5509
42.8763,50.5509
42.9356,50.2783
42.9555,50.0000
42.9555,50.0000
42.9356,49.7217
42.9356,49.7217
42.8763,49.4491
42.8763,49.4491
42.8763,49.4491
42.7788,49.1877
42.6451,48.9428
42.5223,48.7788
42.4779,48.7194
42.2806,48.5221
42.0695,48.3641
42.0572,48.3549
41.8123,48.2212
41.5509,48.1237
41.5509,48.1237
41.5509,48.1237
41.4960,48.1118
41.2783,48.0644
41.0000,48.0445
41.0000,48.0445
40.7217,48.0644
40.4491,48.1237
40.4491,48.1237
40.1877,48.2212
39.9428,48.3549
39.7194,48.5221
39.5221,48.7194
39.3549,48.9428
39.2212,49.1877
39.1237,49.4491
39.1237,49.4491
39.0644,49.7217
39.0445,50.0000
34.9505,50.0000
34.9505,41.0000
39.0445,41.0000
39.0445,41.0000
39.0644,41.2783
39.1237,41.5509
39.1237,41.5509
39.2212,41.8123
39.3549,42.0572
39.4385,42.1689
39.5221,42.2806
39.7194,42.4779
39.8869,42.6033
39.9428,42.6451
40.1877,42.7788
40.4491,42.8763
40.4491,42.8763
40.4491,42.8763
40.7217,42.9356
40.7835,42.9400
41.0000,42.9555
41.0000,42.9555
41.0000,42.9555
41.1948,42.9415
41.2783,42.9356
41.5509,42.8763
41.5509,42.8763
41.5509,42.8763
41.8123,42.7788
42.0572,42.6451
42.0572,42.6451
42.0572,42.6451
42.2806,42.4779
42.4779,42.2806
42.6451,42.0572
42.7788,41.8123
42.7788,41.8123
42.7788,41.8123
42.8763,41.5509
42.8763,41.5509
42.8763,41.5509
42.9356,41.2783
42.9555,41.0000
42.9555,41.0000
42.9356,40.7217
42.9356,40.7217
42.8763,40.4491
42.8763,40.4491
42.8763,40.4491
42.7788,40.1877
42.6451,39.9428
42.5223,39.7788
42.4779,39.7194
42.2806,39.5221
42.1689,39.4385
42.0572,39.3549
41.8123,39.2212
41.5509,39.1237
41.5509,39.1237
41.5509,39.1237
41.4960,39.1118
41.2783,39.0644
41.0000,39.0445
41.0000,39.0445
40.7217,39.0644
40.4491,39.1237
40.4491,39.1237
40.1877,39.2212
39.9428,39.3549
39.7194,39.5221
39.5221,39.7194
39.3549,39.9428
39.2212,40.1877
39.1237,40.4491
39.1237,40.4491
39.0644,40.7217
39.0445,41.0000
34.9505,41.0000
34.9505,31.0000
38.5445,31.0000
38.5445,31.0000
38.5644,31.2783
38.6237,31.5509
38.6237,31.5509
38.7212,31.8123
38.8549,32.0572
38.9385,32.1689
39.0221,32.2806
39.2194,32.4779
39.3869,32.6033
39.4428,32.6451
39.6877,32.7788
39.9491,32.8763
39.9491,32.8763
39.9491,32.8763
40.2217,32.9356
40.2835,32.9400
40.5000,32.9555
40.5000,32.9555
40.5000,32.9555
40.6948,32.9415
40.7783,32.9356
41.0509,32.8763
41.0509,32.8763
41.0509,32.8763
41.3123,32.7788
41.5572,32.6451
41.5572,32.6451
41.5572,32.6451
41.7806,32.4779
41.9779,32.2806
42.1451,32.0572
42.2788,31.8123
42.2788,31.8123
42.2788,31.8123
42.3763,31.5509
42.3763,31.5509
42.3763,31.5509
42.4356,31.2783
42.4422,31.1855
42.4555,31.0000
42.4555,31.0000
42.4356,30.7217
42.4356,30.7217
42.3763,30.4491
42.3763,30.4491
42.3763,30.4491
42.2788,30.1877
42.1451,29.9428
42.1033,29.8869
41.9779,29.7194
41.7806,29.5221
41.6689,29.4385
41.5572,29.3549
41.3123,29.2212
41.0509,29.1237
41.0509,29.1237
41.0509,29.1237
40.9588,29.1037
40.7783,29.0644
40.5000,29.0445
40.5000,29.0445
40.2217,29.0644
39.9491,29.1237
39.9491,29.1237
39.6877,29.2212
39.4428,29.3549
39.2194,29.5221
39.0221,29.7194
38.8549,29.9428
38.7212,30.1877
38.6237,30.4491
38.6237,30.4491
38.5644,30.7217
38.5445,31.0000
34.9505,31.0000
34.9505,20.9341
34.9505,20.9341
34.9164,20.8068
34.9164,20.8068
34.8505,20.6927
34.7573,20.5995
34.6432,20.5336
34.6432,20.5336
34.5159,20.4995
34.5159,20.4995
21.0659,20.4995
20.9341,20.4995
20.9341,20.4995
20.8068,20.5336
20.8068,20.5336
20.6927,20.5995
20.5995,20.6927
20.5336,20.8068
20.5336,20.8068
20.4995,20.9341
16.9513,20.9341
16.9349,20.6411
16.9349,20.6411
16.8747,20.2868
16.7752,19.9414
16.6376,19.6094
16.6376,19.6094
16.4638,19.2948
16.4638,19.2948
16.2558,19.0017
16.1498,18.8831
16.1498,18.8831
15.0145,20.0183
14.9704,19.9577
14.7923,19.7796
14.7317,19.7355
15.8669,18.6002
15.7483,18.4942
15.4552,18.2862
15.4552,18.2862
15.1406,18.1124
15.1406,18.1124
14.8086,17.9748
14.4632,17.8753
14.4632,17.8753
14.1089,17.8151
14.1089,17.8151
13.7500,17.7950
13.3911,17.8151
13.3911,17.8151
13.0368,17.8753
12.6914,17.9748
12.3594,18.1124
12.3594,18.1124
12.0448,18.2862
12.0448,18.2862
11.7517,18.4942
11.6331,18.6002
12.7683,19.7355
12.7077,19.7796
12.5296,19.9577
12.4855,20.0183
11.3502,18.8831
11.2442,19.0017
11.0362,19.2948
11.0362,19.2948
10.8624,19.6094
10.8624,19.6094
10.7248,19.9414
10.6253,20.2868
10.5651,20.6411
10.5651,20.6411
10.5450,21.0000
10.0005,21.0000
10.0005,16.8245
10.0222,16.7722
10.0745,16.7505
48.5661,16.7505
48.5661,16.7505
48.6933,16.7164
48.8075,16.6505
48.9007,16.5573
48.9666,16.4432
49.0007,16.3159
49.0007,16.3159
49.0007,16.1805
49.0005,16.1780
49.0005,14.2100
49.6544,14.2100
49.6747,14.4159
49.7348,14.6140
49.8323,14.7965
49.9636,14.9564
50.1235,15.0877
50.3060,15.1852
50.5041,15.2453
50.7100,15.2656
50.9159,15.2453
51.1140,15.1852
51.2965,15.0877
51.4564,14.9564
51.5877,14.7965
51.6852,14.6140
51.7453,14.4159
51.7656,14.2100
52.1944,14.2100
52.2147,14.4159
52.2748,14.6140
52.3723,14.7965
52.5036,14.9564
52.6636,15.0877
52.8460,15.1852
53.0441,15.2453
53.2500,15.2656
53.4559,15.2453
53.6540,15.1852
53.8364,15.0877
53.9964,14.9564
54.1277,14.7965
54.2252,14.6140
54.2853,14.4159
54.3056,14.2100
54.7344,14.2100
54.7547,14.4159
54.8148,14.6140
54.9123,14.7965
55.0436,14.9564
55.2035,15.0877
55.3860,15.1852
55.5841,15.2453
55.7900,15.2656
55.9959,15.2453
56.1940,15.1852
56.3764,15.0877
56.5364,14.9564
56.6677,14.7965
56.7652,14.6140
56.8253,14.4159
56.8456,14.2100
57.2744,14.2100
57.2947,14.4159
57.3548,14.6140
57.4523,14.7965
57.5836,14.9564
57.7435,15.0877
57.9260,15.1852
58.1241,15.2453
58.3300,15.2656
58.5359,15.2453
58.7340,15.1852
58.9164,15.0877
59.0764,14.9564
59.2077,14.7965
59.3052,14.6140
59.3653,14.4159
59.3856,14.2100
59.8144,14.2100
59.8347,14.4159
59.8948,14.6140
59.9923,14.7965
60.1236,14.9564
60.2835,15.0877
60.4660,15.1852
60.6641,15.2453
60.8700,15.2656
61.0759,15.2453
61.2740,15.1852
61.4564,15.0877
61.6164,14.9564
61.7477,14.7965
61.8452,14.6140
61.9053,14.4159
61.9256,14.2100
62.3544,14.2100
62.3747,14.4159
62.4348,14.6140
62.5323,14.7965
62.6636,14.9564
62.8235,15.0877
63.0060,15.1852
63.2041,15.2453
63.4100,15.2656
63.6159,15.2453
63.8140,15.1852
63.9964,15.0877
64.1564,14.9564
64.2877,14.7965
64.3852,14.6140
64.4453,14.4159
64.4656,14.2100
64.8944,14.2100
64.9147,14.4159
64.9748,14.6140
65.0723,14.7965
65.2036,14.9564
65.3636,15.0877
65.5460,15.1852
65.7441,15.2453
65.9500,15.2656
66.1559,15.2453
66.3540,15.1852
66.5365,15.0877
66.6964,14.9564
66.8277,14.7965
66.9252,14.6140
66.9853,14.4159
67.0056,14.2100
67.4344,14.2100
67.4547,14.4159
67.5148,14.6140
67.6123,14.7965
67.7436,14.9564
67.9035,15.0877
68.0860,15.1852
68.2841,15.2453
68.4900,15.2656
68.6959,15.2453
68.8940,15.1852
69.0764,15.0877
69.2364,14.9564
69.3677,14.7965
69.4652,14.6140
69.5253,14.4159
69.5456,14.2100
69.9744,14.2100
69.9947,14.4159
70.0548,14.6140
70.1523,14.7965
70.2836,14.9564
70.4436,15.0877
70.6260,15.1852
70.8241,15.2453
71.0300,15.2656
71.2359,15.2453
71.4340,15.1852
71.6165,15.0877
71.7764,14.9564
71.9077,14.7965
72.0052,14.6140
72.0653,14.4159
72.0856,14.2100
72.5144,14.2100
72.5347,14.4159
72.5948,14.6140
72.6923,14.7965
72.8236,14.9564
72.9835,15.0877
73.1660,15.1852
73.3641,15.2453
73.5700,15.2656
73.7759,15.2453
73.9740,15.1852
74.1564,15.0877
74.3164,14.9564
74.4477,14.7965
74.5452,14.6140
74.6053,14.4159
74.6256,14.2100
75.0544,14.2100
75.0747,14.4159
75.1348,14.6140
75.2323,14.7965
75.3636,14.9564
75.5236,15.0877
75.7060,15.1852
75.9041,15.2453
76.1100,15.2656
76.3159,15.2453
76.5140,15.1852
76.6964,15.0877
76.8564,14.9564
76.9877,14.7965
77.0852,14.6140
77.1453,14.4159
77.1656,14.2100
77.5944,14.2100
77.6147,14.4159
77.6748,14.6140
77.7723,14.7965
77.9036,14.9564
78.0635,15.0877
78.2460,15.1852
78.4441,15.2453
78.6500,15.2656
78.8559,15.2453
79.0540,15.1852
79.2364,15.0877
79.3964,14.9564
79.5277,14.7965
79.6252,14.6140
79.6853,14.4159
79.7056,14.2100
79.6853,14.0041
79.6252,13.8060
79.5277,13.6235
79.3964,13.4636
79.2364,13.3323
79.0540,13.2348
78.9422,13.2009
78.8559,13.1747
78.6500,13.1544
78.4441,13.1747
78.2460,13.2348
78.0635,13.3323
77.9036,13.4636
77.9036,13.4636
77.7723,13.6235
77.6748,13.8060
77.6147,14.0041
77.6147,14.0041
77.5944,14.2100
77.1656,14.2100
77.1453,14.0041
77.0852,13.8060
76.9877,13.6235
76.8564,13.4636
76.6964,13.3323
76.5140,13.2348
76.4022,13.2009
76.3159,13.1747
76.1100,13.1544
75.9041,13.1747
75.7060,13.2348
75.5235,13.3323
75.3636,13.4636
75.3636,13.4636
75.2323,13.6235
75.1348,13.8060
75.0747,14.0041
75.0747,14.0041
75.0544,14.2100
74.6256,14.2100
74.6053,14.0041
74.5452,13.8060
74.4477,13.6235
74.3164,13.4636
74.1564,13.3323
73.9740,13.2348
73.8622,13.2009
73.7759,13.1747
73.5700,13.1544
73.3641,13.1747
73.1660,13.2348
72.9835,13.3323
72.8236,13.4636
72.8236,13.4636
72.6923,13.6235
72.5948,13.8060
72.5347,14.0041
72.5347,14.0041
72.5144,14.2100
72.0856,14.2100
72.0653,14.0041
72.0052,13.8060
71.9077,13.6235
71.7764,13.4636
71.6165,13.3323
71.4340,13.2348
71.3222,13.2009
71.2359,13.1747
71.0300,13.1544
70.8241,13.1747
70.6260,13.2348
70.4435,13.3323
70.2836,13.4636
70.2836,13.4636
70.1523,13.6235
70.0548,13.8060
69.9947,14.0041
69.9947,14.0041
69.9744,14.2100
69.5456,14.2100
69.5253,14.0041
69.4652,13.8060
69.3677,13.6235
69.2364,13.4636
69.0764,13.3323
68.8940,13.2348
68.7822,13.2009
68.6959,13.1747
68.4900,13.1544
68.2841,13.1747
68.0860,13.2348
67.9035,13.3323
67.7436,13.4636
67.7436,13.4636
67.6123,13.6235
67.5148,13.8060
67.4547,14.0041
67.4547,14.0041
67.4344,14.2100
67.0056,14.2100
66.9853,14.0041
66.9252,13.8060
66.8277,13.6235
66.6964,13.4636
66.5365,13.3323
66.3540,13.2348
66.2422,13.2009
66.1559,13.1747
65.9500,13.1544
65.7441,13.1747
65.5460,13.2348
65.3635,13.3323
65.2036,13.4636
65.2036,13.4636
65.0723,13.6235
64.9748,13.8060
64.9147,14.0041
64.9147,14.0041
64.8944,14.2100
64.4656,14.2100
64.4453,14.0041
64.3852,13.8060
64.2877,13.6235
64.1564,13.4636
63.9964,13.3323
63.8140,13.2348
63.7022,13.2009
63.6159,13.1747
63.4100,13.1544
63.2041,13.1747
63.0060,13.2348
62.8235,13.3323
62.6636,13.4636
62.6636,13.4636
62.5323,13.6235
62.4348,13.8060
62.3747,14.0041
62.3747,14.0041
62.3544,14.2100
61.9256,14.2100
61.9053,14.0041
61.8452,13.8060
61.7477,13.6235
61.6164,13.4636
61.4564,13.3323
61.2740,13.2348
61.1622,13.2009
61.0759,13.1747
60.8700,13.1544
60.6641,13.1747
60.4660,13.2348
60.2835,13.3323
60.1236,13.4636
60.1236,13.4636
59.9923,13.6235
59.8948,13.8060
59.8347,14.0041
59.8347,14.0041
59.8144,14.2100
59.3856,14.2100
59.3653,14.0041
59.3052,13.8060
59.2077,13.6235
59.0764,13.4636
58.9164,13.3323
58.7340,13.2348
58.6222,13.2009
58.5359,13.1747
58.3300,13.1544
58.1241,13.1747
57.9260,13.2348
57.7435,13.3323
57.5836,13.4636
57.5836,13.4636
57.4523,13.6235
57.3548,13.8060
57.2947,14.0041
57.2947,14.0041
57.2744,14.2100
56.8456,14.2100
56.8253,14.0041
56.7652,13.8060
56.6677,13.6235
56.5364,13.4636
56.3764,13.3323
56.1940,13.2348
56.0822,13.2009
55.9959,13.1747
55.7900,13.1544
55.5841,13.1747
55.3860,13.2348
55.2035,13.3323
55.0436,13.4636
55.0436,13.4636
54.9123,13.6235
54.8148,13.8060
54.7547,14.0041
54.7547,14.0041
54.7344,14.2100
54.3056,14.2100
54.2853,14.0041
54.2252,13.8060
54.1277,13.6235
53.9964,13.4636
53.8364,13.3323
53.6540,13.2348
53.5422,13.2009
53.4559,13.1747
53.2500,13.1544
53.0441,13.1747
52.8460,13.2348
52.6635,13.3323
52.5036,13.4636
52.5036,13.4636
52.3723,13.6235
52.2748,13.8060
52.2147,14.0041
52.2147,14.0041
52.1944,14.2100
51.7656,14.2100
51.7453,14.0041
51.6852,13.8060
51.5877,13.6235
51.4564,13.4636
51.2965,13.3323
51.1140,13.2348
51.0022,13.2009
50.9159,13.1747
50.7100,13.1544
50.5041,13.1747
50.3060,13.2348
50.1235,13.3323
49.9636,13.4636
49.9636,13.4636
49.8323,13.6235
49.7348,13.8060
49.6747,14.0041
49.6747,14.0041
49.6544,14.2100
49.0005,14.2100
49.0005,3.8245
49.0222,3.7722
49.0745,3.7505
80.1755,3.7505
Z" /> 
</g>
<g style="fill:#FFFFFF; fill-opacity:1.0000; stroke:none;">
<circle cx="78.6500" cy="14.2100" r="0.5000" /> 
</g>
<g style="fill:#FFFFFF; fill-opacity:1.0000; stroke:none;">
<circle cx="76.1100" cy="14.2100" r="0.5000" /> 
</g>
<g style="fill:#FFFFFF; fill-opacity:1.0000; stroke:none;">
<circle cx="73.5700" cy="14.2100" r="0.5000" /> 
</g>
<g style="fill:#FFFFFF; fill-opacity:1.0000; stroke:none;">
<circle cx="71.0300" cy="14.2100" r="0.5000" /> 
</g>
<g style="fill:#FFFFFF; fill-opacity:1.0000; stroke:none;">
<circle cx="68.4900" cy="14.2100" r="0.5000" /> 
</g>
<g style="fill:#FFFFFF; fill-opacity:1.0000; stroke:none;">
<circle cx="65.9500" cy="14.2100" r="0.5000" /> 
</g>
<g style="fill:#FFFFFF; fill-opacity:1.0000; stroke:none;">
<circle cx="63.4100" cy="14.2100" r="0.5000" /> 
</g>
<g style="fill:#FFFFFF; fill-opacity:1.0000; stroke:none;">
<circle cx="60.8700" cy="14.2100" r="0.5000" /> 
</g>
<g style="fill:#FFFFFF; fill-opacity:1.0000; stroke:none;">
<circle cx="58.3300" cy="14.2100" r="0.5000" /> 
</g>
<g style="fill:#FFFFFF; fill-opacity:1.0000; stroke:none;">
<circle cx="55.7900" cy="14.2100" r="0.5000" /> 
</g>
<g style="fill:#FFFFFF; fill-opacity:1.0000; stroke:none;">
<circle cx="53.2500" cy="14.2100" r="0.5000" /> 
</g>
<g style="fill:#FFFFFF; fill-opacity:1.0000; stroke:none;">
<circle cx="50.7100" cy="14.2100" r="0.5000" /> 
</g>
<g style="fill:#FFFFFF; fill-opacity:1.0000; stroke:none;">
<circle cx="78.6500" cy="16.7500" r="0.5000" /> 
</g>
<g style="fill:#FFFFFF; fill-opacity:1.0000; stroke:none;">
<circle cx="76.1100" cy="16.7500" r="0.5000" /> 
</g>
<g style="fill:#FFFFFF; fill-opacity:1.0000; stroke:none;">
<circle cx="73.5700" cy="16.7500" r="0.5000" /> 
</g>
<g style="fill:#FFFFFF; fill-opacity:1.0000; stroke:none;">
<circle cx="71.0300" cy="16.7500" r="0.5000" /> 
</g>
<g style="fill:#FFFFFF; fill-opacity:1.0000; stroke:none;">
<circle cx="68.4900" cy="16.7500" r="0.5000" /> 
</g>
<g style="fill:#FFFFFF; fill-opacity:1.0000; stroke:none;">
<circle cx="65.9500" cy="16.7500" r="0.5000" /> 
</g>
<g style="fill:#FFFFFF; fill-opacity:1.0000; stroke:none;">
<circle cx="63.4100" cy="16.7500" r="0.5000" /> 
</g>
<g style="fill:#FFFFFF; fill-opacity:1.0000; stroke:none;">
<circle cx="60.8700" cy="16.7500" r="0.5000" /> 
</g>
<g style="fill:#FFFFFF; fill-opacity:1.0000; stroke:none;">
<circle cx="58.3300" cy="16.7500" r="0.5000" /> 
</g>
<g style="fill:#FFFFFF; fill-opacity:1.0000; stroke:none;">
<circle cx="55.7900" cy="16.7500" r="0.5000" /> 
</g>
<g style="fill:#FFFFFF; fill-opacity:1.0000; stroke:none;">
<circle cx="53.2500" cy="16.7500" r="0.5000" /> 
</g>
<g style="fill:#FFFFFF; fill-opacity:1.0000; stroke:none;">
<circle cx="50.7100" cy="16.7500" r="0.5000" /> 
</g>
<g style="fill:#FFFFFF; fill-opacity:1.0000; stroke:none;">
<circle cx="53.5000" cy="38.0000" r="1.2650" /> 
</g>
<g style="fill:#FFFFFF; fill-opacity:1.0000; stroke:none;">
<circle cx="41.0000" cy="50.0000" r="1.2650" /> 
</g>
<g style="fill:#FFFFFF; fill-opacity:1.0000; stroke:none;">
<circle cx="41.0000" cy="59.0000" r="1.2650" /> 
</g>
<g style="fill:#FFFFFF; fill-opacity:1.0000; stroke:none;">
<circle cx="92.5000" cy="65.5000" r="1.2650" /> 
</g>
<g style="fill:#FFFFFF; fill-opacity:1.0000; stroke:none;">
<circle cx="121.2500" cy="66.0000" r="1.6000" /> 
</g>
<g style="fill:#FFFFFF; fill-opacity:1.0000; stroke:none;">
<circle cx="117.0000" cy="50.0000" r="1.2650" /> 
</g>
<g style="fill:#FFFFFF; fill-opacity:1.0000; stroke:none;">
<circle cx="13.7500" cy="21.0000" r="1.6000" /> 
</g>
<g style="fill:#FFFFFF; fill-opacity:1.0000; stroke:none;">
<circle cx="121.2500" cy="21.0000" r="1.6000" /> 
</g>
<g style="fill:#FFFFFF; fill-opacity:1.0000; stroke:none;">
<circle cx="44.0000" cy="66.0000" r="1.6000" /> 
</g>
<g style="fill:#FFFFFF; fill-opacity:1.0000; stroke:none;">
<circle cx="53.5000" cy="56.0000" r="1.2650" /> 
</g>
<g style="fill:#FFFFFF; fill-opacity:1.0000; stroke:none;">
<circle cx="54.5000" cy="65.5000" r="1.2650" /> 
</g>
<g style="fill:#FFFFFF; fill-opacity:1.0000; stroke:none;">
<circle cx="15.5000" cy="38.0000" r="1.2650" /> 
</g>
<g style="fill:#FFFFFF; fill-opacity:1.0000; stroke:none;">
<circle cx="117.0000" cy="59.0000" r="1.2650" /> 
</g>
<g style="fill:#FFFFFF; fill-opacity:1.0000; stroke:none;">
<circle cx="91.5000" cy="38.0000" r="1.2650" /> 
</g>
<g style="fill:#FFFFFF; fill-opacity:1.0000; stroke:none;">
<circle cx="40.5000" cy="31.0000" r="1.2650" /> 
</g>
<g style="fill:#FFFFFF; fill-opacity:1.0000; stroke:none;">
<circle cx="91.5000" cy="47.0000" r="1.2650" /> 
</g>
<g style="fill:#FFFFFF; fill-opacity:1.0000; stroke:none;">
<circle cx="15.5000" cy="47.0000" r="1.2650" /> 
</g>
<g style="fill:#FFFFFF; fill-opacity:1.0000; stroke:none;">
<circle cx="15.5000" cy="56.0000" r="1.2650" /> 
</g>
<g style="fill:#FFFFFF; fill-opacity:1.0000; stroke:none;">
<circle cx="41.0000" cy="41.0000" r="1.2650" /> 
</g>
<g style="fill:#FFFFFF; fill-opacity:1.0000; stroke:none;">
<circle cx="79.0000" cy="41.0000" r="1.2650" /> 
</g>
<g style="fill:#FFFFFF; fill-opacity:1.0000; stroke:none;">
<circle cx="16.5000" cy="65.5000" r="1.2650" /> 
</g>
<g style="fill:#FFFFFF; fill-opacity:1.0000; stroke:none;">
<circle cx="116.0000" cy="31.0000" r="1.2650" /> 
</g>
<g style="fill:#FFFFFF; fill-opacity:1.0000; stroke:none;">
<circle cx="117.0000" cy="41.0000" r="1.2650" /> 
</g>
<g style="fill:#FFFFFF; fill-opacity:1.0000; stroke:none;">
<circle cx="53.5000" cy="47.0000" r="1.2650" /> 
</g>
<g style="fill:#FFFFFF; fill-opacity:1.0000; stroke:none;">
<circle cx="91.5000" cy="56.0000" r="1.2650" /> 
</g>
<g style="fill:#FFFFFF; fill-opacity:1.0000; stroke:none;">
<circle cx="78.5000" cy="31.0000" r="1.2650" /> 
</g>
<g style="fill:#FFFFFF; fill-opacity:1.0000; stroke:none;">
<circle cx="79.0000" cy="58.5000" r="1.2650" /> 
</g>
<g style="fill:#FFFFFF; fill-opacity:1.0000; stroke:none;">
<circle cx="79.0000" cy="50.0000" r="1.2650" /> 
</g>
<g style="fill:none; 
stroke:#D0D2CD; stroke-width:0.0500; stroke-opacity:1; 
stroke-linecap:round; stroke-linejoin:round;">
<path d="M80.7499 16.2500
L125.5000 16.2500
" />
<path style="fill:none; 
stroke:#D0D2CD; stroke-width:0.0500; stroke-opacity:1; 
stroke-linecap:round; stroke-linejoin:round;fill:none"
d="M 21.0000,21.0000
34.4500,21.0000
34.4500,65.4750
21.0000,65.4750
Z" /> 
<path d="M125.5000 70.3631
L9.5000 70.3631
" />
<path d="M48.5000 3.2500
L80.7500 3.2500
" />
<path d="M80.7500 3.2500
L80.7500 16.2500
" />
<path style="fill:none; 
stroke:#D0D2CD; stroke-width:0.0500; stroke-opacity:1; 
stroke-linecap:round; stroke-linejoin:round;fill:none"
d="M 97.0000,21.0000
107.0000,21.0000
107.0000,65.3750
97.0000,65.3750
Z" /> 
<path d="M48.5000 16.2500
L48.5000 3.2500
" />
<path d="M9.5000 16.2500
L48.5002 16.2500
" />
<path d="M125.5000 16.2500
L125.5000 70.3631
" />
<path d="M9.5000 70.3631
L9.5000 16.2500
" />
<path style="fill:none; 
stroke:#D0D2CD; stroke-width:0.0500; stroke-opacity:1; 
stroke-linecap:round; stroke-linejoin:round;fill:none"
d="M 59.4500,21.0000
69.4500,21.0000
69.4500,65.2500
59.4500,65.2500
Z" /> 
</g> 
</svg>
