<?xml version="1.0" standalone="no"?>
 <!DOCTYPE svg PUBLIC "-//W3C//DTD SVG 1.1//EN" 
 "http://www.w3.org/Graphics/SVG/1.1/DTD/svg11.dtd"> 
<svg
  xmlns:svg="http://www.w3.org/2000/svg"
  xmlns="http://www.w3.org/2000/svg"
  xmlns:xlink="http://www.w3.org/1999/xlink"
  version="1.1"
  width="135.9916mm" height="75.9968mm" viewBox="0.0000 0.0000 135.9916 75.9968">
<title>SVG Image created as LowerPOGO-B_Cu.svg date 2024/06/21 15:15:10 </title>
  <desc>Image generated by PCBNEW </desc>
<g style="fill:#000000; fill-opacity:1.0000;stroke:#000000; stroke-opacity:1.0000;
stroke-linecap:round; stroke-linejoin:round;"
 transform="translate(0 0) scale(1 1)">
</g>
<g style="fill:#4D7FC4; fill-opacity:1.0000; stroke:none;">
<circle cx="121.2500" cy="66.0000" r="1.8000" /> 
</g>
<g style="fill:#4D7FC4; fill-opacity:1.0000; stroke:none;">
<circle cx="121.2500" cy="66.0000" r="2.8000" /> 
</g>
<g style="fill:#4D7FC4; fill-opacity:1.0000; stroke:none;">
<circle cx="13.7500" cy="21.0000" r="1.8000" /> 
</g>
<g style="fill:#4D7FC4; fill-opacity:1.0000; stroke:none;">
<circle cx="13.7500" cy="21.0000" r="2.8000" /> 
</g>
<g style="fill:#4D7FC4; fill-opacity:1.0000; stroke:none;">
<circle cx="121.2500" cy="21.0000" r="1.8000" /> 
</g>
<g style="fill:#4D7FC4; fill-opacity:1.0000; stroke:none;">
<circle cx="121.2500" cy="21.0000" r="2.8000" /> 
</g>
<g style="fill:#4D7FC4; fill-opacity:1.0000; stroke:none;">
<circle cx="44.0000" cy="66.0000" r="1.8000" /> 
</g>
<g style="fill:#4D7FC4; fill-opacity:1.0000; stroke:none;">
<circle cx="44.0000" cy="66.0000" r="2.8000" /> 
</g>
<g style="fill:#4D7FC4; fill-opacity:1.0000; stroke:none;">
<circle cx="50.7100" cy="14.2100" r="0.8500" /> 
<circle cx="53.2500" cy="14.2100" r="0.8500" /> 
<circle cx="55.7900" cy="14.2100" r="0.8500" /> 
<circle cx="58.3300" cy="14.2100" r="0.8500" /> 
<circle cx="60.8700" cy="14.2100" r="0.8500" /> 
<circle cx="63.4100" cy="14.2100" r="0.8500" /> 
<circle cx="65.9500" cy="14.2100" r="0.8500" /> 
<circle cx="68.4900" cy="14.2100" r="0.8500" /> 
<circle cx="71.0300" cy="14.2100" r="0.8500" /> 
<circle cx="73.5700" cy="14.2100" r="0.8500" /> 
<circle cx="76.1100" cy="14.2100" r="0.8500" /> 
<circle cx="78.6500" cy="14.2100" r="0.8500" /> 
<path style="fill:#4D7FC4; fill-opacity:1.0000; stroke:none;fill-rule:evenodd;"
d="M 49.8600,15.9000
51.5600,15.9000
51.5600,17.6000
49.8600,17.6000
Z" /> 
<circle cx="53.2500" cy="16.7500" r="0.8500" /> 
<circle cx="55.7900" cy="16.7500" r="0.8500" /> 
<circle cx="58.3300" cy="16.7500" r="0.8500" /> 
<circle cx="60.8700" cy="16.7500" r="0.8500" /> 
<circle cx="63.4100" cy="16.7500" r="0.8500" /> 
<circle cx="65.9500" cy="16.7500" r="0.8500" /> 
<circle cx="68.4900" cy="16.7500" r="0.8500" /> 
<circle cx="71.0300" cy="16.7500" r="0.8500" /> 
<circle cx="73.5700" cy="16.7500" r="0.8500" /> 
<circle cx="76.1100" cy="16.7500" r="0.8500" /> 
<circle cx="78.6500" cy="16.7500" r="0.8500" /> 
<circle cx="15.5000" cy="38.0000" r="1.6250" /> 
</g>
<g style="fill:#4D7FC4; fill-opacity:1.0000; stroke:none;">
<circle cx="15.5000" cy="47.0000" r="1.6250" /> 
</g>
<g style="fill:#4D7FC4; fill-opacity:1.0000; stroke:none;">
<circle cx="15.5000" cy="56.0000" r="1.6250" /> 
</g>
<g style="fill:#4D7FC4; fill-opacity:1.0000; stroke:none;">
<circle cx="16.5000" cy="65.5000" r="1.6250" /> 
</g>
<g style="fill:#4D7FC4; fill-opacity:1.0000; stroke:none;">
<circle cx="40.5000" cy="31.0000" r="1.6250" /> 
</g>
<g style="fill:#4D7FC4; fill-opacity:1.0000; stroke:none;">
<circle cx="41.0000" cy="41.0000" r="1.6250" /> 
</g>
<g style="fill:#4D7FC4; fill-opacity:1.0000; stroke:none;">
<circle cx="53.5000" cy="38.0000" r="1.6250" /> 
</g>
<g style="fill:#4D7FC4; fill-opacity:1.0000; stroke:none;">
<circle cx="41.0000" cy="50.0000" r="1.6250" /> 
</g>
<g style="fill:#4D7FC4; fill-opacity:1.0000; stroke:none;">
<circle cx="53.5000" cy="47.0000" r="1.6250" /> 
</g>
<g style="fill:#4D7FC4; fill-opacity:1.0000; stroke:none;">
<circle cx="41.0000" cy="59.0000" r="1.6250" /> 
</g>
<g style="fill:#4D7FC4; fill-opacity:1.0000; stroke:none;">
<circle cx="53.5000" cy="56.0000" r="1.6250" /> 
</g>
<g style="fill:#4D7FC4; fill-opacity:1.0000; stroke:none;">
<circle cx="54.5000" cy="65.5000" r="1.6250" /> 
</g>
<g style="fill:#4D7FC4; fill-opacity:1.0000; stroke:none;">
<circle cx="92.5000" cy="65.5000" r="1.6250" /> 
</g>
<g style="fill:#4D7FC4; fill-opacity:1.0000; stroke:none;">
<circle cx="91.5000" cy="56.0000" r="1.6250" /> 
</g>
<g style="fill:#4D7FC4; fill-opacity:1.0000; stroke:none;">
<circle cx="79.0000" cy="58.5000" r="1.6250" /> 
</g>
<g style="fill:#4D7FC4; fill-opacity:1.0000; stroke:none;">
<circle cx="79.0000" cy="50.0000" r="1.6250" /> 
</g>
<g style="fill:#4D7FC4; fill-opacity:1.0000; stroke:none;">
<circle cx="79.0000" cy="41.0000" r="1.6250" /> 
</g>
<g style="fill:#4D7FC4; fill-opacity:1.0000; stroke:none;">
<circle cx="91.5000" cy="47.0000" r="1.6250" /> 
</g>
<g style="fill:#4D7FC4; fill-opacity:1.0000; stroke:none;">
<circle cx="78.5000" cy="31.0000" r="1.6250" /> 
</g>
<g style="fill:#4D7FC4; fill-opacity:1.0000; stroke:none;">
<circle cx="91.5000" cy="38.0000" r="1.6250" /> 
</g>
<g style="fill:#4D7FC4; fill-opacity:1.0000; stroke:none;">
<circle cx="117.0000" cy="59.0000" r="1.6250" /> 
</g>
<g style="fill:#4D7FC4; fill-opacity:1.0000; stroke:none;">
<circle cx="117.0000" cy="50.0000" r="1.6250" /> 
</g>
<g style="fill:#4D7FC4; fill-opacity:1.0000; stroke:none;">
<circle cx="117.0000" cy="41.0000" r="1.6250" /> 
</g>
<g style="fill:#4D7FC4; fill-opacity:1.0000; stroke:none;">
<circle cx="116.0000" cy="31.0000" r="1.6250" /> 
</g>
<g style="fill:none; 
stroke:#4D7FC4; stroke-width:0.4000; stroke-opacity:1; 
stroke-linecap:round; stroke-linejoin:round;">
<path d="M58.5000 52.0000
L58.5000 65.4150
" />
<path d="M69.7800 15.4600
L71.0300 14.2100
" />
<path d="M59.1600 66.0750
L69.7400 66.0750
" />
<path d="M70.6500 20.6500
L69.7800 19.7800
" />
<path d="M69.7800 19.7800
L69.7800 15.4600
" />
<path d="M53.5000 47.0000
L58.5000 52.0000
" />
<path d="M70.6500 65.1650
L70.6500 20.6500
" />
<path d="M58.5000 65.4150
L59.1600 66.0750
" />
<path d="M69.7400 66.0750
L70.6500 65.1650
" />
<path d="M18.7000 20.9971
L20.2471 19.4500
" />
<path d="M54.5000 15.5000
L55.7900 14.2100
" />
<path d="M54.5000 17.2678
L54.5000 15.5000
" />
<path d="M52.3178 19.4500
L54.5000 17.2678
" />
<path d="M15.5000 56.0000
L18.7000 52.8000
" />
<path d="M18.7000 52.8000
L18.7000 20.9971
" />
<path d="M20.2471 19.4500
L52.3178 19.4500
" />
<path d="M57.0400 17.2678
L57.0400 15.5000
" />
<path d="M19.3000 21.2456
L20.4956 20.0500
" />
<path d="M57.0400 15.5000
L58.3300 14.2100
" />
<path d="M19.3000 62.7000
L19.3000 21.2456
" />
<path d="M16.5000 65.5000
L19.3000 62.7000
" />
<path d="M54.5289 19.7789
L57.0400 17.2678
" />
<path d="M54.2578 20.0500
L54.5289 19.7789
" />
<path d="M20.4956 20.0500
L54.2578 20.0500
" />
<path d="M49.2500 16.7500
L49.2500 15.6700
" />
<path d="M17.5000 20.5000
L19.7500 18.2500
" />
<path d="M17.5000 36.0000
L17.5000 20.5000
" />
<path d="M47.7500 18.2500
L49.2500 16.7500
" />
<path d="M15.5000 38.0000
L17.5000 36.0000
" />
<path d="M19.7500 18.2500
L47.7500 18.2500
" />
<path d="M49.2500 15.6700
L50.7100 14.2100
" />
<path d="M18.1000 44.4000
L18.1000 20.7485
" />
<path d="M15.5000 47.0000
L18.1000 44.4000
" />
<path d="M18.1000 20.7485
L19.9985 18.8500
" />
<path d="M52.0000 17.8000
L52.0000 15.4600
" />
<path d="M52.0000 15.4600
L53.2500 14.2100
" />
<path d="M19.9985 18.8500
L50.9500 18.8500
" />
<path d="M50.9500 18.8500
L52.0000 17.8000
" />
<path d="M47.6563 27.5000
L57.1563 18.0000
" />
<path d="M59.6200 15.4600
L60.8700 14.2100
" />
<path d="M44.0000 27.5000
L47.6563 27.5000
" />
<path d="M58.8478 18.0000
L59.6200 17.2278
" />
<path d="M40.5000 31.0000
L44.0000 27.5000
" />
<path d="M57.1563 18.0000
L58.8478 18.0000
" />
<path d="M59.6200 17.2278
L59.6200 15.4600
" />
<path d="M62.1200 15.5000
L63.4100 14.2100
" />
<path d="M60.7878 18.6000
L62.1200 17.2678
" />
<path d="M57.4048 18.6000
L60.7878 18.6000
" />
<path d="M62.1200 17.2678
L62.1200 15.5000
" />
<path d="M41.0000 41.0000
L41.0000 35.0048
" />
<path d="M41.0000 35.0048
L57.4048 18.6000
" />
<path d="M64.6600 15.5000
L65.9500 14.2100
" />
<path d="M62.7278 19.2000
L64.6600 17.2678
" />
<path d="M57.6534 19.2000
L62.7278 19.2000
" />
<path d="M53.5000 38.0000
L53.5000 23.3534
" />
<path d="M64.6600 17.2678
L64.6600 15.5000
" />
<path d="M53.5000 23.3534
L57.6534 19.2000
" />
<path d="M57.9019 19.8000
L64.6678 19.8000
" />
<path d="M64.6678 19.8000
L67.2000 17.2678
" />
<path d="M46.2500 50.0000
L56.5000 39.7500
" />
<path d="M67.2000 17.2678
L67.2000 15.5000
" />
<path d="M67.2000 15.5000
L68.4900 14.2100
" />
<path d="M41.0000 50.0000
L46.2500 50.0000
" />
<path d="M56.5000 39.7500
L56.5000 21.2019
" />
<path d="M56.5000 21.2019
L57.9019 19.8000
" />
<path d="M57.9000 52.2490
L57.9000 65.6630
" />
<path d="M72.3200 15.4600
L73.5700 14.2100
" />
<path d="M69.9130 66.7500
L71.2500 65.4130
" />
<path d="M57.9000 65.6630
L58.9870 66.7500
" />
<path d="M56.6510 51.0000
L57.9000 52.2490
" />
<path d="M58.9870 66.7500
L69.9130 66.7500
" />
<path d="M71.2500 23.5000
L72.3200 22.4300
" />
<path d="M43.7500 59.0000
L51.7500 51.0000
" />
<path d="M71.2500 65.4130
L71.2500 23.5000
" />
<path d="M41.0000 59.0000
L43.7500 59.0000
" />
<path d="M72.3200 22.4300
L72.3200 15.4600
" />
<path d="M51.7500 51.0000
L56.6510 51.0000
" />
<path d="M57.3000 59.8000
L57.3000 65.9120
" />
<path d="M58.7380 67.3500
L70.1620 67.3500
" />
<path d="M74.8422 20.7563
L74.8422 15.4778
" />
<path d="M74.8422 15.4778
L76.1100 14.2100
" />
<path d="M53.5000 56.0000
L57.3000 59.8000
" />
<path d="M71.8500 23.7485
L74.8422 20.7563
" />
<path d="M70.1620 67.3500
L71.8500 65.6620
" />
<path d="M57.3000 65.9120
L58.7380 67.3500
" />
<path d="M71.8500 65.6620
L71.8500 23.7485
" />
<path d="M70.4110 67.9500
L72.4500 65.9110
" />
<path d="M54.5000 65.5000
L56.9500 67.9500
" />
<path d="M77.3600 15.5000
L78.6500 14.2100
" />
<path d="M72.4500 24.0500
L77.3600 19.1400
" />
<path d="M56.9500 67.9500
L70.4110 67.9500
" />
<path d="M72.4500 65.9110
L72.4500 24.0500
" />
<path d="M77.3600 19.1400
L77.3600 15.5000
" />
<path style="fill:#4D7FC4; fill-opacity:1.0000; stroke:none;fill-rule:evenodd;"
d="M 80.2278,3.7722
80.2495,3.8245
80.2495,16.1782
80.2494,16.1804
80.2494,16.3159
80.2835,16.4432
80.2835,16.4432
80.2835,16.4432
80.3494,16.5573
80.4425,16.6505
80.5567,16.7164
80.6840,16.7505
80.6840,16.7505
80.6840,16.7505
80.6841,16.7505
80.8159,16.7505
124.9255,16.7505
124.9778,16.7722
124.9995,16.8245
124.9995,69.7886
124.9778,69.8409
124.9255,69.8626
10.0745,69.8626
10.0222,69.8409
10.0005,69.7886
10.0005,21.0000
10.5450,21.0000
10.5651,21.3589
10.5651,21.3589
10.6253,21.7132
10.7248,22.0586
10.8624,22.3906
10.8624,22.3906
11.0362,22.7052
11.0362,22.7052
11.2442,22.9983
11.3502,23.1169
12.4855,21.9817
12.5296,22.0423
12.7077,22.2204
12.7683,22.2645
11.6331,23.3998
11.7517,23.5058
12.0448,23.7138
12.0448,23.7138
12.3594,23.8876
12.3594,23.8876
12.6914,24.0252
13.0368,24.1247
13.0368,24.1247
13.3911,24.1849
13.3911,24.1849
13.7500,24.2050
14.1089,24.1849
14.1089,24.1849
14.4632,24.1247
14.8086,24.0252
15.1406,23.8876
15.1406,23.8876
15.4552,23.7138
15.4552,23.7138
15.7483,23.5058
15.8669,23.3998
15.8669,23.3998
14.7317,22.2645
14.7923,22.2204
14.9704,22.0423
15.0145,21.9817
16.1498,23.1169
16.1498,23.1169
16.2558,22.9983
16.4638,22.7052
16.4638,22.7052
16.6376,22.3906
16.6376,22.3906
16.7752,22.0586
16.8747,21.7132
16.9349,21.3589
16.9349,21.3589
16.9516,21.0610
16.9762,21.0100
17.0044,21.0001
16.9732,20.9872
16.9516,20.9390
16.9349,20.6411
16.9349,20.6411
16.8747,20.2868
16.7752,19.9414
16.6376,19.6094
16.6376,19.6094
16.4638,19.2948
16.4638,19.2948
16.2558,19.0017
16.1498,18.8831
16.1498,18.8831
15.0145,20.0183
14.9704,19.9577
14.7923,19.7796
14.7317,19.7355
15.8669,18.6002
15.7483,18.4942
15.4552,18.2862
15.4552,18.2862
15.1406,18.1124
15.1406,18.1124
14.8086,17.9748
14.4632,17.8753
14.4632,17.8753
14.1089,17.8151
14.1089,17.8151
13.7500,17.7950
13.3911,17.8151
13.3911,17.8151
13.0368,17.8753
12.6914,17.9748
12.3594,18.1124
12.3594,18.1124
12.0448,18.2862
12.0448,18.2862
11.7517,18.4942
11.6331,18.6002
12.7683,19.7355
12.7077,19.7796
12.5296,19.9577
12.4855,20.0183
11.3502,18.8831
11.2442,19.0017
11.0362,19.2948
11.0362,19.2948
10.8624,19.6094
10.8624,19.6094
10.7248,19.9414
10.6253,20.2868
10.5651,20.6411
10.5651,20.6411
10.5450,21.0000
10.0005,21.0000
10.0005,16.8245
10.0222,16.7722
10.0745,16.7505
48.5045,16.7505
48.5568,16.7722
48.5785,16.8245
48.5568,16.8768
47.6058,17.8278
47.5535,17.8495
19.8073,17.8495
19.8073,17.8495
19.8027,17.8495
19.6973,17.8495
19.6973,17.8495
19.5954,17.8768
19.5954,17.8768
19.5041,17.9295
19.4295,18.0041
17.1795,20.2541
17.1268,20.3454
17.1268,20.3454
17.1059,20.4232
17.1059,20.4232
17.0995,20.4473
17.0995,20.9349
17.0778,20.9872
17.0474,20.9998
17.0807,21.0158
17.0995,21.0651
17.0995,35.8035
17.0778,35.8558
16.5203,36.4133
16.4680,36.4350
16.4263,36.4221
16.4153,36.4146
16.2867,36.3527
16.1688,36.2959
16.1688,36.2959
16.1688,36.2959
16.1688,36.2959
16.1688,36.2959
15.9074,36.2153
15.8781,36.2109
15.6368,36.1745
15.3632,36.1745
15.1615,36.2049
15.0926,36.2153
14.8312,36.2959
14.8312,36.2959
14.5875,36.4133
14.5847,36.4146
14.5231,36.4567
14.3586,36.5688
14.1581,36.7549
13.9875,36.9688
13.8507,37.2057
13.7507,37.4604
13.6898,37.7272
13.6694,38.0000
13.6694,38.0000
13.6898,38.2728
13.7507,38.5396
13.7507,38.5396
13.8507,38.7943
13.9875,39.0312
14.1581,39.2451
14.3586,39.4312
14.5847,39.5854
14.8312,39.7041
14.9619,39.7444
15.0926,39.7847
15.0926,39.7847
15.0926,39.7847
15.3632,39.8255
15.3632,39.8255
15.6368,39.8255
15.6368,39.8255
15.9074,39.7847
15.9074,39.7847
15.9074,39.7847
15.9519,39.7710
16.1688,39.7041
16.4153,39.5854
16.6414,39.4312
16.8419,39.2451
17.0125,39.0312
17.1493,38.7943
17.2493,38.5396
17.3102,38.2728
17.3306,38.0000
17.3102,37.7272
17.2493,37.4604
17.1493,37.2057
17.0721,37.0719
17.0647,37.0157
17.0838,36.9826
17.5732,36.4932
17.6255,36.4715
17.6778,36.4932
17.6995,36.5455
17.6995,44.2035
17.6778,44.2558
16.5203,45.4133
16.4680,45.4350
16.4263,45.4221
16.4153,45.4146
16.2867,45.3527
16.1688,45.2959
16.1688,45.2959
16.1688,45.2959
16.1688,45.2959
16.1688,45.2959
15.9074,45.2153
15.8847,45.2119
15.6368,45.1745
15.3632,45.1745
15.1615,45.2049
15.0926,45.2153
14.8312,45.2959
14.8312,45.2959
14.5875,45.4133
14.5847,45.4146
14.5231,45.4567
14.3586,45.5688
14.1581,45.7549
13.9875,45.9688
13.8507,46.2057
13.7507,46.4604
13.6898,46.7272
13.6694,47.0000
13.6694,47.0000
13.6898,47.2728
13.7507,47.5396
13.7507,47.5396
13.8507,47.7943
13.9875,48.0312
14.1581,48.2451
14.3586,48.4312
14.5847,48.5854
14.8312,48.7041
14.9619,48.7444
15.0926,48.7847
15.0926,48.7847
15.0926,48.7847
15.3632,48.8255
15.3632,48.8255
15.6368,48.8255
15.6368,48.8255
15.9074,48.7847
15.9074,48.7847
15.9074,48.7847
15.9519,48.7710
16.1688,48.7041
16.4153,48.5854
16.6414,48.4312
16.8419,48.2451
17.0125,48.0312
17.1493,47.7943
17.2493,47.5396
17.3102,47.2728
17.3306,47.0000
17.3102,46.7272
17.2493,46.4604
17.1493,46.2057
17.0721,46.0719
17.0647,46.0157
17.0838,45.9826
18.1732,44.8932
18.2255,44.8715
18.2778,44.8932
18.2995,44.9455
18.2995,52.6035
18.2778,52.6558
16.5203,54.4133
16.4680,54.4350
16.4263,54.4221
16.4153,54.4146
16.2867,54.3527
16.1688,54.2959
16.1688,54.2959
16.1688,54.2959
16.1688,54.2959
16.1688,54.2959
15.9074,54.2153
15.8847,54.2119
15.6368,54.1745
15.3632,54.1745
15.1615,54.2049
15.0926,54.2153
14.8312,54.2959
14.8312,54.2959
14.5875,54.4133
14.5847,54.4146
14.5231,54.4567
14.3586,54.5688
14.1581,54.7549
13.9875,54.9688
13.8507,55.2057
13.7507,55.4604
13.6898,55.7272
13.6694,56.0000
13.6694,56.0000
13.6898,56.2728
13.7507,56.5396
13.8197,56.7153
13.8507,56.7943
13.9875,57.0312
14.1581,57.2451
14.3586,57.4312
14.5847,57.5854
14.8312,57.7041
14.9619,57.7444
15.0926,57.7847
15.0926,57.7847
15.0926,57.7847
15.3632,57.8255
15.3632,57.8255
15.6368,57.8255
15.6368,57.8255
15.9074,57.7847
15.9074,57.7847
15.9074,57.7847
15.9519,57.7710
16.1688,57.7041
16.4153,57.5854
16.6414,57.4312
16.8419,57.2451
17.0125,57.0312
17.1493,56.7943
17.2493,56.5396
17.3102,56.2728
17.3306,56.0000
17.3102,55.7272
17.2493,55.4604
17.1493,55.2057
17.0721,55.0719
17.0647,55.0157
17.0838,54.9826
18.7732,53.2932
18.8255,53.2715
18.8778,53.2932
18.8995,53.3455
18.8995,62.5035
18.8778,62.5558
17.5203,63.9133
17.4680,63.9350
17.4263,63.9221
17.4153,63.9146
17.2867,63.8527
17.1688,63.7959
17.1688,63.7959
17.1688,63.7959
17.1688,63.7959
17.1688,63.7959
16.9074,63.7153
16.8847,63.7119
16.6368,63.6745
16.3632,63.6745
16.1615,63.7049
16.0926,63.7153
15.8312,63.7959
15.8312,63.7959
15.5875,63.9133
15.5847,63.9146
15.3586,64.0688
15.3586,64.0688
15.1581,64.2549
14.9875,64.4688
14.8507,64.7057
14.7507,64.9604
14.6898,65.2272
14.6694,65.5000
14.6694,65.5000
14.6898,65.7728
14.7507,66.0396
14.8462,66.2828
14.8507,66.2943
14.9875,66.5312
15.1581,66.7451
15.3586,66.9312
15.5847,67.0854
15.8312,67.2041
15.9619,67.2444
16.0926,67.2847
16.0926,67.2847
16.0926,67.2847
16.3632,67.3255
16.3632,67.3255
16.6368,67.3255
16.6368,67.3255
16.9074,67.2847
16.9074,67.2847
16.9074,67.2847
16.9519,67.2710
17.1688,67.2041
17.4153,67.0854
17.6414,66.9312
17.8419,66.7451
18.0125,66.5312
18.1493,66.2943
18.2493,66.0396
18.2583,66.0000
40.7950,66.0000
40.8151,66.3589
40.8151,66.3589
40.8753,66.7132
40.9748,67.0586
41.1124,67.3906
41.1124,67.3906
41.2862,67.7052
41.2862,67.7052
41.4942,67.9983
41.6002,68.1169
42.7355,66.9817
42.7796,67.0423
42.9577,67.2204
43.0183,67.2645
41.8831,68.3998
42.0017,68.5058
42.2948,68.7138
42.2948,68.7138
42.6094,68.8876
42.6094,68.8876
42.9414,69.0252
43.2868,69.1247
43.2868,69.1247
43.6411,69.1849
43.6411,69.1849
44.0000,69.2050
44.3589,69.1849
44.3589,69.1849
44.7132,69.1247
45.0586,69.0252
45.3906,68.8876
45.3906,68.8876
45.7052,68.7138
45.7052,68.7138
45.9983,68.5058
46.1169,68.3998
46.1169,68.3998
44.9817,67.2645
45.0423,67.2204
45.2204,67.0423
45.2645,66.9817
46.3998,68.1169
46.3998,68.1169
46.5058,67.9983
46.7138,67.7052
46.7138,67.7052
46.8876,67.3906
46.8876,67.3906
47.0252,67.0586
47.1247,66.7132
47.1849,66.3589
47.1849,66.3589
47.2050,66.0000
47.1849,65.6411
47.1849,65.6411
47.1247,65.2868
47.0252,64.9414
46.8876,64.6094
46.8876,64.6094
46.7138,64.2948
46.7138,64.2948
46.5058,64.0017
46.3998,63.8831
46.3998,63.8831
45.2645,65.0183
45.2204,64.9577
45.0423,64.7796
44.9817,64.7355
46.1169,63.6002
45.9983,63.4942
45.7052,63.2862
45.7052,63.2862
45.3906,63.1124
45.3906,63.1124
45.0586,62.9748
44.7132,62.8753
44.7132,62.8753
44.3589,62.8151
44.3589,62.8151
44.0000,62.7950
43.6411,62.8151
43.6411,62.8151
43.2868,62.8753
42.9414,62.9748
42.6094,63.1124
42.6094,63.1124
42.2948,63.2862
42.2948,63.2862
42.0017,63.4942
41.8831,63.6002
43.0183,64.7355
42.9577,64.7796
42.7796,64.9577
42.7355,65.0183
41.6002,63.8831
41.4942,64.0017
41.2862,64.2948
41.2862,64.2948
41.1124,64.6094
41.1124,64.6094
40.9748,64.9414
40.8753,65.2868
40.8151,65.6411
40.8151,65.6411
40.7950,66.0000
18.2583,66.0000
18.3102,65.7728
18.3306,65.5000
18.3102,65.2272
18.2493,64.9604
18.1493,64.7057
18.0721,64.5719
18.0647,64.5157
18.0838,64.4826
19.6205,62.9459
19.6732,62.8546
19.7005,62.7527
19.7005,62.6473
19.7005,21.4421
19.7222,21.3898
20.0510,21.0610
20.4482,20.6638
20.5005,20.6421
20.5529,20.6638
20.5745,20.7161
20.5646,20.7531
20.5336,20.8068
20.5336,20.8068
20.4995,20.9341
20.4995,65.5409
20.5336,65.6682
20.5336,65.6682
20.5336,65.6682
20.5995,65.7823
20.6927,65.8755
20.8068,65.9414
20.9341,65.9755
20.9341,65.9755
20.9341,65.9755
34.5159,65.9755
34.5159,65.9755
34.6432,65.9414
34.7573,65.8755
34.8505,65.7823
34.9164,65.6682
34.9505,65.5409
34.9505,65.5409
34.9505,20.9341
34.9505,20.9341
34.9270,20.8465
34.9164,20.8068
34.8505,20.6927
34.7573,20.5995
34.7384,20.5886
34.7039,20.5437
34.7113,20.4875
34.7563,20.4530
34.7754,20.4505
53.9607,20.4505
54.0131,20.4722
54.0347,20.5245
54.0131,20.5768
47.5121,27.0778
47.4597,27.0995
43.9473,27.0995
43.8454,27.1268
43.8454,27.1268
43.7541,27.1795
41.5203,29.4133
41.4680,29.4350
41.4263,29.4221
41.4153,29.4146
41.2867,29.3527
41.1688,29.2959
41.1688,29.2959
41.1688,29.2959
41.1688,29.2959
41.1688,29.2959
40.9074,29.2153
40.8847,29.2119
40.6368,29.1745
40.3632,29.1745
40.1615,29.2049
40.0926,29.2153
39.8312,29.2959
39.8312,29.2959
39.5875,29.4133
39.5847,29.4146
39.5231,29.4567
39.3586,29.5688
39.1581,29.7549
38.9875,29.9688
38.8507,30.2057
38.7507,30.4604
38.6898,30.7272
38.6694,31.0000
38.6694,31.0000
38.6898,31.2728
38.7507,31.5396
38.7507,31.5396
38.8507,31.7943
38.9875,32.0312
39.1581,32.2451
39.3586,32.4312
39.5847,32.5854
39.8312,32.7041
39.9619,32.7444
40.0926,32.7847
40.0926,32.7847
40.0926,32.7847
40.3632,32.8255
40.3632,32.8255
40.6368,32.8255
40.6368,32.8255
40.9074,32.7847
40.9074,32.7847
40.9074,32.7847
40.9519,32.7710
41.1688,32.7041
41.4153,32.5854
41.6414,32.4312
41.8419,32.2451
42.0125,32.0312
42.1493,31.7943
42.2493,31.5396
42.3102,31.2728
42.3306,31.0000
42.3102,30.7272
42.2493,30.4604
42.1493,30.2057
42.0721,30.0719
42.0647,30.0157
42.0838,29.9826
44.1442,27.9222
44.1965,27.9005
47.3593,27.9005
47.4116,27.9222
47.4333,27.9745
47.4116,28.0268
40.6795,34.7589
40.6268,34.8502
40.6268,34.8502
40.5995,34.9521
40.5995,39.1585
40.5778,39.2109
40.5473,39.2293
40.3312,39.2959
40.3312,39.2959
40.0847,39.4146
40.0847,39.4146
39.8586,39.5688
39.8586,39.5688
39.6581,39.7549
39.4875,39.9688
39.3507,40.2057
39.2507,40.4604
39.1898,40.7272
39.1694,41.0000
39.1694,41.0000
39.1898,41.2728
39.2507,41.5396
39.2507,41.5396
39.3507,41.7943
39.4875,42.0312
39.6581,42.2451
39.8586,42.4312
40.0847,42.5854
40.3312,42.7041
40.4619,42.7444
40.5926,42.7847
40.5926,42.7847
40.5926,42.7847
40.8632,42.8255
40.8632,42.8255
41.1368,42.8255
41.1368,42.8255
41.4074,42.7847
41.4074,42.7847
41.4074,42.7847
41.4519,42.7710
41.6688,42.7041
41.9153,42.5854
42.1414,42.4312
42.3419,42.2451
42.5125,42.0312
42.6493,41.7943
42.7493,41.5396
42.8102,41.2728
42.8306,41.0000
42.8102,40.7272
42.7493,40.4604
42.6493,40.2057
42.5125,39.9688
42.3419,39.7549
42.1414,39.5688
41.9153,39.4146
41.7867,39.3527
41.6688,39.2959
41.6688,39.2959
41.6688,39.2959
41.6688,39.2959
41.6688,39.2959
41.4527,39.2293
41.4091,39.1931
41.4005,39.1585
41.4005,35.2014
41.4222,35.1490
52.9732,23.5980
53.0255,23.5764
53.0778,23.5980
53.0995,23.6504
53.0995,36.1585
53.0778,36.2109
53.0473,36.2293
52.8312,36.2959
52.8312,36.2959
52.5875,36.4133
52.5847,36.4146
52.5231,36.4567
52.3586,36.5688
52.1581,36.7549
51.9875,36.9688
51.8507,37.2057
51.7507,37.4604
51.6898,37.7272
51.6694,38.0000
51.6694,38.0000
51.6898,38.2728
51.7507,38.5396
51.7507,38.5396
51.8507,38.7943
51.9875,39.0312
52.1581,39.2451
52.3586,39.4312
52.5847,39.5854
52.8312,39.7041
52.9619,39.7444
53.0926,39.7847
53.0926,39.7847
53.0926,39.7847
53.3632,39.8255
53.3632,39.8255
53.6368,39.8255
53.6368,39.8255
53.9074,39.7847
53.9074,39.7847
53.9074,39.7847
53.9519,39.7710
54.1688,39.7041
54.4153,39.5854
54.6414,39.4312
54.8419,39.2451
55.0125,39.0312
55.1493,38.7943
55.2493,38.5396
55.3102,38.2728
55.3306,38.0000
55.3102,37.7272
55.2493,37.4604
55.1493,37.2057
55.0125,36.9688
54.8419,36.7549
54.6414,36.5688
54.4153,36.4146
54.2867,36.3527
54.1688,36.2959
54.1688,36.2959
54.1688,36.2959
54.1688,36.2959
54.1688,36.2959
53.9527,36.2293
53.9091,36.1931
53.9005,36.1585
53.9005,23.5499
53.9222,23.4976
55.9732,21.4466
56.0255,21.4249
56.0778,21.4466
56.0995,21.4989
56.0995,39.5535
56.0778,39.6058
46.1058,49.5778
46.0535,49.5995
42.8400,49.5995
42.7877,49.5778
42.7679,49.5420
42.7493,49.4604
42.6493,49.2057
42.6493,49.2057
42.5125,48.9688
42.3419,48.7549
42.1414,48.5688
41.9153,48.4146
41.7867,48.3527
41.6688,48.2959
41.6688,48.2959
41.6688,48.2959
41.6688,48.2959
41.6688,48.2959
41.4074,48.2153
41.3847,48.2119
41.1368,48.1745
40.8632,48.1745
40.6615,48.2049
40.5926,48.2153
40.3312,48.2959
40.3312,48.2959
40.0847,48.4146
40.0847,48.4146
39.8586,48.5688
39.8586,48.5688
39.6581,48.7549
39.4875,48.9688
39.3507,49.2057
39.2507,49.4604
39.1898,49.7272
39.1694,50.0000
39.1694,50.0000
39.1898,50.2728
39.2507,50.5396
39.3507,50.7943
39.3507,50.7943
39.4875,51.0312
39.6581,51.2451
39.8586,51.4312
40.0847,51.5854
40.3312,51.7041
40.4619,51.7444
40.5926,51.7847
40.5926,51.7847
40.5926,51.7847
40.8632,51.8255
40.8632,51.8255
41.1368,51.8255
41.1368,51.8255
41.4074,51.7847
41.4074,51.7847
41.4074,51.7847
41.4519,51.7710
41.6688,51.7041
41.9153,51.5854
42.1414,51.4312
42.3419,51.2451
42.5125,51.0312
42.6493,50.7943
42.7493,50.5396
42.7679,50.4580
42.8007,50.4118
42.8400,50.4005
46.3027,50.4005
46.3027,50.4005
46.4046,50.3732
46.4959,50.3205
56.8205,39.9959
56.8732,39.9046
56.9005,39.8027
56.9005,39.6973
56.9005,21.3984
56.9222,21.3461
58.0461,20.2222
58.0984,20.2005
64.7205,20.2005
64.7205,20.2005
64.8224,20.1732
64.9137,20.1205
67.5205,17.5137
67.5650,17.4365
67.6099,17.4021
67.6661,17.4095
67.6863,17.4266
67.7428,17.4954
67.7436,17.4964
67.9035,17.6277
68.0860,17.7252
68.2841,17.7853
68.4900,17.8056
68.6959,17.7853
68.8940,17.7252
69.0764,17.6277
69.2364,17.4964
69.2483,17.4819
69.2982,17.4552
69.3524,17.4717
69.3791,17.5216
69.3795,17.5289
69.3795,19.7273
69.3795,19.8327
69.4068,19.9346
69.4068,19.9346
69.4595,20.0259
69.4595,20.0259
69.4595,20.0259
70.2278,20.7942
70.2495,20.8465
70.2495,64.9685
70.2278,65.0208
70.0768,65.1718
70.0245,65.1935
69.9722,65.1718
69.9505,65.1195
69.9505,20.9341
69.9505,20.9341
69.9270,20.8465
69.9164,20.8068
69.8505,20.6927
69.7573,20.5995
69.7416,20.5904
69.6432,20.5336
69.6432,20.5336
69.5159,20.4995
69.5159,20.4995
59.5159,20.4995
59.3841,20.4995
59.3841,20.4995
59.2568,20.5336
59.2568,20.5336
59.1427,20.5995
59.0495,20.6927
58.9836,20.8068
58.9836,20.8068
58.9495,20.9341
58.9495,51.7045
58.9278,51.7568
58.8755,51.7785
58.8232,51.7568
55.0838,48.0174
55.0621,47.9651
55.0721,47.9281
55.1493,47.7943
55.1493,47.7943
55.1493,47.7943
55.2493,47.5396
55.3102,47.2728
55.3306,47.0000
55.3102,46.7272
55.2493,46.4604
55.1493,46.2057
55.0125,45.9688
54.8419,45.7549
54.6414,45.5688
54.4153,45.4146
54.2867,45.3527
54.1688,45.2959
54.1688,45.2959
54.1688,45.2959
54.1688,45.2959
54.1688,45.2959
53.9074,45.2153
53.8847,45.2119
53.6368,45.1745
53.3632,45.1745
53.1615,45.2049
53.0926,45.2153
52.8312,45.2959
52.8312,45.2959
52.5875,45.4133
52.5847,45.4146
52.5231,45.4567
52.3586,45.5688
52.1581,45.7549
51.9875,45.9688
51.8507,46.2057
51.7507,46.4604
51.6898,46.7272
51.6694,47.0000
51.6694,47.0000
51.6898,47.2728
51.7507,47.5396
51.7507,47.5396
51.8507,47.7943
51.9875,48.0312
52.1581,48.2451
52.3586,48.4312
52.5847,48.5854
52.8312,48.7041
52.9619,48.7444
53.0926,48.7847
53.0926,48.7847
53.0926,48.7847
53.3632,48.8255
53.3632,48.8255
53.6368,48.8255
53.6368,48.8255
53.9074,48.7847
53.9074,48.7847
53.9074,48.7847
53.9519,48.7710
54.1688,48.7041
54.4153,48.5854
54.4263,48.5779
54.4817,48.5663
54.5203,48.5867
56.4068,50.4732
56.4285,50.5255
56.4068,50.5778
56.3545,50.5995
51.6973,50.5995
51.5954,50.6268
51.5954,50.6268
51.5041,50.6795
43.6058,58.5778
43.5535,58.5995
42.8400,58.5995
42.7877,58.5778
42.7679,58.5420
42.7493,58.4604
42.6577,58.2272
42.6493,58.2057
42.5125,57.9688
42.3419,57.7549
42.1414,57.5688
41.9153,57.4146
41.7867,57.3527
41.6688,57.2959
41.6688,57.2959
41.6688,57.2959
41.6688,57.2959
41.6688,57.2959
41.4074,57.2153
41.3847,57.2119
41.1368,57.1745
40.8632,57.1745
40.6615,57.2049
40.5926,57.2153
40.3312,57.2959
40.3312,57.2959
40.0847,57.4146
40.0847,57.4146
39.8586,57.5688
39.8586,57.5688
39.6581,57.7549
39.4875,57.9688
39.3507,58.2057
39.2507,58.4604
39.1898,58.7272
39.1694,59.0000
39.1694,59.0000
39.1898,59.2728
39.2507,59.5396
39.2507,59.5396
39.3507,59.7943
39.4875,60.0312
39.6581,60.2451
39.8586,60.4312
40.0847,60.5854
40.3312,60.7041
40.4619,60.7444
40.5926,60.7847
40.5926,60.7847
40.5926,60.7847
40.8632,60.8255
40.8632,60.8255
41.1368,60.8255
41.1368,60.8255
41.4074,60.7847
41.4074,60.7847
41.4074,60.7847
41.4519,60.7710
41.6688,60.7041
41.9153,60.5854
42.1414,60.4312
42.3419,60.2451
42.5125,60.0312
42.6493,59.7943
42.7493,59.5396
42.7679,59.4580
42.8007,59.4118
42.8400,59.4005
43.8027,59.4005
43.8027,59.4005
43.9046,59.3732
43.9959,59.3205
51.8942,51.4222
51.9465,51.4005
56.4545,51.4005
56.5068,51.4222
57.4778,52.3932
57.4995,52.4455
57.4995,59.2545
57.4778,59.3068
57.4255,59.3285
57.3732,59.3068
55.0838,57.0174
55.0621,56.9651
55.0721,56.9281
55.1493,56.7943
55.2493,56.5396
55.3102,56.2728
55.3306,56.0000
55.3102,55.7272
55.2493,55.4604
55.1493,55.2057
55.0125,54.9688
54.8419,54.7549
54.6414,54.5688
54.4153,54.4146
54.2867,54.3527
54.1688,54.2959
54.1688,54.2959
54.1688,54.2959
54.1688,54.2959
54.1688,54.2959
53.9074,54.2153
53.8847,54.2119
53.6368,54.1745
53.3632,54.1745
53.1615,54.2049
53.0926,54.2153
52.8312,54.2959
52.8312,54.2959
52.5875,54.4133
52.5847,54.4146
52.5231,54.4567
52.3586,54.5688
52.1581,54.7549
51.9875,54.9688
51.8507,55.2057
51.7507,55.4604
51.6898,55.7272
51.6694,56.0000
51.6694,56.0000
51.6898,56.2728
51.7507,56.5396
51.8197,56.7153
51.8507,56.7943
51.9875,57.0312
52.1581,57.2451
52.3586,57.4312
52.5847,57.5854
52.8312,57.7041
52.9619,57.7444
53.0926,57.7847
53.0926,57.7847
53.0926,57.7847
53.3632,57.8255
53.3632,57.8255
53.6368,57.8255
53.6368,57.8255
53.9074,57.7847
53.9074,57.7847
53.9074,57.7847
53.9519,57.7710
54.1688,57.7041
54.4153,57.5854
54.4263,57.5779
54.4817,57.5663
54.5203,57.5867
56.8778,59.9442
56.8995,59.9965
56.8995,65.8593
56.8995,65.9647
56.9265,66.0656
56.9268,66.0666
56.9268,66.0666
56.9795,66.1579
56.9795,66.1579
56.9795,66.1579
57.6602,66.8386
58.2448,67.4232
58.2665,67.4755
58.2448,67.5278
58.1925,67.5495
57.1465,67.5495
57.0942,67.5278
56.0838,66.5174
56.0621,66.4651
56.0721,66.4281
56.1029,66.3747
56.1493,66.2943
56.2493,66.0396
56.3102,65.7728
56.3306,65.5000
56.3102,65.2272
56.2493,64.9604
56.1493,64.7057
56.0125,64.4688
55.8419,64.2549
55.6414,64.0688
55.4153,63.9146
55.2867,63.8527
55.1688,63.7959
55.1688,63.7959
55.1688,63.7959
55.1688,63.7959
55.1688,63.7959
54.9074,63.7153
54.8847,63.7119
54.6368,63.6745
54.3632,63.6745
54.1615,63.7049
54.0926,63.7153
53.8312,63.7959
53.8312,63.7959
53.5875,63.9133
53.5847,63.9146
53.3586,64.0688
53.3586,64.0688
53.1581,64.2549
52.9875,64.4688
52.8507,64.7057
52.7507,64.9604
52.6898,65.2272
52.6694,65.5000
52.6694,65.5000
52.6898,65.7728
52.7507,66.0396
52.8462,66.2828
52.8507,66.2943
52.9875,66.5312
53.1581,66.7451
53.3586,66.9312
53.5847,67.0854
53.8312,67.2041
53.9619,67.2444
54.0926,67.2847
54.0926,67.2847
54.0926,67.2847
54.3632,67.3255
54.3632,67.3255
54.6368,67.3255
54.6368,67.3255
54.9074,67.2847
54.9074,67.2847
54.9074,67.2847
54.9519,67.2710
55.1688,67.2041
55.4153,67.0854
55.4263,67.0779
55.4817,67.0663
55.5203,67.0867
56.7041,68.2705
56.7954,68.3232
56.8973,68.3505
56.8973,68.3505
70.4637,68.3505
70.4637,68.3505
70.5656,68.3232
70.6569,68.2705
72.7705,66.1569
72.8232,66.0656
72.8505,65.9637
72.8505,65.9637
72.8505,65.5000
90.6694,65.5000
90.6694,65.5000
90.6898,65.7728
90.7507,66.0396
90.8462,66.2828
90.8507,66.2943
90.9875,66.5312
91.1581,66.7451
91.3586,66.9312
91.5847,67.0854
91.8312,67.2041
91.9619,67.2444
92.0926,67.2847
92.0926,67.2847
92.0926,67.2847
92.3632,67.3255
92.3632,67.3255
92.6368,67.3255
92.6368,67.3255
92.9074,67.2847
92.9074,67.2847
92.9074,67.2847
92.9519,67.2710
93.1688,67.2041
93.4153,67.0854
93.6414,66.9312
93.8419,66.7451
94.0125,66.5312
94.1493,66.2943
94.2493,66.0396
94.2583,66.0000
118.0450,66.0000
118.0651,66.3589
118.0651,66.3589
118.1253,66.7132
118.2248,67.0586
118.3624,67.3906
118.3624,67.3906
118.5362,67.7052
118.5362,67.7052
118.7442,67.9983
118.8502,68.1169
119.9855,66.9817
120.0296,67.0423
120.2077,67.2204
120.2683,67.2645
119.1331,68.3998
119.2517,68.5058
119.5448,68.7138
119.5448,68.7138
119.8594,68.8876
119.8594,68.8876
120.1914,69.0252
120.5368,69.1247
120.5368,69.1247
120.8911,69.1849
120.8911,69.1849
121.2500,69.2050
121.6089,69.1849
121.6089,69.1849
121.9632,69.1247
122.3086,69.0252
122.6406,68.8876
122.6406,68.8876
122.9552,68.7138
122.9552,68.7138
123.2483,68.5058
123.3669,68.3998
123.3669,68.3998
122.2317,67.2645
122.2923,67.2204
122.4704,67.0423
122.5145,66.9817
123.6498,68.1169
123.6498,68.1169
123.7558,67.9983
123.9638,67.7052
123.9638,67.7052
124.1376,67.3906
124.1376,67.3906
124.2752,67.0586
124.3747,66.7132
124.4349,66.3589
124.4349,66.3589
124.4550,66.0000
124.4349,65.6411
124.4349,65.6411
124.3747,65.2868
124.2752,64.9414
124.1376,64.6094
124.1376,64.6094
123.9638,64.2948
123.9638,64.2948
123.7558,64.0017
123.6498,63.8831
123.6498,63.8831
122.5145,65.0183
122.4704,64.9577
122.2923,64.7796
122.2317,64.7355
123.3669,63.6002
123.2483,63.4942
122.9552,63.2862
122.9552,63.2862
122.6406,63.1124
122.6406,63.1124
122.3086,62.9748
121.9632,62.8753
121.9632,62.8753
121.6089,62.8151
121.6089,62.8151
121.2500,62.7950
120.8911,62.8151
120.8911,62.8151
120.5368,62.8753
120.1914,62.9748
119.8594,63.1124
119.8594,63.1124
119.5448,63.2862
119.5448,63.2862
119.2517,63.4942
119.1331,63.6002
120.2683,64.7355
120.2077,64.7796
120.0296,64.9577
119.9855,65.0183
118.8502,63.8831
118.7442,64.0017
118.5362,64.2948
118.5362,64.2948
118.3624,64.6094
118.3624,64.6094
118.2248,64.9414
118.1253,65.2868
118.0651,65.6411
118.0651,65.6411
118.0450,66.0000
94.2583,66.0000
94.3102,65.7728
94.3306,65.5000
94.3102,65.2272
94.2493,64.9604
94.1493,64.7057
94.0125,64.4688
93.8419,64.2549
93.6414,64.0688
93.4153,63.9146
93.2867,63.8527
93.1688,63.7959
93.1688,63.7959
93.1688,63.7959
93.1688,63.7959
93.1688,63.7959
92.9074,63.7153
92.8847,63.7119
92.6368,63.6745
92.3632,63.6745
92.1615,63.7049
92.0926,63.7153
91.8312,63.7959
91.8312,63.7959
91.5875,63.9133
91.5847,63.9146
91.3586,64.0688
91.3586,64.0688
91.1581,64.2549
90.9875,64.4688
90.8507,64.7057
90.7507,64.9604
90.6898,65.2272
90.6694,65.5000
72.8505,65.5000
72.8505,58.5000
77.1694,58.5000
77.1694,58.5000
77.1898,58.7728
77.2507,59.0396
77.2507,59.0396
77.3507,59.2943
77.4875,59.5312
77.6581,59.7451
77.8586,59.9312
78.0847,60.0854
78.3312,60.2041
78.4619,60.2444
78.5926,60.2847
78.5926,60.2847
78.5926,60.2847
78.8632,60.3255
78.8632,60.3255
79.1368,60.3255
79.1368,60.3255
79.4074,60.2847
79.4074,60.2847
79.4074,60.2847
79.4519,60.2710
79.6688,60.2041
79.9153,60.0854
80.1414,59.9312
80.3419,59.7451
80.5125,59.5312
80.6493,59.2943
80.7493,59.0396
80.8102,58.7728
80.8306,58.5000
80.8102,58.2272
80.7493,57.9604
80.6493,57.7057
80.5125,57.4688
80.3419,57.2549
80.1414,57.0688
79.9153,56.9146
79.7867,56.8527
79.6688,56.7959
79.6688,56.7959
79.6688,56.7959
79.6688,56.7959
79.6688,56.7959
79.4074,56.7153
79.3847,56.7119
79.1368,56.6745
78.8632,56.6745
78.6615,56.7049
78.5926,56.7153
78.3312,56.7959
78.3312,56.7959
78.0847,56.9146
78.0847,56.9146
77.8586,57.0688
77.8586,57.0688
77.6581,57.2549
77.4875,57.4688
77.3507,57.7057
77.2507,57.9604
77.1898,58.2272
77.1694,58.5000
72.8505,58.5000
72.8505,56.0000
89.6694,56.0000
89.6694,56.0000
89.6898,56.2728
89.7507,56.5396
89.8197,56.7153
89.8507,56.7943
89.9875,57.0312
90.1581,57.2451
90.3586,57.4312
90.5847,57.5854
90.8312,57.7041
90.9619,57.7444
91.0926,57.7847
91.0926,57.7847
91.0926,57.7847
91.3632,57.8255
91.3632,57.8255
91.6368,57.8255
91.6368,57.8255
91.9074,57.7847
91.9074,57.7847
91.9074,57.7847
91.9519,57.7710
92.1688,57.7041
92.4153,57.5854
92.6414,57.4312
92.8419,57.2451
93.0125,57.0312
93.1493,56.7943
93.2493,56.5396
93.3102,56.2728
93.3306,56.0000
93.3102,55.7272
93.2493,55.4604
93.1493,55.2057
93.0125,54.9688
92.8419,54.7549
92.6414,54.5688
92.4153,54.4146
92.2867,54.3527
92.1688,54.2959
92.1688,54.2959
92.1688,54.2959
92.1688,54.2959
92.1688,54.2959
91.9074,54.2153
91.8847,54.2119
91.6368,54.1745
91.3632,54.1745
91.1615,54.2049
91.0926,54.2153
90.8312,54.2959
90.8312,54.2959
90.5875,54.4133
90.5847,54.4146
90.5231,54.4567
90.3586,54.5688
90.1581,54.7549
89.9875,54.9688
89.8507,55.2057
89.7507,55.4604
89.6898,55.7272
89.6694,56.0000
72.8505,56.0000
72.8505,50.0000
77.1694,50.0000
77.1694,50.0000
77.1898,50.2728
77.2507,50.5396
77.3507,50.7943
77.3507,50.7943
77.4875,51.0312
77.6581,51.2451
77.8586,51.4312
78.0847,51.5854
78.3312,51.7041
78.4619,51.7444
78.5926,51.7847
78.5926,51.7847
78.5926,51.7847
78.8632,51.8255
78.8632,51.8255
79.1368,51.8255
79.1368,51.8255
79.4074,51.7847
79.4074,51.7847
79.4074,51.7847
79.4519,51.7710
79.6688,51.7041
79.9153,51.5854
80.1414,51.4312
80.3419,51.2451
80.5125,51.0312
80.6493,50.7943
80.7493,50.5396
80.8102,50.2728
80.8306,50.0000
80.8102,49.7272
80.7493,49.4604
80.6493,49.2057
80.5125,48.9688
80.3419,48.7549
80.1414,48.5688
79.9153,48.4146
79.7867,48.3527
79.6688,48.2959
79.6688,48.2959
79.6688,48.2959
79.6688,48.2959
79.6688,48.2959
79.4074,48.2153
79.3847,48.2119
79.1368,48.1745
78.8632,48.1745
78.6615,48.2049
78.5926,48.2153
78.3312,48.2959
78.3312,48.2959
78.0847,48.4146
78.0847,48.4146
77.8586,48.5688
77.8586,48.5688
77.6581,48.7549
77.4875,48.9688
77.3507,49.2057
77.2507,49.4604
77.1898,49.7272
77.1694,50.0000
72.8505,50.0000
72.8505,47.0000
89.6694,47.0000
89.6694,47.0000
89.6898,47.2728
89.7507,47.5396
89.7507,47.5396
89.8507,47.7943
89.9875,48.0312
90.1581,48.2451
90.3586,48.4312
90.5847,48.5854
90.8312,48.7041
90.9619,48.7444
91.0926,48.7847
91.0926,48.7847
91.0926,48.7847
91.3632,48.8255
91.3632,48.8255
91.6368,48.8255
91.6368,48.8255
91.9074,48.7847
91.9074,48.7847
91.9074,48.7847
91.9519,48.7710
92.1688,48.7041
92.4153,48.5854
92.6414,48.4312
92.8419,48.2451
93.0125,48.0312
93.1493,47.7943
93.2493,47.5396
93.3102,47.2728
93.3306,47.0000
93.3102,46.7272
93.2493,46.4604
93.1493,46.2057
93.0125,45.9688
92.8419,45.7549
92.6414,45.5688
92.4153,45.4146
92.2867,45.3527
92.1688,45.2959
92.1688,45.2959
92.1688,45.2959
92.1688,45.2959
92.1688,45.2959
91.9074,45.2153
91.8847,45.2119
91.6368,45.1745
91.3632,45.1745
91.1615,45.2049
91.0926,45.2153
90.8312,45.2959
90.8312,45.2959
90.5875,45.4133
90.5847,45.4146
90.5231,45.4567
90.3586,45.5688
90.1581,45.7549
89.9875,45.9688
89.8507,46.2057
89.7507,46.4604
89.6898,46.7272
89.6694,47.0000
72.8505,47.0000
72.8505,41.0000
77.1694,41.0000
77.1694,41.0000
77.1898,41.2728
77.2507,41.5396
77.2507,41.5396
77.3507,41.7943
77.4875,42.0312
77.6581,42.2451
77.8586,42.4312
78.0847,42.5854
78.3312,42.7041
78.4619,42.7444
78.5926,42.7847
78.5926,42.7847
78.5926,42.7847
78.8632,42.8255
78.8632,42.8255
79.1368,42.8255
79.1368,42.8255
79.4074,42.7847
79.4074,42.7847
79.4074,42.7847
79.4519,42.7710
79.6688,42.7041
79.9153,42.5854
80.1414,42.4312
80.3419,42.2451
80.5125,42.0312
80.6493,41.7943
80.7493,41.5396
80.8102,41.2728
80.8306,41.0000
80.8102,40.7272
80.7493,40.4604
80.6493,40.2057
80.5125,39.9688
80.3419,39.7549
80.1414,39.5688
79.9153,39.4146
79.7867,39.3527
79.6688,39.2959
79.6688,39.2959
79.6688,39.2959
79.6688,39.2959
79.6688,39.2959
79.4074,39.2153
79.3781,39.2109
79.1368,39.1745
78.8632,39.1745
78.6615,39.2049
78.5926,39.2153
78.3312,39.2959
78.3312,39.2959
78.0847,39.4146
78.0847,39.4146
77.8586,39.5688
77.8586,39.5688
77.6581,39.7549
77.4875,39.9688
77.3507,40.2057
77.2507,40.4604
77.1898,40.7272
77.1694,41.0000
72.8505,41.0000
72.8505,38.0000
89.6694,38.0000
89.6694,38.0000
89.6898,38.2728
89.7507,38.5396
89.7507,38.5396
89.8507,38.7943
89.9875,39.0312
90.1581,39.2451
90.3586,39.4312
90.5847,39.5854
90.8312,39.7041
90.9619,39.7444
91.0926,39.7847
91.0926,39.7847
91.0926,39.7847
91.3632,39.8255
91.3632,39.8255
91.6368,39.8255
91.6368,39.8255
91.9074,39.7847
91.9074,39.7847
91.9074,39.7847
91.9519,39.7710
92.1688,39.7041
92.4153,39.5854
92.6414,39.4312
92.8419,39.2451
93.0125,39.0312
93.1493,38.7943
93.2493,38.5396
93.3102,38.2728
93.3306,38.0000
93.3102,37.7272
93.2493,37.4604
93.1493,37.2057
93.0125,36.9688
92.8419,36.7549
92.6414,36.5688
92.4153,36.4146
92.2867,36.3527
92.1688,36.2959
92.1688,36.2959
92.1688,36.2959
92.1688,36.2959
92.1688,36.2959
91.9074,36.2153
91.8781,36.2109
91.6368,36.1745
91.3632,36.1745
91.1615,36.2049
91.0926,36.2153
90.8312,36.2959
90.8312,36.2959
90.5875,36.4133
90.5847,36.4146
90.5231,36.4567
90.3586,36.5688
90.1581,36.7549
89.9875,36.9688
89.8507,37.2057
89.7507,37.4604
89.6898,37.7272
89.6694,38.0000
72.8505,38.0000
72.8505,31.0000
76.6694,31.0000
76.6694,31.0000
76.6898,31.2728
76.7507,31.5396
76.7507,31.5396
76.8507,31.7943
76.9875,32.0312
77.1581,32.2451
77.3586,32.4312
77.5847,32.5854
77.8312,32.7041
77.9619,32.7444
78.0926,32.7847
78.0926,32.7847
78.0926,32.7847
78.3632,32.8255
78.3632,32.8255
78.6368,32.8255
78.6368,32.8255
78.9074,32.7847
78.9074,32.7847
78.9074,32.7847
78.9519,32.7710
79.1688,32.7041
79.4153,32.5854
79.6414,32.4312
79.8419,32.2451
80.0125,32.0312
80.1493,31.7943
80.2493,31.5396
80.3102,31.2728
80.3306,31.0000
80.3102,30.7272
80.2493,30.4604
80.1493,30.2057
80.0125,29.9688
79.8419,29.7549
79.6414,29.5688
79.4153,29.4146
79.2867,29.3527
79.1688,29.2959
79.1688,29.2959
79.1688,29.2959
79.1688,29.2959
79.1688,29.2959
78.9074,29.2153
78.8847,29.2119
78.6368,29.1745
78.3632,29.1745
78.1615,29.2049
78.0926,29.2153
77.8312,29.2959
77.8312,29.2959
77.5875,29.4133
77.5847,29.4146
77.5231,29.4567
77.3586,29.5688
77.1581,29.7549
76.9875,29.9688
76.8507,30.2057
76.7507,30.4604
76.6898,30.7272
76.6694,31.0000
72.8505,31.0000
72.8505,24.2465
72.8722,24.1942
76.1323,20.9341
96.4995,20.9341
96.4995,65.4409
96.5336,65.5682
96.5336,65.5682
96.5913,65.6682
96.5995,65.6823
96.6927,65.7755
96.8068,65.8414
96.9341,65.8755
96.9341,65.8755
96.9341,65.8755
107.0659,65.8755
107.0659,65.8755
107.1932,65.8414
107.3073,65.7755
107.4005,65.6823
107.4664,65.5682
107.5005,65.4409
107.5005,65.4409
107.5005,59.0000
115.1694,59.0000
115.1694,59.0000
115.1898,59.2728
115.2507,59.5396
115.2507,59.5396
115.3507,59.7943
115.4875,60.0312
115.6581,60.2451
115.8586,60.4312
116.0847,60.5854
116.3312,60.7041
116.4619,60.7444
116.5926,60.7847
116.5926,60.7847
116.5926,60.7847
116.8632,60.8255
116.8632,60.8255
117.1368,60.8255
117.1368,60.8255
117.4074,60.7847
117.4074,60.7847
117.4074,60.7847
117.4519,60.7710
117.6688,60.7041
117.9153,60.5854
118.1414,60.4312
118.3419,60.2451
118.5125,60.0312
118.6493,59.7943
118.7493,59.5396
118.8102,59.2728
118.8306,59.0000
118.8102,58.7272
118.7493,58.4604
118.6493,58.2057
118.5125,57.9688
118.3419,57.7549
118.1414,57.5688
117.9153,57.4146
117.7867,57.3527
117.6688,57.2959
117.6688,57.2959
117.6688,57.2959
117.6688,57.2959
117.6688,57.2959
117.4074,57.2153
117.3847,57.2119
117.1368,57.1745
116.8632,57.1745
116.6615,57.2049
116.5926,57.2153
116.3312,57.2959
116.3312,57.2959
116.0847,57.4146
116.0847,57.4146
115.8586,57.5688
115.8586,57.5688
115.6581,57.7549
115.4875,57.9688
115.3507,58.2057
115.2507,58.4604
115.1898,58.7272
115.1694,59.0000
107.5005,59.0000
107.5005,50.0000
115.1694,50.0000
115.1694,50.0000
115.1898,50.2728
115.2507,50.5396
115.3507,50.7943
115.3507,50.7943
115.4875,51.0312
115.6581,51.2451
115.8586,51.4312
116.0847,51.5854
116.3312,51.7041
116.4619,51.7444
116.5926,51.7847
116.5926,51.7847
116.5926,51.7847
116.8632,51.8255
116.8632,51.8255
117.1368,51.8255
117.1368,51.8255
117.4074,51.7847
117.4074,51.7847
117.4074,51.7847
117.4519,51.7710
117.6688,51.7041
117.9153,51.5854
118.1414,51.4312
118.3419,51.2451
118.5125,51.0312
118.6493,50.7943
118.7493,50.5396
118.8102,50.2728
118.8306,50.0000
118.8102,49.7272
118.7493,49.4604
118.6493,49.2057
118.5125,48.9688
118.3419,48.7549
118.1414,48.5688
117.9153,48.4146
117.7867,48.3527
117.6688,48.2959
117.6688,48.2959
117.6688,48.2959
117.6688,48.2959
117.6688,48.2959
117.4074,48.2153
117.3847,48.2119
117.1368,48.1745
116.8632,48.1745
116.6615,48.2049
116.5926,48.2153
116.3312,48.2959
116.3312,48.2959
116.0847,48.4146
116.0847,48.4146
115.8586,48.5688
115.8586,48.5688
115.6581,48.7549
115.4875,48.9688
115.3507,49.2057
115.2507,49.4604
115.1898,49.7272
115.1694,50.0000
107.5005,50.0000
107.5005,41.0000
115.1694,41.0000
115.1694,41.0000
115.1898,41.2728
115.2507,41.5396
115.2507,41.5396
115.3507,41.7943
115.4875,42.0312
115.6581,42.2451
115.8586,42.4312
116.0847,42.5854
116.3312,42.7041
116.4619,42.7444
116.5926,42.7847
116.5926,42.7847
116.5926,42.7847
116.8632,42.8255
116.8632,42.8255
117.1368,42.8255
117.1368,42.8255
117.4074,42.7847
117.4074,42.7847
117.4074,42.7847
117.4519,42.7710
117.6688,42.7041
117.9153,42.5854
118.1414,42.4312
118.3419,42.2451
118.5125,42.0312
118.6493,41.7943
118.7493,41.5396
118.8102,41.2728
118.8306,41.0000
118.8102,40.7272
118.7493,40.4604
118.6493,40.2057
118.5125,39.9688
118.3419,39.7549
118.1414,39.5688
117.9153,39.4146
117.7867,39.3527
117.6688,39.2959
117.6688,39.2959
117.6688,39.2959
117.6688,39.2959
117.6688,39.2959
117.4074,39.2153
117.3781,39.2109
117.1368,39.1745
116.8632,39.1745
116.6615,39.2049
116.5926,39.2153
116.3312,39.2959
116.3312,39.2959
116.0847,39.4146
116.0847,39.4146
115.8586,39.5688
115.8586,39.5688
115.6581,39.7549
115.4875,39.9688
115.3507,40.2057
115.2507,40.4604
115.1898,40.7272
115.1694,41.0000
107.5005,41.0000
107.5005,31.0000
114.1694,31.0000
114.1694,31.0000
114.1898,31.2728
114.2507,31.5396
114.2507,31.5396
114.3507,31.7943
114.4875,32.0312
114.6581,32.2451
114.8586,32.4312
115.0847,32.5854
115.3312,32.7041
115.4619,32.7444
115.5926,32.7847
115.5926,32.7847
115.5926,32.7847
115.8632,32.8255
115.8632,32.8255
116.1368,32.8255
116.1368,32.8255
116.4074,32.7847
116.4074,32.7847
116.4074,32.7847
116.4519,32.7710
116.6688,32.7041
116.9153,32.5854
117.1414,32.4312
117.3419,32.2451
117.5125,32.0312
117.6493,31.7943
117.7493,31.5396
117.8102,31.2728
117.8306,31.0000
117.8102,30.7272
117.7493,30.4604
117.6493,30.2057
117.5125,29.9688
117.3419,29.7549
117.1414,29.5688
116.9153,29.4146
116.7867,29.3527
116.6688,29.2959
116.6688,29.2959
116.6688,29.2959
116.6688,29.2959
116.6688,29.2959
116.4074,29.2153
116.3847,29.2119
116.1368,29.1745
115.8632,29.1745
115.6615,29.2049
115.5926,29.2153
115.3312,29.2959
115.3312,29.2959
115.0875,29.4133
115.0847,29.4146
115.0231,29.4567
114.8586,29.5688
114.6581,29.7549
114.4875,29.9688
114.3507,30.2057
114.2507,30.4604
114.1898,30.7272
114.1694,31.0000
107.5005,31.0000
107.5005,21.0000
118.0450,21.0000
118.0651,21.3589
118.0651,21.3589
118.1253,21.7132
118.2248,22.0586
118.3624,22.3906
118.3624,22.3906
118.5362,22.7052
118.5362,22.7052
118.7442,22.9983
118.8502,23.1169
119.9855,21.9817
120.0296,22.0423
120.2077,22.2204
120.2683,22.2645
119.1331,23.3998
119.2517,23.5058
119.5448,23.7138
119.5448,23.7138
119.8594,23.8876
119.8594,23.8876
120.1914,24.0252
120.5368,24.1247
120.5368,24.1247
120.8911,24.1849
120.8911,24.1849
121.2500,24.2050
121.6089,24.1849
121.6089,24.1849
121.9632,24.1247
122.3086,24.0252
122.6406,23.8876
122.6406,23.8876
122.9552,23.7138
122.9552,23.7138
123.2483,23.5058
123.3669,23.3998
123.3669,23.3998
122.2317,22.2645
122.2923,22.2204
122.4704,22.0423
122.5145,21.9817
123.6498,23.1169
123.6498,23.1169
123.7558,22.9983
123.9638,22.7052
123.9638,22.7052
124.1376,22.3906
124.1376,22.3906
124.2752,22.0586
124.3747,21.7132
124.4349,21.3589
124.4349,21.3589
124.4550,21.0000
124.4349,20.6411
124.4349,20.6411
124.3747,20.2868
124.2752,19.9414
124.1376,19.6094
124.1376,19.6094
123.9638,19.2948
123.9638,19.2948
123.7558,19.0017
123.6498,18.8831
123.6498,18.8831
122.5145,20.0183
122.4704,19.9577
122.2923,19.7796
122.2317,19.7355
123.3669,18.6002
123.2483,18.4942
122.9552,18.2862
122.9552,18.2862
122.6406,18.1124
122.6406,18.1124
122.3086,17.9748
121.9632,17.8753
121.9632,17.8753
121.6089,17.8151
121.6089,17.8151
121.2500,17.7950
120.8911,17.8151
120.8911,17.8151
120.5368,17.8753
120.1914,17.9748
119.8594,18.1124
119.8594,18.1124
119.5448,18.2862
119.5448,18.2862
119.2517,18.4942
119.1331,18.6002
120.2683,19.7355
120.2077,19.7796
120.0296,19.9577
119.9855,20.0183
118.8502,18.8831
118.7442,19.0017
118.5362,19.2948
118.5362,19.2948
118.3624,19.6094
118.3624,19.6094
118.2248,19.9414
118.1253,20.2868
118.0651,20.6411
118.0651,20.6411
118.0450,21.0000
107.5005,21.0000
107.5005,20.9341
107.5005,20.9341
107.4770,20.8465
107.4664,20.8068
107.4005,20.6927
107.3073,20.5995
107.2916,20.5904
107.1932,20.5336
107.1932,20.5336
107.0659,20.4995
107.0659,20.4995
97.0659,20.4995
96.9341,20.4995
96.9341,20.4995
96.8068,20.5336
96.8068,20.5336
96.6927,20.5995
96.5995,20.6927
96.5336,20.8068
96.5336,20.8068
96.4995,20.9341
76.1323,20.9341
77.6059,19.4605
77.6059,19.4605
77.6805,19.3859
77.7332,19.2946
77.7605,19.1927
77.7605,19.1927
77.7605,19.0827
77.7605,19.0827
77.7605,17.5289
77.7822,17.4765
77.8345,17.4549
77.8868,17.4765
77.8917,17.4819
77.9036,17.4964
78.0635,17.6277
78.2460,17.7252
78.4441,17.7853
78.6500,17.8056
78.8559,17.7853
79.0540,17.7252
79.2364,17.6277
79.3964,17.4964
79.5277,17.3364
79.6252,17.1540
79.6853,16.9559
79.7056,16.7500
79.6853,16.5441
79.6252,16.3460
79.5277,16.1636
79.3964,16.0036
79.3661,15.9787
79.2364,15.8723
79.0540,15.7748
79.0540,15.7748
79.0540,15.7748
78.8874,15.7242
78.8559,15.7147
78.6500,15.6944
78.4441,15.7147
78.2460,15.7748
78.0635,15.8723
77.9036,16.0036
77.9036,16.0036
77.8917,16.0181
77.8418,16.0448
77.7876,16.0283
77.7609,15.9784
77.7605,15.9711
77.7605,15.6965
77.7822,15.6442
78.2109,15.2155
78.2633,15.1938
78.2847,15.1970
78.4441,15.2453
78.6500,15.2656
78.8559,15.2453
79.0540,15.1852
79.2364,15.0877
79.3964,14.9564
79.5277,14.7965
79.6252,14.6140
79.6853,14.4159
79.7056,14.2100
79.6853,14.0041
79.6252,13.8060
79.5277,13.6235
79.3964,13.4636
79.2364,13.3323
79.0540,13.2348
78.9422,13.2009
78.8559,13.1747
78.6500,13.1544
78.4441,13.1747
78.2460,13.2348
78.0635,13.3323
77.9036,13.4636
77.9036,13.4636
77.7723,13.6235
77.6748,13.8060
77.6147,14.0041
77.5944,14.2100
77.6147,14.4159
77.6630,14.5753
77.6575,14.6316
77.6445,14.6491
77.0395,15.2541
76.9868,15.3454
76.9868,15.3454
76.9702,15.4073
76.9655,15.4250
76.9595,15.4473
76.9595,15.9317
76.9378,15.9841
76.8855,16.0057
76.8386,15.9889
76.6964,15.8723
76.5140,15.7748
76.5140,15.7748
76.5140,15.7748
76.3474,15.7242
76.3159,15.7147
76.1100,15.6944
75.9041,15.7147
75.7060,15.7748
75.5235,15.8723
75.3637,16.0035
75.3095,16.0200
75.2595,15.9933
75.2427,15.9463
75.2427,15.6743
75.2644,15.6220
75.6709,15.2155
75.7233,15.1938
75.7447,15.1970
75.9041,15.2453
76.1100,15.2656
76.3159,15.2453
76.5140,15.1852
76.6964,15.0877
76.8564,14.9564
76.9877,14.7965
77.0852,14.6140
77.1453,14.4159
77.1656,14.2100
77.1453,14.0041
77.0852,13.8060
76.9877,13.6235
76.8564,13.4636
76.6964,13.3323
76.5140,13.2348
76.4022,13.2009
76.3159,13.1747
76.1100,13.1544
75.9041,13.1747
75.7060,13.2348
75.5235,13.3323
75.3636,13.4636
75.3636,13.4636
75.2323,13.6235
75.1348,13.8060
75.0747,14.0041
75.0544,14.2100
75.0747,14.4159
75.1230,14.5753
75.1175,14.6316
75.1045,14.6491
74.5217,15.2319
74.4690,15.3232
74.4690,15.3232
74.4417,15.4250
74.4417,15.9503
74.4201,16.0026
74.3677,16.0243
74.3203,16.0046
74.3192,16.0059
74.1564,15.8723
73.9740,15.7748
73.9740,15.7748
73.9740,15.7748
73.8074,15.7242
73.7759,15.7147
73.5700,15.6944
73.3641,15.7147
73.1660,15.7748
72.9835,15.8723
72.8414,15.9889
72.7872,16.0054
72.7373,15.9787
72.7205,15.9317
72.7205,15.6565
72.7422,15.6042
73.1309,15.2155
73.1833,15.1938
73.2047,15.1970
73.3641,15.2453
73.5700,15.2656
73.7759,15.2453
73.9740,15.1852
74.1564,15.0877
74.3164,14.9564
74.4477,14.7965
74.5452,14.6140
74.6053,14.4159
74.6256,14.2100
74.6053,14.0041
74.5452,13.8060
74.4477,13.6235
74.3164,13.4636
74.1564,13.3323
73.9740,13.2348
73.8622,13.2009
73.7759,13.1747
73.5700,13.1544
73.3641,13.1747
73.1660,13.2348
72.9835,13.3323
72.8236,13.4636
72.8236,13.4636
72.6923,13.6235
72.5948,13.8060
72.5347,14.0041
72.5144,14.2100
72.5347,14.4159
72.5830,14.5753
72.5775,14.6316
72.5645,14.6491
71.9995,15.2141
71.9468,15.3054
71.9468,15.3054
71.9420,15.3232
71.9420,15.3232
71.9361,15.3454
71.9195,15.4073
71.9195,15.9711
71.8978,16.0235
71.8455,16.0451
71.7932,16.0235
71.7883,16.0181
71.7764,16.0036
71.7764,16.0036
71.6165,15.8723
71.4340,15.7748
71.4340,15.7748
71.4340,15.7748
71.2674,15.7242
71.2359,15.7147
71.0300,15.6944
70.8241,15.7147
70.6260,15.7748
70.4435,15.8723
70.3014,15.9889
70.2472,16.0054
70.1973,15.9787
70.1805,15.9317
70.1805,15.6565
70.2022,15.6042
70.5909,15.2155
70.6433,15.1938
70.6647,15.1970
70.8241,15.2453
71.0300,15.2656
71.2359,15.2453
71.4340,15.1852
71.6165,15.0877
71.7764,14.9564
71.9077,14.7965
72.0052,14.6140
72.0653,14.4159
72.0856,14.2100
72.0653,14.0041
72.0052,13.8060
71.9077,13.6235
71.7764,13.4636
71.6165,13.3323
71.4340,13.2348
71.3222,13.2009
71.2359,13.1747
71.0300,13.1544
70.8241,13.1747
70.6260,13.2348
70.4435,13.3323
70.2836,13.4636
70.2836,13.4636
70.1523,13.6235
70.0548,13.8060
69.9947,14.0041
69.9744,14.2100
69.9947,14.4159
70.0430,14.5753
70.0375,14.6316
70.0245,14.6491
69.4595,15.2141
69.4068,15.3054
69.4068,15.3054
69.4020,15.3232
69.4020,15.3232
69.3961,15.3454
69.3795,15.4073
69.3795,15.9711
69.3578,16.0235
69.3055,16.0451
69.2532,16.0235
69.2483,16.0181
69.2364,16.0036
69.2364,16.0036
69.0764,15.8723
68.8940,15.7748
68.8940,15.7748
68.8940,15.7748
68.7274,15.7242
68.6959,15.7147
68.4900,15.6944
68.2841,15.7147
68.0860,15.7748
67.9035,15.8723
67.7436,16.0036
67.7436,16.0036
67.7317,16.0181
67.6818,16.0448
67.6276,16.0283
67.6009,15.9784
67.6005,15.9711
67.6005,15.6965
67.6222,15.6442
68.0509,15.2155
68.1033,15.1938
68.1247,15.1970
68.2841,15.2453
68.4900,15.2656
68.6959,15.2453
68.8940,15.1852
69.0764,15.0877
69.2364,14.9564
69.3677,14.7965
69.4652,14.6140
69.5253,14.4159
69.5456,14.2100
69.5253,14.0041
69.4652,13.8060
69.3677,13.6235
69.2364,13.4636
69.0764,13.3323
68.8940,13.2348
68.7822,13.2009
68.6959,13.1747
68.4900,13.1544
68.2841,13.1747
68.0860,13.2348
67.9035,13.3323
67.7436,13.4636
67.7436,13.4636
67.6123,13.6235
67.5148,13.8060
67.4547,14.0041
67.4344,14.2100
67.4547,14.4159
67.5030,14.5753
67.4975,14.6316
67.4845,14.6491
66.8795,15.2541
66.8268,15.3454
66.8268,15.3454
66.8102,15.4073
66.8055,15.4250
66.7995,15.4473
66.7995,15.9317
66.7778,15.9841
66.7255,16.0057
66.6786,15.9889
66.5365,15.8723
66.3540,15.7748
66.3540,15.7748
66.3540,15.7748
66.1874,15.7242
66.1559,15.7147
65.9500,15.6944
65.7441,15.7147
65.5460,15.7748
65.3635,15.8723
65.2036,16.0036
65.2036,16.0036
65.1917,16.0181
65.1418,16.0448
65.0876,16.0283
65.0609,15.9784
65.0605,15.9711
65.0605,15.6965
65.0822,15.6442
65.5109,15.2155
65.5633,15.1938
65.5847,15.1970
65.7441,15.2453
65.9500,15.2656
66.1559,15.2453
66.3540,15.1852
66.5365,15.0877
66.6964,14.9564
66.8277,14.7965
66.9252,14.6140
66.9853,14.4159
67.0056,14.2100
66.9853,14.0041
66.9252,13.8060
66.8277,13.6235
66.6964,13.4636
66.5365,13.3323
66.3540,13.2348
66.2422,13.2009
66.1559,13.1747
65.9500,13.1544
65.7441,13.1747
65.5460,13.2348
65.3635,13.3323
65.2036,13.4636
65.2036,13.4636
65.0723,13.6235
64.9748,13.8060
64.9147,14.0041
64.8944,14.2100
64.9147,14.4159
64.9630,14.5753
64.9575,14.6316
64.9445,14.6491
64.3395,15.2541
64.2868,15.3454
64.2868,15.3454
64.2702,15.4073
64.2655,15.4250
64.2595,15.4473
64.2595,15.9317
64.2378,15.9841
64.1855,16.0057
64.1386,15.9889
63.9964,15.8723
63.8140,15.7748
63.8140,15.7748
63.8140,15.7748
63.6474,15.7242
63.6159,15.7147
63.4100,15.6944
63.2041,15.7147
63.0060,15.7748
62.8235,15.8723
62.6636,16.0036
62.6636,16.0036
62.6517,16.0181
62.6018,16.0448
62.5476,16.0283
62.5209,15.9784
62.5205,15.9711
62.5205,15.6965
62.5422,15.6442
62.9709,15.2155
63.0233,15.1938
63.0447,15.1970
63.2041,15.2453
63.4100,15.2656
63.6159,15.2453
63.8140,15.1852
63.9964,15.0877
64.1564,14.9564
64.2877,14.7965
64.3852,14.6140
64.4453,14.4159
64.4656,14.2100
64.4453,14.0041
64.3852,13.8060
64.2877,13.6235
64.1564,13.4636
63.9964,13.3323
63.8140,13.2348
63.7022,13.2009
63.6159,13.1747
63.4100,13.1544
63.2041,13.1747
63.0060,13.2348
62.8235,13.3323
62.6636,13.4636
62.6636,13.4636
62.5323,13.6235
62.4348,13.8060
62.3747,14.0041
62.3544,14.2100
62.3747,14.4159
62.4230,14.5753
62.4175,14.6316
62.4045,14.6491
61.7995,15.2541
61.7468,15.3454
61.7468,15.3454
61.7302,15.4073
61.7255,15.4250
61.7195,15.4473
61.7195,15.9317
61.6978,15.9841
61.6455,16.0057
61.5986,15.9889
61.4564,15.8723
61.2740,15.7748
61.2740,15.7748
61.2740,15.7748
61.1074,15.7242
61.0759,15.7147
60.8700,15.6944
60.6641,15.7147
60.4660,15.7748
60.2835,15.8723
60.1414,15.9889
60.0872,16.0054
60.0373,15.9787
60.0205,15.9317
60.0205,15.6565
60.0422,15.6042
60.4309,15.2155
60.4833,15.1938
60.5047,15.1970
60.6641,15.2453
60.8700,15.2656
61.0759,15.2453
61.2740,15.1852
61.4564,15.0877
61.6164,14.9564
61.7477,14.7965
61.8452,14.6140
61.9053,14.4159
61.9256,14.2100
61.9053,14.0041
61.8452,13.8060
61.7477,13.6235
61.6164,13.4636
61.4564,13.3323
61.2740,13.2348
61.1622,13.2009
61.0759,13.1747
60.8700,13.1544
60.6641,13.1747
60.4660,13.2348
60.2835,13.3323
60.1236,13.4636
60.1236,13.4636
59.9923,13.6235
59.8948,13.8060
59.8347,14.0041
59.8144,14.2100
59.8347,14.4159
59.8830,14.5753
59.8775,14.6316
59.8645,14.6491
59.2995,15.2141
59.2468,15.3054
59.2468,15.3054
59.2420,15.3232
59.2420,15.3232
59.2361,15.3454
59.2195,15.4073
59.2195,15.9711
59.1978,16.0235
59.1455,16.0451
59.0932,16.0235
59.0883,16.0181
59.0764,16.0036
59.0764,16.0036
58.9164,15.8723
58.7340,15.7748
58.7340,15.7748
58.7340,15.7748
58.5674,15.7242
58.5359,15.7147
58.3300,15.6944
58.1241,15.7147
57.9260,15.7748
57.7435,15.8723
57.5836,16.0036
57.5836,16.0036
57.5717,16.0181
57.5218,16.0448
57.4676,16.0283
57.4409,15.9784
57.4405,15.9711
57.4405,15.6965
57.4622,15.6442
57.8909,15.2155
57.9433,15.1938
57.9647,15.1970
58.1241,15.2453
58.3300,15.2656
58.5359,15.2453
58.7340,15.1852
58.9164,15.0877
59.0764,14.9564
59.2077,14.7965
59.3052,14.6140
59.3653,14.4159
59.3856,14.2100
59.3653,14.0041
59.3052,13.8060
59.2077,13.6235
59.0764,13.4636
58.9164,13.3323
58.7340,13.2348
58.6222,13.2009
58.5359,13.1747
58.3300,13.1544
58.1241,13.1747
57.9260,13.2348
57.7435,13.3323
57.5836,13.4636
57.5836,13.4636
57.4523,13.6235
57.3548,13.8060
57.2947,14.0041
57.2744,14.2100
57.2947,14.4159
57.3430,14.5753
57.3375,14.6316
57.3245,14.6491
56.7195,15.2541
56.6668,15.3454
56.6668,15.3454
56.6502,15.4073
56.6455,15.4250
56.6395,15.4473
56.6395,15.9317
56.6178,15.9841
56.5655,16.0057
56.5186,15.9889
56.3764,15.8723
56.1940,15.7748
56.1940,15.7748
56.1940,15.7748
56.0274,15.7242
55.9959,15.7147
55.7900,15.6944
55.5841,15.7147
55.3860,15.7748
55.2035,15.8723
55.0436,16.0036
55.0436,16.0036
55.0317,16.0181
54.9818,16.0448
54.9276,16.0283
54.9009,15.9784
54.9005,15.9711
54.9005,15.6965
54.9222,15.6442
55.3509,15.2155
55.4033,15.1938
55.4247,15.1970
55.5841,15.2453
55.7900,15.2656
55.9959,15.2453
56.1940,15.1852
56.3764,15.0877
56.5364,14.9564
56.6677,14.7965
56.7652,14.6140
56.8253,14.4159
56.8456,14.2100
56.8253,14.0041
56.7652,13.8060
56.6677,13.6235
56.5364,13.4636
56.3764,13.3323
56.1940,13.2348
56.0822,13.2009
55.9959,13.1747
55.7900,13.1544
55.5841,13.1747
55.3860,13.2348
55.2035,13.3323
55.0436,13.4636
55.0436,13.4636
54.9123,13.6235
54.8148,13.8060
54.7547,14.0041
54.7344,14.2100
54.7547,14.4159
54.8030,14.5753
54.7975,14.6316
54.7845,14.6491
54.1795,15.2541
54.1268,15.3454
54.1268,15.3454
54.1102,15.4073
54.1055,15.4250
54.0995,15.4473
54.0995,15.9317
54.0778,15.9841
54.0255,16.0057
53.9786,15.9889
53.8364,15.8723
53.6540,15.7748
53.6540,15.7748
53.6540,15.7748
53.4874,15.7242
53.4559,15.7147
53.2500,15.6944
53.0441,15.7147
52.8460,15.7748
52.6635,15.8723
52.5214,15.9889
52.4672,16.0054
52.4173,15.9787
52.4005,15.9317
52.4005,15.6565
52.4222,15.6042
52.8109,15.2155
52.8633,15.1938
52.8847,15.1970
53.0441,15.2453
53.2500,15.2656
53.4559,15.2453
53.6540,15.1852
53.8364,15.0877
53.9964,14.9564
54.1277,14.7965
54.2252,14.6140
54.2853,14.4159
54.3056,14.2100
54.2853,14.0041
54.2252,13.8060
54.1277,13.6235
53.9964,13.4636
53.8364,13.3323
53.6540,13.2348
53.5422,13.2009
53.4559,13.1747
53.2500,13.1544
53.0441,13.1747
52.8460,13.2348
52.6635,13.3323
52.5036,13.4636
52.5036,13.4636
52.3723,13.6235
52.2748,13.8060
52.2147,14.0041
52.1944,14.2100
52.2147,14.4159
52.2630,14.5753
52.2575,14.6316
52.2445,14.6491
51.6795,15.2141
51.6268,15.3054
51.6268,15.3054
51.6220,15.3232
51.6220,15.3232
51.6161,15.3454
51.5995,15.4073
51.5995,15.6255
51.5778,15.6778
51.5255,15.6995
49.9655,15.6995
49.9132,15.6778
49.8915,15.6255
49.9132,15.5732
50.0791,15.4073
50.2709,15.2155
50.3233,15.1938
50.3447,15.1970
50.5041,15.2453
50.7100,15.2656
50.9159,15.2453
51.1140,15.1852
51.2965,15.0877
51.4564,14.9564
51.5877,14.7965
51.6852,14.6140
51.7453,14.4159
51.7656,14.2100
51.7453,14.0041
51.6852,13.8060
51.5877,13.6235
51.4564,13.4636
51.2965,13.3323
51.1140,13.2348
51.0022,13.2009
50.9159,13.1747
50.7100,13.1544
50.5041,13.1747
50.3060,13.2348
50.1235,13.3323
49.9636,13.4636
49.9636,13.4636
49.8323,13.6235
49.7348,13.8060
49.6747,14.0041
49.6544,14.2100
49.6747,14.4159
49.7230,14.5753
49.7175,14.6316
49.7045,14.6491
49.1268,15.2268
49.0745,15.2485
49.0222,15.2268
49.0005,15.1745
49.0005,3.8245
49.0222,3.7722
49.0745,3.7505
80.1755,3.7505
Z" /> 
<path style="fill:#4D7FC4; fill-opacity:1.0000; stroke:none;fill-rule:evenodd;"
d="M 60.0560,17.4216
60.0762,17.4387
60.1221,17.4946
60.1236,17.4964
60.2835,17.6277
60.4660,17.7252
60.6641,17.7853
60.8470,17.8033
60.8970,17.8300
60.9134,17.8842
60.8921,17.9293
60.6435,18.1778
60.5912,18.1995
59.3933,18.1995
59.3410,18.1778
59.3193,18.1255
59.3410,18.0732
59.6289,17.7853
59.9405,17.4737
59.9549,17.4486
59.9999,17.4142
Z" /> 
<path style="fill:#4D7FC4; fill-opacity:1.0000; stroke:none;fill-rule:evenodd;"
d="M 49.6378,17.0332
49.6595,17.0855
49.6595,17.6197
49.6711,17.6782
49.7006,17.7223
49.7154,17.7446
49.7596,17.7740
49.7818,17.7889
49.7818,17.7889
49.7818,17.7889
49.8403,17.8005
51.2545,17.8005
51.3068,17.8222
51.3285,17.8745
51.3068,17.9268
50.8058,18.4278
50.7535,18.4495
48.2955,18.4495
48.2432,18.4278
48.2215,18.3755
48.2432,18.3232
49.5332,17.0332
49.5855,17.0115
Z" /> 
<path style="fill:#4D7FC4; fill-opacity:1.0000; stroke:none;fill-rule:evenodd;"
d="M 62.5861,17.4095
62.6063,17.4266
62.6628,17.4954
62.6636,17.4964
62.8235,17.6277
63.0060,17.7252
63.2041,17.7853
63.3870,17.8033
63.4370,17.8300
63.4534,17.8842
63.4321,17.9293
62.5835,18.7778
62.5312,18.7995
61.3333,18.7995
61.2810,18.7778
61.2593,18.7255
61.2810,18.6732
61.5263,18.4278
62.4405,17.5137
62.4850,17.4365
62.5299,17.4021
Z" /> 
<path style="fill:#4D7FC4; fill-opacity:1.0000; stroke:none;fill-rule:evenodd;"
d="M 52.5214,17.5111
52.6636,17.6277
52.8460,17.7252
53.0441,17.7853
53.2270,17.8033
53.2770,17.8300
53.2934,17.8842
53.2721,17.9293
52.1735,19.0278
52.1212,19.0495
51.4955,19.0495
51.4432,19.0278
51.4215,18.9755
51.4432,18.9232
51.6409,18.7255
52.3205,18.0459
52.3732,17.9546
52.4005,17.8527
52.4005,17.7473
52.4005,17.5683
52.4222,17.5159
52.4745,17.4943
Z" /> 
<path style="fill:#4D7FC4; fill-opacity:1.0000; stroke:none;fill-rule:evenodd;"
d="M 65.1261,17.4095
65.1463,17.4266
65.2028,17.4954
65.2036,17.4964
65.3636,17.6277
65.5460,17.7252
65.7441,17.7853
65.9270,17.8033
65.9770,17.8300
65.9934,17.8842
65.9721,17.9293
64.5235,19.3778
64.4712,19.3995
63.2733,19.3995
63.2210,19.3778
63.1993,19.3255
63.2210,19.2732
63.6111,18.8831
64.9805,17.5137
65.0250,17.4365
65.0699,17.4021
Z" /> 
<path style="fill:#4D7FC4; fill-opacity:1.0000; stroke:none;fill-rule:evenodd;"
d="M 54.9661,17.4095
54.9863,17.4266
55.0299,17.4797
55.0421,17.4946
55.0436,17.4964
55.2035,17.6277
55.3860,17.7252
55.5841,17.7853
55.7670,17.8033
55.8170,17.8300
55.8334,17.8842
55.8121,17.9293
54.2830,19.4584
54.1135,19.6278
54.0612,19.6495
52.8633,19.6495
52.8110,19.6278
52.7893,19.5755
52.8110,19.5232
53.0610,19.2732
54.7459,17.5882
54.7459,17.5882
54.8205,17.5137
54.8650,17.4365
54.9099,17.4021
Z" /> 
<path style="fill:#4D7FC4; fill-opacity:1.0000; stroke:none;fill-rule:evenodd;"
d="M 75.3637,17.4965
75.5236,17.6277
75.7060,17.7252
75.9041,17.7853
76.1100,17.8056
76.3159,17.7853
76.5140,17.7252
76.6964,17.6277
76.8386,17.5111
76.8928,17.4946
76.9427,17.5213
76.9595,17.5683
76.9595,18.9435
76.9378,18.9958
75.3691,20.5645
75.3167,20.5862
75.2644,20.5645
75.2427,20.5122
75.2427,17.5537
75.2644,17.5014
75.3167,17.4797
Z" /> 
<path style="fill:#4D7FC4; fill-opacity:1.0000; stroke:none;fill-rule:evenodd;"
d="M 74.4201,17.4974
74.4417,17.5497
74.4417,20.5597
74.4201,20.6121
72.8468,22.1853
72.7945,22.2070
72.7422,22.1853
72.7205,22.1330
72.7205,17.5683
72.7422,17.5159
72.7945,17.4943
72.8414,17.5111
72.9835,17.6277
73.1660,17.7252
73.3641,17.7853
73.5700,17.8056
73.7759,17.7853
73.9740,17.7252
74.1564,17.6277
74.3164,17.4964
74.3164,17.4964
74.3192,17.4941
74.3203,17.4954
74.3677,17.4757
Z" /> 
<path style="fill:#4D7FC4; fill-opacity:1.0000; stroke:none;fill-rule:evenodd;"
d="M 71.8924,17.4717
71.9191,17.5216
71.9195,17.5289
71.9195,22.2335
71.8978,22.2858
71.1768,23.0068
71.1245,23.0285
71.0722,23.0068
71.0505,22.9545
71.0505,20.5973
71.0232,20.4954
71.0232,20.4954
70.9705,20.4041
70.9705,20.4041
70.9705,20.4041
70.2022,19.6358
70.1805,19.5835
70.1805,17.5683
70.2022,17.5159
70.2545,17.4943
70.3014,17.5111
70.4436,17.6277
70.6260,17.7252
70.8241,17.7853
71.0300,17.8056
71.2359,17.7853
71.4340,17.7252
71.6165,17.6277
71.7764,17.4964
71.7883,17.4819
71.8382,17.4552
Z" /> 
</g>
<g style="fill:#FFFFFF; fill-opacity:1.0000; stroke:none;">
<circle cx="121.2500" cy="66.0000" r="1.6000" /> 
</g>
<g style="fill:#FFFFFF; fill-opacity:1.0000; stroke:none;">
<circle cx="13.7500" cy="21.0000" r="1.6000" /> 
</g>
<g style="fill:#FFFFFF; fill-opacity:1.0000; stroke:none;">
<circle cx="121.2500" cy="21.0000" r="1.6000" /> 
</g>
<g style="fill:#FFFFFF; fill-opacity:1.0000; stroke:none;">
<circle cx="44.0000" cy="66.0000" r="1.6000" /> 
</g>
<g style="fill:#FFFFFF; fill-opacity:1.0000; stroke:none;">
<circle cx="50.7100" cy="14.2100" r="0.5000" /> 
</g>
<g style="fill:#FFFFFF; fill-opacity:1.0000; stroke:none;">
<circle cx="53.2500" cy="14.2100" r="0.5000" /> 
</g>
<g style="fill:#FFFFFF; fill-opacity:1.0000; stroke:none;">
<circle cx="55.7900" cy="14.2100" r="0.5000" /> 
</g>
<g style="fill:#FFFFFF; fill-opacity:1.0000; stroke:none;">
<circle cx="58.3300" cy="14.2100" r="0.5000" /> 
</g>
<g style="fill:#FFFFFF; fill-opacity:1.0000; stroke:none;">
<circle cx="60.8700" cy="14.2100" r="0.5000" /> 
</g>
<g style="fill:#FFFFFF; fill-opacity:1.0000; stroke:none;">
<circle cx="63.4100" cy="14.2100" r="0.5000" /> 
</g>
<g style="fill:#FFFFFF; fill-opacity:1.0000; stroke:none;">
<circle cx="65.9500" cy="14.2100" r="0.5000" /> 
</g>
<g style="fill:#FFFFFF; fill-opacity:1.0000; stroke:none;">
<circle cx="68.4900" cy="14.2100" r="0.5000" /> 
</g>
<g style="fill:#FFFFFF; fill-opacity:1.0000; stroke:none;">
<circle cx="71.0300" cy="14.2100" r="0.5000" /> 
</g>
<g style="fill:#FFFFFF; fill-opacity:1.0000; stroke:none;">
<circle cx="73.5700" cy="14.2100" r="0.5000" /> 
</g>
<g style="fill:#FFFFFF; fill-opacity:1.0000; stroke:none;">
<circle cx="76.1100" cy="14.2100" r="0.5000" /> 
</g>
<g style="fill:#FFFFFF; fill-opacity:1.0000; stroke:none;">
<circle cx="78.6500" cy="14.2100" r="0.5000" /> 
</g>
<g style="fill:#FFFFFF; fill-opacity:1.0000; stroke:none;">
<circle cx="50.7100" cy="16.7500" r="0.5000" /> 
</g>
<g style="fill:#FFFFFF; fill-opacity:1.0000; stroke:none;">
<circle cx="53.2500" cy="16.7500" r="0.5000" /> 
</g>
<g style="fill:#FFFFFF; fill-opacity:1.0000; stroke:none;">
<circle cx="55.7900" cy="16.7500" r="0.5000" /> 
</g>
<g style="fill:#FFFFFF; fill-opacity:1.0000; stroke:none;">
<circle cx="58.3300" cy="16.7500" r="0.5000" /> 
</g>
<g style="fill:#FFFFFF; fill-opacity:1.0000; stroke:none;">
<circle cx="60.8700" cy="16.7500" r="0.5000" /> 
</g>
<g style="fill:#FFFFFF; fill-opacity:1.0000; stroke:none;">
<circle cx="63.4100" cy="16.7500" r="0.5000" /> 
</g>
<g style="fill:#FFFFFF; fill-opacity:1.0000; stroke:none;">
<circle cx="65.9500" cy="16.7500" r="0.5000" /> 
</g>
<g style="fill:#FFFFFF; fill-opacity:1.0000; stroke:none;">
<circle cx="68.4900" cy="16.7500" r="0.5000" /> 
</g>
<g style="fill:#FFFFFF; fill-opacity:1.0000; stroke:none;">
<circle cx="71.0300" cy="16.7500" r="0.5000" /> 
</g>
<g style="fill:#FFFFFF; fill-opacity:1.0000; stroke:none;">
<circle cx="73.5700" cy="16.7500" r="0.5000" /> 
</g>
<g style="fill:#FFFFFF; fill-opacity:1.0000; stroke:none;">
<circle cx="76.1100" cy="16.7500" r="0.5000" /> 
</g>
<g style="fill:#FFFFFF; fill-opacity:1.0000; stroke:none;">
<circle cx="78.6500" cy="16.7500" r="0.5000" /> 
</g>
<g style="fill:#FFFFFF; fill-opacity:1.0000; stroke:none;">
<circle cx="15.5000" cy="38.0000" r="1.2450" /> 
</g>
<g style="fill:#FFFFFF; fill-opacity:1.0000; stroke:none;">
<circle cx="15.5000" cy="47.0000" r="1.2450" /> 
</g>
<g style="fill:#FFFFFF; fill-opacity:1.0000; stroke:none;">
<circle cx="15.5000" cy="56.0000" r="1.2450" /> 
</g>
<g style="fill:#FFFFFF; fill-opacity:1.0000; stroke:none;">
<circle cx="16.5000" cy="65.5000" r="1.2450" /> 
</g>
<g style="fill:#FFFFFF; fill-opacity:1.0000; stroke:none;">
<circle cx="40.5000" cy="31.0000" r="1.2450" /> 
</g>
<g style="fill:#FFFFFF; fill-opacity:1.0000; stroke:none;">
<circle cx="41.0000" cy="41.0000" r="1.2450" /> 
</g>
<g style="fill:#FFFFFF; fill-opacity:1.0000; stroke:none;">
<circle cx="53.5000" cy="38.0000" r="1.2450" /> 
</g>
<g style="fill:#FFFFFF; fill-opacity:1.0000; stroke:none;">
<circle cx="41.0000" cy="50.0000" r="1.2450" /> 
</g>
<g style="fill:#FFFFFF; fill-opacity:1.0000; stroke:none;">
<circle cx="53.5000" cy="47.0000" r="1.2450" /> 
</g>
<g style="fill:#FFFFFF; fill-opacity:1.0000; stroke:none;">
<circle cx="41.0000" cy="59.0000" r="1.2450" /> 
</g>
<g style="fill:#FFFFFF; fill-opacity:1.0000; stroke:none;">
<circle cx="53.5000" cy="56.0000" r="1.2450" /> 
</g>
<g style="fill:#FFFFFF; fill-opacity:1.0000; stroke:none;">
<circle cx="54.5000" cy="65.5000" r="1.2450" /> 
</g>
<g style="fill:#FFFFFF; fill-opacity:1.0000; stroke:none;">
<circle cx="92.5000" cy="65.5000" r="1.2450" /> 
</g>
<g style="fill:#FFFFFF; fill-opacity:1.0000; stroke:none;">
<circle cx="91.5000" cy="56.0000" r="1.2450" /> 
</g>
<g style="fill:#FFFFFF; fill-opacity:1.0000; stroke:none;">
<circle cx="79.0000" cy="58.5000" r="1.2450" /> 
</g>
<g style="fill:#FFFFFF; fill-opacity:1.0000; stroke:none;">
<circle cx="79.0000" cy="50.0000" r="1.2450" /> 
</g>
<g style="fill:#FFFFFF; fill-opacity:1.0000; stroke:none;">
<circle cx="79.0000" cy="41.0000" r="1.2450" /> 
</g>
<g style="fill:#FFFFFF; fill-opacity:1.0000; stroke:none;">
<circle cx="91.5000" cy="47.0000" r="1.2450" /> 
</g>
<g style="fill:#FFFFFF; fill-opacity:1.0000; stroke:none;">
<circle cx="78.5000" cy="31.0000" r="1.2450" /> 
</g>
<g style="fill:#FFFFFF; fill-opacity:1.0000; stroke:none;">
<circle cx="91.5000" cy="38.0000" r="1.2450" /> 
</g>
<g style="fill:#FFFFFF; fill-opacity:1.0000; stroke:none;">
<circle cx="117.0000" cy="59.0000" r="1.2450" /> 
</g>
<g style="fill:#FFFFFF; fill-opacity:1.0000; stroke:none;">
<circle cx="117.0000" cy="50.0000" r="1.2450" /> 
</g>
<g style="fill:#FFFFFF; fill-opacity:1.0000; stroke:none;">
<circle cx="117.0000" cy="41.0000" r="1.2450" /> 
</g>
<g style="fill:#FFFFFF; fill-opacity:1.0000; stroke:none;">
<circle cx="116.0000" cy="31.0000" r="1.2450" /> 
</g>
<g style="fill:none; 
stroke:#D0D2CD; stroke-width:0.0500; stroke-opacity:1; 
stroke-linecap:round; stroke-linejoin:round;">
<path d="M80.7499 16.2500
L125.5000 16.2500
" />
<path style="fill:none; 
stroke:#D0D2CD; stroke-width:0.0500; stroke-opacity:1; 
stroke-linecap:round; stroke-linejoin:round;fill:none"
d="M 21.0000,21.0000
34.4500,21.0000
34.4500,65.4750
21.0000,65.4750
Z" /> 
<path d="M125.5000 70.3631
L9.5000 70.3631
" />
<path d="M48.5000 3.2500
L80.7500 3.2500
" />
<path d="M80.7500 3.2500
L80.7500 16.2500
" />
<path style="fill:none; 
stroke:#D0D2CD; stroke-width:0.0500; stroke-opacity:1; 
stroke-linecap:round; stroke-linejoin:round;fill:none"
d="M 97.0000,21.0000
107.0000,21.0000
107.0000,65.3750
97.0000,65.3750
Z" /> 
<path d="M48.5000 16.2500
L48.5000 3.2500
" />
<path d="M9.5000 16.2500
L48.5002 16.2500
" />
<path d="M125.5000 16.2500
L125.5000 70.3631
" />
<path d="M9.5000 70.3631
L9.5000 16.2500
" />
<path style="fill:none; 
stroke:#D0D2CD; stroke-width:0.0500; stroke-opacity:1; 
stroke-linecap:round; stroke-linejoin:round;fill:none"
d="M 59.4500,21.0000
69.4500,21.0000
69.4500,65.2500
59.4500,65.2500
Z" /> 
</g> 
</svg>
