<?xml version="1.0" standalone="no"?>
 <!DOCTYPE svg PUBLIC "-//W3C//DTD SVG 1.1//EN" 
 "http://www.w3.org/Graphics/SVG/1.1/DTD/svg11.dtd"> 
<svg
  xmlns:svg="http://www.w3.org/2000/svg"
  xmlns="http://www.w3.org/2000/svg"
  xmlns:xlink="http://www.w3.org/1999/xlink"
  version="1.1"
  width="120.7008mm" height="62.7380mm" viewBox="0.0000 0.0000 120.7008 62.7380">
<title>SVG Image created as LowerPOGO-brd.svg date 2024/05/03 16:35:41 </title>
  <desc>Image generated by PCBNEW </desc>
<g style="fill:#000000; fill-opacity:1.0000;stroke:#000000; stroke-opacity:1.0000;
stroke-linecap:round; stroke-linejoin:round;"
 transform="translate(0 0) scale(1 1)">
<path style="fill:#4D7FC4; fill-opacity:1.0000; stroke:none;fill-rule:evenodd;"
d="M 110.2512,52.0682
110.2512,50.3682
111.9512,50.3682
111.9512,52.0682
Z" /> 
<path style="fill:#4D7FC4; fill-opacity:1.0000; stroke:none;fill-rule:evenodd;"
d="M 46.7512,31.0682
46.7512,29.3682
48.4512,29.3682
48.4512,31.0682
Z" /> 
<path style="fill:#4D7FC4; fill-opacity:1.0000; stroke:none;fill-rule:evenodd;"
d="M 34.2512,43.0682
34.2512,41.3682
35.9512,41.3682
35.9512,43.0682
Z" /> 
<path style="fill:#4D7FC4; fill-opacity:1.0000; stroke:none;fill-rule:evenodd;"
d="M 34.2512,52.0682
34.2512,50.3682
35.9512,50.3682
35.9512,52.0682
Z" /> 
<path style="fill:#4D7FC4; fill-opacity:1.0000; stroke:none;fill-rule:evenodd;"
d="M 85.7512,58.5682
85.7512,56.8682
87.4512,56.8682
87.4512,58.5682
Z" /> 
<path style="fill:#4D7FC4; fill-opacity:1.0000; stroke:none;fill-rule:evenodd;"
d="M 110.2512,43.0682
110.2512,41.3682
111.9512,41.3682
111.9512,43.0682
Z" /> 
<path style="fill:#4D7FC4; fill-opacity:1.0000; stroke:none;fill-rule:evenodd;"
d="M 41.3512,10.4683
41.3702,10.3726
41.4244,10.2915
41.5055,10.2373
41.6012,10.2183
42.6012,10.2182
42.6969,10.2373
42.7780,10.2915
42.8322,10.3726
42.8512,10.4683
42.8512,11.4682
42.8322,11.5639
42.7780,11.6450
42.6969,11.6992
42.6012,11.7182
41.6012,11.7182
41.5055,11.6992
41.4244,11.6450
41.3702,11.5639
41.3512,11.4682
Z" /> 
</g>
<g style="fill:#4D7FC4; fill-opacity:1.0000; stroke:none;">
<circle cx="45.1012" cy="10.9682" r="0.7500" /> 
</g>
<g style="fill:#4D7FC4; fill-opacity:1.0000; stroke:none;">
<circle cx="48.1012" cy="10.9682" r="0.7500" /> 
</g>
<g style="fill:#4D7FC4; fill-opacity:1.0000; stroke:none;">
<circle cx="51.1012" cy="10.9682" r="0.7500" /> 
</g>
<g style="fill:#4D7FC4; fill-opacity:1.0000; stroke:none;">
<circle cx="54.1012" cy="10.9682" r="0.7500" /> 
</g>
<g style="fill:#4D7FC4; fill-opacity:1.0000; stroke:none;">
<circle cx="57.1012" cy="10.9682" r="0.7500" /> 
</g>
<g style="fill:#4D7FC4; fill-opacity:1.0000; stroke:none;">
<circle cx="60.1012" cy="10.9682" r="0.7500" /> 
</g>
<g style="fill:#4D7FC4; fill-opacity:1.0000; stroke:none;">
<circle cx="63.1012" cy="10.9682" r="0.7500" /> 
</g>
<g style="fill:#4D7FC4; fill-opacity:1.0000; stroke:none;">
<circle cx="66.1012" cy="10.9682" r="0.7500" /> 
</g>
<g style="fill:#4D7FC4; fill-opacity:1.0000; stroke:none;">
<circle cx="69.1012" cy="10.9682" r="0.7500" /> 
</g>
<g style="fill:#4D7FC4; fill-opacity:1.0000; stroke:none;">
<circle cx="72.1012" cy="10.9682" r="0.7500" /> 
</g>
<g style="fill:#4D7FC4; fill-opacity:1.0000; stroke:none;">
<circle cx="75.1012" cy="10.9682" r="0.7500" /> 
</g>
<g style="fill:#4D7FC4; fill-opacity:1.0000; stroke:none;">
<circle cx="42.1012" cy="13.9682" r="0.7500" /> 
</g>
<g style="fill:#4D7FC4; fill-opacity:1.0000; stroke:none;">
<circle cx="45.1012" cy="13.9682" r="0.7500" /> 
</g>
<g style="fill:#4D7FC4; fill-opacity:1.0000; stroke:none;">
<circle cx="48.1012" cy="13.9682" r="0.7500" /> 
</g>
<g style="fill:#4D7FC4; fill-opacity:1.0000; stroke:none;">
<circle cx="51.1012" cy="13.9682" r="0.7500" /> 
</g>
<g style="fill:#4D7FC4; fill-opacity:1.0000; stroke:none;">
<circle cx="54.1012" cy="13.9682" r="0.7500" /> 
</g>
<g style="fill:#4D7FC4; fill-opacity:1.0000; stroke:none;">
<circle cx="57.1012" cy="13.9682" r="0.7500" /> 
</g>
<g style="fill:#4D7FC4; fill-opacity:1.0000; stroke:none;">
<circle cx="60.1012" cy="13.9682" r="0.7500" /> 
</g>
<g style="fill:#4D7FC4; fill-opacity:1.0000; stroke:none;">
<circle cx="63.1012" cy="13.9682" r="0.7500" /> 
</g>
<g style="fill:#4D7FC4; fill-opacity:1.0000; stroke:none;">
<circle cx="66.1012" cy="13.9682" r="0.7500" /> 
</g>
<g style="fill:#4D7FC4; fill-opacity:1.0000; stroke:none;">
<circle cx="69.1012" cy="13.9682" r="0.7500" /> 
</g>
<g style="fill:#4D7FC4; fill-opacity:1.0000; stroke:none;">
<circle cx="72.1012" cy="13.9682" r="0.7500" /> 
</g>
<g style="fill:#4D7FC4; fill-opacity:1.0000; stroke:none;">
<circle cx="75.1012" cy="13.9682" r="0.7500" /> 
<path style="fill:#4D7FC4; fill-opacity:1.0000; stroke:none;fill-rule:evenodd;"
d="M 46.7512,49.0682
46.7512,47.3682
48.4512,47.3682
48.4512,49.0682
Z" /> 
<path style="fill:#4D7FC4; fill-opacity:1.0000; stroke:none;fill-rule:evenodd;"
d="M 47.7512,58.5682
47.7512,56.8682
49.4512,56.8682
49.4512,58.5682
Z" /> 
<path style="fill:#4D7FC4; fill-opacity:1.0000; stroke:none;fill-rule:evenodd;"
d="M 8.7512,31.0682
8.7512,29.3682
10.4512,29.3682
10.4512,31.0682
Z" /> 
<path style="fill:#4D7FC4; fill-opacity:1.0000; stroke:none;fill-rule:evenodd;"
d="M 84.7512,31.0682
84.7512,29.3682
86.4512,29.3682
86.4512,31.0682
Z" /> 
<path style="fill:#4D7FC4; fill-opacity:1.0000; stroke:none;fill-rule:evenodd;"
d="M 33.7512,24.0682
33.7512,22.3682
35.4512,22.3682
35.4512,24.0682
Z" /> 
<path style="fill:#4D7FC4; fill-opacity:1.0000; stroke:none;fill-rule:evenodd;"
d="M 84.7512,40.0682
84.7512,38.3682
86.4512,38.3682
86.4512,40.0682
Z" /> 
<path style="fill:#4D7FC4; fill-opacity:1.0000; stroke:none;fill-rule:evenodd;"
d="M 8.7512,40.0682
8.7512,38.3682
10.4512,38.3682
10.4512,40.0682
Z" /> 
<path style="fill:#4D7FC4; fill-opacity:1.0000; stroke:none;fill-rule:evenodd;"
d="M 8.7512,49.0682
8.7512,47.3682
10.4512,47.3682
10.4512,49.0682
Z" /> 
<path style="fill:#4D7FC4; fill-opacity:1.0000; stroke:none;fill-rule:evenodd;"
d="M 34.2512,34.0682
34.2512,32.3682
35.9512,32.3682
35.9512,34.0682
Z" /> 
<path style="fill:#4D7FC4; fill-opacity:1.0000; stroke:none;fill-rule:evenodd;"
d="M 72.2512,34.0682
72.2512,32.3682
73.9512,32.3682
73.9512,34.0682
Z" /> 
<path style="fill:#4D7FC4; fill-opacity:1.0000; stroke:none;fill-rule:evenodd;"
d="M 9.7512,58.5682
9.7512,56.8682
11.4512,56.8682
11.4512,58.5682
Z" /> 
<path style="fill:#4D7FC4; fill-opacity:1.0000; stroke:none;fill-rule:evenodd;"
d="M 109.2512,24.0682
109.2512,22.3682
110.9512,22.3682
110.9512,24.0682
Z" /> 
<path style="fill:#4D7FC4; fill-opacity:1.0000; stroke:none;fill-rule:evenodd;"
d="M 110.2512,34.0682
110.2512,32.3682
111.9512,32.3682
111.9512,34.0682
Z" /> 
<path style="fill:#4D7FC4; fill-opacity:1.0000; stroke:none;fill-rule:evenodd;"
d="M 46.7512,40.0682
46.7512,38.3682
48.4512,38.3682
48.4512,40.0682
Z" /> 
<path style="fill:#4D7FC4; fill-opacity:1.0000; stroke:none;fill-rule:evenodd;"
d="M 84.7512,49.0682
84.7512,47.3682
86.4512,47.3682
86.4512,49.0682
Z" /> 
<path style="fill:#4D7FC4; fill-opacity:1.0000; stroke:none;fill-rule:evenodd;"
d="M 71.7512,24.0682
71.7512,22.3682
73.4512,22.3682
73.4512,24.0682
Z" /> 
<path style="fill:#4D7FC4; fill-opacity:1.0000; stroke:none;fill-rule:evenodd;"
d="M 72.2512,51.5682
72.2512,49.8682
73.9512,49.8682
73.9512,51.5682
Z" /> 
<path style="fill:#4D7FC4; fill-opacity:1.0000; stroke:none;fill-rule:evenodd;"
d="M 72.2512,43.0682
72.2512,41.3682
73.9512,41.3682
73.9512,43.0682
Z" /> 
</g>
<g style="fill:none; 
stroke:#4D7FC4; stroke-width:0.2000; stroke-opacity:1; 
stroke-linecap:round; stroke-linejoin:round;">
<path d="M70.6012 12.6783
L72.2412 11.0382
" />
<path d="M70.6012 15.2182
L70.6012 12.6783
" />
<path d="M59.6012 26.2182
L70.6012 15.2182
" />
<path d="M59.6012 36.2182
L59.6012 26.2182
" />
<path d="M47.6012 48.2182
L59.6012 36.2182
" />
<path d="M73.6012 15.2182
L73.6012 12.6783
" />
<path d="M73.6012 12.6783
L75.2412 11.0382
" />
<path d="M62.1012 26.7182
L73.6012 15.2182
" />
<path d="M62.1012 44.2182
L62.1012 26.7182
" />
<path d="M48.6012 57.7182
L62.1012 44.2182
" />
<path d="M57.1012 34.2182
L57.1012 26.2182
" />
<path d="M67.6012 15.7182
L67.6012 12.6783
" />
<path d="M67.6012 12.6783
L69.2412 11.0382
" />
<path d="M40.1012 51.2182
L57.1012 34.2182
" />
<path d="M35.1012 51.2182
L40.1012 51.2182
" />
<path d="M57.1012 26.2182
L67.6012 15.7182
" />
<path d="M64.6012 12.6783
L66.2412 11.0382
" />
<path d="M64.6012 15.7182
L64.6012 12.6783
" />
<path d="M54.6012 25.7182
L64.6012 15.7182
" />
<path d="M54.6012 32.2182
L54.6012 25.7182
" />
<path d="M47.6012 39.2182
L54.6012 32.2182
" />
<path d="M61.6012 12.6783
L63.2412 11.0382
" />
<path d="M52.1012 24.7182
L61.6012 15.2182
" />
<path d="M61.6012 15.2182
L61.6012 12.6783
" />
<path d="M52.1012 30.2182
L52.1012 24.7182
" />
<path d="M35.1012 42.2182
L40.1012 42.2182
" />
<path d="M40.1012 42.2182
L52.1012 30.2182
" />
<path d="M58.6012 12.6783
L60.2412 11.0382
" />
<path d="M58.6012 15.2182
L58.6012 12.6783
" />
<path d="M48.1012 25.7182
L58.6012 15.2182
" />
<path d="M48.1012 29.7182
L48.1012 25.7182
" />
<path d="M47.6012 30.2182
L48.1012 29.7182
" />
<path d="M55.6012 12.6783
L57.2412 11.0382
" />
<path d="M55.6012 15.2182
L55.6012 12.6783
" />
<path d="M47.1012 23.7182
L55.6012 15.2182
" />
<path d="M44.6012 23.7182
L47.1012 23.7182
" />
<path d="M35.1012 33.2182
L44.6012 23.7182
" />
<path d="M52.6012 12.6783
L54.2412 11.0382
" />
<path d="M46.6012 21.2182
L52.6012 15.2182
" />
<path d="M52.6012 15.2182
L52.6012 12.6783
" />
<path d="M34.6012 23.2182
L36.6012 21.2182
" />
<path d="M36.6012 21.2182
L46.6012 21.2182
" />
<path d="M49.6012 12.6783
L51.2412 11.0382
" />
<path d="M29.6012 18.7182
L46.1012 18.7182
" />
<path d="M49.6012 15.2182
L49.6012 12.6783
" />
<path d="M24.6012 23.7182
L29.6012 18.7182
" />
<path d="M24.6012 43.7182
L24.6012 23.7182
" />
<path d="M10.6996 57.6198
L24.6012 43.7182
" />
<path d="M46.1012 18.7182
L49.6012 15.2182
" />
<path d="M10.6996 57.8709
L10.6996 57.6198
" />
<path d="M46.6012 12.6783
L48.2412 11.0382
" />
<path d="M45.6012 16.2182
L46.6012 15.2182
" />
<path d="M27.1012 16.2182
L45.6012 16.2182
" />
<path d="M46.6012 15.2182
L46.6012 12.6783
" />
<path d="M19.6012 23.7182
L27.1012 16.2182
" />
<path d="M9.6012 48.2182
L19.6012 38.2182
" />
<path d="M19.6012 38.2182
L19.6012 23.7182
" />
<path d="M40.6012 12.7182
L43.5612 12.7182
" />
<path d="M43.5612 12.7182
L45.2412 11.0382
" />
<path d="M14.6012 23.7182
L24.6012 13.7182
" />
<path d="M24.6012 13.7182
L39.6012 13.7182
" />
<path d="M14.6012 34.2182
L14.6012 23.7182
" />
<path d="M9.6012 39.2182
L14.6012 34.2182
" />
<path d="M39.6012 13.7182
L40.6012 12.7182
" />
<path d="M22.2812 11.0382
L42.2412 11.0382
" />
<path d="M9.6012 23.7182
L22.2812 11.0382
" />
<path d="M9.6012 30.2218
L9.6012 23.7182
" />
</g>
<g style="fill:#FFFFFF; fill-opacity:1.0000; stroke:none;">
<circle cx="111.1012" cy="51.2182" r="0.5000" /> 
</g>
<g style="fill:#FFFFFF; fill-opacity:1.0000; stroke:none;">
<circle cx="47.6012" cy="30.2182" r="0.5000" /> 
</g>
<g style="fill:#FFFFFF; fill-opacity:1.0000; stroke:none;">
<circle cx="35.1012" cy="42.2182" r="0.5000" /> 
</g>
<g style="fill:#FFFFFF; fill-opacity:1.0000; stroke:none;">
<circle cx="35.1012" cy="51.2182" r="0.5000" /> 
</g>
<g style="fill:#FFFFFF; fill-opacity:1.0000; stroke:none;">
<circle cx="86.6012" cy="57.7182" r="0.5000" /> 
</g>
<g style="fill:#FFFFFF; fill-opacity:1.0000; stroke:none;">
<circle cx="111.1012" cy="42.2182" r="0.5000" /> 
</g>
<g style="fill:#FFFFFF; fill-opacity:1.0000; stroke:none;">
<circle cx="44.2612" cy="6.6482" r="1.5000" /> 
</g>
<g style="fill:#FFFFFF; fill-opacity:1.0000; stroke:none;">
<circle cx="72.9612" cy="6.6482" r="1.5000" /> 
</g>
<g style="fill:#FFFFFF; fill-opacity:1.0000; stroke:none;">
<circle cx="42.1012" cy="10.9682" r="0.5100" /> 
</g>
<g style="fill:#FFFFFF; fill-opacity:1.0000; stroke:none;">
<circle cx="45.1012" cy="10.9682" r="0.5100" /> 
</g>
<g style="fill:#FFFFFF; fill-opacity:1.0000; stroke:none;">
<circle cx="48.1012" cy="10.9682" r="0.5100" /> 
</g>
<g style="fill:#FFFFFF; fill-opacity:1.0000; stroke:none;">
<circle cx="51.1012" cy="10.9682" r="0.5100" /> 
</g>
<g style="fill:#FFFFFF; fill-opacity:1.0000; stroke:none;">
<circle cx="54.1012" cy="10.9682" r="0.5100" /> 
</g>
<g style="fill:#FFFFFF; fill-opacity:1.0000; stroke:none;">
<circle cx="57.1012" cy="10.9682" r="0.5100" /> 
</g>
<g style="fill:#FFFFFF; fill-opacity:1.0000; stroke:none;">
<circle cx="60.1012" cy="10.9682" r="0.5100" /> 
</g>
<g style="fill:#FFFFFF; fill-opacity:1.0000; stroke:none;">
<circle cx="63.1012" cy="10.9682" r="0.5100" /> 
</g>
<g style="fill:#FFFFFF; fill-opacity:1.0000; stroke:none;">
<circle cx="66.1012" cy="10.9682" r="0.5100" /> 
</g>
<g style="fill:#FFFFFF; fill-opacity:1.0000; stroke:none;">
<circle cx="69.1012" cy="10.9682" r="0.5100" /> 
</g>
<g style="fill:#FFFFFF; fill-opacity:1.0000; stroke:none;">
<circle cx="72.1012" cy="10.9682" r="0.5100" /> 
</g>
<g style="fill:#FFFFFF; fill-opacity:1.0000; stroke:none;">
<circle cx="75.1012" cy="10.9682" r="0.5100" /> 
</g>
<g style="fill:#FFFFFF; fill-opacity:1.0000; stroke:none;">
<circle cx="42.1012" cy="13.9682" r="0.5100" /> 
</g>
<g style="fill:#FFFFFF; fill-opacity:1.0000; stroke:none;">
<circle cx="45.1012" cy="13.9682" r="0.5100" /> 
</g>
<g style="fill:#FFFFFF; fill-opacity:1.0000; stroke:none;">
<circle cx="48.1012" cy="13.9682" r="0.5100" /> 
</g>
<g style="fill:#FFFFFF; fill-opacity:1.0000; stroke:none;">
<circle cx="51.1012" cy="13.9682" r="0.5100" /> 
</g>
<g style="fill:#FFFFFF; fill-opacity:1.0000; stroke:none;">
<circle cx="54.1012" cy="13.9682" r="0.5100" /> 
</g>
<g style="fill:#FFFFFF; fill-opacity:1.0000; stroke:none;">
<circle cx="57.1012" cy="13.9682" r="0.5100" /> 
</g>
<g style="fill:#FFFFFF; fill-opacity:1.0000; stroke:none;">
<circle cx="60.1012" cy="13.9682" r="0.5100" /> 
</g>
<g style="fill:#FFFFFF; fill-opacity:1.0000; stroke:none;">
<circle cx="63.1012" cy="13.9682" r="0.5100" /> 
</g>
<g style="fill:#FFFFFF; fill-opacity:1.0000; stroke:none;">
<circle cx="66.1012" cy="13.9682" r="0.5100" /> 
</g>
<g style="fill:#FFFFFF; fill-opacity:1.0000; stroke:none;">
<circle cx="69.1012" cy="13.9682" r="0.5100" /> 
</g>
<g style="fill:#FFFFFF; fill-opacity:1.0000; stroke:none;">
<circle cx="72.1012" cy="13.9682" r="0.5100" /> 
</g>
<g style="fill:#FFFFFF; fill-opacity:1.0000; stroke:none;">
<circle cx="75.1012" cy="13.9682" r="0.5100" /> 
</g>
<g style="fill:#FFFFFF; fill-opacity:1.0000; stroke:none;">
<circle cx="47.6012" cy="48.2182" r="0.5000" /> 
</g>
<g style="fill:#FFFFFF; fill-opacity:1.0000; stroke:none;">
<circle cx="48.6012" cy="57.7182" r="0.5000" /> 
</g>
<g style="fill:#FFFFFF; fill-opacity:1.0000; stroke:none;">
<circle cx="9.6012" cy="30.2182" r="0.5000" /> 
</g>
<g style="fill:#FFFFFF; fill-opacity:1.0000; stroke:none;">
<circle cx="85.6012" cy="30.2182" r="0.5000" /> 
</g>
<g style="fill:#FFFFFF; fill-opacity:1.0000; stroke:none;">
<circle cx="34.6012" cy="23.2182" r="0.5000" /> 
</g>
<g style="fill:#FFFFFF; fill-opacity:1.0000; stroke:none;">
<circle cx="85.6012" cy="39.2182" r="0.5000" /> 
</g>
<g style="fill:#FFFFFF; fill-opacity:1.0000; stroke:none;">
<circle cx="9.6012" cy="39.2182" r="0.5000" /> 
</g>
<g style="fill:#FFFFFF; fill-opacity:1.0000; stroke:none;">
<circle cx="9.6012" cy="48.2182" r="0.5000" /> 
</g>
<g style="fill:#FFFFFF; fill-opacity:1.0000; stroke:none;">
<circle cx="35.1012" cy="33.2182" r="0.5000" /> 
</g>
<g style="fill:#FFFFFF; fill-opacity:1.0000; stroke:none;">
<circle cx="73.1012" cy="33.2182" r="0.5000" /> 
</g>
<g style="fill:#FFFFFF; fill-opacity:1.0000; stroke:none;">
<circle cx="10.6012" cy="57.7182" r="0.5000" /> 
</g>
<g style="fill:#FFFFFF; fill-opacity:1.0000; stroke:none;">
<circle cx="110.1012" cy="23.2182" r="0.5000" /> 
</g>
<g style="fill:#FFFFFF; fill-opacity:1.0000; stroke:none;">
<circle cx="111.1012" cy="33.2182" r="0.5000" /> 
</g>
<g style="fill:#FFFFFF; fill-opacity:1.0000; stroke:none;">
<circle cx="47.6012" cy="39.2182" r="0.5000" /> 
</g>
<g style="fill:#FFFFFF; fill-opacity:1.0000; stroke:none;">
<circle cx="85.6012" cy="48.2182" r="0.5000" /> 
</g>
<g style="fill:#FFFFFF; fill-opacity:1.0000; stroke:none;">
<circle cx="72.6012" cy="23.2182" r="0.5000" /> 
</g>
<g style="fill:#FFFFFF; fill-opacity:1.0000; stroke:none;">
<circle cx="73.1012" cy="50.7182" r="0.5000" /> 
</g>
<g style="fill:#FFFFFF; fill-opacity:1.0000; stroke:none;">
<circle cx="73.1012" cy="42.2182" r="0.5000" /> 
<path style="fill:#C83434; fill-opacity:1.0000; stroke:none;fill-rule:evenodd;"
d="M 110.2512,52.0682
110.2512,50.3682
111.9512,50.3682
111.9512,52.0682
Z" /> 
<path style="fill:#C83434; fill-opacity:1.0000; stroke:none;fill-rule:evenodd;"
d="M 46.7512,31.0682
46.7512,29.3682
48.4512,29.3682
48.4512,31.0682
Z" /> 
<path style="fill:#C83434; fill-opacity:1.0000; stroke:none;fill-rule:evenodd;"
d="M 34.2512,43.0682
34.2512,41.3682
35.9512,41.3682
35.9512,43.0682
Z" /> 
<path style="fill:#C83434; fill-opacity:1.0000; stroke:none;fill-rule:evenodd;"
d="M 34.2512,52.0682
34.2512,50.3682
35.9512,50.3682
35.9512,52.0682
Z" /> 
<path style="fill:#C83434; fill-opacity:1.0000; stroke:none;fill-rule:evenodd;"
d="M 85.7512,58.5682
85.7512,56.8682
87.4512,56.8682
87.4512,58.5682
Z" /> 
<path style="fill:#C83434; fill-opacity:1.0000; stroke:none;fill-rule:evenodd;"
d="M 110.2512,43.0682
110.2512,41.3682
111.9512,41.3682
111.9512,43.0682
Z" /> 
<path style="fill:#C83434; fill-opacity:1.0000; stroke:none;fill-rule:evenodd;"
d="M 41.3512,10.4683
41.3702,10.3726
41.4244,10.2915
41.5055,10.2373
41.6012,10.2183
42.6012,10.2182
42.6969,10.2373
42.7780,10.2915
42.8322,10.3726
42.8512,10.4683
42.8512,11.4682
42.8322,11.5639
42.7780,11.6450
42.6969,11.6992
42.6012,11.7182
41.6012,11.7182
41.5055,11.6992
41.4244,11.6450
41.3702,11.5639
41.3512,11.4682
Z" /> 
</g>
<g style="fill:#C83434; fill-opacity:1.0000; stroke:none;">
<circle cx="45.1012" cy="10.9682" r="0.7500" /> 
</g>
<g style="fill:#C83434; fill-opacity:1.0000; stroke:none;">
<circle cx="48.1012" cy="10.9682" r="0.7500" /> 
</g>
<g style="fill:#C83434; fill-opacity:1.0000; stroke:none;">
<circle cx="51.1012" cy="10.9682" r="0.7500" /> 
</g>
<g style="fill:#C83434; fill-opacity:1.0000; stroke:none;">
<circle cx="54.1012" cy="10.9682" r="0.7500" /> 
</g>
<g style="fill:#C83434; fill-opacity:1.0000; stroke:none;">
<circle cx="57.1012" cy="10.9682" r="0.7500" /> 
</g>
<g style="fill:#C83434; fill-opacity:1.0000; stroke:none;">
<circle cx="60.1012" cy="10.9682" r="0.7500" /> 
</g>
<g style="fill:#C83434; fill-opacity:1.0000; stroke:none;">
<circle cx="63.1012" cy="10.9682" r="0.7500" /> 
</g>
<g style="fill:#C83434; fill-opacity:1.0000; stroke:none;">
<circle cx="66.1012" cy="10.9682" r="0.7500" /> 
</g>
<g style="fill:#C83434; fill-opacity:1.0000; stroke:none;">
<circle cx="69.1012" cy="10.9682" r="0.7500" /> 
</g>
<g style="fill:#C83434; fill-opacity:1.0000; stroke:none;">
<circle cx="72.1012" cy="10.9682" r="0.7500" /> 
</g>
<g style="fill:#C83434; fill-opacity:1.0000; stroke:none;">
<circle cx="75.1012" cy="10.9682" r="0.7500" /> 
</g>
<g style="fill:#C83434; fill-opacity:1.0000; stroke:none;">
<circle cx="42.1012" cy="13.9682" r="0.7500" /> 
</g>
<g style="fill:#C83434; fill-opacity:1.0000; stroke:none;">
<circle cx="45.1012" cy="13.9682" r="0.7500" /> 
</g>
<g style="fill:#C83434; fill-opacity:1.0000; stroke:none;">
<circle cx="48.1012" cy="13.9682" r="0.7500" /> 
</g>
<g style="fill:#C83434; fill-opacity:1.0000; stroke:none;">
<circle cx="51.1012" cy="13.9682" r="0.7500" /> 
</g>
<g style="fill:#C83434; fill-opacity:1.0000; stroke:none;">
<circle cx="54.1012" cy="13.9682" r="0.7500" /> 
</g>
<g style="fill:#C83434; fill-opacity:1.0000; stroke:none;">
<circle cx="57.1012" cy="13.9682" r="0.7500" /> 
</g>
<g style="fill:#C83434; fill-opacity:1.0000; stroke:none;">
<circle cx="60.1012" cy="13.9682" r="0.7500" /> 
</g>
<g style="fill:#C83434; fill-opacity:1.0000; stroke:none;">
<circle cx="63.1012" cy="13.9682" r="0.7500" /> 
</g>
<g style="fill:#C83434; fill-opacity:1.0000; stroke:none;">
<circle cx="66.1012" cy="13.9682" r="0.7500" /> 
</g>
<g style="fill:#C83434; fill-opacity:1.0000; stroke:none;">
<circle cx="69.1012" cy="13.9682" r="0.7500" /> 
</g>
<g style="fill:#C83434; fill-opacity:1.0000; stroke:none;">
<circle cx="72.1012" cy="13.9682" r="0.7500" /> 
</g>
<g style="fill:#C83434; fill-opacity:1.0000; stroke:none;">
<circle cx="75.1012" cy="13.9682" r="0.7500" /> 
<path style="fill:#C83434; fill-opacity:1.0000; stroke:none;fill-rule:evenodd;"
d="M 46.7512,49.0682
46.7512,47.3682
48.4512,47.3682
48.4512,49.0682
Z" /> 
<path style="fill:#C83434; fill-opacity:1.0000; stroke:none;fill-rule:evenodd;"
d="M 47.7512,58.5682
47.7512,56.8682
49.4512,56.8682
49.4512,58.5682
Z" /> 
<path style="fill:#C83434; fill-opacity:1.0000; stroke:none;fill-rule:evenodd;"
d="M 8.7512,31.0682
8.7512,29.3682
10.4512,29.3682
10.4512,31.0682
Z" /> 
<path style="fill:#C83434; fill-opacity:1.0000; stroke:none;fill-rule:evenodd;"
d="M 84.7512,31.0682
84.7512,29.3682
86.4512,29.3682
86.4512,31.0682
Z" /> 
<path style="fill:#C83434; fill-opacity:1.0000; stroke:none;fill-rule:evenodd;"
d="M 33.7512,24.0682
33.7512,22.3682
35.4512,22.3682
35.4512,24.0682
Z" /> 
<path style="fill:#C83434; fill-opacity:1.0000; stroke:none;fill-rule:evenodd;"
d="M 84.7512,40.0682
84.7512,38.3682
86.4512,38.3682
86.4512,40.0682
Z" /> 
<path style="fill:#C83434; fill-opacity:1.0000; stroke:none;fill-rule:evenodd;"
d="M 8.7512,40.0682
8.7512,38.3682
10.4512,38.3682
10.4512,40.0682
Z" /> 
<path style="fill:#C83434; fill-opacity:1.0000; stroke:none;fill-rule:evenodd;"
d="M 8.7512,49.0682
8.7512,47.3682
10.4512,47.3682
10.4512,49.0682
Z" /> 
<path style="fill:#C83434; fill-opacity:1.0000; stroke:none;fill-rule:evenodd;"
d="M 34.2512,34.0682
34.2512,32.3682
35.9512,32.3682
35.9512,34.0682
Z" /> 
<path style="fill:#C83434; fill-opacity:1.0000; stroke:none;fill-rule:evenodd;"
d="M 72.2512,34.0682
72.2512,32.3682
73.9512,32.3682
73.9512,34.0682
Z" /> 
<path style="fill:#C83434; fill-opacity:1.0000; stroke:none;fill-rule:evenodd;"
d="M 9.7512,58.5682
9.7512,56.8682
11.4512,56.8682
11.4512,58.5682
Z" /> 
<path style="fill:#C83434; fill-opacity:1.0000; stroke:none;fill-rule:evenodd;"
d="M 109.2512,24.0682
109.2512,22.3682
110.9512,22.3682
110.9512,24.0682
Z" /> 
<path style="fill:#C83434; fill-opacity:1.0000; stroke:none;fill-rule:evenodd;"
d="M 110.2512,34.0682
110.2512,32.3682
111.9512,32.3682
111.9512,34.0682
Z" /> 
<path style="fill:#C83434; fill-opacity:1.0000; stroke:none;fill-rule:evenodd;"
d="M 46.7512,40.0682
46.7512,38.3682
48.4512,38.3682
48.4512,40.0682
Z" /> 
<path style="fill:#C83434; fill-opacity:1.0000; stroke:none;fill-rule:evenodd;"
d="M 84.7512,49.0682
84.7512,47.3682
86.4512,47.3682
86.4512,49.0682
Z" /> 
<path style="fill:#C83434; fill-opacity:1.0000; stroke:none;fill-rule:evenodd;"
d="M 71.7512,24.0682
71.7512,22.3682
73.4512,22.3682
73.4512,24.0682
Z" /> 
<path style="fill:#C83434; fill-opacity:1.0000; stroke:none;fill-rule:evenodd;"
d="M 72.2512,51.5682
72.2512,49.8682
73.9512,49.8682
73.9512,51.5682
Z" /> 
<path style="fill:#C83434; fill-opacity:1.0000; stroke:none;fill-rule:evenodd;"
d="M 72.2512,43.0682
72.2512,41.3682
73.9512,41.3682
73.9512,43.0682
Z" /> 
</g>
<g style="fill:none; 
stroke:#C83434; stroke-width:0.2000; stroke-opacity:1; 
stroke-linecap:round; stroke-linejoin:round;">
<path d="M84.6012 57.7182
L86.6012 57.7182
" />
<path d="M45.2412 18.3582
L84.6012 57.7182
" />
<path d="M45.2412 14.0382
L45.2412 18.3582
" />
<path d="M72.7612 33.2182
L73.1012 33.2182
" />
<path d="M54.2412 14.6982
L72.7612 33.2182
" />
<path d="M54.2412 14.0382
L54.2412 14.6982
" />
<path d="M78.6012 18.7182
L70.9212 18.7182
" />
<path d="M111.1012 51.2182
L78.6012 18.7182
" />
<path d="M70.9212 18.7182
L66.2412 14.0382
" />
<path d="M84.1012 48.2182
L85.6012 48.2182
" />
<path d="M51.2412 14.0382
L51.2412 15.3582
" />
<path d="M51.2412 15.3582
L84.1012 48.2182
" />
<path d="M48.2412 16.3582
L73.1012 41.2182
" />
<path d="M73.1012 41.2182
L73.1012 42.2182
" />
<path d="M48.2412 14.0382
L48.2412 16.3582
" />
<path d="M100.9212 14.0382
L110.1012 23.2182
" />
<path d="M75.2412 14.0382
L100.9212 14.0382
" />
<path d="M73.9212 15.7182
L93.6012 15.7182
" />
<path d="M93.6012 15.7182
L111.1012 33.2182
" />
<path d="M72.2412 14.0382
L73.9212 15.7182
" />
<path d="M86.1012 17.2182
L111.1012 42.2182
" />
<path d="M72.4212 17.2182
L86.1012 17.2182
" />
<path d="M69.2412 14.0382
L72.4212 17.2182
" />
<path d="M75.6012 20.2182
L85.6012 30.2182
" />
<path d="M69.4212 20.2182
L75.6012 20.2182
" />
<path d="M63.2412 14.0382
L69.4212 20.2182
" />
<path d="M69.4212 23.2182
L72.6012 23.2182
" />
<path d="M60.2412 14.0382
L69.4212 23.2182
" />
<path d="M82.4212 39.2182
L85.6012 39.2182
" />
<path d="M57.2412 14.0382
L82.4212 39.2182
" />
<path d="M42.2412 18.8582
L73.1012 49.7182
" />
<path d="M42.2412 14.0382
L42.2412 18.8582
" />
<path d="M73.1012 49.7182
L73.1012 50.7182
" />
</g>
<g style="fill:#FFFFFF; fill-opacity:1.0000; stroke:none;">
<circle cx="111.1012" cy="51.2182" r="0.5000" /> 
</g>
<g style="fill:#FFFFFF; fill-opacity:1.0000; stroke:none;">
<circle cx="47.6012" cy="30.2182" r="0.5000" /> 
</g>
<g style="fill:#FFFFFF; fill-opacity:1.0000; stroke:none;">
<circle cx="35.1012" cy="42.2182" r="0.5000" /> 
</g>
<g style="fill:#FFFFFF; fill-opacity:1.0000; stroke:none;">
<circle cx="35.1012" cy="51.2182" r="0.5000" /> 
</g>
<g style="fill:#FFFFFF; fill-opacity:1.0000; stroke:none;">
<circle cx="86.6012" cy="57.7182" r="0.5000" /> 
</g>
<g style="fill:#FFFFFF; fill-opacity:1.0000; stroke:none;">
<circle cx="111.1012" cy="42.2182" r="0.5000" /> 
</g>
<g style="fill:#FFFFFF; fill-opacity:1.0000; stroke:none;">
<circle cx="44.2612" cy="6.6482" r="1.5000" /> 
</g>
<g style="fill:#FFFFFF; fill-opacity:1.0000; stroke:none;">
<circle cx="72.9612" cy="6.6482" r="1.5000" /> 
</g>
<g style="fill:#FFFFFF; fill-opacity:1.0000; stroke:none;">
<circle cx="42.1012" cy="10.9682" r="0.5100" /> 
</g>
<g style="fill:#FFFFFF; fill-opacity:1.0000; stroke:none;">
<circle cx="45.1012" cy="10.9682" r="0.5100" /> 
</g>
<g style="fill:#FFFFFF; fill-opacity:1.0000; stroke:none;">
<circle cx="48.1012" cy="10.9682" r="0.5100" /> 
</g>
<g style="fill:#FFFFFF; fill-opacity:1.0000; stroke:none;">
<circle cx="51.1012" cy="10.9682" r="0.5100" /> 
</g>
<g style="fill:#FFFFFF; fill-opacity:1.0000; stroke:none;">
<circle cx="54.1012" cy="10.9682" r="0.5100" /> 
</g>
<g style="fill:#FFFFFF; fill-opacity:1.0000; stroke:none;">
<circle cx="57.1012" cy="10.9682" r="0.5100" /> 
</g>
<g style="fill:#FFFFFF; fill-opacity:1.0000; stroke:none;">
<circle cx="60.1012" cy="10.9682" r="0.5100" /> 
</g>
<g style="fill:#FFFFFF; fill-opacity:1.0000; stroke:none;">
<circle cx="63.1012" cy="10.9682" r="0.5100" /> 
</g>
<g style="fill:#FFFFFF; fill-opacity:1.0000; stroke:none;">
<circle cx="66.1012" cy="10.9682" r="0.5100" /> 
</g>
<g style="fill:#FFFFFF; fill-opacity:1.0000; stroke:none;">
<circle cx="69.1012" cy="10.9682" r="0.5100" /> 
</g>
<g style="fill:#FFFFFF; fill-opacity:1.0000; stroke:none;">
<circle cx="72.1012" cy="10.9682" r="0.5100" /> 
</g>
<g style="fill:#FFFFFF; fill-opacity:1.0000; stroke:none;">
<circle cx="75.1012" cy="10.9682" r="0.5100" /> 
</g>
<g style="fill:#FFFFFF; fill-opacity:1.0000; stroke:none;">
<circle cx="42.1012" cy="13.9682" r="0.5100" /> 
</g>
<g style="fill:#FFFFFF; fill-opacity:1.0000; stroke:none;">
<circle cx="45.1012" cy="13.9682" r="0.5100" /> 
</g>
<g style="fill:#FFFFFF; fill-opacity:1.0000; stroke:none;">
<circle cx="48.1012" cy="13.9682" r="0.5100" /> 
</g>
<g style="fill:#FFFFFF; fill-opacity:1.0000; stroke:none;">
<circle cx="51.1012" cy="13.9682" r="0.5100" /> 
</g>
<g style="fill:#FFFFFF; fill-opacity:1.0000; stroke:none;">
<circle cx="54.1012" cy="13.9682" r="0.5100" /> 
</g>
<g style="fill:#FFFFFF; fill-opacity:1.0000; stroke:none;">
<circle cx="57.1012" cy="13.9682" r="0.5100" /> 
</g>
<g style="fill:#FFFFFF; fill-opacity:1.0000; stroke:none;">
<circle cx="60.1012" cy="13.9682" r="0.5100" /> 
</g>
<g style="fill:#FFFFFF; fill-opacity:1.0000; stroke:none;">
<circle cx="63.1012" cy="13.9682" r="0.5100" /> 
</g>
<g style="fill:#FFFFFF; fill-opacity:1.0000; stroke:none;">
<circle cx="66.1012" cy="13.9682" r="0.5100" /> 
</g>
<g style="fill:#FFFFFF; fill-opacity:1.0000; stroke:none;">
<circle cx="69.1012" cy="13.9682" r="0.5100" /> 
</g>
<g style="fill:#FFFFFF; fill-opacity:1.0000; stroke:none;">
<circle cx="72.1012" cy="13.9682" r="0.5100" /> 
</g>
<g style="fill:#FFFFFF; fill-opacity:1.0000; stroke:none;">
<circle cx="75.1012" cy="13.9682" r="0.5100" /> 
</g>
<g style="fill:#FFFFFF; fill-opacity:1.0000; stroke:none;">
<circle cx="47.6012" cy="48.2182" r="0.5000" /> 
</g>
<g style="fill:#FFFFFF; fill-opacity:1.0000; stroke:none;">
<circle cx="48.6012" cy="57.7182" r="0.5000" /> 
</g>
<g style="fill:#FFFFFF; fill-opacity:1.0000; stroke:none;">
<circle cx="9.6012" cy="30.2182" r="0.5000" /> 
</g>
<g style="fill:#FFFFFF; fill-opacity:1.0000; stroke:none;">
<circle cx="85.6012" cy="30.2182" r="0.5000" /> 
</g>
<g style="fill:#FFFFFF; fill-opacity:1.0000; stroke:none;">
<circle cx="34.6012" cy="23.2182" r="0.5000" /> 
</g>
<g style="fill:#FFFFFF; fill-opacity:1.0000; stroke:none;">
<circle cx="85.6012" cy="39.2182" r="0.5000" /> 
</g>
<g style="fill:#FFFFFF; fill-opacity:1.0000; stroke:none;">
<circle cx="9.6012" cy="39.2182" r="0.5000" /> 
</g>
<g style="fill:#FFFFFF; fill-opacity:1.0000; stroke:none;">
<circle cx="9.6012" cy="48.2182" r="0.5000" /> 
</g>
<g style="fill:#FFFFFF; fill-opacity:1.0000; stroke:none;">
<circle cx="35.1012" cy="33.2182" r="0.5000" /> 
</g>
<g style="fill:#FFFFFF; fill-opacity:1.0000; stroke:none;">
<circle cx="73.1012" cy="33.2182" r="0.5000" /> 
</g>
<g style="fill:#FFFFFF; fill-opacity:1.0000; stroke:none;">
<circle cx="10.6012" cy="57.7182" r="0.5000" /> 
</g>
<g style="fill:#FFFFFF; fill-opacity:1.0000; stroke:none;">
<circle cx="110.1012" cy="23.2182" r="0.5000" /> 
</g>
<g style="fill:#FFFFFF; fill-opacity:1.0000; stroke:none;">
<circle cx="111.1012" cy="33.2182" r="0.5000" /> 
</g>
<g style="fill:#FFFFFF; fill-opacity:1.0000; stroke:none;">
<circle cx="47.6012" cy="39.2182" r="0.5000" /> 
</g>
<g style="fill:#FFFFFF; fill-opacity:1.0000; stroke:none;">
<circle cx="85.6012" cy="48.2182" r="0.5000" /> 
</g>
<g style="fill:#FFFFFF; fill-opacity:1.0000; stroke:none;">
<circle cx="72.6012" cy="23.2182" r="0.5000" /> 
</g>
<g style="fill:#FFFFFF; fill-opacity:1.0000; stroke:none;">
<circle cx="73.1012" cy="50.7182" r="0.5000" /> 
</g>
<g style="fill:#FFFFFF; fill-opacity:1.0000; stroke:none;">
<circle cx="73.1012" cy="42.2182" r="0.5000" /> 
</g>
<g style="fill:none; 
stroke:#F2EDA1; stroke-width:0.1500; stroke-opacity:1; 
stroke-linecap:round; stroke-linejoin:round;">
<text x="111.1012" y="49.3882"
textLength="2.9167" font-size="1.3333" lengthAdjust="spacingAndGlyphs"
text-anchor="middle" opacity="0">J21</text>
<g class="stroked-text"><desc>J21</desc>
<path d="M110.2917 48.3431
L110.2917 49.0574
" />
<path d="M110.2917 49.0574
L110.2440 49.2002
" />
<path d="M110.2440 49.2002
L110.1488 49.2954
" />
<path d="M110.1488 49.2954
L110.0060 49.3431
" />
<path d="M110.0060 49.3431
L109.9107 49.3431
" />
<path d="M110.7202 48.4383
L110.7679 48.3907
" />
<path d="M110.7679 48.3907
L110.8631 48.3431
" />
<path d="M110.8631 48.3431
L111.1012 48.3431
" />
<path d="M111.1012 48.3431
L111.1964 48.3907
" />
<path d="M111.1964 48.3907
L111.2440 48.4383
" />
<path d="M111.2440 48.4383
L111.2917 48.5335
" />
<path d="M111.2917 48.5335
L111.2917 48.6288
" />
<path d="M111.2917 48.6288
L111.2440 48.7716
" />
<path d="M111.2440 48.7716
L110.6726 49.3431
" />
<path d="M110.6726 49.3431
L111.2917 49.3431
" />
<path d="M112.2440 49.3431
L111.6726 49.3431
" />
<path d="M111.9583 49.3431
L111.9583 48.3431
" />
<path d="M111.9583 48.3431
L111.8631 48.4859
" />
<path d="M111.8631 48.4859
L111.7679 48.5812
" />
<path d="M111.7679 48.5812
L111.6726 48.6288
" />
</g><text x="47.6012" y="28.3882"
textLength="1.9643" font-size="1.3333" lengthAdjust="spacingAndGlyphs"
text-anchor="middle" opacity="0">J7</text>
<g class="stroked-text"><desc>J7</desc>
<path d="M47.2679 27.3431
L47.2679 28.0574
" />
<path d="M47.2679 28.0574
L47.2202 28.2002
" />
<path d="M47.2202 28.2002
L47.1250 28.2954
" />
<path d="M47.1250 28.2954
L46.9821 28.3431
" />
<path d="M46.9821 28.3431
L46.8869 28.3431
" />
<path d="M47.6488 27.3431
L48.3155 27.3431
" />
<path d="M48.3155 27.3431
L47.8869 28.3431
" />
</g><text x="35.1012" y="40.3882"
textLength="1.9643" font-size="1.3333" lengthAdjust="spacingAndGlyphs"
text-anchor="middle" opacity="0">J8</text>
<g class="stroked-text"><desc>J8</desc>
<path d="M34.7679 39.3431
L34.7679 40.0574
" />
<path d="M34.7679 40.0574
L34.7202 40.2002
" />
<path d="M34.7202 40.2002
L34.6250 40.2954
" />
<path d="M34.6250 40.2954
L34.4821 40.3431
" />
<path d="M34.4821 40.3431
L34.3869 40.3431
" />
<path d="M35.3869 39.7716
L35.2917 39.7240
" />
<path d="M35.2917 39.7240
L35.2440 39.6764
" />
<path d="M35.2440 39.6764
L35.1964 39.5812
" />
<path d="M35.1964 39.5812
L35.1964 39.5335
" />
<path d="M35.1964 39.5335
L35.2440 39.4383
" />
<path d="M35.2440 39.4383
L35.2917 39.3907
" />
<path d="M35.2917 39.3907
L35.3869 39.3431
" />
<path d="M35.3869 39.3431
L35.5774 39.3431
" />
<path d="M35.5774 39.3431
L35.6726 39.3907
" />
<path d="M35.6726 39.3907
L35.7202 39.4383
" />
<path d="M35.7202 39.4383
L35.7679 39.5335
" />
<path d="M35.7679 39.5335
L35.7679 39.5812
" />
<path d="M35.7679 39.5812
L35.7202 39.6764
" />
<path d="M35.7202 39.6764
L35.6726 39.7240
" />
<path d="M35.6726 39.7240
L35.5774 39.7716
" />
<path d="M35.5774 39.7716
L35.3869 39.7716
" />
<path d="M35.3869 39.7716
L35.2917 39.8193
" />
<path d="M35.2917 39.8193
L35.2440 39.8669
" />
<path d="M35.2440 39.8669
L35.1964 39.9621
" />
<path d="M35.1964 39.9621
L35.1964 40.1526
" />
<path d="M35.1964 40.1526
L35.2440 40.2478
" />
<path d="M35.2440 40.2478
L35.2917 40.2954
" />
<path d="M35.2917 40.2954
L35.3869 40.3431
" />
<path d="M35.3869 40.3431
L35.5774 40.3431
" />
<path d="M35.5774 40.3431
L35.6726 40.2954
" />
<path d="M35.6726 40.2954
L35.7202 40.2478
" />
<path d="M35.7202 40.2478
L35.7679 40.1526
" />
<path d="M35.7679 40.1526
L35.7679 39.9621
" />
<path d="M35.7679 39.9621
L35.7202 39.8669
" />
<path d="M35.7202 39.8669
L35.6726 39.8193
" />
<path d="M35.6726 39.8193
L35.5774 39.7716
" />
</g><text x="35.1012" y="49.3882"
textLength="2.9167" font-size="1.3333" lengthAdjust="spacingAndGlyphs"
text-anchor="middle" opacity="0">J10</text>
<g class="stroked-text"><desc>J10</desc>
<path d="M34.2917 48.3431
L34.2917 49.0574
" />
<path d="M34.2917 49.0574
L34.2440 49.2002
" />
<path d="M34.2440 49.2002
L34.1488 49.2954
" />
<path d="M34.1488 49.2954
L34.0060 49.3431
" />
<path d="M34.0060 49.3431
L33.9107 49.3431
" />
<path d="M35.2917 49.3431
L34.7202 49.3431
" />
<path d="M35.0060 49.3431
L35.0060 48.3431
" />
<path d="M35.0060 48.3431
L34.9107 48.4859
" />
<path d="M34.9107 48.4859
L34.8155 48.5812
" />
<path d="M34.8155 48.5812
L34.7202 48.6288
" />
<path d="M35.9107 48.3431
L36.0060 48.3431
" />
<path d="M36.0060 48.3431
L36.1012 48.3907
" />
<path d="M36.1012 48.3907
L36.1488 48.4383
" />
<path d="M36.1488 48.4383
L36.1964 48.5335
" />
<path d="M36.1964 48.5335
L36.2440 48.7240
" />
<path d="M36.2440 48.7240
L36.2440 48.9621
" />
<path d="M36.2440 48.9621
L36.1964 49.1526
" />
<path d="M36.1964 49.1526
L36.1488 49.2478
" />
<path d="M36.1488 49.2478
L36.1012 49.2954
" />
<path d="M36.1012 49.2954
L36.0060 49.3431
" />
<path d="M36.0060 49.3431
L35.9107 49.3431
" />
<path d="M35.9107 49.3431
L35.8155 49.2954
" />
<path d="M35.8155 49.2954
L35.7679 49.2478
" />
<path d="M35.7679 49.2478
L35.7202 49.1526
" />
<path d="M35.7202 49.1526
L35.6726 48.9621
" />
<path d="M35.6726 48.9621
L35.6726 48.7240
" />
<path d="M35.6726 48.7240
L35.7202 48.5335
" />
<path d="M35.7202 48.5335
L35.7679 48.4383
" />
<path d="M35.7679 48.4383
L35.8155 48.3907
" />
<path d="M35.8155 48.3907
L35.9107 48.3431
" />
</g><text x="86.6012" y="55.8882"
textLength="2.9167" font-size="1.3333" lengthAdjust="spacingAndGlyphs"
text-anchor="middle" opacity="0">J14</text>
<g class="stroked-text"><desc>J14</desc>
<path d="M85.7917 54.8431
L85.7917 55.5574
" />
<path d="M85.7917 55.5574
L85.7440 55.7002
" />
<path d="M85.7440 55.7002
L85.6488 55.7954
" />
<path d="M85.6488 55.7954
L85.5060 55.8431
" />
<path d="M85.5060 55.8431
L85.4107 55.8431
" />
<path d="M86.7917 55.8431
L86.2202 55.8431
" />
<path d="M86.5060 55.8431
L86.5060 54.8431
" />
<path d="M86.5060 54.8431
L86.4107 54.9859
" />
<path d="M86.4107 54.9859
L86.3155 55.0812
" />
<path d="M86.3155 55.0812
L86.2202 55.1288
" />
<path d="M87.6488 55.1764
L87.6488 55.8431
" />
<path d="M87.4107 54.7954
L87.1726 55.5097
" />
<path d="M87.1726 55.5097
L87.7917 55.5097
" />
</g><text x="111.1012" y="40.3882"
textLength="2.9167" font-size="1.3333" lengthAdjust="spacingAndGlyphs"
text-anchor="middle" opacity="0">J22</text>
<g class="stroked-text"><desc>J22</desc>
<path d="M110.2917 39.3431
L110.2917 40.0574
" />
<path d="M110.2917 40.0574
L110.2440 40.2002
" />
<path d="M110.2440 40.2002
L110.1488 40.2954
" />
<path d="M110.1488 40.2954
L110.0060 40.3431
" />
<path d="M110.0060 40.3431
L109.9107 40.3431
" />
<path d="M110.7202 39.4383
L110.7679 39.3907
" />
<path d="M110.7679 39.3907
L110.8631 39.3431
" />
<path d="M110.8631 39.3431
L111.1012 39.3431
" />
<path d="M111.1012 39.3431
L111.1964 39.3907
" />
<path d="M111.1964 39.3907
L111.2440 39.4383
" />
<path d="M111.2440 39.4383
L111.2917 39.5335
" />
<path d="M111.2917 39.5335
L111.2917 39.6288
" />
<path d="M111.2917 39.6288
L111.2440 39.7716
" />
<path d="M111.2440 39.7716
L110.6726 40.3431
" />
<path d="M110.6726 40.3431
L111.2917 40.3431
" />
<path d="M111.6726 39.4383
L111.7202 39.3907
" />
<path d="M111.7202 39.3907
L111.8155 39.3431
" />
<path d="M111.8155 39.3431
L112.0536 39.3431
" />
<path d="M112.0536 39.3431
L112.1488 39.3907
" />
<path d="M112.1488 39.3907
L112.1964 39.4383
" />
<path d="M112.1964 39.4383
L112.2440 39.5335
" />
<path d="M112.2440 39.5335
L112.2440 39.6288
" />
<path d="M112.2440 39.6288
L112.1964 39.7716
" />
<path d="M112.1964 39.7716
L111.6250 40.3431
" />
<path d="M111.6250 40.3431
L112.2440 40.3431
" />
</g><text x="58.6012" y="1.3482"
textLength="2.9167" font-size="1.3333" lengthAdjust="spacingAndGlyphs"
text-anchor="middle" opacity="0">J25</text>
<g class="stroked-text"><desc>J25</desc>
<path d="M57.7917 0.3031
L57.7917 1.0174
" />
<path d="M57.7917 1.0174
L57.7440 1.1602
" />
<path d="M57.7440 1.1602
L57.6488 1.2554
" />
<path d="M57.6488 1.2554
L57.5060 1.3031
" />
<path d="M57.5060 1.3031
L57.4107 1.3031
" />
<path d="M58.2202 0.3983
L58.2679 0.3507
" />
<path d="M58.2679 0.3507
L58.3631 0.3031
" />
<path d="M58.3631 0.3031
L58.6012 0.3031
" />
<path d="M58.6012 0.3031
L58.6964 0.3507
" />
<path d="M58.6964 0.3507
L58.7440 0.3983
" />
<path d="M58.7440 0.3983
L58.7917 0.4935
" />
<path d="M58.7917 0.4935
L58.7917 0.5888
" />
<path d="M58.7917 0.5888
L58.7440 0.7316
" />
<path d="M58.7440 0.7316
L58.1726 1.3031
" />
<path d="M58.1726 1.3031
L58.7917 1.3031
" />
<path d="M59.6964 0.3031
L59.2202 0.3031
" />
<path d="M59.2202 0.3031
L59.1726 0.7793
" />
<path d="M59.1726 0.7793
L59.2202 0.7316
" />
<path d="M59.2202 0.7316
L59.3155 0.6840
" />
<path d="M59.3155 0.6840
L59.5536 0.6840
" />
<path d="M59.5536 0.6840
L59.6488 0.7316
" />
<path d="M59.6488 0.7316
L59.6964 0.7793
" />
<path d="M59.6964 0.7793
L59.7440 0.8745
" />
<path d="M59.7440 0.8745
L59.7440 1.1126
" />
<path d="M59.7440 1.1126
L59.6964 1.2078
" />
<path d="M59.6964 1.2078
L59.6488 1.2554
" />
<path d="M59.6488 1.2554
L59.5536 1.3031
" />
<path d="M59.5536 1.3031
L59.3155 1.3031
" />
<path d="M59.3155 1.3031
L59.2202 1.2554
" />
<path d="M59.2202 1.2554
L59.1726 1.2078
" />
</g><text x="47.6012" y="46.3882"
textLength="2.9167" font-size="1.3333" lengthAdjust="spacingAndGlyphs"
text-anchor="middle" opacity="0">J11</text>
<g class="stroked-text"><desc>J11</desc>
<path d="M46.7917 45.3431
L46.7917 46.0574
" />
<path d="M46.7917 46.0574
L46.7440 46.2002
" />
<path d="M46.7440 46.2002
L46.6488 46.2954
" />
<path d="M46.6488 46.2954
L46.5060 46.3431
" />
<path d="M46.5060 46.3431
L46.4107 46.3431
" />
<path d="M47.7917 46.3431
L47.2202 46.3431
" />
<path d="M47.5060 46.3431
L47.5060 45.3431
" />
<path d="M47.5060 45.3431
L47.4107 45.4859
" />
<path d="M47.4107 45.4859
L47.3155 45.5812
" />
<path d="M47.3155 45.5812
L47.2202 45.6288
" />
<path d="M48.7440 46.3431
L48.1726 46.3431
" />
<path d="M48.4583 46.3431
L48.4583 45.3431
" />
<path d="M48.4583 45.3431
L48.3631 45.4859
" />
<path d="M48.3631 45.4859
L48.2679 45.5812
" />
<path d="M48.2679 45.5812
L48.1726 45.6288
" />
</g><text x="48.6012" y="55.8882"
textLength="2.9167" font-size="1.3333" lengthAdjust="spacingAndGlyphs"
text-anchor="middle" opacity="0">J12</text>
<g class="stroked-text"><desc>J12</desc>
<path d="M47.7917 54.8431
L47.7917 55.5574
" />
<path d="M47.7917 55.5574
L47.7440 55.7002
" />
<path d="M47.7440 55.7002
L47.6488 55.7954
" />
<path d="M47.6488 55.7954
L47.5060 55.8431
" />
<path d="M47.5060 55.8431
L47.4107 55.8431
" />
<path d="M48.7917 55.8431
L48.2202 55.8431
" />
<path d="M48.5060 55.8431
L48.5060 54.8431
" />
<path d="M48.5060 54.8431
L48.4107 54.9859
" />
<path d="M48.4107 54.9859
L48.3155 55.0812
" />
<path d="M48.3155 55.0812
L48.2202 55.1288
" />
<path d="M49.1726 54.9383
L49.2202 54.8907
" />
<path d="M49.2202 54.8907
L49.3155 54.8431
" />
<path d="M49.3155 54.8431
L49.5536 54.8431
" />
<path d="M49.5536 54.8431
L49.6488 54.8907
" />
<path d="M49.6488 54.8907
L49.6964 54.9383
" />
<path d="M49.6964 54.9383
L49.7440 55.0335
" />
<path d="M49.7440 55.0335
L49.7440 55.1288
" />
<path d="M49.7440 55.1288
L49.6964 55.2716
" />
<path d="M49.6964 55.2716
L49.1250 55.8431
" />
<path d="M49.1250 55.8431
L49.7440 55.8431
" />
</g><text x="9.6012" y="28.3882"
textLength="1.9643" font-size="1.3333" lengthAdjust="spacingAndGlyphs"
text-anchor="middle" opacity="0">J1</text>
<g class="stroked-text"><desc>J1</desc>
<path d="M9.2679 27.3431
L9.2679 28.0574
" />
<path d="M9.2679 28.0574
L9.2202 28.2002
" />
<path d="M9.2202 28.2002
L9.1250 28.2954
" />
<path d="M9.1250 28.2954
L8.9821 28.3431
" />
<path d="M8.9821 28.3431
L8.8869 28.3431
" />
<path d="M10.2679 28.3431
L9.6964 28.3431
" />
<path d="M9.9821 28.3431
L9.9821 27.3431
" />
<path d="M9.9821 27.3431
L9.8869 27.4859
" />
<path d="M9.8869 27.4859
L9.7917 27.5812
" />
<path d="M9.7917 27.5812
L9.6964 27.6288
" />
</g><text x="85.6012" y="28.3882"
textLength="2.9167" font-size="1.3333" lengthAdjust="spacingAndGlyphs"
text-anchor="middle" opacity="0">J20</text>
<g class="stroked-text"><desc>J20</desc>
<path d="M84.7917 27.3431
L84.7917 28.0574
" />
<path d="M84.7917 28.0574
L84.7440 28.2002
" />
<path d="M84.7440 28.2002
L84.6488 28.2954
" />
<path d="M84.6488 28.2954
L84.5060 28.3431
" />
<path d="M84.5060 28.3431
L84.4107 28.3431
" />
<path d="M85.2202 27.4383
L85.2679 27.3907
" />
<path d="M85.2679 27.3907
L85.3631 27.3431
" />
<path d="M85.3631 27.3431
L85.6012 27.3431
" />
<path d="M85.6012 27.3431
L85.6964 27.3907
" />
<path d="M85.6964 27.3907
L85.7440 27.4383
" />
<path d="M85.7440 27.4383
L85.7917 27.5335
" />
<path d="M85.7917 27.5335
L85.7917 27.6288
" />
<path d="M85.7917 27.6288
L85.7440 27.7716
" />
<path d="M85.7440 27.7716
L85.1726 28.3431
" />
<path d="M85.1726 28.3431
L85.7917 28.3431
" />
<path d="M86.4107 27.3431
L86.5060 27.3431
" />
<path d="M86.5060 27.3431
L86.6012 27.3907
" />
<path d="M86.6012 27.3907
L86.6488 27.4383
" />
<path d="M86.6488 27.4383
L86.6964 27.5335
" />
<path d="M86.6964 27.5335
L86.7440 27.7240
" />
<path d="M86.7440 27.7240
L86.7440 27.9621
" />
<path d="M86.7440 27.9621
L86.6964 28.1526
" />
<path d="M86.6964 28.1526
L86.6488 28.2478
" />
<path d="M86.6488 28.2478
L86.6012 28.2954
" />
<path d="M86.6012 28.2954
L86.5060 28.3431
" />
<path d="M86.5060 28.3431
L86.4107 28.3431
" />
<path d="M86.4107 28.3431
L86.3155 28.2954
" />
<path d="M86.3155 28.2954
L86.2679 28.2478
" />
<path d="M86.2679 28.2478
L86.2202 28.1526
" />
<path d="M86.2202 28.1526
L86.1726 27.9621
" />
<path d="M86.1726 27.9621
L86.1726 27.7240
" />
<path d="M86.1726 27.7240
L86.2202 27.5335
" />
<path d="M86.2202 27.5335
L86.2679 27.4383
" />
<path d="M86.2679 27.4383
L86.3155 27.3907
" />
<path d="M86.3155 27.3907
L86.4107 27.3431
" />
</g><text x="34.6012" y="21.3882"
textLength="1.9643" font-size="1.3333" lengthAdjust="spacingAndGlyphs"
text-anchor="middle" opacity="0">J5</text>
<g class="stroked-text"><desc>J5</desc>
<path d="M34.2679 20.3431
L34.2679 21.0574
" />
<path d="M34.2679 21.0574
L34.2202 21.2002
" />
<path d="M34.2202 21.2002
L34.1250 21.2954
" />
<path d="M34.1250 21.2954
L33.9821 21.3431
" />
<path d="M33.9821 21.3431
L33.8869 21.3431
" />
<path d="M35.2202 20.3431
L34.7440 20.3431
" />
<path d="M34.7440 20.3431
L34.6964 20.8193
" />
<path d="M34.6964 20.8193
L34.7440 20.7716
" />
<path d="M34.7440 20.7716
L34.8393 20.7240
" />
<path d="M34.8393 20.7240
L35.0774 20.7240
" />
<path d="M35.0774 20.7240
L35.1726 20.7716
" />
<path d="M35.1726 20.7716
L35.2202 20.8193
" />
<path d="M35.2202 20.8193
L35.2679 20.9145
" />
<path d="M35.2679 20.9145
L35.2679 21.1526
" />
<path d="M35.2679 21.1526
L35.2202 21.2478
" />
<path d="M35.2202 21.2478
L35.1726 21.2954
" />
<path d="M35.1726 21.2954
L35.0774 21.3431
" />
<path d="M35.0774 21.3431
L34.8393 21.3431
" />
<path d="M34.8393 21.3431
L34.7440 21.2954
" />
<path d="M34.7440 21.2954
L34.6964 21.2478
" />
</g><text x="85.6012" y="37.3882"
textLength="2.9167" font-size="1.3333" lengthAdjust="spacingAndGlyphs"
text-anchor="middle" opacity="0">J18</text>
<g class="stroked-text"><desc>J18</desc>
<path d="M84.7917 36.3431
L84.7917 37.0574
" />
<path d="M84.7917 37.0574
L84.7440 37.2002
" />
<path d="M84.7440 37.2002
L84.6488 37.2954
" />
<path d="M84.6488 37.2954
L84.5060 37.3431
" />
<path d="M84.5060 37.3431
L84.4107 37.3431
" />
<path d="M85.7917 37.3431
L85.2202 37.3431
" />
<path d="M85.5060 37.3431
L85.5060 36.3431
" />
<path d="M85.5060 36.3431
L85.4107 36.4859
" />
<path d="M85.4107 36.4859
L85.3155 36.5812
" />
<path d="M85.3155 36.5812
L85.2202 36.6288
" />
<path d="M86.3631 36.7716
L86.2679 36.7240
" />
<path d="M86.2679 36.7240
L86.2202 36.6764
" />
<path d="M86.2202 36.6764
L86.1726 36.5812
" />
<path d="M86.1726 36.5812
L86.1726 36.5335
" />
<path d="M86.1726 36.5335
L86.2202 36.4383
" />
<path d="M86.2202 36.4383
L86.2679 36.3907
" />
<path d="M86.2679 36.3907
L86.3631 36.3431
" />
<path d="M86.3631 36.3431
L86.5536 36.3431
" />
<path d="M86.5536 36.3431
L86.6488 36.3907
" />
<path d="M86.6488 36.3907
L86.6964 36.4383
" />
<path d="M86.6964 36.4383
L86.7440 36.5335
" />
<path d="M86.7440 36.5335
L86.7440 36.5812
" />
<path d="M86.7440 36.5812
L86.6964 36.6764
" />
<path d="M86.6964 36.6764
L86.6488 36.7240
" />
<path d="M86.6488 36.7240
L86.5536 36.7716
" />
<path d="M86.5536 36.7716
L86.3631 36.7716
" />
<path d="M86.3631 36.7716
L86.2679 36.8193
" />
<path d="M86.2679 36.8193
L86.2202 36.8669
" />
<path d="M86.2202 36.8669
L86.1726 36.9621
" />
<path d="M86.1726 36.9621
L86.1726 37.1526
" />
<path d="M86.1726 37.1526
L86.2202 37.2478
" />
<path d="M86.2202 37.2478
L86.2679 37.2954
" />
<path d="M86.2679 37.2954
L86.3631 37.3431
" />
<path d="M86.3631 37.3431
L86.5536 37.3431
" />
<path d="M86.5536 37.3431
L86.6488 37.2954
" />
<path d="M86.6488 37.2954
L86.6964 37.2478
" />
<path d="M86.6964 37.2478
L86.7440 37.1526
" />
<path d="M86.7440 37.1526
L86.7440 36.9621
" />
<path d="M86.7440 36.9621
L86.6964 36.8669
" />
<path d="M86.6964 36.8669
L86.6488 36.8193
" />
<path d="M86.6488 36.8193
L86.5536 36.7716
" />
</g><text x="9.6012" y="37.3882"
textLength="1.9643" font-size="1.3333" lengthAdjust="spacingAndGlyphs"
text-anchor="middle" opacity="0">J2</text>
<g class="stroked-text"><desc>J2</desc>
<path d="M9.2679 36.3431
L9.2679 37.0574
" />
<path d="M9.2679 37.0574
L9.2202 37.2002
" />
<path d="M9.2202 37.2002
L9.1250 37.2954
" />
<path d="M9.1250 37.2954
L8.9821 37.3431
" />
<path d="M8.9821 37.3431
L8.8869 37.3431
" />
<path d="M9.6964 36.4383
L9.7440 36.3907
" />
<path d="M9.7440 36.3907
L9.8393 36.3431
" />
<path d="M9.8393 36.3431
L10.0774 36.3431
" />
<path d="M10.0774 36.3431
L10.1726 36.3907
" />
<path d="M10.1726 36.3907
L10.2202 36.4383
" />
<path d="M10.2202 36.4383
L10.2679 36.5335
" />
<path d="M10.2679 36.5335
L10.2679 36.6288
" />
<path d="M10.2679 36.6288
L10.2202 36.7716
" />
<path d="M10.2202 36.7716
L9.6488 37.3431
" />
<path d="M9.6488 37.3431
L10.2679 37.3431
" />
</g><text x="9.6012" y="46.3882"
textLength="1.9643" font-size="1.3333" lengthAdjust="spacingAndGlyphs"
text-anchor="middle" opacity="0">J3</text>
<g class="stroked-text"><desc>J3</desc>
<path d="M9.2679 45.3431
L9.2679 46.0574
" />
<path d="M9.2679 46.0574
L9.2202 46.2002
" />
<path d="M9.2202 46.2002
L9.1250 46.2954
" />
<path d="M9.1250 46.2954
L8.9821 46.3431
" />
<path d="M8.9821 46.3431
L8.8869 46.3431
" />
<path d="M9.6488 45.3431
L10.2679 45.3431
" />
<path d="M10.2679 45.3431
L9.9345 45.7240
" />
<path d="M9.9345 45.7240
L10.0774 45.7240
" />
<path d="M10.0774 45.7240
L10.1726 45.7716
" />
<path d="M10.1726 45.7716
L10.2202 45.8193
" />
<path d="M10.2202 45.8193
L10.2679 45.9145
" />
<path d="M10.2679 45.9145
L10.2679 46.1526
" />
<path d="M10.2679 46.1526
L10.2202 46.2478
" />
<path d="M10.2202 46.2478
L10.1726 46.2954
" />
<path d="M10.1726 46.2954
L10.0774 46.3431
" />
<path d="M10.0774 46.3431
L9.7917 46.3431
" />
<path d="M9.7917 46.3431
L9.6964 46.2954
" />
<path d="M9.6964 46.2954
L9.6488 46.2478
" />
</g><text x="35.1012" y="31.3882"
textLength="1.9643" font-size="1.3333" lengthAdjust="spacingAndGlyphs"
text-anchor="middle" opacity="0">J6</text>
<g class="stroked-text"><desc>J6</desc>
<path d="M34.7679 30.3431
L34.7679 31.0574
" />
<path d="M34.7679 31.0574
L34.7202 31.2002
" />
<path d="M34.7202 31.2002
L34.6250 31.2954
" />
<path d="M34.6250 31.2954
L34.4821 31.3431
" />
<path d="M34.4821 31.3431
L34.3869 31.3431
" />
<path d="M35.6726 30.3431
L35.4821 30.3431
" />
<path d="M35.4821 30.3431
L35.3869 30.3907
" />
<path d="M35.3869 30.3907
L35.3393 30.4383
" />
<path d="M35.3393 30.4383
L35.2440 30.5812
" />
<path d="M35.2440 30.5812
L35.1964 30.7716
" />
<path d="M35.1964 30.7716
L35.1964 31.1526
" />
<path d="M35.1964 31.1526
L35.2440 31.2478
" />
<path d="M35.2440 31.2478
L35.2917 31.2954
" />
<path d="M35.2917 31.2954
L35.3869 31.3431
" />
<path d="M35.3869 31.3431
L35.5774 31.3431
" />
<path d="M35.5774 31.3431
L35.6726 31.2954
" />
<path d="M35.6726 31.2954
L35.7202 31.2478
" />
<path d="M35.7202 31.2478
L35.7679 31.1526
" />
<path d="M35.7679 31.1526
L35.7679 30.9145
" />
<path d="M35.7679 30.9145
L35.7202 30.8193
" />
<path d="M35.7202 30.8193
L35.6726 30.7716
" />
<path d="M35.6726 30.7716
L35.5774 30.7240
" />
<path d="M35.5774 30.7240
L35.3869 30.7240
" />
<path d="M35.3869 30.7240
L35.2917 30.7716
" />
<path d="M35.2917 30.7716
L35.2440 30.8193
" />
<path d="M35.2440 30.8193
L35.1964 30.9145
" />
</g><text x="73.1012" y="31.3882"
textLength="2.9167" font-size="1.3333" lengthAdjust="spacingAndGlyphs"
text-anchor="middle" opacity="0">J17</text>
<g class="stroked-text"><desc>J17</desc>
<path d="M72.2917 30.3431
L72.2917 31.0574
" />
<path d="M72.2917 31.0574
L72.2440 31.2002
" />
<path d="M72.2440 31.2002
L72.1488 31.2954
" />
<path d="M72.1488 31.2954
L72.0060 31.3431
" />
<path d="M72.0060 31.3431
L71.9107 31.3431
" />
<path d="M73.2917 31.3431
L72.7202 31.3431
" />
<path d="M73.0060 31.3431
L73.0060 30.3431
" />
<path d="M73.0060 30.3431
L72.9107 30.4859
" />
<path d="M72.9107 30.4859
L72.8155 30.5812
" />
<path d="M72.8155 30.5812
L72.7202 30.6288
" />
<path d="M73.6250 30.3431
L74.2917 30.3431
" />
<path d="M74.2917 30.3431
L73.8631 31.3431
" />
</g><text x="10.6012" y="55.8882"
textLength="1.9643" font-size="1.3333" lengthAdjust="spacingAndGlyphs"
text-anchor="middle" opacity="0">J4</text>
<g class="stroked-text"><desc>J4</desc>
<path d="M10.2679 54.8431
L10.2679 55.5574
" />
<path d="M10.2679 55.5574
L10.2202 55.7002
" />
<path d="M10.2202 55.7002
L10.1250 55.7954
" />
<path d="M10.1250 55.7954
L9.9821 55.8431
" />
<path d="M9.9821 55.8431
L9.8869 55.8431
" />
<path d="M11.1726 55.1764
L11.1726 55.8431
" />
<path d="M10.9345 54.7954
L10.6964 55.5097
" />
<path d="M10.6964 55.5097
L11.3155 55.5097
" />
</g><text x="110.1012" y="21.3882"
textLength="2.9167" font-size="1.3333" lengthAdjust="spacingAndGlyphs"
text-anchor="middle" opacity="0">J24</text>
<g class="stroked-text"><desc>J24</desc>
<path d="M109.2917 20.3431
L109.2917 21.0574
" />
<path d="M109.2917 21.0574
L109.2440 21.2002
" />
<path d="M109.2440 21.2002
L109.1488 21.2954
" />
<path d="M109.1488 21.2954
L109.0060 21.3431
" />
<path d="M109.0060 21.3431
L108.9107 21.3431
" />
<path d="M109.7202 20.4383
L109.7679 20.3907
" />
<path d="M109.7679 20.3907
L109.8631 20.3431
" />
<path d="M109.8631 20.3431
L110.1012 20.3431
" />
<path d="M110.1012 20.3431
L110.1964 20.3907
" />
<path d="M110.1964 20.3907
L110.2440 20.4383
" />
<path d="M110.2440 20.4383
L110.2917 20.5335
" />
<path d="M110.2917 20.5335
L110.2917 20.6288
" />
<path d="M110.2917 20.6288
L110.2440 20.7716
" />
<path d="M110.2440 20.7716
L109.6726 21.3431
" />
<path d="M109.6726 21.3431
L110.2917 21.3431
" />
<path d="M111.1488 20.6764
L111.1488 21.3431
" />
<path d="M110.9107 20.2954
L110.6726 21.0097
" />
<path d="M110.6726 21.0097
L111.2917 21.0097
" />
</g><text x="111.1012" y="31.3882"
textLength="2.9167" font-size="1.3333" lengthAdjust="spacingAndGlyphs"
text-anchor="middle" opacity="0">J23</text>
<g class="stroked-text"><desc>J23</desc>
<path d="M110.2917 30.3431
L110.2917 31.0574
" />
<path d="M110.2917 31.0574
L110.2440 31.2002
" />
<path d="M110.2440 31.2002
L110.1488 31.2954
" />
<path d="M110.1488 31.2954
L110.0060 31.3431
" />
<path d="M110.0060 31.3431
L109.9107 31.3431
" />
<path d="M110.7202 30.4383
L110.7679 30.3907
" />
<path d="M110.7679 30.3907
L110.8631 30.3431
" />
<path d="M110.8631 30.3431
L111.1012 30.3431
" />
<path d="M111.1012 30.3431
L111.1964 30.3907
" />
<path d="M111.1964 30.3907
L111.2440 30.4383
" />
<path d="M111.2440 30.4383
L111.2917 30.5335
" />
<path d="M111.2917 30.5335
L111.2917 30.6288
" />
<path d="M111.2917 30.6288
L111.2440 30.7716
" />
<path d="M111.2440 30.7716
L110.6726 31.3431
" />
<path d="M110.6726 31.3431
L111.2917 31.3431
" />
<path d="M111.6250 30.3431
L112.2440 30.3431
" />
<path d="M112.2440 30.3431
L111.9107 30.7240
" />
<path d="M111.9107 30.7240
L112.0536 30.7240
" />
<path d="M112.0536 30.7240
L112.1488 30.7716
" />
<path d="M112.1488 30.7716
L112.1964 30.8193
" />
<path d="M112.1964 30.8193
L112.2440 30.9145
" />
<path d="M112.2440 30.9145
L112.2440 31.1526
" />
<path d="M112.2440 31.1526
L112.1964 31.2478
" />
<path d="M112.1964 31.2478
L112.1488 31.2954
" />
<path d="M112.1488 31.2954
L112.0536 31.3431
" />
<path d="M112.0536 31.3431
L111.7679 31.3431
" />
<path d="M111.7679 31.3431
L111.6726 31.2954
" />
<path d="M111.6726 31.2954
L111.6250 31.2478
" />
</g><text x="47.6012" y="37.3882"
textLength="1.9643" font-size="1.3333" lengthAdjust="spacingAndGlyphs"
text-anchor="middle" opacity="0">J9</text>
<g class="stroked-text"><desc>J9</desc>
<path d="M47.2679 36.3431
L47.2679 37.0574
" />
<path d="M47.2679 37.0574
L47.2202 37.2002
" />
<path d="M47.2202 37.2002
L47.1250 37.2954
" />
<path d="M47.1250 37.2954
L46.9821 37.3431
" />
<path d="M46.9821 37.3431
L46.8869 37.3431
" />
<path d="M47.7917 37.3431
L47.9821 37.3431
" />
<path d="M47.9821 37.3431
L48.0774 37.2954
" />
<path d="M48.0774 37.2954
L48.1250 37.2478
" />
<path d="M48.1250 37.2478
L48.2202 37.1050
" />
<path d="M48.2202 37.1050
L48.2679 36.9145
" />
<path d="M48.2679 36.9145
L48.2679 36.5335
" />
<path d="M48.2679 36.5335
L48.2202 36.4383
" />
<path d="M48.2202 36.4383
L48.1726 36.3907
" />
<path d="M48.1726 36.3907
L48.0774 36.3431
" />
<path d="M48.0774 36.3431
L47.8869 36.3431
" />
<path d="M47.8869 36.3431
L47.7917 36.3907
" />
<path d="M47.7917 36.3907
L47.7440 36.4383
" />
<path d="M47.7440 36.4383
L47.6964 36.5335
" />
<path d="M47.6964 36.5335
L47.6964 36.7716
" />
<path d="M47.6964 36.7716
L47.7440 36.8669
" />
<path d="M47.7440 36.8669
L47.7917 36.9145
" />
<path d="M47.7917 36.9145
L47.8869 36.9621
" />
<path d="M47.8869 36.9621
L48.0774 36.9621
" />
<path d="M48.0774 36.9621
L48.1726 36.9145
" />
<path d="M48.1726 36.9145
L48.2202 36.8669
" />
<path d="M48.2202 36.8669
L48.2679 36.7716
" />
</g><text x="85.6012" y="46.3882"
textLength="2.9167" font-size="1.3333" lengthAdjust="spacingAndGlyphs"
text-anchor="middle" opacity="0">J16</text>
<g class="stroked-text"><desc>J16</desc>
<path d="M84.7917 45.3431
L84.7917 46.0574
" />
<path d="M84.7917 46.0574
L84.7440 46.2002
" />
<path d="M84.7440 46.2002
L84.6488 46.2954
" />
<path d="M84.6488 46.2954
L84.5060 46.3431
" />
<path d="M84.5060 46.3431
L84.4107 46.3431
" />
<path d="M85.7917 46.3431
L85.2202 46.3431
" />
<path d="M85.5060 46.3431
L85.5060 45.3431
" />
<path d="M85.5060 45.3431
L85.4107 45.4859
" />
<path d="M85.4107 45.4859
L85.3155 45.5812
" />
<path d="M85.3155 45.5812
L85.2202 45.6288
" />
<path d="M86.6488 45.3431
L86.4583 45.3431
" />
<path d="M86.4583 45.3431
L86.3631 45.3907
" />
<path d="M86.3631 45.3907
L86.3155 45.4383
" />
<path d="M86.3155 45.4383
L86.2202 45.5812
" />
<path d="M86.2202 45.5812
L86.1726 45.7716
" />
<path d="M86.1726 45.7716
L86.1726 46.1526
" />
<path d="M86.1726 46.1526
L86.2202 46.2478
" />
<path d="M86.2202 46.2478
L86.2679 46.2954
" />
<path d="M86.2679 46.2954
L86.3631 46.3431
" />
<path d="M86.3631 46.3431
L86.5536 46.3431
" />
<path d="M86.5536 46.3431
L86.6488 46.2954
" />
<path d="M86.6488 46.2954
L86.6964 46.2478
" />
<path d="M86.6964 46.2478
L86.7440 46.1526
" />
<path d="M86.7440 46.1526
L86.7440 45.9145
" />
<path d="M86.7440 45.9145
L86.6964 45.8193
" />
<path d="M86.6964 45.8193
L86.6488 45.7716
" />
<path d="M86.6488 45.7716
L86.5536 45.7240
" />
<path d="M86.5536 45.7240
L86.3631 45.7240
" />
<path d="M86.3631 45.7240
L86.2679 45.7716
" />
<path d="M86.2679 45.7716
L86.2202 45.8193
" />
<path d="M86.2202 45.8193
L86.1726 45.9145
" />
</g><text x="72.6012" y="21.3882"
textLength="2.9167" font-size="1.3333" lengthAdjust="spacingAndGlyphs"
text-anchor="middle" opacity="0">J19</text>
<g class="stroked-text"><desc>J19</desc>
<path d="M71.7917 20.3431
L71.7917 21.0574
" />
<path d="M71.7917 21.0574
L71.7440 21.2002
" />
<path d="M71.7440 21.2002
L71.6488 21.2954
" />
<path d="M71.6488 21.2954
L71.5060 21.3431
" />
<path d="M71.5060 21.3431
L71.4107 21.3431
" />
<path d="M72.7917 21.3431
L72.2202 21.3431
" />
<path d="M72.5060 21.3431
L72.5060 20.3431
" />
<path d="M72.5060 20.3431
L72.4107 20.4859
" />
<path d="M72.4107 20.4859
L72.3155 20.5812
" />
<path d="M72.3155 20.5812
L72.2202 20.6288
" />
<path d="M73.2679 21.3431
L73.4583 21.3431
" />
<path d="M73.4583 21.3431
L73.5536 21.2954
" />
<path d="M73.5536 21.2954
L73.6012 21.2478
" />
<path d="M73.6012 21.2478
L73.6964 21.1050
" />
<path d="M73.6964 21.1050
L73.7440 20.9145
" />
<path d="M73.7440 20.9145
L73.7440 20.5335
" />
<path d="M73.7440 20.5335
L73.6964 20.4383
" />
<path d="M73.6964 20.4383
L73.6488 20.3907
" />
<path d="M73.6488 20.3907
L73.5536 20.3431
" />
<path d="M73.5536 20.3431
L73.3631 20.3431
" />
<path d="M73.3631 20.3431
L73.2679 20.3907
" />
<path d="M73.2679 20.3907
L73.2202 20.4383
" />
<path d="M73.2202 20.4383
L73.1726 20.5335
" />
<path d="M73.1726 20.5335
L73.1726 20.7716
" />
<path d="M73.1726 20.7716
L73.2202 20.8669
" />
<path d="M73.2202 20.8669
L73.2679 20.9145
" />
<path d="M73.2679 20.9145
L73.3631 20.9621
" />
<path d="M73.3631 20.9621
L73.5536 20.9621
" />
<path d="M73.5536 20.9621
L73.6488 20.9145
" />
<path d="M73.6488 20.9145
L73.6964 20.8669
" />
<path d="M73.6964 20.8669
L73.7440 20.7716
" />
</g><text x="73.1012" y="48.8882"
textLength="2.9167" font-size="1.3333" lengthAdjust="spacingAndGlyphs"
text-anchor="middle" opacity="0">J13</text>
<g class="stroked-text"><desc>J13</desc>
<path d="M72.2917 47.8431
L72.2917 48.5574
" />
<path d="M72.2917 48.5574
L72.2440 48.7002
" />
<path d="M72.2440 48.7002
L72.1488 48.7954
" />
<path d="M72.1488 48.7954
L72.0060 48.8431
" />
<path d="M72.0060 48.8431
L71.9107 48.8431
" />
<path d="M73.2917 48.8431
L72.7202 48.8431
" />
<path d="M73.0060 48.8431
L73.0060 47.8431
" />
<path d="M73.0060 47.8431
L72.9107 47.9859
" />
<path d="M72.9107 47.9859
L72.8155 48.0812
" />
<path d="M72.8155 48.0812
L72.7202 48.1288
" />
<path d="M73.6250 47.8431
L74.2440 47.8431
" />
<path d="M74.2440 47.8431
L73.9107 48.2240
" />
<path d="M73.9107 48.2240
L74.0536 48.2240
" />
<path d="M74.0536 48.2240
L74.1488 48.2716
" />
<path d="M74.1488 48.2716
L74.1964 48.3193
" />
<path d="M74.1964 48.3193
L74.2440 48.4145
" />
<path d="M74.2440 48.4145
L74.2440 48.6526
" />
<path d="M74.2440 48.6526
L74.1964 48.7478
" />
<path d="M74.1964 48.7478
L74.1488 48.7954
" />
<path d="M74.1488 48.7954
L74.0536 48.8431
" />
<path d="M74.0536 48.8431
L73.7679 48.8431
" />
<path d="M73.7679 48.8431
L73.6726 48.7954
" />
<path d="M73.6726 48.7954
L73.6250 48.7478
" />
</g><text x="73.1012" y="40.3882"
textLength="2.9167" font-size="1.3333" lengthAdjust="spacingAndGlyphs"
text-anchor="middle" opacity="0">J15</text>
<g class="stroked-text"><desc>J15</desc>
<path d="M72.2917 39.3431
L72.2917 40.0574
" />
<path d="M72.2917 40.0574
L72.2440 40.2002
" />
<path d="M72.2440 40.2002
L72.1488 40.2954
" />
<path d="M72.1488 40.2954
L72.0060 40.3431
" />
<path d="M72.0060 40.3431
L71.9107 40.3431
" />
<path d="M73.2917 40.3431
L72.7202 40.3431
" />
<path d="M73.0060 40.3431
L73.0060 39.3431
" />
<path d="M73.0060 39.3431
L72.9107 39.4859
" />
<path d="M72.9107 39.4859
L72.8155 39.5812
" />
<path d="M72.8155 39.5812
L72.7202 39.6288
" />
<path d="M74.1964 39.3431
L73.7202 39.3431
" />
<path d="M73.7202 39.3431
L73.6726 39.8193
" />
<path d="M73.6726 39.8193
L73.7202 39.7716
" />
<path d="M73.7202 39.7716
L73.8155 39.7240
" />
<path d="M73.8155 39.7240
L74.0536 39.7240
" />
<path d="M74.0536 39.7240
L74.1488 39.7716
" />
<path d="M74.1488 39.7716
L74.1964 39.8193
" />
<path d="M74.1964 39.8193
L74.2440 39.9145
" />
<path d="M74.2440 39.9145
L74.2440 40.1526
" />
<path d="M74.2440 40.1526
L74.1964 40.2478
" />
<path d="M74.1964 40.2478
L74.1488 40.2954
" />
<path d="M74.1488 40.2954
L74.0536 40.3431
" />
<path d="M74.0536 40.3431
L73.8155 40.3431
" />
<path d="M73.8155 40.3431
L73.7202 40.2954
" />
<path d="M73.7202 40.2954
L73.6726 40.2478
" />
</g></g>
<g style="fill:none; 
stroke:#F2EDA1; stroke-width:0.1200; stroke-opacity:1; 
stroke-linecap:round; stroke-linejoin:round;">
<path d="M109.7712 49.8882
L111.1012 49.8882
" />
<path d="M109.7712 51.2182
L109.7712 49.8882
" />
<path d="M109.7712 52.4883
L109.7712 52.5482
" />
<path d="M109.7712 52.4883
L112.4312 52.4883
" />
<path d="M109.7712 52.5482
L112.4312 52.5482
" />
<path d="M112.4312 52.4883
L112.4312 52.5482
" />
<path d="M46.2712 28.8882
L47.6012 28.8882
" />
<path d="M46.2712 30.2182
L46.2712 28.8882
" />
<path d="M46.2712 31.4882
L46.2712 31.5482
" />
<path d="M46.2712 31.4882
L48.9312 31.4882
" />
<path d="M46.2712 31.5482
L48.9312 31.5482
" />
<path d="M48.9312 31.4882
L48.9312 31.5482
" />
<path d="M33.7712 40.8882
L35.1012 40.8882
" />
<path d="M33.7712 42.2182
L33.7712 40.8882
" />
<path d="M33.7712 43.4883
L33.7712 43.5482
" />
<path d="M33.7712 43.4883
L36.4312 43.4883
" />
<path d="M33.7712 43.5482
L36.4312 43.5482
" />
<path d="M36.4312 43.4883
L36.4312 43.5482
" />
<path d="M33.7712 49.8882
L35.1012 49.8882
" />
<path d="M33.7712 51.2182
L33.7712 49.8882
" />
<path d="M33.7712 52.4883
L33.7712 52.5482
" />
<path d="M33.7712 52.4883
L36.4312 52.4883
" />
<path d="M33.7712 52.5482
L36.4312 52.5482
" />
<path d="M36.4312 52.4883
L36.4312 52.5482
" />
<path d="M85.2712 56.3882
L86.6012 56.3882
" />
<path d="M85.2712 57.7182
L85.2712 56.3882
" />
<path d="M85.2712 58.9883
L85.2712 59.0482
" />
<path d="M85.2712 58.9883
L87.9312 58.9883
" />
<path d="M85.2712 59.0482
L87.9312 59.0482
" />
<path d="M87.9312 58.9883
L87.9312 59.0482
" />
<path d="M109.7712 40.8882
L111.1012 40.8882
" />
<path d="M109.7712 42.2182
L109.7712 40.8882
" />
<path d="M109.7712 43.4883
L109.7712 43.5482
" />
<path d="M109.7712 43.4883
L112.4312 43.4883
" />
<path d="M109.7712 43.5482
L112.4312 43.5482
" />
<path d="M112.4312 43.4883
L112.4312 43.5482
" />
<path d="M38.4162 2.9383
L39.4162 1.9382
" />
<path d="M38.4162 12.0682
L38.4162 2.9383
" />
<path d="M39.4162 1.9382
L77.7862 1.9382
" />
<path d="M77.7862 1.9382
L78.7862 2.9383
" />
<path d="M78.7862 2.9383
L78.7862 12.0682
" />
<path d="M78.7862 12.0682
L38.4162 12.0682
" />
<path d="M46.2712 46.8882
L47.6012 46.8882
" />
<path d="M46.2712 48.2182
L46.2712 46.8882
" />
<path d="M46.2712 49.4883
L46.2712 49.5482
" />
<path d="M46.2712 49.4883
L48.9312 49.4883
" />
<path d="M46.2712 49.5482
L48.9312 49.5482
" />
<path d="M48.9312 49.4883
L48.9312 49.5482
" />
<path d="M47.2712 56.3882
L48.6012 56.3882
" />
<path d="M47.2712 57.7182
L47.2712 56.3882
" />
<path d="M47.2712 58.9883
L47.2712 59.0482
" />
<path d="M47.2712 58.9883
L49.9312 58.9883
" />
<path d="M47.2712 59.0482
L49.9312 59.0482
" />
<path d="M49.9312 58.9883
L49.9312 59.0482
" />
<path d="M8.2712 28.8882
L9.6012 28.8882
" />
<path d="M8.2712 30.2182
L8.2712 28.8882
" />
<path d="M8.2712 31.4882
L8.2712 31.5482
" />
<path d="M8.2712 31.4882
L10.9312 31.4882
" />
<path d="M8.2712 31.5482
L10.9312 31.5482
" />
<path d="M10.9312 31.4882
L10.9312 31.5482
" />
<path d="M84.2712 28.8882
L85.6012 28.8882
" />
<path d="M84.2712 30.2182
L84.2712 28.8882
" />
<path d="M84.2712 31.4882
L84.2712 31.5482
" />
<path d="M84.2712 31.4882
L86.9312 31.4882
" />
<path d="M84.2712 31.5482
L86.9312 31.5482
" />
<path d="M86.9312 31.4882
L86.9312 31.5482
" />
<path d="M33.2712 21.8882
L34.6012 21.8882
" />
<path d="M33.2712 23.2182
L33.2712 21.8882
" />
<path d="M33.2712 24.4882
L33.2712 24.5482
" />
<path d="M33.2712 24.4882
L35.9312 24.4882
" />
<path d="M33.2712 24.5482
L35.9312 24.5482
" />
<path d="M35.9312 24.4882
L35.9312 24.5482
" />
<path d="M86.9312 40.4883
L86.9312 40.5482
" />
<path d="M84.2712 40.5482
L86.9312 40.5482
" />
<path d="M84.2712 40.4883
L86.9312 40.4883
" />
<path d="M84.2712 40.4883
L84.2712 40.5482
" />
<path d="M84.2712 39.2182
L84.2712 37.8882
" />
<path d="M84.2712 37.8882
L85.6012 37.8882
" />
<path d="M8.2712 37.8882
L9.6012 37.8882
" />
<path d="M8.2712 39.2182
L8.2712 37.8882
" />
<path d="M8.2712 40.4883
L8.2712 40.5482
" />
<path d="M8.2712 40.4883
L10.9312 40.4883
" />
<path d="M8.2712 40.5482
L10.9312 40.5482
" />
<path d="M10.9312 40.4883
L10.9312 40.5482
" />
<path d="M8.2712 46.8882
L9.6012 46.8882
" />
<path d="M8.2712 48.2182
L8.2712 46.8882
" />
<path d="M8.2712 49.4883
L8.2712 49.5482
" />
<path d="M8.2712 49.4883
L10.9312 49.4883
" />
<path d="M8.2712 49.5482
L10.9312 49.5482
" />
<path d="M10.9312 49.4883
L10.9312 49.5482
" />
<path d="M33.7712 31.8882
L35.1012 31.8882
" />
<path d="M33.7712 33.2182
L33.7712 31.8882
" />
<path d="M33.7712 34.4883
L33.7712 34.5482
" />
<path d="M33.7712 34.4883
L36.4312 34.4883
" />
<path d="M33.7712 34.5482
L36.4312 34.5482
" />
<path d="M36.4312 34.4883
L36.4312 34.5482
" />
<path d="M71.7712 31.8882
L73.1012 31.8882
" />
<path d="M71.7712 33.2182
L71.7712 31.8882
" />
<path d="M71.7712 34.4883
L71.7712 34.5482
" />
<path d="M71.7712 34.4883
L74.4312 34.4883
" />
<path d="M71.7712 34.5482
L74.4312 34.5482
" />
<path d="M74.4312 34.4883
L74.4312 34.5482
" />
<path d="M9.2712 56.3882
L10.6012 56.3882
" />
<path d="M9.2712 57.7182
L9.2712 56.3882
" />
<path d="M9.2712 58.9883
L9.2712 59.0482
" />
<path d="M9.2712 58.9883
L11.9312 58.9883
" />
<path d="M9.2712 59.0482
L11.9312 59.0482
" />
<path d="M11.9312 58.9883
L11.9312 59.0482
" />
<path d="M108.7712 21.8882
L110.1012 21.8882
" />
<path d="M108.7712 23.2182
L108.7712 21.8882
" />
<path d="M108.7712 24.4882
L108.7712 24.5482
" />
<path d="M108.7712 24.4882
L111.4312 24.4882
" />
<path d="M108.7712 24.5482
L111.4312 24.5482
" />
<path d="M111.4312 24.4882
L111.4312 24.5482
" />
<path d="M109.7712 31.8882
L111.1012 31.8882
" />
<path d="M109.7712 33.2182
L109.7712 31.8882
" />
<path d="M109.7712 34.4883
L109.7712 34.5482
" />
<path d="M109.7712 34.4883
L112.4312 34.4883
" />
<path d="M109.7712 34.5482
L112.4312 34.5482
" />
<path d="M112.4312 34.4883
L112.4312 34.5482
" />
<path d="M46.2712 37.8882
L47.6012 37.8882
" />
<path d="M46.2712 39.2182
L46.2712 37.8882
" />
<path d="M46.2712 40.4883
L46.2712 40.5482
" />
<path d="M46.2712 40.4883
L48.9312 40.4883
" />
<path d="M46.2712 40.5482
L48.9312 40.5482
" />
<path d="M48.9312 40.4883
L48.9312 40.5482
" />
<path d="M84.2712 46.8882
L85.6012 46.8882
" />
<path d="M84.2712 48.2182
L84.2712 46.8882
" />
<path d="M84.2712 49.4883
L84.2712 49.5482
" />
<path d="M84.2712 49.4883
L86.9312 49.4883
" />
<path d="M84.2712 49.5482
L86.9312 49.5482
" />
<path d="M86.9312 49.4883
L86.9312 49.5482
" />
<path d="M71.2712 21.8882
L72.6012 21.8882
" />
<path d="M71.2712 23.2182
L71.2712 21.8882
" />
<path d="M71.2712 24.4882
L71.2712 24.5482
" />
<path d="M71.2712 24.4882
L73.9312 24.4882
" />
<path d="M71.2712 24.5482
L73.9312 24.5482
" />
<path d="M73.9312 24.4882
L73.9312 24.5482
" />
<path d="M71.7712 49.3882
L73.1012 49.3882
" />
<path d="M71.7712 50.7182
L71.7712 49.3882
" />
<path d="M71.7712 51.9883
L71.7712 52.0482
" />
<path d="M71.7712 51.9883
L74.4312 51.9883
" />
<path d="M71.7712 52.0482
L74.4312 52.0482
" />
<path d="M74.4312 51.9883
L74.4312 52.0482
" />
<path d="M71.7712 40.8882
L73.1012 40.8882
" />
<path d="M71.7712 42.2182
L71.7712 40.8882
" />
<path d="M71.7712 43.4883
L71.7712 43.5482
" />
<path d="M71.7712 43.4883
L74.4312 43.4883
" />
<path d="M71.7712 43.5482
L74.4312 43.5482
" />
<path d="M74.4312 43.4883
L74.4312 43.5482
" />
</g>
<g style="fill:#FFFFFF; fill-opacity:1.0000; stroke:none;">
<circle cx="111.1012" cy="51.2182" r="0.5000" /> 
</g>
<g style="fill:#FFFFFF; fill-opacity:1.0000; stroke:none;">
<circle cx="47.6012" cy="30.2182" r="0.5000" /> 
</g>
<g style="fill:#FFFFFF; fill-opacity:1.0000; stroke:none;">
<circle cx="35.1012" cy="42.2182" r="0.5000" /> 
</g>
<g style="fill:#FFFFFF; fill-opacity:1.0000; stroke:none;">
<circle cx="35.1012" cy="51.2182" r="0.5000" /> 
</g>
<g style="fill:#FFFFFF; fill-opacity:1.0000; stroke:none;">
<circle cx="86.6012" cy="57.7182" r="0.5000" /> 
</g>
<g style="fill:#FFFFFF; fill-opacity:1.0000; stroke:none;">
<circle cx="111.1012" cy="42.2182" r="0.5000" /> 
</g>
<g style="fill:#FFFFFF; fill-opacity:1.0000; stroke:none;">
<circle cx="44.2612" cy="6.6482" r="1.5000" /> 
</g>
<g style="fill:#FFFFFF; fill-opacity:1.0000; stroke:none;">
<circle cx="72.9612" cy="6.6482" r="1.5000" /> 
</g>
<g style="fill:#FFFFFF; fill-opacity:1.0000; stroke:none;">
<circle cx="42.1012" cy="10.9682" r="0.5100" /> 
</g>
<g style="fill:#FFFFFF; fill-opacity:1.0000; stroke:none;">
<circle cx="45.1012" cy="10.9682" r="0.5100" /> 
</g>
<g style="fill:#FFFFFF; fill-opacity:1.0000; stroke:none;">
<circle cx="48.1012" cy="10.9682" r="0.5100" /> 
</g>
<g style="fill:#FFFFFF; fill-opacity:1.0000; stroke:none;">
<circle cx="51.1012" cy="10.9682" r="0.5100" /> 
</g>
<g style="fill:#FFFFFF; fill-opacity:1.0000; stroke:none;">
<circle cx="54.1012" cy="10.9682" r="0.5100" /> 
</g>
<g style="fill:#FFFFFF; fill-opacity:1.0000; stroke:none;">
<circle cx="57.1012" cy="10.9682" r="0.5100" /> 
</g>
<g style="fill:#FFFFFF; fill-opacity:1.0000; stroke:none;">
<circle cx="60.1012" cy="10.9682" r="0.5100" /> 
</g>
<g style="fill:#FFFFFF; fill-opacity:1.0000; stroke:none;">
<circle cx="63.1012" cy="10.9682" r="0.5100" /> 
</g>
<g style="fill:#FFFFFF; fill-opacity:1.0000; stroke:none;">
<circle cx="66.1012" cy="10.9682" r="0.5100" /> 
</g>
<g style="fill:#FFFFFF; fill-opacity:1.0000; stroke:none;">
<circle cx="69.1012" cy="10.9682" r="0.5100" /> 
</g>
<g style="fill:#FFFFFF; fill-opacity:1.0000; stroke:none;">
<circle cx="72.1012" cy="10.9682" r="0.5100" /> 
</g>
<g style="fill:#FFFFFF; fill-opacity:1.0000; stroke:none;">
<circle cx="75.1012" cy="10.9682" r="0.5100" /> 
</g>
<g style="fill:#FFFFFF; fill-opacity:1.0000; stroke:none;">
<circle cx="42.1012" cy="13.9682" r="0.5100" /> 
</g>
<g style="fill:#FFFFFF; fill-opacity:1.0000; stroke:none;">
<circle cx="45.1012" cy="13.9682" r="0.5100" /> 
</g>
<g style="fill:#FFFFFF; fill-opacity:1.0000; stroke:none;">
<circle cx="48.1012" cy="13.9682" r="0.5100" /> 
</g>
<g style="fill:#FFFFFF; fill-opacity:1.0000; stroke:none;">
<circle cx="51.1012" cy="13.9682" r="0.5100" /> 
</g>
<g style="fill:#FFFFFF; fill-opacity:1.0000; stroke:none;">
<circle cx="54.1012" cy="13.9682" r="0.5100" /> 
</g>
<g style="fill:#FFFFFF; fill-opacity:1.0000; stroke:none;">
<circle cx="57.1012" cy="13.9682" r="0.5100" /> 
</g>
<g style="fill:#FFFFFF; fill-opacity:1.0000; stroke:none;">
<circle cx="60.1012" cy="13.9682" r="0.5100" /> 
</g>
<g style="fill:#FFFFFF; fill-opacity:1.0000; stroke:none;">
<circle cx="63.1012" cy="13.9682" r="0.5100" /> 
</g>
<g style="fill:#FFFFFF; fill-opacity:1.0000; stroke:none;">
<circle cx="66.1012" cy="13.9682" r="0.5100" /> 
</g>
<g style="fill:#FFFFFF; fill-opacity:1.0000; stroke:none;">
<circle cx="69.1012" cy="13.9682" r="0.5100" /> 
</g>
<g style="fill:#FFFFFF; fill-opacity:1.0000; stroke:none;">
<circle cx="72.1012" cy="13.9682" r="0.5100" /> 
</g>
<g style="fill:#FFFFFF; fill-opacity:1.0000; stroke:none;">
<circle cx="75.1012" cy="13.9682" r="0.5100" /> 
</g>
<g style="fill:#FFFFFF; fill-opacity:1.0000; stroke:none;">
<circle cx="47.6012" cy="48.2182" r="0.5000" /> 
</g>
<g style="fill:#FFFFFF; fill-opacity:1.0000; stroke:none;">
<circle cx="48.6012" cy="57.7182" r="0.5000" /> 
</g>
<g style="fill:#FFFFFF; fill-opacity:1.0000; stroke:none;">
<circle cx="9.6012" cy="30.2182" r="0.5000" /> 
</g>
<g style="fill:#FFFFFF; fill-opacity:1.0000; stroke:none;">
<circle cx="85.6012" cy="30.2182" r="0.5000" /> 
</g>
<g style="fill:#FFFFFF; fill-opacity:1.0000; stroke:none;">
<circle cx="34.6012" cy="23.2182" r="0.5000" /> 
</g>
<g style="fill:#FFFFFF; fill-opacity:1.0000; stroke:none;">
<circle cx="85.6012" cy="39.2182" r="0.5000" /> 
</g>
<g style="fill:#FFFFFF; fill-opacity:1.0000; stroke:none;">
<circle cx="9.6012" cy="39.2182" r="0.5000" /> 
</g>
<g style="fill:#FFFFFF; fill-opacity:1.0000; stroke:none;">
<circle cx="9.6012" cy="48.2182" r="0.5000" /> 
</g>
<g style="fill:#FFFFFF; fill-opacity:1.0000; stroke:none;">
<circle cx="35.1012" cy="33.2182" r="0.5000" /> 
</g>
<g style="fill:#FFFFFF; fill-opacity:1.0000; stroke:none;">
<circle cx="73.1012" cy="33.2182" r="0.5000" /> 
</g>
<g style="fill:#FFFFFF; fill-opacity:1.0000; stroke:none;">
<circle cx="10.6012" cy="57.7182" r="0.5000" /> 
</g>
<g style="fill:#FFFFFF; fill-opacity:1.0000; stroke:none;">
<circle cx="110.1012" cy="23.2182" r="0.5000" /> 
</g>
<g style="fill:#FFFFFF; fill-opacity:1.0000; stroke:none;">
<circle cx="111.1012" cy="33.2182" r="0.5000" /> 
</g>
<g style="fill:#FFFFFF; fill-opacity:1.0000; stroke:none;">
<circle cx="47.6012" cy="39.2182" r="0.5000" /> 
</g>
<g style="fill:#FFFFFF; fill-opacity:1.0000; stroke:none;">
<circle cx="85.6012" cy="48.2182" r="0.5000" /> 
</g>
<g style="fill:#FFFFFF; fill-opacity:1.0000; stroke:none;">
<circle cx="72.6012" cy="23.2182" r="0.5000" /> 
</g>
<g style="fill:#FFFFFF; fill-opacity:1.0000; stroke:none;">
<circle cx="73.1012" cy="50.7182" r="0.5000" /> 
</g>
<g style="fill:#FFFFFF; fill-opacity:1.0000; stroke:none;">
<circle cx="73.1012" cy="42.2182" r="0.5000" /> 
<path style="fill:none; 
stroke:#D0D2CD; stroke-width:0.0500; stroke-opacity:1; 
stroke-linecap:round; stroke-linejoin:round;fill:none"
d="M 3.6012,8.7182
119.6012,8.7182
119.6012,62.7182
3.6012,62.7182
Z" /> 
</g> 
</svg>
