<?xml version="1.0" standalone="no"?>
 <!DOCTYPE svg PUBLIC "-//W3C//DTD SVG 1.1//EN" 
 "http://www.w3.org/Graphics/SVG/1.1/DTD/svg11.dtd"> 
<svg
  xmlns:svg="http://www.w3.org/2000/svg"
  xmlns="http://www.w3.org/2000/svg"
  xmlns:xlink="http://www.w3.org/1999/xlink"
  version="1.1"
  width="135.9916mm" height="75.9968mm" viewBox="0.0000 0.0000 135.9916 75.9968">
<title>SVG Image created as LowerPOGO-B_Cu.svg date 2024/05/21 13:44:24 </title>
  <desc>Image generated by PCBNEW </desc>
<g style="fill:#000000; fill-opacity:1.0000;stroke:#000000; stroke-opacity:1.0000;
stroke-linecap:round; stroke-linejoin:round;"
 transform="translate(0 0) scale(1 1)">
</g>
<g style="fill:#4D7FC4; fill-opacity:1.0000; stroke:none;">
<circle cx="78.6500" cy="14.2100" r="0.8500" /> 
<circle cx="76.1100" cy="14.2100" r="0.8500" /> 
<circle cx="73.5700" cy="14.2100" r="0.8500" /> 
<circle cx="71.0300" cy="14.2100" r="0.8500" /> 
<circle cx="68.4900" cy="14.2100" r="0.8500" /> 
<circle cx="65.9500" cy="14.2100" r="0.8500" /> 
<circle cx="63.4100" cy="14.2100" r="0.8500" /> 
<circle cx="60.8700" cy="14.2100" r="0.8500" /> 
<circle cx="58.3300" cy="14.2100" r="0.8500" /> 
<circle cx="55.7900" cy="14.2100" r="0.8500" /> 
<circle cx="53.2500" cy="14.2100" r="0.8500" /> 
<circle cx="50.7100" cy="14.2100" r="0.8500" /> 
<circle cx="78.6500" cy="16.7500" r="0.8500" /> 
<circle cx="76.1100" cy="16.7500" r="0.8500" /> 
<circle cx="73.5700" cy="16.7500" r="0.8500" /> 
<circle cx="71.0300" cy="16.7500" r="0.8500" /> 
<circle cx="68.4900" cy="16.7500" r="0.8500" /> 
<circle cx="65.9500" cy="16.7500" r="0.8500" /> 
<circle cx="63.4100" cy="16.7500" r="0.8500" /> 
<circle cx="60.8700" cy="16.7500" r="0.8500" /> 
<circle cx="58.3300" cy="16.7500" r="0.8500" /> 
<circle cx="55.7900" cy="16.7500" r="0.8500" /> 
<circle cx="53.2500" cy="16.7500" r="0.8500" /> 
<path style="fill:#4D7FC4; fill-opacity:1.0000; stroke:none;fill-rule:evenodd;"
d="M 49.8600,15.9000
51.5600,15.9000
51.5600,17.6000
49.8600,17.6000
Z" /> 
<circle cx="53.5000" cy="38.0000" r="1.7500" /> 
</g>
<g style="fill:#4D7FC4; fill-opacity:1.0000; stroke:none;">
<circle cx="41.0000" cy="50.0000" r="1.7500" /> 
</g>
<g style="fill:#4D7FC4; fill-opacity:1.0000; stroke:none;">
<circle cx="41.0000" cy="59.0000" r="1.7500" /> 
</g>
<g style="fill:#4D7FC4; fill-opacity:1.0000; stroke:none;">
<circle cx="92.5000" cy="65.5000" r="1.7500" /> 
</g>
<g style="fill:#4D7FC4; fill-opacity:1.0000; stroke:none;">
<circle cx="121.2500" cy="66.0000" r="1.8000" /> 
</g>
<g style="fill:#4D7FC4; fill-opacity:1.0000; stroke:none;">
<circle cx="121.2500" cy="66.0000" r="2.8000" /> 
</g>
<g style="fill:#4D7FC4; fill-opacity:1.0000; stroke:none;">
<circle cx="117.0000" cy="50.0000" r="1.7500" /> 
</g>
<g style="fill:#4D7FC4; fill-opacity:1.0000; stroke:none;">
<circle cx="13.7500" cy="21.0000" r="1.8000" /> 
</g>
<g style="fill:#4D7FC4; fill-opacity:1.0000; stroke:none;">
<circle cx="13.7500" cy="21.0000" r="2.8000" /> 
</g>
<g style="fill:#4D7FC4; fill-opacity:1.0000; stroke:none;">
<circle cx="121.2500" cy="21.0000" r="1.8000" /> 
</g>
<g style="fill:#4D7FC4; fill-opacity:1.0000; stroke:none;">
<circle cx="121.2500" cy="21.0000" r="2.8000" /> 
</g>
<g style="fill:#4D7FC4; fill-opacity:1.0000; stroke:none;">
<circle cx="44.0000" cy="66.0000" r="1.8000" /> 
</g>
<g style="fill:#4D7FC4; fill-opacity:1.0000; stroke:none;">
<circle cx="44.0000" cy="66.0000" r="2.8000" /> 
</g>
<g style="fill:#4D7FC4; fill-opacity:1.0000; stroke:none;">
<circle cx="53.5000" cy="56.0000" r="1.7500" /> 
</g>
<g style="fill:#4D7FC4; fill-opacity:1.0000; stroke:none;">
<circle cx="54.5000" cy="65.5000" r="1.7500" /> 
</g>
<g style="fill:#4D7FC4; fill-opacity:1.0000; stroke:none;">
<circle cx="15.5000" cy="38.0000" r="1.7500" /> 
</g>
<g style="fill:#4D7FC4; fill-opacity:1.0000; stroke:none;">
<circle cx="117.0000" cy="59.0000" r="1.7500" /> 
</g>
<g style="fill:#4D7FC4; fill-opacity:1.0000; stroke:none;">
<circle cx="91.5000" cy="38.0000" r="1.7500" /> 
</g>
<g style="fill:#4D7FC4; fill-opacity:1.0000; stroke:none;">
<circle cx="40.5000" cy="31.0000" r="1.7500" /> 
</g>
<g style="fill:#4D7FC4; fill-opacity:1.0000; stroke:none;">
<circle cx="91.5000" cy="47.0000" r="1.7500" /> 
</g>
<g style="fill:#4D7FC4; fill-opacity:1.0000; stroke:none;">
<circle cx="15.5000" cy="47.0000" r="1.7500" /> 
</g>
<g style="fill:#4D7FC4; fill-opacity:1.0000; stroke:none;">
<circle cx="15.5000" cy="56.0000" r="1.7500" /> 
</g>
<g style="fill:#4D7FC4; fill-opacity:1.0000; stroke:none;">
<circle cx="41.0000" cy="41.0000" r="1.7500" /> 
</g>
<g style="fill:#4D7FC4; fill-opacity:1.0000; stroke:none;">
<circle cx="79.0000" cy="41.0000" r="1.7500" /> 
</g>
<g style="fill:#4D7FC4; fill-opacity:1.0000; stroke:none;">
<circle cx="16.5000" cy="65.5000" r="1.7500" /> 
</g>
<g style="fill:#4D7FC4; fill-opacity:1.0000; stroke:none;">
<circle cx="116.0000" cy="31.0000" r="1.7500" /> 
</g>
<g style="fill:#4D7FC4; fill-opacity:1.0000; stroke:none;">
<circle cx="117.0000" cy="41.0000" r="1.7500" /> 
</g>
<g style="fill:#4D7FC4; fill-opacity:1.0000; stroke:none;">
<circle cx="53.5000" cy="47.0000" r="1.7500" /> 
</g>
<g style="fill:#4D7FC4; fill-opacity:1.0000; stroke:none;">
<circle cx="91.5000" cy="56.0000" r="1.7500" /> 
</g>
<g style="fill:#4D7FC4; fill-opacity:1.0000; stroke:none;">
<circle cx="78.5000" cy="31.0000" r="1.7500" /> 
</g>
<g style="fill:#4D7FC4; fill-opacity:1.0000; stroke:none;">
<circle cx="79.0000" cy="58.5000" r="1.7500" /> 
</g>
<g style="fill:#4D7FC4; fill-opacity:1.0000; stroke:none;">
<circle cx="79.0000" cy="50.0000" r="1.7500" /> 
</g>
<g style="fill:none; 
stroke:#4D7FC4; stroke-width:0.4000; stroke-opacity:1; 
stroke-linecap:round; stroke-linejoin:round;">
<path d="M52.0000 15.4600
L53.2500 14.2100
" />
<path d="M50.9500 18.8500
L52.0000 17.8000
" />
<path d="M19.9985 18.8500
L50.9500 18.8500
" />
<path d="M18.1000 20.7485
L19.9985 18.8500
" />
<path d="M52.0000 17.8000
L52.0000 15.4600
" />
<path d="M18.1000 44.4000
L18.1000 20.7485
" />
<path d="M15.5000 47.0000
L18.1000 44.4000
" />
<path d="M58.5000 52.0000
L58.5000 65.4150
" />
<path d="M69.7800 15.4600
L71.0300 14.2100
" />
<path d="M59.1600 66.0750
L69.7400 66.0750
" />
<path d="M70.6500 20.6500
L69.7800 19.7800
" />
<path d="M69.7800 19.7800
L69.7800 15.4600
" />
<path d="M53.5000 47.0000
L58.5000 52.0000
" />
<path d="M70.6500 65.1650
L70.6500 20.6500
" />
<path d="M58.5000 65.4150
L59.1600 66.0750
" />
<path d="M69.7400 66.0750
L70.6500 65.1650
" />
<path d="M18.7000 20.9971
L20.2471 19.4500
" />
<path d="M54.5000 15.5000
L55.7900 14.2100
" />
<path d="M54.5000 17.2678
L54.5000 15.5000
" />
<path d="M52.3178 19.4500
L54.5000 17.2678
" />
<path d="M15.5000 56.0000
L18.7000 52.8000
" />
<path d="M18.7000 52.8000
L18.7000 20.9971
" />
<path d="M20.2471 19.4500
L52.3178 19.4500
" />
<path d="M57.0400 17.2678
L57.0400 15.5000
" />
<path d="M19.3000 21.2456
L20.4956 20.0500
" />
<path d="M57.0400 15.5000
L58.3300 14.2100
" />
<path d="M19.3000 62.7000
L19.3000 21.2456
" />
<path d="M16.5000 65.5000
L19.3000 62.7000
" />
<path d="M54.5289 19.7789
L57.0400 17.2678
" />
<path d="M54.2578 20.0500
L54.5289 19.7789
" />
<path d="M20.4956 20.0500
L54.2578 20.0500
" />
<path d="M49.2500 16.7500
L49.2500 15.6700
" />
<path d="M17.5000 20.5000
L19.7500 18.2500
" />
<path d="M17.5000 36.0000
L17.5000 20.5000
" />
<path d="M47.7500 18.2500
L49.2500 16.7500
" />
<path d="M15.5000 38.0000
L17.5000 36.0000
" />
<path d="M19.7500 18.2500
L47.7500 18.2500
" />
<path d="M49.2500 15.6700
L50.7100 14.2100
" />
<path d="M47.6563 27.5000
L57.1563 18.0000
" />
<path d="M59.6200 15.4600
L60.8700 14.2100
" />
<path d="M44.0000 27.5000
L47.6563 27.5000
" />
<path d="M58.8478 18.0000
L59.6200 17.2278
" />
<path d="M40.5000 31.0000
L44.0000 27.5000
" />
<path d="M57.1563 18.0000
L58.8478 18.0000
" />
<path d="M59.6200 17.2278
L59.6200 15.4600
" />
<path d="M62.1200 15.5000
L63.4100 14.2100
" />
<path d="M60.7878 18.6000
L62.1200 17.2678
" />
<path d="M57.4048 18.6000
L60.7878 18.6000
" />
<path d="M62.1200 17.2678
L62.1200 15.5000
" />
<path d="M41.0000 41.0000
L41.0000 35.0048
" />
<path d="M41.0000 35.0048
L57.4048 18.6000
" />
<path d="M64.6600 15.5000
L65.9500 14.2100
" />
<path d="M62.7278 19.2000
L64.6600 17.2678
" />
<path d="M57.6534 19.2000
L62.7278 19.2000
" />
<path d="M53.5000 38.0000
L53.5000 23.3534
" />
<path d="M64.6600 17.2678
L64.6600 15.5000
" />
<path d="M53.5000 23.3534
L57.6534 19.2000
" />
<path d="M57.9019 19.8000
L64.6678 19.8000
" />
<path d="M64.6678 19.8000
L67.2000 17.2678
" />
<path d="M46.2500 50.0000
L56.5000 39.7500
" />
<path d="M67.2000 17.2678
L67.2000 15.5000
" />
<path d="M67.2000 15.5000
L68.4900 14.2100
" />
<path d="M41.0000 50.0000
L46.2500 50.0000
" />
<path d="M56.5000 39.7500
L56.5000 21.2019
" />
<path d="M56.5000 21.2019
L57.9019 19.8000
" />
<path d="M57.9000 52.2490
L57.9000 65.6630
" />
<path d="M72.3200 15.4600
L73.5700 14.2100
" />
<path d="M69.9130 66.7500
L71.2500 65.4130
" />
<path d="M57.9000 65.6630
L58.9870 66.7500
" />
<path d="M56.6510 51.0000
L57.9000 52.2490
" />
<path d="M58.9870 66.7500
L69.9130 66.7500
" />
<path d="M71.2500 23.5000
L72.3200 22.4300
" />
<path d="M43.7500 59.0000
L51.7500 51.0000
" />
<path d="M71.2500 65.4130
L71.2500 23.5000
" />
<path d="M41.0000 59.0000
L43.7500 59.0000
" />
<path d="M72.3200 22.4300
L72.3200 15.4600
" />
<path d="M51.7500 51.0000
L56.6510 51.0000
" />
<path d="M57.3000 59.8000
L57.3000 65.9120
" />
<path d="M58.7380 67.3500
L70.1620 67.3500
" />
<path d="M74.8422 20.7563
L74.8422 15.4778
" />
<path d="M74.8422 15.4778
L76.1100 14.2100
" />
<path d="M53.5000 56.0000
L57.3000 59.8000
" />
<path d="M71.8500 23.7485
L74.8422 20.7563
" />
<path d="M70.1620 67.3500
L71.8500 65.6620
" />
<path d="M57.3000 65.9120
L58.7380 67.3500
" />
<path d="M71.8500 65.6620
L71.8500 23.7485
" />
<path d="M70.4110 67.9500
L72.4500 65.9110
" />
<path d="M54.5000 65.5000
L56.9500 67.9500
" />
<path d="M77.3600 15.5000
L78.6500 14.2100
" />
<path d="M72.4500 24.0500
L77.3600 19.1400
" />
<path d="M56.9500 67.9500
L70.4110 67.9500
" />
<path d="M72.4500 65.9110
L72.4500 24.0500
" />
<path d="M77.3600 19.1400
L77.3600 15.5000
" />
<path style="fill:#4D7FC4; fill-opacity:1.0000; stroke:none;fill-rule:evenodd;"
d="M 80.2278,3.7722
80.2495,3.8245
80.2495,16.1782
80.2494,16.1804
80.2494,16.3159
80.2835,16.4432
80.2835,16.4432
80.2835,16.4432
80.3494,16.5573
80.4425,16.6505
80.5567,16.7164
80.6840,16.7505
80.6840,16.7505
80.6840,16.7505
80.6841,16.7505
80.8159,16.7505
124.9255,16.7505
124.9778,16.7722
124.9995,16.8245
124.9995,69.7886
124.9778,69.8409
124.9255,69.8626
10.0745,69.8626
10.0222,69.8409
10.0005,69.7886
10.0005,21.0000
10.5450,21.0000
10.5651,21.3589
10.5651,21.3589
10.6253,21.7132
10.7248,22.0586
10.8624,22.3906
10.8624,22.3906
11.0362,22.7052
11.0362,22.7052
11.2442,22.9983
11.3502,23.1169
12.4855,21.9817
12.5296,22.0423
12.7077,22.2204
12.7683,22.2645
11.6331,23.3998
11.7517,23.5058
12.0448,23.7138
12.0448,23.7138
12.3594,23.8876
12.3594,23.8876
12.6914,24.0252
13.0368,24.1247
13.0368,24.1247
13.3911,24.1849
13.3911,24.1849
13.7500,24.2050
14.1089,24.1849
14.1089,24.1849
14.4632,24.1247
14.8086,24.0252
15.1406,23.8876
15.1406,23.8876
15.4552,23.7138
15.4552,23.7138
15.7483,23.5058
15.8669,23.3998
15.8669,23.3998
14.7317,22.2645
14.7923,22.2204
14.9704,22.0423
15.0145,21.9817
16.1498,23.1169
16.1498,23.1169
16.2558,22.9983
16.4638,22.7052
16.4638,22.7052
16.6376,22.3906
16.6376,22.3906
16.7752,22.0586
16.8747,21.7132
16.9349,21.3589
16.9349,21.3589
16.9516,21.0610
16.9762,21.0100
17.0044,21.0001
16.9732,20.9872
16.9516,20.9390
16.9349,20.6411
16.9349,20.6411
16.8747,20.2868
16.7752,19.9414
16.6376,19.6094
16.6376,19.6094
16.4638,19.2948
16.4638,19.2948
16.2558,19.0017
16.1498,18.8831
16.1498,18.8831
15.0145,20.0183
14.9704,19.9577
14.7923,19.7796
14.7317,19.7355
15.8669,18.6002
15.7483,18.4942
15.4552,18.2862
15.4552,18.2862
15.1406,18.1124
15.1406,18.1124
14.8086,17.9748
14.4632,17.8753
14.4632,17.8753
14.1089,17.8151
14.1089,17.8151
13.7500,17.7950
13.3911,17.8151
13.3911,17.8151
13.0368,17.8753
12.6914,17.9748
12.3594,18.1124
12.3594,18.1124
12.0448,18.2862
12.0448,18.2862
11.7517,18.4942
11.6331,18.6002
12.7683,19.7355
12.7077,19.7796
12.5296,19.9577
12.4855,20.0183
11.3502,18.8831
11.2442,19.0017
11.0362,19.2948
11.0362,19.2948
10.8624,19.6094
10.8624,19.6094
10.7248,19.9414
10.6253,20.2868
10.5651,20.6411
10.5651,20.6411
10.5450,21.0000
10.0005,21.0000
10.0005,16.8245
10.0222,16.7722
10.0745,16.7505
48.5045,16.7505
48.5568,16.7722
48.5785,16.8245
48.5568,16.8768
47.6058,17.8278
47.5535,17.8495
19.8073,17.8495
19.8073,17.8495
19.8027,17.8495
19.6973,17.8495
19.6973,17.8495
19.5954,17.8768
19.5954,17.8768
19.5041,17.9295
19.4295,18.0041
17.1795,20.2541
17.1268,20.3454
17.1268,20.3454
17.1059,20.4232
17.1059,20.4232
17.0995,20.4473
17.0995,20.9349
17.0778,20.9872
17.0474,20.9998
17.0807,21.0158
17.0995,21.0651
17.0995,35.8035
17.0778,35.8558
16.6103,36.3233
16.5579,36.3450
16.5225,36.3360
16.3123,36.2212
16.3123,36.2212
16.0509,36.1237
16.0509,36.1237
16.0509,36.1237
15.9588,36.1037
15.7783,36.0644
15.5000,36.0445
15.5000,36.0445
15.2217,36.0644
14.9491,36.1237
14.9491,36.1237
14.6877,36.2212
14.4428,36.3549
14.2194,36.5221
14.0221,36.7194
13.8549,36.9428
13.7212,37.1877
13.6237,37.4491
13.6237,37.4491
13.5644,37.7217
13.5445,38.0000
13.5445,38.0000
13.5644,38.2783
13.6237,38.5509
13.6237,38.5509
13.7212,38.8123
13.8549,39.0572
13.8655,39.0714
14.0221,39.2806
14.2194,39.4779
14.3869,39.6033
14.4428,39.6451
14.6877,39.7788
14.9491,39.8763
14.9491,39.8763
14.9491,39.8763
15.2217,39.9356
15.2835,39.9400
15.5000,39.9555
15.5000,39.9555
15.5000,39.9555
15.6948,39.9415
15.7783,39.9356
16.0509,39.8763
16.0509,39.8763
16.0509,39.8763
16.3123,39.7788
16.4210,39.7194
16.5572,39.6451
16.7806,39.4779
16.9779,39.2806
17.1451,39.0572
17.2788,38.8123
17.2788,38.8123
17.2788,38.8123
17.3763,38.5509
17.3763,38.5509
17.3763,38.5509
17.4356,38.2783
17.4555,38.0000
17.4555,38.0000
17.4356,37.7217
17.4356,37.7217
17.3763,37.4491
17.3763,37.4491
17.3763,37.4491
17.2788,37.1877
17.1640,36.9775
17.1580,36.9212
17.1766,36.8897
17.5732,36.4932
17.6255,36.4715
17.6778,36.4932
17.6995,36.5455
17.6995,44.2035
17.6778,44.2558
16.6103,45.3233
16.5579,45.3450
16.5225,45.3360
16.3123,45.2212
16.3123,45.2212
16.0509,45.1237
16.0509,45.1237
16.0509,45.1237
15.9960,45.1118
15.7783,45.0644
15.5000,45.0445
15.5000,45.0445
15.2217,45.0644
14.9491,45.1237
14.9491,45.1237
14.6877,45.2212
14.4428,45.3549
14.2194,45.5221
14.0221,45.7194
13.8549,45.9428
13.7212,46.1877
13.6237,46.4491
13.6237,46.4491
13.5644,46.7217
13.5445,47.0000
13.5445,47.0000
13.5644,47.2783
13.6237,47.5509
13.6237,47.5509
13.7212,47.8123
13.8549,48.0572
13.8947,48.1103
14.0221,48.2806
14.2194,48.4779
14.3869,48.6033
14.4428,48.6451
14.6877,48.7788
14.9491,48.8763
14.9491,48.8763
14.9491,48.8763
15.2217,48.9356
15.2835,48.9400
15.5000,48.9555
15.5000,48.9555
15.5000,48.9555
15.6948,48.9415
15.7783,48.9356
16.0509,48.8763
16.0509,48.8763
16.0509,48.8763
16.3123,48.7788
16.4210,48.7194
16.5572,48.6451
16.7806,48.4779
16.9779,48.2806
17.1451,48.0572
17.2788,47.8123
17.2788,47.8123
17.2788,47.8123
17.3763,47.5509
17.3763,47.5509
17.3763,47.5509
17.4356,47.2783
17.4555,47.0000
17.4555,47.0000
17.4356,46.7217
17.4356,46.7217
17.3763,46.4491
17.3763,46.4491
17.3763,46.4491
17.2788,46.1877
17.1640,45.9775
17.1580,45.9212
17.1766,45.8897
18.1732,44.8932
18.2255,44.8715
18.2778,44.8932
18.2995,44.9455
18.2995,52.6035
18.2778,52.6558
16.6103,54.3233
16.5579,54.3450
16.5225,54.3360
16.3123,54.2212
16.3123,54.2212
16.0509,54.1237
16.0509,54.1237
16.0509,54.1237
15.9960,54.1118
15.7783,54.0644
15.5000,54.0445
15.5000,54.0445
15.2217,54.0644
14.9491,54.1237
14.9491,54.1237
14.6877,54.2212
14.4428,54.3549
14.2194,54.5221
14.0221,54.7194
13.8549,54.9428
13.7212,55.1877
13.6237,55.4491
13.6237,55.4491
13.5644,55.7217
13.5445,56.0000
13.5445,56.0000
13.5644,56.2783
13.6237,56.5509
13.6237,56.5509
13.7212,56.8123
13.8549,57.0572
13.8947,57.1103
14.0221,57.2806
14.2194,57.4779
14.3869,57.6033
14.4428,57.6451
14.6877,57.7788
14.9491,57.8763
14.9491,57.8763
14.9491,57.8763
15.2217,57.9356
15.2835,57.9400
15.5000,57.9555
15.5000,57.9555
15.5000,57.9555
15.6948,57.9415
15.7783,57.9356
16.0509,57.8763
16.0509,57.8763
16.0509,57.8763
16.3123,57.7788
16.4210,57.7194
16.5572,57.6451
16.7806,57.4779
16.9779,57.2806
17.1451,57.0572
17.2788,56.8123
17.2788,56.8123
17.2788,56.8123
17.3763,56.5509
17.3763,56.5509
17.3763,56.5509
17.4356,56.2783
17.4555,56.0000
17.4555,56.0000
17.4356,55.7217
17.4356,55.7217
17.3763,55.4491
17.3763,55.4491
17.3763,55.4491
17.2788,55.1877
17.1640,54.9775
17.1580,54.9212
17.1766,54.8897
18.7732,53.2932
18.8255,53.2715
18.8778,53.2932
18.8995,53.3455
18.8995,62.5035
18.8778,62.5558
17.6103,63.8233
17.5579,63.8450
17.5225,63.8360
17.3123,63.7212
17.3123,63.7212
17.0509,63.6237
17.0509,63.6237
17.0509,63.6237
16.9428,63.6002
16.7783,63.5644
16.5000,63.5445
16.5000,63.5445
16.2217,63.5644
15.9491,63.6237
15.9491,63.6237
15.6877,63.7212
15.4428,63.8549
15.2194,64.0221
15.0221,64.2194
14.8549,64.4428
14.7212,64.6877
14.6237,64.9491
14.6237,64.9491
14.5644,65.2217
14.5445,65.5000
14.5445,65.5000
14.5644,65.7783
14.6237,66.0509
14.6237,66.0509
14.7212,66.3123
14.8549,66.5572
14.8947,66.6103
15.0221,66.7806
15.2194,66.9779
15.3056,67.0423
15.4428,67.1451
15.6877,67.2788
15.9491,67.3763
15.9491,67.3763
15.9491,67.3763
16.2217,67.4356
16.2835,67.4400
16.5000,67.4555
16.5000,67.4555
16.5000,67.4555
16.6948,67.4415
16.7783,67.4356
17.0509,67.3763
17.0509,67.3763
17.0509,67.3763
17.3123,67.2788
17.5336,67.1580
17.5572,67.1451
17.7806,66.9779
17.9779,66.7806
18.1451,66.5572
18.2788,66.3123
18.2788,66.3123
18.2788,66.3123
18.3763,66.0509
18.3763,66.0509
18.3763,66.0509
18.3873,66.0000
40.7950,66.0000
40.8151,66.3589
40.8151,66.3589
40.8753,66.7132
40.9748,67.0586
41.1124,67.3906
41.1124,67.3906
41.2862,67.7052
41.2862,67.7052
41.4942,67.9983
41.6002,68.1169
42.7355,66.9817
42.7796,67.0423
42.9577,67.2204
43.0183,67.2645
41.8831,68.3998
42.0017,68.5058
42.2948,68.7138
42.2948,68.7138
42.6094,68.8876
42.6094,68.8876
42.9414,69.0252
43.2868,69.1247
43.2868,69.1247
43.6411,69.1849
43.6411,69.1849
44.0000,69.2050
44.3589,69.1849
44.3589,69.1849
44.7132,69.1247
45.0586,69.0252
45.3906,68.8876
45.3906,68.8876
45.7052,68.7138
45.7052,68.7138
45.9983,68.5058
46.1169,68.3998
46.1169,68.3998
44.9817,67.2645
45.0423,67.2204
45.2204,67.0423
45.2645,66.9817
46.3998,68.1169
46.3998,68.1169
46.5058,67.9983
46.7138,67.7052
46.7138,67.7052
46.8876,67.3906
46.8876,67.3906
47.0252,67.0586
47.1247,66.7132
47.1849,66.3589
47.1849,66.3589
47.2050,66.0000
47.1849,65.6411
47.1849,65.6411
47.1247,65.2868
47.0252,64.9414
46.8876,64.6094
46.8876,64.6094
46.7138,64.2948
46.7138,64.2948
46.5058,64.0017
46.3998,63.8831
46.3998,63.8831
45.2645,65.0183
45.2204,64.9577
45.0423,64.7796
44.9817,64.7355
46.1169,63.6002
45.9983,63.4942
45.7052,63.2862
45.7052,63.2862
45.3906,63.1124
45.3906,63.1124
45.0586,62.9748
44.7132,62.8753
44.7132,62.8753
44.3589,62.8151
44.3589,62.8151
44.0000,62.7950
43.6411,62.8151
43.6411,62.8151
43.2868,62.8753
42.9414,62.9748
42.6094,63.1124
42.6094,63.1124
42.2948,63.2862
42.2948,63.2862
42.0017,63.4942
41.8831,63.6002
43.0183,64.7355
42.9577,64.7796
42.7796,64.9577
42.7355,65.0183
41.6002,63.8831
41.4942,64.0017
41.2862,64.2948
41.2862,64.2948
41.1124,64.6094
41.1124,64.6094
40.9748,64.9414
40.8753,65.2868
40.8151,65.6411
40.8151,65.6411
40.7950,66.0000
18.3873,66.0000
18.4356,65.7783
18.4506,65.5682
18.4555,65.5000
18.4555,65.5000
18.4356,65.2217
18.4247,65.1718
18.3763,64.9491
18.3763,64.9491
18.3763,64.9491
18.2788,64.6877
18.2788,64.6877
18.1640,64.4775
18.1580,64.4212
18.1766,64.3897
19.6205,62.9459
19.6732,62.8546
19.7005,62.7527
19.7005,62.6473
19.7005,21.4421
19.7222,21.3898
20.0510,21.0610
20.4482,20.6638
20.5005,20.6421
20.5529,20.6638
20.5745,20.7161
20.5646,20.7531
20.5336,20.8068
20.5336,20.8068
20.4995,20.9341
20.4995,65.5409
20.5336,65.6682
20.5336,65.6682
20.5336,65.6682
20.5995,65.7823
20.6927,65.8755
20.8068,65.9414
20.9341,65.9755
20.9341,65.9755
20.9341,65.9755
34.5159,65.9755
34.5159,65.9755
34.6432,65.9414
34.7573,65.8755
34.8505,65.7823
34.9164,65.6682
34.9505,65.5409
34.9505,65.5409
34.9505,20.9341
34.9505,20.9341
34.9270,20.8465
34.9164,20.8068
34.8505,20.6927
34.7573,20.5995
34.7384,20.5886
34.7039,20.5437
34.7113,20.4875
34.7563,20.4530
34.7754,20.4505
53.9607,20.4505
54.0131,20.4722
54.0347,20.5245
54.0131,20.5768
47.5121,27.0778
47.4597,27.0995
43.9473,27.0995
43.8454,27.1268
43.8454,27.1268
43.7541,27.1795
41.6103,29.3233
41.5579,29.3450
41.5225,29.3360
41.3123,29.2212
41.3123,29.2212
41.0509,29.1237
41.0509,29.1237
41.0509,29.1237
40.9960,29.1118
40.7783,29.0644
40.5000,29.0445
40.5000,29.0445
40.2217,29.0644
39.9491,29.1237
39.9491,29.1237
39.6877,29.2212
39.4428,29.3549
39.2194,29.5221
39.0221,29.7194
38.8549,29.9428
38.7212,30.1877
38.6237,30.4491
38.6237,30.4491
38.5644,30.7217
38.5445,31.0000
38.5445,31.0000
38.5644,31.2783
38.6237,31.5509
38.6237,31.5509
38.7212,31.8123
38.8549,32.0572
38.9385,32.1689
39.0221,32.2806
39.2194,32.4779
39.3869,32.6033
39.4428,32.6451
39.6877,32.7788
39.9491,32.8763
39.9491,32.8763
39.9491,32.8763
40.2217,32.9356
40.2835,32.9400
40.5000,32.9555
40.5000,32.9555
40.5000,32.9555
40.6948,32.9415
40.7783,32.9356
41.0509,32.8763
41.0509,32.8763
41.0509,32.8763
41.3123,32.7788
41.5572,32.6451
41.5572,32.6451
41.5572,32.6451
41.7806,32.4779
41.9779,32.2806
42.1451,32.0572
42.2788,31.8123
42.2788,31.8123
42.2788,31.8123
42.3763,31.5509
42.3763,31.5509
42.3763,31.5509
42.4356,31.2783
42.4555,31.0000
42.4555,31.0000
42.4356,30.7217
42.4356,30.7217
42.3763,30.4491
42.3763,30.4491
42.3763,30.4491
42.2788,30.1877
42.1640,29.9775
42.1580,29.9212
42.1766,29.8897
44.1442,27.9222
44.1965,27.9005
47.3593,27.9005
47.4116,27.9222
47.4333,27.9745
47.4116,28.0268
40.6795,34.7589
40.6268,34.8502
40.6268,34.8502
40.5995,34.9521
40.5995,39.0314
40.5778,39.0837
40.5412,39.1037
40.4491,39.1237
40.4491,39.1237
40.1877,39.2212
39.9428,39.3549
39.7194,39.5221
39.5221,39.7194
39.3549,39.9428
39.2212,40.1877
39.1237,40.4491
39.1237,40.4491
39.0644,40.7217
39.0445,41.0000
39.0445,41.0000
39.0644,41.2783
39.1237,41.5509
39.1237,41.5509
39.2212,41.8123
39.3549,42.0572
39.4385,42.1689
39.5221,42.2806
39.7194,42.4779
39.8869,42.6033
39.9428,42.6451
40.1877,42.7788
40.4491,42.8763
40.4491,42.8763
40.4491,42.8763
40.7217,42.9356
40.7835,42.9400
41.0000,42.9555
41.0000,42.9555
41.0000,42.9555
41.1948,42.9415
41.2783,42.9356
41.5509,42.8763
41.5509,42.8763
41.5509,42.8763
41.8123,42.7788
42.0572,42.6451
42.0572,42.6451
42.0572,42.6451
42.2806,42.4779
42.4779,42.2806
42.6451,42.0572
42.7788,41.8123
42.7788,41.8123
42.7788,41.8123
42.8763,41.5509
42.8763,41.5509
42.8763,41.5509
42.9356,41.2783
42.9555,41.0000
42.9555,41.0000
42.9356,40.7217
42.9356,40.7217
42.8763,40.4491
42.8763,40.4491
42.8763,40.4491
42.7788,40.1877
42.6451,39.9428
42.5953,39.8763
42.4779,39.7194
42.2806,39.5221
42.1689,39.4385
42.0572,39.3549
41.8123,39.2212
41.5509,39.1237
41.5509,39.1237
41.5509,39.1237
41.4588,39.1037
41.4122,39.0714
41.4005,39.0314
41.4005,35.2014
41.4222,35.1490
52.9732,23.5980
53.0255,23.5764
53.0778,23.5980
53.0995,23.6504
53.0995,36.0314
53.0778,36.0837
53.0412,36.1037
52.9491,36.1237
52.9491,36.1237
52.6877,36.2212
52.4428,36.3549
52.2194,36.5221
52.0221,36.7194
51.8549,36.9428
51.7212,37.1877
51.6237,37.4491
51.6237,37.4491
51.5644,37.7217
51.5445,38.0000
51.5445,38.0000
51.5644,38.2783
51.6237,38.5509
51.6237,38.5509
51.7212,38.8123
51.8549,39.0572
51.8655,39.0714
52.0221,39.2806
52.2194,39.4779
52.3869,39.6033
52.4428,39.6451
52.6877,39.7788
52.9491,39.8763
52.9491,39.8763
52.9491,39.8763
53.2217,39.9356
53.2835,39.9400
53.5000,39.9555
53.5000,39.9555
53.5000,39.9555
53.6948,39.9415
53.7783,39.9356
54.0509,39.8763
54.0509,39.8763
54.0509,39.8763
54.3123,39.7788
54.4210,39.7194
54.5572,39.6451
54.7806,39.4779
54.9779,39.2806
55.1451,39.0572
55.2788,38.8123
55.2788,38.8123
55.2788,38.8123
55.3763,38.5509
55.3763,38.5509
55.3763,38.5509
55.4356,38.2783
55.4555,38.0000
55.4555,38.0000
55.4356,37.7217
55.4356,37.7217
55.3763,37.4491
55.3763,37.4491
55.3763,37.4491
55.2788,37.1877
55.1451,36.9428
55.1033,36.8869
54.9779,36.7194
54.7806,36.5221
54.6689,36.4385
54.5572,36.3549
54.3123,36.2212
54.0509,36.1237
54.0509,36.1237
54.0509,36.1237
53.9588,36.1037
53.9122,36.0714
53.9005,36.0314
53.9005,23.5499
53.9222,23.4976
55.9732,21.4466
56.0255,21.4249
56.0778,21.4466
56.0995,21.4989
56.0995,39.5535
56.0778,39.6058
46.1058,49.5778
46.0535,49.5995
42.9686,49.5995
42.9163,49.5778
42.8963,49.5412
42.8953,49.5364
42.8763,49.4491
42.8763,49.4491
42.8763,49.4491
42.7788,49.1877
42.6451,48.9428
42.5223,48.7788
42.4779,48.7194
42.2806,48.5221
42.1689,48.4385
42.0572,48.3549
41.8123,48.2212
41.5509,48.1237
41.5509,48.1237
41.5509,48.1237
41.4890,48.1103
41.2783,48.0644
41.0000,48.0445
41.0000,48.0445
40.7217,48.0644
40.4491,48.1237
40.4491,48.1237
40.1877,48.2212
39.9428,48.3549
39.7194,48.5221
39.5221,48.7194
39.3549,48.9428
39.2212,49.1877
39.1237,49.4491
39.1237,49.4491
39.0644,49.7217
39.0445,50.0000
39.0445,50.0000
39.0644,50.2783
39.1237,50.5509
39.1237,50.5509
39.2212,50.8123
39.3549,51.0572
39.4385,51.1689
39.5221,51.2806
39.7194,51.4779
39.8869,51.6033
39.9428,51.6451
40.1877,51.7788
40.4491,51.8763
40.4491,51.8763
40.4491,51.8763
40.7217,51.9356
40.7835,51.9400
41.0000,51.9555
41.0000,51.9555
41.0000,51.9555
41.1948,51.9415
41.2783,51.9356
41.5509,51.8763
41.5509,51.8763
41.5509,51.8763
41.8123,51.7788
41.8575,51.7541
42.0572,51.6451
42.2806,51.4779
42.4779,51.2806
42.6451,51.0572
42.7788,50.8123
42.7788,50.8123
42.7788,50.8123
42.8763,50.5509
42.8763,50.5509
42.8763,50.5509
42.8963,50.4588
42.9286,50.4122
42.9686,50.4005
46.3027,50.4005
46.3027,50.4005
46.4046,50.3732
46.4959,50.3205
56.8205,39.9959
56.8732,39.9046
56.9005,39.8027
56.9005,39.6973
56.9005,21.3984
56.9222,21.3461
58.0461,20.2222
58.0984,20.2005
64.7205,20.2005
64.7205,20.2005
64.8224,20.1732
64.9137,20.1205
67.5205,17.5137
67.5650,17.4365
67.6099,17.4021
67.6661,17.4095
67.6863,17.4266
67.7428,17.4954
67.7436,17.4964
67.9035,17.6277
68.0860,17.7252
68.2841,17.7853
68.4900,17.8056
68.6959,17.7853
68.8940,17.7252
69.0764,17.6277
69.2364,17.4964
69.2483,17.4819
69.2982,17.4552
69.3524,17.4717
69.3791,17.5216
69.3795,17.5289
69.3795,19.7273
69.3795,19.8327
69.4068,19.9346
69.4068,19.9346
69.4595,20.0259
69.4595,20.0259
69.4595,20.0259
70.2278,20.7942
70.2495,20.8465
70.2495,64.9685
70.2278,65.0208
70.0768,65.1718
70.0245,65.1935
69.9722,65.1718
69.9505,65.1195
69.9505,20.9341
69.9505,20.9341
69.9270,20.8465
69.9164,20.8068
69.8505,20.6927
69.7573,20.5995
69.7416,20.5904
69.6432,20.5336
69.6432,20.5336
69.5159,20.4995
69.5159,20.4995
59.5159,20.4995
59.3841,20.4995
59.3841,20.4995
59.2568,20.5336
59.2568,20.5336
59.1427,20.5995
59.0495,20.6927
58.9836,20.8068
58.9836,20.8068
58.9495,20.9341
58.9495,51.7045
58.9278,51.7568
58.8755,51.7785
58.8232,51.7568
55.1767,48.1103
55.1550,48.0579
55.1640,48.0225
55.2788,47.8123
55.3763,47.5509
55.3763,47.5509
55.3763,47.5509
55.4356,47.2783
55.4555,47.0000
55.4555,47.0000
55.4356,46.7217
55.4356,46.7217
55.3763,46.4491
55.3763,46.4491
55.3763,46.4491
55.2788,46.1877
55.1451,45.9428
55.1033,45.8869
54.9779,45.7194
54.7806,45.5221
54.5695,45.3641
54.5572,45.3549
54.3123,45.2212
54.0509,45.1237
54.0509,45.1237
54.0509,45.1237
53.9960,45.1118
53.7783,45.0644
53.5000,45.0445
53.5000,45.0445
53.2217,45.0644
52.9491,45.1237
52.9491,45.1237
52.6877,45.2212
52.4428,45.3549
52.2194,45.5221
52.0221,45.7194
51.8549,45.9428
51.7212,46.1877
51.6237,46.4491
51.6237,46.4491
51.5644,46.7217
51.5445,47.0000
51.5445,47.0000
51.5644,47.2783
51.6237,47.5509
51.6237,47.5509
51.7212,47.8123
51.8549,48.0572
51.8947,48.1103
52.0221,48.2806
52.2194,48.4779
52.3869,48.6033
52.4428,48.6451
52.6877,48.7788
52.9491,48.8763
52.9491,48.8763
52.9491,48.8763
53.2217,48.9356
53.2835,48.9400
53.5000,48.9555
53.5000,48.9555
53.5000,48.9555
53.6948,48.9415
53.7783,48.9356
54.0509,48.8763
54.0509,48.8763
54.0509,48.8763
54.3123,48.7788
54.5225,48.6640
54.5788,48.6580
54.6103,48.6767
56.4068,50.4732
56.4285,50.5255
56.4068,50.5778
56.3545,50.5995
51.6973,50.5995
51.5954,50.6268
51.5954,50.6268
51.5041,50.6795
43.6058,58.5778
43.5535,58.5995
42.9686,58.5995
42.9163,58.5778
42.8963,58.5412
42.8873,58.5000
42.8763,58.4491
42.8763,58.4491
42.8763,58.4491
42.7788,58.1877
42.6451,57.9428
42.5223,57.7788
42.4779,57.7194
42.2806,57.5221
42.1689,57.4385
42.0572,57.3549
41.8123,57.2212
41.5509,57.1237
41.5509,57.1237
41.5509,57.1237
41.4890,57.1103
41.2783,57.0644
41.0000,57.0445
41.0000,57.0445
40.7217,57.0644
40.4491,57.1237
40.4491,57.1237
40.1877,57.2212
39.9428,57.3549
39.7194,57.5221
39.5221,57.7194
39.3549,57.9428
39.2212,58.1877
39.1237,58.4491
39.1237,58.4491
39.0644,58.7217
39.0445,59.0000
39.0445,59.0000
39.0644,59.2783
39.1237,59.5509
39.1237,59.5509
39.2212,59.8123
39.3549,60.0572
39.4207,60.1451
39.5221,60.2806
39.7194,60.4779
39.8869,60.6033
39.9428,60.6451
40.1877,60.7788
40.4491,60.8763
40.4491,60.8763
40.4491,60.8763
40.7217,60.9356
40.7835,60.9400
41.0000,60.9555
41.0000,60.9555
41.0000,60.9555
41.1948,60.9415
41.2783,60.9356
41.5509,60.8763
41.5509,60.8763
41.5509,60.8763
41.8123,60.7788
42.0572,60.6451
42.0572,60.6451
42.0572,60.6451
42.2806,60.4779
42.4779,60.2806
42.6451,60.0572
42.7788,59.8123
42.7788,59.8123
42.7788,59.8123
42.8763,59.5509
42.8763,59.5509
42.8763,59.5509
42.8963,59.4588
42.9286,59.4122
42.9686,59.4005
43.8027,59.4005
43.8027,59.4005
43.9046,59.3732
43.9959,59.3205
51.8942,51.4222
51.9465,51.4005
56.4545,51.4005
56.5068,51.4222
57.4778,52.3932
57.4995,52.4455
57.4995,59.2545
57.4778,59.3068
57.4255,59.3285
57.3732,59.3068
55.1766,57.1103
55.1550,57.0579
55.1640,57.0225
55.2788,56.8123
55.3128,56.7212
55.3763,56.5509
55.3763,56.5509
55.3763,56.5509
55.4356,56.2783
55.4555,56.0000
55.4555,56.0000
55.4356,55.7217
55.4356,55.7217
55.3763,55.4491
55.3763,55.4491
55.3763,55.4491
55.2788,55.1877
55.1451,54.9428
55.1033,54.8869
54.9779,54.7194
54.7806,54.5221
54.5695,54.3641
54.5572,54.3549
54.3123,54.2212
54.0509,54.1237
54.0509,54.1237
54.0509,54.1237
53.9960,54.1118
53.7783,54.0644
53.5000,54.0445
53.5000,54.0445
53.2217,54.0644
52.9491,54.1237
52.9491,54.1237
52.6877,54.2212
52.4428,54.3549
52.2194,54.5221
52.0221,54.7194
51.8549,54.9428
51.7212,55.1877
51.6237,55.4491
51.6237,55.4491
51.5644,55.7217
51.5445,56.0000
51.5445,56.0000
51.5644,56.2783
51.6237,56.5509
51.6237,56.5509
51.7212,56.8123
51.8549,57.0572
51.8947,57.1103
52.0221,57.2806
52.2194,57.4779
52.3869,57.6033
52.4428,57.6451
52.6877,57.7788
52.9491,57.8763
52.9491,57.8763
52.9491,57.8763
53.2217,57.9356
53.2835,57.9400
53.5000,57.9555
53.5000,57.9555
53.5000,57.9555
53.6948,57.9415
53.7783,57.9356
54.0509,57.8763
54.0509,57.8763
54.0509,57.8763
54.3123,57.7788
54.3123,57.7788
54.3123,57.7788
54.5225,57.6640
54.5788,57.6580
54.6103,57.6766
56.8778,59.9442
56.8995,59.9965
56.8995,65.8593
56.8995,65.9647
56.9226,66.0509
56.9268,66.0666
56.9268,66.0666
56.9795,66.1579
56.9795,66.1579
56.9795,66.1579
57.6602,66.8386
58.2448,67.4232
58.2665,67.4755
58.2448,67.5278
58.1925,67.5495
57.1465,67.5495
57.0942,67.5278
56.1767,66.6103
56.1550,66.5579
56.1640,66.5225
56.2183,66.4231
56.2788,66.3123
56.2788,66.3123
56.2788,66.3123
56.3763,66.0509
56.3763,66.0509
56.3763,66.0509
56.4356,65.7783
56.4506,65.5682
56.4555,65.5000
56.4555,65.5000
56.4356,65.2217
56.4247,65.1718
56.3763,64.9491
56.3763,64.9491
56.3763,64.9491
56.2788,64.6877
56.1451,64.4428
56.0343,64.2948
55.9779,64.2194
55.7806,64.0221
55.6689,63.9385
55.5572,63.8549
55.3123,63.7212
55.0509,63.6237
55.0509,63.6237
55.0509,63.6237
54.9428,63.6002
54.7783,63.5644
54.5000,63.5445
54.5000,63.5445
54.2217,63.5644
53.9491,63.6237
53.9491,63.6237
53.6877,63.7212
53.4428,63.8549
53.2194,64.0221
53.0221,64.2194
52.8549,64.4428
52.7212,64.6877
52.6237,64.9491
52.6237,64.9491
52.5644,65.2217
52.5445,65.5000
52.5445,65.5000
52.5644,65.7783
52.6237,66.0509
52.6237,66.0509
52.7212,66.3123
52.8549,66.5572
52.8947,66.6103
53.0221,66.7806
53.2194,66.9779
53.3056,67.0423
53.4428,67.1451
53.6877,67.2788
53.9491,67.3763
53.9491,67.3763
53.9491,67.3763
54.2217,67.4356
54.2835,67.4400
54.5000,67.4555
54.5000,67.4555
54.5000,67.4555
54.6948,67.4415
54.7783,67.4356
55.0509,67.3763
55.0509,67.3763
55.0509,67.3763
55.3123,67.2788
55.5225,67.1640
55.5788,67.1580
55.6103,67.1767
56.7041,68.2705
56.7954,68.3232
56.8973,68.3505
56.8973,68.3505
70.4637,68.3505
70.4637,68.3505
70.5656,68.3232
70.6569,68.2705
72.7705,66.1569
72.8232,66.0656
72.8505,65.9637
72.8505,65.9637
72.8505,65.5000
90.5445,65.5000
90.5445,65.5000
90.5644,65.7783
90.6237,66.0509
90.6237,66.0509
90.7212,66.3123
90.8549,66.5572
90.8947,66.6103
91.0221,66.7806
91.2194,66.9779
91.3056,67.0423
91.4428,67.1451
91.6877,67.2788
91.9491,67.3763
91.9491,67.3763
91.9491,67.3763
92.2217,67.4356
92.2835,67.4400
92.5000,67.4555
92.5000,67.4555
92.5000,67.4555
92.6948,67.4415
92.7783,67.4356
93.0509,67.3763
93.0509,67.3763
93.0509,67.3763
93.3123,67.2788
93.5336,67.1580
93.5572,67.1451
93.7806,66.9779
93.9779,66.7806
94.1451,66.5572
94.2788,66.3123
94.2788,66.3123
94.2788,66.3123
94.3763,66.0509
94.3763,66.0509
94.3763,66.0509
94.3873,66.0000
118.0450,66.0000
118.0651,66.3589
118.0651,66.3589
118.1253,66.7132
118.2248,67.0586
118.3624,67.3906
118.3624,67.3906
118.5362,67.7052
118.5362,67.7052
118.7442,67.9983
118.8502,68.1169
119.9855,66.9817
120.0296,67.0423
120.2077,67.2204
120.2683,67.2645
119.1331,68.3998
119.2517,68.5058
119.5448,68.7138
119.5448,68.7138
119.8594,68.8876
119.8594,68.8876
120.1914,69.0252
120.5368,69.1247
120.5368,69.1247
120.8911,69.1849
120.8911,69.1849
121.2500,69.2050
121.6089,69.1849
121.6089,69.1849
121.9632,69.1247
122.3086,69.0252
122.6406,68.8876
122.6406,68.8876
122.9552,68.7138
122.9552,68.7138
123.2483,68.5058
123.3669,68.3998
123.3669,68.3998
122.2317,67.2645
122.2923,67.2204
122.4704,67.0423
122.5145,66.9817
123.6498,68.1169
123.6498,68.1169
123.7558,67.9983
123.9638,67.7052
123.9638,67.7052
124.1376,67.3906
124.1376,67.3906
124.2752,67.0586
124.3747,66.7132
124.4349,66.3589
124.4349,66.3589
124.4550,66.0000
124.4349,65.6411
124.4349,65.6411
124.3747,65.2868
124.2752,64.9414
124.1376,64.6094
124.1376,64.6094
123.9638,64.2948
123.9638,64.2948
123.7558,64.0017
123.6498,63.8831
123.6498,63.8831
122.5145,65.0183
122.4704,64.9577
122.2923,64.7796
122.2317,64.7355
123.3669,63.6002
123.2483,63.4942
122.9552,63.2862
122.9552,63.2862
122.6406,63.1124
122.6406,63.1124
122.3086,62.9748
121.9632,62.8753
121.9632,62.8753
121.6089,62.8151
121.6089,62.8151
121.2500,62.7950
120.8911,62.8151
120.8911,62.8151
120.5368,62.8753
120.1914,62.9748
119.8594,63.1124
119.8594,63.1124
119.5448,63.2862
119.5448,63.2862
119.2517,63.4942
119.1331,63.6002
120.2683,64.7355
120.2077,64.7796
120.0296,64.9577
119.9855,65.0183
118.8502,63.8831
118.7442,64.0017
118.5362,64.2948
118.5362,64.2948
118.3624,64.6094
118.3624,64.6094
118.2248,64.9414
118.1253,65.2868
118.0651,65.6411
118.0651,65.6411
118.0450,66.0000
94.3873,66.0000
94.4356,65.7783
94.4506,65.5682
94.4555,65.5000
94.4555,65.5000
94.4356,65.2217
94.4247,65.1718
94.3763,64.9491
94.3763,64.9491
94.3763,64.9491
94.2788,64.6877
94.1451,64.4428
94.0343,64.2948
93.9779,64.2194
93.7806,64.0221
93.6689,63.9385
93.5572,63.8549
93.3123,63.7212
93.0509,63.6237
93.0509,63.6237
93.0509,63.6237
92.9428,63.6002
92.7783,63.5644
92.5000,63.5445
92.5000,63.5445
92.2217,63.5644
91.9491,63.6237
91.9491,63.6237
91.6877,63.7212
91.4428,63.8549
91.2194,64.0221
91.0221,64.2194
90.8549,64.4428
90.7212,64.6877
90.6237,64.9491
90.6237,64.9491
90.5644,65.2217
90.5445,65.5000
72.8505,65.5000
72.8505,58.5000
77.0445,58.5000
77.0445,58.5000
77.0644,58.7783
77.1237,59.0509
77.1237,59.0509
77.2212,59.3123
77.3549,59.5572
77.4385,59.6689
77.5221,59.7806
77.7194,59.9779
77.8869,60.1033
77.9428,60.1451
78.1877,60.2788
78.4491,60.3763
78.4491,60.3763
78.4491,60.3763
78.7217,60.4356
78.7835,60.4400
79.0000,60.4555
79.0000,60.4555
79.0000,60.4555
79.1948,60.4415
79.2783,60.4356
79.5509,60.3763
79.5509,60.3763
79.5509,60.3763
79.8123,60.2788
80.0572,60.1451
80.0572,60.1451
80.0572,60.1451
80.2806,59.9779
80.4779,59.7806
80.6451,59.5572
80.7788,59.3123
80.7788,59.3123
80.7788,59.3123
80.8763,59.0509
80.8763,59.0509
80.8763,59.0509
80.9356,58.7783
80.9499,58.5778
80.9555,58.5000
80.9555,58.5000
80.9356,58.2217
80.9282,58.1877
80.8763,57.9491
80.8763,57.9491
80.8763,57.9491
80.7788,57.6877
80.6451,57.4428
80.5236,57.2806
80.4779,57.2194
80.2806,57.0221
80.1689,56.9385
80.0572,56.8549
79.8123,56.7212
79.5509,56.6237
79.5509,56.6237
79.5509,56.6237
79.4960,56.6118
79.2783,56.5644
79.0000,56.5445
79.0000,56.5445
78.7217,56.5644
78.4491,56.6237
78.4491,56.6237
78.1877,56.7212
77.9428,56.8549
77.7194,57.0221
77.5221,57.2194
77.3549,57.4428
77.2212,57.6877
77.1237,57.9491
77.1237,57.9491
77.0644,58.2217
77.0445,58.5000
72.8505,58.5000
72.8505,56.0000
89.5445,56.0000
89.5445,56.0000
89.5644,56.2783
89.6237,56.5509
89.6237,56.5509
89.7212,56.8123
89.8549,57.0572
89.8947,57.1103
90.0221,57.2806
90.2194,57.4779
90.3869,57.6033
90.4428,57.6451
90.6877,57.7788
90.9491,57.8763
90.9491,57.8763
90.9491,57.8763
91.2217,57.9356
91.2835,57.9400
91.5000,57.9555
91.5000,57.9555
91.5000,57.9555
91.6948,57.9415
91.7783,57.9356
92.0509,57.8763
92.0509,57.8763
92.0509,57.8763
92.3123,57.7788
92.4210,57.7194
92.5572,57.6451
92.7806,57.4779
92.9779,57.2806
93.1451,57.0572
93.2788,56.8123
93.2788,56.8123
93.2788,56.8123
93.3763,56.5509
93.3763,56.5509
93.3763,56.5509
93.4356,56.2783
93.4555,56.0000
93.4555,56.0000
93.4356,55.7217
93.4356,55.7217
93.3763,55.4491
93.3763,55.4491
93.3763,55.4491
93.2788,55.1877
93.1451,54.9428
93.1033,54.8869
92.9779,54.7194
92.7806,54.5221
92.5695,54.3641
92.5572,54.3549
92.3123,54.2212
92.0509,54.1237
92.0509,54.1237
92.0509,54.1237
91.9960,54.1118
91.7783,54.0644
91.5000,54.0445
91.5000,54.0445
91.2217,54.0644
90.9491,54.1237
90.9491,54.1237
90.6877,54.2212
90.4428,54.3549
90.2194,54.5221
90.0221,54.7194
89.8549,54.9428
89.7212,55.1877
89.6237,55.4491
89.6237,55.4491
89.5644,55.7217
89.5445,56.0000
72.8505,56.0000
72.8505,50.0000
77.0445,50.0000
77.0445,50.0000
77.0644,50.2783
77.1237,50.5509
77.1237,50.5509
77.2212,50.8123
77.3549,51.0572
77.4385,51.1689
77.5221,51.2806
77.7194,51.4779
77.8869,51.6033
77.9428,51.6451
78.1877,51.7788
78.4491,51.8763
78.4491,51.8763
78.4491,51.8763
78.7217,51.9356
78.7835,51.9400
79.0000,51.9555
79.0000,51.9555
79.0000,51.9555
79.1948,51.9415
79.2783,51.9356
79.5509,51.8763
79.5509,51.8763
79.5509,51.8763
79.8123,51.7788
79.8575,51.7541
80.0572,51.6451
80.2806,51.4779
80.4779,51.2806
80.6451,51.0572
80.7788,50.8123
80.7788,50.8123
80.7788,50.8123
80.8763,50.5509
80.8763,50.5509
80.8763,50.5509
80.9356,50.2783
80.9555,50.0000
80.9555,50.0000
80.9356,49.7217
80.9356,49.7217
80.8763,49.4491
80.8763,49.4491
80.8763,49.4491
80.7788,49.1877
80.6451,48.9428
80.5223,48.7788
80.4779,48.7194
80.2806,48.5221
80.1689,48.4385
80.0572,48.3549
79.8123,48.2212
79.5509,48.1237
79.5509,48.1237
79.5509,48.1237
79.4890,48.1103
79.2783,48.0644
79.0000,48.0445
79.0000,48.0445
78.7217,48.0644
78.4491,48.1237
78.4491,48.1237
78.1877,48.2212
77.9428,48.3549
77.7194,48.5221
77.5221,48.7194
77.3549,48.9428
77.2212,49.1877
77.1237,49.4491
77.1237,49.4491
77.0644,49.7217
77.0445,50.0000
72.8505,50.0000
72.8505,47.0000
89.5445,47.0000
89.5445,47.0000
89.5644,47.2783
89.6237,47.5509
89.6237,47.5509
89.7212,47.8123
89.8549,48.0572
89.8947,48.1103
90.0221,48.2806
90.2194,48.4779
90.3869,48.6033
90.4428,48.6451
90.6877,48.7788
90.9491,48.8763
90.9491,48.8763
90.9491,48.8763
91.2217,48.9356
91.2835,48.9400
91.5000,48.9555
91.5000,48.9555
91.5000,48.9555
91.6948,48.9415
91.7783,48.9356
92.0509,48.8763
92.0509,48.8763
92.0509,48.8763
92.3123,48.7788
92.4210,48.7194
92.5572,48.6451
92.7806,48.4779
92.9779,48.2806
93.1451,48.0572
93.2788,47.8123
93.2788,47.8123
93.2788,47.8123
93.3763,47.5509
93.3763,47.5509
93.3763,47.5509
93.4356,47.2783
93.4555,47.0000
93.4555,47.0000
93.4356,46.7217
93.4356,46.7217
93.3763,46.4491
93.3763,46.4491
93.3763,46.4491
93.2788,46.1877
93.1451,45.9428
93.1033,45.8869
92.9779,45.7194
92.7806,45.5221
92.5695,45.3641
92.5572,45.3549
92.3123,45.2212
92.0509,45.1237
92.0509,45.1237
92.0509,45.1237
91.9960,45.1118
91.7783,45.0644
91.5000,45.0445
91.5000,45.0445
91.2217,45.0644
90.9491,45.1237
90.9491,45.1237
90.6877,45.2212
90.4428,45.3549
90.2194,45.5221
90.0221,45.7194
89.8549,45.9428
89.7212,46.1877
89.6237,46.4491
89.6237,46.4491
89.5644,46.7217
89.5445,47.0000
72.8505,47.0000
72.8505,41.0000
77.0445,41.0000
77.0445,41.0000
77.0644,41.2783
77.1237,41.5509
77.1237,41.5509
77.2212,41.8123
77.3549,42.0572
77.4385,42.1689
77.5221,42.2806
77.7194,42.4779
77.8869,42.6033
77.9428,42.6451
78.1877,42.7788
78.4491,42.8763
78.4491,42.8763
78.4491,42.8763
78.7217,42.9356
78.7835,42.9400
79.0000,42.9555
79.0000,42.9555
79.0000,42.9555
79.1948,42.9415
79.2783,42.9356
79.5509,42.8763
79.5509,42.8763
79.5509,42.8763
79.8123,42.7788
80.0572,42.6451
80.0572,42.6451
80.0572,42.6451
80.2806,42.4779
80.4779,42.2806
80.6451,42.0572
80.7788,41.8123
80.7788,41.8123
80.7788,41.8123
80.8763,41.5509
80.8763,41.5509
80.8763,41.5509
80.9356,41.2783
80.9555,41.0000
80.9555,41.0000
80.9356,40.7217
80.9356,40.7217
80.8763,40.4491
80.8763,40.4491
80.8763,40.4491
80.7788,40.1877
80.6451,39.9428
80.5953,39.8763
80.4779,39.7194
80.2806,39.5221
80.1689,39.4385
80.0572,39.3549
79.8123,39.2212
79.5509,39.1237
79.5509,39.1237
79.5509,39.1237
79.4588,39.1037
79.2783,39.0644
79.0000,39.0445
79.0000,39.0445
78.7217,39.0644
78.4491,39.1237
78.4491,39.1237
78.1877,39.2212
77.9428,39.3549
77.7194,39.5221
77.5221,39.7194
77.3549,39.9428
77.2212,40.1877
77.1237,40.4491
77.1237,40.4491
77.0644,40.7217
77.0445,41.0000
72.8505,41.0000
72.8505,38.0000
89.5445,38.0000
89.5445,38.0000
89.5644,38.2783
89.6237,38.5509
89.6237,38.5509
89.7212,38.8123
89.8549,39.0572
89.8655,39.0714
90.0221,39.2806
90.2194,39.4779
90.3869,39.6033
90.4428,39.6451
90.6877,39.7788
90.9491,39.8763
90.9491,39.8763
90.9491,39.8763
91.2217,39.9356
91.2835,39.9400
91.5000,39.9555
91.5000,39.9555
91.5000,39.9555
91.6948,39.9415
91.7783,39.9356
92.0509,39.8763
92.0509,39.8763
92.0509,39.8763
92.3123,39.7788
92.4210,39.7194
92.5572,39.6451
92.7806,39.4779
92.9779,39.2806
93.1451,39.0572
93.2788,38.8123
93.2788,38.8123
93.2788,38.8123
93.3763,38.5509
93.3763,38.5509
93.3763,38.5509
93.4356,38.2783
93.4555,38.0000
93.4555,38.0000
93.4356,37.7217
93.4356,37.7217
93.3763,37.4491
93.3763,37.4491
93.3763,37.4491
93.2788,37.1877
93.1451,36.9428
93.1033,36.8869
92.9779,36.7194
92.7806,36.5221
92.6689,36.4385
92.5572,36.3549
92.3123,36.2212
92.0509,36.1237
92.0509,36.1237
92.0509,36.1237
91.9588,36.1037
91.7783,36.0644
91.5000,36.0445
91.5000,36.0445
91.2217,36.0644
90.9491,36.1237
90.9491,36.1237
90.6877,36.2212
90.4428,36.3549
90.2194,36.5221
90.0221,36.7194
89.8549,36.9428
89.7212,37.1877
89.6237,37.4491
89.6237,37.4491
89.5644,37.7217
89.5445,38.0000
72.8505,38.0000
72.8505,31.0000
76.5445,31.0000
76.5445,31.0000
76.5644,31.2783
76.6237,31.5509
76.6237,31.5509
76.7212,31.8123
76.8549,32.0572
76.9385,32.1689
77.0221,32.2806
77.2194,32.4779
77.3869,32.6033
77.4428,32.6451
77.6877,32.7788
77.9491,32.8763
77.9491,32.8763
77.9491,32.8763
78.2217,32.9356
78.2835,32.9400
78.5000,32.9555
78.5000,32.9555
78.5000,32.9555
78.6948,32.9415
78.7783,32.9356
79.0509,32.8763
79.0509,32.8763
79.0509,32.8763
79.3123,32.7788
79.5572,32.6451
79.5572,32.6451
79.5572,32.6451
79.7806,32.4779
79.9779,32.2806
80.1451,32.0572
80.2788,31.8123
80.2788,31.8123
80.2788,31.8123
80.3763,31.5509
80.3763,31.5509
80.3763,31.5509
80.4356,31.2783
80.4555,31.0000
80.4555,31.0000
80.4356,30.7217
80.4356,30.7217
80.3763,30.4491
80.3763,30.4491
80.3763,30.4491
80.2788,30.1877
80.1451,29.9428
80.1033,29.8869
79.9779,29.7194
79.7806,29.5221
79.5695,29.3641
79.5572,29.3549
79.3123,29.2212
79.0509,29.1237
79.0509,29.1237
79.0509,29.1237
78.9960,29.1118
78.7783,29.0644
78.5000,29.0445
78.5000,29.0445
78.2217,29.0644
77.9491,29.1237
77.9491,29.1237
77.6877,29.2212
77.4428,29.3549
77.2194,29.5221
77.0221,29.7194
76.8549,29.9428
76.7212,30.1877
76.6237,30.4491
76.6237,30.4491
76.5644,30.7217
76.5445,31.0000
72.8505,31.0000
72.8505,24.2465
72.8722,24.1942
76.1323,20.9341
96.4995,20.9341
96.4995,65.4409
96.5336,65.5682
96.5336,65.5682
96.5913,65.6682
96.5995,65.6823
96.6927,65.7755
96.8068,65.8414
96.9341,65.8755
96.9341,65.8755
96.9341,65.8755
107.0659,65.8755
107.0659,65.8755
107.1932,65.8414
107.3073,65.7755
107.4005,65.6823
107.4664,65.5682
107.5005,65.4409
107.5005,65.4409
107.5005,59.0000
115.0445,59.0000
115.0445,59.0000
115.0644,59.2783
115.1237,59.5509
115.1237,59.5509
115.2212,59.8123
115.3549,60.0572
115.4207,60.1451
115.5221,60.2806
115.7194,60.4779
115.8869,60.6033
115.9428,60.6451
116.1877,60.7788
116.4491,60.8763
116.4491,60.8763
116.4491,60.8763
116.7217,60.9356
116.7835,60.9400
117.0000,60.9555
117.0000,60.9555
117.0000,60.9555
117.1948,60.9415
117.2783,60.9356
117.5509,60.8763
117.5509,60.8763
117.5509,60.8763
117.8123,60.7788
118.0572,60.6451
118.0572,60.6451
118.0572,60.6451
118.2806,60.4779
118.4779,60.2806
118.6451,60.0572
118.7788,59.8123
118.7788,59.8123
118.7788,59.8123
118.8763,59.5509
118.8763,59.5509
118.8763,59.5509
118.9356,59.2783
118.9518,59.0509
118.9555,59.0000
118.9555,59.0000
118.9356,58.7217
118.9356,58.7217
118.8763,58.4491
118.8763,58.4491
118.8763,58.4491
118.7788,58.1877
118.6451,57.9428
118.5223,57.7788
118.4779,57.7194
118.2806,57.5221
118.1689,57.4385
118.0572,57.3549
117.8123,57.2212
117.5509,57.1237
117.5509,57.1237
117.5509,57.1237
117.4890,57.1103
117.2783,57.0644
117.0000,57.0445
117.0000,57.0445
116.7217,57.0644
116.4491,57.1237
116.4491,57.1237
116.1877,57.2212
115.9428,57.3549
115.7194,57.5221
115.5221,57.7194
115.3549,57.9428
115.2212,58.1877
115.1237,58.4491
115.1237,58.4491
115.0644,58.7217
115.0445,59.0000
107.5005,59.0000
107.5005,50.0000
115.0445,50.0000
115.0445,50.0000
115.0644,50.2783
115.1237,50.5509
115.1237,50.5509
115.2212,50.8123
115.3549,51.0572
115.4385,51.1689
115.5221,51.2806
115.7194,51.4779
115.8869,51.6033
115.9428,51.6451
116.1877,51.7788
116.4491,51.8763
116.4491,51.8763
116.4491,51.8763
116.7217,51.9356
116.7835,51.9400
117.0000,51.9555
117.0000,51.9555
117.0000,51.9555
117.1948,51.9415
117.2783,51.9356
117.5509,51.8763
117.5509,51.8763
117.5509,51.8763
117.8123,51.7788
117.8575,51.7541
118.0572,51.6451
118.2806,51.4779
118.4779,51.2806
118.6451,51.0572
118.7788,50.8123
118.7788,50.8123
118.7788,50.8123
118.8763,50.5509
118.8763,50.5509
118.8763,50.5509
118.9356,50.2783
118.9555,50.0000
118.9555,50.0000
118.9356,49.7217
118.9356,49.7217
118.8763,49.4491
118.8763,49.4491
118.8763,49.4491
118.7788,49.1877
118.6451,48.9428
118.5223,48.7788
118.4779,48.7194
118.2806,48.5221
118.1689,48.4385
118.0572,48.3549
117.8123,48.2212
117.5509,48.1237
117.5509,48.1237
117.5509,48.1237
117.4890,48.1103
117.2783,48.0644
117.0000,48.0445
117.0000,48.0445
116.7217,48.0644
116.4491,48.1237
116.4491,48.1237
116.1877,48.2212
115.9428,48.3549
115.7194,48.5221
115.5221,48.7194
115.3549,48.9428
115.2212,49.1877
115.1237,49.4491
115.1237,49.4491
115.0644,49.7217
115.0445,50.0000
107.5005,50.0000
107.5005,41.0000
115.0445,41.0000
115.0445,41.0000
115.0644,41.2783
115.1237,41.5509
115.1237,41.5509
115.2212,41.8123
115.3549,42.0572
115.4385,42.1689
115.5221,42.2806
115.7194,42.4779
115.8869,42.6033
115.9428,42.6451
116.1877,42.7788
116.4491,42.8763
116.4491,42.8763
116.4491,42.8763
116.7217,42.9356
116.7835,42.9400
117.0000,42.9555
117.0000,42.9555
117.0000,42.9555
117.1948,42.9415
117.2783,42.9356
117.5509,42.8763
117.5509,42.8763
117.5509,42.8763
117.8123,42.7788
118.0572,42.6451
118.0572,42.6451
118.0572,42.6451
118.2806,42.4779
118.4779,42.2806
118.6451,42.0572
118.7788,41.8123
118.7788,41.8123
118.7788,41.8123
118.8763,41.5509
118.8763,41.5509
118.8763,41.5509
118.9356,41.2783
118.9555,41.0000
118.9555,41.0000
118.9356,40.7217
118.9356,40.7217
118.8763,40.4491
118.8763,40.4491
118.8763,40.4491
118.7788,40.1877
118.6451,39.9428
118.5953,39.8763
118.4779,39.7194
118.2806,39.5221
118.1689,39.4385
118.0572,39.3549
117.8123,39.2212
117.5509,39.1237
117.5509,39.1237
117.5509,39.1237
117.4588,39.1037
117.2783,39.0644
117.0000,39.0445
117.0000,39.0445
116.7217,39.0644
116.4491,39.1237
116.4491,39.1237
116.1877,39.2212
115.9428,39.3549
115.7194,39.5221
115.5221,39.7194
115.3549,39.9428
115.2212,40.1877
115.1237,40.4491
115.1237,40.4491
115.0644,40.7217
115.0445,41.0000
107.5005,41.0000
107.5005,31.0000
114.0445,31.0000
114.0445,31.0000
114.0644,31.2783
114.1237,31.5509
114.1237,31.5509
114.2212,31.8123
114.3549,32.0572
114.4385,32.1689
114.5221,32.2806
114.7194,32.4779
114.8869,32.6033
114.9428,32.6451
115.1877,32.7788
115.4491,32.8763
115.4491,32.8763
115.4491,32.8763
115.7217,32.9356
115.7835,32.9400
116.0000,32.9555
116.0000,32.9555
116.0000,32.9555
116.1948,32.9415
116.2783,32.9356
116.5509,32.8763
116.5509,32.8763
116.5509,32.8763
116.8123,32.7788
117.0572,32.6451
117.0572,32.6451
117.0572,32.6451
117.2806,32.4779
117.4779,32.2806
117.6451,32.0572
117.7788,31.8123
117.7788,31.8123
117.7788,31.8123
117.8763,31.5509
117.8763,31.5509
117.8763,31.5509
117.9356,31.2783
117.9555,31.0000
117.9555,31.0000
117.9356,30.7217
117.9356,30.7217
117.8763,30.4491
117.8763,30.4491
117.8763,30.4491
117.7788,30.1877
117.6451,29.9428
117.6033,29.8869
117.4779,29.7194
117.2806,29.5221
117.0695,29.3641
117.0572,29.3549
116.8123,29.2212
116.5509,29.1237
116.5509,29.1237
116.5509,29.1237
116.4960,29.1118
116.2783,29.0644
116.0000,29.0445
116.0000,29.0445
115.7217,29.0644
115.4491,29.1237
115.4491,29.1237
115.1877,29.2212
114.9428,29.3549
114.7194,29.5221
114.5221,29.7194
114.3549,29.9428
114.2212,30.1877
114.1237,30.4491
114.1237,30.4491
114.0644,30.7217
114.0445,31.0000
107.5005,31.0000
107.5005,21.0000
118.0450,21.0000
118.0651,21.3589
118.0651,21.3589
118.1253,21.7132
118.2248,22.0586
118.3624,22.3906
118.3624,22.3906
118.5362,22.7052
118.5362,22.7052
118.7442,22.9983
118.8502,23.1169
119.9855,21.9817
120.0296,22.0423
120.2077,22.2204
120.2683,22.2645
119.1331,23.3998
119.2517,23.5058
119.5448,23.7138
119.5448,23.7138
119.8594,23.8876
119.8594,23.8876
120.1914,24.0252
120.5368,24.1247
120.5368,24.1247
120.8911,24.1849
120.8911,24.1849
121.2500,24.2050
121.6089,24.1849
121.6089,24.1849
121.9632,24.1247
122.3086,24.0252
122.6406,23.8876
122.6406,23.8876
122.9552,23.7138
122.9552,23.7138
123.2483,23.5058
123.3669,23.3998
123.3669,23.3998
122.2317,22.2645
122.2923,22.2204
122.4704,22.0423
122.5145,21.9817
123.6498,23.1169
123.6498,23.1169
123.7558,22.9983
123.9638,22.7052
123.9638,22.7052
124.1376,22.3906
124.1376,22.3906
124.2752,22.0586
124.3747,21.7132
124.4349,21.3589
124.4349,21.3589
124.4550,21.0000
124.4349,20.6411
124.4349,20.6411
124.3747,20.2868
124.2752,19.9414
124.1376,19.6094
124.1376,19.6094
123.9638,19.2948
123.9638,19.2948
123.7558,19.0017
123.6498,18.8831
123.6498,18.8831
122.5145,20.0183
122.4704,19.9577
122.2923,19.7796
122.2317,19.7355
123.3669,18.6002
123.2483,18.4942
122.9552,18.2862
122.9552,18.2862
122.6406,18.1124
122.6406,18.1124
122.3086,17.9748
121.9632,17.8753
121.9632,17.8753
121.6089,17.8151
121.6089,17.8151
121.2500,17.7950
120.8911,17.8151
120.8911,17.8151
120.5368,17.8753
120.1914,17.9748
119.8594,18.1124
119.8594,18.1124
119.5448,18.2862
119.5448,18.2862
119.2517,18.4942
119.1331,18.6002
120.2683,19.7355
120.2077,19.7796
120.0296,19.9577
119.9855,20.0183
118.8502,18.8831
118.7442,19.0017
118.5362,19.2948
118.5362,19.2948
118.3624,19.6094
118.3624,19.6094
118.2248,19.9414
118.1253,20.2868
118.0651,20.6411
118.0651,20.6411
118.0450,21.0000
107.5005,21.0000
107.5005,20.9341
107.5005,20.9341
107.4770,20.8465
107.4664,20.8068
107.4005,20.6927
107.3073,20.5995
107.2916,20.5904
107.1932,20.5336
107.1932,20.5336
107.0659,20.4995
107.0659,20.4995
97.0659,20.4995
96.9341,20.4995
96.9341,20.4995
96.8068,20.5336
96.8068,20.5336
96.6927,20.5995
96.5995,20.6927
96.5336,20.8068
96.5336,20.8068
96.4995,20.9341
76.1323,20.9341
77.6059,19.4605
77.6059,19.4605
77.6805,19.3859
77.7332,19.2946
77.7605,19.1927
77.7605,19.1927
77.7605,19.0827
77.7605,19.0827
77.7605,17.5289
77.7822,17.4765
77.8345,17.4549
77.8868,17.4765
77.8917,17.4819
77.9036,17.4964
78.0635,17.6277
78.2460,17.7252
78.4441,17.7853
78.6500,17.8056
78.8559,17.7853
79.0540,17.7252
79.2364,17.6277
79.3964,17.4964
79.5277,17.3364
79.6252,17.1540
79.6853,16.9559
79.7056,16.7500
79.6853,16.5441
79.6252,16.3460
79.5277,16.1636
79.3964,16.0036
79.3661,15.9787
79.2364,15.8723
79.0540,15.7748
79.0540,15.7748
79.0540,15.7748
78.8874,15.7242
78.8559,15.7147
78.6500,15.6944
78.4441,15.7147
78.2460,15.7748
78.0635,15.8723
77.9036,16.0036
77.9036,16.0036
77.8917,16.0181
77.8418,16.0448
77.7876,16.0283
77.7609,15.9784
77.7605,15.9711
77.7605,15.6965
77.7822,15.6442
78.2109,15.2155
78.2633,15.1938
78.2847,15.1970
78.4441,15.2453
78.6500,15.2656
78.8559,15.2453
79.0540,15.1852
79.2364,15.0877
79.3964,14.9564
79.5277,14.7965
79.6252,14.6140
79.6853,14.4159
79.7056,14.2100
79.6853,14.0041
79.6252,13.8060
79.5277,13.6235
79.3964,13.4636
79.2364,13.3323
79.0540,13.2348
78.9422,13.2009
78.8559,13.1747
78.6500,13.1544
78.4441,13.1747
78.2460,13.2348
78.0635,13.3323
77.9036,13.4636
77.9036,13.4636
77.7723,13.6235
77.6748,13.8060
77.6147,14.0041
77.5944,14.2100
77.6147,14.4159
77.6630,14.5753
77.6575,14.6316
77.6445,14.6491
77.0395,15.2541
76.9868,15.3454
76.9868,15.3454
76.9702,15.4073
76.9655,15.4250
76.9595,15.4473
76.9595,15.9317
76.9378,15.9841
76.8855,16.0057
76.8386,15.9889
76.6964,15.8723
76.5140,15.7748
76.5140,15.7748
76.5140,15.7748
76.3474,15.7242
76.3159,15.7147
76.1100,15.6944
75.9041,15.7147
75.7060,15.7748
75.5235,15.8723
75.3637,16.0035
75.3095,16.0200
75.2595,15.9933
75.2427,15.9463
75.2427,15.6743
75.2644,15.6220
75.6709,15.2155
75.7233,15.1938
75.7447,15.1970
75.9041,15.2453
76.1100,15.2656
76.3159,15.2453
76.5140,15.1852
76.6964,15.0877
76.8564,14.9564
76.9877,14.7965
77.0852,14.6140
77.1453,14.4159
77.1656,14.2100
77.1453,14.0041
77.0852,13.8060
76.9877,13.6235
76.8564,13.4636
76.6964,13.3323
76.5140,13.2348
76.4022,13.2009
76.3159,13.1747
76.1100,13.1544
75.9041,13.1747
75.7060,13.2348
75.5235,13.3323
75.3636,13.4636
75.3636,13.4636
75.2323,13.6235
75.1348,13.8060
75.0747,14.0041
75.0544,14.2100
75.0747,14.4159
75.1230,14.5753
75.1175,14.6316
75.1045,14.6491
74.5217,15.2319
74.4690,15.3232
74.4690,15.3232
74.4417,15.4250
74.4417,15.9503
74.4201,16.0026
74.3677,16.0243
74.3203,16.0046
74.3192,16.0059
74.1564,15.8723
73.9740,15.7748
73.9740,15.7748
73.9740,15.7748
73.8074,15.7242
73.7759,15.7147
73.5700,15.6944
73.3641,15.7147
73.1660,15.7748
72.9835,15.8723
72.8414,15.9889
72.7872,16.0054
72.7373,15.9787
72.7205,15.9317
72.7205,15.6565
72.7422,15.6042
73.1309,15.2155
73.1833,15.1938
73.2047,15.1970
73.3641,15.2453
73.5700,15.2656
73.7759,15.2453
73.9740,15.1852
74.1564,15.0877
74.3164,14.9564
74.4477,14.7965
74.5452,14.6140
74.6053,14.4159
74.6256,14.2100
74.6053,14.0041
74.5452,13.8060
74.4477,13.6235
74.3164,13.4636
74.1564,13.3323
73.9740,13.2348
73.8622,13.2009
73.7759,13.1747
73.5700,13.1544
73.3641,13.1747
73.1660,13.2348
72.9835,13.3323
72.8236,13.4636
72.8236,13.4636
72.6923,13.6235
72.5948,13.8060
72.5347,14.0041
72.5144,14.2100
72.5347,14.4159
72.5830,14.5753
72.5775,14.6316
72.5645,14.6491
71.9995,15.2141
71.9468,15.3054
71.9468,15.3054
71.9420,15.3232
71.9420,15.3232
71.9361,15.3454
71.9195,15.4073
71.9195,15.9711
71.8978,16.0235
71.8455,16.0451
71.7932,16.0235
71.7883,16.0181
71.7764,16.0036
71.7764,16.0036
71.6165,15.8723
71.4340,15.7748
71.4340,15.7748
71.4340,15.7748
71.2674,15.7242
71.2359,15.7147
71.0300,15.6944
70.8241,15.7147
70.6260,15.7748
70.4435,15.8723
70.3014,15.9889
70.2472,16.0054
70.1973,15.9787
70.1805,15.9317
70.1805,15.6565
70.2022,15.6042
70.5909,15.2155
70.6433,15.1938
70.6647,15.1970
70.8241,15.2453
71.0300,15.2656
71.2359,15.2453
71.4340,15.1852
71.6165,15.0877
71.7764,14.9564
71.9077,14.7965
72.0052,14.6140
72.0653,14.4159
72.0856,14.2100
72.0653,14.0041
72.0052,13.8060
71.9077,13.6235
71.7764,13.4636
71.6165,13.3323
71.4340,13.2348
71.3222,13.2009
71.2359,13.1747
71.0300,13.1544
70.8241,13.1747
70.6260,13.2348
70.4435,13.3323
70.2836,13.4636
70.2836,13.4636
70.1523,13.6235
70.0548,13.8060
69.9947,14.0041
69.9744,14.2100
69.9947,14.4159
70.0430,14.5753
70.0375,14.6316
70.0245,14.6491
69.4595,15.2141
69.4068,15.3054
69.4068,15.3054
69.4020,15.3232
69.4020,15.3232
69.3961,15.3454
69.3795,15.4073
69.3795,15.9711
69.3578,16.0235
69.3055,16.0451
69.2532,16.0235
69.2483,16.0181
69.2364,16.0036
69.2364,16.0036
69.0764,15.8723
68.8940,15.7748
68.8940,15.7748
68.8940,15.7748
68.7274,15.7242
68.6959,15.7147
68.4900,15.6944
68.2841,15.7147
68.0860,15.7748
67.9035,15.8723
67.7436,16.0036
67.7436,16.0036
67.7317,16.0181
67.6818,16.0448
67.6276,16.0283
67.6009,15.9784
67.6005,15.9711
67.6005,15.6965
67.6222,15.6442
68.0509,15.2155
68.1033,15.1938
68.1247,15.1970
68.2841,15.2453
68.4900,15.2656
68.6959,15.2453
68.8940,15.1852
69.0764,15.0877
69.2364,14.9564
69.3677,14.7965
69.4652,14.6140
69.5253,14.4159
69.5456,14.2100
69.5253,14.0041
69.4652,13.8060
69.3677,13.6235
69.2364,13.4636
69.0764,13.3323
68.8940,13.2348
68.7822,13.2009
68.6959,13.1747
68.4900,13.1544
68.2841,13.1747
68.0860,13.2348
67.9035,13.3323
67.7436,13.4636
67.7436,13.4636
67.6123,13.6235
67.5148,13.8060
67.4547,14.0041
67.4344,14.2100
67.4547,14.4159
67.5030,14.5753
67.4975,14.6316
67.4845,14.6491
66.8795,15.2541
66.8268,15.3454
66.8268,15.3454
66.8102,15.4073
66.8055,15.4250
66.7995,15.4473
66.7995,15.9317
66.7778,15.9841
66.7255,16.0057
66.6786,15.9889
66.5365,15.8723
66.3540,15.7748
66.3540,15.7748
66.3540,15.7748
66.1874,15.7242
66.1559,15.7147
65.9500,15.6944
65.7441,15.7147
65.5460,15.7748
65.3635,15.8723
65.2036,16.0036
65.2036,16.0036
65.1917,16.0181
65.1418,16.0448
65.0876,16.0283
65.0609,15.9784
65.0605,15.9711
65.0605,15.6965
65.0822,15.6442
65.5109,15.2155
65.5633,15.1938
65.5847,15.1970
65.7441,15.2453
65.9500,15.2656
66.1559,15.2453
66.3540,15.1852
66.5365,15.0877
66.6964,14.9564
66.8277,14.7965
66.9252,14.6140
66.9853,14.4159
67.0056,14.2100
66.9853,14.0041
66.9252,13.8060
66.8277,13.6235
66.6964,13.4636
66.5365,13.3323
66.3540,13.2348
66.2422,13.2009
66.1559,13.1747
65.9500,13.1544
65.7441,13.1747
65.5460,13.2348
65.3635,13.3323
65.2036,13.4636
65.2036,13.4636
65.0723,13.6235
64.9748,13.8060
64.9147,14.0041
64.8944,14.2100
64.9147,14.4159
64.9630,14.5753
64.9575,14.6316
64.9445,14.6491
64.3395,15.2541
64.2868,15.3454
64.2868,15.3454
64.2702,15.4073
64.2655,15.4250
64.2595,15.4473
64.2595,15.9317
64.2378,15.9841
64.1855,16.0057
64.1386,15.9889
63.9964,15.8723
63.8140,15.7748
63.8140,15.7748
63.8140,15.7748
63.6474,15.7242
63.6159,15.7147
63.4100,15.6944
63.2041,15.7147
63.0060,15.7748
62.8235,15.8723
62.6636,16.0036
62.6636,16.0036
62.6517,16.0181
62.6018,16.0448
62.5476,16.0283
62.5209,15.9784
62.5205,15.9711
62.5205,15.6965
62.5422,15.6442
62.9709,15.2155
63.0233,15.1938
63.0447,15.1970
63.2041,15.2453
63.4100,15.2656
63.6159,15.2453
63.8140,15.1852
63.9964,15.0877
64.1564,14.9564
64.2877,14.7965
64.3852,14.6140
64.4453,14.4159
64.4656,14.2100
64.4453,14.0041
64.3852,13.8060
64.2877,13.6235
64.1564,13.4636
63.9964,13.3323
63.8140,13.2348
63.7022,13.2009
63.6159,13.1747
63.4100,13.1544
63.2041,13.1747
63.0060,13.2348
62.8235,13.3323
62.6636,13.4636
62.6636,13.4636
62.5323,13.6235
62.4348,13.8060
62.3747,14.0041
62.3544,14.2100
62.3747,14.4159
62.4230,14.5753
62.4175,14.6316
62.4045,14.6491
61.7995,15.2541
61.7468,15.3454
61.7468,15.3454
61.7302,15.4073
61.7255,15.4250
61.7195,15.4473
61.7195,15.9317
61.6978,15.9841
61.6455,16.0057
61.5986,15.9889
61.4564,15.8723
61.2740,15.7748
61.2740,15.7748
61.2740,15.7748
61.1074,15.7242
61.0759,15.7147
60.8700,15.6944
60.6641,15.7147
60.4660,15.7748
60.2835,15.8723
60.1414,15.9889
60.0872,16.0054
60.0373,15.9787
60.0205,15.9317
60.0205,15.6565
60.0422,15.6042
60.4309,15.2155
60.4833,15.1938
60.5047,15.1970
60.6641,15.2453
60.8700,15.2656
61.0759,15.2453
61.2740,15.1852
61.4564,15.0877
61.6164,14.9564
61.7477,14.7965
61.8452,14.6140
61.9053,14.4159
61.9256,14.2100
61.9053,14.0041
61.8452,13.8060
61.7477,13.6235
61.6164,13.4636
61.4564,13.3323
61.2740,13.2348
61.1622,13.2009
61.0759,13.1747
60.8700,13.1544
60.6641,13.1747
60.4660,13.2348
60.2835,13.3323
60.1236,13.4636
60.1236,13.4636
59.9923,13.6235
59.8948,13.8060
59.8347,14.0041
59.8144,14.2100
59.8347,14.4159
59.8830,14.5753
59.8775,14.6316
59.8645,14.6491
59.2995,15.2141
59.2468,15.3054
59.2468,15.3054
59.2420,15.3232
59.2420,15.3232
59.2361,15.3454
59.2195,15.4073
59.2195,15.9711
59.1978,16.0235
59.1455,16.0451
59.0932,16.0235
59.0883,16.0181
59.0764,16.0036
59.0764,16.0036
58.9164,15.8723
58.7340,15.7748
58.7340,15.7748
58.7340,15.7748
58.5674,15.7242
58.5359,15.7147
58.3300,15.6944
58.1241,15.7147
57.9260,15.7748
57.7435,15.8723
57.5836,16.0036
57.5836,16.0036
57.5717,16.0181
57.5218,16.0448
57.4676,16.0283
57.4409,15.9784
57.4405,15.9711
57.4405,15.6965
57.4622,15.6442
57.8909,15.2155
57.9433,15.1938
57.9647,15.1970
58.1241,15.2453
58.3300,15.2656
58.5359,15.2453
58.7340,15.1852
58.9164,15.0877
59.0764,14.9564
59.2077,14.7965
59.3052,14.6140
59.3653,14.4159
59.3856,14.2100
59.3653,14.0041
59.3052,13.8060
59.2077,13.6235
59.0764,13.4636
58.9164,13.3323
58.7340,13.2348
58.6222,13.2009
58.5359,13.1747
58.3300,13.1544
58.1241,13.1747
57.9260,13.2348
57.7435,13.3323
57.5836,13.4636
57.5836,13.4636
57.4523,13.6235
57.3548,13.8060
57.2947,14.0041
57.2744,14.2100
57.2947,14.4159
57.3430,14.5753
57.3375,14.6316
57.3245,14.6491
56.7195,15.2541
56.6668,15.3454
56.6668,15.3454
56.6502,15.4073
56.6455,15.4250
56.6395,15.4473
56.6395,15.9317
56.6178,15.9841
56.5655,16.0057
56.5186,15.9889
56.3764,15.8723
56.1940,15.7748
56.1940,15.7748
56.1940,15.7748
56.0274,15.7242
55.9959,15.7147
55.7900,15.6944
55.5841,15.7147
55.3860,15.7748
55.2035,15.8723
55.0436,16.0036
55.0436,16.0036
55.0317,16.0181
54.9818,16.0448
54.9276,16.0283
54.9009,15.9784
54.9005,15.9711
54.9005,15.6965
54.9222,15.6442
55.3509,15.2155
55.4033,15.1938
55.4247,15.1970
55.5841,15.2453
55.7900,15.2656
55.9959,15.2453
56.1940,15.1852
56.3764,15.0877
56.5364,14.9564
56.6677,14.7965
56.7652,14.6140
56.8253,14.4159
56.8456,14.2100
56.8253,14.0041
56.7652,13.8060
56.6677,13.6235
56.5364,13.4636
56.3764,13.3323
56.1940,13.2348
56.0822,13.2009
55.9959,13.1747
55.7900,13.1544
55.5841,13.1747
55.3860,13.2348
55.2035,13.3323
55.0436,13.4636
55.0436,13.4636
54.9123,13.6235
54.8148,13.8060
54.7547,14.0041
54.7344,14.2100
54.7547,14.4159
54.8030,14.5753
54.7975,14.6316
54.7845,14.6491
54.1795,15.2541
54.1268,15.3454
54.1268,15.3454
54.1102,15.4073
54.1055,15.4250
54.0995,15.4473
54.0995,15.9317
54.0778,15.9841
54.0255,16.0057
53.9786,15.9889
53.8364,15.8723
53.6540,15.7748
53.6540,15.7748
53.6540,15.7748
53.4874,15.7242
53.4559,15.7147
53.2500,15.6944
53.0441,15.7147
52.8460,15.7748
52.6635,15.8723
52.5214,15.9889
52.4672,16.0054
52.4173,15.9787
52.4005,15.9317
52.4005,15.6565
52.4222,15.6042
52.8109,15.2155
52.8633,15.1938
52.8847,15.1970
53.0441,15.2453
53.2500,15.2656
53.4559,15.2453
53.6540,15.1852
53.8364,15.0877
53.9964,14.9564
54.1277,14.7965
54.2252,14.6140
54.2853,14.4159
54.3056,14.2100
54.2853,14.0041
54.2252,13.8060
54.1277,13.6235
53.9964,13.4636
53.8364,13.3323
53.6540,13.2348
53.5422,13.2009
53.4559,13.1747
53.2500,13.1544
53.0441,13.1747
52.8460,13.2348
52.6635,13.3323
52.5036,13.4636
52.5036,13.4636
52.3723,13.6235
52.2748,13.8060
52.2147,14.0041
52.1944,14.2100
52.2147,14.4159
52.2630,14.5753
52.2575,14.6316
52.2445,14.6491
51.6795,15.2141
51.6268,15.3054
51.6268,15.3054
51.6220,15.3232
51.6220,15.3232
51.6161,15.3454
51.5995,15.4073
51.5995,15.6255
51.5778,15.6778
51.5255,15.6995
49.9655,15.6995
49.9132,15.6778
49.8915,15.6255
49.9132,15.5732
50.0791,15.4073
50.2709,15.2155
50.3233,15.1938
50.3447,15.1970
50.5041,15.2453
50.7100,15.2656
50.9159,15.2453
51.1140,15.1852
51.2965,15.0877
51.4564,14.9564
51.5877,14.7965
51.6852,14.6140
51.7453,14.4159
51.7656,14.2100
51.7453,14.0041
51.6852,13.8060
51.5877,13.6235
51.4564,13.4636
51.2965,13.3323
51.1140,13.2348
51.0022,13.2009
50.9159,13.1747
50.7100,13.1544
50.5041,13.1747
50.3060,13.2348
50.1235,13.3323
49.9636,13.4636
49.9636,13.4636
49.8323,13.6235
49.7348,13.8060
49.6747,14.0041
49.6544,14.2100
49.6747,14.4159
49.7230,14.5753
49.7175,14.6316
49.7045,14.6491
49.1268,15.2268
49.0745,15.2485
49.0222,15.2268
49.0005,15.1745
49.0005,3.8245
49.0222,3.7722
49.0745,3.7505
80.1755,3.7505
Z" /> 
<path style="fill:#4D7FC4; fill-opacity:1.0000; stroke:none;fill-rule:evenodd;"
d="M 60.0560,17.4216
60.0762,17.4387
60.1221,17.4946
60.1236,17.4964
60.2835,17.6277
60.4660,17.7252
60.6641,17.7853
60.8470,17.8033
60.8970,17.8300
60.9134,17.8842
60.8921,17.9293
60.6435,18.1778
60.5912,18.1995
59.3933,18.1995
59.3410,18.1778
59.3193,18.1255
59.3410,18.0732
59.6289,17.7853
59.9405,17.4737
59.9549,17.4486
59.9999,17.4142
Z" /> 
<path style="fill:#4D7FC4; fill-opacity:1.0000; stroke:none;fill-rule:evenodd;"
d="M 49.6378,17.0332
49.6595,17.0855
49.6595,17.6197
49.6711,17.6782
49.7006,17.7223
49.7154,17.7446
49.7596,17.7740
49.7818,17.7889
49.7818,17.7889
49.7818,17.7889
49.8403,17.8005
51.2545,17.8005
51.3068,17.8222
51.3285,17.8745
51.3068,17.9268
50.8058,18.4278
50.7535,18.4495
48.2955,18.4495
48.2432,18.4278
48.2215,18.3755
48.2432,18.3232
49.5332,17.0332
49.5855,17.0115
Z" /> 
<path style="fill:#4D7FC4; fill-opacity:1.0000; stroke:none;fill-rule:evenodd;"
d="M 62.5861,17.4095
62.6063,17.4266
62.6628,17.4954
62.6636,17.4964
62.8235,17.6277
63.0060,17.7252
63.2041,17.7853
63.3870,17.8033
63.4370,17.8300
63.4534,17.8842
63.4321,17.9293
62.5835,18.7778
62.5312,18.7995
61.3333,18.7995
61.2810,18.7778
61.2593,18.7255
61.2810,18.6732
61.5263,18.4278
62.4405,17.5137
62.4850,17.4365
62.5299,17.4021
Z" /> 
<path style="fill:#4D7FC4; fill-opacity:1.0000; stroke:none;fill-rule:evenodd;"
d="M 52.5214,17.5111
52.6636,17.6277
52.8460,17.7252
53.0441,17.7853
53.2270,17.8033
53.2770,17.8300
53.2934,17.8842
53.2721,17.9293
52.1735,19.0278
52.1212,19.0495
51.4955,19.0495
51.4432,19.0278
51.4215,18.9755
51.4432,18.9232
51.6409,18.7255
52.3205,18.0459
52.3732,17.9546
52.4005,17.8527
52.4005,17.7473
52.4005,17.5683
52.4222,17.5159
52.4745,17.4943
Z" /> 
<path style="fill:#4D7FC4; fill-opacity:1.0000; stroke:none;fill-rule:evenodd;"
d="M 65.1261,17.4095
65.1463,17.4266
65.2028,17.4954
65.2036,17.4964
65.3636,17.6277
65.5460,17.7252
65.7441,17.7853
65.9270,17.8033
65.9770,17.8300
65.9934,17.8842
65.9721,17.9293
64.5235,19.3778
64.4712,19.3995
63.2733,19.3995
63.2210,19.3778
63.1993,19.3255
63.2210,19.2732
63.6111,18.8831
64.9805,17.5137
65.0250,17.4365
65.0699,17.4021
Z" /> 
<path style="fill:#4D7FC4; fill-opacity:1.0000; stroke:none;fill-rule:evenodd;"
d="M 54.9661,17.4095
54.9863,17.4266
55.0299,17.4797
55.0421,17.4946
55.0436,17.4964
55.2035,17.6277
55.3860,17.7252
55.5841,17.7853
55.7670,17.8033
55.8170,17.8300
55.8334,17.8842
55.8121,17.9293
54.2830,19.4584
54.1135,19.6278
54.0612,19.6495
52.8633,19.6495
52.8110,19.6278
52.7893,19.5755
52.8110,19.5232
53.0610,19.2732
54.7459,17.5882
54.7459,17.5882
54.8205,17.5137
54.8650,17.4365
54.9099,17.4021
Z" /> 
<path style="fill:#4D7FC4; fill-opacity:1.0000; stroke:none;fill-rule:evenodd;"
d="M 75.3637,17.4965
75.5236,17.6277
75.7060,17.7252
75.9041,17.7853
76.1100,17.8056
76.3159,17.7853
76.5140,17.7252
76.6964,17.6277
76.8386,17.5111
76.8928,17.4946
76.9427,17.5213
76.9595,17.5683
76.9595,18.9435
76.9378,18.9958
75.3691,20.5645
75.3167,20.5862
75.2644,20.5645
75.2427,20.5122
75.2427,17.5537
75.2644,17.5014
75.3167,17.4797
Z" /> 
<path style="fill:#4D7FC4; fill-opacity:1.0000; stroke:none;fill-rule:evenodd;"
d="M 74.4201,17.4974
74.4417,17.5497
74.4417,20.5597
74.4201,20.6121
72.8468,22.1853
72.7945,22.2070
72.7422,22.1853
72.7205,22.1330
72.7205,17.5683
72.7422,17.5159
72.7945,17.4943
72.8414,17.5111
72.9835,17.6277
73.1660,17.7252
73.3641,17.7853
73.5700,17.8056
73.7759,17.7853
73.9740,17.7252
74.1564,17.6277
74.3164,17.4964
74.3164,17.4964
74.3192,17.4941
74.3203,17.4954
74.3677,17.4757
Z" /> 
<path style="fill:#4D7FC4; fill-opacity:1.0000; stroke:none;fill-rule:evenodd;"
d="M 71.8924,17.4717
71.9191,17.5216
71.9195,17.5289
71.9195,22.2335
71.8978,22.2858
71.1768,23.0068
71.1245,23.0285
71.0722,23.0068
71.0505,22.9545
71.0505,20.5973
71.0232,20.4954
71.0232,20.4954
70.9705,20.4041
70.9705,20.4041
70.9705,20.4041
70.2022,19.6358
70.1805,19.5835
70.1805,17.5683
70.2022,17.5159
70.2545,17.4943
70.3014,17.5111
70.4436,17.6277
70.6260,17.7252
70.8241,17.7853
71.0300,17.8056
71.2359,17.7853
71.4340,17.7252
71.6165,17.6277
71.7764,17.4964
71.7883,17.4819
71.8382,17.4552
Z" /> 
</g>
<g style="fill:#FFFFFF; fill-opacity:1.0000; stroke:none;">
<circle cx="78.6500" cy="14.2100" r="0.5000" /> 
</g>
<g style="fill:#FFFFFF; fill-opacity:1.0000; stroke:none;">
<circle cx="76.1100" cy="14.2100" r="0.5000" /> 
</g>
<g style="fill:#FFFFFF; fill-opacity:1.0000; stroke:none;">
<circle cx="73.5700" cy="14.2100" r="0.5000" /> 
</g>
<g style="fill:#FFFFFF; fill-opacity:1.0000; stroke:none;">
<circle cx="71.0300" cy="14.2100" r="0.5000" /> 
</g>
<g style="fill:#FFFFFF; fill-opacity:1.0000; stroke:none;">
<circle cx="68.4900" cy="14.2100" r="0.5000" /> 
</g>
<g style="fill:#FFFFFF; fill-opacity:1.0000; stroke:none;">
<circle cx="65.9500" cy="14.2100" r="0.5000" /> 
</g>
<g style="fill:#FFFFFF; fill-opacity:1.0000; stroke:none;">
<circle cx="63.4100" cy="14.2100" r="0.5000" /> 
</g>
<g style="fill:#FFFFFF; fill-opacity:1.0000; stroke:none;">
<circle cx="60.8700" cy="14.2100" r="0.5000" /> 
</g>
<g style="fill:#FFFFFF; fill-opacity:1.0000; stroke:none;">
<circle cx="58.3300" cy="14.2100" r="0.5000" /> 
</g>
<g style="fill:#FFFFFF; fill-opacity:1.0000; stroke:none;">
<circle cx="55.7900" cy="14.2100" r="0.5000" /> 
</g>
<g style="fill:#FFFFFF; fill-opacity:1.0000; stroke:none;">
<circle cx="53.2500" cy="14.2100" r="0.5000" /> 
</g>
<g style="fill:#FFFFFF; fill-opacity:1.0000; stroke:none;">
<circle cx="50.7100" cy="14.2100" r="0.5000" /> 
</g>
<g style="fill:#FFFFFF; fill-opacity:1.0000; stroke:none;">
<circle cx="78.6500" cy="16.7500" r="0.5000" /> 
</g>
<g style="fill:#FFFFFF; fill-opacity:1.0000; stroke:none;">
<circle cx="76.1100" cy="16.7500" r="0.5000" /> 
</g>
<g style="fill:#FFFFFF; fill-opacity:1.0000; stroke:none;">
<circle cx="73.5700" cy="16.7500" r="0.5000" /> 
</g>
<g style="fill:#FFFFFF; fill-opacity:1.0000; stroke:none;">
<circle cx="71.0300" cy="16.7500" r="0.5000" /> 
</g>
<g style="fill:#FFFFFF; fill-opacity:1.0000; stroke:none;">
<circle cx="68.4900" cy="16.7500" r="0.5000" /> 
</g>
<g style="fill:#FFFFFF; fill-opacity:1.0000; stroke:none;">
<circle cx="65.9500" cy="16.7500" r="0.5000" /> 
</g>
<g style="fill:#FFFFFF; fill-opacity:1.0000; stroke:none;">
<circle cx="63.4100" cy="16.7500" r="0.5000" /> 
</g>
<g style="fill:#FFFFFF; fill-opacity:1.0000; stroke:none;">
<circle cx="60.8700" cy="16.7500" r="0.5000" /> 
</g>
<g style="fill:#FFFFFF; fill-opacity:1.0000; stroke:none;">
<circle cx="58.3300" cy="16.7500" r="0.5000" /> 
</g>
<g style="fill:#FFFFFF; fill-opacity:1.0000; stroke:none;">
<circle cx="55.7900" cy="16.7500" r="0.5000" /> 
</g>
<g style="fill:#FFFFFF; fill-opacity:1.0000; stroke:none;">
<circle cx="53.2500" cy="16.7500" r="0.5000" /> 
</g>
<g style="fill:#FFFFFF; fill-opacity:1.0000; stroke:none;">
<circle cx="50.7100" cy="16.7500" r="0.5000" /> 
</g>
<g style="fill:#FFFFFF; fill-opacity:1.0000; stroke:none;">
<circle cx="53.5000" cy="38.0000" r="1.2650" /> 
</g>
<g style="fill:#FFFFFF; fill-opacity:1.0000; stroke:none;">
<circle cx="41.0000" cy="50.0000" r="1.2650" /> 
</g>
<g style="fill:#FFFFFF; fill-opacity:1.0000; stroke:none;">
<circle cx="41.0000" cy="59.0000" r="1.2650" /> 
</g>
<g style="fill:#FFFFFF; fill-opacity:1.0000; stroke:none;">
<circle cx="92.5000" cy="65.5000" r="1.2650" /> 
</g>
<g style="fill:#FFFFFF; fill-opacity:1.0000; stroke:none;">
<circle cx="121.2500" cy="66.0000" r="1.6000" /> 
</g>
<g style="fill:#FFFFFF; fill-opacity:1.0000; stroke:none;">
<circle cx="117.0000" cy="50.0000" r="1.2650" /> 
</g>
<g style="fill:#FFFFFF; fill-opacity:1.0000; stroke:none;">
<circle cx="13.7500" cy="21.0000" r="1.6000" /> 
</g>
<g style="fill:#FFFFFF; fill-opacity:1.0000; stroke:none;">
<circle cx="121.2500" cy="21.0000" r="1.6000" /> 
</g>
<g style="fill:#FFFFFF; fill-opacity:1.0000; stroke:none;">
<circle cx="44.0000" cy="66.0000" r="1.6000" /> 
</g>
<g style="fill:#FFFFFF; fill-opacity:1.0000; stroke:none;">
<circle cx="53.5000" cy="56.0000" r="1.2650" /> 
</g>
<g style="fill:#FFFFFF; fill-opacity:1.0000; stroke:none;">
<circle cx="54.5000" cy="65.5000" r="1.2650" /> 
</g>
<g style="fill:#FFFFFF; fill-opacity:1.0000; stroke:none;">
<circle cx="15.5000" cy="38.0000" r="1.2650" /> 
</g>
<g style="fill:#FFFFFF; fill-opacity:1.0000; stroke:none;">
<circle cx="117.0000" cy="59.0000" r="1.2650" /> 
</g>
<g style="fill:#FFFFFF; fill-opacity:1.0000; stroke:none;">
<circle cx="91.5000" cy="38.0000" r="1.2650" /> 
</g>
<g style="fill:#FFFFFF; fill-opacity:1.0000; stroke:none;">
<circle cx="40.5000" cy="31.0000" r="1.2650" /> 
</g>
<g style="fill:#FFFFFF; fill-opacity:1.0000; stroke:none;">
<circle cx="91.5000" cy="47.0000" r="1.2650" /> 
</g>
<g style="fill:#FFFFFF; fill-opacity:1.0000; stroke:none;">
<circle cx="15.5000" cy="47.0000" r="1.2650" /> 
</g>
<g style="fill:#FFFFFF; fill-opacity:1.0000; stroke:none;">
<circle cx="15.5000" cy="56.0000" r="1.2650" /> 
</g>
<g style="fill:#FFFFFF; fill-opacity:1.0000; stroke:none;">
<circle cx="41.0000" cy="41.0000" r="1.2650" /> 
</g>
<g style="fill:#FFFFFF; fill-opacity:1.0000; stroke:none;">
<circle cx="79.0000" cy="41.0000" r="1.2650" /> 
</g>
<g style="fill:#FFFFFF; fill-opacity:1.0000; stroke:none;">
<circle cx="16.5000" cy="65.5000" r="1.2650" /> 
</g>
<g style="fill:#FFFFFF; fill-opacity:1.0000; stroke:none;">
<circle cx="116.0000" cy="31.0000" r="1.2650" /> 
</g>
<g style="fill:#FFFFFF; fill-opacity:1.0000; stroke:none;">
<circle cx="117.0000" cy="41.0000" r="1.2650" /> 
</g>
<g style="fill:#FFFFFF; fill-opacity:1.0000; stroke:none;">
<circle cx="53.5000" cy="47.0000" r="1.2650" /> 
</g>
<g style="fill:#FFFFFF; fill-opacity:1.0000; stroke:none;">
<circle cx="91.5000" cy="56.0000" r="1.2650" /> 
</g>
<g style="fill:#FFFFFF; fill-opacity:1.0000; stroke:none;">
<circle cx="78.5000" cy="31.0000" r="1.2650" /> 
</g>
<g style="fill:#FFFFFF; fill-opacity:1.0000; stroke:none;">
<circle cx="79.0000" cy="58.5000" r="1.2650" /> 
</g>
<g style="fill:#FFFFFF; fill-opacity:1.0000; stroke:none;">
<circle cx="79.0000" cy="50.0000" r="1.2650" /> 
</g>
<g style="fill:none; 
stroke:#D0D2CD; stroke-width:0.0500; stroke-opacity:1; 
stroke-linecap:round; stroke-linejoin:round;">
<path d="M80.7499 16.2500
L125.5000 16.2500
" />
<path style="fill:none; 
stroke:#D0D2CD; stroke-width:0.0500; stroke-opacity:1; 
stroke-linecap:round; stroke-linejoin:round;fill:none"
d="M 21.0000,21.0000
34.4500,21.0000
34.4500,65.4750
21.0000,65.4750
Z" /> 
<path d="M125.5000 70.3631
L9.5000 70.3631
" />
<path d="M48.5000 3.2500
L80.7500 3.2500
" />
<path d="M80.7500 3.2500
L80.7500 16.2500
" />
<path style="fill:none; 
stroke:#D0D2CD; stroke-width:0.0500; stroke-opacity:1; 
stroke-linecap:round; stroke-linejoin:round;fill:none"
d="M 97.0000,21.0000
107.0000,21.0000
107.0000,65.3750
97.0000,65.3750
Z" /> 
<path d="M48.5000 16.2500
L48.5000 3.2500
" />
<path d="M9.5000 16.2500
L48.5002 16.2500
" />
<path d="M125.5000 16.2500
L125.5000 70.3631
" />
<path d="M9.5000 70.3631
L9.5000 16.2500
" />
<path style="fill:none; 
stroke:#D0D2CD; stroke-width:0.0500; stroke-opacity:1; 
stroke-linecap:round; stroke-linejoin:round;fill:none"
d="M 59.4500,21.0000
69.4500,21.0000
69.4500,65.2500
59.4500,65.2500
Z" /> 
</g> 
</svg>
