<?xml version="1.0" standalone="no"?>
 <!DOCTYPE svg PUBLIC "-//W3C//DTD SVG 1.1//EN" 
 "http://www.w3.org/Graphics/SVG/1.1/DTD/svg11.dtd"> 
<svg
  xmlns:svg="http://www.w3.org/2000/svg"
  xmlns="http://www.w3.org/2000/svg"
  xmlns:xlink="http://www.w3.org/1999/xlink"
  version="1.1"
  width="135.9916mm" height="75.9968mm" viewBox="0.0000 0.0000 135.9916 75.9968">
<title>SVG Image created as LowerPOGO-F_Cu.svg date 2024/06/21 15:15:10 </title>
  <desc>Image generated by PCBNEW </desc>
<g style="fill:#000000; fill-opacity:1.0000;stroke:#000000; stroke-opacity:1.0000;
stroke-linecap:round; stroke-linejoin:round;"
 transform="translate(0 0) scale(1 1)">
</g>
<g style="fill:#C83434; fill-opacity:1.0000; stroke:none;">
<circle cx="121.2500" cy="66.0000" r="1.8000" /> 
</g>
<g style="fill:#C83434; fill-opacity:1.0000; stroke:none;">
<circle cx="121.2500" cy="66.0000" r="2.8000" /> 
</g>
<g style="fill:#C83434; fill-opacity:1.0000; stroke:none;">
<circle cx="13.7500" cy="21.0000" r="1.8000" /> 
</g>
<g style="fill:#C83434; fill-opacity:1.0000; stroke:none;">
<circle cx="13.7500" cy="21.0000" r="2.8000" /> 
</g>
<g style="fill:#C83434; fill-opacity:1.0000; stroke:none;">
<circle cx="121.2500" cy="21.0000" r="1.8000" /> 
</g>
<g style="fill:#C83434; fill-opacity:1.0000; stroke:none;">
<circle cx="121.2500" cy="21.0000" r="2.8000" /> 
</g>
<g style="fill:#C83434; fill-opacity:1.0000; stroke:none;">
<circle cx="44.0000" cy="66.0000" r="1.8000" /> 
</g>
<g style="fill:#C83434; fill-opacity:1.0000; stroke:none;">
<circle cx="44.0000" cy="66.0000" r="2.8000" /> 
</g>
<g style="fill:#C83434; fill-opacity:1.0000; stroke:none;">
<circle cx="50.7100" cy="14.2100" r="0.8500" /> 
<circle cx="53.2500" cy="14.2100" r="0.8500" /> 
<circle cx="55.7900" cy="14.2100" r="0.8500" /> 
<circle cx="58.3300" cy="14.2100" r="0.8500" /> 
<circle cx="60.8700" cy="14.2100" r="0.8500" /> 
<circle cx="63.4100" cy="14.2100" r="0.8500" /> 
<circle cx="65.9500" cy="14.2100" r="0.8500" /> 
<circle cx="68.4900" cy="14.2100" r="0.8500" /> 
<circle cx="71.0300" cy="14.2100" r="0.8500" /> 
<circle cx="73.5700" cy="14.2100" r="0.8500" /> 
<circle cx="76.1100" cy="14.2100" r="0.8500" /> 
<circle cx="78.6500" cy="14.2100" r="0.8500" /> 
<path style="fill:#C83434; fill-opacity:1.0000; stroke:none;fill-rule:evenodd;"
d="M 49.8600,15.9000
51.5600,15.9000
51.5600,17.6000
49.8600,17.6000
Z" /> 
<circle cx="53.2500" cy="16.7500" r="0.8500" /> 
<circle cx="55.7900" cy="16.7500" r="0.8500" /> 
<circle cx="58.3300" cy="16.7500" r="0.8500" /> 
<circle cx="60.8700" cy="16.7500" r="0.8500" /> 
<circle cx="63.4100" cy="16.7500" r="0.8500" /> 
<circle cx="65.9500" cy="16.7500" r="0.8500" /> 
<circle cx="68.4900" cy="16.7500" r="0.8500" /> 
<circle cx="71.0300" cy="16.7500" r="0.8500" /> 
<circle cx="73.5700" cy="16.7500" r="0.8500" /> 
<circle cx="76.1100" cy="16.7500" r="0.8500" /> 
<circle cx="78.6500" cy="16.7500" r="0.8500" /> 
<circle cx="15.5000" cy="38.0000" r="1.6250" /> 
</g>
<g style="fill:#C83434; fill-opacity:1.0000; stroke:none;">
<circle cx="15.5000" cy="47.0000" r="1.6250" /> 
</g>
<g style="fill:#C83434; fill-opacity:1.0000; stroke:none;">
<circle cx="15.5000" cy="56.0000" r="1.6250" /> 
</g>
<g style="fill:#C83434; fill-opacity:1.0000; stroke:none;">
<circle cx="16.5000" cy="65.5000" r="1.6250" /> 
</g>
<g style="fill:#C83434; fill-opacity:1.0000; stroke:none;">
<circle cx="40.5000" cy="31.0000" r="1.6250" /> 
</g>
<g style="fill:#C83434; fill-opacity:1.0000; stroke:none;">
<circle cx="41.0000" cy="41.0000" r="1.6250" /> 
</g>
<g style="fill:#C83434; fill-opacity:1.0000; stroke:none;">
<circle cx="53.5000" cy="38.0000" r="1.6250" /> 
</g>
<g style="fill:#C83434; fill-opacity:1.0000; stroke:none;">
<circle cx="41.0000" cy="50.0000" r="1.6250" /> 
</g>
<g style="fill:#C83434; fill-opacity:1.0000; stroke:none;">
<circle cx="53.5000" cy="47.0000" r="1.6250" /> 
</g>
<g style="fill:#C83434; fill-opacity:1.0000; stroke:none;">
<circle cx="41.0000" cy="59.0000" r="1.6250" /> 
</g>
<g style="fill:#C83434; fill-opacity:1.0000; stroke:none;">
<circle cx="53.5000" cy="56.0000" r="1.6250" /> 
</g>
<g style="fill:#C83434; fill-opacity:1.0000; stroke:none;">
<circle cx="54.5000" cy="65.5000" r="1.6250" /> 
</g>
<g style="fill:#C83434; fill-opacity:1.0000; stroke:none;">
<circle cx="92.5000" cy="65.5000" r="1.6250" /> 
</g>
<g style="fill:#C83434; fill-opacity:1.0000; stroke:none;">
<circle cx="91.5000" cy="56.0000" r="1.6250" /> 
</g>
<g style="fill:#C83434; fill-opacity:1.0000; stroke:none;">
<circle cx="79.0000" cy="58.5000" r="1.6250" /> 
</g>
<g style="fill:#C83434; fill-opacity:1.0000; stroke:none;">
<circle cx="79.0000" cy="50.0000" r="1.6250" /> 
</g>
<g style="fill:#C83434; fill-opacity:1.0000; stroke:none;">
<circle cx="79.0000" cy="41.0000" r="1.6250" /> 
</g>
<g style="fill:#C83434; fill-opacity:1.0000; stroke:none;">
<circle cx="91.5000" cy="47.0000" r="1.6250" /> 
</g>
<g style="fill:#C83434; fill-opacity:1.0000; stroke:none;">
<circle cx="78.5000" cy="31.0000" r="1.6250" /> 
</g>
<g style="fill:#C83434; fill-opacity:1.0000; stroke:none;">
<circle cx="91.5000" cy="38.0000" r="1.6250" /> 
</g>
<g style="fill:#C83434; fill-opacity:1.0000; stroke:none;">
<circle cx="117.0000" cy="59.0000" r="1.6250" /> 
</g>
<g style="fill:#C83434; fill-opacity:1.0000; stroke:none;">
<circle cx="117.0000" cy="50.0000" r="1.6250" /> 
</g>
<g style="fill:#C83434; fill-opacity:1.0000; stroke:none;">
<circle cx="117.0000" cy="41.0000" r="1.6250" /> 
</g>
<g style="fill:#C83434; fill-opacity:1.0000; stroke:none;">
<circle cx="116.0000" cy="31.0000" r="1.6250" /> 
</g>
<g style="fill:none; 
stroke:#C83434; stroke-width:0.4000; stroke-opacity:1; 
stroke-linecap:round; stroke-linejoin:round;">
<path d="M79.0000 58.5000
L70.2500 67.2500
" />
<path d="M58.5870 67.2500
L56.9130 65.5760
" />
<path d="M56.9130 65.5760
L56.9130 17.8730
" />
<path d="M70.2500 67.2500
L58.5870 67.2500
" />
<path d="M56.9130 17.8730
L55.7900 16.7500
" />
<path d="M48.0000 65.7500
L48.0000 19.4600
" />
<path d="M48.0000 19.4600
L50.7100 16.7500
" />
<path d="M92.5000 65.5000
L88.3370 69.6630
" />
<path d="M88.3370 69.6630
L51.9130 69.6630
" />
<path d="M51.9130 69.6630
L48.0000 65.7500
" />
<path d="M91.5000 56.0000
L79.0000 68.5000
" />
<path d="M50.5000 66.0000
L50.5000 19.5000
" />
<path d="M50.5000 19.5000
L53.2500 16.7500
" />
<path d="M53.0000 68.5000
L50.5000 66.0000
" />
<path d="M79.0000 68.5000
L53.0000 68.5000
" />
<path d="M58.3300 65.2450
L58.3300 16.7500
" />
<path d="M79.0000 50.0000
L73.0000 56.0000
" />
<path d="M73.0000 63.6515
L70.0015 66.6500
" />
<path d="M70.0015 66.6500
L59.7350 66.6500
" />
<path d="M73.0000 56.0000
L73.0000 63.6515
" />
<path d="M59.7350 66.6500
L58.3300 65.2450
" />
<path d="M72.2500 21.3641
L70.6859 19.8000
" />
<path d="M70.6859 19.8000
L63.9200 19.8000
" />
<path d="M63.9200 19.8000
L60.8700 16.7500
" />
<path d="M79.0000 41.0000
L72.2500 34.2500
" />
<path d="M72.2500 34.2500
L72.2500 21.3641
" />
<path d="M89.7500 47.0000
L74.0000 31.2500
" />
<path d="M65.8600 19.2000
L63.4100 16.7500
" />
<path d="M74.0000 31.2500
L74.0000 22.2656
" />
<path d="M91.5000 47.0000
L89.7500 47.0000
" />
<path d="M70.9344 19.2000
L65.8600 19.2000
" />
<path d="M74.0000 22.2656
L70.9344 19.2000
" />
<path d="M67.8000 18.6000
L65.9500 16.7500
" />
<path d="M75.5000 22.9171
L71.1829 18.6000
" />
<path d="M75.5000 28.0000
L75.5000 22.9171
" />
<path d="M78.5000 31.0000
L75.5000 28.0000
" />
<path d="M71.1829 18.6000
L67.8000 18.6000
" />
<path d="M71.4315 18.0000
L69.7400 18.0000
" />
<path d="M80.7500 27.2500
L80.6815 27.2500
" />
<path d="M69.7400 18.0000
L68.4900 16.7500
" />
<path d="M80.6815 27.2500
L71.4315 18.0000
" />
<path d="M91.5000 38.0000
L80.7500 27.2500
" />
<path d="M109.4380 51.4380
L109.4380 20.1410
" />
<path d="M117.0000 59.0000
L109.4380 51.4380
" />
<path d="M109.0470 19.7500
L74.0300 19.7500
" />
<path d="M74.0300 19.7500
L71.0300 16.7500
" />
<path d="M109.4380 20.1410
L109.0470 19.7500
" />
<path d="M110.0380 43.0380
L110.0380 19.8925
" />
<path d="M110.0380 19.8925
L109.2565 19.1110
" />
<path d="M109.2565 19.1110
L75.9310 19.1110
" />
<path d="M75.9310 19.1110
L73.5700 16.7500
" />
<path d="M117.0000 50.0000
L110.0380 43.0380
" />
<path d="M77.8710 18.5110
L76.1100 16.7500
" />
<path d="M109.5051 18.5110
L77.8710 18.5110
" />
<path d="M110.6380 34.6380
L110.6380 19.6439
" />
<path d="M117.0000 41.0000
L110.6380 34.6380
" />
<path d="M110.6380 19.6439
L109.5051 18.5110
" />
<path d="M116.0000 31.0000
L116.0000 24.0000
" />
<path d="M109.9110 17.9110
L79.8110 17.9110
" />
<path d="M116.0000 24.0000
L109.9110 17.9110
" />
<path d="M79.8110 17.9110
L78.6500 16.7500
" />
<path style="fill:#C83434; fill-opacity:1.0000; stroke:none;fill-rule:evenodd;"
d="M 80.2278,3.7722
80.2495,3.8245
80.2495,16.1782
80.2494,16.1804
80.2494,16.3159
80.2835,16.4432
80.2835,16.4432
80.2835,16.4432
80.3494,16.5573
80.4425,16.6505
80.5567,16.7164
80.6840,16.7505
80.6840,16.7505
80.6840,16.7505
80.6841,16.7505
80.8159,16.7505
124.9255,16.7505
124.9778,16.7722
124.9995,16.8245
124.9995,69.7886
124.9778,69.8409
124.9255,69.8626
88.8825,69.8626
88.8301,69.8409
88.8085,69.7886
88.8301,69.7363
89.4417,69.1247
91.4797,67.0867
91.5320,67.0650
91.5737,67.0779
91.5847,67.0854
91.8312,67.2041
91.9619,67.2444
92.0926,67.2847
92.0926,67.2847
92.0926,67.2847
92.3632,67.3255
92.3632,67.3255
92.6368,67.3255
92.6368,67.3255
92.9074,67.2847
92.9074,67.2847
92.9074,67.2847
92.9519,67.2710
93.1688,67.2041
93.4153,67.0854
93.6414,66.9312
93.8419,66.7451
94.0125,66.5312
94.1493,66.2943
94.2493,66.0396
94.2583,66.0000
118.0450,66.0000
118.0651,66.3589
118.0651,66.3589
118.1253,66.7132
118.2248,67.0586
118.3624,67.3906
118.3624,67.3906
118.5362,67.7052
118.5362,67.7052
118.7442,67.9983
118.8502,68.1169
119.9855,66.9817
120.0296,67.0423
120.2077,67.2204
120.2683,67.2645
119.1331,68.3998
119.2517,68.5058
119.5448,68.7138
119.5448,68.7138
119.8594,68.8876
119.8594,68.8876
120.1914,69.0252
120.5368,69.1247
120.5368,69.1247
120.8911,69.1849
120.8911,69.1849
121.2500,69.2050
121.6089,69.1849
121.6089,69.1849
121.9632,69.1247
122.3086,69.0252
122.6406,68.8876
122.6406,68.8876
122.9552,68.7138
122.9552,68.7138
123.2483,68.5058
123.3669,68.3998
123.3669,68.3998
122.2317,67.2645
122.2923,67.2204
122.4704,67.0423
122.5145,66.9817
123.6498,68.1169
123.6498,68.1169
123.7558,67.9983
123.9638,67.7052
123.9638,67.7052
124.1376,67.3906
124.1376,67.3906
124.2752,67.0586
124.3747,66.7132
124.4349,66.3589
124.4349,66.3589
124.4550,66.0000
124.4349,65.6411
124.4349,65.6411
124.3747,65.2868
124.2752,64.9414
124.1376,64.6094
124.1376,64.6094
123.9638,64.2948
123.9638,64.2948
123.7558,64.0017
123.6498,63.8831
123.6498,63.8831
122.5145,65.0183
122.4704,64.9577
122.2923,64.7796
122.2317,64.7355
123.3669,63.6002
123.2483,63.4942
122.9552,63.2862
122.9552,63.2862
122.6406,63.1124
122.6406,63.1124
122.3086,62.9748
121.9632,62.8753
121.9632,62.8753
121.6089,62.8151
121.6089,62.8151
121.2500,62.7950
120.8911,62.8151
120.8911,62.8151
120.5368,62.8753
120.1914,62.9748
119.8594,63.1124
119.8594,63.1124
119.5448,63.2862
119.5448,63.2862
119.2517,63.4942
119.1331,63.6002
120.2683,64.7355
120.2077,64.7796
120.0296,64.9577
119.9855,65.0183
118.8502,63.8831
118.7442,64.0017
118.5362,64.2948
118.5362,64.2948
118.3624,64.6094
118.3624,64.6094
118.2248,64.9414
118.1253,65.2868
118.0651,65.6411
118.0651,65.6411
118.0450,66.0000
94.2583,66.0000
94.3102,65.7728
94.3306,65.5000
94.3102,65.2272
94.2493,64.9604
94.1493,64.7057
94.0125,64.4688
93.8419,64.2549
93.6414,64.0688
93.4153,63.9146
93.2867,63.8527
93.1688,63.7959
93.1688,63.7959
93.1688,63.7959
93.1688,63.7959
93.1688,63.7959
92.9074,63.7153
92.8847,63.7119
92.6368,63.6745
92.3632,63.6745
92.1615,63.7049
92.0926,63.7153
91.8312,63.7959
91.8312,63.7959
91.5847,63.9146
91.5847,63.9146
91.3586,64.0688
91.3586,64.0688
91.1581,64.2549
90.9875,64.4688
90.8507,64.7057
90.7507,64.9604
90.6898,65.2272
90.6694,65.5000
90.6694,65.5000
90.6898,65.7728
90.7507,66.0396
90.8507,66.2943
90.9279,66.4281
90.9353,66.4843
90.9162,66.5174
88.1928,69.2408
88.1405,69.2625
52.1095,69.2625
52.0572,69.2408
48.4222,65.6058
48.4005,65.5535
48.4005,19.6565
48.4222,19.6042
50.2042,17.8222
50.2565,17.8005
51.4545,17.8005
51.5068,17.8222
51.5285,17.8745
51.5068,17.9268
50.1795,19.2541
50.1268,19.3454
50.1268,19.3454
50.1043,19.4295
50.1043,19.4295
50.0995,19.4473
50.0995,19.4473
50.0995,65.9473
50.0995,66.0527
50.1268,66.1546
50.1268,66.1546
50.1795,66.2459
50.1795,66.2459
50.1795,66.2459
52.7541,68.8205
52.8454,68.8732
52.9473,68.9005
52.9473,68.9005
79.0527,68.9005
79.0527,68.9005
79.1546,68.8732
79.2459,68.8205
90.4797,57.5867
90.5320,57.5650
90.5737,57.5779
90.5847,57.5854
90.8312,57.7041
90.9619,57.7444
91.0926,57.7847
91.0926,57.7847
91.0926,57.7847
91.3632,57.8255
91.3632,57.8255
91.6368,57.8255
91.6368,57.8255
91.9074,57.7847
91.9074,57.7847
91.9074,57.7847
91.9519,57.7710
92.1688,57.7041
92.4153,57.5854
92.6414,57.4312
92.8419,57.2451
93.0125,57.0312
93.1493,56.7943
93.2493,56.5396
93.3102,56.2728
93.3306,56.0000
93.3102,55.7272
93.2493,55.4604
93.1493,55.2057
93.0125,54.9688
92.8419,54.7549
92.6414,54.5688
92.4153,54.4146
92.2867,54.3527
92.1688,54.2959
92.1688,54.2959
92.1688,54.2959
92.1688,54.2959
92.1688,54.2959
91.9074,54.2153
91.8847,54.2119
91.6368,54.1745
91.3632,54.1745
91.1615,54.2049
91.0926,54.2153
90.8312,54.2959
90.8312,54.2959
90.5847,54.4146
90.5847,54.4146
90.3586,54.5688
90.3586,54.5688
90.1581,54.7549
89.9875,54.9688
89.8507,55.2057
89.7507,55.4604
89.6898,55.7272
89.6694,56.0000
89.6694,56.0000
89.6898,56.2728
89.7507,56.5396
89.8507,56.7943
89.9279,56.9281
89.9353,56.9843
89.9162,57.0174
78.8558,68.0778
78.8035,68.0995
53.1965,68.0995
53.1442,68.0778
50.9222,65.8558
50.9005,65.8035
50.9005,65.5000
52.6694,65.5000
52.6694,65.5000
52.6898,65.7728
52.7507,66.0396
52.7958,66.1546
52.8507,66.2943
52.9875,66.5312
53.1581,66.7451
53.3586,66.9312
53.5847,67.0854
53.8312,67.2041
53.9619,67.2444
54.0926,67.2847
54.0926,67.2847
54.0926,67.2847
54.3632,67.3255
54.3632,67.3255
54.6368,67.3255
54.6368,67.3255
54.9074,67.2847
54.9074,67.2847
54.9074,67.2847
54.9519,67.2710
55.1688,67.2041
55.4153,67.0854
55.6414,66.9312
55.8419,66.7451
56.0125,66.5312
56.1493,66.2943
56.2493,66.0396
56.3102,65.7728
56.3306,65.5000
56.3102,65.2272
56.2493,64.9604
56.1493,64.7057
56.0125,64.4688
55.8419,64.2549
55.6414,64.0688
55.4153,63.9146
55.2867,63.8527
55.1688,63.7959
55.1688,63.7959
55.1688,63.7959
55.1688,63.7959
55.1688,63.7959
54.9074,63.7153
54.8847,63.7119
54.6368,63.6745
54.3632,63.6745
54.1615,63.7049
54.0926,63.7153
53.8312,63.7959
53.8312,63.7959
53.5847,63.9146
53.5847,63.9146
53.3586,64.0688
53.3586,64.0688
53.1581,64.2549
52.9875,64.4688
52.8507,64.7057
52.7507,64.9604
52.6898,65.2272
52.6694,65.5000
50.9005,65.5000
50.9005,56.0000
51.6694,56.0000
51.6694,56.0000
51.6898,56.2728
51.7507,56.5396
51.8197,56.7153
51.8507,56.7943
51.9875,57.0312
52.1581,57.2451
52.3586,57.4312
52.5847,57.5854
52.8312,57.7041
52.9619,57.7444
53.0926,57.7847
53.0926,57.7847
53.0926,57.7847
53.3632,57.8255
53.3632,57.8255
53.6368,57.8255
53.6368,57.8255
53.9074,57.7847
53.9074,57.7847
53.9074,57.7847
53.9519,57.7710
54.1688,57.7041
54.4153,57.5854
54.6414,57.4312
54.8419,57.2451
55.0125,57.0312
55.1493,56.7943
55.2493,56.5396
55.3102,56.2728
55.3306,56.0000
55.3102,55.7272
55.2493,55.4604
55.1493,55.2057
55.0125,54.9688
54.8419,54.7549
54.6414,54.5688
54.4153,54.4146
54.2867,54.3527
54.1688,54.2959
54.1688,54.2959
54.1688,54.2959
54.1688,54.2959
54.1688,54.2959
53.9074,54.2153
53.8847,54.2119
53.6368,54.1745
53.3632,54.1745
53.1615,54.2049
53.0926,54.2153
52.8312,54.2959
52.8312,54.2959
52.5847,54.4146
52.5847,54.4146
52.3586,54.5688
52.3586,54.5688
52.1581,54.7549
51.9875,54.9688
51.8507,55.2057
51.7507,55.4604
51.6898,55.7272
51.6694,56.0000
50.9005,56.0000
50.9005,47.0000
51.6694,47.0000
51.6694,47.0000
51.6898,47.2728
51.7507,47.5396
51.7507,47.5396
51.8507,47.7943
51.9875,48.0312
52.1581,48.2451
52.3586,48.4312
52.5847,48.5854
52.8312,48.7041
52.9619,48.7444
53.0926,48.7847
53.0926,48.7847
53.0926,48.7847
53.3632,48.8255
53.3632,48.8255
53.6368,48.8255
53.6368,48.8255
53.9074,48.7847
53.9074,48.7847
53.9074,48.7847
53.9519,48.7710
54.1688,48.7041
54.4153,48.5854
54.6414,48.4312
54.8419,48.2451
55.0125,48.0312
55.1493,47.7943
55.2493,47.5396
55.3102,47.2728
55.3306,47.0000
55.3102,46.7272
55.2493,46.4604
55.1493,46.2057
55.0125,45.9688
54.8419,45.7549
54.6414,45.5688
54.4153,45.4146
54.2867,45.3527
54.1688,45.2959
54.1688,45.2959
54.1688,45.2959
54.1688,45.2959
54.1688,45.2959
53.9074,45.2153
53.8847,45.2119
53.6368,45.1745
53.3632,45.1745
53.1615,45.2049
53.0926,45.2153
52.8312,45.2959
52.8312,45.2959
52.5847,45.4146
52.5847,45.4146
52.3586,45.5688
52.3586,45.5688
52.1581,45.7549
51.9875,45.9688
51.8507,46.2057
51.7507,46.4604
51.6898,46.7272
51.6694,47.0000
50.9005,47.0000
50.9005,38.0000
51.6694,38.0000
51.6694,38.0000
51.6898,38.2728
51.7507,38.5396
51.7507,38.5396
51.8507,38.7943
51.9875,39.0312
52.1581,39.2451
52.3586,39.4312
52.5847,39.5854
52.8312,39.7041
52.9619,39.7444
53.0926,39.7847
53.0926,39.7847
53.0926,39.7847
53.3632,39.8255
53.3632,39.8255
53.6368,39.8255
53.6368,39.8255
53.9074,39.7847
53.9074,39.7847
53.9074,39.7847
53.9519,39.7710
54.1688,39.7041
54.4153,39.5854
54.6414,39.4312
54.8419,39.2451
55.0125,39.0312
55.1493,38.7943
55.2493,38.5396
55.3102,38.2728
55.3306,38.0000
55.3102,37.7272
55.2493,37.4604
55.1493,37.2057
55.0125,36.9688
54.8419,36.7549
54.6414,36.5688
54.4153,36.4146
54.2867,36.3527
54.1688,36.2959
54.1688,36.2959
54.1688,36.2959
54.1688,36.2959
54.1688,36.2959
53.9074,36.2153
53.8847,36.2119
53.6368,36.1745
53.3632,36.1745
53.1615,36.2049
53.0926,36.2153
52.8312,36.2959
52.8312,36.2959
52.5875,36.4133
52.5847,36.4146
52.5567,36.4337
52.3586,36.5688
52.1581,36.7549
51.9875,36.9688
51.8507,37.2057
51.7507,37.4604
51.6898,37.7272
51.6694,38.0000
50.9005,38.0000
50.9005,19.6965
50.9222,19.6442
52.8109,17.7555
52.8633,17.7338
52.8847,17.7370
53.0441,17.7853
53.2500,17.8056
53.4559,17.7853
53.6540,17.7252
53.8364,17.6277
53.9964,17.4964
54.1277,17.3364
54.2252,17.1540
54.2853,16.9559
54.3056,16.7500
54.7344,16.7500
54.7547,16.9559
54.8148,17.1540
54.9123,17.3364
55.0436,17.4964
55.2035,17.6277
55.3860,17.7252
55.5841,17.7853
55.7900,17.8056
55.9959,17.7853
56.1553,17.7370
56.2116,17.7425
56.2291,17.7555
56.4908,18.0172
56.5125,18.0695
56.5125,65.5233
56.5125,65.6287
56.5360,65.7164
56.5398,65.7306
56.5398,65.7306
56.5925,65.8219
56.5925,65.8219
56.5925,65.8219
57.4838,66.7132
58.2639,67.4933
58.2639,67.4933
58.2665,67.4959
58.3411,67.5705
58.4324,67.6232
58.4324,67.6232
58.4324,67.6232
58.4833,67.6369
58.5343,67.6505
58.5343,67.6505
58.5343,67.6505
58.6443,67.6505
58.6443,67.6505
70.3027,67.6505
70.3027,67.6505
70.4046,67.6232
70.4959,67.5705
77.9797,60.0867
78.0320,60.0650
78.0737,60.0779
78.0847,60.0854
78.3312,60.2041
78.4619,60.2444
78.5926,60.2847
78.5926,60.2847
78.5926,60.2847
78.8632,60.3255
78.8632,60.3255
79.1368,60.3255
79.1368,60.3255
79.4074,60.2847
79.4074,60.2847
79.4074,60.2847
79.4519,60.2710
79.6688,60.2041
79.9153,60.0854
80.1414,59.9312
80.3419,59.7451
80.5125,59.5312
80.6493,59.2943
80.7493,59.0396
80.8102,58.7728
80.8306,58.5000
80.8102,58.2272
80.7493,57.9604
80.6493,57.7057
80.5125,57.4688
80.3419,57.2549
80.1414,57.0688
79.9153,56.9146
79.7867,56.8527
79.6688,56.7959
79.6688,56.7959
79.6688,56.7959
79.6688,56.7959
79.6688,56.7959
79.4074,56.7153
79.3847,56.7119
79.1368,56.6745
78.8632,56.6745
78.6615,56.7049
78.5926,56.7153
78.3312,56.7959
78.3312,56.7959
78.0847,56.9146
78.0847,56.9146
77.8586,57.0688
77.8586,57.0688
77.6581,57.2549
77.4875,57.4688
77.3507,57.7057
77.2507,57.9604
77.1898,58.2272
77.1694,58.5000
77.1694,58.5000
77.1898,58.7728
77.2507,59.0396
77.3507,59.2943
77.4279,59.4281
77.4353,59.4843
77.4162,59.5174
73.5268,63.4068
73.4745,63.4285
73.4222,63.4068
73.4005,63.3545
73.4005,56.1965
73.4222,56.1442
77.9797,51.5867
78.0320,51.5650
78.0737,51.5779
78.0847,51.5854
78.3312,51.7041
78.4619,51.7444
78.5926,51.7847
78.5926,51.7847
78.5926,51.7847
78.8632,51.8255
78.8632,51.8255
79.1368,51.8255
79.1368,51.8255
79.4074,51.7847
79.4074,51.7847
79.4074,51.7847
79.4519,51.7710
79.6688,51.7041
79.9153,51.5854
80.1414,51.4312
80.3419,51.2451
80.5125,51.0312
80.6493,50.7943
80.7493,50.5396
80.8102,50.2728
80.8306,50.0000
80.8102,49.7272
80.7493,49.4604
80.6493,49.2057
80.5125,48.9688
80.3419,48.7549
80.1414,48.5688
79.9153,48.4146
79.7867,48.3527
79.6688,48.2959
79.6688,48.2959
79.6688,48.2959
79.6688,48.2959
79.6688,48.2959
79.4074,48.2153
79.3847,48.2119
79.1368,48.1745
78.8632,48.1745
78.6615,48.2049
78.5926,48.2153
78.3312,48.2959
78.3312,48.2959
78.0875,48.4133
78.0847,48.4146
78.0567,48.4337
77.8586,48.5688
77.6581,48.7549
77.4875,48.9688
77.3507,49.2057
77.2507,49.4604
77.1898,49.7272
77.1694,50.0000
77.1694,50.0000
77.1898,50.2728
77.2507,50.5396
77.3507,50.7943
77.4279,50.9281
77.4353,50.9843
77.4162,51.0174
72.6795,55.7541
72.6268,55.8454
72.6268,55.8454
72.5995,55.9473
72.5995,63.4549
72.5778,63.5073
69.8573,66.2278
69.8049,66.2495
59.9315,66.2495
59.8792,66.2278
59.5282,65.8768
59.5065,65.8245
59.5282,65.7722
59.5805,65.7505
69.5159,65.7505
69.5159,65.7505
69.6432,65.7164
69.7573,65.6505
69.8505,65.5573
69.9164,65.4432
69.9505,65.3159
69.9505,65.3159
69.9505,20.9341
69.9505,20.9341
69.9164,20.8068
69.9164,20.8068
69.8505,20.6927
69.7573,20.5995
69.6432,20.5336
69.6432,20.5336
69.5159,20.4995
69.5159,20.4995
59.5159,20.4995
59.3841,20.4995
59.3841,20.4995
59.2568,20.5336
59.2568,20.5336
59.1427,20.5995
59.0495,20.6927
58.9836,20.8068
58.9836,20.8068
58.9495,20.9341
58.9495,65.1195
58.9278,65.1718
58.8755,65.1935
58.8232,65.1718
58.7522,65.1008
58.7305,65.0485
58.7305,17.7714
58.7522,17.7191
58.7696,17.7062
58.7852,17.6978
58.9164,17.6277
59.0764,17.4964
59.2077,17.3364
59.3052,17.1540
59.3653,16.9559
59.3856,16.7500
59.8144,16.7500
59.8347,16.9559
59.8948,17.1540
59.9923,17.3364
60.1236,17.4964
60.2835,17.6277
60.4660,17.7252
60.6641,17.7853
60.8700,17.8056
61.0759,17.7853
61.2353,17.7370
61.2916,17.7425
61.3091,17.7555
63.5995,20.0459
63.5995,20.0459
63.6741,20.1205
63.7654,20.1732
63.8673,20.2005
63.8673,20.2005
63.8673,20.2005
63.9727,20.2005
70.4893,20.2005
70.5417,20.2222
71.8278,21.5083
71.8495,21.5607
71.8495,34.1973
71.8495,34.3027
71.8768,34.4046
71.8768,34.4046
71.9295,34.4959
71.9295,34.4959
71.9295,34.4959
74.8940,37.4604
77.4162,39.9826
77.4378,40.0349
77.4279,40.0719
77.3507,40.2057
77.2507,40.4604
77.1898,40.7272
77.1694,41.0000
77.1694,41.0000
77.1898,41.2728
77.2507,41.5396
77.2507,41.5396
77.3507,41.7943
77.4875,42.0312
77.6581,42.2451
77.8586,42.4312
78.0847,42.5854
78.3312,42.7041
78.4619,42.7444
78.5926,42.7847
78.5926,42.7847
78.5926,42.7847
78.8632,42.8255
78.8632,42.8255
79.1368,42.8255
79.1368,42.8255
79.4074,42.7847
79.4074,42.7847
79.4074,42.7847
79.4519,42.7710
79.6688,42.7041
79.9153,42.5854
80.1414,42.4312
80.3419,42.2451
80.5125,42.0312
80.6493,41.7943
80.7493,41.5396
80.8102,41.2728
80.8306,41.0000
80.8102,40.7272
80.7493,40.4604
80.6493,40.2057
80.5125,39.9688
80.3419,39.7549
80.1414,39.5688
79.9153,39.4146
79.7867,39.3527
79.6688,39.2959
79.6688,39.2959
79.6688,39.2959
79.6688,39.2959
79.6688,39.2959
79.4074,39.2153
79.3847,39.2119
79.1368,39.1745
78.8632,39.1745
78.6615,39.2049
78.5926,39.2153
78.3312,39.2959
78.3312,39.2959
78.0847,39.4146
78.0847,39.4146
78.0737,39.4221
78.0183,39.4337
77.9797,39.4133
72.6722,34.1058
72.6505,34.0535
72.6505,21.6611
72.6722,21.6088
72.7245,21.5871
72.7768,21.6088
73.5778,22.4098
73.5995,22.4621
73.5995,31.1973
73.5995,31.3027
73.6268,31.4046
73.6268,31.4046
73.6795,31.4959
73.6795,31.4959
73.6795,31.4959
81.5969,39.4133
89.4269,47.2433
89.4269,47.2433
89.4295,47.2459
89.5041,47.3205
89.5954,47.3732
89.5954,47.3732
89.5954,47.3732
89.6773,47.3952
89.7222,47.4296
89.7303,47.4502
89.7507,47.5396
89.7507,47.5396
89.8507,47.7943
89.9875,48.0312
90.1581,48.2451
90.3586,48.4312
90.5847,48.5854
90.8312,48.7041
90.9619,48.7444
91.0926,48.7847
91.0926,48.7847
91.0926,48.7847
91.3632,48.8255
91.3632,48.8255
91.6368,48.8255
91.6368,48.8255
91.9074,48.7847
91.9074,48.7847
91.9074,48.7847
91.9519,48.7710
92.1688,48.7041
92.4153,48.5854
92.6414,48.4312
92.8419,48.2451
93.0125,48.0312
93.1493,47.7943
93.2493,47.5396
93.3102,47.2728
93.3306,47.0000
93.3102,46.7272
93.2493,46.4604
93.1493,46.2057
93.0125,45.9688
92.8419,45.7549
92.6414,45.5688
92.4153,45.4146
92.2867,45.3527
92.1688,45.2959
92.1688,45.2959
92.1688,45.2959
92.1688,45.2959
92.1688,45.2959
91.9074,45.2153
91.8847,45.2119
91.6368,45.1745
91.3632,45.1745
91.1615,45.2049
91.0926,45.2153
90.8312,45.2959
90.8312,45.2959
90.5847,45.4146
90.5847,45.4146
90.3586,45.5688
90.3586,45.5688
90.1581,45.7549
89.9875,45.9688
89.8507,46.2057
89.7994,46.3365
89.7601,46.3773
89.7034,46.3783
89.6781,46.3618
74.4222,31.1058
74.4005,31.0535
74.4005,22.5626
74.4222,22.5103
74.4745,22.4886
74.5268,22.5103
75.0778,23.0613
75.0995,23.1136
75.0995,27.9473
75.0995,28.0527
75.1268,28.1546
75.1268,28.1546
75.1795,28.2459
75.1795,28.2459
75.1795,28.2459
76.0922,29.1585
76.9162,29.9826
76.9378,30.0349
76.9279,30.0719
76.8507,30.2057
76.7507,30.4604
76.6898,30.7272
76.6694,31.0000
76.6694,31.0000
76.6898,31.2728
76.7507,31.5396
76.7507,31.5396
76.8507,31.7943
76.9875,32.0312
77.1581,32.2451
77.3586,32.4312
77.5847,32.5854
77.8312,32.7041
77.9619,32.7444
78.0926,32.7847
78.0926,32.7847
78.0926,32.7847
78.3632,32.8255
78.3632,32.8255
78.6368,32.8255
78.6368,32.8255
78.9074,32.7847
78.9074,32.7847
78.9074,32.7847
78.9519,32.7710
79.1688,32.7041
79.4153,32.5854
79.6414,32.4312
79.8419,32.2451
80.0125,32.0312
80.1493,31.7943
80.2493,31.5396
80.3102,31.2728
80.3306,31.0000
80.3102,30.7272
80.2493,30.4604
80.1493,30.2057
80.0125,29.9688
79.8419,29.7549
79.6414,29.5688
79.4153,29.4146
79.2867,29.3527
79.1688,29.2959
79.1688,29.2959
79.1688,29.2959
79.1688,29.2959
79.1688,29.2959
78.9074,29.2153
78.8781,29.2109
78.6368,29.1745
78.3632,29.1745
78.1615,29.2049
78.0926,29.2153
77.8312,29.2959
77.8312,29.2959
77.5847,29.4146
77.5847,29.4146
77.5737,29.4221
77.5183,29.4337
77.4797,29.4133
75.9222,27.8558
75.9005,27.8035
75.9005,23.2141
75.9222,23.1617
75.9745,23.1401
76.0268,23.1617
80.3610,27.4959
80.3610,27.4959
80.4356,27.5705
80.5269,27.6232
80.5486,27.6290
80.5818,27.6482
89.9162,36.9826
89.9378,37.0349
89.9279,37.0719
89.8507,37.2057
89.7507,37.4604
89.6898,37.7272
89.6694,38.0000
89.6694,38.0000
89.6898,38.2728
89.7507,38.5396
89.7507,38.5396
89.8507,38.7943
89.9875,39.0312
90.1581,39.2451
90.3586,39.4312
90.5847,39.5854
90.8312,39.7041
90.9619,39.7444
91.0926,39.7847
91.0926,39.7847
91.0926,39.7847
91.3632,39.8255
91.3632,39.8255
91.6368,39.8255
91.6368,39.8255
91.9074,39.7847
91.9074,39.7847
91.9074,39.7847
91.9519,39.7710
92.1688,39.7041
92.4153,39.5854
92.6414,39.4312
92.8419,39.2451
93.0125,39.0312
93.1493,38.7943
93.2493,38.5396
93.3102,38.2728
93.3306,38.0000
93.3102,37.7272
93.2493,37.4604
93.1493,37.2057
93.0125,36.9688
92.8419,36.7549
92.6414,36.5688
92.4153,36.4146
92.2867,36.3527
92.1688,36.2959
92.1688,36.2959
92.1688,36.2959
92.1688,36.2959
92.1688,36.2959
91.9074,36.2153
91.8847,36.2119
91.6368,36.1745
91.3632,36.1745
91.1615,36.2049
91.0926,36.2153
90.8312,36.2959
90.8312,36.2959
90.5847,36.4146
90.5847,36.4146
90.5737,36.4221
90.5183,36.4337
90.4797,36.4133
85.8607,31.7943
80.9959,26.9295
80.9959,26.9295
80.9959,26.9295
80.9046,26.8768
80.9046,26.8768
80.8829,26.8710
80.8497,26.8518
74.9320,20.9341
96.4995,20.9341
96.4995,65.4409
96.5336,65.5682
96.5336,65.5682
96.5811,65.6505
96.5995,65.6823
96.6927,65.7755
96.8068,65.8414
96.9341,65.8755
96.9341,65.8755
96.9341,65.8755
107.0659,65.8755
107.0659,65.8755
107.1932,65.8414
107.3073,65.7755
107.4005,65.6823
107.4664,65.5682
107.5005,65.4409
107.5005,65.4409
107.5005,20.9341
107.5005,20.9341
107.4664,20.8068
107.4664,20.8068
107.4005,20.6927
107.3073,20.5995
107.1932,20.5336
107.1932,20.5336
107.0659,20.4995
107.0659,20.4995
97.0659,20.4995
96.9341,20.4995
96.9341,20.4995
96.8068,20.5336
96.8068,20.5336
96.6927,20.5995
96.5995,20.6927
96.5336,20.8068
96.5336,20.8068
96.4995,20.9341
74.9320,20.9341
74.2747,20.2768
74.2530,20.2245
74.2747,20.1722
74.3270,20.1505
108.8505,20.1505
108.9028,20.1722
109.0158,20.2852
109.0375,20.3375
109.0375,51.3853
109.0375,51.4907
109.0516,51.5433
109.0648,51.5926
109.0648,51.5926
109.1175,51.6839
109.1175,51.6839
109.1175,51.6839
112.4024,54.9688
115.4162,57.9826
115.4378,58.0349
115.4279,58.0719
115.3507,58.2057
115.2507,58.4604
115.1898,58.7272
115.1694,59.0000
115.1694,59.0000
115.1898,59.2728
115.2507,59.5396
115.2507,59.5396
115.3507,59.7943
115.4875,60.0312
115.6581,60.2451
115.8586,60.4312
116.0847,60.5854
116.3312,60.7041
116.4619,60.7444
116.5926,60.7847
116.5926,60.7847
116.5926,60.7847
116.8632,60.8255
116.8632,60.8255
117.1368,60.8255
117.1368,60.8255
117.4074,60.7847
117.4074,60.7847
117.4074,60.7847
117.4519,60.7710
117.6688,60.7041
117.9153,60.5854
118.1414,60.4312
118.3419,60.2451
118.5125,60.0312
118.6493,59.7943
118.7493,59.5396
118.8102,59.2728
118.8306,59.0000
118.8102,58.7272
118.7493,58.4604
118.6493,58.2057
118.5125,57.9688
118.3419,57.7549
118.1414,57.5688
117.9153,57.4146
117.7867,57.3527
117.6688,57.2959
117.6688,57.2959
117.6688,57.2959
117.6688,57.2959
117.6688,57.2959
117.4074,57.2153
117.3847,57.2119
117.1368,57.1745
116.8632,57.1745
116.6615,57.2049
116.5926,57.2153
116.3312,57.2959
116.3312,57.2959
116.0847,57.4146
116.0847,57.4146
116.0737,57.4221
116.0183,57.4337
115.9797,57.4133
109.8602,51.2938
109.8385,51.2415
109.8385,43.5835
109.8602,43.5312
109.9125,43.5095
109.9648,43.5312
115.4162,48.9826
115.4378,49.0349
115.4279,49.0719
115.3507,49.2057
115.2507,49.4604
115.1898,49.7272
115.1694,50.0000
115.1694,50.0000
115.1898,50.2728
115.2507,50.5396
115.2507,50.5396
115.3507,50.7943
115.4875,51.0312
115.6581,51.2451
115.8586,51.4312
116.0847,51.5854
116.3312,51.7041
116.4619,51.7444
116.5926,51.7847
116.5926,51.7847
116.5926,51.7847
116.8632,51.8255
116.8632,51.8255
117.1368,51.8255
117.1368,51.8255
117.4074,51.7847
117.4074,51.7847
117.4074,51.7847
117.4519,51.7710
117.6688,51.7041
117.9153,51.5854
118.1414,51.4312
118.3419,51.2451
118.5125,51.0312
118.6493,50.7943
118.7493,50.5396
118.8102,50.2728
118.8306,50.0000
118.8102,49.7272
118.7493,49.4604
118.6493,49.2057
118.5125,48.9688
118.3419,48.7549
118.1414,48.5688
117.9153,48.4146
117.7867,48.3527
117.6688,48.2959
117.6688,48.2959
117.6688,48.2959
117.6688,48.2959
117.6688,48.2959
117.4074,48.2153
117.3847,48.2119
117.1368,48.1745
116.8632,48.1745
116.6615,48.2049
116.5926,48.2153
116.3312,48.2959
116.3312,48.2959
116.0847,48.4146
116.0847,48.4146
116.0737,48.4221
116.0183,48.4337
115.9797,48.4133
110.4602,42.8938
110.4385,42.8415
110.4385,35.1835
110.4602,35.1312
110.5125,35.1095
110.5648,35.1312
115.4162,39.9826
115.4378,40.0349
115.4279,40.0719
115.3507,40.2057
115.2507,40.4604
115.1898,40.7272
115.1694,41.0000
115.1694,41.0000
115.1898,41.2728
115.2507,41.5396
115.2507,41.5396
115.3507,41.7943
115.4875,42.0312
115.6581,42.2451
115.8586,42.4312
116.0847,42.5854
116.3312,42.7041
116.4619,42.7444
116.5926,42.7847
116.5926,42.7847
116.5926,42.7847
116.8632,42.8255
116.8632,42.8255
117.1368,42.8255
117.1368,42.8255
117.4074,42.7847
117.4074,42.7847
117.4074,42.7847
117.4519,42.7710
117.6688,42.7041
117.9153,42.5854
118.1414,42.4312
118.3419,42.2451
118.5125,42.0312
118.6493,41.7943
118.7493,41.5396
118.8102,41.2728
118.8306,41.0000
118.8102,40.7272
118.7493,40.4604
118.6493,40.2057
118.5125,39.9688
118.3419,39.7549
118.1414,39.5688
117.9153,39.4146
117.7867,39.3527
117.6688,39.2959
117.6688,39.2959
117.6688,39.2959
117.6688,39.2959
117.6688,39.2959
117.4074,39.2153
117.3847,39.2119
117.1368,39.1745
116.8632,39.1745
116.6615,39.2049
116.5926,39.2153
116.3312,39.2959
116.3312,39.2959
116.0847,39.4146
116.0847,39.4146
116.0737,39.4221
116.0183,39.4337
115.9797,39.4133
111.0602,34.4938
111.0385,34.4415
111.0385,19.7835
111.0602,19.7312
111.1125,19.7095
111.1648,19.7312
115.5778,24.1442
115.5995,24.1965
115.5995,29.1585
115.5778,29.2109
115.5473,29.2293
115.3312,29.2959
115.3312,29.2959
115.0875,29.4133
115.0847,29.4146
115.0567,29.4337
114.8586,29.5688
114.6581,29.7549
114.4875,29.9688
114.3507,30.2057
114.2507,30.4604
114.1898,30.7272
114.1694,31.0000
114.1694,31.0000
114.1898,31.2728
114.2507,31.5396
114.2507,31.5396
114.3507,31.7943
114.4875,32.0312
114.6581,32.2451
114.8586,32.4312
115.0847,32.5854
115.3312,32.7041
115.4619,32.7444
115.5926,32.7847
115.5926,32.7847
115.5926,32.7847
115.8632,32.8255
115.8632,32.8255
116.1368,32.8255
116.1368,32.8255
116.4074,32.7847
116.4074,32.7847
116.4074,32.7847
116.4519,32.7710
116.6688,32.7041
116.9153,32.5854
117.1414,32.4312
117.3419,32.2451
117.5125,32.0312
117.6493,31.7943
117.7493,31.5396
117.8102,31.2728
117.8306,31.0000
117.8102,30.7272
117.7493,30.4604
117.6493,30.2057
117.5125,29.9688
117.3419,29.7549
117.1414,29.5688
116.9153,29.4146
116.7867,29.3527
116.6688,29.2959
116.6688,29.2959
116.6688,29.2959
116.6688,29.2959
116.6688,29.2959
116.4527,29.2293
116.4091,29.1931
116.4005,29.1585
116.4005,23.9473
116.4005,23.9473
116.3732,23.8454
116.3732,23.8454
116.3205,23.7541
116.2459,23.6795
113.5664,21.0000
118.0450,21.0000
118.0651,21.3589
118.0651,21.3589
118.1253,21.7132
118.2248,22.0586
118.3624,22.3906
118.3624,22.3906
118.5362,22.7052
118.5362,22.7052
118.7442,22.9983
118.8502,23.1169
119.9855,21.9817
120.0296,22.0423
120.2077,22.2204
120.2683,22.2645
119.1331,23.3998
119.2517,23.5058
119.5448,23.7138
119.5448,23.7138
119.8594,23.8876
119.8594,23.8876
120.1914,24.0252
120.5368,24.1247
120.5368,24.1247
120.8911,24.1849
120.8911,24.1849
121.2500,24.2050
121.6089,24.1849
121.6089,24.1849
121.9632,24.1247
122.3086,24.0252
122.6406,23.8876
122.6406,23.8876
122.9552,23.7138
122.9552,23.7138
123.2483,23.5058
123.3669,23.3998
123.3669,23.3998
122.2317,22.2645
122.2923,22.2204
122.4704,22.0423
122.5145,21.9817
123.6498,23.1169
123.6498,23.1169
123.7558,22.9983
123.9638,22.7052
123.9638,22.7052
124.1376,22.3906
124.1376,22.3906
124.2752,22.0586
124.3747,21.7132
124.4349,21.3589
124.4349,21.3589
124.4550,21.0000
124.4349,20.6411
124.4349,20.6411
124.3747,20.2868
124.2752,19.9414
124.1376,19.6094
124.1376,19.6094
123.9638,19.2948
123.9638,19.2948
123.7558,19.0017
123.6498,18.8831
123.6498,18.8831
122.5145,20.0183
122.4704,19.9577
122.2923,19.7796
122.2317,19.7355
123.3669,18.6002
123.2483,18.4942
122.9552,18.2862
122.9552,18.2862
122.6406,18.1124
122.6406,18.1124
122.3086,17.9748
121.9632,17.8753
121.9632,17.8753
121.6089,17.8151
121.6089,17.8151
121.2500,17.7950
120.8911,17.8151
120.8911,17.8151
120.5368,17.8753
120.1914,17.9748
119.8594,18.1124
119.8594,18.1124
119.5448,18.2862
119.5448,18.2862
119.2517,18.4942
119.1331,18.6002
120.2683,19.7355
120.2077,19.7796
120.0296,19.9577
119.9855,20.0183
118.8502,18.8831
118.7442,19.0017
118.5362,19.2948
118.5362,19.2948
118.3624,19.6094
118.3624,19.6094
118.2248,19.9414
118.1253,20.2868
118.0651,20.6411
118.0651,20.6411
118.0450,21.0000
113.5664,21.0000
110.1569,17.5905
110.1569,17.5905
110.1569,17.5905
110.0656,17.5378
110.0656,17.5378
110.0468,17.5328
109.9637,17.5105
109.9637,17.5105
80.0075,17.5105
79.9552,17.4888
79.6555,17.1891
79.6338,17.1367
79.6370,17.1153
79.6853,16.9559
79.7056,16.7500
79.6853,16.5441
79.6252,16.3460
79.5277,16.1636
79.3964,16.0036
79.2364,15.8723
79.0540,15.7748
78.9422,15.7409
78.8559,15.7147
78.6500,15.6944
78.4441,15.7147
78.2460,15.7748
78.0635,15.8723
77.9036,16.0036
77.9036,16.0036
77.7723,16.1635
77.6748,16.3460
77.6147,16.5441
77.6147,16.5441
77.5944,16.7500
77.6147,16.9559
77.6748,17.1540
77.7723,17.3364
77.9036,17.4964
78.0635,17.6277
78.2460,17.7252
78.4441,17.7853
78.6500,17.8056
78.8559,17.7853
79.0153,17.7370
79.0716,17.7425
79.0891,17.7555
79.3178,17.9842
79.3395,18.0365
79.3178,18.0888
79.2655,18.1105
78.0675,18.1105
78.0152,18.0888
77.1155,17.1891
77.0938,17.1367
77.0970,17.1153
77.1453,16.9559
77.1656,16.7500
77.1453,16.5441
77.0852,16.3460
76.9877,16.1636
76.8564,16.0036
76.6964,15.8723
76.5140,15.7748
76.4022,15.7409
76.3159,15.7147
76.1100,15.6944
75.9041,15.7147
75.7060,15.7748
75.5235,15.8723
75.3636,16.0036
75.3636,16.0036
75.2323,16.1635
75.1348,16.3460
75.0747,16.5441
75.0747,16.5441
75.0544,16.7500
75.0747,16.9559
75.1348,17.1540
75.2323,17.3364
75.3636,17.4964
75.5236,17.6277
75.7060,17.7252
75.9041,17.7853
76.1100,17.8056
76.3159,17.7853
76.4753,17.7370
76.5316,17.7425
76.5491,17.7555
77.3778,18.5842
77.3995,18.6365
77.3778,18.6888
77.3255,18.7105
76.1275,18.7105
76.0752,18.6888
74.5755,17.1891
74.5538,17.1367
74.5570,17.1153
74.6053,16.9559
74.6256,16.7500
74.6053,16.5441
74.5452,16.3460
74.4477,16.1636
74.3164,16.0036
74.1564,15.8723
73.9740,15.7748
73.8622,15.7409
73.7759,15.7147
73.5700,15.6944
73.3641,15.7147
73.1660,15.7748
72.9835,15.8723
72.8236,16.0036
72.8236,16.0036
72.6923,16.1635
72.5948,16.3460
72.5347,16.5441
72.5347,16.5441
72.5144,16.7500
72.5347,16.9559
72.5948,17.1540
72.6923,17.3364
72.8236,17.4964
72.9835,17.6277
73.1660,17.7252
73.3641,17.7853
73.5700,17.8056
73.7759,17.7853
73.9353,17.7370
73.9916,17.7425
74.0091,17.7555
75.4768,19.2232
75.4985,19.2755
75.4768,19.3278
75.4245,19.3495
74.2265,19.3495
74.1742,19.3278
72.0355,17.1891
72.0138,17.1367
72.0170,17.1153
72.0653,16.9559
72.0856,16.7500
72.0653,16.5441
72.0052,16.3460
71.9077,16.1636
71.7764,16.0036
71.6165,15.8723
71.4340,15.7748
71.3222,15.7409
71.2359,15.7147
71.0300,15.6944
70.8241,15.7147
70.6260,15.7748
70.4435,15.8723
70.2836,16.0036
70.2836,16.0036
70.1523,16.1635
70.0548,16.3460
69.9947,16.5441
69.9744,16.7500
69.9947,16.9559
70.0548,17.1540
70.1523,17.3364
70.2689,17.4786
70.2854,17.5328
70.2587,17.5827
70.2117,17.5995
69.9365,17.5995
69.8842,17.5778
69.4955,17.1891
69.4738,17.1367
69.4770,17.1153
69.5253,16.9559
69.5456,16.7500
69.5253,16.5441
69.4652,16.3460
69.3677,16.1636
69.2364,16.0036
69.0764,15.8723
68.8940,15.7748
68.7822,15.7409
68.6959,15.7147
68.4900,15.6944
68.2841,15.7147
68.0860,15.7748
67.9035,15.8723
67.7436,16.0036
67.7436,16.0036
67.6123,16.1635
67.5148,16.3460
67.4547,16.5441
67.4547,16.5441
67.4344,16.7500
67.4547,16.9559
67.5148,17.1540
67.6123,17.3364
67.7436,17.4964
67.9035,17.6277
68.0860,17.7252
68.2841,17.7853
68.4900,17.8056
68.6959,17.7853
68.8553,17.7370
68.9116,17.7425
68.9291,17.7555
69.2468,18.0732
69.2685,18.1255
69.2468,18.1778
69.1945,18.1995
67.9965,18.1995
67.9442,18.1778
66.9555,17.1891
66.9338,17.1367
66.9370,17.1153
66.9853,16.9559
67.0056,16.7500
66.9853,16.5441
66.9252,16.3460
66.8277,16.1636
66.6964,16.0036
66.5365,15.8723
66.3540,15.7748
66.2422,15.7409
66.1559,15.7147
65.9500,15.6944
65.7441,15.7147
65.5460,15.7748
65.3635,15.8723
65.2036,16.0036
65.2036,16.0036
65.0723,16.1635
64.9748,16.3460
64.9147,16.5441
64.9147,16.5441
64.8944,16.7500
64.9147,16.9559
64.9748,17.1540
65.0723,17.3364
65.2036,17.4964
65.3636,17.6277
65.5460,17.7252
65.7441,17.7853
65.9500,17.8056
66.1559,17.7853
66.3153,17.7370
66.3716,17.7425
66.3891,17.7555
67.3068,18.6732
67.3285,18.7255
67.3068,18.7778
67.2545,18.7995
66.0565,18.7995
66.0042,18.7778
64.4155,17.1891
64.3938,17.1367
64.3970,17.1153
64.4453,16.9559
64.4656,16.7500
64.4453,16.5441
64.3852,16.3460
64.2877,16.1636
64.1564,16.0036
63.9964,15.8723
63.8140,15.7748
63.7022,15.7409
63.6159,15.7147
63.4100,15.6944
63.2041,15.7147
63.0060,15.7748
62.8235,15.8723
62.6636,16.0036
62.6636,16.0036
62.5323,16.1635
62.4348,16.3460
62.3747,16.5441
62.3747,16.5441
62.3544,16.7500
62.3747,16.9559
62.4348,17.1540
62.5323,17.3364
62.6636,17.4964
62.8235,17.6277
63.0060,17.7252
63.2041,17.7853
63.4100,17.8056
63.6159,17.7853
63.7753,17.7370
63.8316,17.7425
63.8491,17.7555
65.3668,19.2732
65.3885,19.3255
65.3668,19.3778
65.3145,19.3995
64.1165,19.3995
64.0642,19.3778
61.8755,17.1891
61.8538,17.1367
61.8570,17.1153
61.9053,16.9559
61.9256,16.7500
61.9053,16.5441
61.8452,16.3460
61.7477,16.1636
61.6164,16.0036
61.4564,15.8723
61.2740,15.7748
61.1622,15.7409
61.0759,15.7147
60.8700,15.6944
60.6641,15.7147
60.4660,15.7748
60.2835,15.8723
60.1236,16.0036
60.1236,16.0036
59.9923,16.1635
59.8948,16.3460
59.8347,16.5441
59.8347,16.5441
59.8144,16.7500
59.3856,16.7500
59.3653,16.5441
59.3052,16.3460
59.2077,16.1636
59.0764,16.0036
58.9164,15.8723
58.7340,15.7748
58.6222,15.7409
58.5359,15.7147
58.3300,15.6944
58.1241,15.7147
57.9260,15.7748
57.7435,15.8723
57.5836,16.0036
57.5836,16.0036
57.4523,16.1635
57.3548,16.3460
57.2947,16.5441
57.2947,16.5441
57.2744,16.7500
57.2947,16.9559
57.3548,17.1540
57.4523,17.3364
57.5836,17.4964
57.7435,17.6277
57.8748,17.6978
57.8904,17.7062
57.9263,17.7500
57.9295,17.7714
57.9295,65.1923
57.9295,65.2977
57.9531,65.3858
57.9568,65.3996
57.9568,65.3996
58.0095,65.4909
58.0095,65.4909
58.0095,65.4909
58.6445,66.1259
59.2418,66.7232
59.2635,66.7755
59.2418,66.8278
59.1895,66.8495
58.7835,66.8495
58.7312,66.8278
57.3352,65.4318
57.3135,65.3795
57.3135,17.8203
57.2862,17.7184
57.2862,17.7184
57.2335,17.6271
57.2335,17.6271
57.2335,17.6271
56.7955,17.1891
56.7738,17.1367
56.7770,17.1153
56.8253,16.9559
56.8456,16.7500
56.8253,16.5441
56.7652,16.3460
56.6677,16.1636
56.5364,16.0036
56.3764,15.8723
56.1940,15.7748
56.0822,15.7409
55.9959,15.7147
55.7900,15.6944
55.5841,15.7147
55.3860,15.7748
55.2035,15.8723
55.0436,16.0036
55.0436,16.0036
54.9123,16.1635
54.8148,16.3460
54.7547,16.5441
54.7547,16.5441
54.7344,16.7500
54.3056,16.7500
54.2853,16.5441
54.2252,16.3460
54.1277,16.1636
53.9964,16.0036
53.8364,15.8723
53.6540,15.7748
53.5422,15.7409
53.4559,15.7147
53.2500,15.6944
53.0441,15.7147
52.8460,15.7748
52.6635,15.8723
52.5036,16.0036
52.5036,16.0036
52.3723,16.1635
52.2748,16.3460
52.2147,16.5441
52.1944,16.7500
52.2147,16.9559
52.2630,17.1153
52.2575,17.1716
52.2445,17.1891
51.8868,17.5468
51.8345,17.5685
51.7822,17.5468
51.7605,17.4945
51.7605,15.8803
51.7544,15.8495
51.7489,15.8218
51.7046,15.7554
51.6823,15.7406
51.6382,15.7111
51.6382,15.7111
51.6090,15.7053
51.5797,15.6995
49.8403,15.6995
49.8110,15.7053
49.7818,15.7111
49.7154,15.7554
49.7154,15.7554
49.6711,15.8218
49.6595,15.8803
49.6595,17.2035
49.6378,17.2558
47.6795,19.2141
47.6268,19.3054
47.6268,19.3054
47.5995,19.4073
47.5995,65.6973
47.5995,65.8027
47.6186,65.8741
47.6268,65.9046
47.6268,65.9046
47.6795,65.9959
47.6795,65.9959
47.6795,65.9959
49.6819,67.9983
51.4199,69.7363
51.4415,69.7886
51.4199,69.8409
51.3675,69.8626
10.0745,69.8626
10.0222,69.8409
10.0005,69.7886
10.0005,65.5000
14.6694,65.5000
14.6694,65.5000
14.6898,65.7728
14.7507,66.0396
14.7958,66.1546
14.8507,66.2943
14.9875,66.5312
15.1581,66.7451
15.3586,66.9312
15.5847,67.0854
15.8312,67.2041
15.9619,67.2444
16.0926,67.2847
16.0926,67.2847
16.0926,67.2847
16.3632,67.3255
16.3632,67.3255
16.6368,67.3255
16.6368,67.3255
16.9074,67.2847
16.9074,67.2847
16.9074,67.2847
16.9519,67.2710
17.1688,67.2041
17.4153,67.0854
17.6414,66.9312
17.8419,66.7451
18.0125,66.5312
18.1493,66.2943
18.2493,66.0396
18.2583,66.0000
40.7950,66.0000
40.8151,66.3589
40.8151,66.3589
40.8753,66.7132
40.9748,67.0586
41.1124,67.3906
41.1124,67.3906
41.2862,67.7052
41.2862,67.7052
41.4942,67.9983
41.6002,68.1169
42.7355,66.9817
42.7796,67.0423
42.9577,67.2204
43.0183,67.2645
41.8831,68.3998
42.0017,68.5058
42.2948,68.7138
42.2948,68.7138
42.6094,68.8876
42.6094,68.8876
42.9414,69.0252
43.2868,69.1247
43.2868,69.1247
43.6411,69.1849
43.6411,69.1849
44.0000,69.2050
44.3589,69.1849
44.3589,69.1849
44.7132,69.1247
45.0586,69.0252
45.3906,68.8876
45.3906,68.8876
45.7052,68.7138
45.7052,68.7138
45.9983,68.5058
46.1169,68.3998
46.1169,68.3998
44.9817,67.2645
45.0423,67.2204
45.2204,67.0423
45.2645,66.9817
46.3998,68.1169
46.3998,68.1169
46.5058,67.9983
46.7138,67.7052
46.7138,67.7052
46.8876,67.3906
46.8876,67.3906
47.0252,67.0586
47.1247,66.7132
47.1849,66.3589
47.1849,66.3589
47.2050,66.0000
47.1849,65.6411
47.1849,65.6411
47.1247,65.2868
47.0252,64.9414
46.8876,64.6094
46.8876,64.6094
46.7138,64.2948
46.7138,64.2948
46.5058,64.0017
46.3998,63.8831
46.3998,63.8831
45.2645,65.0183
45.2204,64.9577
45.0423,64.7796
44.9817,64.7355
46.1169,63.6002
45.9983,63.4942
45.7052,63.2862
45.7052,63.2862
45.3906,63.1124
45.3906,63.1124
45.0586,62.9748
44.7132,62.8753
44.7132,62.8753
44.3589,62.8151
44.3589,62.8151
44.0000,62.7950
43.6411,62.8151
43.6411,62.8151
43.2868,62.8753
42.9414,62.9748
42.6094,63.1124
42.6094,63.1124
42.2948,63.2862
42.2948,63.2862
42.0017,63.4942
41.8831,63.6002
43.0183,64.7355
42.9577,64.7796
42.7796,64.9577
42.7355,65.0183
41.6002,63.8831
41.4942,64.0017
41.2862,64.2948
41.2862,64.2948
41.1124,64.6094
41.1124,64.6094
40.9748,64.9414
40.8753,65.2868
40.8151,65.6411
40.8151,65.6411
40.7950,66.0000
18.2583,66.0000
18.3102,65.7728
18.3306,65.5000
18.3102,65.2272
18.2493,64.9604
18.1493,64.7057
18.0125,64.4688
17.8419,64.2549
17.6414,64.0688
17.4153,63.9146
17.2867,63.8527
17.1688,63.7959
17.1688,63.7959
17.1688,63.7959
17.1688,63.7959
17.1688,63.7959
16.9074,63.7153
16.8847,63.7119
16.6368,63.6745
16.3632,63.6745
16.1615,63.7049
16.0926,63.7153
15.8312,63.7959
15.8312,63.7959
15.5847,63.9146
15.5847,63.9146
15.3586,64.0688
15.3586,64.0688
15.1581,64.2549
14.9875,64.4688
14.8507,64.7057
14.7507,64.9604
14.6898,65.2272
14.6694,65.5000
10.0005,65.5000
10.0005,56.0000
13.6694,56.0000
13.6694,56.0000
13.6898,56.2728
13.7507,56.5396
13.8197,56.7153
13.8507,56.7943
13.9875,57.0312
14.1581,57.2451
14.3586,57.4312
14.5847,57.5854
14.8312,57.7041
14.9619,57.7444
15.0926,57.7847
15.0926,57.7847
15.0926,57.7847
15.3632,57.8255
15.3632,57.8255
15.6368,57.8255
15.6368,57.8255
15.9074,57.7847
15.9074,57.7847
15.9074,57.7847
15.9519,57.7710
16.1688,57.7041
16.4153,57.5854
16.6414,57.4312
16.8419,57.2451
17.0125,57.0312
17.1493,56.7943
17.2493,56.5396
17.3102,56.2728
17.3306,56.0000
17.3102,55.7272
17.2493,55.4604
17.1493,55.2057
17.0125,54.9688
16.8419,54.7549
16.6414,54.5688
16.4153,54.4146
16.2867,54.3527
16.1688,54.2959
16.1688,54.2959
16.1688,54.2959
16.1688,54.2959
16.1688,54.2959
15.9074,54.2153
15.8847,54.2119
15.6368,54.1745
15.3632,54.1745
15.1615,54.2049
15.0926,54.2153
14.8312,54.2959
14.8312,54.2959
14.5847,54.4146
14.5847,54.4146
14.3586,54.5688
14.3586,54.5688
14.1581,54.7549
13.9875,54.9688
13.8507,55.2057
13.7507,55.4604
13.6898,55.7272
13.6694,56.0000
10.0005,56.0000
10.0005,47.0000
13.6694,47.0000
13.6694,47.0000
13.6898,47.2728
13.7507,47.5396
13.7507,47.5396
13.8507,47.7943
13.9875,48.0312
14.1581,48.2451
14.3586,48.4312
14.5847,48.5854
14.8312,48.7041
14.9619,48.7444
15.0926,48.7847
15.0926,48.7847
15.0926,48.7847
15.3632,48.8255
15.3632,48.8255
15.6368,48.8255
15.6368,48.8255
15.9074,48.7847
15.9074,48.7847
15.9074,48.7847
15.9519,48.7710
16.1688,48.7041
16.4153,48.5854
16.6414,48.4312
16.8419,48.2451
17.0125,48.0312
17.1493,47.7943
17.2493,47.5396
17.3102,47.2728
17.3306,47.0000
17.3102,46.7272
17.2493,46.4604
17.1493,46.2057
17.0125,45.9688
16.8419,45.7549
16.6414,45.5688
16.4153,45.4146
16.2867,45.3527
16.1688,45.2959
16.1688,45.2959
16.1688,45.2959
16.1688,45.2959
16.1688,45.2959
15.9074,45.2153
15.8847,45.2119
15.6368,45.1745
15.3632,45.1745
15.1615,45.2049
15.0926,45.2153
14.8312,45.2959
14.8312,45.2959
14.5847,45.4146
14.5847,45.4146
14.3586,45.5688
14.3586,45.5688
14.1581,45.7549
13.9875,45.9688
13.8507,46.2057
13.7507,46.4604
13.6898,46.7272
13.6694,47.0000
10.0005,47.0000
10.0005,38.0000
13.6694,38.0000
13.6694,38.0000
13.6898,38.2728
13.7507,38.5396
13.7507,38.5396
13.8507,38.7943
13.9875,39.0312
14.1581,39.2451
14.3586,39.4312
14.5847,39.5854
14.8312,39.7041
14.9619,39.7444
15.0926,39.7847
15.0926,39.7847
15.0926,39.7847
15.3632,39.8255
15.3632,39.8255
15.6368,39.8255
15.6368,39.8255
15.9074,39.7847
15.9074,39.7847
15.9074,39.7847
15.9519,39.7710
16.1688,39.7041
16.4153,39.5854
16.6414,39.4312
16.8419,39.2451
17.0125,39.0312
17.1493,38.7943
17.2493,38.5396
17.3102,38.2728
17.3306,38.0000
17.3102,37.7272
17.2493,37.4604
17.1493,37.2057
17.0125,36.9688
16.8419,36.7549
16.6414,36.5688
16.4153,36.4146
16.2867,36.3527
16.1688,36.2959
16.1688,36.2959
16.1688,36.2959
16.1688,36.2959
16.1688,36.2959
15.9074,36.2153
15.8847,36.2119
15.6368,36.1745
15.3632,36.1745
15.1615,36.2049
15.0926,36.2153
14.8312,36.2959
14.8312,36.2959
14.5875,36.4133
14.5847,36.4146
14.5567,36.4337
14.3586,36.5688
14.1581,36.7549
13.9875,36.9688
13.8507,37.2057
13.7507,37.4604
13.6898,37.7272
13.6694,38.0000
10.0005,38.0000
10.0005,21.0000
10.5450,21.0000
10.5651,21.3589
10.5651,21.3589
10.6253,21.7132
10.7248,22.0586
10.8624,22.3906
10.8624,22.3906
11.0362,22.7052
11.0362,22.7052
11.2442,22.9983
11.3502,23.1169
12.4855,21.9817
12.5296,22.0423
12.7077,22.2204
12.7683,22.2645
11.6331,23.3998
11.7517,23.5058
12.0448,23.7138
12.0448,23.7138
12.3594,23.8876
12.3594,23.8876
12.6914,24.0252
13.0368,24.1247
13.0368,24.1247
13.3911,24.1849
13.3911,24.1849
13.7500,24.2050
14.1089,24.1849
14.1089,24.1849
14.4632,24.1247
14.8086,24.0252
15.1406,23.8876
15.1406,23.8876
15.4552,23.7138
15.4552,23.7138
15.7483,23.5058
15.8669,23.3998
15.8669,23.3998
14.7317,22.2645
14.7923,22.2204
14.9704,22.0423
15.0145,21.9817
16.1498,23.1169
16.1498,23.1169
16.2558,22.9983
16.4638,22.7052
16.4638,22.7052
16.6376,22.3906
16.6376,22.3906
16.7752,22.0586
16.8747,21.7132
16.9349,21.3589
16.9349,21.3589
16.9550,21.0000
16.9513,20.9341
20.4995,20.9341
20.4995,65.5409
20.5336,65.6682
20.5336,65.6682
20.5811,65.7505
20.5995,65.7823
20.6927,65.8755
20.8068,65.9414
20.9341,65.9755
20.9341,65.9755
20.9341,65.9755
34.5159,65.9755
34.5159,65.9755
34.6432,65.9414
34.7573,65.8755
34.8505,65.7823
34.9164,65.6682
34.9505,65.5409
34.9505,65.5409
34.9505,59.0000
39.1694,59.0000
39.1694,59.0000
39.1898,59.2728
39.2507,59.5396
39.2507,59.5396
39.3507,59.7943
39.4875,60.0312
39.6581,60.2451
39.8586,60.4312
40.0847,60.5854
40.3312,60.7041
40.4619,60.7444
40.5926,60.7847
40.5926,60.7847
40.5926,60.7847
40.8632,60.8255
40.8632,60.8255
41.1368,60.8255
41.1368,60.8255
41.4074,60.7847
41.4074,60.7847
41.4074,60.7847
41.4519,60.7710
41.6688,60.7041
41.9153,60.5854
42.1414,60.4312
42.3419,60.2451
42.5125,60.0312
42.6493,59.7943
42.7493,59.5396
42.8102,59.2728
42.8306,59.0000
42.8102,58.7272
42.7493,58.4604
42.6493,58.2057
42.5125,57.9688
42.3419,57.7549
42.1414,57.5688
41.9153,57.4146
41.7867,57.3527
41.6688,57.2959
41.6688,57.2959
41.6688,57.2959
41.6688,57.2959
41.6688,57.2959
41.4074,57.2153
41.3847,57.2119
41.1368,57.1745
40.8632,57.1745
40.6615,57.2049
40.5926,57.2153
40.3312,57.2959
40.3312,57.2959
40.0875,57.4133
40.0847,57.4146
39.8586,57.5688
39.8586,57.5688
39.6581,57.7549
39.4875,57.9688
39.3507,58.2057
39.2507,58.4604
39.1898,58.7272
39.1694,59.0000
34.9505,59.0000
34.9505,50.0000
39.1694,50.0000
39.1694,50.0000
39.1898,50.2728
39.2507,50.5396
39.2507,50.5396
39.3507,50.7943
39.4875,51.0312
39.6581,51.2451
39.8586,51.4312
40.0847,51.5854
40.3312,51.7041
40.4619,51.7444
40.5926,51.7847
40.5926,51.7847
40.5926,51.7847
40.8632,51.8255
40.8632,51.8255
41.1368,51.8255
41.1368,51.8255
41.4074,51.7847
41.4074,51.7847
41.4074,51.7847
41.4519,51.7710
41.6688,51.7041
41.9153,51.5854
42.1414,51.4312
42.3419,51.2451
42.5125,51.0312
42.6493,50.7943
42.7493,50.5396
42.8102,50.2728
42.8306,50.0000
42.8102,49.7272
42.7493,49.4604
42.6493,49.2057
42.5125,48.9688
42.3419,48.7549
42.1414,48.5688
41.9153,48.4146
41.7867,48.3527
41.6688,48.2959
41.6688,48.2959
41.6688,48.2959
41.6688,48.2959
41.6688,48.2959
41.4074,48.2153
41.3847,48.2119
41.1368,48.1745
40.8632,48.1745
40.6615,48.2049
40.5926,48.2153
40.3312,48.2959
40.3312,48.2959
40.0875,48.4133
40.0847,48.4146
40.0567,48.4337
39.8586,48.5688
39.6581,48.7549
39.4875,48.9688
39.3507,49.2057
39.2507,49.4604
39.1898,49.7272
39.1694,50.0000
34.9505,50.0000
34.9505,41.0000
39.1694,41.0000
39.1694,41.0000
39.1898,41.2728
39.2507,41.5396
39.2507,41.5396
39.3507,41.7943
39.4875,42.0312
39.6581,42.2451
39.8586,42.4312
40.0847,42.5854
40.3312,42.7041
40.4619,42.7444
40.5926,42.7847
40.5926,42.7847
40.5926,42.7847
40.8632,42.8255
40.8632,42.8255
41.1368,42.8255
41.1368,42.8255
41.4074,42.7847
41.4074,42.7847
41.4074,42.7847
41.4519,42.7710
41.6688,42.7041
41.9153,42.5854
42.1414,42.4312
42.3419,42.2451
42.5125,42.0312
42.6493,41.7943
42.7493,41.5396
42.8102,41.2728
42.8306,41.0000
42.8102,40.7272
42.7493,40.4604
42.6493,40.2057
42.5125,39.9688
42.3419,39.7549
42.1414,39.5688
41.9153,39.4146
41.7867,39.3527
41.6688,39.2959
41.6688,39.2959
41.6688,39.2959
41.6688,39.2959
41.6688,39.2959
41.4074,39.2153
41.3847,39.2119
41.1368,39.1745
40.8632,39.1745
40.6615,39.2049
40.5926,39.2153
40.3312,39.2959
40.3312,39.2959
40.0875,39.4133
40.0847,39.4146
40.0567,39.4337
39.8586,39.5688
39.6581,39.7549
39.4875,39.9688
39.3507,40.2057
39.2507,40.4604
39.1898,40.7272
39.1694,41.0000
34.9505,41.0000
34.9505,31.0000
38.6694,31.0000
38.6694,31.0000
38.6898,31.2728
38.7507,31.5396
38.7507,31.5396
38.8507,31.7943
38.9875,32.0312
39.1581,32.2451
39.3586,32.4312
39.5847,32.5854
39.8312,32.7041
39.9619,32.7444
40.0926,32.7847
40.0926,32.7847
40.0926,32.7847
40.3632,32.8255
40.3632,32.8255
40.6368,32.8255
40.6368,32.8255
40.9074,32.7847
40.9074,32.7847
40.9074,32.7847
40.9519,32.7710
41.1688,32.7041
41.4153,32.5854
41.6414,32.4312
41.8419,32.2451
42.0125,32.0312
42.1493,31.7943
42.2493,31.5396
42.3102,31.2728
42.3306,31.0000
42.3102,30.7272
42.2493,30.4604
42.1493,30.2057
42.0125,29.9688
41.8419,29.7549
41.6414,29.5688
41.4153,29.4146
41.2867,29.3527
41.1688,29.2959
41.1688,29.2959
41.1688,29.2959
41.1688,29.2959
41.1688,29.2959
40.9074,29.2153
40.8781,29.2109
40.6368,29.1745
40.3632,29.1745
40.1615,29.2049
40.0926,29.2153
39.8312,29.2959
39.8312,29.2959
39.5875,29.4133
39.5847,29.4146
39.5567,29.4337
39.3586,29.5688
39.1581,29.7549
38.9875,29.9688
38.8507,30.2057
38.7507,30.4604
38.6898,30.7272
38.6694,31.0000
34.9505,31.0000
34.9505,20.9341
34.9505,20.9341
34.9164,20.8068
34.9164,20.8068
34.8505,20.6927
34.7573,20.5995
34.6432,20.5336
34.6432,20.5336
34.5159,20.4995
34.5159,20.4995
21.0659,20.4995
20.9341,20.4995
20.9341,20.4995
20.8068,20.5336
20.8068,20.5336
20.6927,20.5995
20.5995,20.6927
20.5336,20.8068
20.5336,20.8068
20.4995,20.9341
16.9513,20.9341
16.9349,20.6411
16.9349,20.6411
16.8747,20.2868
16.7752,19.9414
16.6376,19.6094
16.6376,19.6094
16.4638,19.2948
16.4638,19.2948
16.2558,19.0017
16.1498,18.8831
16.1498,18.8831
15.0145,20.0183
14.9704,19.9577
14.7923,19.7796
14.7317,19.7355
15.8669,18.6002
15.7483,18.4942
15.4552,18.2862
15.4552,18.2862
15.1406,18.1124
15.1406,18.1124
14.8086,17.9748
14.4632,17.8753
14.4632,17.8753
14.1089,17.8151
14.1089,17.8151
13.7500,17.7950
13.3911,17.8151
13.3911,17.8151
13.0368,17.8753
12.6914,17.9748
12.3594,18.1124
12.3594,18.1124
12.0448,18.2862
12.0448,18.2862
11.7517,18.4942
11.6331,18.6002
12.7683,19.7355
12.7077,19.7796
12.5296,19.9577
12.4855,20.0183
11.3502,18.8831
11.2442,19.0017
11.0362,19.2948
11.0362,19.2948
10.8624,19.6094
10.8624,19.6094
10.7248,19.9414
10.6253,20.2868
10.5651,20.6411
10.5651,20.6411
10.5450,21.0000
10.0005,21.0000
10.0005,16.8245
10.0222,16.7722
10.0745,16.7505
48.5661,16.7505
48.5661,16.7505
48.6933,16.7164
48.8075,16.6505
48.9007,16.5573
48.9666,16.4432
49.0007,16.3159
49.0007,16.3159
49.0007,16.1805
49.0005,16.1780
49.0005,14.2100
49.6544,14.2100
49.6747,14.4159
49.7348,14.6140
49.8323,14.7965
49.9636,14.9564
50.1235,15.0877
50.3060,15.1852
50.5041,15.2453
50.7100,15.2656
50.9159,15.2453
51.1140,15.1852
51.2965,15.0877
51.4564,14.9564
51.5877,14.7965
51.6852,14.6140
51.7453,14.4159
51.7656,14.2100
52.1944,14.2100
52.2147,14.4159
52.2748,14.6140
52.3723,14.7965
52.5036,14.9564
52.6636,15.0877
52.8460,15.1852
53.0441,15.2453
53.2500,15.2656
53.4559,15.2453
53.6540,15.1852
53.8364,15.0877
53.9964,14.9564
54.1277,14.7965
54.2252,14.6140
54.2853,14.4159
54.3056,14.2100
54.7344,14.2100
54.7547,14.4159
54.8148,14.6140
54.9123,14.7965
55.0436,14.9564
55.2035,15.0877
55.3860,15.1852
55.5841,15.2453
55.7900,15.2656
55.9959,15.2453
56.1940,15.1852
56.3764,15.0877
56.5364,14.9564
56.6677,14.7965
56.7652,14.6140
56.8253,14.4159
56.8456,14.2100
57.2744,14.2100
57.2947,14.4159
57.3548,14.6140
57.4523,14.7965
57.5836,14.9564
57.7435,15.0877
57.9260,15.1852
58.1241,15.2453
58.3300,15.2656
58.5359,15.2453
58.7340,15.1852
58.9164,15.0877
59.0764,14.9564
59.2077,14.7965
59.3052,14.6140
59.3653,14.4159
59.3856,14.2100
59.8144,14.2100
59.8347,14.4159
59.8948,14.6140
59.9923,14.7965
60.1236,14.9564
60.2835,15.0877
60.4660,15.1852
60.6641,15.2453
60.8700,15.2656
61.0759,15.2453
61.2740,15.1852
61.4564,15.0877
61.6164,14.9564
61.7477,14.7965
61.8452,14.6140
61.9053,14.4159
61.9256,14.2100
62.3544,14.2100
62.3747,14.4159
62.4348,14.6140
62.5323,14.7965
62.6636,14.9564
62.8235,15.0877
63.0060,15.1852
63.2041,15.2453
63.4100,15.2656
63.6159,15.2453
63.8140,15.1852
63.9964,15.0877
64.1564,14.9564
64.2877,14.7965
64.3852,14.6140
64.4453,14.4159
64.4656,14.2100
64.8944,14.2100
64.9147,14.4159
64.9748,14.6140
65.0723,14.7965
65.2036,14.9564
65.3636,15.0877
65.5460,15.1852
65.7441,15.2453
65.9500,15.2656
66.1559,15.2453
66.3540,15.1852
66.5365,15.0877
66.6964,14.9564
66.8277,14.7965
66.9252,14.6140
66.9853,14.4159
67.0056,14.2100
67.4344,14.2100
67.4547,14.4159
67.5148,14.6140
67.6123,14.7965
67.7436,14.9564
67.9035,15.0877
68.0860,15.1852
68.2841,15.2453
68.4900,15.2656
68.6959,15.2453
68.8940,15.1852
69.0764,15.0877
69.2364,14.9564
69.3677,14.7965
69.4652,14.6140
69.5253,14.4159
69.5456,14.2100
69.9744,14.2100
69.9947,14.4159
70.0548,14.6140
70.1523,14.7965
70.2836,14.9564
70.4436,15.0877
70.6260,15.1852
70.8241,15.2453
71.0300,15.2656
71.2359,15.2453
71.4340,15.1852
71.6165,15.0877
71.7764,14.9564
71.9077,14.7965
72.0052,14.6140
72.0653,14.4159
72.0856,14.2100
72.5144,14.2100
72.5347,14.4159
72.5948,14.6140
72.6923,14.7965
72.8236,14.9564
72.9835,15.0877
73.1660,15.1852
73.3641,15.2453
73.5700,15.2656
73.7759,15.2453
73.9740,15.1852
74.1564,15.0877
74.3164,14.9564
74.4477,14.7965
74.5452,14.6140
74.6053,14.4159
74.6256,14.2100
75.0544,14.2100
75.0747,14.4159
75.1348,14.6140
75.2323,14.7965
75.3636,14.9564
75.5236,15.0877
75.7060,15.1852
75.9041,15.2453
76.1100,15.2656
76.3159,15.2453
76.5140,15.1852
76.6964,15.0877
76.8564,14.9564
76.9877,14.7965
77.0852,14.6140
77.1453,14.4159
77.1656,14.2100
77.5944,14.2100
77.6147,14.4159
77.6748,14.6140
77.7723,14.7965
77.9036,14.9564
78.0635,15.0877
78.2460,15.1852
78.4441,15.2453
78.6500,15.2656
78.8559,15.2453
79.0540,15.1852
79.2364,15.0877
79.3964,14.9564
79.5277,14.7965
79.6252,14.6140
79.6853,14.4159
79.7056,14.2100
79.6853,14.0041
79.6252,13.8060
79.5277,13.6235
79.3964,13.4636
79.2364,13.3323
79.0540,13.2348
78.9422,13.2009
78.8559,13.1747
78.6500,13.1544
78.4441,13.1747
78.2460,13.2348
78.0635,13.3323
77.9036,13.4636
77.9036,13.4636
77.7723,13.6235
77.6748,13.8060
77.6147,14.0041
77.6147,14.0041
77.5944,14.2100
77.1656,14.2100
77.1453,14.0041
77.0852,13.8060
76.9877,13.6235
76.8564,13.4636
76.6964,13.3323
76.5140,13.2348
76.4022,13.2009
76.3159,13.1747
76.1100,13.1544
75.9041,13.1747
75.7060,13.2348
75.5235,13.3323
75.3636,13.4636
75.3636,13.4636
75.2323,13.6235
75.1348,13.8060
75.0747,14.0041
75.0747,14.0041
75.0544,14.2100
74.6256,14.2100
74.6053,14.0041
74.5452,13.8060
74.4477,13.6235
74.3164,13.4636
74.1564,13.3323
73.9740,13.2348
73.8622,13.2009
73.7759,13.1747
73.5700,13.1544
73.3641,13.1747
73.1660,13.2348
72.9835,13.3323
72.8236,13.4636
72.8236,13.4636
72.6923,13.6235
72.5948,13.8060
72.5347,14.0041
72.5347,14.0041
72.5144,14.2100
72.0856,14.2100
72.0653,14.0041
72.0052,13.8060
71.9077,13.6235
71.7764,13.4636
71.6165,13.3323
71.4340,13.2348
71.3222,13.2009
71.2359,13.1747
71.0300,13.1544
70.8241,13.1747
70.6260,13.2348
70.4435,13.3323
70.2836,13.4636
70.2836,13.4636
70.1523,13.6235
70.0548,13.8060
69.9947,14.0041
69.9947,14.0041
69.9744,14.2100
69.5456,14.2100
69.5253,14.0041
69.4652,13.8060
69.3677,13.6235
69.2364,13.4636
69.0764,13.3323
68.8940,13.2348
68.7822,13.2009
68.6959,13.1747
68.4900,13.1544
68.2841,13.1747
68.0860,13.2348
67.9035,13.3323
67.7436,13.4636
67.7436,13.4636
67.6123,13.6235
67.5148,13.8060
67.4547,14.0041
67.4547,14.0041
67.4344,14.2100
67.0056,14.2100
66.9853,14.0041
66.9252,13.8060
66.8277,13.6235
66.6964,13.4636
66.5365,13.3323
66.3540,13.2348
66.2422,13.2009
66.1559,13.1747
65.9500,13.1544
65.7441,13.1747
65.5460,13.2348
65.3635,13.3323
65.2036,13.4636
65.2036,13.4636
65.0723,13.6235
64.9748,13.8060
64.9147,14.0041
64.9147,14.0041
64.8944,14.2100
64.4656,14.2100
64.4453,14.0041
64.3852,13.8060
64.2877,13.6235
64.1564,13.4636
63.9964,13.3323
63.8140,13.2348
63.7022,13.2009
63.6159,13.1747
63.4100,13.1544
63.2041,13.1747
63.0060,13.2348
62.8235,13.3323
62.6636,13.4636
62.6636,13.4636
62.5323,13.6235
62.4348,13.8060
62.3747,14.0041
62.3747,14.0041
62.3544,14.2100
61.9256,14.2100
61.9053,14.0041
61.8452,13.8060
61.7477,13.6235
61.6164,13.4636
61.4564,13.3323
61.2740,13.2348
61.1622,13.2009
61.0759,13.1747
60.8700,13.1544
60.6641,13.1747
60.4660,13.2348
60.2835,13.3323
60.1236,13.4636
60.1236,13.4636
59.9923,13.6235
59.8948,13.8060
59.8347,14.0041
59.8347,14.0041
59.8144,14.2100
59.3856,14.2100
59.3653,14.0041
59.3052,13.8060
59.2077,13.6235
59.0764,13.4636
58.9164,13.3323
58.7340,13.2348
58.6222,13.2009
58.5359,13.1747
58.3300,13.1544
58.1241,13.1747
57.9260,13.2348
57.7435,13.3323
57.5836,13.4636
57.5836,13.4636
57.4523,13.6235
57.3548,13.8060
57.2947,14.0041
57.2947,14.0041
57.2744,14.2100
56.8456,14.2100
56.8253,14.0041
56.7652,13.8060
56.6677,13.6235
56.5364,13.4636
56.3764,13.3323
56.1940,13.2348
56.0822,13.2009
55.9959,13.1747
55.7900,13.1544
55.5841,13.1747
55.3860,13.2348
55.2035,13.3323
55.0436,13.4636
55.0436,13.4636
54.9123,13.6235
54.8148,13.8060
54.7547,14.0041
54.7547,14.0041
54.7344,14.2100
54.3056,14.2100
54.2853,14.0041
54.2252,13.8060
54.1277,13.6235
53.9964,13.4636
53.8364,13.3323
53.6540,13.2348
53.5422,13.2009
53.4559,13.1747
53.2500,13.1544
53.0441,13.1747
52.8460,13.2348
52.6635,13.3323
52.5036,13.4636
52.5036,13.4636
52.3723,13.6235
52.2748,13.8060
52.2147,14.0041
52.2147,14.0041
52.1944,14.2100
51.7656,14.2100
51.7453,14.0041
51.6852,13.8060
51.5877,13.6235
51.4564,13.4636
51.2965,13.3323
51.1140,13.2348
51.0022,13.2009
50.9159,13.1747
50.7100,13.1544
50.5041,13.1747
50.3060,13.2348
50.1235,13.3323
49.9636,13.4636
49.9636,13.4636
49.8323,13.6235
49.7348,13.8060
49.6747,14.0041
49.6747,14.0041
49.6544,14.2100
49.0005,14.2100
49.0005,3.8245
49.0222,3.7722
49.0745,3.7505
80.1755,3.7505
Z" /> 
</g>
<g style="fill:#FFFFFF; fill-opacity:1.0000; stroke:none;">
<circle cx="121.2500" cy="66.0000" r="1.6000" /> 
</g>
<g style="fill:#FFFFFF; fill-opacity:1.0000; stroke:none;">
<circle cx="13.7500" cy="21.0000" r="1.6000" /> 
</g>
<g style="fill:#FFFFFF; fill-opacity:1.0000; stroke:none;">
<circle cx="121.2500" cy="21.0000" r="1.6000" /> 
</g>
<g style="fill:#FFFFFF; fill-opacity:1.0000; stroke:none;">
<circle cx="44.0000" cy="66.0000" r="1.6000" /> 
</g>
<g style="fill:#FFFFFF; fill-opacity:1.0000; stroke:none;">
<circle cx="50.7100" cy="14.2100" r="0.5000" /> 
</g>
<g style="fill:#FFFFFF; fill-opacity:1.0000; stroke:none;">
<circle cx="53.2500" cy="14.2100" r="0.5000" /> 
</g>
<g style="fill:#FFFFFF; fill-opacity:1.0000; stroke:none;">
<circle cx="55.7900" cy="14.2100" r="0.5000" /> 
</g>
<g style="fill:#FFFFFF; fill-opacity:1.0000; stroke:none;">
<circle cx="58.3300" cy="14.2100" r="0.5000" /> 
</g>
<g style="fill:#FFFFFF; fill-opacity:1.0000; stroke:none;">
<circle cx="60.8700" cy="14.2100" r="0.5000" /> 
</g>
<g style="fill:#FFFFFF; fill-opacity:1.0000; stroke:none;">
<circle cx="63.4100" cy="14.2100" r="0.5000" /> 
</g>
<g style="fill:#FFFFFF; fill-opacity:1.0000; stroke:none;">
<circle cx="65.9500" cy="14.2100" r="0.5000" /> 
</g>
<g style="fill:#FFFFFF; fill-opacity:1.0000; stroke:none;">
<circle cx="68.4900" cy="14.2100" r="0.5000" /> 
</g>
<g style="fill:#FFFFFF; fill-opacity:1.0000; stroke:none;">
<circle cx="71.0300" cy="14.2100" r="0.5000" /> 
</g>
<g style="fill:#FFFFFF; fill-opacity:1.0000; stroke:none;">
<circle cx="73.5700" cy="14.2100" r="0.5000" /> 
</g>
<g style="fill:#FFFFFF; fill-opacity:1.0000; stroke:none;">
<circle cx="76.1100" cy="14.2100" r="0.5000" /> 
</g>
<g style="fill:#FFFFFF; fill-opacity:1.0000; stroke:none;">
<circle cx="78.6500" cy="14.2100" r="0.5000" /> 
</g>
<g style="fill:#FFFFFF; fill-opacity:1.0000; stroke:none;">
<circle cx="50.7100" cy="16.7500" r="0.5000" /> 
</g>
<g style="fill:#FFFFFF; fill-opacity:1.0000; stroke:none;">
<circle cx="53.2500" cy="16.7500" r="0.5000" /> 
</g>
<g style="fill:#FFFFFF; fill-opacity:1.0000; stroke:none;">
<circle cx="55.7900" cy="16.7500" r="0.5000" /> 
</g>
<g style="fill:#FFFFFF; fill-opacity:1.0000; stroke:none;">
<circle cx="58.3300" cy="16.7500" r="0.5000" /> 
</g>
<g style="fill:#FFFFFF; fill-opacity:1.0000; stroke:none;">
<circle cx="60.8700" cy="16.7500" r="0.5000" /> 
</g>
<g style="fill:#FFFFFF; fill-opacity:1.0000; stroke:none;">
<circle cx="63.4100" cy="16.7500" r="0.5000" /> 
</g>
<g style="fill:#FFFFFF; fill-opacity:1.0000; stroke:none;">
<circle cx="65.9500" cy="16.7500" r="0.5000" /> 
</g>
<g style="fill:#FFFFFF; fill-opacity:1.0000; stroke:none;">
<circle cx="68.4900" cy="16.7500" r="0.5000" /> 
</g>
<g style="fill:#FFFFFF; fill-opacity:1.0000; stroke:none;">
<circle cx="71.0300" cy="16.7500" r="0.5000" /> 
</g>
<g style="fill:#FFFFFF; fill-opacity:1.0000; stroke:none;">
<circle cx="73.5700" cy="16.7500" r="0.5000" /> 
</g>
<g style="fill:#FFFFFF; fill-opacity:1.0000; stroke:none;">
<circle cx="76.1100" cy="16.7500" r="0.5000" /> 
</g>
<g style="fill:#FFFFFF; fill-opacity:1.0000; stroke:none;">
<circle cx="78.6500" cy="16.7500" r="0.5000" /> 
</g>
<g style="fill:#FFFFFF; fill-opacity:1.0000; stroke:none;">
<circle cx="15.5000" cy="38.0000" r="1.2450" /> 
</g>
<g style="fill:#FFFFFF; fill-opacity:1.0000; stroke:none;">
<circle cx="15.5000" cy="47.0000" r="1.2450" /> 
</g>
<g style="fill:#FFFFFF; fill-opacity:1.0000; stroke:none;">
<circle cx="15.5000" cy="56.0000" r="1.2450" /> 
</g>
<g style="fill:#FFFFFF; fill-opacity:1.0000; stroke:none;">
<circle cx="16.5000" cy="65.5000" r="1.2450" /> 
</g>
<g style="fill:#FFFFFF; fill-opacity:1.0000; stroke:none;">
<circle cx="40.5000" cy="31.0000" r="1.2450" /> 
</g>
<g style="fill:#FFFFFF; fill-opacity:1.0000; stroke:none;">
<circle cx="41.0000" cy="41.0000" r="1.2450" /> 
</g>
<g style="fill:#FFFFFF; fill-opacity:1.0000; stroke:none;">
<circle cx="53.5000" cy="38.0000" r="1.2450" /> 
</g>
<g style="fill:#FFFFFF; fill-opacity:1.0000; stroke:none;">
<circle cx="41.0000" cy="50.0000" r="1.2450" /> 
</g>
<g style="fill:#FFFFFF; fill-opacity:1.0000; stroke:none;">
<circle cx="53.5000" cy="47.0000" r="1.2450" /> 
</g>
<g style="fill:#FFFFFF; fill-opacity:1.0000; stroke:none;">
<circle cx="41.0000" cy="59.0000" r="1.2450" /> 
</g>
<g style="fill:#FFFFFF; fill-opacity:1.0000; stroke:none;">
<circle cx="53.5000" cy="56.0000" r="1.2450" /> 
</g>
<g style="fill:#FFFFFF; fill-opacity:1.0000; stroke:none;">
<circle cx="54.5000" cy="65.5000" r="1.2450" /> 
</g>
<g style="fill:#FFFFFF; fill-opacity:1.0000; stroke:none;">
<circle cx="92.5000" cy="65.5000" r="1.2450" /> 
</g>
<g style="fill:#FFFFFF; fill-opacity:1.0000; stroke:none;">
<circle cx="91.5000" cy="56.0000" r="1.2450" /> 
</g>
<g style="fill:#FFFFFF; fill-opacity:1.0000; stroke:none;">
<circle cx="79.0000" cy="58.5000" r="1.2450" /> 
</g>
<g style="fill:#FFFFFF; fill-opacity:1.0000; stroke:none;">
<circle cx="79.0000" cy="50.0000" r="1.2450" /> 
</g>
<g style="fill:#FFFFFF; fill-opacity:1.0000; stroke:none;">
<circle cx="79.0000" cy="41.0000" r="1.2450" /> 
</g>
<g style="fill:#FFFFFF; fill-opacity:1.0000; stroke:none;">
<circle cx="91.5000" cy="47.0000" r="1.2450" /> 
</g>
<g style="fill:#FFFFFF; fill-opacity:1.0000; stroke:none;">
<circle cx="78.5000" cy="31.0000" r="1.2450" /> 
</g>
<g style="fill:#FFFFFF; fill-opacity:1.0000; stroke:none;">
<circle cx="91.5000" cy="38.0000" r="1.2450" /> 
</g>
<g style="fill:#FFFFFF; fill-opacity:1.0000; stroke:none;">
<circle cx="117.0000" cy="59.0000" r="1.2450" /> 
</g>
<g style="fill:#FFFFFF; fill-opacity:1.0000; stroke:none;">
<circle cx="117.0000" cy="50.0000" r="1.2450" /> 
</g>
<g style="fill:#FFFFFF; fill-opacity:1.0000; stroke:none;">
<circle cx="117.0000" cy="41.0000" r="1.2450" /> 
</g>
<g style="fill:#FFFFFF; fill-opacity:1.0000; stroke:none;">
<circle cx="116.0000" cy="31.0000" r="1.2450" /> 
</g>
<g style="fill:none; 
stroke:#D0D2CD; stroke-width:0.0500; stroke-opacity:1; 
stroke-linecap:round; stroke-linejoin:round;">
<path d="M80.7499 16.2500
L125.5000 16.2500
" />
<path style="fill:none; 
stroke:#D0D2CD; stroke-width:0.0500; stroke-opacity:1; 
stroke-linecap:round; stroke-linejoin:round;fill:none"
d="M 21.0000,21.0000
34.4500,21.0000
34.4500,65.4750
21.0000,65.4750
Z" /> 
<path d="M125.5000 70.3631
L9.5000 70.3631
" />
<path d="M48.5000 3.2500
L80.7500 3.2500
" />
<path d="M80.7500 3.2500
L80.7500 16.2500
" />
<path style="fill:none; 
stroke:#D0D2CD; stroke-width:0.0500; stroke-opacity:1; 
stroke-linecap:round; stroke-linejoin:round;fill:none"
d="M 97.0000,21.0000
107.0000,21.0000
107.0000,65.3750
97.0000,65.3750
Z" /> 
<path d="M48.5000 16.2500
L48.5000 3.2500
" />
<path d="M9.5000 16.2500
L48.5002 16.2500
" />
<path d="M125.5000 16.2500
L125.5000 70.3631
" />
<path d="M9.5000 70.3631
L9.5000 16.2500
" />
<path style="fill:none; 
stroke:#D0D2CD; stroke-width:0.0500; stroke-opacity:1; 
stroke-linecap:round; stroke-linejoin:round;fill:none"
d="M 59.4500,21.0000
69.4500,21.0000
69.4500,65.2500
59.4500,65.2500
Z" /> 
</g> 
</svg>
