<?xml version="1.0" standalone="no"?>
 <!DOCTYPE svg PUBLIC "-//W3C//DTD SVG 1.1//EN" 
 "http://www.w3.org/Graphics/SVG/1.1/DTD/svg11.dtd"> 
<svg
  xmlns:svg="http://www.w3.org/2000/svg"
  xmlns="http://www.w3.org/2000/svg"
  xmlns:xlink="http://www.w3.org/1999/xlink"
  version="1.1"
  width="135.9916mm" height="75.9968mm" viewBox="0.0000 0.0000 135.9916 75.9968">
<title>SVG Image created as LowerPOGO-B_Cu.svg date 2024/05/10 17:10:53 </title>
  <desc>Image generated by PCBNEW </desc>
<g style="fill:#000000; fill-opacity:1.0000;stroke:#000000; stroke-opacity:1.0000;
stroke-linecap:round; stroke-linejoin:round;"
 transform="translate(0 0) scale(1 1)">
</g>
<g style="fill:#4D7FC4; fill-opacity:1.0000; stroke:none;">
<circle cx="79.0000" cy="50.0000" r="1.7500" /> 
</g>
<g style="fill:#4D7FC4; fill-opacity:1.0000; stroke:none;">
<circle cx="79.0000" cy="58.5000" r="1.7500" /> 
</g>
<g style="fill:#4D7FC4; fill-opacity:1.0000; stroke:none;">
<circle cx="44.0000" cy="66.0000" r="1.8000" /> 
</g>
<g style="fill:#4D7FC4; fill-opacity:1.0000; stroke:none;">
<circle cx="44.0000" cy="66.0000" r="2.8000" /> 
</g>
<g style="fill:#4D7FC4; fill-opacity:1.0000; stroke:none;">
<circle cx="116.0000" cy="31.0000" r="1.7500" /> 
</g>
<g style="fill:#4D7FC4; fill-opacity:1.0000; stroke:none;">
<circle cx="117.0000" cy="41.0000" r="1.7500" /> 
</g>
<g style="fill:#4D7FC4; fill-opacity:1.0000; stroke:none;">
<circle cx="117.0000" cy="50.0000" r="1.7500" /> 
</g>
<g style="fill:#4D7FC4; fill-opacity:1.0000; stroke:none;">
<circle cx="117.0000" cy="59.0000" r="1.7500" /> 
</g>
<g style="fill:#4D7FC4; fill-opacity:1.0000; stroke:none;">
<circle cx="91.5000" cy="38.0000" r="1.7500" /> 
</g>
<g style="fill:#4D7FC4; fill-opacity:1.0000; stroke:none;">
<circle cx="78.5000" cy="31.0000" r="1.7500" /> 
</g>
<g style="fill:#4D7FC4; fill-opacity:1.0000; stroke:none;">
<circle cx="91.5000" cy="47.0000" r="1.7500" /> 
</g>
<g style="fill:#4D7FC4; fill-opacity:1.0000; stroke:none;">
<circle cx="79.0000" cy="41.0000" r="1.7500" /> 
</g>
<g style="fill:#4D7FC4; fill-opacity:1.0000; stroke:none;">
<circle cx="91.5000" cy="56.0000" r="1.7500" /> 
</g>
<g style="fill:#4D7FC4; fill-opacity:1.0000; stroke:none;">
<circle cx="92.5000" cy="65.5000" r="1.7500" /> 
</g>
<g style="fill:#4D7FC4; fill-opacity:1.0000; stroke:none;">
<circle cx="54.5000" cy="65.5000" r="1.7500" /> 
</g>
<g style="fill:#4D7FC4; fill-opacity:1.0000; stroke:none;">
<circle cx="53.5000" cy="56.0000" r="1.7500" /> 
</g>
<g style="fill:#4D7FC4; fill-opacity:1.0000; stroke:none;">
<circle cx="41.0000" cy="59.0000" r="1.7500" /> 
</g>
<g style="fill:#4D7FC4; fill-opacity:1.0000; stroke:none;">
<circle cx="53.5000" cy="47.0000" r="1.7500" /> 
</g>
<g style="fill:#4D7FC4; fill-opacity:1.0000; stroke:none;">
<circle cx="41.0000" cy="50.0000" r="1.7500" /> 
</g>
<g style="fill:#4D7FC4; fill-opacity:1.0000; stroke:none;">
<circle cx="53.5000" cy="38.0000" r="1.7500" /> 
</g>
<g style="fill:#4D7FC4; fill-opacity:1.0000; stroke:none;">
<circle cx="41.0000" cy="41.0000" r="1.7500" /> 
</g>
<g style="fill:#4D7FC4; fill-opacity:1.0000; stroke:none;">
<circle cx="40.5000" cy="31.0000" r="1.7500" /> 
</g>
<g style="fill:#4D7FC4; fill-opacity:1.0000; stroke:none;">
<circle cx="16.5000" cy="65.5000" r="1.7500" /> 
</g>
<g style="fill:#4D7FC4; fill-opacity:1.0000; stroke:none;">
<circle cx="15.5000" cy="56.0000" r="1.7500" /> 
</g>
<g style="fill:#4D7FC4; fill-opacity:1.0000; stroke:none;">
<circle cx="15.5000" cy="47.0000" r="1.7500" /> 
</g>
<g style="fill:#4D7FC4; fill-opacity:1.0000; stroke:none;">
<circle cx="15.5000" cy="38.0000" r="1.7500" /> 
</g>
<g style="fill:#4D7FC4; fill-opacity:1.0000; stroke:none;">
<circle cx="121.2500" cy="66.0000" r="1.8000" /> 
</g>
<g style="fill:#4D7FC4; fill-opacity:1.0000; stroke:none;">
<circle cx="121.2500" cy="66.0000" r="2.8000" /> 
</g>
<g style="fill:#4D7FC4; fill-opacity:1.0000; stroke:none;">
<circle cx="13.7500" cy="21.0000" r="1.8000" /> 
</g>
<g style="fill:#4D7FC4; fill-opacity:1.0000; stroke:none;">
<circle cx="13.7500" cy="21.0000" r="2.8000" /> 
</g>
<g style="fill:#4D7FC4; fill-opacity:1.0000; stroke:none;">
<circle cx="121.2500" cy="21.0000" r="1.8000" /> 
</g>
<g style="fill:#4D7FC4; fill-opacity:1.0000; stroke:none;">
<circle cx="121.2500" cy="21.0000" r="2.8000" /> 
<path style="fill:#4D7FC4; fill-opacity:1.0000; stroke:none;fill-rule:evenodd;"
d="M 47.2500,18.2500
47.2690,18.1543
47.3232,18.0732
47.4043,18.0190
47.5000,18.0000
48.5000,18.0000
48.5957,18.0190
48.6768,18.0732
48.7310,18.1543
48.7500,18.2500
48.7500,19.2500
48.7310,19.3457
48.6768,19.4268
48.5957,19.4810
48.5000,19.5000
47.5000,19.5000
47.4043,19.4810
47.3232,19.4268
47.2690,19.3457
47.2500,19.2500
Z" /> 
</g>
<g style="fill:#4D7FC4; fill-opacity:1.0000; stroke:none;">
<circle cx="51.0000" cy="18.7500" r="0.7500" /> 
</g>
<g style="fill:#4D7FC4; fill-opacity:1.0000; stroke:none;">
<circle cx="54.0000" cy="18.7500" r="0.7500" /> 
</g>
<g style="fill:#4D7FC4; fill-opacity:1.0000; stroke:none;">
<circle cx="57.0000" cy="18.7500" r="0.7500" /> 
</g>
<g style="fill:#4D7FC4; fill-opacity:1.0000; stroke:none;">
<circle cx="60.0000" cy="18.7500" r="0.7500" /> 
</g>
<g style="fill:#4D7FC4; fill-opacity:1.0000; stroke:none;">
<circle cx="63.0000" cy="18.7500" r="0.7500" /> 
</g>
<g style="fill:#4D7FC4; fill-opacity:1.0000; stroke:none;">
<circle cx="66.0000" cy="18.7500" r="0.7500" /> 
</g>
<g style="fill:#4D7FC4; fill-opacity:1.0000; stroke:none;">
<circle cx="69.0000" cy="18.7500" r="0.7500" /> 
</g>
<g style="fill:#4D7FC4; fill-opacity:1.0000; stroke:none;">
<circle cx="72.0000" cy="18.7500" r="0.7500" /> 
</g>
<g style="fill:#4D7FC4; fill-opacity:1.0000; stroke:none;">
<circle cx="75.0000" cy="18.7500" r="0.7500" /> 
</g>
<g style="fill:#4D7FC4; fill-opacity:1.0000; stroke:none;">
<circle cx="78.0000" cy="18.7500" r="0.7500" /> 
</g>
<g style="fill:#4D7FC4; fill-opacity:1.0000; stroke:none;">
<circle cx="81.0000" cy="18.7500" r="0.7500" /> 
</g>
<g style="fill:#4D7FC4; fill-opacity:1.0000; stroke:none;">
<circle cx="48.0000" cy="21.7500" r="0.7500" /> 
</g>
<g style="fill:#4D7FC4; fill-opacity:1.0000; stroke:none;">
<circle cx="51.0000" cy="21.7500" r="0.7500" /> 
</g>
<g style="fill:#4D7FC4; fill-opacity:1.0000; stroke:none;">
<circle cx="54.0000" cy="21.7500" r="0.7500" /> 
</g>
<g style="fill:#4D7FC4; fill-opacity:1.0000; stroke:none;">
<circle cx="57.0000" cy="21.7500" r="0.7500" /> 
</g>
<g style="fill:#4D7FC4; fill-opacity:1.0000; stroke:none;">
<circle cx="60.0000" cy="21.7500" r="0.7500" /> 
</g>
<g style="fill:#4D7FC4; fill-opacity:1.0000; stroke:none;">
<circle cx="63.0000" cy="21.7500" r="0.7500" /> 
</g>
<g style="fill:#4D7FC4; fill-opacity:1.0000; stroke:none;">
<circle cx="66.0000" cy="21.7500" r="0.7500" /> 
</g>
<g style="fill:#4D7FC4; fill-opacity:1.0000; stroke:none;">
<circle cx="69.0000" cy="21.7500" r="0.7500" /> 
</g>
<g style="fill:#4D7FC4; fill-opacity:1.0000; stroke:none;">
<circle cx="72.0000" cy="21.7500" r="0.7500" /> 
</g>
<g style="fill:#4D7FC4; fill-opacity:1.0000; stroke:none;">
<circle cx="75.0000" cy="21.7500" r="0.7500" /> 
</g>
<g style="fill:#4D7FC4; fill-opacity:1.0000; stroke:none;">
<circle cx="78.0000" cy="21.7500" r="0.7500" /> 
</g>
<g style="fill:#4D7FC4; fill-opacity:1.0000; stroke:none;">
<circle cx="81.0000" cy="21.7500" r="0.7500" /> 
</g>
<g style="fill:none; 
stroke:#4D7FC4; stroke-width:0.4000; stroke-opacity:1; 
stroke-linecap:round; stroke-linejoin:round;">
<path d="M79.5000 20.2500
L81.0000 18.7500
" />
<path d="M79.5000 23.0000
L79.5000 20.2500
" />
<path d="M72.4500 30.0500
L79.5000 23.0000
" />
<path d="M72.4500 65.9110
L72.4500 30.0500
" />
<path d="M70.4110 67.9500
L72.4500 65.9110
" />
<path d="M56.9500 67.9500
L70.4110 67.9500
" />
<path d="M54.5000 65.5000
L56.9500 67.9500
" />
<path d="M76.5000 20.2500
L78.0000 18.7500
" />
<path d="M76.5000 23.0000
L76.5000 20.2500
" />
<path d="M71.8500 27.6500
L76.5000 23.0000
" />
<path d="M71.8500 65.6620
L71.8500 27.6500
" />
<path d="M70.1620 67.3500
L71.8500 65.6620
" />
<path d="M58.7380 67.3500
L70.1620 67.3500
" />
<path d="M57.3000 65.9120
L58.7380 67.3500
" />
<path d="M57.3000 59.8000
L57.3000 65.9120
" />
<path d="M53.5000 56.0000
L57.3000 59.8000
" />
<path d="M73.5000 20.2500
L75.0000 18.7500
" />
<path d="M73.5000 23.0000
L73.5000 20.2500
" />
<path d="M71.2500 25.2500
L73.5000 23.0000
" />
<path d="M71.2500 65.4130
L71.2500 25.2500
" />
<path d="M69.9130 66.7500
L71.2500 65.4130
" />
<path d="M58.9870 66.7500
L69.9130 66.7500
" />
<path d="M57.9000 65.6630
L58.9870 66.7500
" />
<path d="M57.9000 52.2490
L57.9000 65.6630
" />
<path d="M56.6510 51.0000
L57.9000 52.2490
" />
<path d="M51.7500 51.0000
L56.6510 51.0000
" />
<path d="M43.7500 59.0000
L51.7500 51.0000
" />
<path d="M41.0000 59.0000
L43.7500 59.0000
" />
<path d="M67.5000 20.2500
L69.0000 18.7500
" />
<path d="M67.5000 23.0000
L67.5000 20.2500
" />
<path d="M64.0000 26.5000
L67.5000 23.0000
" />
<path d="M58.2500 26.5000
L64.0000 26.5000
" />
<path d="M57.7500 27.0000
L58.2500 26.5000
" />
<path d="M57.7500 38.5000
L57.7500 27.0000
" />
<path d="M46.2500 50.0000
L57.7500 38.5000
" />
<path d="M41.0000 50.0000
L46.2500 50.0000
" />
<path d="M64.5000 20.2500
L66.0000 18.7500
" />
<path d="M64.5000 22.7500
L64.5000 20.2500
" />
<path d="M64.0000 23.2500
L64.5000 22.7500
" />
<path d="M61.8490 23.2500
L64.0000 23.2500
" />
<path d="M61.1510 23.9470
L61.8490 23.2500
" />
<path d="M59.2500 23.9470
L61.1510 23.9470
" />
<path d="M53.5000 29.6970
L59.2500 23.9470
" />
<path d="M53.5000 38.0000
L53.5000 29.6970
" />
<path d="M61.5000 20.2500
L63.0000 18.7500
" />
<path d="M61.5000 22.7500
L61.5000 20.2500
" />
<path d="M61.0000 23.2500
L61.5000 22.7500
" />
<path d="M59.0990 23.2500
L61.0000 23.2500
" />
<path d="M41.3490 41.0000
L59.0990 23.2500
" />
<path d="M41.0000 41.0000
L41.3490 41.0000
" />
<path d="M44.0000 27.5000
L40.5000 31.0000
" />
<path d="M54.0000 27.5000
L44.0000 27.5000
" />
<path d="M58.5000 23.0000
L54.0000 27.5000
" />
<path d="M58.5000 20.2500
L58.5000 23.0000
" />
<path d="M60.0000 18.7500
L58.5000 20.2500
" />
<path d="M49.5000 20.2500
L51.0000 18.7500
" />
<path d="M45.0000 20.2500
L49.5000 20.2500
" />
<path d="M44.1000 19.3500
L45.0000 20.2500
" />
<path d="M20.0000 19.3500
L44.1000 19.3500
" />
<path d="M18.1000 21.2500
L20.0000 19.3500
" />
<path d="M18.1000 44.4000
L18.1000 21.2500
" />
<path d="M15.5000 47.0000
L18.1000 44.4000
" />
<path d="M19.7500 18.7500
L48.0000 18.7500
" />
<path d="M17.5000 21.0000
L19.7500 18.7500
" />
<path d="M17.5000 36.0000
L17.5000 21.0000
" />
<path d="M15.5000 38.0000
L17.5000 36.0000
" />
<path d="M55.5000 20.2500
L57.0000 18.7500
" />
<path d="M55.5000 23.0000
L55.5000 20.2500
" />
<path d="M54.1500 24.3500
L55.5000 23.0000
" />
<path d="M47.4030 24.3500
L54.1500 24.3500
" />
<path d="M43.6030 20.5500
L47.4030 24.3500
" />
<path d="M20.4971 20.5500
L43.6030 20.5500
" />
<path d="M19.3000 21.7470
L20.4971 20.5500
" />
<path d="M19.3000 62.7000
L19.3000 21.7470
" />
<path d="M16.5000 65.5000
L19.3000 62.7000
" />
<path d="M18.7000 52.8000
L15.5000 56.0000
" />
<path d="M18.7000 21.4990
L18.7000 52.8000
" />
<path d="M20.2485 19.9500
L18.7000 21.4990
" />
<path d="M43.8510 19.9500
L20.2485 19.9500
" />
<path d="M47.6510 23.7500
L43.8510 19.9500
" />
<path d="M51.7500 23.7500
L47.6510 23.7500
" />
<path d="M52.5000 23.0000
L51.7500 23.7500
" />
<path d="M52.5000 20.2500
L52.5000 23.0000
" />
<path d="M54.0000 18.7500
L52.5000 20.2500
" />
<path d="M70.5000 20.2500
L72.0000 18.7500
" />
<path d="M70.5000 65.3150
L70.5000 20.2500
" />
<path d="M69.7400 66.0750
L70.5000 65.3150
" />
<path d="M59.1600 66.0750
L69.7400 66.0750
" />
<path d="M58.5000 65.4150
L59.1600 66.0750
" />
<path d="M58.5000 52.0000
L58.5000 65.4150
" />
<path d="M53.5000 47.0000
L58.5000 52.0000
" />
<path style="fill:#4D7FC4; fill-opacity:1.0000; stroke:none;fill-rule:evenodd;"
d="M 124.9778,16.8853
124.9995,16.9376
124.9995,69.7886
124.9778,69.8409
124.9255,69.8626
10.0745,69.8626
10.0222,69.8409
10.0005,69.7886
10.0005,56.0000
13.5445,56.0000
13.5644,56.2783
13.6237,56.5509
13.6237,56.5509
13.7212,56.8123
13.8549,57.0572
13.8947,57.1103
14.0221,57.2806
14.2194,57.4779
14.3869,57.6033
14.4428,57.6451
14.6877,57.7788
14.9491,57.8763
14.9491,57.8763
14.9491,57.8763
15.2217,57.9356
15.2835,57.9400
15.5000,57.9555
15.5000,57.9555
15.5000,57.9555
15.6948,57.9415
15.7783,57.9356
16.0509,57.8763
16.0509,57.8763
16.0509,57.8763
16.3123,57.7788
16.4210,57.7194
16.5572,57.6451
16.7806,57.4779
16.9779,57.2806
17.1451,57.0572
17.2788,56.8123
17.2788,56.8123
17.2788,56.8123
17.3763,56.5509
17.3763,56.5509
17.3763,56.5509
17.4356,56.2783
17.4555,56.0000
17.4555,56.0000
17.4356,55.7217
17.4356,55.7217
17.3763,55.4491
17.3763,55.4491
17.3763,55.4491
17.2788,55.1877
17.1640,54.9775
17.1580,54.9212
17.1766,54.8897
18.7732,53.2932
18.8255,53.2715
18.8778,53.2932
18.8995,53.3455
18.8995,62.5035
18.8778,62.5558
17.6103,63.8233
17.5579,63.8450
17.5225,63.8360
17.3123,63.7212
17.3123,63.7212
17.0509,63.6237
17.0509,63.6237
17.0509,63.6237
16.9428,63.6002
16.7783,63.5644
16.5000,63.5445
16.5000,63.5445
16.2217,63.5644
15.9491,63.6237
15.9491,63.6237
15.6877,63.7212
15.4428,63.8549
15.2194,64.0221
15.0221,64.2194
14.8549,64.4428
14.7212,64.6877
14.6237,64.9491
14.6237,64.9491
14.5644,65.2217
14.5445,65.5000
14.5445,65.5000
14.5644,65.7783
14.6237,66.0509
14.6237,66.0509
14.7212,66.3123
14.8549,66.5572
14.8947,66.6103
15.0221,66.7806
15.2194,66.9779
15.3056,67.0423
15.4428,67.1451
15.6877,67.2788
15.9491,67.3763
15.9491,67.3763
15.9491,67.3763
16.2217,67.4356
16.2835,67.4400
16.5000,67.4555
16.5000,67.4555
16.5000,67.4555
16.6948,67.4415
16.7783,67.4356
17.0509,67.3763
17.0509,67.3763
17.0509,67.3763
17.3123,67.2788
17.5336,67.1580
17.5572,67.1451
17.7806,66.9779
17.9779,66.7806
18.1451,66.5572
18.2788,66.3123
18.2788,66.3123
18.2788,66.3123
18.3763,66.0509
18.3763,66.0509
18.3763,66.0509
18.3873,66.0000
40.7950,66.0000
40.8151,66.3589
40.8151,66.3589
40.8753,66.7132
40.9748,67.0586
41.1124,67.3906
41.1124,67.3906
41.2862,67.7052
41.2862,67.7052
41.4942,67.9983
41.6002,68.1169
42.7355,66.9817
42.7796,67.0423
42.9577,67.2204
43.0183,67.2645
41.8831,68.3998
42.0017,68.5058
42.2948,68.7138
42.2948,68.7138
42.6094,68.8876
42.6094,68.8876
42.9414,69.0252
43.2868,69.1247
43.2868,69.1247
43.6411,69.1849
43.6411,69.1849
44.0000,69.2050
44.3589,69.1849
44.3589,69.1849
44.7132,69.1247
45.0586,69.0252
45.3906,68.8876
45.3906,68.8876
45.7052,68.7138
45.7052,68.7138
45.9983,68.5058
46.1169,68.3998
46.1169,68.3998
44.9817,67.2645
45.0423,67.2204
45.2204,67.0423
45.2645,66.9817
46.3998,68.1169
46.3998,68.1169
46.5058,67.9983
46.7138,67.7052
46.7138,67.7052
46.8876,67.3906
46.8876,67.3906
47.0252,67.0586
47.1247,66.7132
47.1849,66.3589
47.1849,66.3589
47.2050,66.0000
47.1849,65.6411
47.1849,65.6411
47.1247,65.2868
47.0252,64.9414
46.8876,64.6094
46.8876,64.6094
46.7138,64.2948
46.7138,64.2948
46.5058,64.0017
46.3998,63.8831
46.3998,63.8831
45.2645,65.0183
45.2204,64.9577
45.0423,64.7796
44.9817,64.7355
46.1169,63.6002
45.9983,63.4942
45.7052,63.2862
45.7052,63.2862
45.3906,63.1124
45.3906,63.1124
45.0586,62.9748
44.7132,62.8753
44.7132,62.8753
44.3589,62.8151
44.3589,62.8151
44.0000,62.7950
43.6411,62.8151
43.6411,62.8151
43.2868,62.8753
42.9414,62.9748
42.6094,63.1124
42.6094,63.1124
42.2948,63.2862
42.2948,63.2862
42.0017,63.4942
41.8831,63.6002
43.0183,64.7355
42.9577,64.7796
42.7796,64.9577
42.7355,65.0183
41.6002,63.8831
41.4942,64.0017
41.2862,64.2948
41.2862,64.2948
41.1124,64.6094
41.1124,64.6094
40.9748,64.9414
40.8753,65.2868
40.8151,65.6411
40.8151,65.6411
40.7950,66.0000
18.3873,66.0000
18.4356,65.7783
18.4506,65.5682
18.4555,65.5000
18.4555,65.5000
18.4513,65.4409
20.4995,65.4409
20.5336,65.5682
20.5336,65.5682
20.5995,65.6823
20.6927,65.7755
20.8068,65.8414
20.9341,65.8755
20.9341,65.8755
20.9341,65.8755
34.5159,65.8755
34.5159,65.8755
34.6432,65.8414
34.7573,65.7755
34.8505,65.6823
34.9164,65.5682
34.9505,65.4409
34.9505,65.4409
34.9505,59.0000
39.0445,59.0000
39.0644,59.2783
39.1237,59.5509
39.1237,59.5509
39.2212,59.8123
39.3549,60.0572
39.4207,60.1451
39.5221,60.2806
39.7194,60.4779
39.8869,60.6033
39.9428,60.6451
40.1877,60.7788
40.4491,60.8763
40.4491,60.8763
40.4491,60.8763
40.7217,60.9356
40.7835,60.9400
41.0000,60.9555
41.0000,60.9555
41.0000,60.9555
41.1948,60.9415
41.2783,60.9356
41.5509,60.8763
41.5509,60.8763
41.5509,60.8763
41.8123,60.7788
42.0572,60.6451
42.0572,60.6451
42.0572,60.6451
42.2806,60.4779
42.4779,60.2806
42.6451,60.0572
42.7788,59.8123
42.7788,59.8123
42.7788,59.8123
42.8763,59.5509
42.8763,59.5509
42.8763,59.5509
42.8963,59.4588
42.9286,59.4122
42.9686,59.4005
43.8027,59.4005
43.8027,59.4005
43.9046,59.3732
43.9959,59.3205
51.8942,51.4222
51.9465,51.4005
56.4549,51.4005
56.5073,51.4222
57.4778,52.3927
57.4995,52.4451
57.4995,59.2545
57.4778,59.3068
57.4255,59.3285
57.3732,59.3068
55.1766,57.1103
55.1550,57.0579
55.1640,57.0225
55.2788,56.8123
55.3128,56.7212
55.3763,56.5509
55.3763,56.5509
55.3763,56.5509
55.4356,56.2783
55.4555,56.0000
55.4555,56.0000
55.4356,55.7217
55.4356,55.7217
55.3763,55.4491
55.3763,55.4491
55.3763,55.4491
55.2788,55.1877
55.1451,54.9428
55.1033,54.8869
54.9779,54.7194
54.7806,54.5221
54.5695,54.3641
54.5572,54.3549
54.3123,54.2212
54.0509,54.1237
54.0509,54.1237
54.0509,54.1237
53.9960,54.1118
53.7783,54.0644
53.5000,54.0445
53.5000,54.0445
53.2217,54.0644
52.9491,54.1237
52.9491,54.1237
52.6877,54.2212
52.4428,54.3549
52.2194,54.5221
52.0221,54.7194
51.8549,54.9428
51.7212,55.1877
51.6237,55.4491
51.6237,55.4491
51.5644,55.7217
51.5445,56.0000
51.5445,56.0000
51.5644,56.2783
51.6237,56.5509
51.6237,56.5509
51.7212,56.8123
51.8549,57.0572
51.8947,57.1103
52.0221,57.2806
52.2194,57.4779
52.3869,57.6033
52.4428,57.6451
52.6877,57.7788
52.9491,57.8763
52.9491,57.8763
52.9491,57.8763
53.2217,57.9356
53.2835,57.9400
53.5000,57.9555
53.5000,57.9555
53.5000,57.9555
53.6948,57.9415
53.7783,57.9356
54.0509,57.8763
54.0509,57.8763
54.0509,57.8763
54.3123,57.7788
54.3123,57.7788
54.3123,57.7788
54.5225,57.6640
54.5788,57.6580
54.6103,57.6766
56.8778,59.9442
56.8995,59.9965
56.8995,65.8593
56.8995,65.9647
56.9089,66.0000
56.9268,66.0666
56.9268,66.0666
56.9795,66.1579
56.9795,66.1579
56.9795,66.1579
57.6602,66.8386
58.2448,67.4232
58.2664,67.4755
58.2448,67.5278
58.1925,67.5495
57.1465,67.5495
57.0942,67.5278
56.1767,66.6103
56.1550,66.5579
56.1640,66.5225
56.2183,66.4231
56.2788,66.3123
56.2788,66.3123
56.2788,66.3123
56.3763,66.0509
56.3763,66.0509
56.3763,66.0509
56.4356,65.7783
56.4506,65.5682
56.4555,65.5000
56.4555,65.5000
56.4356,65.2217
56.4247,65.1717
56.3763,64.9491
56.3763,64.9491
56.3763,64.9491
56.2788,64.6877
56.1451,64.4428
56.0343,64.2948
55.9779,64.2194
55.7806,64.0221
55.6689,63.9385
55.5572,63.8549
55.3123,63.7212
55.0509,63.6237
55.0509,63.6237
55.0509,63.6237
54.9428,63.6002
54.7783,63.5644
54.5000,63.5445
54.5000,63.5445
54.2217,63.5644
53.9491,63.6237
53.9491,63.6237
53.6877,63.7212
53.4428,63.8549
53.2194,64.0221
53.0221,64.2194
52.8549,64.4428
52.7212,64.6877
52.6237,64.9491
52.6237,64.9491
52.5644,65.2217
52.5445,65.5000
52.5445,65.5000
52.5644,65.7783
52.6237,66.0509
52.6237,66.0509
52.7212,66.3123
52.8549,66.5572
52.8947,66.6103
53.0221,66.7806
53.2194,66.9779
53.3056,67.0423
53.4428,67.1451
53.6877,67.2788
53.9491,67.3763
53.9491,67.3763
53.9491,67.3763
54.2217,67.4356
54.2835,67.4400
54.5000,67.4555
54.5000,67.4555
54.5000,67.4555
54.6948,67.4415
54.7783,67.4356
55.0509,67.3763
55.0509,67.3763
55.0509,67.3763
55.3123,67.2788
55.5225,67.1640
55.5788,67.1580
55.6103,67.1767
56.7041,68.2705
56.7954,68.3232
56.8973,68.3505
56.8973,68.3505
70.4633,68.3505
70.4633,68.3505
70.5651,68.3232
70.6564,68.2705
72.7705,66.1564
72.8232,66.0651
72.8505,65.9633
72.8505,65.8578
72.8505,65.5000
90.5445,65.5000
90.5644,65.7783
90.6237,66.0509
90.6237,66.0509
90.7212,66.3123
90.8549,66.5572
90.8947,66.6103
91.0221,66.7806
91.2194,66.9779
91.3056,67.0423
91.4428,67.1451
91.6877,67.2788
91.9491,67.3763
91.9491,67.3763
91.9491,67.3763
92.2217,67.4356
92.2835,67.4400
92.5000,67.4555
92.5000,67.4555
92.5000,67.4555
92.6948,67.4415
92.7783,67.4356
93.0509,67.3763
93.0509,67.3763
93.0509,67.3763
93.3123,67.2788
93.5336,67.1580
93.5572,67.1451
93.7806,66.9779
93.9779,66.7806
94.1451,66.5572
94.2788,66.3123
94.2788,66.3123
94.2788,66.3123
94.3763,66.0509
94.3763,66.0509
94.3763,66.0509
94.3873,66.0000
118.0450,66.0000
118.0651,66.3589
118.0651,66.3589
118.1253,66.7132
118.2248,67.0586
118.3624,67.3906
118.3624,67.3906
118.5362,67.7052
118.5362,67.7052
118.7442,67.9983
118.8502,68.1169
119.9855,66.9817
120.0296,67.0423
120.2077,67.2204
120.2683,67.2645
119.1331,68.3998
119.2517,68.5058
119.5448,68.7138
119.5448,68.7138
119.8594,68.8876
119.8594,68.8876
120.1914,69.0252
120.5368,69.1247
120.5368,69.1247
120.8911,69.1849
120.8911,69.1849
121.2500,69.2050
121.6089,69.1849
121.6089,69.1849
121.9632,69.1247
122.3086,69.0252
122.6406,68.8876
122.6406,68.8876
122.9552,68.7138
122.9552,68.7138
123.2483,68.5058
123.3669,68.3998
123.3669,68.3998
122.2317,67.2645
122.2923,67.2204
122.4704,67.0423
122.5145,66.9817
123.6498,68.1169
123.6498,68.1169
123.7558,67.9983
123.9638,67.7052
123.9638,67.7052
124.1376,67.3906
124.1376,67.3906
124.2752,67.0586
124.3747,66.7132
124.4349,66.3589
124.4349,66.3589
124.4550,66.0000
124.4349,65.6411
124.4349,65.6411
124.3747,65.2868
124.2752,64.9414
124.1376,64.6094
124.1376,64.6094
123.9638,64.2948
123.9638,64.2948
123.7558,64.0017
123.6498,63.8831
123.6498,63.8831
122.5145,65.0183
122.4704,64.9577
122.2923,64.7796
122.2317,64.7355
123.3669,63.6002
123.2483,63.4942
122.9552,63.2862
122.9552,63.2862
122.6406,63.1124
122.6406,63.1124
122.3086,62.9748
121.9632,62.8753
121.9632,62.8753
121.6089,62.8151
121.6089,62.8151
121.2500,62.7950
120.8911,62.8151
120.8911,62.8151
120.5368,62.8753
120.1914,62.9748
119.8594,63.1124
119.8594,63.1124
119.5448,63.2862
119.5448,63.2862
119.2517,63.4942
119.1331,63.6002
120.2683,64.7355
120.2077,64.7796
120.0296,64.9577
119.9855,65.0183
118.8502,63.8831
118.7442,64.0017
118.5362,64.2948
118.5362,64.2948
118.3624,64.6094
118.3624,64.6094
118.2248,64.9414
118.1253,65.2868
118.0651,65.6411
118.0651,65.6411
118.0450,66.0000
94.3873,66.0000
94.4356,65.7783
94.4506,65.5682
94.4555,65.5000
94.4555,65.5000
94.4513,65.4409
96.4995,65.4409
96.5336,65.5682
96.5336,65.5682
96.5995,65.6823
96.6927,65.7755
96.8068,65.8414
96.9341,65.8755
96.9341,65.8755
96.9341,65.8755
107.0659,65.8755
107.0659,65.8755
107.1932,65.8414
107.3073,65.7755
107.4005,65.6823
107.4664,65.5682
107.5005,65.4409
107.5005,65.4409
107.5005,59.0000
115.0445,59.0000
115.0644,59.2783
115.1237,59.5509
115.1237,59.5509
115.2212,59.8123
115.3549,60.0572
115.4207,60.1451
115.5221,60.2806
115.7194,60.4779
115.8869,60.6033
115.9428,60.6451
116.1877,60.7788
116.4491,60.8763
116.4491,60.8763
116.4491,60.8763
116.7217,60.9356
116.7835,60.9400
117.0000,60.9555
117.0000,60.9555
117.0000,60.9555
117.1948,60.9415
117.2783,60.9356
117.5509,60.8763
117.5509,60.8763
117.5509,60.8763
117.8123,60.7788
118.0572,60.6451
118.0572,60.6451
118.0572,60.6451
118.2806,60.4779
118.4779,60.2806
118.6451,60.0572
118.7788,59.8123
118.7788,59.8123
118.7788,59.8123
118.8763,59.5509
118.8763,59.5509
118.8763,59.5509
118.9356,59.2783
118.9518,59.0509
118.9555,59.0000
118.9555,59.0000
118.9356,58.7217
118.9356,58.7217
118.8763,58.4491
118.8763,58.4491
118.8763,58.4491
118.7788,58.1877
118.6451,57.9428
118.5223,57.7788
118.4779,57.7194
118.2806,57.5221
118.1689,57.4385
118.0572,57.3549
117.8123,57.2212
117.5509,57.1237
117.5509,57.1237
117.5509,57.1237
117.4890,57.1103
117.2783,57.0644
117.0000,57.0445
117.0000,57.0445
116.7217,57.0644
116.4491,57.1237
116.4491,57.1237
116.1877,57.2212
115.9428,57.3549
115.7194,57.5221
115.5221,57.7194
115.3549,57.9428
115.2212,58.1877
115.1237,58.4491
115.1237,58.4491
115.0644,58.7217
115.0445,59.0000
115.0445,59.0000
107.5005,59.0000
107.5005,50.0000
115.0445,50.0000
115.0644,50.2783
115.1237,50.5509
115.1237,50.5509
115.2212,50.8123
115.3549,51.0572
115.4385,51.1689
115.5221,51.2806
115.7194,51.4779
115.8869,51.6033
115.9428,51.6451
116.1877,51.7788
116.4491,51.8763
116.4491,51.8763
116.4491,51.8763
116.7217,51.9356
116.7835,51.9400
117.0000,51.9555
117.0000,51.9555
117.0000,51.9555
117.1948,51.9415
117.2783,51.9356
117.5509,51.8763
117.5509,51.8763
117.5509,51.8763
117.8123,51.7788
117.8575,51.7541
118.0572,51.6451
118.2806,51.4779
118.4779,51.2806
118.6451,51.0572
118.7788,50.8123
118.7788,50.8123
118.7788,50.8123
118.8763,50.5509
118.8763,50.5509
118.8763,50.5509
118.9356,50.2783
118.9555,50.0000
118.9555,50.0000
118.9356,49.7217
118.9356,49.7217
118.8763,49.4491
118.8763,49.4491
118.8763,49.4491
118.7788,49.1877
118.6451,48.9428
118.5223,48.7788
118.4779,48.7194
118.2806,48.5221
118.1689,48.4385
118.0572,48.3549
117.8123,48.2212
117.5509,48.1237
117.5509,48.1237
117.5509,48.1237
117.4890,48.1103
117.2783,48.0644
117.0000,48.0445
117.0000,48.0445
116.7217,48.0644
116.4491,48.1237
116.4491,48.1237
116.1877,48.2212
115.9428,48.3549
115.7194,48.5221
115.5221,48.7194
115.3549,48.9428
115.2212,49.1877
115.1237,49.4491
115.1237,49.4491
115.0644,49.7217
115.0445,50.0000
115.0445,50.0000
107.5005,50.0000
107.5005,41.0000
115.0445,41.0000
115.0644,41.2783
115.1237,41.5509
115.1237,41.5509
115.2212,41.8123
115.3549,42.0572
115.4385,42.1689
115.5221,42.2806
115.7194,42.4779
115.8869,42.6033
115.9428,42.6451
116.1877,42.7788
116.4491,42.8763
116.4491,42.8763
116.4491,42.8763
116.7217,42.9356
116.7835,42.9400
117.0000,42.9555
117.0000,42.9555
117.0000,42.9555
117.1948,42.9415
117.2783,42.9356
117.5509,42.8763
117.5509,42.8763
117.5509,42.8763
117.8123,42.7788
118.0572,42.6451
118.0572,42.6451
118.0572,42.6451
118.2806,42.4779
118.4779,42.2806
118.6451,42.0572
118.7788,41.8123
118.7788,41.8123
118.7788,41.8123
118.8763,41.5509
118.8763,41.5509
118.8763,41.5509
118.9356,41.2783
118.9555,41.0000
118.9555,41.0000
118.9356,40.7217
118.9356,40.7217
118.8763,40.4491
118.8763,40.4491
118.8763,40.4491
118.7788,40.1877
118.6451,39.9428
118.5223,39.7788
118.4779,39.7194
118.2806,39.5221
118.1689,39.4385
118.0572,39.3549
117.8123,39.2212
117.5509,39.1237
117.5509,39.1237
117.5509,39.1237
117.4960,39.1118
117.2783,39.0644
117.0000,39.0445
117.0000,39.0445
116.7217,39.0644
116.4491,39.1237
116.4491,39.1237
116.1877,39.2212
115.9428,39.3549
115.7194,39.5221
115.5221,39.7194
115.3549,39.9428
115.2212,40.1877
115.1237,40.4491
115.1237,40.4491
115.0644,40.7217
115.0445,41.0000
115.0445,41.0000
107.5005,41.0000
107.5005,31.0000
114.0445,31.0000
114.0644,31.2783
114.1237,31.5509
114.1237,31.5509
114.2212,31.8123
114.3549,32.0572
114.4385,32.1689
114.5221,32.2806
114.7194,32.4779
114.8869,32.6033
114.9428,32.6451
115.1877,32.7788
115.4491,32.8763
115.4491,32.8763
115.4491,32.8763
115.7217,32.9356
115.7835,32.9400
116.0000,32.9555
116.0000,32.9555
116.0000,32.9555
116.1948,32.9415
116.2783,32.9356
116.5509,32.8763
116.5509,32.8763
116.5509,32.8763
116.8123,32.7788
117.0572,32.6451
117.0572,32.6451
117.0572,32.6451
117.2806,32.4779
117.4779,32.2806
117.6451,32.0572
117.7788,31.8123
117.7788,31.8123
117.7788,31.8123
117.8763,31.5509
117.8763,31.5509
117.8763,31.5509
117.9356,31.2783
117.9555,31.0000
117.9555,31.0000
117.9356,30.7217
117.9356,30.7217
117.8763,30.4491
117.8763,30.4491
117.8763,30.4491
117.7788,30.1877
117.6451,29.9428
117.5691,29.8413
117.4779,29.7194
117.2806,29.5221
117.0695,29.3641
117.0572,29.3549
116.8123,29.2212
116.5509,29.1237
116.5509,29.1237
116.5509,29.1237
116.4960,29.1118
116.2783,29.0644
116.0000,29.0445
116.0000,29.0445
115.7217,29.0644
115.4491,29.1237
115.4491,29.1237
115.1877,29.2212
114.9428,29.3549
114.7194,29.5221
114.5221,29.7194
114.3549,29.9428
114.2212,30.1877
114.1237,30.4491
114.1237,30.4491
114.0644,30.7217
114.0445,31.0000
114.0445,31.0000
107.5005,31.0000
107.5005,21.0000
118.0450,21.0000
118.0651,21.3589
118.0651,21.3589
118.1253,21.7132
118.2248,22.0586
118.3624,22.3906
118.3624,22.3906
118.5362,22.7052
118.5362,22.7052
118.7442,22.9983
118.8502,23.1169
119.9855,21.9817
120.0296,22.0423
120.2077,22.2204
120.2683,22.2645
119.1331,23.3998
119.2517,23.5058
119.5448,23.7138
119.5448,23.7138
119.8594,23.8876
119.8594,23.8876
120.1914,24.0252
120.5368,24.1247
120.5368,24.1247
120.8911,24.1849
120.8911,24.1849
121.2500,24.2050
121.6089,24.1849
121.6089,24.1849
121.9632,24.1247
122.3086,24.0252
122.6406,23.8876
122.6406,23.8876
122.9552,23.7138
122.9552,23.7138
123.2483,23.5058
123.3669,23.3998
123.3669,23.3998
122.2317,22.2645
122.2923,22.2204
122.4704,22.0423
122.5145,21.9817
123.6498,23.1169
123.6498,23.1169
123.7558,22.9983
123.9638,22.7052
123.9638,22.7052
124.1376,22.3906
124.1376,22.3906
124.2752,22.0586
124.3747,21.7132
124.4349,21.3589
124.4349,21.3589
124.4550,21.0000
124.4349,20.6411
124.4349,20.6411
124.3747,20.2868
124.2752,19.9414
124.1376,19.6094
124.1376,19.6094
123.9638,19.2948
123.9638,19.2948
123.7558,19.0017
123.6498,18.8831
123.6498,18.8831
122.5145,20.0183
122.4704,19.9577
122.2923,19.7796
122.2317,19.7355
123.3669,18.6002
123.2483,18.4942
122.9552,18.2862
122.9552,18.2862
122.6406,18.1124
122.6406,18.1124
122.3086,17.9748
121.9632,17.8753
121.9632,17.8753
121.6089,17.8151
121.6089,17.8151
121.2500,17.7950
120.8911,17.8151
120.8911,17.8151
120.5368,17.8753
120.1914,17.9748
119.8594,18.1124
119.8594,18.1124
119.5448,18.2862
119.5448,18.2862
119.2517,18.4942
119.1331,18.6002
120.2683,19.7355
120.2077,19.7796
120.0296,19.9577
119.9855,20.0183
118.8502,18.8831
118.7442,19.0017
118.5362,19.2948
118.5362,19.2948
118.3624,19.6094
118.3624,19.6094
118.2248,19.9414
118.1253,20.2868
118.0651,20.6411
118.0651,20.6411
118.0450,21.0000
107.5005,21.0000
107.5005,20.9341
107.5005,20.9341
107.4664,20.8068
107.4664,20.8068
107.4005,20.6927
107.3073,20.5995
107.1932,20.5336
107.1932,20.5336
107.0659,20.4995
107.0659,20.4995
97.0659,20.4995
96.9341,20.4995
96.9341,20.4995
96.8068,20.5336
96.8068,20.5336
96.6927,20.5995
96.5995,20.6927
96.5336,20.8068
96.5336,20.8068
96.4995,20.9341
96.4995,65.4409
94.4513,65.4409
94.4356,65.2217
94.4247,65.1717
94.3763,64.9491
94.3763,64.9491
94.3763,64.9491
94.2788,64.6877
94.1451,64.4428
94.0343,64.2948
93.9779,64.2194
93.7806,64.0221
93.6689,63.9385
93.5572,63.8549
93.3123,63.7212
93.0509,63.6237
93.0509,63.6237
93.0509,63.6237
92.9428,63.6002
92.7783,63.5644
92.5000,63.5445
92.5000,63.5445
92.2217,63.5644
91.9491,63.6237
91.9491,63.6237
91.6877,63.7212
91.4428,63.8549
91.2194,64.0221
91.0221,64.2194
90.8549,64.4428
90.7212,64.6877
90.6237,64.9491
90.6237,64.9491
90.5644,65.2217
90.5445,65.5000
90.5445,65.5000
72.8505,65.5000
72.8505,58.5000
77.0445,58.5000
77.0644,58.7783
77.1237,59.0509
77.1237,59.0509
77.2212,59.3123
77.3549,59.5572
77.4385,59.6689
77.5221,59.7806
77.7194,59.9779
77.8869,60.1033
77.9428,60.1451
78.1877,60.2788
78.4491,60.3763
78.4491,60.3763
78.4491,60.3763
78.7217,60.4356
78.7835,60.4400
79.0000,60.4555
79.0000,60.4555
79.0000,60.4555
79.1948,60.4415
79.2783,60.4356
79.5509,60.3763
79.5509,60.3763
79.5509,60.3763
79.8123,60.2788
80.0572,60.1451
80.0572,60.1451
80.0572,60.1451
80.2806,59.9779
80.4779,59.7806
80.6451,59.5572
80.7788,59.3123
80.7788,59.3123
80.7788,59.3123
80.8763,59.0509
80.8763,59.0509
80.8763,59.0509
80.9356,58.7783
80.9499,58.5778
80.9555,58.5000
80.9555,58.5000
80.9356,58.2217
80.9282,58.1877
80.8763,57.9491
80.8763,57.9491
80.8763,57.9491
80.7788,57.6877
80.6451,57.4428
80.5236,57.2806
80.4779,57.2194
80.2806,57.0221
80.1689,56.9385
80.0572,56.8549
79.8123,56.7212
79.5509,56.6237
79.5509,56.6237
79.5509,56.6237
79.4960,56.6118
79.2783,56.5644
79.0000,56.5445
79.0000,56.5445
78.7217,56.5644
78.4491,56.6237
78.4491,56.6237
78.1877,56.7212
77.9428,56.8549
77.7194,57.0221
77.5221,57.2194
77.3549,57.4428
77.2212,57.6877
77.1237,57.9491
77.1237,57.9491
77.0644,58.2217
77.0445,58.5000
77.0445,58.5000
72.8505,58.5000
72.8505,56.0000
89.5445,56.0000
89.5644,56.2783
89.6237,56.5509
89.6237,56.5509
89.7212,56.8123
89.8549,57.0572
89.8947,57.1103
90.0221,57.2806
90.2194,57.4779
90.3869,57.6033
90.4428,57.6451
90.6877,57.7788
90.9491,57.8763
90.9491,57.8763
90.9491,57.8763
91.2217,57.9356
91.2835,57.9400
91.5000,57.9555
91.5000,57.9555
91.5000,57.9555
91.6948,57.9415
91.7783,57.9356
92.0509,57.8763
92.0509,57.8763
92.0509,57.8763
92.3123,57.7788
92.4210,57.7194
92.5572,57.6451
92.7806,57.4779
92.9779,57.2806
93.1451,57.0572
93.2788,56.8123
93.2788,56.8123
93.2788,56.8123
93.3763,56.5509
93.3763,56.5509
93.3763,56.5509
93.4356,56.2783
93.4555,56.0000
93.4555,56.0000
93.4356,55.7217
93.4356,55.7217
93.3763,55.4491
93.3763,55.4491
93.3763,55.4491
93.2788,55.1877
93.1451,54.9428
93.1033,54.8869
92.9779,54.7194
92.7806,54.5221
92.5695,54.3641
92.5572,54.3549
92.3123,54.2212
92.0509,54.1237
92.0509,54.1237
92.0509,54.1237
91.9960,54.1118
91.7783,54.0644
91.5000,54.0445
91.5000,54.0445
91.2217,54.0644
90.9491,54.1237
90.9491,54.1237
90.6877,54.2212
90.4428,54.3549
90.2194,54.5221
90.0221,54.7194
89.8549,54.9428
89.7212,55.1877
89.6237,55.4491
89.6237,55.4491
89.5644,55.7217
89.5445,56.0000
89.5445,56.0000
72.8505,56.0000
72.8505,50.0000
77.0445,50.0000
77.0644,50.2783
77.1237,50.5509
77.1237,50.5509
77.2212,50.8123
77.3549,51.0572
77.4385,51.1689
77.5221,51.2806
77.7194,51.4779
77.8869,51.6033
77.9428,51.6451
78.1877,51.7788
78.4491,51.8763
78.4491,51.8763
78.4491,51.8763
78.7217,51.9356
78.7835,51.9400
79.0000,51.9555
79.0000,51.9555
79.0000,51.9555
79.1948,51.9415
79.2783,51.9356
79.5509,51.8763
79.5509,51.8763
79.5509,51.8763
79.8123,51.7788
79.8575,51.7541
80.0572,51.6451
80.2806,51.4779
80.4779,51.2806
80.6451,51.0572
80.7788,50.8123
80.7788,50.8123
80.7788,50.8123
80.8763,50.5509
80.8763,50.5509
80.8763,50.5509
80.9356,50.2783
80.9555,50.0000
80.9555,50.0000
80.9356,49.7217
80.9356,49.7217
80.8763,49.4491
80.8763,49.4491
80.8763,49.4491
80.7788,49.1877
80.6451,48.9428
80.5223,48.7788
80.4779,48.7194
80.2806,48.5221
80.1689,48.4385
80.0572,48.3549
79.8123,48.2212
79.5509,48.1237
79.5509,48.1237
79.5509,48.1237
79.4890,48.1103
79.2783,48.0644
79.0000,48.0445
79.0000,48.0445
78.7217,48.0644
78.4491,48.1237
78.4491,48.1237
78.1877,48.2212
77.9428,48.3549
77.7194,48.5221
77.5221,48.7194
77.3549,48.9428
77.2212,49.1877
77.1237,49.4491
77.1237,49.4491
77.0644,49.7217
77.0445,50.0000
77.0445,50.0000
72.8505,50.0000
72.8505,47.0000
89.5445,47.0000
89.5644,47.2783
89.6237,47.5509
89.6237,47.5509
89.7212,47.8123
89.8549,48.0572
89.8947,48.1103
90.0221,48.2806
90.2194,48.4779
90.3869,48.6033
90.4428,48.6451
90.6877,48.7788
90.9491,48.8763
90.9491,48.8763
90.9491,48.8763
91.2217,48.9356
91.2835,48.9400
91.5000,48.9555
91.5000,48.9555
91.5000,48.9555
91.6948,48.9415
91.7783,48.9356
92.0509,48.8763
92.0509,48.8763
92.0509,48.8763
92.3123,48.7788
92.4210,48.7194
92.5572,48.6451
92.7806,48.4779
92.9779,48.2806
93.1451,48.0572
93.2788,47.8123
93.2788,47.8123
93.2788,47.8123
93.3763,47.5509
93.3763,47.5509
93.3763,47.5509
93.4356,47.2783
93.4555,47.0000
93.4555,47.0000
93.4356,46.7217
93.4356,46.7217
93.3763,46.4491
93.3763,46.4491
93.3763,46.4491
93.2788,46.1877
93.1451,45.9428
93.1033,45.8869
92.9779,45.7194
92.7806,45.5221
92.5695,45.3641
92.5572,45.3549
92.3123,45.2212
92.0509,45.1237
92.0509,45.1237
92.0509,45.1237
91.9960,45.1118
91.7783,45.0644
91.5000,45.0445
91.5000,45.0445
91.2217,45.0644
90.9491,45.1237
90.9491,45.1237
90.6877,45.2212
90.4428,45.3549
90.2194,45.5221
90.0221,45.7194
89.8549,45.9428
89.7212,46.1877
89.6237,46.4491
89.6237,46.4491
89.5644,46.7217
89.5445,47.0000
89.5445,47.0000
72.8505,47.0000
72.8505,41.0000
77.0445,41.0000
77.0644,41.2783
77.1237,41.5509
77.1237,41.5509
77.2212,41.8123
77.3549,42.0572
77.4385,42.1689
77.5221,42.2806
77.7194,42.4779
77.8869,42.6033
77.9428,42.6451
78.1877,42.7788
78.4491,42.8763
78.4491,42.8763
78.4491,42.8763
78.7217,42.9356
78.7835,42.9400
79.0000,42.9555
79.0000,42.9555
79.0000,42.9555
79.1948,42.9415
79.2783,42.9356
79.5509,42.8763
79.5509,42.8763
79.5509,42.8763
79.8123,42.7788
80.0572,42.6451
80.0572,42.6451
80.0572,42.6451
80.2806,42.4779
80.4779,42.2806
80.6451,42.0572
80.7788,41.8123
80.7788,41.8123
80.7788,41.8123
80.8763,41.5509
80.8763,41.5509
80.8763,41.5509
80.9356,41.2783
80.9555,41.0000
80.9555,41.0000
80.9356,40.7217
80.9356,40.7217
80.8763,40.4491
80.8763,40.4491
80.8763,40.4491
80.7788,40.1877
80.6451,39.9428
80.5223,39.7788
80.4779,39.7194
80.2806,39.5221
80.1689,39.4385
80.0572,39.3549
79.8123,39.2212
79.5509,39.1237
79.5509,39.1237
79.5509,39.1237
79.4960,39.1118
79.2783,39.0644
79.0000,39.0445
79.0000,39.0445
78.7217,39.0644
78.4491,39.1237
78.4491,39.1237
78.1877,39.2212
77.9428,39.3549
77.7194,39.5221
77.5221,39.7194
77.3549,39.9428
77.2212,40.1877
77.1237,40.4491
77.1237,40.4491
77.0644,40.7217
77.0445,41.0000
77.0445,41.0000
72.8505,41.0000
72.8505,38.0000
89.5445,38.0000
89.5644,38.2783
89.6237,38.5509
89.6237,38.5509
89.7212,38.8123
89.8549,39.0572
89.9047,39.1237
90.0221,39.2806
90.2194,39.4779
90.3869,39.6033
90.4428,39.6451
90.6877,39.7788
90.9491,39.8763
90.9491,39.8763
90.9491,39.8763
91.2217,39.9356
91.2835,39.9400
91.5000,39.9555
91.5000,39.9555
91.5000,39.9555
91.6948,39.9415
91.7783,39.9356
92.0509,39.8763
92.0509,39.8763
92.0509,39.8763
92.3123,39.7788
92.4210,39.7194
92.5572,39.6451
92.7806,39.4779
92.9779,39.2806
93.1451,39.0572
93.2788,38.8123
93.2788,38.8123
93.2788,38.8123
93.3763,38.5509
93.3763,38.5509
93.3763,38.5509
93.4356,38.2783
93.4555,38.0000
93.4555,38.0000
93.4356,37.7217
93.4356,37.7217
93.3763,37.4491
93.3763,37.4491
93.3763,37.4491
93.2788,37.1877
93.1451,36.9428
93.1033,36.8869
92.9779,36.7194
92.7806,36.5221
92.6689,36.4385
92.5572,36.3549
92.3123,36.2212
92.0509,36.1237
92.0509,36.1237
92.0509,36.1237
91.9588,36.1037
91.7783,36.0644
91.5000,36.0445
91.5000,36.0445
91.2217,36.0644
90.9491,36.1237
90.9491,36.1237
90.6877,36.2212
90.4428,36.3549
90.2194,36.5221
90.0221,36.7194
89.8549,36.9428
89.7212,37.1877
89.6237,37.4491
89.6237,37.4491
89.5644,37.7217
89.5445,38.0000
89.5445,38.0000
72.8505,38.0000
72.8505,31.0000
76.5445,31.0000
76.5644,31.2783
76.6237,31.5509
76.6237,31.5509
76.7212,31.8123
76.8549,32.0572
76.9385,32.1689
77.0221,32.2806
77.2194,32.4779
77.3869,32.6033
77.4428,32.6451
77.6877,32.7788
77.9491,32.8763
77.9491,32.8763
77.9491,32.8763
78.2217,32.9356
78.2835,32.9400
78.5000,32.9555
78.5000,32.9555
78.5000,32.9555
78.6948,32.9415
78.7783,32.9356
79.0509,32.8763
79.0509,32.8763
79.0509,32.8763
79.3123,32.7788
79.5572,32.6451
79.5572,32.6451
79.5572,32.6451
79.7806,32.4779
79.9779,32.2806
80.1451,32.0572
80.2788,31.8123
80.2788,31.8123
80.2788,31.8123
80.3763,31.5509
80.3763,31.5509
80.3763,31.5509
80.4356,31.2783
80.4555,31.0000
80.4555,31.0000
80.4356,30.7217
80.4356,30.7217
80.3763,30.4491
80.3763,30.4491
80.3763,30.4491
80.2788,30.1877
80.1451,29.9428
80.0691,29.8413
79.9779,29.7194
79.7806,29.5221
79.5695,29.3641
79.5572,29.3549
79.3123,29.2212
79.0509,29.1237
79.0509,29.1237
79.0509,29.1237
78.9960,29.1118
78.7783,29.0644
78.5000,29.0445
78.5000,29.0445
78.2217,29.0644
77.9491,29.1237
77.9491,29.1237
77.6877,29.2212
77.4428,29.3549
77.2194,29.5221
77.0221,29.7194
76.8549,29.9428
76.7212,30.1877
76.6237,30.4491
76.6237,30.4491
76.5644,30.7217
76.5445,31.0000
76.5445,31.0000
72.8505,31.0000
72.8505,30.2465
72.8722,30.1942
79.7459,23.3205
79.7459,23.3205
79.8205,23.2459
79.8732,23.1546
79.8816,23.1232
79.9005,23.0527
79.9005,22.9473
79.9005,22.9427
79.9005,22.9427
79.9005,21.7902
79.9159,21.7529
79.9142,21.7480
80.0316,21.7480
80.0481,21.7829
80.0633,21.9363
80.1176,22.1155
80.2059,22.2806
80.2059,22.2806
80.2059,22.2806
80.3246,22.4254
80.4694,22.5441
80.4694,22.5441
80.4694,22.5441
80.6345,22.6324
80.6345,22.6324
80.6345,22.6324
80.8137,22.6867
81.0000,22.7051
81.1863,22.6867
81.3655,22.6324
81.5306,22.5441
81.6754,22.4254
81.7941,22.2806
81.8824,22.1155
81.9367,21.9363
81.9551,21.7500
81.9367,21.5637
81.8824,21.3845
81.8824,21.3845
81.8824,21.3845
81.7941,21.2194
81.7941,21.2194
81.7941,21.2194
81.6754,21.0746
81.5306,20.9559
81.5306,20.9559
81.5306,20.9559
81.3655,20.8676
81.1863,20.8133
81.0000,20.7949
80.8137,20.8133
80.6345,20.8676
80.4694,20.9559
80.4694,20.9559
80.3246,21.0746
80.2059,21.2194
80.2059,21.2194
80.1176,21.3845
80.0633,21.5637
80.0481,21.7171
80.0316,21.7480
79.9142,21.7480
79.9005,21.7098
79.9005,20.4465
79.9222,20.3942
80.6411,19.6753
80.6934,19.6536
80.7149,19.6568
80.8137,19.6867
81.0000,19.7051
81.1863,19.6867
81.3655,19.6324
81.5306,19.5441
81.6754,19.4254
81.7941,19.2806
81.8824,19.1155
81.9367,18.9363
81.9551,18.7500
81.9367,18.5637
81.8824,18.3845
81.8824,18.3845
81.8824,18.3845
81.7941,18.2194
81.7941,18.2194
81.7941,18.2194
81.6754,18.0746
81.5306,17.9559
81.5306,17.9559
81.5306,17.9559
81.3655,17.8676
81.1863,17.8133
81.0000,17.7949
80.8137,17.8133
80.6345,17.8676
80.4694,17.9559
80.4694,17.9559
80.3246,18.0746
80.2059,18.2194
80.2059,18.2194
80.1176,18.3845
80.0633,18.5637
80.0449,18.7500
80.0633,18.9363
80.0932,19.0351
80.0877,19.0914
80.0747,19.1089
79.1795,20.0041
79.1268,20.0954
79.0999,20.1959
79.0999,20.1959
79.0995,20.1973
79.0995,20.1973
79.0995,21.7098
79.0841,21.7471
79.0995,21.7902
79.0995,22.8035
79.0778,22.8558
72.3768,29.5568
72.3245,29.5785
72.2722,29.5568
72.2505,29.5045
72.2505,27.8465
72.2722,27.7942
76.8205,23.2459
76.8732,23.1546
76.9005,23.0527
76.9005,22.9473
76.9005,21.7902
76.9159,21.7529
76.9142,21.7480
77.0316,21.7480
77.0481,21.7829
77.0633,21.9363
77.1176,22.1155
77.2059,22.2806
77.2059,22.2806
77.2059,22.2806
77.3246,22.4254
77.4694,22.5441
77.4694,22.5441
77.4694,22.5441
77.6345,22.6324
77.6345,22.6324
77.6345,22.6324
77.8137,22.6867
78.0000,22.7051
78.1863,22.6867
78.3655,22.6324
78.5306,22.5441
78.6754,22.4254
78.7941,22.2806
78.8824,22.1155
78.9367,21.9363
78.9519,21.7829
78.9684,21.7520
78.9519,21.7171
78.9511,21.7098
78.9367,21.5637
78.8824,21.3845
78.8824,21.3845
78.8824,21.3845
78.7941,21.2194
78.7941,21.2194
78.7941,21.2194
78.6754,21.0746
78.5306,20.9559
78.5306,20.9559
78.5306,20.9559
78.3655,20.8676
78.1863,20.8133
78.0000,20.7949
77.8137,20.8133
77.6345,20.8676
77.4694,20.9559
77.4694,20.9559
77.3246,21.0746
77.2059,21.2194
77.2059,21.2194
77.1176,21.3845
77.0633,21.5637
77.0481,21.7171
77.0316,21.7480
76.9142,21.7480
76.9005,21.7098
76.9005,20.4465
76.9222,20.3942
77.6411,19.6753
77.6934,19.6536
77.7149,19.6568
77.8137,19.6867
78.0000,19.7051
78.1863,19.6867
78.3655,19.6324
78.5306,19.5441
78.6754,19.4254
78.7941,19.2806
78.8824,19.1155
78.9367,18.9363
78.9551,18.7500
78.9367,18.5637
78.8824,18.3845
78.8824,18.3845
78.8824,18.3845
78.7941,18.2194
78.7941,18.2194
78.7941,18.2194
78.6754,18.0746
78.5306,17.9559
78.5306,17.9559
78.5306,17.9559
78.3655,17.8676
78.1863,17.8133
78.0000,17.7949
77.8137,17.8133
77.6345,17.8676
77.4694,17.9559
77.4694,17.9559
77.3246,18.0746
77.2059,18.2194
77.2059,18.2194
77.1176,18.3845
77.0633,18.5637
77.0449,18.7500
77.0633,18.9363
77.0932,19.0351
77.0877,19.0914
77.0747,19.1089
76.1795,20.0041
76.1268,20.0954
76.0999,20.1959
76.0999,20.1959
76.0995,20.1973
76.0995,20.1973
76.0995,21.7098
76.0841,21.7471
76.0995,21.7902
76.0995,22.8035
76.0778,22.8558
71.7768,27.1568
71.7245,27.1785
71.6722,27.1568
71.6505,27.1045
71.6505,25.4465
71.6722,25.3942
73.7459,23.3205
73.7459,23.3205
73.8205,23.2459
73.8732,23.1546
73.8816,23.1232
73.9005,23.0527
73.9005,22.9473
73.9005,22.9427
73.9005,22.9427
73.9005,21.7902
73.9159,21.7529
73.9142,21.7480
74.0316,21.7480
74.0481,21.7829
74.0633,21.9363
74.1176,22.1155
74.2059,22.2806
74.2059,22.2806
74.2059,22.2806
74.3246,22.4254
74.4694,22.5441
74.4694,22.5441
74.4694,22.5441
74.6345,22.6324
74.6345,22.6324
74.6345,22.6324
74.8137,22.6867
75.0000,22.7051
75.1863,22.6867
75.3655,22.6324
75.5306,22.5441
75.6754,22.4254
75.7941,22.2806
75.8824,22.1155
75.9367,21.9363
75.9519,21.7829
75.9684,21.7520
75.9519,21.7171
75.9511,21.7098
75.9367,21.5637
75.8824,21.3845
75.8824,21.3845
75.8824,21.3845
75.7941,21.2194
75.7941,21.2194
75.7941,21.2194
75.6754,21.0746
75.5306,20.9559
75.5306,20.9559
75.5306,20.9559
75.3655,20.8676
75.1863,20.8133
75.0000,20.7949
74.8137,20.8133
74.6345,20.8676
74.4694,20.9559
74.4694,20.9559
74.3246,21.0746
74.2059,21.2194
74.2059,21.2194
74.1176,21.3845
74.0633,21.5637
74.0481,21.7171
74.0316,21.7480
73.9142,21.7480
73.9005,21.7098
73.9005,20.4465
73.9222,20.3942
74.6411,19.6753
74.6934,19.6536
74.7149,19.6568
74.8137,19.6867
75.0000,19.7051
75.1863,19.6867
75.3655,19.6324
75.5306,19.5441
75.6754,19.4254
75.7941,19.2806
75.8824,19.1155
75.9367,18.9363
75.9551,18.7500
75.9367,18.5637
75.8824,18.3845
75.8824,18.3845
75.8824,18.3845
75.7941,18.2194
75.7941,18.2194
75.7941,18.2194
75.6754,18.0746
75.5306,17.9559
75.5306,17.9559
75.5306,17.9559
75.3655,17.8676
75.1863,17.8133
75.0000,17.7949
74.8137,17.8133
74.6345,17.8676
74.4694,17.9559
74.4694,17.9559
74.3246,18.0746
74.2059,18.2194
74.2059,18.2194
74.1176,18.3845
74.0633,18.5637
74.0449,18.7500
74.0633,18.9363
74.0932,19.0351
74.0877,19.0914
74.0747,19.1089
73.1795,20.0041
73.1268,20.0954
73.0999,20.1959
73.0999,20.1959
73.0995,20.1973
73.0995,20.1973
73.0995,21.7098
73.0841,21.7471
73.0995,21.7902
73.0995,22.8035
73.0778,22.8558
71.0268,24.9068
70.9745,24.9285
70.9222,24.9068
70.9005,24.8545
70.9005,21.7902
70.9159,21.7529
70.9142,21.7480
71.0316,21.7480
71.0481,21.7829
71.0633,21.9363
71.1176,22.1155
71.2059,22.2806
71.2059,22.2806
71.2059,22.2806
71.3246,22.4254
71.4694,22.5441
71.4694,22.5441
71.4694,22.5441
71.6345,22.6324
71.6345,22.6324
71.6345,22.6324
71.8137,22.6867
72.0000,22.7051
72.1863,22.6867
72.3655,22.6324
72.5306,22.5441
72.6754,22.4254
72.7941,22.2806
72.8824,22.1155
72.9367,21.9363
72.9519,21.7829
72.9684,21.7520
72.9519,21.7171
72.9511,21.7098
72.9367,21.5637
72.8824,21.3845
72.8824,21.3845
72.8824,21.3845
72.7941,21.2194
72.7941,21.2194
72.7941,21.2194
72.6754,21.0746
72.5306,20.9559
72.5306,20.9559
72.5306,20.9559
72.3655,20.8676
72.1863,20.8133
72.0000,20.7949
71.8137,20.8133
71.6345,20.8676
71.4694,20.9559
71.4694,20.9559
71.3246,21.0746
71.2059,21.2194
71.2059,21.2194
71.1176,21.3845
71.0633,21.5637
71.0481,21.7171
71.0316,21.7480
70.9142,21.7480
70.9005,21.7098
70.9005,20.4465
70.9222,20.3942
71.6411,19.6753
71.6934,19.6536
71.7149,19.6568
71.8137,19.6867
72.0000,19.7051
72.1863,19.6867
72.3655,19.6324
72.5306,19.5441
72.6754,19.4254
72.7941,19.2806
72.8824,19.1155
72.9367,18.9363
72.9551,18.7500
72.9367,18.5637
72.8824,18.3845
72.8824,18.3845
72.8824,18.3845
72.7941,18.2194
72.7941,18.2194
72.7941,18.2194
72.6754,18.0746
72.5306,17.9559
72.5306,17.9559
72.5306,17.9559
72.3655,17.8676
72.1863,17.8133
72.0000,17.7949
71.8137,17.8133
71.6345,17.8676
71.4694,17.9559
71.4694,17.9559
71.3246,18.0746
71.2059,18.2194
71.2059,18.2194
71.1176,18.3845
71.0633,18.5637
71.0449,18.7500
71.0633,18.9363
71.0932,19.0351
71.0877,19.0914
71.0747,19.1089
70.1795,20.0041
70.1268,20.0954
70.0999,20.1959
70.0999,20.1959
70.0995,20.1973
70.0995,20.1973
70.0995,21.7098
70.0841,21.7471
70.0995,21.7902
70.0995,65.1184
70.0778,65.1707
70.0768,65.1717
70.0245,65.1934
69.9722,65.1717
69.9505,65.1194
69.9505,27.8091
69.9505,27.8091
69.9164,27.6818
69.9164,27.6818
69.8505,27.5677
69.7573,27.4745
69.6432,27.4086
69.6432,27.4086
69.5159,27.3745
69.5159,27.3745
59.5159,27.3745
59.3841,27.3745
59.3841,27.3745
59.2568,27.4086
59.2568,27.4086
59.1427,27.4745
59.0495,27.5677
58.9836,27.6818
58.9836,27.6818
58.9495,27.8091
58.9495,51.7045
58.9278,51.7568
58.8755,51.7785
58.8232,51.7568
55.1767,48.1103
55.1550,48.0579
55.1640,48.0225
55.2788,47.8123
55.3763,47.5509
55.3763,47.5509
55.3763,47.5509
55.4356,47.2783
55.4555,47.0000
55.4555,47.0000
55.4356,46.7217
55.4356,46.7217
55.3763,46.4491
55.3763,46.4491
55.3763,46.4491
55.2788,46.1877
55.1451,45.9428
55.1033,45.8869
54.9779,45.7194
54.7806,45.5221
54.5695,45.3641
54.5572,45.3549
54.3123,45.2212
54.0509,45.1237
54.0509,45.1237
54.0509,45.1237
53.9960,45.1118
53.7783,45.0644
53.5000,45.0445
53.5000,45.0445
53.2217,45.0644
52.9491,45.1237
52.9491,45.1237
52.6877,45.2212
52.4428,45.3549
52.2194,45.5221
52.0221,45.7194
51.8549,45.9428
51.7212,46.1877
51.6237,46.4491
51.6237,46.4491
51.5644,46.7217
51.5445,47.0000
51.5445,47.0000
51.5644,47.2783
51.6237,47.5509
51.6237,47.5509
51.7212,47.8123
51.8549,48.0572
51.8947,48.1103
52.0221,48.2806
52.2194,48.4779
52.3869,48.6033
52.4428,48.6451
52.6877,48.7788
52.9491,48.8763
52.9491,48.8763
52.9491,48.8763
53.2217,48.9356
53.2835,48.9400
53.5000,48.9555
53.5000,48.9555
53.5000,48.9555
53.6948,48.9415
53.7783,48.9356
54.0509,48.8763
54.0509,48.8763
54.0509,48.8763
54.3123,48.7788
54.5225,48.6640
54.5788,48.6580
54.6103,48.6767
56.4068,50.4732
56.4285,50.5255
56.4068,50.5778
56.3545,50.5995
51.6973,50.5995
51.5954,50.6268
51.5954,50.6268
51.5041,50.6795
43.6058,58.5778
43.5535,58.5995
42.9686,58.5995
42.9163,58.5778
42.8963,58.5412
42.8873,58.5000
42.8763,58.4491
42.8763,58.4491
42.8763,58.4491
42.7788,58.1877
42.6451,57.9428
42.5223,57.7788
42.4779,57.7194
42.2806,57.5221
42.1689,57.4385
42.0572,57.3549
41.8123,57.2212
41.5509,57.1237
41.5509,57.1237
41.5509,57.1237
41.4890,57.1103
41.2783,57.0644
41.0000,57.0445
41.0000,57.0445
40.7217,57.0644
40.4491,57.1237
40.4491,57.1237
40.1877,57.2212
39.9428,57.3549
39.7194,57.5221
39.5221,57.7194
39.3549,57.9428
39.2212,58.1877
39.1237,58.4491
39.1237,58.4491
39.0644,58.7217
39.0445,59.0000
39.0445,59.0000
34.9505,59.0000
34.9505,50.0000
39.0445,50.0000
39.0644,50.2783
39.1237,50.5509
39.1237,50.5509
39.2212,50.8123
39.3549,51.0572
39.4385,51.1689
39.5221,51.2806
39.7194,51.4779
39.8869,51.6033
39.9428,51.6451
40.1877,51.7788
40.4491,51.8763
40.4491,51.8763
40.4491,51.8763
40.7217,51.9356
40.7835,51.9400
41.0000,51.9555
41.0000,51.9555
41.0000,51.9555
41.1948,51.9415
41.2783,51.9356
41.5509,51.8763
41.5509,51.8763
41.5509,51.8763
41.8123,51.7788
41.8575,51.7541
42.0572,51.6451
42.2806,51.4779
42.4779,51.2806
42.6451,51.0572
42.7788,50.8123
42.7788,50.8123
42.7788,50.8123
42.8763,50.5509
42.8763,50.5509
42.8763,50.5509
42.8963,50.4588
42.9286,50.4122
42.9686,50.4005
46.3027,50.4005
46.3027,50.4005
46.4046,50.3732
46.4959,50.3205
58.0705,38.7459
58.1232,38.6546
58.1505,38.5527
58.1505,38.4473
58.1505,27.1965
58.1722,27.1442
58.3942,26.9222
58.4465,26.9005
64.0527,26.9005
64.0527,26.9005
64.1546,26.8732
64.2459,26.8205
67.8205,23.2459
67.8732,23.1546
67.8732,23.1546
67.9005,23.0527
67.9005,21.7902
67.9159,21.7529
67.9142,21.7480
68.0316,21.7480
68.0481,21.7829
68.0633,21.9363
68.1176,22.1155
68.2059,22.2806
68.2059,22.2806
68.2059,22.2806
68.3246,22.4254
68.4694,22.5441
68.4694,22.5441
68.4694,22.5441
68.6345,22.6324
68.6345,22.6324
68.6345,22.6324
68.8137,22.6867
69.0000,22.7051
69.1863,22.6867
69.3655,22.6324
69.5306,22.5441
69.6754,22.4254
69.7941,22.2806
69.8824,22.1155
69.9367,21.9363
69.9519,21.7829
69.9684,21.7520
69.9519,21.7171
69.9511,21.7098
69.9367,21.5637
69.8824,21.3845
69.8824,21.3845
69.8824,21.3845
69.7941,21.2194
69.7941,21.2194
69.7941,21.2194
69.6754,21.0746
69.5306,20.9559
69.5306,20.9559
69.5306,20.9559
69.3655,20.8676
69.1863,20.8133
69.0000,20.7949
68.8137,20.8133
68.6345,20.8676
68.4694,20.9559
68.4694,20.9559
68.3246,21.0746
68.2059,21.2194
68.2059,21.2194
68.1176,21.3845
68.0633,21.5637
68.0481,21.7171
68.0316,21.7480
67.9142,21.7480
67.9005,21.7098
67.9005,20.4465
67.9222,20.3942
68.6411,19.6753
68.6934,19.6536
68.7149,19.6568
68.8137,19.6867
69.0000,19.7051
69.1863,19.6867
69.3655,19.6324
69.5306,19.5441
69.6754,19.4254
69.7941,19.2806
69.8824,19.1155
69.9367,18.9363
69.9551,18.7500
69.9367,18.5637
69.8824,18.3845
69.8824,18.3845
69.8824,18.3845
69.7941,18.2194
69.7941,18.2194
69.7941,18.2194
69.6754,18.0746
69.5306,17.9559
69.5306,17.9559
69.5306,17.9559
69.3655,17.8676
69.1863,17.8133
69.0000,17.7949
68.8137,17.8133
68.6345,17.8676
68.4694,17.9559
68.4694,17.9559
68.3246,18.0746
68.2059,18.2194
68.2059,18.2194
68.1176,18.3845
68.0633,18.5637
68.0449,18.7500
68.0633,18.9363
68.0932,19.0351
68.0877,19.0914
68.0747,19.1089
67.1795,20.0041
67.1268,20.0954
67.0999,20.1959
67.0999,20.1959
67.0995,20.1973
67.0995,20.1973
67.0995,21.7098
67.0841,21.7471
67.0995,21.7902
67.0995,22.8035
67.0778,22.8558
63.8558,26.0778
63.8035,26.0995
58.3027,26.0995
58.1973,26.0995
58.1463,26.1131
58.0954,26.1268
58.0954,26.1268
58.0497,26.1532
58.0041,26.1795
57.4295,26.7541
57.3768,26.8454
57.3768,26.8454
57.3495,26.9473
57.3495,38.3035
57.3278,38.3558
46.1058,49.5778
46.0535,49.5995
42.9686,49.5995
42.9163,49.5778
42.8963,49.5412
42.8953,49.5364
42.8763,49.4491
42.8763,49.4491
42.8763,49.4491
42.7788,49.1877
42.6451,48.9428
42.5223,48.7788
42.4779,48.7194
42.2806,48.5221
42.1689,48.4385
42.0572,48.3549
41.8123,48.2212
41.5509,48.1237
41.5509,48.1237
41.5509,48.1237
41.4890,48.1103
41.2783,48.0644
41.0000,48.0445
41.0000,48.0445
40.7217,48.0644
40.4491,48.1237
40.4491,48.1237
40.1877,48.2212
39.9428,48.3549
39.7194,48.5221
39.5221,48.7194
39.3549,48.9428
39.2212,49.1877
39.1237,49.4491
39.1237,49.4491
39.0644,49.7217
39.0445,50.0000
39.0445,50.0000
34.9505,50.0000
34.9505,31.0000
38.5445,31.0000
38.5644,31.2783
38.6237,31.5509
38.6237,31.5509
38.7212,31.8123
38.8549,32.0572
38.9385,32.1689
39.0221,32.2806
39.2194,32.4779
39.3869,32.6033
39.4428,32.6451
39.6877,32.7788
39.9491,32.8763
39.9491,32.8763
39.9491,32.8763
40.2217,32.9356
40.2835,32.9400
40.5000,32.9555
40.5000,32.9555
40.5000,32.9555
40.6948,32.9415
40.7783,32.9356
41.0509,32.8763
41.0509,32.8763
41.0509,32.8763
41.3123,32.7788
41.5572,32.6451
41.5572,32.6451
41.5572,32.6451
41.7806,32.4779
41.9779,32.2806
42.1451,32.0572
42.2788,31.8123
42.2788,31.8123
42.2788,31.8123
42.3763,31.5509
42.3763,31.5509
42.3763,31.5509
42.4356,31.2783
42.4555,31.0000
42.4555,31.0000
42.4356,30.7217
42.4356,30.7217
42.3763,30.4491
42.3763,30.4491
42.3763,30.4491
42.2788,30.1877
42.1640,29.9775
42.1580,29.9212
42.1766,29.8897
44.1442,27.9222
44.1965,27.9005
53.7030,27.9005
53.7553,27.9222
53.7770,27.9745
53.7553,28.0268
42.3141,39.4680
42.2618,39.4897
42.2175,39.4749
42.0572,39.3549
41.8123,39.2212
41.5509,39.1237
41.5509,39.1237
41.5509,39.1237
41.4960,39.1118
41.2783,39.0644
41.0000,39.0445
41.0000,39.0445
40.7217,39.0644
40.4491,39.1237
40.4491,39.1237
40.1877,39.2212
39.9428,39.3549
39.7194,39.5221
39.5221,39.7194
39.3549,39.9428
39.2212,40.1877
39.1237,40.4491
39.1237,40.4491
39.0644,40.7217
39.0445,41.0000
39.0445,41.0000
39.0644,41.2783
39.1237,41.5509
39.1237,41.5509
39.2212,41.8123
39.3549,42.0572
39.4385,42.1689
39.5221,42.2806
39.7194,42.4779
39.8869,42.6033
39.9428,42.6451
40.1877,42.7788
40.4491,42.8763
40.4491,42.8763
40.4491,42.8763
40.7217,42.9356
40.7835,42.9400
41.0000,42.9555
41.0000,42.9555
41.0000,42.9555
41.1948,42.9415
41.2783,42.9356
41.5509,42.8763
41.5509,42.8763
41.5509,42.8763
41.8123,42.7788
42.0572,42.6451
42.0572,42.6451
42.0572,42.6451
42.2806,42.4779
42.4779,42.2806
42.6451,42.0572
42.7788,41.8123
42.7788,41.8123
42.7788,41.8123
42.8763,41.5509
42.8763,41.5509
42.8763,41.5509
42.9356,41.2783
42.9555,41.0000
42.9555,41.0000
42.9356,40.7217
42.9356,40.7217
42.8763,40.4491
42.8763,40.4491
42.8763,40.4491
42.7814,40.1947
42.7834,40.1381
42.7984,40.1165
52.9732,29.9417
53.0255,29.9201
53.0778,29.9417
53.0995,29.9941
53.0995,36.0314
53.0778,36.0837
53.0412,36.1037
52.9491,36.1237
52.9491,36.1237
52.6877,36.2212
52.4428,36.3549
52.2194,36.5221
52.0221,36.7194
51.8549,36.9428
51.7212,37.1877
51.6237,37.4491
51.6237,37.4491
51.5644,37.7217
51.5445,38.0000
51.5445,38.0000
51.5644,38.2783
51.6237,38.5509
51.6237,38.5509
51.7212,38.8123
51.8549,39.0572
51.9047,39.1237
52.0221,39.2806
52.2194,39.4779
52.3869,39.6033
52.4428,39.6451
52.6877,39.7788
52.9491,39.8763
52.9491,39.8763
52.9491,39.8763
53.2217,39.9356
53.2835,39.9400
53.5000,39.9555
53.5000,39.9555
53.5000,39.9555
53.6948,39.9415
53.7783,39.9356
54.0509,39.8763
54.0509,39.8763
54.0509,39.8763
54.3123,39.7788
54.4210,39.7194
54.5572,39.6451
54.7806,39.4779
54.9779,39.2806
55.1451,39.0572
55.2788,38.8123
55.2788,38.8123
55.2788,38.8123
55.3763,38.5509
55.3763,38.5509
55.3763,38.5509
55.4356,38.2783
55.4555,38.0000
55.4555,38.0000
55.4356,37.7217
55.4356,37.7217
55.3763,37.4491
55.3763,37.4491
55.3763,37.4491
55.2788,37.1877
55.1451,36.9428
55.1033,36.8869
54.9779,36.7194
54.7806,36.5221
54.6689,36.4385
54.5572,36.3549
54.3123,36.2212
54.0509,36.1237
54.0509,36.1237
54.0509,36.1237
53.9588,36.1037
53.9122,36.0714
53.9005,36.0314
53.9005,29.8936
53.9222,29.8413
59.3942,24.3692
59.4465,24.3476
61.2042,24.3476
61.2042,24.3476
61.3061,24.3203
61.3974,24.2675
61.9927,23.6722
62.0451,23.6505
64.0527,23.6505
64.0527,23.6505
64.1546,23.6232
64.2459,23.5705
64.7459,23.0705
64.7459,23.0705
64.8205,22.9959
64.8588,22.9295
64.8732,22.9046
64.9005,22.8027
64.9005,22.6973
64.9005,21.7902
64.9159,21.7529
64.9142,21.7480
65.0316,21.7480
65.0481,21.7829
65.0633,21.9363
65.1176,22.1155
65.2059,22.2806
65.2059,22.2806
65.2059,22.2806
65.3246,22.4254
65.4694,22.5441
65.4694,22.5441
65.4694,22.5441
65.6345,22.6324
65.6345,22.6324
65.6345,22.6324
65.8137,22.6867
66.0000,22.7051
66.1863,22.6867
66.3655,22.6324
66.5306,22.5441
66.6754,22.4254
66.7941,22.2806
66.8824,22.1155
66.9367,21.9363
66.9519,21.7829
66.9684,21.7520
66.9519,21.7171
66.9511,21.7098
66.9367,21.5637
66.8824,21.3845
66.8824,21.3845
66.8824,21.3845
66.7941,21.2194
66.7941,21.2194
66.7941,21.2194
66.6754,21.0746
66.5306,20.9559
66.5306,20.9559
66.5306,20.9559
66.3655,20.8676
66.1863,20.8133
66.0000,20.7949
65.8137,20.8133
65.6345,20.8676
65.4694,20.9559
65.4694,20.9559
65.3246,21.0746
65.2059,21.2194
65.2059,21.2194
65.1176,21.3845
65.0633,21.5637
65.0481,21.7171
65.0316,21.7480
64.9142,21.7480
64.9005,21.7098
64.9005,20.4465
64.9222,20.3942
65.6411,19.6753
65.6934,19.6536
65.7149,19.6568
65.8137,19.6867
66.0000,19.7051
66.1863,19.6867
66.3655,19.6324
66.5306,19.5441
66.6754,19.4254
66.7941,19.2806
66.8824,19.1155
66.9367,18.9363
66.9551,18.7500
66.9367,18.5637
66.8824,18.3845
66.8824,18.3845
66.8824,18.3845
66.7941,18.2194
66.7941,18.2194
66.7941,18.2194
66.6754,18.0746
66.5306,17.9559
66.5306,17.9559
66.5306,17.9559
66.3655,17.8676
66.1863,17.8133
66.0000,17.7949
65.8137,17.8133
65.6345,17.8676
65.4694,17.9559
65.4694,17.9559
65.3246,18.0746
65.2059,18.2194
65.2059,18.2194
65.1176,18.3845
65.0633,18.5637
65.0449,18.7500
65.0633,18.9363
65.0932,19.0351
65.0877,19.0914
65.0747,19.1089
64.1795,20.0041
64.1268,20.0954
64.0999,20.1959
64.0999,20.1959
64.0995,20.1973
64.0995,20.1973
64.0995,21.7098
64.0841,21.7471
64.0995,21.7902
64.0995,22.5535
64.0778,22.6058
63.8558,22.8278
63.8035,22.8495
63.0402,22.8495
63.0029,22.8341
62.9598,22.8495
61.9745,22.8495
61.9222,22.8278
61.9005,22.7755
61.9005,21.7902
61.9159,21.7529
61.9142,21.7480
62.0316,21.7480
62.0481,21.7829
62.0633,21.9363
62.1176,22.1155
62.2059,22.2806
62.2059,22.2806
62.2059,22.2806
62.3246,22.4254
62.4694,22.5441
62.4694,22.5441
62.4694,22.5441
62.6345,22.6324
62.6345,22.6324
62.6345,22.6324
62.8137,22.6867
62.9671,22.7019
62.9980,22.7184
63.0329,22.7019
63.1863,22.6867
63.3655,22.6324
63.5306,22.5441
63.6754,22.4254
63.7941,22.2806
63.8824,22.1155
63.9367,21.9363
63.9519,21.7829
63.9684,21.7520
63.9519,21.7171
63.9511,21.7098
63.9367,21.5637
63.8824,21.3845
63.8824,21.3845
63.8824,21.3845
63.7941,21.2194
63.7941,21.2194
63.7941,21.2194
63.6754,21.0746
63.5306,20.9559
63.5306,20.9559
63.5306,20.9559
63.3655,20.8676
63.1863,20.8133
63.0000,20.7949
62.8137,20.8133
62.6345,20.8676
62.4694,20.9559
62.4694,20.9559
62.3246,21.0746
62.2059,21.2194
62.2059,21.2194
62.1176,21.3845
62.0633,21.5637
62.0481,21.7171
62.0316,21.7480
61.9142,21.7480
61.9005,21.7098
61.9005,20.4465
61.9222,20.3942
62.6411,19.6753
62.6934,19.6536
62.7149,19.6568
62.8137,19.6867
63.0000,19.7051
63.1863,19.6867
63.3655,19.6324
63.5306,19.5441
63.6754,19.4254
63.7941,19.2806
63.8824,19.1155
63.9367,18.9363
63.9551,18.7500
63.9367,18.5637
63.8824,18.3845
63.8824,18.3845
63.8824,18.3845
63.7941,18.2194
63.7941,18.2194
63.7941,18.2194
63.6754,18.0746
63.5306,17.9559
63.5306,17.9559
63.5306,17.9559
63.3655,17.8676
63.1863,17.8133
63.0000,17.7949
62.8137,17.8133
62.6345,17.8676
62.4694,17.9559
62.4694,17.9559
62.3246,18.0746
62.2059,18.2194
62.2059,18.2194
62.1176,18.3845
62.0633,18.5637
62.0449,18.7500
62.0633,18.9363
62.0932,19.0351
62.0877,19.0914
62.0747,19.1089
61.1795,20.0041
61.1268,20.0954
61.0999,20.1959
61.0999,20.1959
61.0995,20.1973
61.0995,20.1973
61.0995,21.7098
61.0841,21.7471
61.0995,21.7902
61.0995,22.5535
61.0778,22.6058
60.8558,22.8278
60.8035,22.8495
60.0402,22.8495
60.0029,22.8341
59.9598,22.8495
59.1558,22.8495
59.1558,22.8495
59.1513,22.8495
59.0458,22.8495
58.9937,22.8635
58.9375,22.8561
58.9030,22.8111
58.9005,22.7920
58.9005,21.7902
58.9159,21.7529
58.9142,21.7480
59.0316,21.7480
59.0481,21.7829
59.0633,21.9363
59.1176,22.1155
59.2059,22.2806
59.2059,22.2806
59.2059,22.2806
59.3246,22.4254
59.4694,22.5441
59.4694,22.5441
59.4694,22.5441
59.6345,22.6324
59.6345,22.6324
59.6345,22.6324
59.8137,22.6867
59.9671,22.7019
59.9980,22.7184
60.0329,22.7019
60.1863,22.6867
60.3655,22.6324
60.5306,22.5441
60.6754,22.4254
60.7941,22.2806
60.8824,22.1155
60.9367,21.9363
60.9519,21.7829
60.9684,21.7520
60.9519,21.7171
60.9511,21.7098
60.9367,21.5637
60.8824,21.3845
60.8824,21.3845
60.8824,21.3845
60.7941,21.2194
60.7941,21.2194
60.7941,21.2194
60.6754,21.0746
60.5306,20.9559
60.5306,20.9559
60.5306,20.9559
60.3655,20.8676
60.1863,20.8133
60.0000,20.7949
59.8137,20.8133
59.6345,20.8676
59.4694,20.9559
59.4694,20.9559
59.3246,21.0746
59.2059,21.2194
59.2059,21.2194
59.1176,21.3845
59.0633,21.5637
59.0481,21.7171
59.0316,21.7480
58.9142,21.7480
58.9005,21.7098
58.9005,20.4465
58.9222,20.3942
59.6411,19.6753
59.6934,19.6536
59.7149,19.6568
59.8137,19.6867
60.0000,19.7051
60.1863,19.6867
60.3655,19.6324
60.5306,19.5441
60.6754,19.4254
60.7941,19.2806
60.8824,19.1155
60.9367,18.9363
60.9551,18.7500
60.9367,18.5637
60.8824,18.3845
60.8824,18.3845
60.8824,18.3845
60.7941,18.2194
60.7941,18.2194
60.7941,18.2194
60.6754,18.0746
60.5306,17.9559
60.5306,17.9559
60.5306,17.9559
60.3655,17.8676
60.1863,17.8133
60.0000,17.7949
59.8137,17.8133
59.6345,17.8676
59.4694,17.9559
59.4694,17.9559
59.3246,18.0746
59.2059,18.2194
59.2059,18.2194
59.1176,18.3845
59.0633,18.5637
59.0449,18.7500
59.0633,18.9363
59.0932,19.0351
59.0877,19.0914
59.0747,19.1089
58.1795,20.0041
58.1268,20.0954
58.0999,20.1959
58.0999,20.1959
58.0995,20.1973
58.0995,20.1973
58.0995,21.7098
58.0841,21.7471
58.0995,21.7902
58.0995,22.8035
58.0778,22.8558
53.8558,27.0778
53.8035,27.0995
43.9473,27.0995
43.8454,27.1268
43.8454,27.1268
43.7973,27.1546
43.7541,27.1795
41.6103,29.3233
41.5579,29.3450
41.5225,29.3360
41.3123,29.2212
41.3123,29.2212
41.0509,29.1237
41.0509,29.1237
41.0509,29.1237
40.9960,29.1118
40.7783,29.0644
40.5000,29.0445
40.5000,29.0445
40.2217,29.0644
39.9491,29.1237
39.9491,29.1237
39.6877,29.2212
39.4428,29.3549
39.2194,29.5221
39.0221,29.7194
38.8549,29.9428
38.7212,30.1877
38.6237,30.4491
38.6237,30.4491
38.5644,30.7217
38.5445,31.0000
38.5445,31.0000
34.9505,31.0000
34.9505,21.5841
34.9505,21.5841
34.9281,21.5005
34.9164,21.4568
34.8505,21.3427
34.7573,21.2495
34.7051,21.2194
34.6432,21.1836
34.6432,21.1836
34.5159,21.1495
34.5159,21.1495
21.0659,21.1495
20.9341,21.1495
20.9341,21.1495
20.8068,21.1836
20.8068,21.1836
20.6927,21.2495
20.5995,21.3427
20.5336,21.4568
20.5336,21.4568
20.4995,21.5841
20.4995,65.4409
18.4513,65.4409
18.4356,65.2217
18.4247,65.1717
18.3763,64.9491
18.3763,64.9491
18.3763,64.9491
18.2788,64.6877
18.2788,64.6877
18.1640,64.4775
18.1580,64.4212
18.1766,64.3897
19.6205,62.9459
19.6732,62.8546
19.7005,62.7527
19.7005,62.6473
19.7005,21.9436
19.7222,21.8913
20.6413,20.9722
20.6936,20.9505
43.4064,20.9505
43.4587,20.9722
47.0799,24.5933
47.0799,24.5933
47.0825,24.5959
47.1570,24.6705
47.2484,24.7232
47.2484,24.7232
47.2484,24.7232
47.2993,24.7369
47.3502,24.7505
47.3502,24.7505
47.3502,24.7505
47.4602,24.7505
47.4602,24.7505
54.2027,24.7505
54.2027,24.7505
54.3046,24.7232
54.3959,24.6705
55.8205,23.2459
55.8732,23.1546
55.8732,23.1546
55.9005,23.0527
55.9005,21.7902
55.9159,21.7529
55.9142,21.7480
56.0316,21.7480
56.0481,21.7829
56.0633,21.9363
56.1176,22.1155
56.2059,22.2806
56.2059,22.2806
56.2059,22.2806
56.3246,22.4254
56.4694,22.5441
56.4694,22.5441
56.4694,22.5441
56.6345,22.6324
56.6345,22.6324
56.6345,22.6324
56.8137,22.6867
57.0000,22.7051
57.1863,22.6867
57.3655,22.6324
57.5306,22.5441
57.6754,22.4254
57.7941,22.2806
57.8824,22.1155
57.9367,21.9363
57.9519,21.7829
57.9684,21.7520
57.9519,21.7171
57.9511,21.7098
57.9367,21.5637
57.8824,21.3845
57.8824,21.3845
57.8824,21.3845
57.7941,21.2194
57.7941,21.2194
57.7941,21.2194
57.6754,21.0746
57.5306,20.9559
57.5306,20.9559
57.5306,20.9559
57.3655,20.8676
57.1863,20.8133
57.0000,20.7949
56.8137,20.8133
56.6345,20.8676
56.4694,20.9559
56.4694,20.9559
56.3246,21.0746
56.2059,21.2194
56.2059,21.2194
56.1176,21.3845
56.0633,21.5637
56.0481,21.7171
56.0316,21.7480
55.9142,21.7480
55.9005,21.7098
55.9005,20.4465
55.9222,20.3942
56.6411,19.6753
56.6934,19.6536
56.7149,19.6568
56.8137,19.6867
57.0000,19.7051
57.1863,19.6867
57.3655,19.6324
57.5306,19.5441
57.6754,19.4254
57.7941,19.2806
57.8824,19.1155
57.9367,18.9363
57.9551,18.7500
57.9367,18.5637
57.8824,18.3845
57.8824,18.3845
57.8824,18.3845
57.7941,18.2194
57.7941,18.2194
57.7941,18.2194
57.6754,18.0746
57.5306,17.9559
57.5306,17.9559
57.5306,17.9559
57.3655,17.8676
57.1863,17.8133
57.0000,17.7949
56.8137,17.8133
56.6345,17.8676
56.4694,17.9559
56.4694,17.9559
56.3246,18.0746
56.2059,18.2194
56.2059,18.2194
56.1176,18.3845
56.0633,18.5637
56.0449,18.7500
56.0633,18.9363
56.0932,19.0351
56.0877,19.0914
56.0747,19.1089
55.1795,20.0041
55.1268,20.0954
55.0999,20.1959
55.0999,20.1959
55.0995,20.1973
55.0995,20.1973
55.0995,21.7098
55.0841,21.7471
55.0995,21.7902
55.0995,22.8035
55.0778,22.8558
54.0058,23.9278
53.9535,23.9495
52.2955,23.9495
52.2432,23.9278
52.2215,23.8755
52.2432,23.8232
52.3526,23.7138
52.8205,23.2459
52.8732,23.1546
52.9005,23.0527
52.9005,22.9473
52.9005,21.7902
52.9159,21.7529
52.9142,21.7480
53.0316,21.7480
53.0481,21.7829
53.0633,21.9363
53.1176,22.1155
53.2059,22.2806
53.2059,22.2806
53.2059,22.2806
53.3246,22.4254
53.4694,22.5441
53.4694,22.5441
53.4694,22.5441
53.6345,22.6324
53.6345,22.6324
53.6345,22.6324
53.8137,22.6867
54.0000,22.7051
54.1863,22.6867
54.3655,22.6324
54.5306,22.5441
54.6754,22.4254
54.7941,22.2806
54.8824,22.1155
54.9367,21.9363
54.9519,21.7829
54.9684,21.7520
54.9519,21.7171
54.9511,21.7098
54.9367,21.5637
54.8824,21.3845
54.8824,21.3845
54.8824,21.3845
54.7941,21.2194
54.7941,21.2194
54.7941,21.2194
54.6754,21.0746
54.5306,20.9559
54.5306,20.9559
54.5306,20.9559
54.3655,20.8676
54.1863,20.8133
54.0000,20.7949
53.8137,20.8133
53.6345,20.8676
53.4694,20.9559
53.4694,20.9559
53.3246,21.0746
53.2059,21.2194
53.2059,21.2194
53.1176,21.3845
53.0633,21.5637
53.0481,21.7171
53.0316,21.7480
52.9142,21.7480
52.9005,21.7098
52.9005,20.4465
52.9222,20.3942
53.6411,19.6753
53.6934,19.6536
53.7149,19.6568
53.8137,19.6867
54.0000,19.7051
54.1863,19.6867
54.3655,19.6324
54.5306,19.5441
54.6754,19.4254
54.7941,19.2806
54.8824,19.1155
54.9367,18.9363
54.9551,18.7500
54.9367,18.5637
54.8824,18.3845
54.8824,18.3845
54.8824,18.3845
54.7941,18.2194
54.7941,18.2194
54.7941,18.2194
54.6754,18.0746
54.5306,17.9559
54.5306,17.9559
54.5306,17.9559
54.3655,17.8676
54.1863,17.8133
54.0000,17.7949
53.8137,17.8133
53.6345,17.8676
53.4694,17.9559
53.4694,17.9559
53.3246,18.0746
53.2059,18.2194
53.2059,18.2194
53.1176,18.3845
53.0633,18.5637
53.0449,18.7500
53.0633,18.9363
53.0932,19.0351
53.0877,19.0914
53.0747,19.1089
52.1795,20.0041
52.1268,20.0954
52.0999,20.1959
52.0999,20.1959
52.0995,20.1973
52.0995,20.1973
52.0995,21.7098
52.0841,21.7471
52.0995,21.7902
52.0995,22.8035
52.0778,22.8558
51.6058,23.3278
51.5535,23.3495
47.8480,23.3495
47.7957,23.3278
46.2179,21.7500
47.0449,21.7500
47.0633,21.9363
47.1176,22.1155
47.2059,22.2806
47.2059,22.2806
47.2059,22.2806
47.3246,22.4254
47.4694,22.5441
47.4694,22.5441
47.4694,22.5441
47.6345,22.6324
47.6345,22.6324
47.6345,22.6324
47.8137,22.6867
48.0000,22.7051
48.1863,22.6867
48.3655,22.6324
48.5306,22.5441
48.6754,22.4254
48.7941,22.2806
48.8824,22.1155
48.9367,21.9363
48.9551,21.7500
50.0449,21.7500
50.0633,21.9363
50.1176,22.1155
50.2059,22.2806
50.2059,22.2806
50.2059,22.2806
50.3246,22.4254
50.4694,22.5441
50.4694,22.5441
50.4694,22.5441
50.6345,22.6324
50.6345,22.6324
50.6345,22.6324
50.8137,22.6867
51.0000,22.7051
51.1863,22.6867
51.3655,22.6324
51.5306,22.5441
51.6754,22.4254
51.7941,22.2806
51.8824,22.1155
51.9367,21.9363
51.9519,21.7829
51.9684,21.7520
51.9519,21.7171
51.9511,21.7098
51.9367,21.5637
51.8824,21.3845
51.8824,21.3845
51.8824,21.3845
51.7941,21.2194
51.7941,21.2194
51.7941,21.2194
51.6754,21.0746
51.5306,20.9559
51.5306,20.9559
51.5306,20.9559
51.3655,20.8676
51.1863,20.8133
51.0000,20.7949
50.8137,20.8133
50.6345,20.8676
50.4694,20.9559
50.4694,20.9559
50.3246,21.0746
50.2059,21.2194
50.2059,21.2194
50.1176,21.3845
50.0633,21.5637
50.0449,21.7500
48.9551,21.7500
48.9367,21.5637
48.8824,21.3845
48.8824,21.3845
48.8824,21.3845
48.7941,21.2194
48.7941,21.2194
48.7941,21.2194
48.6754,21.0746
48.5306,20.9559
48.5306,20.9559
48.5306,20.9559
48.3655,20.8676
48.1863,20.8133
48.1539,20.8101
48.0329,20.7981
48.0020,20.7816
47.9671,20.7981
47.8790,20.8068
47.8137,20.8133
47.6345,20.8676
47.4694,20.9559
47.4694,20.9559
47.3246,21.0746
47.2059,21.2194
47.2059,21.2194
47.1176,21.3845
47.0633,21.5637
47.0449,21.7500
46.2179,21.7500
45.2447,20.7768
45.2230,20.7245
45.2447,20.6722
45.2970,20.6505
47.9598,20.6505
47.9971,20.6659
48.0402,20.6505
49.5527,20.6505
49.5527,20.6505
49.6546,20.6232
49.7459,20.5705
50.6411,19.6753
50.6934,19.6536
50.7149,19.6568
50.8137,19.6867
51.0000,19.7051
51.1863,19.6867
51.3655,19.6324
51.5306,19.5441
51.6754,19.4254
51.7941,19.2806
51.8824,19.1155
51.9367,18.9363
51.9551,18.7500
51.9367,18.5637
51.8824,18.3845
51.8824,18.3845
51.8824,18.3845
51.7941,18.2194
51.7941,18.2194
51.7941,18.2194
51.6754,18.0746
51.5306,17.9559
51.5306,17.9559
51.5306,17.9559
51.3655,17.8676
51.1863,17.8133
51.0000,17.7949
50.8137,17.8133
50.6345,17.8676
50.4694,17.9559
50.4694,17.9559
50.3246,18.0746
50.2059,18.2194
50.2059,18.2194
50.1176,18.3845
50.0633,18.5637
50.0449,18.7500
50.0633,18.9363
50.0932,19.0351
50.0877,19.0914
50.0747,19.1089
49.3558,19.8278
49.3035,19.8495
45.1965,19.8495
45.1442,19.8278
44.5932,19.2768
44.5715,19.2245
44.5932,19.1722
44.6455,19.1505
46.9755,19.1505
47.0278,19.1722
47.0495,19.2245
47.0495,19.3043
47.0524,19.3347
47.0524,19.3347
47.0972,19.4629
47.0972,19.4629
47.1778,19.5721
47.1779,19.5722
47.2871,19.6528
47.2871,19.6528
47.4153,19.6976
47.4153,19.6976
47.4153,19.6976
47.4457,19.7005
48.5543,19.7005
48.5847,19.6976
48.6158,19.6867
48.7129,19.6528
48.7129,19.6528
48.7717,19.6094
48.8222,19.5722
48.9028,19.4629
48.9159,19.4254
48.9476,19.3347
48.9476,19.3347
48.9476,19.3347
48.9505,19.3043
48.9505,18.1957
48.9476,18.1653
48.9476,18.1653
48.9028,18.0371
48.9028,18.0371
48.8222,17.9279
48.8221,17.9278
48.7129,17.8472
48.7129,17.8472
48.5847,17.8024
48.5847,17.8024
48.5779,17.8017
48.5543,17.7995
48.5543,17.7995
47.4457,17.7995
47.4457,17.7995
47.4153,17.8024
47.4153,17.8024
47.2871,17.8472
47.2871,17.8472
47.1779,17.9278
47.1778,17.9279
47.0972,18.0371
47.0972,18.0371
47.0524,18.1653
47.0524,18.1653
47.0524,18.1653
47.0495,18.1957
47.0495,18.1957
47.0495,18.1957
47.0495,18.2755
47.0278,18.3278
46.9755,18.3495
19.8073,18.3495
19.8073,18.3495
19.8027,18.3495
19.6973,18.3495
19.6973,18.3495
19.5954,18.3768
19.5954,18.3768
19.5041,18.4295
19.4295,18.5041
17.1795,20.7541
17.1268,20.8454
17.1268,20.8454
17.0995,20.9473
17.0992,20.9498
17.0985,20.9509
17.0982,20.9520
17.0980,20.9519
17.0708,20.9989
17.0545,21.0032
17.0807,21.0158
17.0995,21.0651
17.0995,35.8035
17.0778,35.8558
16.6103,36.3233
16.5579,36.3450
16.5225,36.3360
16.3123,36.2212
16.3123,36.2212
16.0509,36.1237
16.0509,36.1237
16.0509,36.1237
15.9588,36.1037
15.7783,36.0644
15.5000,36.0445
15.5000,36.0445
15.2217,36.0644
14.9491,36.1237
14.9491,36.1237
14.6877,36.2212
14.4428,36.3549
14.2194,36.5221
14.0221,36.7194
13.8549,36.9428
13.7212,37.1877
13.6237,37.4491
13.6237,37.4491
13.5644,37.7217
13.5445,38.0000
13.5445,38.0000
13.5644,38.2783
13.6237,38.5509
13.6237,38.5509
13.7212,38.8123
13.8549,39.0572
13.9047,39.1237
14.0221,39.2806
14.2194,39.4779
14.3869,39.6033
14.4428,39.6451
14.6877,39.7788
14.9491,39.8763
14.9491,39.8763
14.9491,39.8763
15.2217,39.9356
15.2835,39.9400
15.5000,39.9555
15.5000,39.9555
15.5000,39.9555
15.6948,39.9415
15.7783,39.9356
16.0509,39.8763
16.0509,39.8763
16.0509,39.8763
16.3123,39.7788
16.4210,39.7194
16.5572,39.6451
16.7806,39.4779
16.9779,39.2806
17.1451,39.0572
17.2788,38.8123
17.2788,38.8123
17.2788,38.8123
17.3763,38.5509
17.3763,38.5509
17.3763,38.5509
17.4356,38.2783
17.4555,38.0000
17.4555,38.0000
17.4356,37.7217
17.4356,37.7217
17.3763,37.4491
17.3763,37.4491
17.3763,37.4491
17.2788,37.1877
17.1640,36.9775
17.1580,36.9212
17.1766,36.8897
17.5732,36.4932
17.6255,36.4715
17.6778,36.4932
17.6995,36.5455
17.6995,44.2035
17.6778,44.2558
16.6103,45.3233
16.5579,45.3450
16.5225,45.3360
16.3123,45.2212
16.3123,45.2212
16.0509,45.1237
16.0509,45.1237
16.0509,45.1237
15.9960,45.1118
15.7783,45.0644
15.5000,45.0445
15.5000,45.0445
15.2217,45.0644
14.9491,45.1237
14.9491,45.1237
14.6877,45.2212
14.4428,45.3549
14.2194,45.5221
14.0221,45.7194
13.8549,45.9428
13.7212,46.1877
13.6237,46.4491
13.6237,46.4491
13.5644,46.7217
13.5445,47.0000
13.5445,47.0000
13.5644,47.2783
13.6237,47.5509
13.6237,47.5509
13.7212,47.8123
13.8549,48.0572
13.8947,48.1103
14.0221,48.2806
14.2194,48.4779
14.3869,48.6033
14.4428,48.6451
14.6877,48.7788
14.9491,48.8763
14.9491,48.8763
14.9491,48.8763
15.2217,48.9356
15.2835,48.9400
15.5000,48.9555
15.5000,48.9555
15.5000,48.9555
15.6948,48.9415
15.7783,48.9356
16.0509,48.8763
16.0509,48.8763
16.0509,48.8763
16.3123,48.7788
16.4210,48.7194
16.5572,48.6451
16.7806,48.4779
16.9779,48.2806
17.1451,48.0572
17.2788,47.8123
17.2788,47.8123
17.2788,47.8123
17.3763,47.5509
17.3763,47.5509
17.3763,47.5509
17.4356,47.2783
17.4555,47.0000
17.4555,47.0000
17.4356,46.7217
17.4356,46.7217
17.3763,46.4491
17.3763,46.4491
17.3763,46.4491
17.2788,46.1877
17.1640,45.9775
17.1580,45.9212
17.1766,45.8897
18.1732,44.8932
18.2255,44.8715
18.2778,44.8932
18.2995,44.9455
18.2995,52.6035
18.2778,52.6558
16.6103,54.3233
16.5579,54.3450
16.5225,54.3360
16.3123,54.2212
16.3123,54.2212
16.0509,54.1237
16.0509,54.1237
16.0509,54.1237
15.9960,54.1118
15.7783,54.0644
15.5000,54.0445
15.5000,54.0445
15.2217,54.0644
14.9491,54.1237
14.9491,54.1237
14.6877,54.2212
14.4428,54.3549
14.2194,54.5221
14.0221,54.7194
13.8549,54.9428
13.7212,55.1877
13.6237,55.4491
13.6237,55.4491
13.5644,55.7217
13.5445,56.0000
13.5445,56.0000
10.0005,56.0000
10.0005,21.0000
10.5450,21.0000
10.5651,21.3589
10.5651,21.3589
10.6253,21.7132
10.7248,22.0586
10.8624,22.3906
10.8624,22.3906
11.0362,22.7052
11.0362,22.7052
11.2442,22.9983
11.3502,23.1169
12.4855,21.9817
12.5296,22.0423
12.7077,22.2204
12.7683,22.2645
11.6331,23.3998
11.7517,23.5058
12.0448,23.7138
12.0448,23.7138
12.3594,23.8876
12.3594,23.8876
12.6914,24.0252
13.0368,24.1247
13.0368,24.1247
13.3911,24.1849
13.3911,24.1849
13.7500,24.2050
14.1089,24.1849
14.1089,24.1849
14.4632,24.1247
14.8086,24.0252
15.1406,23.8876
15.1406,23.8876
15.4552,23.7138
15.4552,23.7138
15.7483,23.5058
15.8669,23.3998
15.8669,23.3998
14.7317,22.2645
14.7923,22.2204
14.9704,22.0423
15.0145,21.9817
16.1498,23.1169
16.1498,23.1169
16.2558,22.9983
16.4638,22.7052
16.4638,22.7052
16.6376,22.3906
16.6376,22.3906
16.7752,22.0586
16.8747,21.7132
16.9349,21.3589
16.9349,21.3589
16.9516,21.0610
16.9762,21.0100
16.9972,21.0026
16.9671,20.9852
16.9519,20.9443
16.9349,20.6411
16.9349,20.6411
16.8747,20.2868
16.7752,19.9414
16.6376,19.6094
16.6376,19.6094
16.4638,19.2948
16.4638,19.2948
16.2558,19.0017
16.1498,18.8831
16.1498,18.8831
15.0145,20.0183
14.9704,19.9577
14.7923,19.7796
14.7317,19.7355
15.8669,18.6002
15.7483,18.4942
15.4552,18.2862
15.4552,18.2862
15.1406,18.1124
15.1406,18.1124
14.8086,17.9748
14.4632,17.8753
14.4632,17.8753
14.1089,17.8151
14.1089,17.8151
13.7500,17.7950
13.3911,17.8151
13.3911,17.8151
13.0368,17.8753
12.6914,17.9748
12.3594,18.1124
12.3594,18.1124
12.0448,18.2862
12.0448,18.2862
11.7517,18.4942
11.6331,18.6002
12.7683,19.7355
12.7077,19.7796
12.5296,19.9577
12.4855,20.0183
11.3502,18.8831
11.2442,19.0017
11.0362,19.2948
11.0362,19.2948
10.8624,19.6094
10.8624,19.6094
10.7248,19.9414
10.6253,20.2868
10.5651,20.6411
10.5651,20.6411
10.5450,21.0000
10.0005,21.0000
10.0005,16.9376
10.0222,16.8853
10.0745,16.8636
124.9255,16.8636
Z" /> 
</g>
<g style="fill:#FFFFFF; fill-opacity:1.0000; stroke:none;">
<circle cx="79.0000" cy="50.0000" r="1.2650" /> 
</g>
<g style="fill:#FFFFFF; fill-opacity:1.0000; stroke:none;">
<circle cx="79.0000" cy="58.5000" r="1.2650" /> 
</g>
<g style="fill:#FFFFFF; fill-opacity:1.0000; stroke:none;">
<circle cx="44.0000" cy="66.0000" r="1.6000" /> 
</g>
<g style="fill:#FFFFFF; fill-opacity:1.0000; stroke:none;">
<circle cx="116.0000" cy="31.0000" r="1.2650" /> 
</g>
<g style="fill:#FFFFFF; fill-opacity:1.0000; stroke:none;">
<circle cx="117.0000" cy="41.0000" r="1.2650" /> 
</g>
<g style="fill:#FFFFFF; fill-opacity:1.0000; stroke:none;">
<circle cx="117.0000" cy="50.0000" r="1.2650" /> 
</g>
<g style="fill:#FFFFFF; fill-opacity:1.0000; stroke:none;">
<circle cx="117.0000" cy="59.0000" r="1.2650" /> 
</g>
<g style="fill:#FFFFFF; fill-opacity:1.0000; stroke:none;">
<circle cx="91.5000" cy="38.0000" r="1.2650" /> 
</g>
<g style="fill:#FFFFFF; fill-opacity:1.0000; stroke:none;">
<circle cx="78.5000" cy="31.0000" r="1.2650" /> 
</g>
<g style="fill:#FFFFFF; fill-opacity:1.0000; stroke:none;">
<circle cx="91.5000" cy="47.0000" r="1.2650" /> 
</g>
<g style="fill:#FFFFFF; fill-opacity:1.0000; stroke:none;">
<circle cx="79.0000" cy="41.0000" r="1.2650" /> 
</g>
<g style="fill:#FFFFFF; fill-opacity:1.0000; stroke:none;">
<circle cx="91.5000" cy="56.0000" r="1.2650" /> 
</g>
<g style="fill:#FFFFFF; fill-opacity:1.0000; stroke:none;">
<circle cx="92.5000" cy="65.5000" r="1.2650" /> 
</g>
<g style="fill:#FFFFFF; fill-opacity:1.0000; stroke:none;">
<circle cx="54.5000" cy="65.5000" r="1.2650" /> 
</g>
<g style="fill:#FFFFFF; fill-opacity:1.0000; stroke:none;">
<circle cx="53.5000" cy="56.0000" r="1.2650" /> 
</g>
<g style="fill:#FFFFFF; fill-opacity:1.0000; stroke:none;">
<circle cx="41.0000" cy="59.0000" r="1.2650" /> 
</g>
<g style="fill:#FFFFFF; fill-opacity:1.0000; stroke:none;">
<circle cx="53.5000" cy="47.0000" r="1.2650" /> 
</g>
<g style="fill:#FFFFFF; fill-opacity:1.0000; stroke:none;">
<circle cx="41.0000" cy="50.0000" r="1.2650" /> 
</g>
<g style="fill:#FFFFFF; fill-opacity:1.0000; stroke:none;">
<circle cx="53.5000" cy="38.0000" r="1.2650" /> 
</g>
<g style="fill:#FFFFFF; fill-opacity:1.0000; stroke:none;">
<circle cx="41.0000" cy="41.0000" r="1.2650" /> 
</g>
<g style="fill:#FFFFFF; fill-opacity:1.0000; stroke:none;">
<circle cx="40.5000" cy="31.0000" r="1.2650" /> 
</g>
<g style="fill:#FFFFFF; fill-opacity:1.0000; stroke:none;">
<circle cx="16.5000" cy="65.5000" r="1.2650" /> 
</g>
<g style="fill:#FFFFFF; fill-opacity:1.0000; stroke:none;">
<circle cx="15.5000" cy="56.0000" r="1.2650" /> 
</g>
<g style="fill:#FFFFFF; fill-opacity:1.0000; stroke:none;">
<circle cx="15.5000" cy="47.0000" r="1.2650" /> 
</g>
<g style="fill:#FFFFFF; fill-opacity:1.0000; stroke:none;">
<circle cx="15.5000" cy="38.0000" r="1.2650" /> 
</g>
<g style="fill:#FFFFFF; fill-opacity:1.0000; stroke:none;">
<circle cx="121.2500" cy="66.0000" r="1.6000" /> 
</g>
<g style="fill:#FFFFFF; fill-opacity:1.0000; stroke:none;">
<circle cx="13.7500" cy="21.0000" r="1.6000" /> 
</g>
<g style="fill:#FFFFFF; fill-opacity:1.0000; stroke:none;">
<circle cx="121.2500" cy="21.0000" r="1.6000" /> 
</g>
<g style="fill:#FFFFFF; fill-opacity:1.0000; stroke:none;">
<circle cx="50.1600" cy="14.4300" r="1.5000" /> 
</g>
<g style="fill:#FFFFFF; fill-opacity:1.0000; stroke:none;">
<circle cx="78.8600" cy="14.4300" r="1.5000" /> 
</g>
<g style="fill:#FFFFFF; fill-opacity:1.0000; stroke:none;">
<circle cx="48.0000" cy="18.7500" r="0.5100" /> 
</g>
<g style="fill:#FFFFFF; fill-opacity:1.0000; stroke:none;">
<circle cx="51.0000" cy="18.7500" r="0.5100" /> 
</g>
<g style="fill:#FFFFFF; fill-opacity:1.0000; stroke:none;">
<circle cx="54.0000" cy="18.7500" r="0.5100" /> 
</g>
<g style="fill:#FFFFFF; fill-opacity:1.0000; stroke:none;">
<circle cx="57.0000" cy="18.7500" r="0.5100" /> 
</g>
<g style="fill:#FFFFFF; fill-opacity:1.0000; stroke:none;">
<circle cx="60.0000" cy="18.7500" r="0.5100" /> 
</g>
<g style="fill:#FFFFFF; fill-opacity:1.0000; stroke:none;">
<circle cx="63.0000" cy="18.7500" r="0.5100" /> 
</g>
<g style="fill:#FFFFFF; fill-opacity:1.0000; stroke:none;">
<circle cx="66.0000" cy="18.7500" r="0.5100" /> 
</g>
<g style="fill:#FFFFFF; fill-opacity:1.0000; stroke:none;">
<circle cx="69.0000" cy="18.7500" r="0.5100" /> 
</g>
<g style="fill:#FFFFFF; fill-opacity:1.0000; stroke:none;">
<circle cx="72.0000" cy="18.7500" r="0.5100" /> 
</g>
<g style="fill:#FFFFFF; fill-opacity:1.0000; stroke:none;">
<circle cx="75.0000" cy="18.7500" r="0.5100" /> 
</g>
<g style="fill:#FFFFFF; fill-opacity:1.0000; stroke:none;">
<circle cx="78.0000" cy="18.7500" r="0.5100" /> 
</g>
<g style="fill:#FFFFFF; fill-opacity:1.0000; stroke:none;">
<circle cx="81.0000" cy="18.7500" r="0.5100" /> 
</g>
<g style="fill:#FFFFFF; fill-opacity:1.0000; stroke:none;">
<circle cx="48.0000" cy="21.7500" r="0.5100" /> 
</g>
<g style="fill:#FFFFFF; fill-opacity:1.0000; stroke:none;">
<circle cx="51.0000" cy="21.7500" r="0.5100" /> 
</g>
<g style="fill:#FFFFFF; fill-opacity:1.0000; stroke:none;">
<circle cx="54.0000" cy="21.7500" r="0.5100" /> 
</g>
<g style="fill:#FFFFFF; fill-opacity:1.0000; stroke:none;">
<circle cx="57.0000" cy="21.7500" r="0.5100" /> 
</g>
<g style="fill:#FFFFFF; fill-opacity:1.0000; stroke:none;">
<circle cx="60.0000" cy="21.7500" r="0.5100" /> 
</g>
<g style="fill:#FFFFFF; fill-opacity:1.0000; stroke:none;">
<circle cx="63.0000" cy="21.7500" r="0.5100" /> 
</g>
<g style="fill:#FFFFFF; fill-opacity:1.0000; stroke:none;">
<circle cx="66.0000" cy="21.7500" r="0.5100" /> 
</g>
<g style="fill:#FFFFFF; fill-opacity:1.0000; stroke:none;">
<circle cx="69.0000" cy="21.7500" r="0.5100" /> 
</g>
<g style="fill:#FFFFFF; fill-opacity:1.0000; stroke:none;">
<circle cx="72.0000" cy="21.7500" r="0.5100" /> 
</g>
<g style="fill:#FFFFFF; fill-opacity:1.0000; stroke:none;">
<circle cx="75.0000" cy="21.7500" r="0.5100" /> 
</g>
<g style="fill:#FFFFFF; fill-opacity:1.0000; stroke:none;">
<circle cx="78.0000" cy="21.7500" r="0.5100" /> 
</g>
<g style="fill:#FFFFFF; fill-opacity:1.0000; stroke:none;">
<circle cx="81.0000" cy="21.7500" r="0.5100" /> 
<path style="fill:none; 
stroke:#D0D2CD; stroke-width:0.0500; stroke-opacity:1; 
stroke-linecap:round; stroke-linejoin:round;fill:none"
d="M 9.5000,16.3631
125.5000,16.3631
125.5000,70.3631
9.5000,70.3631
Z" /> 
<path style="fill:none; 
stroke:#D0D2CD; stroke-width:0.0500; stroke-opacity:1; 
stroke-linecap:round; stroke-linejoin:round;fill:none"
d="M 21.0000,21.6500
34.4500,21.6500
34.4500,65.3750
21.0000,65.3750
Z" /> 
<path style="fill:none; 
stroke:#D0D2CD; stroke-width:0.0500; stroke-opacity:1; 
stroke-linecap:round; stroke-linejoin:round;fill:none"
d="M 59.4500,27.8750
69.4500,27.8750
69.4500,65.3750
59.4500,65.3750
Z" /> 
<path style="fill:none; 
stroke:#D0D2CD; stroke-width:0.0500; stroke-opacity:1; 
stroke-linecap:round; stroke-linejoin:round;fill:none"
d="M 97.0000,21.0000
107.0000,21.0000
107.0000,65.3750
97.0000,65.3750
Z" /> 
</g> 
</svg>
