<?xml version="1.0" standalone="no"?>
 <!DOCTYPE svg PUBLIC "-//W3C//DTD SVG 1.1//EN" 
 "http://www.w3.org/Graphics/SVG/1.1/DTD/svg11.dtd"> 
<svg
  xmlns:svg="http://www.w3.org/2000/svg"
  xmlns="http://www.w3.org/2000/svg"
  xmlns:xlink="http://www.w3.org/1999/xlink"
  version="1.1"
  width="135.9916mm" height="75.9968mm" viewBox="0.0000 0.0000 135.9916 75.9968">
<title>SVG Image created as LowerPOGO-B_Cu.svg date 2024/09/30 14:26:17 </title>
  <desc>Image generated by PCBNEW </desc>
<g style="fill:#000000; fill-opacity:1.0000;stroke:#000000; stroke-opacity:1.0000;
stroke-linecap:round; stroke-linejoin:round;"
 transform="translate(0 0) scale(1 1)">
</g>
<g style="fill:none; 
stroke:#D0D2CD; stroke-width:0.0500; stroke-opacity:1; 
stroke-linecap:round; stroke-linejoin:round;">
<path d="M92.5000 16.2500
L125.5000 16.2500
" />
<path style="fill:none; 
stroke:#D0D2CD; stroke-width:0.0500; stroke-opacity:1; 
stroke-linecap:round; stroke-linejoin:round;fill:none"
d="M 21.7500,26.0000
35.2500,26.0000
35.2500,64.0000
21.7500,64.0000
Z" /> 
<path d="M125.5000 70.3631
L9.5000 70.3631
" />
<path d="M42.5000 3.2500
L92.5000 3.2500
" />
<path d="M92.5000 3.2500
L92.5000 16.2500
" />
<path style="fill:none; 
stroke:#D0D2CD; stroke-width:0.0500; stroke-opacity:1; 
stroke-linecap:round; stroke-linejoin:round;fill:none"
d="M 96.7500,26.0000
110.2500,26.0000
110.2500,64.0000
96.7500,64.0000
Z" /> 
<path d="M42.5000 16.2500
L42.5000 3.2500
" />
<path d="M9.5000 16.2500
L42.5000 16.2500
" />
<path d="M125.5000 16.2500
L125.5000 70.3631
" />
<path d="M9.5000 70.3631
L9.5000 16.2500
" />
<path style="fill:none; 
stroke:#D0D2CD; stroke-width:0.0500; stroke-opacity:1; 
stroke-linecap:round; stroke-linejoin:round;fill:none"
d="M 59.2500,26.0000
72.7500,26.0000
72.7500,64.0000
59.2500,64.0000
Z" /> 
</g>
<g style="fill:#D0D2CD; fill-opacity:1.0000; stroke:none;">
<circle cx="55.7500" cy="38.0000" r="1.2450" /> 
</g>
<g style="fill:#D0D2CD; fill-opacity:1.0000; stroke:none;">
<circle cx="44.7500" cy="50.0000" r="1.2450" /> 
</g>
<g style="fill:#D0D2CD; fill-opacity:1.0000; stroke:none;">
<circle cx="44.7500" cy="59.0000" r="1.2450" /> 
</g>
<g style="fill:#D0D2CD; fill-opacity:1.0000; stroke:none;">
<circle cx="94.5000" cy="65.5000" r="1.2450" /> 
</g>
<g style="fill:#D0D2CD; fill-opacity:1.0000; stroke:none;">
<circle cx="121.2500" cy="66.0000" r="1.6000" /> 
</g>
<g style="fill:#D0D2CD; fill-opacity:1.0000; stroke:none;">
<circle cx="120.0000" cy="50.0000" r="1.2450" /> 
</g>
<g style="fill:#D0D2CD; fill-opacity:1.0000; stroke:none;">
<circle cx="13.7500" cy="21.0000" r="1.6000" /> 
</g>
<g style="fill:#D0D2CD; fill-opacity:1.0000; stroke:none;">
<circle cx="121.2500" cy="21.0000" r="1.6000" /> 
</g>
<g style="fill:#D0D2CD; fill-opacity:1.0000; stroke:none;">
<circle cx="13.7500" cy="66.0000" r="1.6000" /> 
</g>
<g style="fill:#D0D2CD; fill-opacity:1.0000; stroke:none;">
<circle cx="55.7500" cy="56.0000" r="1.2450" /> 
</g>
<g style="fill:#D0D2CD; fill-opacity:1.0000; stroke:none;">
<circle cx="57.0000" cy="65.5000" r="1.2450" /> 
</g>
<g style="fill:#D0D2CD; fill-opacity:1.0000; stroke:none;">
<circle cx="18.2500" cy="38.0000" r="1.2450" /> 
</g>
<g style="fill:#D0D2CD; fill-opacity:1.0000; stroke:none;">
<circle cx="120.0000" cy="59.0000" r="1.2450" /> 
</g>
<g style="fill:#D0D2CD; fill-opacity:1.0000; stroke:none;">
<circle cx="93.2500" cy="38.0000" r="1.2450" /> 
</g>
<g style="fill:#D0D2CD; fill-opacity:1.0000; stroke:none;">
<circle cx="44.2500" cy="31.0000" r="1.2450" /> 
</g>
<g style="fill:#D0D2CD; fill-opacity:1.0000; stroke:none;">
<circle cx="93.2500" cy="47.0000" r="1.2450" /> 
</g>
<g style="fill:#D0D2CD; fill-opacity:1.0000; stroke:none;">
<circle cx="18.2500" cy="47.0000" r="1.2450" /> 
</g>
<g style="fill:#D0D2CD; fill-opacity:1.0000; stroke:none;">
<circle cx="18.2500" cy="56.0000" r="1.2450" /> 
</g>
<g style="fill:#D0D2CD; fill-opacity:1.0000; stroke:none;">
<circle cx="44.7500" cy="41.0000" r="1.2450" /> 
</g>
<g style="fill:#D0D2CD; fill-opacity:1.0000; stroke:none;">
<circle cx="82.2500" cy="41.0000" r="1.2450" /> 
</g>
<g style="fill:#D0D2CD; fill-opacity:1.0000; stroke:none;">
<circle cx="19.5000" cy="65.5000" r="1.2450" /> 
</g>
<g style="fill:#D0D2CD; fill-opacity:1.0000; stroke:none;">
<circle cx="119.0000" cy="31.0000" r="1.2450" /> 
</g>
<g style="fill:#D0D2CD; fill-opacity:1.0000; stroke:none;">
<circle cx="120.0000" cy="41.0000" r="1.2450" /> 
</g>
<g style="fill:#D0D2CD; fill-opacity:1.0000; stroke:none;">
<circle cx="55.7500" cy="47.0000" r="1.2450" /> 
</g>
<g style="fill:#D0D2CD; fill-opacity:1.0000; stroke:none;">
<circle cx="93.2500" cy="56.0000" r="1.2450" /> 
</g>
<g style="fill:#D0D2CD; fill-opacity:1.0000; stroke:none;">
<circle cx="81.7500" cy="31.0000" r="1.2450" /> 
</g>
<g style="fill:#D0D2CD; fill-opacity:1.0000; stroke:none;">
<circle cx="82.2500" cy="58.5000" r="1.2450" /> 
</g>
<g style="fill:#D0D2CD; fill-opacity:1.0000; stroke:none;">
<circle cx="82.2500" cy="50.0000" r="1.2450" /> 
</g>
<g style="fill:#D0D2CD; fill-opacity:1.0000; stroke:none;">
<circle cx="53.5000" cy="16.7500" r="0.5000" /> 
</g>
<g style="fill:#D0D2CD; fill-opacity:1.0000; stroke:none;">
<circle cx="56.0400" cy="16.7500" r="0.5000" /> 
</g>
<g style="fill:#D0D2CD; fill-opacity:1.0000; stroke:none;">
<circle cx="58.5800" cy="16.7500" r="0.5000" /> 
</g>
<g style="fill:#D0D2CD; fill-opacity:1.0000; stroke:none;">
<circle cx="61.1200" cy="16.7500" r="0.5000" /> 
</g>
<g style="fill:#D0D2CD; fill-opacity:1.0000; stroke:none;">
<circle cx="63.6600" cy="16.7500" r="0.5000" /> 
</g>
<g style="fill:#D0D2CD; fill-opacity:1.0000; stroke:none;">
<circle cx="66.2000" cy="16.7500" r="0.5000" /> 
</g>
<g style="fill:#D0D2CD; fill-opacity:1.0000; stroke:none;">
<circle cx="68.7400" cy="16.7500" r="0.5000" /> 
</g>
<g style="fill:#D0D2CD; fill-opacity:1.0000; stroke:none;">
<circle cx="71.2800" cy="16.7500" r="0.5000" /> 
</g>
<g style="fill:#D0D2CD; fill-opacity:1.0000; stroke:none;">
<circle cx="73.8200" cy="16.7500" r="0.5000" /> 
</g>
<g style="fill:#D0D2CD; fill-opacity:1.0000; stroke:none;">
<circle cx="76.3600" cy="16.7500" r="0.5000" /> 
</g>
<g style="fill:#D0D2CD; fill-opacity:1.0000; stroke:none;">
<circle cx="78.9000" cy="16.7500" r="0.5000" /> 
</g>
<g style="fill:#D0D2CD; fill-opacity:1.0000; stroke:none;">
<circle cx="81.4400" cy="16.7500" r="0.5000" /> 
</g>
<g style="fill:#D0D2CD; fill-opacity:1.0000; stroke:none;">
<circle cx="53.5000" cy="14.2100" r="0.5000" /> 
</g>
<g style="fill:#D0D2CD; fill-opacity:1.0000; stroke:none;">
<circle cx="56.0400" cy="14.2100" r="0.5000" /> 
</g>
<g style="fill:#D0D2CD; fill-opacity:1.0000; stroke:none;">
<circle cx="58.5800" cy="14.2100" r="0.5000" /> 
</g>
<g style="fill:#D0D2CD; fill-opacity:1.0000; stroke:none;">
<circle cx="61.1200" cy="14.2100" r="0.5000" /> 
</g>
<g style="fill:#D0D2CD; fill-opacity:1.0000; stroke:none;">
<circle cx="63.6600" cy="14.2100" r="0.5000" /> 
</g>
<g style="fill:#D0D2CD; fill-opacity:1.0000; stroke:none;">
<circle cx="66.2000" cy="14.2100" r="0.5000" /> 
</g>
<g style="fill:#D0D2CD; fill-opacity:1.0000; stroke:none;">
<circle cx="68.7400" cy="14.2100" r="0.5000" /> 
</g>
<g style="fill:#D0D2CD; fill-opacity:1.0000; stroke:none;">
<circle cx="71.2800" cy="14.2100" r="0.5000" /> 
</g>
<g style="fill:#D0D2CD; fill-opacity:1.0000; stroke:none;">
<circle cx="73.8200" cy="14.2100" r="0.5000" /> 
</g>
<g style="fill:#D0D2CD; fill-opacity:1.0000; stroke:none;">
<circle cx="76.3600" cy="14.2100" r="0.5000" /> 
</g>
<g style="fill:#D0D2CD; fill-opacity:1.0000; stroke:none;">
<circle cx="78.9000" cy="14.2100" r="0.5000" /> 
</g>
<g style="fill:#D0D2CD; fill-opacity:1.0000; stroke:none;">
<circle cx="81.4400" cy="14.2100" r="0.5000" /> 
</g>
<g style="fill:#4D7FC4; fill-opacity:1.0000; stroke:none;">
<circle cx="55.7500" cy="38.0000" r="1.6250" /> 
</g>
<g style="fill:#4D7FC4; fill-opacity:1.0000; stroke:none;">
<circle cx="44.7500" cy="50.0000" r="1.6250" /> 
</g>
<g style="fill:#4D7FC4; fill-opacity:1.0000; stroke:none;">
<circle cx="44.7500" cy="59.0000" r="1.6250" /> 
</g>
<g style="fill:#4D7FC4; fill-opacity:1.0000; stroke:none;">
<circle cx="94.5000" cy="65.5000" r="1.6250" /> 
</g>
<g style="fill:#4D7FC4; fill-opacity:1.0000; stroke:none;">
<circle cx="121.2500" cy="66.0000" r="1.8000" /> 
</g>
<g style="fill:#4D7FC4; fill-opacity:1.0000; stroke:none;">
<circle cx="121.2500" cy="66.0000" r="2.8000" /> 
</g>
<g style="fill:#4D7FC4; fill-opacity:1.0000; stroke:none;">
<circle cx="120.0000" cy="50.0000" r="1.6250" /> 
</g>
<g style="fill:#4D7FC4; fill-opacity:1.0000; stroke:none;">
<circle cx="13.7500" cy="21.0000" r="1.8000" /> 
</g>
<g style="fill:#4D7FC4; fill-opacity:1.0000; stroke:none;">
<circle cx="13.7500" cy="21.0000" r="2.8000" /> 
</g>
<g style="fill:#4D7FC4; fill-opacity:1.0000; stroke:none;">
<circle cx="121.2500" cy="21.0000" r="1.8000" /> 
</g>
<g style="fill:#4D7FC4; fill-opacity:1.0000; stroke:none;">
<circle cx="121.2500" cy="21.0000" r="2.8000" /> 
</g>
<g style="fill:#4D7FC4; fill-opacity:1.0000; stroke:none;">
<circle cx="13.7500" cy="66.0000" r="1.8000" /> 
</g>
<g style="fill:#4D7FC4; fill-opacity:1.0000; stroke:none;">
<circle cx="13.7500" cy="66.0000" r="2.8000" /> 
</g>
<g style="fill:#4D7FC4; fill-opacity:1.0000; stroke:none;">
<circle cx="55.7500" cy="56.0000" r="1.6250" /> 
</g>
<g style="fill:#4D7FC4; fill-opacity:1.0000; stroke:none;">
<circle cx="57.0000" cy="65.5000" r="1.6250" /> 
</g>
<g style="fill:#4D7FC4; fill-opacity:1.0000; stroke:none;">
<circle cx="18.2500" cy="38.0000" r="1.6250" /> 
</g>
<g style="fill:#4D7FC4; fill-opacity:1.0000; stroke:none;">
<circle cx="120.0000" cy="59.0000" r="1.6250" /> 
</g>
<g style="fill:#4D7FC4; fill-opacity:1.0000; stroke:none;">
<circle cx="93.2500" cy="38.0000" r="1.6250" /> 
</g>
<g style="fill:#4D7FC4; fill-opacity:1.0000; stroke:none;">
<circle cx="44.2500" cy="31.0000" r="1.6250" /> 
</g>
<g style="fill:#4D7FC4; fill-opacity:1.0000; stroke:none;">
<circle cx="93.2500" cy="47.0000" r="1.6250" /> 
</g>
<g style="fill:#4D7FC4; fill-opacity:1.0000; stroke:none;">
<circle cx="18.2500" cy="47.0000" r="1.6250" /> 
</g>
<g style="fill:#4D7FC4; fill-opacity:1.0000; stroke:none;">
<circle cx="18.2500" cy="56.0000" r="1.6250" /> 
</g>
<g style="fill:#4D7FC4; fill-opacity:1.0000; stroke:none;">
<circle cx="44.7500" cy="41.0000" r="1.6250" /> 
</g>
<g style="fill:#4D7FC4; fill-opacity:1.0000; stroke:none;">
<circle cx="82.2500" cy="41.0000" r="1.6250" /> 
</g>
<g style="fill:#4D7FC4; fill-opacity:1.0000; stroke:none;">
<circle cx="19.5000" cy="65.5000" r="1.6250" /> 
</g>
<g style="fill:#4D7FC4; fill-opacity:1.0000; stroke:none;">
<circle cx="119.0000" cy="31.0000" r="1.6250" /> 
</g>
<g style="fill:#4D7FC4; fill-opacity:1.0000; stroke:none;">
<circle cx="120.0000" cy="41.0000" r="1.6250" /> 
</g>
<g style="fill:#4D7FC4; fill-opacity:1.0000; stroke:none;">
<circle cx="55.7500" cy="47.0000" r="1.6250" /> 
</g>
<g style="fill:#4D7FC4; fill-opacity:1.0000; stroke:none;">
<circle cx="93.2500" cy="56.0000" r="1.6250" /> 
</g>
<g style="fill:#4D7FC4; fill-opacity:1.0000; stroke:none;">
<circle cx="81.7500" cy="31.0000" r="1.6250" /> 
</g>
<g style="fill:#4D7FC4; fill-opacity:1.0000; stroke:none;">
<circle cx="82.2500" cy="58.5000" r="1.6250" /> 
</g>
<g style="fill:#4D7FC4; fill-opacity:1.0000; stroke:none;">
<circle cx="82.2500" cy="50.0000" r="1.6250" /> 
<path style="fill:#4D7FC4; fill-opacity:1.0000; stroke:none;fill-rule:evenodd;"
d="M 52.6500,15.9000
54.3500,15.9000
54.3500,17.6000
52.6500,17.6000
Z" /> 
</g>
<g style="fill:#4D7FC4; fill-opacity:1.0000; stroke:none;">
<circle cx="56.0400" cy="16.7500" r="0.8500" /> 
<circle cx="58.5800" cy="16.7500" r="0.8500" /> 
<circle cx="61.1200" cy="16.7500" r="0.8500" /> 
<circle cx="63.6600" cy="16.7500" r="0.8500" /> 
<circle cx="66.2000" cy="16.7500" r="0.8500" /> 
<circle cx="68.7400" cy="16.7500" r="0.8500" /> 
<circle cx="71.2800" cy="16.7500" r="0.8500" /> 
<circle cx="73.8200" cy="16.7500" r="0.8500" /> 
<circle cx="76.3600" cy="16.7500" r="0.8500" /> 
<circle cx="78.9000" cy="16.7500" r="0.8500" /> 
<circle cx="81.4400" cy="16.7500" r="0.8500" /> 
<circle cx="53.5000" cy="14.2100" r="0.8500" /> 
<circle cx="56.0400" cy="14.2100" r="0.8500" /> 
<circle cx="58.5800" cy="14.2100" r="0.8500" /> 
<circle cx="61.1200" cy="14.2100" r="0.8500" /> 
<circle cx="63.6600" cy="14.2100" r="0.8500" /> 
<circle cx="66.2000" cy="14.2100" r="0.8500" /> 
<circle cx="68.7400" cy="14.2100" r="0.8500" /> 
<circle cx="71.2800" cy="14.2100" r="0.8500" /> 
<circle cx="73.8200" cy="14.2100" r="0.8500" /> 
<circle cx="76.3600" cy="14.2100" r="0.8500" /> 
<circle cx="78.9000" cy="14.2100" r="0.8500" /> 
<circle cx="81.4400" cy="14.2100" r="0.8500" /> 
</g>
<g style="fill:none; 
stroke:#4D7FC4; stroke-width:0.4000; stroke-opacity:1; 
stroke-linecap:round; stroke-linejoin:round;">
<path d="M123.7500 55.2500
L120.0000 59.0000
" />
<path d="M123.7500 29.2500
L123.7500 55.2500
" />
<path d="M82.4400 17.7500
L112.2500 17.7500
" />
<path d="M81.4400 16.7500
L82.4400 17.7500
" />
<path d="M112.2500 17.7500
L123.7500 29.2500
" />
<path d="M13.2500 50.7500
L18.5000 56.0000
" />
<path d="M13.2500 27.5000
L13.2500 50.7500
" />
<path d="M23.0000 17.7500
L13.2500 27.5000
" />
<path d="M52.5000 17.7500
L23.0000 17.7500
" />
<path d="M53.5000 16.7500
L52.5000 17.7500
" />
<path d="M56.0400 17.7100
L56.0400 16.7500
" />
<path d="M38.7500 64.0000
L38.7500 29.0000
" />
<path d="M38.7500 29.0000
L46.0000 21.7500
" />
<path d="M52.0000 21.7500
L56.0400 17.7100
" />
<path d="M35.6250 67.1250
L38.7500 64.0000
" />
<path d="M46.0000 21.7500
L52.0000 21.7500
" />
<path d="M21.1250 67.1250
L35.6250 67.1250
" />
<path d="M19.5000 65.5000
L21.1250 67.1250
" />
<path d="M52.2500 31.0000
L66.2000 17.0500
" />
<path d="M66.2000 17.0500
L66.2000 16.7500
" />
<path d="M52.2500 52.5000
L52.2500 31.0000
" />
<path d="M55.7500 56.0000
L52.2500 52.5000
" />
<path d="M50.5000 30.2500
L50.5000 59.2500
" />
<path d="M50.5000 59.2500
L56.7500 65.5000
" />
<path d="M63.6600 16.7500
L63.6600 17.0900
" />
<path d="M63.6600 17.0900
L50.5000 30.2500
" />
<path d="M49.0000 54.5000
L44.5000 59.0000
" />
<path d="M49.0000 29.2500
L49.0000 54.5000
" />
<path d="M61.1200 17.1300
L49.0000 29.2500
" />
<path d="M61.1200 16.7500
L61.1200 17.1300
" />
<path d="M47.5000 47.0000
L44.5000 50.0000
" />
<path d="M58.5800 17.1700
L47.5000 28.2500
" />
<path d="M58.5800 16.7500
L58.5800 17.1700
" />
<path d="M47.5000 28.2500
L47.5000 47.0000
" />
<path d="M78.0280 21.6000
L83.6000 21.6000
" />
<path d="M83.6000 21.6000
L88.8250 26.8250
" />
<path d="M94.5000 65.4500
L94.5000 65.5000
" />
<path d="M73.8200 16.7500
L73.8200 17.3920
" />
<path d="M73.8200 17.3920
L78.0280 21.6000
" />
<path d="M88.8250 59.7750
L94.5000 65.4500
" />
<path d="M88.8250 26.8250
L88.8250 59.7750
" />
<path d="M76.8500 53.1000
L82.2500 58.5000
" />
<path d="M76.8500 25.2191
L76.8500 53.1000
" />
<path d="M68.7400 17.1091
L76.8500 25.2191
" />
<path d="M68.7400 16.7500
L68.7400 17.1091
" />
<path d="M71.2800 17.1091
L78.2500 24.0791
" />
<path d="M71.2800 16.7500
L71.2800 17.1091
" />
<path d="M78.2500 46.0000
L82.2500 50.0000
" />
<path d="M78.2500 24.0791
L78.2500 46.0000
" />
<path d="M90.2250 52.7250
L93.5000 56.0000
" />
<path d="M76.3600 17.9521
L78.6079 20.2000
" />
<path d="M76.3600 16.7500
L76.3600 17.9521
" />
<path d="M90.2250 25.9000
L90.2250 52.7250
" />
<path d="M84.5250 20.2000
L90.2250 25.9000
" />
<path d="M78.6079 20.2000
L84.5250 20.2000
" />
<path d="M85.1049 18.8000
L88.0549 21.7500
" />
<path d="M78.9000 17.1091
L80.5909 18.8000
" />
<path d="M78.9000 16.7500
L78.9000 17.1091
" />
<path d="M110.2500 21.7500
L114.0000 25.5000
" />
<path d="M88.0549 21.7500
L110.2500 21.7500
" />
<path d="M80.5909 18.8000
L85.1049 18.8000
" />
<path d="M114.0000 44.0000
L120.0000 50.0000
" />
<path d="M114.0000 25.5000
L114.0000 44.0000
" />
<path style="fill:#4D7FC4; fill-opacity:1.0000; stroke:none;fill-rule:evenodd;"
d="M 91.9778,3.7722
91.9995,3.8245
91.9995,16.3159
92.0336,16.4432
92.0336,16.4432
92.0336,16.4432
92.0995,16.5573
92.1927,16.6505
92.3068,16.7164
92.4341,16.7505
92.4341,16.7505
92.4341,16.7505
92.5659,16.7505
124.9255,16.7505
124.9778,16.7722
124.9995,16.8245
124.9995,69.7886
124.9778,69.8409
124.9255,69.8626
10.0745,69.8626
10.0222,69.8409
10.0005,69.7886
10.0005,66.0000
10.5450,66.0000
10.5651,66.3589
10.5651,66.3589
10.6253,66.7132
10.7248,67.0586
10.8624,67.3906
10.8624,67.3906
11.0362,67.7052
11.0362,67.7052
11.2442,67.9983
11.3502,68.1169
12.4855,66.9817
12.5296,67.0423
12.7077,67.2204
12.7683,67.2645
11.6331,68.3998
11.7517,68.5058
12.0448,68.7138
12.0448,68.7138
12.3594,68.8876
12.3594,68.8876
12.6914,69.0252
13.0368,69.1247
13.0368,69.1247
13.3911,69.1849
13.3911,69.1849
13.7500,69.2050
14.1089,69.1849
14.1089,69.1849
14.4632,69.1247
14.8086,69.0252
15.1406,68.8876
15.1406,68.8876
15.4552,68.7138
15.4552,68.7138
15.7483,68.5058
15.8669,68.3998
15.8669,68.3998
14.7317,67.2645
14.7923,67.2204
14.9704,67.0423
15.0145,66.9817
16.1498,68.1169
16.1498,68.1169
16.2558,67.9983
16.4638,67.7052
16.4638,67.7052
16.6376,67.3906
16.6376,67.3906
16.7752,67.0586
16.8747,66.7132
16.9141,66.4815
16.9442,66.4335
16.9994,66.4209
17.0474,66.4511
17.0545,66.4635
17.1710,66.7224
17.3353,66.9942
17.5312,67.2442
17.7558,67.4688
18.0058,67.6647
18.2776,67.8290
18.5673,67.9594
18.8705,68.0539
19.1830,68.1111
19.5000,68.1303
19.8170,68.1111
20.1295,68.0539
20.4327,67.9594
20.7224,67.8290
20.9942,67.6647
21.1517,67.5412
21.1974,67.5255
35.6777,67.5255
35.6777,67.5255
35.7796,67.4982
35.8709,67.4455
39.0705,64.2459
39.1232,64.1546
39.1232,64.1546
39.1505,64.0527
39.1505,31.0000
41.6197,31.0000
41.6389,31.3170
41.6961,31.6295
41.7906,31.9327
41.7906,31.9327
41.7906,31.9327
41.9210,32.2224
42.0853,32.4942
42.2812,32.7442
42.5058,32.9688
42.7558,33.1647
43.0276,33.3290
43.3173,33.4594
43.6205,33.5539
43.9330,33.6111
44.2500,33.6303
44.5670,33.6111
44.8795,33.5539
45.1827,33.4594
45.4724,33.3290
45.7442,33.1647
45.9942,32.9688
46.2188,32.7442
46.4147,32.4942
46.5790,32.2224
46.7094,31.9327
46.8039,31.6295
46.8611,31.3170
46.8803,31.0000
46.8611,30.6830
46.8039,30.3705
46.7181,30.0954
46.7094,30.0673
46.7094,30.0673
46.7094,30.0673
46.5790,29.7776
46.4147,29.5058
46.2188,29.2558
45.9942,29.0312
45.7442,28.8353
45.4724,28.6710
45.4724,28.6710
45.4724,28.6710
45.2795,28.5842
45.1827,28.5406
45.1827,28.5406
45.1827,28.5406
44.8795,28.4461
44.5670,28.3889
44.2500,28.3697
43.9330,28.3889
43.6205,28.4461
43.3173,28.5406
43.0276,28.6710
43.0276,28.6710
42.7558,28.8353
42.5058,29.0312
42.2812,29.2558
42.0853,29.5058
41.9210,29.7776
41.9210,29.7776
41.7906,30.0673
41.6961,30.3705
41.6389,30.6830
41.6197,31.0000
39.1505,31.0000
39.1505,29.1965
39.1722,29.1442
46.1442,22.1722
46.1965,22.1505
52.0527,22.1505
52.0527,22.1505
52.1546,22.1232
52.2459,22.0705
55.8545,18.4619
55.9068,18.4402
55.9124,18.4404
55.9133,18.4405
55.9133,18.4405
55.9133,18.4405
56.1667,18.4405
56.1667,18.4405
56.4172,18.4027
56.6579,18.3285
56.7143,18.3338
56.7505,18.3774
56.7452,18.4338
56.7321,18.4515
47.1795,28.0041
47.1268,28.0954
47.1268,28.0954
47.0995,28.1973
47.0995,39.5461
47.0778,39.5984
47.0255,39.6201
46.9732,39.5984
46.9622,39.5844
46.9147,39.5058
46.9056,39.4942
46.7188,39.2558
46.4942,39.0312
46.2442,38.8353
45.9724,38.6710
45.9724,38.6710
45.9724,38.6710
45.6827,38.5406
45.3795,38.4461
45.0670,38.3889
44.7500,38.3697
44.4330,38.3889
44.1205,38.4461
43.8173,38.5406
43.5276,38.6710
43.5276,38.6710
43.2558,38.8353
43.0058,39.0312
42.7812,39.2558
42.5853,39.5058
42.4210,39.7776
42.4210,39.7776
42.2906,40.0673
42.1961,40.3705
42.1389,40.6830
42.1197,41.0000
42.1389,41.3170
42.1961,41.6295
42.2906,41.9327
42.4005,42.1768
42.4210,42.2224
42.5853,42.4942
42.7812,42.7442
43.0058,42.9688
43.2558,43.1647
43.5276,43.3290
43.8173,43.4594
44.1205,43.5539
44.4330,43.6111
44.7500,43.6303
45.0670,43.6111
45.3795,43.5539
45.6827,43.4594
45.9724,43.3290
46.2442,43.1647
46.4942,42.9688
46.7188,42.7442
46.9147,42.4942
46.9622,42.4156
47.0078,42.3821
47.0638,42.3906
47.0973,42.4362
47.0995,42.4539
47.0995,46.8035
47.0778,46.8558
46.1943,47.7393
46.1419,47.7610
46.1036,47.7504
45.9724,47.6710
45.9724,47.6710
45.9724,47.6710
45.6827,47.5406
45.3795,47.4461
45.0670,47.3889
44.7500,47.3697
44.4330,47.3889
44.1205,47.4461
43.8173,47.5406
43.5276,47.6710
43.5276,47.6710
43.2558,47.8353
43.0058,48.0312
42.7812,48.2558
42.5853,48.5058
42.4210,48.7776
42.4210,48.7776
42.2906,49.0673
42.1961,49.3705
42.1389,49.6830
42.1197,50.0000
42.1389,50.3170
42.1961,50.6295
42.2906,50.9327
42.2906,50.9327
42.2906,50.9327
42.4210,51.2224
42.5853,51.4942
42.7812,51.7442
43.0058,51.9688
43.2558,52.1647
43.5276,52.3290
43.8173,52.4594
44.1205,52.5539
44.4330,52.6111
44.7500,52.6303
45.0670,52.6111
45.3795,52.5539
45.6827,52.4594
45.9724,52.3290
46.2442,52.1647
46.4942,51.9688
46.7188,51.7442
46.9147,51.4942
47.0790,51.2224
47.2094,50.9327
47.3039,50.6295
47.3611,50.3170
47.3803,50.0000
47.3611,49.6830
47.3039,49.3705
47.2094,49.0673
47.0790,48.7776
46.9147,48.5058
46.9147,48.5058
46.7996,48.3589
46.7844,48.3043
46.8055,48.2609
47.7459,47.3205
47.7459,47.3205
47.8205,47.2459
47.8732,47.1546
47.8752,47.1472
47.9005,47.0527
47.9005,46.9473
47.9005,46.9427
47.9005,46.9427
47.9005,28.4465
47.9222,28.3942
57.9503,18.3661
58.0026,18.3444
58.0244,18.3477
58.2028,18.4027
58.2028,18.4027
58.2028,18.4027
58.4348,18.4377
58.4533,18.4405
58.4533,18.4405
58.7067,18.4405
58.7067,18.4405
58.9572,18.4027
59.1401,18.3463
59.1965,18.3516
59.2326,18.3952
59.2273,18.4516
59.2142,18.4694
48.6795,29.0041
48.6268,29.0954
48.6268,29.0954
48.6109,29.1546
48.6109,29.1546
48.5995,29.1973
48.5995,54.3035
48.5778,54.3558
46.1943,56.7393
46.1419,56.7610
46.1036,56.7504
45.9724,56.6710
45.9724,56.6710
45.9724,56.6710
45.6827,56.5406
45.3795,56.4461
45.0670,56.3889
44.7500,56.3697
44.4330,56.3889
44.1205,56.4461
43.8173,56.5406
43.5276,56.6710
43.5276,56.6710
43.2558,56.8353
43.0058,57.0312
42.7812,57.2558
42.5853,57.5058
42.4210,57.7776
42.4210,57.7776
42.2906,58.0673
42.1961,58.3705
42.1389,58.6830
42.1197,59.0000
42.1389,59.3170
42.1961,59.6295
42.2906,59.9327
42.2906,59.9327
42.2906,59.9327
42.4210,60.2224
42.5853,60.4942
42.7812,60.7442
43.0058,60.9688
43.2558,61.1647
43.5276,61.3290
43.8173,61.4594
44.1205,61.5539
44.4330,61.6111
44.7500,61.6303
45.0670,61.6111
45.3795,61.5539
45.6827,61.4594
45.9724,61.3290
46.2442,61.1647
46.4942,60.9688
46.7188,60.7442
46.9147,60.4942
47.0790,60.2224
47.2094,59.9327
47.3039,59.6295
47.3611,59.3170
47.3803,59.0000
47.3611,58.6830
47.3039,58.3705
47.2094,58.0673
47.0790,57.7776
46.9147,57.5058
46.7996,57.3589
46.7844,57.3043
46.8055,57.2609
49.3205,54.7459
49.3732,54.6546
49.4005,54.5527
49.4005,54.4473
49.4005,29.4465
49.4222,29.3942
60.4597,18.3567
60.5120,18.3350
60.5338,18.3383
60.7428,18.4027
60.7428,18.4027
60.9748,18.4377
60.9933,18.4405
60.9933,18.4405
61.2467,18.4405
61.2467,18.4405
61.4972,18.4027
61.5216,18.3952
61.6223,18.3642
61.6786,18.3695
61.7148,18.4131
61.7095,18.4695
61.6964,18.4872
50.1795,30.0041
50.1268,30.0954
50.1268,30.0954
50.0995,30.1973
50.0995,59.1973
50.0995,59.3027
50.1268,59.4046
50.1268,59.4046
50.1795,59.4959
50.1795,59.4959
50.1795,59.4959
53.4786,62.7950
54.7393,64.0557
54.7610,64.1081
54.7504,64.1464
54.6902,64.2459
54.6710,64.2776
54.5692,64.5039
54.5406,64.5673
54.4461,64.8705
54.3889,65.1830
54.3697,65.5000
54.3889,65.8170
54.4461,66.1295
54.5406,66.4327
54.6669,66.7132
54.6710,66.7224
54.8353,66.9942
55.0312,67.2442
55.2558,67.4688
55.5058,67.6647
55.7776,67.8290
56.0673,67.9594
56.3705,68.0539
56.6830,68.1111
57.0000,68.1303
57.3170,68.1111
57.6295,68.0539
57.9327,67.9594
58.2224,67.8290
58.4942,67.6647
58.7442,67.4688
58.9688,67.2442
59.1647,66.9942
59.3290,66.7224
59.4594,66.4327
59.5539,66.1295
59.6111,65.8170
59.6303,65.5000
59.6111,65.1830
59.5539,64.8705
59.4685,64.5965
59.4736,64.5401
59.5171,64.5039
59.5391,64.5005
72.8159,64.5005
72.8159,64.5005
72.9432,64.4664
73.0573,64.4005
73.1505,64.3073
73.2164,64.1932
73.2505,64.0659
73.2505,64.0659
73.2505,25.9341
73.2505,25.9341
73.2164,25.8068
73.2164,25.8068
73.1505,25.6927
73.0573,25.5995
72.9432,25.5336
72.9432,25.5336
72.8159,25.4995
72.8159,25.4995
59.3159,25.4995
59.1841,25.4995
59.1841,25.4995
59.0568,25.5336
59.0568,25.5336
58.9427,25.5995
58.8495,25.6927
58.7836,25.8068
58.7836,25.8068
58.7495,25.9341
58.7495,63.3834
58.7278,63.4357
58.6755,63.4574
58.6299,63.4416
58.4942,63.3353
58.4130,63.2862
58.2224,63.1710
58.2224,63.1710
58.2224,63.1710
57.9327,63.0406
57.6295,62.9461
57.3170,62.8889
57.0000,62.8697
56.6830,62.8889
56.3705,62.9461
56.0673,63.0406
55.7776,63.1710
55.7776,63.1710
55.5058,63.3353
55.3589,63.4504
55.3043,63.4656
55.2609,63.4445
50.9222,59.1058
50.9005,59.0535
50.9005,30.4465
50.9222,30.3942
62.9691,18.3472
63.0215,18.3256
63.0433,18.3289
63.2828,18.4027
63.2828,18.4027
63.5148,18.4377
63.5333,18.4405
63.5333,18.4405
63.7867,18.4405
63.7867,18.4405
64.0372,18.4027
64.1044,18.3820
64.1608,18.3873
64.1969,18.4309
64.1917,18.4873
64.1786,18.5050
51.9295,30.7541
51.8768,30.8454
51.8768,30.8454
51.8495,30.9473
51.8495,52.4473
51.8495,52.5527
51.8703,52.6303
51.8768,52.6546
51.8768,52.6546
51.9295,52.7459
51.9295,52.7459
51.9295,52.7459
52.8546,53.6710
53.5847,54.4011
53.6064,54.4534
53.5906,54.4990
53.5853,54.5058
53.5853,54.5058
53.4210,54.7776
53.4210,54.7776
53.2906,55.0673
53.1961,55.3705
53.1389,55.6830
53.1197,56.0000
53.1389,56.3170
53.1961,56.6295
53.2906,56.9327
53.2906,56.9327
53.2906,56.9327
53.4210,57.2224
53.5853,57.4942
53.7812,57.7442
54.0058,57.9688
54.2558,58.1647
54.5276,58.3290
54.8173,58.4594
55.1205,58.5539
55.4330,58.6111
55.7500,58.6303
56.0670,58.6111
56.3795,58.5539
56.6827,58.4594
56.9724,58.3290
57.2442,58.1647
57.4942,57.9688
57.7188,57.7442
57.9147,57.4942
58.0790,57.2224
58.2094,56.9327
58.3039,56.6295
58.3611,56.3170
58.3803,56.0000
58.3611,55.6830
58.3039,55.3705
58.2094,55.0673
58.0790,54.7776
57.9147,54.5058
57.7188,54.2558
57.4942,54.0312
57.2442,53.8353
56.9724,53.6710
56.9724,53.6710
56.9724,53.6710
56.6827,53.5406
56.3795,53.4461
56.0670,53.3889
55.7500,53.3697
55.4330,53.3889
55.1205,53.4461
54.8173,53.5406
54.5276,53.6710
54.5276,53.6710
54.2558,53.8353
54.2558,53.8353
54.2490,53.8406
54.1945,53.8558
54.1511,53.8347
52.6722,52.3558
52.6505,52.3035
52.6505,47.0000
53.1197,47.0000
53.1389,47.3170
53.1961,47.6295
53.2906,47.9327
53.2906,47.9327
53.2906,47.9327
53.4210,48.2224
53.5853,48.4942
53.7812,48.7442
54.0058,48.9688
54.2558,49.1647
54.5276,49.3290
54.8173,49.4594
55.1205,49.5539
55.4330,49.6111
55.7500,49.6303
56.0670,49.6111
56.3795,49.5539
56.6827,49.4594
56.9724,49.3290
57.2442,49.1647
57.4942,48.9688
57.7188,48.7442
57.9147,48.4942
58.0790,48.2224
58.2094,47.9327
58.3039,47.6295
58.3611,47.3170
58.3803,47.0000
58.3611,46.6830
58.3039,46.3705
58.2366,46.1546
58.2094,46.0673
58.2094,46.0673
58.2094,46.0673
58.0790,45.7776
57.9147,45.5058
57.7188,45.2558
57.4942,45.0312
57.2442,44.8353
56.9724,44.6710
56.9724,44.6710
56.9724,44.6710
56.6827,44.5406
56.3795,44.4461
56.0670,44.3889
55.7500,44.3697
55.4330,44.3889
55.1205,44.4461
54.8173,44.5406
54.5276,44.6710
54.5276,44.6710
54.2558,44.8353
54.0058,45.0312
53.7812,45.2558
53.5853,45.5058
53.4210,45.7776
53.4210,45.7776
53.2906,46.0673
53.1961,46.3705
53.1389,46.6830
53.1197,47.0000
52.6505,47.0000
52.6505,38.0000
53.1197,38.0000
53.1389,38.3170
53.1961,38.6295
53.2906,38.9327
53.2906,38.9327
53.2906,38.9327
53.4210,39.2224
53.5853,39.4942
53.7812,39.7442
54.0058,39.9688
54.2558,40.1647
54.5276,40.3290
54.8173,40.4594
55.1205,40.5539
55.4330,40.6111
55.7500,40.6303
56.0670,40.6111
56.3795,40.5539
56.6827,40.4594
56.9724,40.3290
57.2442,40.1647
57.4942,39.9688
57.7188,39.7442
57.9147,39.4942
58.0790,39.2224
58.2094,38.9327
58.3039,38.6295
58.3611,38.3170
58.3803,38.0000
58.3611,37.6830
58.3039,37.3705
58.2434,37.1765
58.2094,37.0673
58.2094,37.0673
58.2094,37.0673
58.0790,36.7776
57.9147,36.5058
57.7188,36.2558
57.4942,36.0312
57.2442,35.8353
56.9724,35.6710
56.9724,35.6710
56.9724,35.6710
56.6827,35.5406
56.3795,35.4461
56.0670,35.3889
55.7500,35.3697
55.4330,35.3889
55.1205,35.4461
54.8173,35.5406
54.5276,35.6710
54.5276,35.6710
54.2558,35.8353
54.0058,36.0312
53.7812,36.2558
53.5853,36.5058
53.4210,36.7776
53.4210,36.7776
53.2906,37.0673
53.1961,37.3705
53.1389,37.6830
53.1197,38.0000
52.6505,38.0000
52.6505,31.1965
52.6722,31.1442
65.4812,18.3352
65.5335,18.3135
65.5656,18.3208
65.5755,18.3256
65.5807,18.3281
65.7149,18.3695
65.8228,18.4027
65.8228,18.4027
66.0548,18.4377
66.0733,18.4405
66.0733,18.4405
66.3267,18.4405
66.3267,18.4405
66.5772,18.4027
66.8193,18.3281
67.0476,18.2181
67.2570,18.0754
67.4197,17.9244
67.4728,17.9047
67.5203,17.9244
67.6830,18.0754
67.8924,18.2181
68.1207,18.3281
68.2549,18.3695
68.3628,18.4027
68.3628,18.4027
68.5948,18.4377
68.6133,18.4405
68.6133,18.4405
68.8667,18.4405
68.8667,18.4405
69.1172,18.4027
69.3421,18.3334
69.3985,18.3387
69.4162,18.3518
76.4278,25.3634
76.4495,25.4157
76.4495,53.0473
76.4495,53.1527
76.4768,53.2546
76.4768,53.2546
76.5295,53.3459
76.5295,53.3459
76.5295,53.3459
78.3809,55.1973
80.0847,56.9011
80.1064,56.9534
80.0906,56.9990
80.0853,57.0058
80.0853,57.0058
79.9210,57.2776
79.9210,57.2776
79.7906,57.5673
79.6961,57.8705
79.6389,58.1830
79.6197,58.5000
79.6389,58.8170
79.6961,59.1295
79.7906,59.4327
79.8700,59.6091
79.9210,59.7224
80.0853,59.9942
80.2812,60.2442
80.5058,60.4688
80.7558,60.6647
81.0276,60.8290
81.3173,60.9594
81.3173,60.9594
81.3173,60.9594
81.3476,60.9688
81.6205,61.0539
81.9330,61.1111
82.2500,61.1303
82.5670,61.1111
82.8795,61.0539
83.1827,60.9594
83.4724,60.8290
83.7442,60.6647
83.9942,60.4688
84.2188,60.2442
84.4147,59.9942
84.5790,59.7224
84.7094,59.4327
84.8039,59.1295
84.8611,58.8170
84.8803,58.5000
84.8611,58.1830
84.8039,57.8705
84.7094,57.5673
84.5790,57.2776
84.4147,57.0058
84.2188,56.7558
83.9942,56.5312
83.7442,56.3353
83.4724,56.1710
83.4724,56.1710
83.4724,56.1710
83.1827,56.0406
82.8795,55.9461
82.5670,55.8889
82.2500,55.8697
81.9330,55.8889
81.6205,55.9461
81.3173,56.0406
81.0276,56.1710
81.0276,56.1710
80.7558,56.3353
80.7558,56.3353
80.7490,56.3406
80.6945,56.3558
80.6511,56.3347
77.2722,52.9558
77.2505,52.9035
77.2505,25.1664
77.2399,25.1268
77.2399,25.1268
77.2232,25.0646
77.2232,25.0645
77.1705,24.9732
77.1705,24.9732
77.1705,24.9732
70.6759,18.4787
70.6543,18.4263
70.6759,18.3740
70.7283,18.3523
70.7501,18.3556
70.9028,18.4027
70.9028,18.4027
71.1348,18.4377
71.1533,18.4405
71.1533,18.4405
71.4067,18.4405
71.4067,18.4405
71.6572,18.4027
71.8821,18.3334
71.9385,18.3387
71.9562,18.3518
77.8278,24.2234
77.8495,24.2757
77.8495,45.9473
77.8495,46.0527
77.8651,46.1110
77.8768,46.1546
77.8768,46.1546
77.9295,46.2459
77.9295,46.2459
77.9295,46.2459
79.0102,47.3266
80.0847,48.4011
80.1064,48.4534
80.0906,48.4990
80.0853,48.5058
80.0853,48.5058
79.9210,48.7776
79.9210,48.7776
79.7906,49.0673
79.6961,49.3705
79.6389,49.6830
79.6197,50.0000
79.6389,50.3170
79.6961,50.6295
79.7906,50.9327
79.7906,50.9327
79.7906,50.9327
79.9210,51.2224
80.0853,51.4942
80.2812,51.7442
80.5058,51.9688
80.7558,52.1647
81.0276,52.3290
81.3173,52.4594
81.6205,52.5539
81.9330,52.6111
82.2500,52.6303
82.5670,52.6111
82.8795,52.5539
83.1827,52.4594
83.4724,52.3290
83.7442,52.1647
83.9942,51.9688
84.2188,51.7442
84.4147,51.4942
84.5790,51.2224
84.7094,50.9327
84.8039,50.6295
84.8611,50.3170
84.8803,50.0000
84.8611,49.6830
84.8039,49.3705
84.7094,49.0673
84.5790,48.7776
84.4147,48.5058
84.2188,48.2558
83.9942,48.0312
83.7442,47.8353
83.4724,47.6710
83.4724,47.6710
83.4724,47.6710
83.1827,47.5406
82.8795,47.4461
82.5670,47.3889
82.2500,47.3697
81.9330,47.3889
81.6205,47.4461
81.3173,47.5406
81.0276,47.6710
81.0276,47.6710
80.7558,47.8353
80.7558,47.8353
80.7490,47.8406
80.6945,47.8558
80.6511,47.8347
78.6722,45.8558
78.6505,45.8035
78.6505,41.0000
79.6197,41.0000
79.6389,41.3170
79.6961,41.6295
79.7906,41.9327
79.9005,42.1768
79.9210,42.2224
80.0853,42.4942
80.2812,42.7442
80.5058,42.9688
80.7558,43.1647
81.0276,43.3290
81.3173,43.4594
81.6205,43.5539
81.9330,43.6111
82.2500,43.6303
82.5670,43.6111
82.8795,43.5539
83.1827,43.4594
83.4724,43.3290
83.7442,43.1647
83.9942,42.9688
84.2188,42.7442
84.4147,42.4942
84.5790,42.2224
84.7094,41.9327
84.8039,41.6295
84.8611,41.3170
84.8803,41.0000
84.8611,40.6830
84.8039,40.3705
84.7094,40.0673
84.5790,39.7776
84.4147,39.5058
84.2188,39.2558
83.9942,39.0312
83.7442,38.8353
83.4724,38.6710
83.4724,38.6710
83.4724,38.6710
83.1827,38.5406
82.8795,38.4461
82.5670,38.3889
82.2500,38.3697
81.9330,38.3889
81.6205,38.4461
81.3173,38.5406
81.0276,38.6710
81.0276,38.6710
80.7558,38.8353
80.5058,39.0312
80.2812,39.2558
80.0853,39.5058
79.9210,39.7776
79.9210,39.7776
79.7906,40.0673
79.6961,40.3705
79.6389,40.6830
79.6197,41.0000
78.6505,41.0000
78.6505,31.0000
79.2796,31.0000
79.2991,31.3096
79.2991,31.3096
79.3572,31.6143
79.3572,31.6144
79.4531,31.9094
79.4531,31.9094
79.5852,32.1901
79.7514,32.4520
79.7514,32.4520
79.7863,32.4942
79.9492,32.6911
79.9492,32.6911
80.1637,32.8925
80.1753,32.9035
80.4263,33.0858
80.6982,33.2353
80.7806,33.2679
80.9866,33.3495
80.9866,33.3495
80.9866,33.3495
80.9866,33.3495
80.9866,33.3495
81.1275,33.3856
81.2871,33.4266
81.5949,33.4655
81.5949,33.4655
81.9051,33.4655
81.9051,33.4655
82.2129,33.4266
82.5134,33.3495
82.5134,33.3495
82.5134,33.3495
82.6325,33.3023
82.8018,33.2353
83.0737,33.0858
83.3247,32.9035
83.5508,32.6911
83.7486,32.4520
83.9148,32.1901
84.0469,31.9094
84.1428,31.6144
84.2009,31.3096
84.2204,31.0000
84.2009,30.6904
84.1696,30.5265
84.1428,30.3857
84.1428,30.3856
84.0469,30.0906
84.0469,30.0906
83.9148,29.8099
83.7486,29.5480
83.7486,29.5480
83.5508,29.3089
83.5508,29.3089
83.3247,29.0965
83.3247,29.0965
83.0737,28.9142
83.0057,28.8768
82.8018,28.7647
82.8018,28.7647
82.5134,28.6505
82.5134,28.6505
82.2129,28.5734
82.1103,28.5604
81.9051,28.5345
81.5949,28.5345
81.4190,28.5567
81.2871,28.5734
80.9866,28.6505
80.9866,28.6505
80.6982,28.7647
80.6982,28.7647
80.4263,28.9142
80.1753,29.0965
80.1753,29.0965
79.9492,29.3089
79.9492,29.3089
79.7514,29.5479
79.7514,29.5480
79.5852,29.8099
79.4531,30.0906
79.4531,30.0906
79.3572,30.3856
79.3572,30.3857
79.2991,30.6904
79.2991,30.6904
79.2796,31.0000
78.6505,31.0000
78.6505,24.1378
78.6505,24.1378
78.6505,24.0264
78.6505,24.0264
78.6232,23.9246
78.6232,23.9245
78.6091,23.9001
78.5705,23.8332
78.4959,23.7587
78.4933,23.7561
78.4933,23.7561
73.2159,18.4787
73.1943,18.4263
73.2159,18.3740
73.2683,18.3523
73.2901,18.3556
73.4428,18.4027
73.4428,18.4027
73.6748,18.4377
73.6933,18.4405
73.6933,18.4405
73.9467,18.4405
73.9467,18.4405
74.1972,18.4027
74.1972,18.4027
74.1972,18.4027
74.1972,18.4027
74.2059,18.4001
74.2623,18.4053
74.2801,18.4184
77.7821,21.9205
77.8734,21.9732
77.9753,22.0005
78.0807,22.0005
83.4035,22.0005
83.4558,22.0222
88.4028,26.9692
88.4245,27.0215
88.4245,59.7223
88.4245,59.8277
88.4518,59.9296
88.4518,59.9296
88.5045,60.0209
88.5045,60.0209
88.5045,60.0209
91.2786,62.7950
92.3567,63.8730
92.3783,63.9254
92.3626,63.9710
92.3353,64.0058
92.1710,64.2776
92.1710,64.2776
92.0406,64.5673
91.9461,64.8705
91.8889,65.1830
91.8697,65.5000
91.8889,65.8170
91.9461,66.1295
92.0406,66.4327
92.1669,66.7132
92.1710,66.7224
92.3353,66.9942
92.5312,67.2442
92.7558,67.4688
93.0058,67.6647
93.2776,67.8290
93.5673,67.9594
93.8705,68.0539
94.1830,68.1111
94.5000,68.1303
94.8170,68.1111
95.1295,68.0539
95.4327,67.9594
95.7224,67.8290
95.9942,67.6647
96.2442,67.4688
96.4688,67.2442
96.6647,66.9942
96.8290,66.7224
96.9594,66.4327
97.0539,66.1295
97.0776,66.0000
118.0450,66.0000
118.0651,66.3589
118.0651,66.3589
118.1253,66.7132
118.2248,67.0586
118.3624,67.3906
118.3624,67.3906
118.5362,67.7052
118.5362,67.7052
118.7442,67.9983
118.8502,68.1169
119.9855,66.9817
120.0296,67.0423
120.2077,67.2204
120.2683,67.2645
119.1331,68.3998
119.2517,68.5058
119.5448,68.7138
119.5448,68.7138
119.8594,68.8876
119.8594,68.8876
120.1914,69.0252
120.5368,69.1247
120.5368,69.1247
120.8911,69.1849
120.8911,69.1849
121.2500,69.2050
121.6089,69.1849
121.6089,69.1849
121.9632,69.1247
122.3086,69.0252
122.6406,68.8876
122.6406,68.8876
122.9552,68.7138
122.9552,68.7138
123.2483,68.5058
123.3669,68.3998
123.3669,68.3998
122.2317,67.2645
122.2923,67.2204
122.4704,67.0423
122.5145,66.9817
123.6498,68.1169
123.6498,68.1169
123.7558,67.9983
123.9638,67.7052
123.9638,67.7052
124.1376,67.3906
124.1376,67.3906
124.2752,67.0586
124.3747,66.7132
124.4349,66.3589
124.4349,66.3589
124.4550,66.0000
124.4349,65.6411
124.4349,65.6411
124.3747,65.2868
124.2752,64.9414
124.1376,64.6094
124.1376,64.6094
123.9638,64.2948
123.9638,64.2948
123.7558,64.0017
123.6498,63.8831
123.6498,63.8831
122.5145,65.0183
122.4704,64.9577
122.2923,64.7796
122.2317,64.7355
123.3669,63.6002
123.2483,63.4942
122.9552,63.2862
122.9552,63.2862
122.6406,63.1124
122.6406,63.1124
122.3086,62.9748
121.9632,62.8753
121.9632,62.8753
121.6089,62.8151
121.6089,62.8151
121.2500,62.7950
120.8911,62.8151
120.8911,62.8151
120.5368,62.8753
120.1914,62.9748
119.8594,63.1124
119.8594,63.1124
119.5448,63.2862
119.5448,63.2862
119.2517,63.4942
119.1331,63.6002
120.2683,64.7355
120.2077,64.7796
120.0296,64.9577
119.9855,65.0183
118.8502,63.8831
118.7442,64.0017
118.5362,64.2948
118.5362,64.2948
118.3624,64.6094
118.3624,64.6094
118.2248,64.9414
118.1253,65.2868
118.0651,65.6411
118.0651,65.6411
118.0450,66.0000
97.0776,66.0000
97.1111,65.8170
97.1303,65.5000
97.1111,65.1830
97.0539,64.8705
96.9685,64.5965
96.9736,64.5401
97.0171,64.5039
97.0391,64.5005
110.3159,64.5005
110.3159,64.5005
110.4432,64.4664
110.5573,64.4005
110.6505,64.3073
110.7164,64.1932
110.7505,64.0659
110.7505,64.0659
110.7505,25.9341
110.7505,25.9341
110.7164,25.8068
110.7164,25.8068
110.6505,25.6927
110.5573,25.5995
110.4432,25.5336
110.4432,25.5336
110.3159,25.4995
110.3159,25.4995
96.8159,25.4995
96.6841,25.4995
96.6841,25.4995
96.5568,25.5336
96.5568,25.5336
96.4427,25.5995
96.3495,25.6927
96.2836,25.8068
96.2836,25.8068
96.2495,25.9341
96.2495,63.3834
96.2278,63.4357
96.1755,63.4574
96.1299,63.4416
95.9942,63.3353
95.9130,63.2862
95.7224,63.1710
95.7224,63.1710
95.7224,63.1710
95.4327,63.0406
95.1295,62.9461
94.8170,62.8889
94.5000,62.8697
94.1830,62.8889
93.8705,62.9461
93.5673,63.0406
93.2776,63.1710
93.2776,63.1710
93.1029,63.2766
93.0870,63.2862
93.0217,63.3257
92.9657,63.3342
92.9311,63.3147
89.2472,59.6308
89.2255,59.5785
89.2255,26.7723
89.1982,26.6704
89.1982,26.6704
89.1455,26.5791
89.1455,26.5791
89.1455,26.5791
83.8459,21.2795
83.8459,21.2795
83.8459,21.2795
83.7546,21.2268
83.7546,21.2268
83.6527,21.1995
83.6527,21.1995
78.2246,21.1995
78.1722,21.1778
75.0313,18.0369
75.0096,17.9846
75.0313,17.9322
75.0333,17.9304
75.0397,17.9244
75.0928,17.9047
75.1403,17.9244
75.3030,18.0754
75.5124,18.2181
75.7407,18.3281
75.8749,18.3695
75.9828,18.4027
75.9828,18.4027
76.2148,18.4377
76.2333,18.4405
76.2514,18.4405
76.3037,18.4622
78.2848,20.4433
78.2849,20.4433
78.2874,20.4459
78.3620,20.5205
78.4533,20.5732
78.4533,20.5732
78.4533,20.5732
78.5043,20.5869
78.5552,20.6005
78.5552,20.6005
78.5552,20.6005
78.6652,20.6005
78.6652,20.6005
84.3285,20.6005
84.3808,20.6222
89.8028,26.0442
89.8245,26.0965
89.8245,52.6723
89.8245,52.7777
89.8518,52.8796
89.8518,52.8796
89.9045,52.9709
89.9045,52.9709
89.9045,52.9709
90.6046,53.6710
91.1945,54.2609
91.2162,54.3132
91.2004,54.3589
91.0853,54.5058
90.9210,54.7776
90.9210,54.7776
90.7906,55.0673
90.6961,55.3705
90.6389,55.6830
90.6197,56.0000
90.6389,56.3170
90.6961,56.6295
90.7906,56.9327
90.7906,56.9327
90.7906,56.9327
90.9210,57.2224
91.0853,57.4942
91.2812,57.7442
91.5058,57.9688
91.7558,58.1647
92.0276,58.3290
92.3173,58.4594
92.6205,58.5539
92.9330,58.6111
93.2500,58.6303
93.5670,58.6111
93.8795,58.5539
94.1827,58.4594
94.4724,58.3290
94.7442,58.1647
94.9942,57.9688
95.2188,57.7442
95.4147,57.4942
95.5790,57.2224
95.7094,56.9327
95.8039,56.6295
95.8611,56.3170
95.8803,56.0000
95.8611,55.6830
95.8039,55.3705
95.7094,55.0673
95.5790,54.7776
95.4147,54.5058
95.2188,54.2558
94.9942,54.0312
94.7442,53.8353
94.4724,53.6710
94.4724,53.6710
94.4724,53.6710
94.1827,53.5406
93.8795,53.4461
93.5670,53.3889
93.2500,53.3697
92.9330,53.3889
92.6205,53.4461
92.3173,53.5406
92.0276,53.6710
91.8964,53.7504
91.8404,53.7589
91.8057,53.7393
90.6472,52.5808
90.6255,52.5285
90.6255,47.8890
90.6472,47.8367
90.6995,47.8150
90.7518,47.8367
90.7701,47.8670
90.7906,47.9327
90.7906,47.9327
90.7906,47.9327
90.9210,48.2224
91.0853,48.4942
91.2812,48.7442
91.5058,48.9688
91.7558,49.1647
92.0276,49.3290
92.3173,49.4594
92.6205,49.5539
92.9330,49.6111
93.2500,49.6303
93.5670,49.6111
93.8795,49.5539
94.1827,49.4594
94.4724,49.3290
94.7442,49.1647
94.9942,48.9688
95.2188,48.7442
95.4147,48.4942
95.5790,48.2224
95.7094,47.9327
95.8039,47.6295
95.8611,47.3170
95.8803,47.0000
95.8611,46.6830
95.8039,46.3705
95.7366,46.1546
95.7094,46.0673
95.7094,46.0673
95.7094,46.0673
95.5790,45.7776
95.4147,45.5058
95.2188,45.2558
94.9942,45.0312
94.7442,44.8353
94.4724,44.6710
94.4724,44.6710
94.4724,44.6710
94.1827,44.5406
93.8795,44.4461
93.5670,44.3889
93.2500,44.3697
92.9330,44.3889
92.6205,44.4461
92.3173,44.5406
92.0276,44.6710
92.0276,44.6710
91.7558,44.8353
91.5058,45.0312
91.2812,45.2558
91.0853,45.5058
90.9210,45.7776
90.9210,45.7776
90.7906,46.0673
90.7701,46.1330
90.7339,46.1765
90.6775,46.1816
90.6340,46.1454
90.6255,46.1110
90.6255,38.8890
90.6472,38.8367
90.6995,38.8150
90.7518,38.8367
90.7701,38.8670
90.7906,38.9327
90.7906,38.9327
90.7906,38.9327
90.9210,39.2224
91.0853,39.4942
91.2812,39.7442
91.5058,39.9688
91.7558,40.1647
92.0276,40.3290
92.3173,40.4594
92.6205,40.5539
92.9330,40.6111
93.2500,40.6303
93.5670,40.6111
93.8795,40.5539
94.1827,40.4594
94.4724,40.3290
94.7442,40.1647
94.9942,39.9688
95.2188,39.7442
95.4147,39.4942
95.5790,39.2224
95.7094,38.9327
95.8039,38.6295
95.8611,38.3170
95.8803,38.0000
95.8611,37.6830
95.8039,37.3705
95.7434,37.1765
95.7094,37.0673
95.7094,37.0673
95.7094,37.0673
95.5790,36.7776
95.4147,36.5058
95.2188,36.2558
94.9942,36.0312
94.7442,35.8353
94.4724,35.6710
94.4724,35.6710
94.4724,35.6710
94.1827,35.5406
93.8795,35.4461
93.5670,35.3889
93.2500,35.3697
92.9330,35.3889
92.6205,35.4461
92.3173,35.5406
92.0276,35.6710
92.0276,35.6710
91.7558,35.8353
91.5058,36.0312
91.2812,36.2558
91.0853,36.5058
90.9210,36.7776
90.9210,36.7776
90.7906,37.0673
90.7701,37.1330
90.7339,37.1765
90.6775,37.1816
90.6340,37.1454
90.6255,37.1110
90.6255,25.8473
90.5982,25.7454
90.5982,25.7454
90.5455,25.6541
90.5455,25.6541
90.5455,25.6541
84.7709,19.8795
84.7709,19.8795
84.7709,19.8795
84.6796,19.8268
84.6796,19.8268
84.5777,19.7995
84.5777,19.7995
78.8045,19.7995
78.7521,19.7778
77.2617,18.2874
77.2401,18.2351
77.2617,18.1828
77.2724,18.1740
77.4170,18.0754
77.5797,17.9244
77.6328,17.9047
77.6803,17.9244
77.8430,18.0754
78.0524,18.2181
78.2807,18.3281
78.4149,18.3695
78.5228,18.4027
78.5228,18.4027
78.7548,18.4377
78.7733,18.4405
78.7733,18.4405
79.0267,18.4405
79.0267,18.4405
79.2772,18.4027
79.5021,18.3334
79.5585,18.3387
79.5762,18.3518
80.3449,19.1205
80.4363,19.1732
80.5381,19.2005
84.9084,19.2005
84.9607,19.2222
87.8090,22.0705
87.9003,22.1232
88.0022,22.1505
110.0535,22.1505
110.1058,22.1722
113.5778,25.6442
113.5995,25.6965
113.5995,43.9473
113.5995,44.0527
113.6268,44.1546
113.6268,44.1546
113.6795,44.2459
113.6795,44.2459
113.6795,44.2459
115.8041,46.3705
117.8347,48.4011
117.8564,48.4534
117.8406,48.4990
117.8353,48.5058
117.8353,48.5058
117.6710,48.7776
117.6710,48.7776
117.5406,49.0673
117.4461,49.3705
117.3889,49.6830
117.3697,50.0000
117.3889,50.3170
117.4461,50.6295
117.5406,50.9327
117.5406,50.9327
117.5406,50.9327
117.6710,51.2224
117.8353,51.4942
118.0312,51.7442
118.2558,51.9688
118.5058,52.1647
118.7776,52.3290
119.0673,52.4594
119.3705,52.5539
119.6830,52.6111
120.0000,52.6303
120.3170,52.6111
120.6295,52.5539
120.9327,52.4594
121.2224,52.3290
121.4942,52.1647
121.7442,51.9688
121.9688,51.7442
122.1647,51.4942
122.3290,51.2224
122.4594,50.9327
122.5539,50.6295
122.6111,50.3170
122.6303,50.0000
122.6111,49.6830
122.5539,49.3705
122.4594,49.0673
122.3290,48.7776
122.1647,48.5058
121.9688,48.2558
121.7442,48.0312
121.4942,47.8353
121.2224,47.6710
121.2224,47.6710
121.2224,47.6710
120.9327,47.5406
120.6295,47.4461
120.3170,47.3889
120.0000,47.3697
119.6830,47.3889
119.3705,47.4461
119.0673,47.5406
118.7776,47.6710
118.7776,47.6710
118.5058,47.8353
118.5058,47.8353
118.4990,47.8406
118.4445,47.8558
118.4011,47.8347
114.4222,43.8558
114.4005,43.8035
114.4005,41.0000
117.3697,41.0000
117.3889,41.3170
117.4461,41.6295
117.5406,41.9327
117.6505,42.1768
117.6710,42.2224
117.8353,42.4942
118.0312,42.7442
118.2558,42.9688
118.5058,43.1647
118.7776,43.3290
119.0673,43.4594
119.3705,43.5539
119.6830,43.6111
120.0000,43.6303
120.3170,43.6111
120.6295,43.5539
120.9327,43.4594
121.2224,43.3290
121.4942,43.1647
121.7442,42.9688
121.9688,42.7442
122.1647,42.4942
122.3290,42.2224
122.4594,41.9327
122.5539,41.6295
122.6111,41.3170
122.6303,41.0000
122.6111,40.6830
122.5539,40.3705
122.4594,40.0673
122.3290,39.7776
122.1647,39.5058
121.9688,39.2558
121.7442,39.0312
121.4942,38.8353
121.2224,38.6710
121.2224,38.6710
121.2224,38.6710
120.9327,38.5406
120.6295,38.4461
120.3170,38.3889
120.0000,38.3697
119.6830,38.3889
119.3705,38.4461
119.0673,38.5406
118.7776,38.6710
118.7776,38.6710
118.5058,38.8353
118.2558,39.0312
118.0312,39.2558
117.8353,39.5058
117.6710,39.7776
117.6710,39.7776
117.5406,40.0673
117.4461,40.3705
117.3889,40.6830
117.3697,41.0000
114.4005,41.0000
114.4005,31.0000
116.3697,31.0000
116.3889,31.3170
116.4461,31.6295
116.5406,31.9327
116.5406,31.9327
116.5406,31.9327
116.6710,32.2224
116.8353,32.4942
117.0312,32.7442
117.2558,32.9688
117.5058,33.1647
117.7776,33.3290
118.0673,33.4594
118.3705,33.5539
118.6830,33.6111
119.0000,33.6303
119.3170,33.6111
119.6295,33.5539
119.9327,33.4594
120.2224,33.3290
120.4942,33.1647
120.7442,32.9688
120.9688,32.7442
121.1647,32.4942
121.3290,32.2224
121.4594,31.9327
121.5539,31.6295
121.6111,31.3170
121.6303,31.0000
121.6111,30.6830
121.5539,30.3705
121.4681,30.0954
121.4594,30.0673
121.4594,30.0673
121.4594,30.0673
121.3290,29.7776
121.1647,29.5058
120.9688,29.2558
120.7442,29.0312
120.4942,28.8353
120.2224,28.6710
120.2224,28.6710
120.2224,28.6710
120.0295,28.5842
119.9327,28.5406
119.9327,28.5406
119.9327,28.5406
119.6295,28.4461
119.3170,28.3889
119.0000,28.3697
118.6830,28.3889
118.3705,28.4461
118.0673,28.5406
117.7776,28.6710
117.7776,28.6710
117.5058,28.8353
117.2558,29.0312
117.0312,29.2558
116.8353,29.5058
116.6710,29.7776
116.6710,29.7776
116.5406,30.0673
116.4461,30.3705
116.3889,30.6830
116.3697,31.0000
114.4005,31.0000
114.4005,25.4473
114.4005,25.4473
114.3732,25.3454
114.3205,25.2541
110.4959,21.4295
110.4959,21.4295
110.4959,21.4295
110.4046,21.3768
110.4046,21.3768
110.3377,21.3589
110.3027,21.3495
110.3027,21.3495
88.2514,21.3495
88.1991,21.3278
86.8127,19.9414
85.3508,18.4795
85.3508,18.4795
85.3508,18.4795
85.2595,18.4268
85.2595,18.4268
85.1922,18.4088
85.1576,18.3995
85.1576,18.3995
82.2352,18.3995
82.1829,18.3778
82.1612,18.3255
82.1829,18.2732
82.2031,18.2588
82.2876,18.2181
82.3679,18.1634
82.4096,18.1505
82.4973,18.1505
82.4973,18.1505
112.0535,18.1505
112.1058,18.1722
123.3278,29.3942
123.3495,29.4465
123.3495,55.0535
123.3278,55.1058
121.5989,56.8347
121.5466,56.8564
121.5010,56.8406
121.4942,56.8353
121.4942,56.8353
121.4942,56.8353
121.4942,56.8353
121.2224,56.6710
121.2224,56.6710
121.2224,56.6710
121.2224,56.6710
120.9327,56.5406
120.6295,56.4461
120.3170,56.3889
120.0000,56.3697
119.6830,56.3889
119.3705,56.4461
119.0673,56.5406
118.7776,56.6710
118.7776,56.6710
118.5058,56.8353
118.2558,57.0312
118.0312,57.2558
117.8353,57.5058
117.6710,57.7776
117.6710,57.7776
117.5406,58.0673
117.4461,58.3705
117.3889,58.6830
117.3697,59.0000
117.3889,59.3170
117.4461,59.6295
117.5406,59.9327
117.5406,59.9327
117.5406,59.9327
117.6710,60.2224
117.8353,60.4942
118.0312,60.7442
118.2558,60.9688
118.5058,61.1647
118.7776,61.3290
119.0673,61.4594
119.3705,61.5539
119.6830,61.6111
120.0000,61.6303
120.3170,61.6111
120.6295,61.5539
120.9327,61.4594
121.2224,61.3290
121.4942,61.1647
121.7442,60.9688
121.9688,60.7442
122.1647,60.4942
122.3290,60.2224
122.4594,59.9327
122.5539,59.6295
122.6111,59.3170
122.6303,59.0000
122.6111,58.6830
122.5539,58.3705
122.4594,58.0673
122.3290,57.7776
122.1647,57.5058
122.1594,57.4990
122.1442,57.4445
122.1653,57.4011
124.0705,55.4959
124.1232,55.4046
124.1505,55.3027
124.1505,55.1973
124.1505,29.1973
124.1391,29.1546
124.1232,29.0954
124.0705,29.0041
116.0664,21.0000
118.0450,21.0000
118.0651,21.3589
118.0651,21.3589
118.1253,21.7132
118.2248,22.0586
118.3624,22.3906
118.3624,22.3906
118.5362,22.7052
118.5362,22.7052
118.7442,22.9983
118.8502,23.1169
119.9855,21.9817
120.0296,22.0423
120.2077,22.2204
120.2683,22.2645
119.1331,23.3998
119.2517,23.5058
119.5448,23.7138
119.5448,23.7138
119.8594,23.8876
119.8594,23.8876
120.1914,24.0252
120.5368,24.1247
120.5368,24.1247
120.8911,24.1849
120.8911,24.1849
121.2500,24.2050
121.6089,24.1849
121.6089,24.1849
121.9632,24.1247
122.3086,24.0252
122.6406,23.8876
122.6406,23.8876
122.9552,23.7138
122.9552,23.7138
123.2483,23.5058
123.3669,23.3998
123.3669,23.3998
122.2317,22.2645
122.2923,22.2204
122.4704,22.0423
122.5145,21.9817
123.6498,23.1169
123.6498,23.1169
123.7558,22.9983
123.9638,22.7052
123.9638,22.7052
124.1376,22.3906
124.1376,22.3906
124.2752,22.0586
124.3747,21.7132
124.4349,21.3589
124.4349,21.3589
124.4550,21.0000
124.4349,20.6411
124.4349,20.6411
124.3747,20.2868
124.2752,19.9414
124.1376,19.6094
124.1376,19.6094
123.9638,19.2948
123.9638,19.2948
123.7558,19.0017
123.6498,18.8831
123.6498,18.8831
122.5145,20.0183
122.4704,19.9577
122.2923,19.7796
122.2317,19.7355
123.3669,18.6002
123.2483,18.4942
122.9552,18.2862
122.9552,18.2862
122.6406,18.1124
122.6406,18.1124
122.3086,17.9748
121.9632,17.8753
121.9632,17.8753
121.6089,17.8151
121.6089,17.8151
121.2500,17.7950
120.8911,17.8151
120.8911,17.8151
120.5368,17.8753
120.1914,17.9748
119.8594,18.1124
119.8594,18.1124
119.5448,18.2862
119.5448,18.2862
119.2517,18.4942
119.1331,18.6002
120.2683,19.7355
120.2077,19.7796
120.0296,19.9577
119.9855,20.0183
118.8502,18.8831
118.7442,19.0017
118.5362,19.2948
118.5362,19.2948
118.3624,19.6094
118.3624,19.6094
118.2248,19.9414
118.1253,20.2868
118.0651,20.6411
118.0651,20.6411
118.0450,21.0000
116.0664,21.0000
112.4959,17.4295
112.4959,17.4295
112.4959,17.4295
112.4046,17.3768
112.4046,17.3768
112.3027,17.3495
112.3027,17.3495
83.1293,17.3495
83.0770,17.3278
83.0553,17.2755
83.0596,17.2525
83.0591,17.2523
83.0599,17.2497
83.1163,17.0027
83.1352,16.7500
83.1163,16.4973
83.0599,16.2503
82.9674,16.0145
82.8407,15.7950
82.6827,15.5969
82.6151,15.5342
82.5915,15.4828
82.6112,15.4297
82.6151,15.4258
82.6827,15.3631
82.8407,15.1650
82.9674,14.9455
83.0599,14.7097
83.1163,14.4627
83.1352,14.2100
83.1163,13.9573
83.0599,13.7103
82.9674,13.4745
82.8407,13.2550
82.6827,13.0569
82.6809,13.0553
82.6411,13.0183
82.4970,12.8846
82.2876,12.7419
82.1685,12.6845
82.0593,12.6319
82.0593,12.6319
82.0593,12.6319
82.0593,12.6319
82.0593,12.6319
81.8172,12.5573
81.8172,12.5573
81.5667,12.5195
81.5667,12.5195
81.3133,12.5195
81.3133,12.5195
81.0628,12.5573
80.8207,12.6319
80.8207,12.6319
80.5924,12.7419
80.5924,12.7419
80.3830,12.8846
80.3830,12.8846
80.2203,13.0356
80.1672,13.0553
80.1197,13.0356
80.0713,12.9907
79.9570,12.8846
79.7476,12.7419
79.6285,12.6845
79.5193,12.6319
79.5193,12.6319
79.5193,12.6319
79.5193,12.6319
79.5193,12.6319
79.2772,12.5573
79.2772,12.5573
79.0267,12.5195
79.0267,12.5195
78.7733,12.5195
78.7733,12.5195
78.5228,12.5573
78.2807,12.6319
78.2807,12.6319
78.0524,12.7419
78.0524,12.7419
77.8430,12.8846
77.8430,12.8846
77.6803,13.0356
77.6272,13.0553
77.5797,13.0356
77.5313,12.9907
77.4170,12.8846
77.2076,12.7419
77.0885,12.6845
76.9793,12.6319
76.9793,12.6319
76.9793,12.6319
76.9793,12.6319
76.9793,12.6319
76.7372,12.5573
76.7372,12.5573
76.4867,12.5195
76.4867,12.5195
76.2333,12.5195
76.2333,12.5195
75.9828,12.5573
75.7407,12.6319
75.7407,12.6319
75.5124,12.7419
75.5124,12.7419
75.3030,12.8846
75.3030,12.8846
75.1403,13.0356
75.0872,13.0553
75.0397,13.0356
74.9913,12.9907
74.8770,12.8846
74.6676,12.7419
74.5485,12.6845
74.4393,12.6319
74.4393,12.6319
74.4393,12.6319
74.4393,12.6319
74.4393,12.6319
74.1972,12.5573
74.1972,12.5573
73.9467,12.5195
73.9467,12.5195
73.6933,12.5195
73.6933,12.5195
73.4428,12.5573
73.2007,12.6319
73.2007,12.6319
72.9724,12.7419
72.9724,12.7419
72.7630,12.8846
72.7630,12.8846
72.6003,13.0356
72.5472,13.0553
72.4997,13.0356
72.4513,12.9907
72.3370,12.8846
72.1276,12.7419
72.0085,12.6845
71.8993,12.6319
71.8993,12.6319
71.8993,12.6319
71.8993,12.6319
71.8993,12.6319
71.6572,12.5573
71.6572,12.5573
71.4067,12.5195
71.4067,12.5195
71.1533,12.5195
71.1533,12.5195
70.9028,12.5573
70.6607,12.6319
70.6607,12.6319
70.4324,12.7419
70.4324,12.7419
70.2230,12.8846
70.2230,12.8846
70.0603,13.0356
70.0072,13.0553
69.9597,13.0356
69.9113,12.9907
69.7970,12.8846
69.5876,12.7419
69.4685,12.6845
69.3593,12.6319
69.3593,12.6319
69.3593,12.6319
69.3593,12.6319
69.3593,12.6319
69.1172,12.5573
69.1172,12.5573
68.8667,12.5195
68.8667,12.5195
68.6133,12.5195
68.6133,12.5195
68.3628,12.5573
68.1207,12.6319
68.1207,12.6319
67.8924,12.7419
67.8924,12.7419
67.6830,12.8846
67.6830,12.8846
67.5203,13.0356
67.4672,13.0553
67.4197,13.0356
67.3713,12.9907
67.2570,12.8846
67.0476,12.7419
66.9285,12.6845
66.8193,12.6319
66.8193,12.6319
66.8193,12.6319
66.8193,12.6319
66.8193,12.6319
66.5772,12.5573
66.5772,12.5573
66.3267,12.5195
66.3267,12.5195
66.0733,12.5195
66.0733,12.5195
65.8228,12.5573
65.5807,12.6319
65.5807,12.6319
65.3524,12.7419
65.3524,12.7419
65.1430,12.8846
65.1430,12.8846
64.9803,13.0356
64.9272,13.0553
64.8797,13.0356
64.8313,12.9907
64.7170,12.8846
64.5076,12.7419
64.3885,12.6845
64.2793,12.6319
64.2793,12.6319
64.2793,12.6319
64.2793,12.6319
64.2793,12.6319
64.0372,12.5573
64.0372,12.5573
63.7867,12.5195
63.7867,12.5195
63.5333,12.5195
63.5333,12.5195
63.2828,12.5573
63.0407,12.6319
63.0407,12.6319
62.8124,12.7419
62.8124,12.7419
62.6030,12.8846
62.6030,12.8846
62.4403,13.0356
62.3872,13.0553
62.3397,13.0356
62.2913,12.9907
62.1770,12.8846
61.9676,12.7419
61.8485,12.6845
61.7393,12.6319
61.7393,12.6319
61.7393,12.6319
61.7393,12.6319
61.7393,12.6319
61.4972,12.5573
61.4972,12.5573
61.2467,12.5195
61.2467,12.5195
60.9933,12.5195
60.9933,12.5195
60.7428,12.5573
60.5007,12.6319
60.5007,12.6319
60.2724,12.7419
60.2724,12.7419
60.0630,12.8846
60.0630,12.8846
59.9003,13.0356
59.8472,13.0553
59.7997,13.0356
59.7513,12.9907
59.6370,12.8846
59.4276,12.7419
59.3085,12.6845
59.1993,12.6319
59.1993,12.6319
59.1993,12.6319
59.1993,12.6319
59.1993,12.6319
58.9572,12.5573
58.9572,12.5573
58.7067,12.5195
58.7067,12.5195
58.4533,12.5195
58.4533,12.5195
58.2028,12.5573
57.9607,12.6319
57.9607,12.6319
57.7324,12.7419
57.7324,12.7419
57.5230,12.8846
57.5230,12.8846
57.3603,13.0356
57.3072,13.0553
57.2597,13.0356
57.2113,12.9907
57.0970,12.8846
56.8876,12.7419
56.7685,12.6845
56.6593,12.6319
56.6593,12.6319
56.6593,12.6319
56.6593,12.6319
56.6593,12.6319
56.4172,12.5573
56.4172,12.5573
56.1667,12.5195
56.1667,12.5195
55.9133,12.5195
55.9133,12.5195
55.6628,12.5573
55.4207,12.6319
55.4207,12.6319
55.1924,12.7419
55.1924,12.7419
54.9830,12.8846
54.9830,12.8846
54.8203,13.0356
54.7672,13.0553
54.7197,13.0356
54.6713,12.9907
54.5570,12.8846
54.3476,12.7419
54.2285,12.6845
54.1193,12.6319
54.1193,12.6319
54.1193,12.6319
54.1193,12.6319
54.1193,12.6319
53.8772,12.5573
53.8772,12.5573
53.6267,12.5195
53.6267,12.5195
53.3733,12.5195
53.3733,12.5195
53.1228,12.5573
52.8807,12.6319
52.8807,12.6319
52.6524,12.7419
52.6524,12.7419
52.4430,12.8846
52.4430,12.8846
52.2573,13.0569
52.0993,13.2550
52.0993,13.2550
51.9726,13.4745
51.8801,13.7103
51.8801,13.7103
51.8801,13.7103
51.8237,13.9573
51.8048,14.2100
51.8237,14.4627
51.8801,14.7097
51.9726,14.9455
52.0993,15.1650
52.0993,15.1650
52.0993,15.1650
52.0993,15.1650
52.1016,15.1678
52.1173,15.2223
52.0901,15.2717
52.0522,15.3022
51.9376,15.4447
51.8564,15.6084
51.8123,15.7859
51.8095,15.8269
51.8095,15.8269
51.8095,16.5573
51.8095,17.2755
51.7878,17.3278
51.7355,17.3495
23.0527,17.3495
22.9473,17.3495
22.8963,17.3631
22.8454,17.3768
22.8454,17.3768
22.7541,17.4295
12.9295,27.2541
12.8768,27.3454
12.8768,27.3454
12.8495,27.4473
12.8495,50.6973
12.8495,50.8027
12.8768,50.9046
12.8768,50.9046
12.9295,50.9959
12.9295,50.9959
12.9295,50.9959
14.5639,52.6303
16.1945,54.2609
16.2162,54.3132
16.2004,54.3589
16.0853,54.5058
15.9210,54.7776
15.9210,54.7776
15.7906,55.0673
15.6961,55.3705
15.6389,55.6830
15.6197,56.0000
15.6389,56.3170
15.6961,56.6295
15.7906,56.9327
15.7906,56.9327
15.7906,56.9327
15.9210,57.2224
16.0853,57.4942
16.2812,57.7442
16.5058,57.9688
16.7558,58.1647
17.0276,58.3290
17.3173,58.4594
17.6205,58.5539
17.9330,58.6111
18.2500,58.6303
18.5670,58.6111
18.8795,58.5539
19.1827,58.4594
19.4724,58.3290
19.7442,58.1647
19.9942,57.9688
20.2188,57.7442
20.4147,57.4942
20.5790,57.2224
20.7094,56.9327
20.8039,56.6295
20.8611,56.3170
20.8803,56.0000
20.8611,55.6830
20.8039,55.3705
20.7094,55.0673
20.5790,54.7776
20.4147,54.5058
20.2188,54.2558
19.9942,54.0312
19.7442,53.8353
19.4724,53.6710
19.4724,53.6710
19.4724,53.6710
19.1827,53.5406
18.8795,53.4461
18.5670,53.3889
18.2500,53.3697
17.9330,53.3889
17.6205,53.4461
17.3173,53.5406
17.0276,53.6710
16.8964,53.7504
16.8404,53.7589
16.8057,53.7393
13.6722,50.6058
13.6505,50.5535
13.6505,47.0000
15.6197,47.0000
15.6389,47.3170
15.6961,47.6295
15.7906,47.9327
15.7906,47.9327
15.7906,47.9327
15.9210,48.2224
16.0853,48.4942
16.2812,48.7442
16.5058,48.9688
16.7558,49.1647
17.0276,49.3290
17.3173,49.4594
17.6205,49.5539
17.9330,49.6111
18.2500,49.6303
18.5670,49.6111
18.8795,49.5539
19.1827,49.4594
19.4724,49.3290
19.7442,49.1647
19.9942,48.9688
20.2188,48.7442
20.4147,48.4942
20.5790,48.2224
20.7094,47.9327
20.8039,47.6295
20.8611,47.3170
20.8803,47.0000
20.8611,46.6830
20.8039,46.3705
20.7366,46.1546
20.7094,46.0673
20.7094,46.0673
20.7094,46.0673
20.5790,45.7776
20.4147,45.5058
20.2188,45.2558
19.9942,45.0312
19.7442,44.8353
19.4724,44.6710
19.4724,44.6710
19.4724,44.6710
19.1827,44.5406
18.8795,44.4461
18.5670,44.3889
18.2500,44.3697
17.9330,44.3889
17.6205,44.4461
17.3173,44.5406
17.0276,44.6710
17.0276,44.6710
16.7558,44.8353
16.5058,45.0312
16.2812,45.2558
16.0853,45.5058
15.9210,45.7776
15.9210,45.7776
15.7906,46.0673
15.6961,46.3705
15.6389,46.6830
15.6197,47.0000
13.6505,47.0000
13.6505,38.0000
15.6197,38.0000
15.6389,38.3170
15.6961,38.6295
15.7906,38.9327
15.7906,38.9327
15.7906,38.9327
15.9210,39.2224
16.0853,39.4942
16.2812,39.7442
16.5058,39.9688
16.7558,40.1647
17.0276,40.3290
17.3173,40.4594
17.6205,40.5539
17.9330,40.6111
18.2500,40.6303
18.5670,40.6111
18.8795,40.5539
19.1827,40.4594
19.4724,40.3290
19.7442,40.1647
19.9942,39.9688
20.2188,39.7442
20.4147,39.4942
20.5790,39.2224
20.7094,38.9327
20.8039,38.6295
20.8611,38.3170
20.8803,38.0000
20.8611,37.6830
20.8039,37.3705
20.7434,37.1765
20.7094,37.0673
20.7094,37.0673
20.7094,37.0673
20.5790,36.7776
20.4147,36.5058
20.2188,36.2558
19.9942,36.0312
19.7442,35.8353
19.4724,35.6710
19.4724,35.6710
19.4724,35.6710
19.1827,35.5406
18.8795,35.4461
18.5670,35.3889
18.2500,35.3697
17.9330,35.3889
17.6205,35.4461
17.3173,35.5406
17.0276,35.6710
17.0276,35.6710
16.7558,35.8353
16.5058,36.0312
16.2812,36.2558
16.0853,36.5058
15.9210,36.7776
15.9210,36.7776
15.7906,37.0673
15.6961,37.3705
15.6389,37.6830
15.6197,38.0000
13.6505,38.0000
13.6505,27.6965
13.6722,27.6442
23.1442,18.1722
23.1965,18.1505
51.9787,18.1505
52.0310,18.1722
52.0363,18.1781
52.0522,18.1978
52.0522,18.1978
52.0522,18.1978
52.1947,18.3124
52.3584,18.3936
52.5359,18.4377
52.5769,18.4405
54.4231,18.4405
54.4641,18.4377
54.5805,18.4088
54.6365,18.4172
54.6702,18.4627
54.6618,18.5187
54.6507,18.5329
51.8558,21.3278
51.8035,21.3495
45.9473,21.3495
45.8454,21.3768
45.8454,21.3768
45.7541,21.4295
38.4295,28.7541
38.3768,28.8454
38.3768,28.8454
38.3684,28.8768
38.3684,28.8768
38.3495,28.9473
38.3495,63.8035
38.3278,63.8558
35.4808,66.7028
35.4285,66.7245
21.9425,66.7245
21.8902,66.7028
21.8685,66.6505
21.8750,66.6201
21.8777,66.6142
21.9594,66.4327
22.0539,66.1295
22.1111,65.8170
22.1303,65.5000
22.1111,65.1830
22.0539,64.8705
21.9685,64.5965
21.9736,64.5401
22.0171,64.5039
22.0391,64.5005
35.3159,64.5005
35.3159,64.5005
35.4432,64.4664
35.5573,64.4005
35.6505,64.3073
35.7164,64.1932
35.7505,64.0659
35.7505,64.0659
35.7505,25.9341
35.7505,25.9341
35.7164,25.8068
35.7164,25.8068
35.6505,25.6927
35.5573,25.5995
35.4432,25.5336
35.4432,25.5336
35.3159,25.4995
35.3159,25.4995
21.8159,25.4995
21.6841,25.4995
21.6841,25.4995
21.5568,25.5336
21.5568,25.5336
21.4427,25.5995
21.3495,25.6927
21.2836,25.8068
21.2836,25.8068
21.2495,25.9341
21.2495,63.3834
21.2278,63.4357
21.1755,63.4574
21.1299,63.4416
20.9942,63.3353
20.9130,63.2862
20.7224,63.1710
20.7224,63.1710
20.7224,63.1710
20.4327,63.0406
20.1295,62.9461
19.8170,62.8889
19.5000,62.8697
19.1830,62.8889
18.8705,62.9461
18.5673,63.0406
18.2776,63.1710
18.2776,63.1710
18.0058,63.3353
17.7558,63.5312
17.5312,63.7558
17.3353,64.0058
17.1710,64.2776
17.1710,64.2776
17.0406,64.5673
16.9461,64.8705
16.9285,64.9669
16.8977,65.0145
16.8423,65.0263
16.7948,64.9956
16.7846,64.9740
16.7752,64.9414
16.6376,64.6094
16.6376,64.6094
16.4638,64.2948
16.4638,64.2948
16.2558,64.0017
16.1498,63.8831
16.1498,63.8831
15.0145,65.0183
14.9704,64.9577
14.7923,64.7796
14.7317,64.7355
15.8669,63.6002
15.7483,63.4942
15.4552,63.2862
15.4552,63.2862
15.1406,63.1124
15.1406,63.1124
14.8086,62.9748
14.4632,62.8753
14.4632,62.8753
14.1089,62.8151
14.1089,62.8151
13.7500,62.7950
13.3911,62.8151
13.3911,62.8151
13.0368,62.8753
12.6914,62.9748
12.3594,63.1124
12.3594,63.1124
12.0448,63.2862
12.0448,63.2862
11.7517,63.4942
11.6331,63.6002
12.7683,64.7355
12.7077,64.7796
12.5296,64.9577
12.4855,65.0183
11.3502,63.8831
11.2442,64.0017
11.0362,64.2948
11.0362,64.2948
10.8624,64.6094
10.8624,64.6094
10.7248,64.9414
10.6253,65.2868
10.5651,65.6411
10.5651,65.6411
10.5450,66.0000
10.0005,66.0000
10.0005,21.0000
10.5450,21.0000
10.5651,21.3589
10.5651,21.3589
10.6253,21.7132
10.7248,22.0586
10.8624,22.3906
10.8624,22.3906
11.0362,22.7052
11.0362,22.7052
11.2442,22.9983
11.3502,23.1169
12.4855,21.9817
12.5296,22.0423
12.7077,22.2204
12.7683,22.2645
11.6331,23.3998
11.7517,23.5058
12.0448,23.7138
12.0448,23.7138
12.3594,23.8876
12.3594,23.8876
12.6914,24.0252
13.0368,24.1247
13.0368,24.1247
13.3911,24.1849
13.3911,24.1849
13.7500,24.2050
14.1089,24.1849
14.1089,24.1849
14.4632,24.1247
14.8086,24.0252
15.1406,23.8876
15.1406,23.8876
15.4552,23.7138
15.4552,23.7138
15.7483,23.5058
15.8669,23.3998
15.8669,23.3998
14.7317,22.2645
14.7923,22.2204
14.9704,22.0423
15.0145,21.9817
16.1498,23.1169
16.1498,23.1169
16.2558,22.9983
16.4638,22.7052
16.4638,22.7052
16.6376,22.3906
16.6376,22.3906
16.7752,22.0586
16.8747,21.7132
16.9349,21.3589
16.9349,21.3589
16.9550,21.0000
16.9349,20.6411
16.9349,20.6411
16.8747,20.2868
16.7752,19.9414
16.6376,19.6094
16.6376,19.6094
16.4638,19.2948
16.4638,19.2948
16.2558,19.0017
16.1498,18.8831
16.1498,18.8831
15.0145,20.0183
14.9704,19.9577
14.7923,19.7796
14.7317,19.7355
15.8669,18.6002
15.7483,18.4942
15.4552,18.2862
15.4552,18.2862
15.1406,18.1124
15.1406,18.1124
14.8086,17.9748
14.4632,17.8753
14.4632,17.8753
14.1089,17.8151
14.1089,17.8151
13.7500,17.7950
13.3911,17.8151
13.3911,17.8151
13.0368,17.8753
12.6914,17.9748
12.3594,18.1124
12.3594,18.1124
12.0448,18.2862
12.0448,18.2862
11.7517,18.4942
11.6331,18.6002
12.7683,19.7355
12.7077,19.7796
12.5296,19.9577
12.4855,20.0183
11.3502,18.8831
11.2442,19.0017
11.0362,19.2948
11.0362,19.2948
10.8624,19.6094
10.8624,19.6094
10.7248,19.9414
10.6253,20.2868
10.5651,20.6411
10.5651,20.6411
10.5450,21.0000
10.0005,21.0000
10.0005,16.8245
10.0222,16.7722
10.0745,16.7505
42.5659,16.7505
42.5659,16.7505
42.6932,16.7164
42.8073,16.6505
42.9005,16.5573
42.9664,16.4432
43.0005,16.3159
43.0005,16.3159
43.0005,3.8245
43.0222,3.7722
43.0745,3.7505
91.9255,3.7505
Z" /> 
</g>
<g style="fill:#FFFFFF; fill-opacity:1.0000; stroke:none;">
<circle cx="55.7500" cy="38.0000" r="1.2450" /> 
</g>
<g style="fill:#FFFFFF; fill-opacity:1.0000; stroke:none;">
<circle cx="44.7500" cy="50.0000" r="1.2450" /> 
</g>
<g style="fill:#FFFFFF; fill-opacity:1.0000; stroke:none;">
<circle cx="44.7500" cy="59.0000" r="1.2450" /> 
</g>
<g style="fill:#FFFFFF; fill-opacity:1.0000; stroke:none;">
<circle cx="94.5000" cy="65.5000" r="1.2450" /> 
</g>
<g style="fill:#FFFFFF; fill-opacity:1.0000; stroke:none;">
<circle cx="121.2500" cy="66.0000" r="1.6000" /> 
</g>
<g style="fill:#FFFFFF; fill-opacity:1.0000; stroke:none;">
<circle cx="120.0000" cy="50.0000" r="1.2450" /> 
</g>
<g style="fill:#FFFFFF; fill-opacity:1.0000; stroke:none;">
<circle cx="13.7500" cy="21.0000" r="1.6000" /> 
</g>
<g style="fill:#FFFFFF; fill-opacity:1.0000; stroke:none;">
<circle cx="121.2500" cy="21.0000" r="1.6000" /> 
</g>
<g style="fill:#FFFFFF; fill-opacity:1.0000; stroke:none;">
<circle cx="13.7500" cy="66.0000" r="1.6000" /> 
</g>
<g style="fill:#FFFFFF; fill-opacity:1.0000; stroke:none;">
<circle cx="55.7500" cy="56.0000" r="1.2450" /> 
</g>
<g style="fill:#FFFFFF; fill-opacity:1.0000; stroke:none;">
<circle cx="57.0000" cy="65.5000" r="1.2450" /> 
</g>
<g style="fill:#FFFFFF; fill-opacity:1.0000; stroke:none;">
<circle cx="18.2500" cy="38.0000" r="1.2450" /> 
</g>
<g style="fill:#FFFFFF; fill-opacity:1.0000; stroke:none;">
<circle cx="120.0000" cy="59.0000" r="1.2450" /> 
</g>
<g style="fill:#FFFFFF; fill-opacity:1.0000; stroke:none;">
<circle cx="93.2500" cy="38.0000" r="1.2450" /> 
</g>
<g style="fill:#FFFFFF; fill-opacity:1.0000; stroke:none;">
<circle cx="44.2500" cy="31.0000" r="1.2450" /> 
</g>
<g style="fill:#FFFFFF; fill-opacity:1.0000; stroke:none;">
<circle cx="93.2500" cy="47.0000" r="1.2450" /> 
</g>
<g style="fill:#FFFFFF; fill-opacity:1.0000; stroke:none;">
<circle cx="18.2500" cy="47.0000" r="1.2450" /> 
</g>
<g style="fill:#FFFFFF; fill-opacity:1.0000; stroke:none;">
<circle cx="18.2500" cy="56.0000" r="1.2450" /> 
</g>
<g style="fill:#FFFFFF; fill-opacity:1.0000; stroke:none;">
<circle cx="44.7500" cy="41.0000" r="1.2450" /> 
</g>
<g style="fill:#FFFFFF; fill-opacity:1.0000; stroke:none;">
<circle cx="82.2500" cy="41.0000" r="1.2450" /> 
</g>
<g style="fill:#FFFFFF; fill-opacity:1.0000; stroke:none;">
<circle cx="19.5000" cy="65.5000" r="1.2450" /> 
</g>
<g style="fill:#FFFFFF; fill-opacity:1.0000; stroke:none;">
<circle cx="119.0000" cy="31.0000" r="1.2450" /> 
</g>
<g style="fill:#FFFFFF; fill-opacity:1.0000; stroke:none;">
<circle cx="120.0000" cy="41.0000" r="1.2450" /> 
</g>
<g style="fill:#FFFFFF; fill-opacity:1.0000; stroke:none;">
<circle cx="55.7500" cy="47.0000" r="1.2450" /> 
</g>
<g style="fill:#FFFFFF; fill-opacity:1.0000; stroke:none;">
<circle cx="93.2500" cy="56.0000" r="1.2450" /> 
</g>
<g style="fill:#FFFFFF; fill-opacity:1.0000; stroke:none;">
<circle cx="81.7500" cy="31.0000" r="1.2450" /> 
</g>
<g style="fill:#FFFFFF; fill-opacity:1.0000; stroke:none;">
<circle cx="82.2500" cy="58.5000" r="1.2450" /> 
</g>
<g style="fill:#FFFFFF; fill-opacity:1.0000; stroke:none;">
<circle cx="82.2500" cy="50.0000" r="1.2450" /> 
</g>
<g style="fill:#FFFFFF; fill-opacity:1.0000; stroke:none;">
<circle cx="53.5000" cy="16.7500" r="0.5000" /> 
</g>
<g style="fill:#FFFFFF; fill-opacity:1.0000; stroke:none;">
<circle cx="56.0400" cy="16.7500" r="0.5000" /> 
</g>
<g style="fill:#FFFFFF; fill-opacity:1.0000; stroke:none;">
<circle cx="58.5800" cy="16.7500" r="0.5000" /> 
</g>
<g style="fill:#FFFFFF; fill-opacity:1.0000; stroke:none;">
<circle cx="61.1200" cy="16.7500" r="0.5000" /> 
</g>
<g style="fill:#FFFFFF; fill-opacity:1.0000; stroke:none;">
<circle cx="63.6600" cy="16.7500" r="0.5000" /> 
</g>
<g style="fill:#FFFFFF; fill-opacity:1.0000; stroke:none;">
<circle cx="66.2000" cy="16.7500" r="0.5000" /> 
</g>
<g style="fill:#FFFFFF; fill-opacity:1.0000; stroke:none;">
<circle cx="68.7400" cy="16.7500" r="0.5000" /> 
</g>
<g style="fill:#FFFFFF; fill-opacity:1.0000; stroke:none;">
<circle cx="71.2800" cy="16.7500" r="0.5000" /> 
</g>
<g style="fill:#FFFFFF; fill-opacity:1.0000; stroke:none;">
<circle cx="73.8200" cy="16.7500" r="0.5000" /> 
</g>
<g style="fill:#FFFFFF; fill-opacity:1.0000; stroke:none;">
<circle cx="76.3600" cy="16.7500" r="0.5000" /> 
</g>
<g style="fill:#FFFFFF; fill-opacity:1.0000; stroke:none;">
<circle cx="78.9000" cy="16.7500" r="0.5000" /> 
</g>
<g style="fill:#FFFFFF; fill-opacity:1.0000; stroke:none;">
<circle cx="81.4400" cy="16.7500" r="0.5000" /> 
</g>
<g style="fill:#FFFFFF; fill-opacity:1.0000; stroke:none;">
<circle cx="53.5000" cy="14.2100" r="0.5000" /> 
</g>
<g style="fill:#FFFFFF; fill-opacity:1.0000; stroke:none;">
<circle cx="56.0400" cy="14.2100" r="0.5000" /> 
</g>
<g style="fill:#FFFFFF; fill-opacity:1.0000; stroke:none;">
<circle cx="58.5800" cy="14.2100" r="0.5000" /> 
</g>
<g style="fill:#FFFFFF; fill-opacity:1.0000; stroke:none;">
<circle cx="61.1200" cy="14.2100" r="0.5000" /> 
</g>
<g style="fill:#FFFFFF; fill-opacity:1.0000; stroke:none;">
<circle cx="63.6600" cy="14.2100" r="0.5000" /> 
</g>
<g style="fill:#FFFFFF; fill-opacity:1.0000; stroke:none;">
<circle cx="66.2000" cy="14.2100" r="0.5000" /> 
</g>
<g style="fill:#FFFFFF; fill-opacity:1.0000; stroke:none;">
<circle cx="68.7400" cy="14.2100" r="0.5000" /> 
</g>
<g style="fill:#FFFFFF; fill-opacity:1.0000; stroke:none;">
<circle cx="71.2800" cy="14.2100" r="0.5000" /> 
</g>
<g style="fill:#FFFFFF; fill-opacity:1.0000; stroke:none;">
<circle cx="73.8200" cy="14.2100" r="0.5000" /> 
</g>
<g style="fill:#FFFFFF; fill-opacity:1.0000; stroke:none;">
<circle cx="76.3600" cy="14.2100" r="0.5000" /> 
</g>
<g style="fill:#FFFFFF; fill-opacity:1.0000; stroke:none;">
<circle cx="78.9000" cy="14.2100" r="0.5000" /> 
</g>
<g style="fill:#FFFFFF; fill-opacity:1.0000; stroke:none;">
<circle cx="81.4400" cy="14.2100" r="0.5000" /> 
</g> 
</svg>
