<?xml version="1.0" standalone="no"?>
 <!DOCTYPE svg PUBLIC "-//W3C//DTD SVG 1.1//EN" 
 "http://www.w3.org/Graphics/SVG/1.1/DTD/svg11.dtd"> 
<svg
  xmlns:svg="http://www.w3.org/2000/svg"
  xmlns="http://www.w3.org/2000/svg"
  xmlns:xlink="http://www.w3.org/1999/xlink"
  version="1.1"
  width="135.9916mm" height="75.9968mm" viewBox="0.0000 0.0000 135.9916 75.9968">
<title>SVG Image created as LowerPOGO-F_Cu.svg date 2024/05/10 17:10:53 </title>
  <desc>Image generated by PCBNEW </desc>
<g style="fill:#000000; fill-opacity:1.0000;stroke:#000000; stroke-opacity:1.0000;
stroke-linecap:round; stroke-linejoin:round;"
 transform="translate(0 0) scale(1 1)">
</g>
<g style="fill:#C83434; fill-opacity:1.0000; stroke:none;">
<circle cx="79.0000" cy="50.0000" r="1.7500" /> 
</g>
<g style="fill:#C83434; fill-opacity:1.0000; stroke:none;">
<circle cx="79.0000" cy="58.5000" r="1.7500" /> 
</g>
<g style="fill:#C83434; fill-opacity:1.0000; stroke:none;">
<circle cx="44.0000" cy="66.0000" r="1.8000" /> 
</g>
<g style="fill:#C83434; fill-opacity:1.0000; stroke:none;">
<circle cx="44.0000" cy="66.0000" r="2.8000" /> 
</g>
<g style="fill:#C83434; fill-opacity:1.0000; stroke:none;">
<circle cx="116.0000" cy="31.0000" r="1.7500" /> 
</g>
<g style="fill:#C83434; fill-opacity:1.0000; stroke:none;">
<circle cx="117.0000" cy="41.0000" r="1.7500" /> 
</g>
<g style="fill:#C83434; fill-opacity:1.0000; stroke:none;">
<circle cx="117.0000" cy="50.0000" r="1.7500" /> 
</g>
<g style="fill:#C83434; fill-opacity:1.0000; stroke:none;">
<circle cx="117.0000" cy="59.0000" r="1.7500" /> 
</g>
<g style="fill:#C83434; fill-opacity:1.0000; stroke:none;">
<circle cx="91.5000" cy="38.0000" r="1.7500" /> 
</g>
<g style="fill:#C83434; fill-opacity:1.0000; stroke:none;">
<circle cx="78.5000" cy="31.0000" r="1.7500" /> 
</g>
<g style="fill:#C83434; fill-opacity:1.0000; stroke:none;">
<circle cx="91.5000" cy="47.0000" r="1.7500" /> 
</g>
<g style="fill:#C83434; fill-opacity:1.0000; stroke:none;">
<circle cx="79.0000" cy="41.0000" r="1.7500" /> 
</g>
<g style="fill:#C83434; fill-opacity:1.0000; stroke:none;">
<circle cx="91.5000" cy="56.0000" r="1.7500" /> 
</g>
<g style="fill:#C83434; fill-opacity:1.0000; stroke:none;">
<circle cx="92.5000" cy="65.5000" r="1.7500" /> 
</g>
<g style="fill:#C83434; fill-opacity:1.0000; stroke:none;">
<circle cx="54.5000" cy="65.5000" r="1.7500" /> 
</g>
<g style="fill:#C83434; fill-opacity:1.0000; stroke:none;">
<circle cx="53.5000" cy="56.0000" r="1.7500" /> 
</g>
<g style="fill:#C83434; fill-opacity:1.0000; stroke:none;">
<circle cx="41.0000" cy="59.0000" r="1.7500" /> 
</g>
<g style="fill:#C83434; fill-opacity:1.0000; stroke:none;">
<circle cx="53.5000" cy="47.0000" r="1.7500" /> 
</g>
<g style="fill:#C83434; fill-opacity:1.0000; stroke:none;">
<circle cx="41.0000" cy="50.0000" r="1.7500" /> 
</g>
<g style="fill:#C83434; fill-opacity:1.0000; stroke:none;">
<circle cx="53.5000" cy="38.0000" r="1.7500" /> 
</g>
<g style="fill:#C83434; fill-opacity:1.0000; stroke:none;">
<circle cx="41.0000" cy="41.0000" r="1.7500" /> 
</g>
<g style="fill:#C83434; fill-opacity:1.0000; stroke:none;">
<circle cx="40.5000" cy="31.0000" r="1.7500" /> 
</g>
<g style="fill:#C83434; fill-opacity:1.0000; stroke:none;">
<circle cx="16.5000" cy="65.5000" r="1.7500" /> 
</g>
<g style="fill:#C83434; fill-opacity:1.0000; stroke:none;">
<circle cx="15.5000" cy="56.0000" r="1.7500" /> 
</g>
<g style="fill:#C83434; fill-opacity:1.0000; stroke:none;">
<circle cx="15.5000" cy="47.0000" r="1.7500" /> 
</g>
<g style="fill:#C83434; fill-opacity:1.0000; stroke:none;">
<circle cx="15.5000" cy="38.0000" r="1.7500" /> 
</g>
<g style="fill:#C83434; fill-opacity:1.0000; stroke:none;">
<circle cx="121.2500" cy="66.0000" r="1.8000" /> 
</g>
<g style="fill:#C83434; fill-opacity:1.0000; stroke:none;">
<circle cx="121.2500" cy="66.0000" r="2.8000" /> 
</g>
<g style="fill:#C83434; fill-opacity:1.0000; stroke:none;">
<circle cx="13.7500" cy="21.0000" r="1.8000" /> 
</g>
<g style="fill:#C83434; fill-opacity:1.0000; stroke:none;">
<circle cx="13.7500" cy="21.0000" r="2.8000" /> 
</g>
<g style="fill:#C83434; fill-opacity:1.0000; stroke:none;">
<circle cx="121.2500" cy="21.0000" r="1.8000" /> 
</g>
<g style="fill:#C83434; fill-opacity:1.0000; stroke:none;">
<circle cx="121.2500" cy="21.0000" r="2.8000" /> 
<path style="fill:#C83434; fill-opacity:1.0000; stroke:none;fill-rule:evenodd;"
d="M 47.2500,18.2500
47.2690,18.1543
47.3232,18.0732
47.4043,18.0190
47.5000,18.0000
48.5000,18.0000
48.5957,18.0190
48.6768,18.0732
48.7310,18.1543
48.7500,18.2500
48.7500,19.2500
48.7310,19.3457
48.6768,19.4268
48.5957,19.4810
48.5000,19.5000
47.5000,19.5000
47.4043,19.4810
47.3232,19.4268
47.2690,19.3457
47.2500,19.2500
Z" /> 
</g>
<g style="fill:#C83434; fill-opacity:1.0000; stroke:none;">
<circle cx="51.0000" cy="18.7500" r="0.7500" /> 
</g>
<g style="fill:#C83434; fill-opacity:1.0000; stroke:none;">
<circle cx="54.0000" cy="18.7500" r="0.7500" /> 
</g>
<g style="fill:#C83434; fill-opacity:1.0000; stroke:none;">
<circle cx="57.0000" cy="18.7500" r="0.7500" /> 
</g>
<g style="fill:#C83434; fill-opacity:1.0000; stroke:none;">
<circle cx="60.0000" cy="18.7500" r="0.7500" /> 
</g>
<g style="fill:#C83434; fill-opacity:1.0000; stroke:none;">
<circle cx="63.0000" cy="18.7500" r="0.7500" /> 
</g>
<g style="fill:#C83434; fill-opacity:1.0000; stroke:none;">
<circle cx="66.0000" cy="18.7500" r="0.7500" /> 
</g>
<g style="fill:#C83434; fill-opacity:1.0000; stroke:none;">
<circle cx="69.0000" cy="18.7500" r="0.7500" /> 
</g>
<g style="fill:#C83434; fill-opacity:1.0000; stroke:none;">
<circle cx="72.0000" cy="18.7500" r="0.7500" /> 
</g>
<g style="fill:#C83434; fill-opacity:1.0000; stroke:none;">
<circle cx="75.0000" cy="18.7500" r="0.7500" /> 
</g>
<g style="fill:#C83434; fill-opacity:1.0000; stroke:none;">
<circle cx="78.0000" cy="18.7500" r="0.7500" /> 
</g>
<g style="fill:#C83434; fill-opacity:1.0000; stroke:none;">
<circle cx="81.0000" cy="18.7500" r="0.7500" /> 
</g>
<g style="fill:#C83434; fill-opacity:1.0000; stroke:none;">
<circle cx="48.0000" cy="21.7500" r="0.7500" /> 
</g>
<g style="fill:#C83434; fill-opacity:1.0000; stroke:none;">
<circle cx="51.0000" cy="21.7500" r="0.7500" /> 
</g>
<g style="fill:#C83434; fill-opacity:1.0000; stroke:none;">
<circle cx="54.0000" cy="21.7500" r="0.7500" /> 
</g>
<g style="fill:#C83434; fill-opacity:1.0000; stroke:none;">
<circle cx="57.0000" cy="21.7500" r="0.7500" /> 
</g>
<g style="fill:#C83434; fill-opacity:1.0000; stroke:none;">
<circle cx="60.0000" cy="21.7500" r="0.7500" /> 
</g>
<g style="fill:#C83434; fill-opacity:1.0000; stroke:none;">
<circle cx="63.0000" cy="21.7500" r="0.7500" /> 
</g>
<g style="fill:#C83434; fill-opacity:1.0000; stroke:none;">
<circle cx="66.0000" cy="21.7500" r="0.7500" /> 
</g>
<g style="fill:#C83434; fill-opacity:1.0000; stroke:none;">
<circle cx="69.0000" cy="21.7500" r="0.7500" /> 
</g>
<g style="fill:#C83434; fill-opacity:1.0000; stroke:none;">
<circle cx="72.0000" cy="21.7500" r="0.7500" /> 
</g>
<g style="fill:#C83434; fill-opacity:1.0000; stroke:none;">
<circle cx="75.0000" cy="21.7500" r="0.7500" /> 
</g>
<g style="fill:#C83434; fill-opacity:1.0000; stroke:none;">
<circle cx="78.0000" cy="21.7500" r="0.7500" /> 
</g>
<g style="fill:#C83434; fill-opacity:1.0000; stroke:none;">
<circle cx="81.0000" cy="21.7500" r="0.7500" /> 
</g>
<g style="fill:none; 
stroke:#C83434; stroke-width:0.4000; stroke-opacity:1; 
stroke-linecap:round; stroke-linejoin:round;">
<path d="M116.0000 23.3760
L116.0000 31.0000
" />
<path d="M109.6870 17.0630
L116.0000 23.3760
" />
<path d="M85.6870 17.0630
L109.6870 17.0630
" />
<path d="M81.0000 21.7500
L85.6870 17.0630
" />
<path d="M110.6380 34.6380
L117.0000 41.0000
" />
<path d="M110.6380 18.8620
L110.6380 34.6380
" />
<path d="M109.4380 17.6630
L110.6380 18.8620
" />
<path d="M88.0870 17.6630
L109.4380 17.6630
" />
<path d="M82.2500 23.5000
L88.0870 17.6630
" />
<path d="M79.7500 23.5000
L82.2500 23.5000
" />
<path d="M78.0000 21.7500
L79.7500 23.5000
" />
<path d="M110.0380 43.0380
L117.0000 50.0000
" />
<path d="M110.0380 19.1110
L110.0380 43.0380
" />
<path d="M109.1900 18.2630
L110.0380 19.1110
" />
<path d="M90.9870 18.2630
L109.1900 18.2630
" />
<path d="M84.5000 24.7500
L90.9870 18.2630
" />
<path d="M78.0000 24.7500
L84.5000 24.7500
" />
<path d="M75.0000 21.7500
L78.0000 24.7500
" />
<path d="M113.0000 55.0000
L117.0000 59.0000
" />
<path d="M113.0000 49.0410
L113.0000 55.0000
" />
<path d="M109.4380 45.4780
L113.0000 49.0410
" />
<path d="M109.4380 19.3590
L109.4380 45.4780
" />
<path d="M108.9410 18.8630
L109.4380 19.3590
" />
<path d="M94.0000 18.8630
L108.9410 18.8630
" />
<path d="M86.6130 26.2500
L94.0000 18.8630
" />
<path d="M76.5000 26.2500
L86.6130 26.2500
" />
<path d="M72.0000 21.7500
L76.5000 26.2500
" />
<path d="M80.7500 27.2500
L91.5000 38.0000
" />
<path d="M75.6490 27.2500
L80.7500 27.2500
" />
<path d="M73.7490 25.3500
L75.6490 27.2500
" />
<path d="M72.6000 25.3500
L73.7490 25.3500
" />
<path d="M69.0000 21.7500
L72.6000 25.3500
" />
<path d="M73.5000 26.0000
L78.5000 31.0000
" />
<path d="M73.5000 25.9500
L73.5000 26.0000
" />
<path d="M70.2000 25.9500
L73.5000 25.9500
" />
<path d="M66.0000 21.7500
L70.2000 25.9500
" />
<path d="M91.5000 44.2500
L91.5000 47.0000
" />
<path d="M82.7500 35.5000
L91.5000 44.2500
" />
<path d="M78.0000 35.5000
L82.7500 35.5000
" />
<path d="M75.2500 32.7500
L78.0000 35.5000
" />
<path d="M75.2500 29.5000
L75.2500 32.7500
" />
<path d="M72.3000 26.5500
L75.2500 29.5000
" />
<path d="M67.8000 26.5500
L72.3000 26.5500
" />
<path d="M63.0000 21.7500
L67.8000 26.5500
" />
<path d="M71.7500 33.7500
L79.0000 41.0000
" />
<path d="M71.7500 27.5000
L71.7500 33.7500
" />
<path d="M71.4250 27.1750
L71.7500 27.5000
" />
<path d="M65.4250 27.1750
L71.4250 27.1750
" />
<path d="M60.0000 21.7500
L65.4250 27.1750
" />
<path d="M81.2500 66.2500
L91.5000 56.0000
" />
<path d="M59.3350 66.2500
L81.2500 66.2500
" />
<path d="M58.7500 65.6650
L59.3350 66.2500
" />
<path d="M58.7500 23.5000
L58.7500 65.6650
" />
<path d="M57.0000 21.7500
L58.7500 23.5000
" />
<path d="M89.5000 68.5000
L92.5000 65.5000
" />
<path d="M54.4590 68.5000
L89.5000 68.5000
" />
<path d="M51.0000 65.0410
L54.4590 68.5000
" />
<path d="M51.0000 21.7500
L51.0000 65.0410
" />
<path d="M73.5000 53.0000
L79.0000 58.5000
" />
<path d="M73.5000 48.2500
L73.5000 53.0000
" />
<path d="M76.5000 45.2500
L73.5000 48.2500
" />
<path d="M82.0000 45.2500
L76.5000 45.2500
" />
<path d="M87.7500 51.0000
L82.0000 45.2500
" />
<path d="M93.3500 51.0000
L87.7500 51.0000
" />
<path d="M95.7500 53.4000
L93.3500 51.0000
" />
<path d="M95.7500 65.5000
L95.7500 53.4000
" />
<path d="M91.5870 69.6630
L95.7500 65.5000
" />
<path d="M52.6630 69.6630
L91.5870 69.6630
" />
<path d="M48.0000 65.0000
L52.6630 69.6630
" />
<path d="M48.0000 21.7500
L48.0000 65.0000
" />
<path d="M81.5000 52.5000
L79.0000 50.0000
" />
<path d="M92.5000 52.5000
L81.5000 52.5000
" />
<path d="M94.0000 54.0000
L92.5000 52.5000
" />
<path d="M94.0000 57.7500
L94.0000 54.0000
" />
<path d="M84.5000 67.2500
L94.0000 57.7500
" />
<path d="M58.5870 67.2500
L84.5000 67.2500
" />
<path d="M56.9130 65.5760
L58.5870 67.2500
" />
<path d="M56.9130 24.6630
L56.9130 65.5760
" />
<path d="M54.0000 21.7500
L56.9130 24.6630
" />
<path style="fill:#C83434; fill-opacity:1.0000; stroke:none;fill-rule:evenodd;"
d="M 85.1937,16.8853
85.2154,16.9376
85.1937,16.9899
81.3589,20.8247
81.3066,20.8464
81.2851,20.8432
81.1863,20.8133
81.0000,20.7949
80.8137,20.8133
80.6345,20.8676
80.4694,20.9559
80.4694,20.9559
80.3246,21.0746
80.2059,21.2194
80.2059,21.2194
80.1176,21.3845
80.0633,21.5637
80.0449,21.7500
80.0633,21.9363
80.1176,22.1155
80.2059,22.2806
80.2059,22.2806
80.2059,22.2806
80.3246,22.4254
80.4694,22.5441
80.4694,22.5441
80.4694,22.5441
80.6345,22.6324
80.6345,22.6324
80.6345,22.6324
80.8137,22.6867
81.0000,22.7051
81.1863,22.6867
81.3655,22.6324
81.4005,22.6137
81.4998,22.5606
81.5306,22.5441
81.6754,22.4254
81.7941,22.2806
81.8824,22.1155
81.9367,21.9363
81.9551,21.7500
81.9367,21.5637
81.9068,21.4649
81.9123,21.4086
81.9253,21.3911
85.8311,17.4853
85.8835,17.4636
87.5414,17.4636
87.5937,17.4853
87.6154,17.5376
87.5937,17.5899
84.7978,20.3858
82.1058,23.0778
82.0535,23.0995
79.9465,23.0995
79.8942,23.0778
78.9253,22.1089
78.9036,22.0566
78.9068,22.0351
78.9367,21.9363
78.9551,21.7500
78.9367,21.5637
78.8824,21.3845
78.8824,21.3845
78.8824,21.3845
78.7941,21.2194
78.7941,21.2194
78.7941,21.2194
78.6754,21.0746
78.5306,20.9559
78.5306,20.9559
78.5306,20.9559
78.3655,20.8676
78.1863,20.8133
78.0000,20.7949
77.8137,20.8133
77.6345,20.8676
77.4694,20.9559
77.4694,20.9559
77.3246,21.0746
77.2059,21.2194
77.2059,21.2194
77.1176,21.3845
77.0633,21.5637
77.0449,21.7500
77.0633,21.9363
77.1176,22.1155
77.2059,22.2806
77.2059,22.2806
77.2059,22.2806
77.3246,22.4254
77.4694,22.5441
77.4694,22.5441
77.4694,22.5441
77.6345,22.6324
77.6345,22.6324
77.6345,22.6324
77.8137,22.6867
78.0000,22.7051
78.1863,22.6867
78.2851,22.6568
78.3414,22.6623
78.3589,22.6753
79.4269,23.7433
79.4269,23.7433
79.4295,23.7459
79.5041,23.8205
79.5954,23.8732
79.5954,23.8732
79.5954,23.8732
79.6463,23.8869
79.6973,23.9005
79.6973,23.9005
79.6973,23.9005
79.8073,23.9005
79.8073,23.9005
82.3027,23.9005
82.3027,23.9005
82.4046,23.8732
82.4959,23.8205
88.2311,18.0853
88.2835,18.0636
90.4414,18.0636
90.4937,18.0853
90.5154,18.1376
90.4937,18.1899
84.3558,24.3278
84.3035,24.3495
78.1965,24.3495
78.1442,24.3278
75.9253,22.1089
75.9036,22.0566
75.9068,22.0351
75.9367,21.9363
75.9551,21.7500
75.9367,21.5637
75.8824,21.3845
75.8824,21.3845
75.8824,21.3845
75.7941,21.2194
75.7941,21.2194
75.7941,21.2194
75.6754,21.0746
75.5306,20.9559
75.5306,20.9559
75.5306,20.9559
75.3655,20.8676
75.1863,20.8133
75.0000,20.7949
74.8137,20.8133
74.6345,20.8676
74.4694,20.9559
74.4694,20.9559
74.3246,21.0746
74.2059,21.2194
74.2059,21.2194
74.1176,21.3845
74.0633,21.5637
74.0449,21.7500
74.0633,21.9363
74.1176,22.1155
74.2059,22.2806
74.2059,22.2806
74.2059,22.2806
74.3246,22.4254
74.4694,22.5441
74.4694,22.5441
74.4694,22.5441
74.6345,22.6324
74.6345,22.6324
74.6345,22.6324
74.8137,22.6867
75.0000,22.7051
75.1863,22.6867
75.2851,22.6568
75.3414,22.6623
75.3589,22.6753
77.6769,24.9933
77.6769,24.9933
77.6795,24.9959
77.7541,25.0705
77.8123,25.1041
77.8454,25.1232
77.8454,25.1232
77.8454,25.1232
77.8963,25.1369
77.9473,25.1505
77.9473,25.1505
77.9473,25.1505
78.0573,25.1505
78.0573,25.1505
84.5527,25.1505
84.5527,25.1505
84.6546,25.1232
84.7459,25.0705
91.1311,18.6853
91.1835,18.6636
93.4545,18.6636
93.5068,18.6853
93.5285,18.7376
93.5068,18.7899
89.9283,22.3684
86.4689,25.8278
86.4165,25.8495
76.6965,25.8495
76.6442,25.8278
72.9253,22.1089
72.9036,22.0566
72.9068,22.0351
72.9367,21.9363
72.9551,21.7500
72.9367,21.5637
72.8824,21.3845
72.8824,21.3845
72.8824,21.3845
72.7941,21.2194
72.7941,21.2194
72.7941,21.2194
72.6754,21.0746
72.5306,20.9559
72.5306,20.9559
72.5306,20.9559
72.3655,20.8676
72.1863,20.8133
72.0000,20.7949
71.8137,20.8133
71.6345,20.8676
71.4694,20.9559
71.4694,20.9559
71.3246,21.0746
71.2059,21.2194
71.2059,21.2194
71.1176,21.3845
71.0633,21.5637
71.0449,21.7500
71.0633,21.9363
71.1176,22.1155
71.2059,22.2806
71.2059,22.2806
71.2059,22.2806
71.3246,22.4254
71.4694,22.5441
71.4694,22.5441
71.4694,22.5441
71.6345,22.6324
71.6345,22.6324
71.6345,22.6324
71.8137,22.6867
72.0000,22.7051
72.1863,22.6867
72.2851,22.6568
72.3414,22.6623
72.3589,22.6753
76.2541,26.5705
76.3454,26.6232
76.4473,26.6505
76.4473,26.6505
86.6658,26.6505
86.6658,26.6505
86.7677,26.6232
86.8590,26.5705
94.1442,19.2853
94.1965,19.2636
108.7448,19.2636
108.7971,19.2853
109.0155,19.5036
109.0371,19.5560
109.0371,45.4255
109.0371,45.5309
109.0644,45.6328
109.0644,45.6328
109.1172,45.7241
109.1172,45.7241
109.1172,45.7241
112.5778,49.1848
112.5995,49.2371
112.5995,54.9473
112.5995,55.0527
112.6268,55.1546
112.6268,55.1546
112.6795,55.2459
112.6795,55.2459
112.6795,55.2459
114.0573,56.6237
115.3233,57.8897
115.3450,57.9421
115.3360,57.9775
115.2212,58.1877
115.1237,58.4491
115.1237,58.4491
115.0644,58.7217
115.0445,59.0000
115.0445,59.0000
115.0644,59.2783
115.1237,59.5509
115.1237,59.5509
115.2212,59.8123
115.3549,60.0572
115.4207,60.1451
115.5221,60.2806
115.7194,60.4779
115.8869,60.6033
115.9428,60.6451
116.1877,60.7788
116.4491,60.8763
116.4491,60.8763
116.4491,60.8763
116.7217,60.9356
116.7835,60.9400
117.0000,60.9555
117.0000,60.9555
117.0000,60.9555
117.1948,60.9415
117.2783,60.9356
117.5509,60.8763
117.5509,60.8763
117.5509,60.8763
117.8123,60.7788
118.0572,60.6451
118.0572,60.6451
118.0572,60.6451
118.2806,60.4779
118.4779,60.2806
118.6451,60.0572
118.7788,59.8123
118.7788,59.8123
118.7788,59.8123
118.8763,59.5509
118.8763,59.5509
118.8763,59.5509
118.9356,59.2783
118.9518,59.0509
118.9555,59.0000
118.9555,59.0000
118.9356,58.7217
118.9356,58.7217
118.8763,58.4491
118.8763,58.4491
118.8763,58.4491
118.7788,58.1877
118.6451,57.9428
118.5953,57.8763
118.4779,57.7194
118.2806,57.5221
118.1582,57.4305
118.0572,57.3549
117.8123,57.2212
117.5509,57.1237
117.5509,57.1237
117.5509,57.1237
117.4890,57.1103
117.2783,57.0644
117.0000,57.0445
117.0000,57.0445
116.7217,57.0644
116.4491,57.1237
116.4491,57.1237
116.1877,57.2212
115.9775,57.3360
115.9212,57.3420
115.8897,57.3233
113.4222,54.8558
113.4005,54.8035
113.4005,48.9878
113.3884,48.9428
113.3884,48.9428
113.3732,48.8860
113.3732,48.8860
113.3205,48.7946
109.8598,45.3340
109.8381,45.2817
109.8381,43.5832
109.8598,43.5309
109.9121,43.5092
109.9645,43.5309
115.3233,48.8897
115.3450,48.9421
115.3360,48.9775
115.2212,49.1877
115.1237,49.4491
115.1237,49.4491
115.0644,49.7217
115.0445,50.0000
115.0445,50.0000
115.0644,50.2783
115.1237,50.5509
115.1237,50.5509
115.2212,50.8123
115.3549,51.0572
115.3947,51.1103
115.5221,51.2806
115.7194,51.4779
115.8869,51.6033
115.9428,51.6451
116.1877,51.7788
116.4491,51.8763
116.4491,51.8763
116.4491,51.8763
116.7217,51.9356
116.7835,51.9400
117.0000,51.9555
117.0000,51.9555
117.0000,51.9555
117.1948,51.9415
117.2783,51.9356
117.5509,51.8763
117.5509,51.8763
117.5509,51.8763
117.8123,51.7788
118.0336,51.6580
118.0572,51.6451
118.2806,51.4779
118.4779,51.2806
118.6451,51.0572
118.7788,50.8123
118.7788,50.8123
118.7788,50.8123
118.8763,50.5509
118.8763,50.5509
118.8763,50.5509
118.9356,50.2783
118.9555,50.0000
118.9555,50.0000
118.9356,49.7217
118.9356,49.7217
118.8763,49.4491
118.8763,49.4491
118.8763,49.4491
118.7788,49.1877
118.6451,48.9428
118.5223,48.7788
118.4779,48.7194
118.2806,48.5221
118.0695,48.3641
118.0572,48.3549
117.8123,48.2212
117.5509,48.1237
117.5509,48.1237
117.5509,48.1237
117.4208,48.0954
117.2783,48.0644
117.0000,48.0445
117.0000,48.0445
116.7217,48.0644
116.4491,48.1237
116.4491,48.1237
116.1877,48.2212
115.9775,48.3360
115.9212,48.3420
115.8897,48.3233
110.4598,42.8934
110.4381,42.8411
110.4381,35.1832
110.4598,35.1309
110.5121,35.1092
110.5645,35.1309
115.3233,39.8897
115.3450,39.9421
115.3360,39.9775
115.2212,40.1877
115.1237,40.4491
115.1237,40.4491
115.0644,40.7217
115.0445,41.0000
115.0445,41.0000
115.0644,41.2783
115.1237,41.5509
115.1237,41.5509
115.2212,41.8123
115.3549,42.0572
115.4385,42.1689
115.5221,42.2806
115.7194,42.4779
115.8869,42.6033
115.9428,42.6451
116.1877,42.7788
116.4491,42.8763
116.4491,42.8763
116.4491,42.8763
116.7217,42.9356
116.7835,42.9400
117.0000,42.9555
117.0000,42.9555
117.0000,42.9555
117.1948,42.9415
117.2783,42.9356
117.5509,42.8763
117.5509,42.8763
117.5509,42.8763
117.8123,42.7788
118.0572,42.6451
118.0572,42.6451
118.0572,42.6451
118.2806,42.4779
118.4779,42.2806
118.6451,42.0572
118.7788,41.8123
118.7788,41.8123
118.7788,41.8123
118.8763,41.5509
118.8763,41.5509
118.8763,41.5509
118.9356,41.2783
118.9555,41.0000
118.9555,41.0000
118.9356,40.7217
118.9356,40.7217
118.8763,40.4491
118.8763,40.4491
118.8763,40.4491
118.7788,40.1877
118.6451,39.9428
118.5223,39.7788
118.4779,39.7194
118.2806,39.5221
118.0695,39.3641
118.0572,39.3549
117.8123,39.2212
117.5509,39.1237
117.5509,39.1237
117.5509,39.1237
117.4960,39.1118
117.2783,39.0644
117.0000,39.0445
117.0000,39.0445
116.7217,39.0644
116.4491,39.1237
116.4491,39.1237
116.1877,39.2212
115.9775,39.3360
115.9212,39.3420
115.8897,39.3233
111.0598,34.4934
111.0381,34.4411
111.0381,19.1594
111.0598,19.1070
111.1121,19.0854
111.1645,19.1070
115.5778,23.5204
115.5995,23.5727
115.5995,29.0314
115.5778,29.0837
115.5412,29.1037
115.4491,29.1237
115.4491,29.1237
115.1877,29.2212
114.9428,29.3549
114.7194,29.5221
114.5221,29.7194
114.3549,29.9428
114.2212,30.1877
114.1237,30.4491
114.1237,30.4491
114.0644,30.7217
114.0445,31.0000
114.0445,31.0000
114.0644,31.2783
114.1237,31.5509
114.1237,31.5509
114.2212,31.8123
114.3549,32.0572
114.4385,32.1689
114.5221,32.2806
114.7194,32.4779
114.8869,32.6033
114.9428,32.6451
115.1877,32.7788
115.4491,32.8763
115.4491,32.8763
115.4491,32.8763
115.7217,32.9356
115.7835,32.9400
116.0000,32.9555
116.0000,32.9555
116.0000,32.9555
116.1948,32.9415
116.2783,32.9356
116.5509,32.8763
116.5509,32.8763
116.5509,32.8763
116.8123,32.7788
117.0572,32.6451
117.0572,32.6451
117.0572,32.6451
117.2806,32.4779
117.4779,32.2806
117.6451,32.0572
117.7788,31.8123
117.7788,31.8123
117.7788,31.8123
117.8763,31.5509
117.8763,31.5509
117.8763,31.5509
117.9356,31.2783
117.9555,31.0000
117.9555,31.0000
117.9356,30.7217
117.9356,30.7217
117.8763,30.4491
117.8763,30.4491
117.8763,30.4491
117.7788,30.1877
117.6451,29.9428
117.6033,29.8869
117.4779,29.7194
117.2806,29.5221
117.0695,29.3641
117.0572,29.3549
116.8123,29.2212
116.5509,29.1237
116.5509,29.1237
116.5509,29.1237
116.4588,29.1037
116.4122,29.0714
116.4005,29.0314
116.4005,23.3235
116.3732,23.2216
116.3732,23.2216
116.3205,23.1303
116.3205,23.1303
116.3205,23.1303
114.1902,21.0000
118.0450,21.0000
118.0651,21.3589
118.0651,21.3589
118.1253,21.7132
118.2248,22.0586
118.3624,22.3906
118.3624,22.3906
118.5362,22.7052
118.5362,22.7052
118.7442,22.9983
118.8502,23.1169
119.9855,21.9817
120.0296,22.0423
120.2077,22.2204
120.2683,22.2645
119.1331,23.3998
119.2517,23.5058
119.5448,23.7138
119.5448,23.7138
119.8594,23.8876
119.8594,23.8876
120.1914,24.0252
120.5368,24.1247
120.5368,24.1247
120.8911,24.1849
120.8911,24.1849
121.2500,24.2050
121.6089,24.1849
121.6089,24.1849
121.9632,24.1247
122.3086,24.0252
122.6406,23.8876
122.6406,23.8876
122.9552,23.7138
122.9552,23.7138
123.2483,23.5058
123.3669,23.3998
123.3669,23.3998
122.2317,22.2645
122.2923,22.2204
122.4704,22.0423
122.5145,21.9817
123.6498,23.1169
123.6498,23.1169
123.7558,22.9983
123.9638,22.7052
123.9638,22.7052
124.1376,22.3906
124.1376,22.3906
124.2752,22.0586
124.3747,21.7132
124.4349,21.3589
124.4349,21.3589
124.4550,21.0000
124.4349,20.6411
124.4349,20.6411
124.3747,20.2868
124.2752,19.9414
124.1376,19.6094
124.1376,19.6094
123.9638,19.2948
123.9638,19.2948
123.7558,19.0017
123.6498,18.8831
123.6498,18.8831
122.5145,20.0183
122.4704,19.9577
122.2923,19.7796
122.2317,19.7355
123.3669,18.6002
123.2483,18.4942
122.9552,18.2862
122.9552,18.2862
122.6406,18.1124
122.6406,18.1124
122.3086,17.9748
121.9632,17.8753
121.9632,17.8753
121.6089,17.8151
121.6089,17.8151
121.2500,17.7950
120.8911,17.8151
120.8911,17.8151
120.5368,17.8753
120.1914,17.9748
119.8594,18.1124
119.8594,18.1124
119.5448,18.2862
119.5448,18.2862
119.2517,18.4942
119.1331,18.6002
120.2683,19.7355
120.2077,19.7796
120.0296,19.9577
119.9855,20.0183
118.8502,18.8831
118.7442,19.0017
118.5362,19.2948
118.5362,19.2948
118.3624,19.6094
118.3624,19.6094
118.2248,19.9414
118.1253,20.2868
118.0651,20.6411
118.0651,20.6411
118.0450,21.0000
114.1902,21.0000
110.1801,16.9899
110.1585,16.9376
110.1801,16.8853
110.2325,16.8636
124.9255,16.8636
124.9778,16.8853
124.9995,16.9376
124.9995,69.7886
124.9778,69.8409
124.9255,69.8626
92.1325,69.8626
92.0801,69.8409
92.0585,69.7886
92.0801,69.7363
92.9959,68.8205
95.8164,66.0000
118.0450,66.0000
118.0651,66.3589
118.0651,66.3589
118.1253,66.7132
118.2248,67.0586
118.3624,67.3906
118.3624,67.3906
118.5362,67.7052
118.5362,67.7052
118.7442,67.9983
118.8502,68.1169
119.9855,66.9817
120.0296,67.0423
120.2077,67.2204
120.2683,67.2645
119.1331,68.3998
119.2517,68.5058
119.5448,68.7138
119.5448,68.7138
119.8594,68.8876
119.8594,68.8876
120.1914,69.0252
120.5368,69.1247
120.5368,69.1247
120.8911,69.1849
120.8911,69.1849
121.2500,69.2050
121.6089,69.1849
121.6089,69.1849
121.9632,69.1247
122.3086,69.0252
122.6406,68.8876
122.6406,68.8876
122.9552,68.7138
122.9552,68.7138
123.2483,68.5058
123.3669,68.3998
123.3669,68.3998
122.2317,67.2645
122.2923,67.2204
122.4704,67.0423
122.5145,66.9817
123.6498,68.1169
123.6498,68.1169
123.7558,67.9983
123.9638,67.7052
123.9638,67.7052
124.1376,67.3906
124.1376,67.3906
124.2752,67.0586
124.3747,66.7132
124.4349,66.3589
124.4349,66.3589
124.4550,66.0000
124.4349,65.6411
124.4349,65.6411
124.3747,65.2868
124.2752,64.9414
124.1376,64.6094
124.1376,64.6094
123.9638,64.2948
123.9638,64.2948
123.7558,64.0017
123.6498,63.8831
123.6498,63.8831
122.5145,65.0183
122.4704,64.9577
122.2923,64.7796
122.2317,64.7355
123.3669,63.6002
123.2483,63.4942
122.9552,63.2862
122.9552,63.2862
122.6406,63.1124
122.6406,63.1124
122.3086,62.9748
121.9632,62.8753
121.9632,62.8753
121.6089,62.8151
121.6089,62.8151
121.2500,62.7950
120.8911,62.8151
120.8911,62.8151
120.5368,62.8753
120.1914,62.9748
119.8594,63.1124
119.8594,63.1124
119.5448,63.2862
119.5448,63.2862
119.2517,63.4942
119.1331,63.6002
120.2683,64.7355
120.2077,64.7796
120.0296,64.9577
119.9855,65.0183
118.8502,63.8831
118.7442,64.0017
118.5362,64.2948
118.5362,64.2948
118.3624,64.6094
118.3624,64.6094
118.2248,64.9414
118.1253,65.2868
118.0651,65.6411
118.0651,65.6411
118.0450,66.0000
95.8164,66.0000
96.0705,65.7459
96.1232,65.6546
96.1505,65.5527
96.1505,65.4473
96.1505,65.4409
96.4995,65.4409
96.5336,65.5682
96.5336,65.5682
96.5835,65.6546
96.5995,65.6823
96.6927,65.7755
96.8068,65.8414
96.9341,65.8755
96.9341,65.8755
96.9341,65.8755
107.0659,65.8755
107.0659,65.8755
107.1932,65.8414
107.3073,65.7755
107.4005,65.6823
107.4664,65.5682
107.5005,65.4409
107.5005,65.4409
107.5005,20.9341
107.5005,20.9341
107.4712,20.8247
107.4664,20.8068
107.4005,20.6927
107.3073,20.5995
107.1932,20.5336
107.1932,20.5336
107.0659,20.4995
107.0659,20.4995
97.0659,20.4995
96.9341,20.4995
96.9341,20.4995
96.8068,20.5336
96.8068,20.5336
96.6927,20.5995
96.5995,20.6927
96.5336,20.8068
96.5336,20.8068
96.4995,20.9341
96.4995,65.4409
96.1505,65.4409
96.1505,53.4587
96.1505,53.4587
96.1505,53.3473
96.1505,53.3473
96.1232,53.2454
96.1232,53.2454
96.0708,53.1546
96.0708,53.1546
96.0705,53.1541
96.0705,53.1541
95.9959,53.0795
95.9959,53.0795
95.9933,53.0769
95.9933,53.0769
94.8520,51.9356
93.5959,50.6795
93.5959,50.6795
93.5959,50.6795
93.5046,50.6268
93.5046,50.6268
93.4027,50.5995
93.4027,50.5995
87.9465,50.5995
87.8942,50.5778
85.1287,47.8123
82.2459,44.9295
82.2459,44.9295
82.2459,44.9295
82.1546,44.8768
82.1546,44.8768
82.1546,44.8768
82.0527,44.8495
82.0527,44.8495
76.5573,44.8495
76.5573,44.8495
76.5527,44.8495
76.4473,44.8495
76.4473,44.8495
76.3454,44.8768
76.3454,44.8768
76.2541,44.9295
76.1795,45.0041
73.1795,48.0041
73.1268,48.0954
73.1268,48.0954
73.0995,48.1973
73.0995,52.9473
73.0995,53.0527
73.1067,53.0795
73.1268,53.1546
73.1268,53.1546
73.1795,53.2459
73.1795,53.2459
73.1795,53.2459
75.3827,55.4491
77.3233,57.3897
77.3450,57.4421
77.3360,57.4775
77.2212,57.6877
77.2212,57.6877
77.1237,57.9491
77.1237,57.9491
77.0644,58.2217
77.0445,58.5000
77.0445,58.5000
77.0644,58.7783
77.1237,59.0509
77.1237,59.0509
77.2212,59.3123
77.3549,59.5572
77.4385,59.6689
77.5221,59.7806
77.7194,59.9779
77.8869,60.1033
77.9428,60.1451
78.1877,60.2788
78.4491,60.3763
78.4491,60.3763
78.4491,60.3763
78.7217,60.4356
78.7835,60.4400
79.0000,60.4555
79.0000,60.4555
79.0000,60.4555
79.1948,60.4415
79.2783,60.4356
79.5509,60.3763
79.5509,60.3763
79.5509,60.3763
79.8123,60.2788
80.0572,60.1451
80.0572,60.1451
80.0572,60.1451
80.2806,59.9779
80.4779,59.7806
80.6451,59.5572
80.7788,59.3123
80.7788,59.3123
80.7788,59.3123
80.8763,59.0509
80.8763,59.0509
80.8763,59.0509
80.9356,58.7783
80.9555,58.5000
80.9555,58.5000
80.9356,58.2217
80.9282,58.1877
80.8763,57.9491
80.8763,57.9491
80.8763,57.9491
80.7788,57.6877
80.6451,57.4428
80.5236,57.2806
80.4779,57.2194
80.2806,57.0221
80.1689,56.9385
80.0572,56.8549
79.8123,56.7212
79.5509,56.6237
79.5509,56.6237
79.5509,56.6237
79.4960,56.6118
79.2783,56.5644
79.0000,56.5445
79.0000,56.5445
78.7217,56.5644
78.4491,56.6237
78.4491,56.6237
78.1877,56.7212
78.1877,56.7212
77.9775,56.8360
77.9212,56.8420
77.8897,56.8233
73.9222,52.8558
73.9005,52.8035
73.9005,48.4465
73.9222,48.3942
76.6442,45.6722
76.6965,45.6505
81.8035,45.6505
81.8558,45.6722
87.5041,51.3205
87.5954,51.3732
87.6973,51.4005
93.1535,51.4005
93.2058,51.4222
95.3278,53.5442
95.3495,53.5965
95.3495,65.3035
95.3278,65.3558
94.4643,66.2193
94.4120,66.2410
94.3596,66.2193
94.3380,66.1670
94.3426,66.1411
94.3763,66.0509
94.4356,65.7783
94.4506,65.5682
94.4555,65.5000
94.4555,65.5000
94.4356,65.2217
94.4356,65.2217
94.3763,64.9491
94.3763,64.9491
94.3763,64.9491
94.2788,64.6877
94.1451,64.4428
94.0343,64.2948
93.9779,64.2194
93.7806,64.0221
93.6689,63.9385
93.5572,63.8549
93.3123,63.7212
93.0509,63.6237
93.0509,63.6237
93.0509,63.6237
92.9428,63.6002
92.7783,63.5644
92.5000,63.5445
92.5000,63.5445
92.2217,63.5644
91.9491,63.6237
91.9491,63.6237
91.6877,63.7212
91.4428,63.8549
91.2194,64.0221
91.0221,64.2194
90.8549,64.4428
90.7212,64.6877
90.6237,64.9491
90.6237,64.9491
90.5644,65.2217
90.5445,65.5000
90.5445,65.5000
90.5644,65.7783
90.6237,66.0509
90.6237,66.0509
90.7212,66.3123
90.7212,66.3123
90.8360,66.5225
90.8420,66.5788
90.8233,66.6103
89.3558,68.0778
89.3035,68.0995
54.6560,68.0995
54.6037,68.0778
54.0672,67.5414
54.0456,67.4891
54.0672,67.4368
54.1196,67.4151
54.1353,67.4168
54.2217,67.4356
54.3229,67.4428
54.5000,67.4555
54.5000,67.4555
54.5000,67.4555
54.6948,67.4415
54.7783,67.4356
55.0509,67.3763
55.0509,67.3763
55.0509,67.3763
55.3123,67.2788
55.5161,67.1675
55.5572,67.1451
55.7806,66.9779
55.9779,66.7806
56.1451,66.5572
56.2788,66.3123
56.2788,66.3123
56.2788,66.3123
56.3763,66.0509
56.3763,66.0509
56.3763,66.0509
56.4309,65.7996
56.4632,65.7531
56.5190,65.7430
56.5655,65.7753
56.5673,65.7783
56.5926,65.8221
56.5926,65.8221
56.5926,65.8221
57.4837,66.7132
58.2638,67.4933
58.2638,67.4933
58.2664,67.4959
58.3410,67.5705
58.4323,67.6232
58.4323,67.6232
58.4323,67.6232
58.4832,67.6369
58.5342,67.6505
58.5342,67.6505
58.5342,67.6505
58.6442,67.6505
58.6442,67.6505
84.5527,67.6505
84.5527,67.6505
84.6546,67.6232
84.7459,67.5705
94.3205,57.9959
94.3732,57.9046
94.4005,57.8027
94.4005,57.6973
94.4005,53.9473
94.4005,53.9473
94.4005,53.9473
94.3732,53.8454
94.3732,53.8454
94.3205,53.7541
94.2459,53.6795
92.7459,52.1795
92.7459,52.1795
92.7459,52.1795
92.6546,52.1268
92.6546,52.1268
92.5527,52.0995
92.5527,52.0995
81.6965,52.0995
81.6442,52.0778
80.6767,51.1103
80.6550,51.0579
80.6640,51.0225
80.7788,50.8123
80.8763,50.5509
80.8763,50.5509
80.8763,50.5509
80.9356,50.2783
80.9555,50.0000
80.9555,50.0000
80.9356,49.7217
80.9356,49.7217
80.8763,49.4491
80.8763,49.4491
80.8763,49.4491
80.7788,49.1877
80.6451,48.9428
80.5223,48.7788
80.4779,48.7194
80.2806,48.5221
80.0695,48.3641
80.0572,48.3549
79.8123,48.2212
79.5509,48.1237
79.5509,48.1237
79.5509,48.1237
79.4208,48.0954
79.2783,48.0644
79.0000,48.0445
79.0000,48.0445
78.7217,48.0644
78.4491,48.1237
78.4491,48.1237
78.1877,48.2212
77.9428,48.3549
77.7194,48.5221
77.5221,48.7194
77.3549,48.9428
77.2212,49.1877
77.1237,49.4491
77.1237,49.4491
77.0644,49.7217
77.0445,50.0000
77.0445,50.0000
77.0644,50.2783
77.1237,50.5509
77.1237,50.5509
77.2212,50.8123
77.3549,51.0572
77.3947,51.1103
77.5221,51.2806
77.7194,51.4779
77.8869,51.6033
77.9428,51.6451
78.1877,51.7788
78.4491,51.8763
78.4491,51.8763
78.4491,51.8763
78.7217,51.9356
78.7835,51.9400
79.0000,51.9555
79.0000,51.9555
79.0000,51.9555
79.1948,51.9415
79.2783,51.9356
79.5509,51.8763
79.5509,51.8763
79.5509,51.8763
79.8123,51.7788
80.0225,51.6640
80.0788,51.6580
80.1103,51.6767
81.2541,52.8205
81.3454,52.8732
81.4473,52.9005
92.3035,52.9005
92.3558,52.9222
93.5778,54.1442
93.5995,54.1965
93.5995,55.9417
93.5778,55.9940
93.5625,56.0004
93.5814,56.0099
93.5995,56.0583
93.5995,57.5535
93.5778,57.6058
84.3558,66.8278
84.3035,66.8495
58.7834,66.8495
58.7311,66.8278
57.3353,65.4320
57.3136,65.3796
57.3136,24.6104
57.2863,24.5085
57.2863,24.5085
57.2336,24.4172
57.2336,24.4172
57.2336,24.4172
54.9253,22.1089
54.9036,22.0566
54.9068,22.0351
54.9367,21.9363
54.9551,21.7500
56.0449,21.7500
56.0633,21.9363
56.1176,22.1155
56.2059,22.2806
56.2059,22.2806
56.2059,22.2806
56.3246,22.4254
56.4694,22.5441
56.4694,22.5441
56.4694,22.5441
56.6345,22.6324
56.6345,22.6324
56.6345,22.6324
56.8137,22.6867
57.0000,22.7051
57.1863,22.6867
57.2851,22.6568
57.3414,22.6623
57.3589,22.6753
58.3278,23.6442
58.3495,23.6965
58.3495,65.6122
58.3495,65.7177
58.3768,65.8195
58.3768,65.8195
58.4295,65.9109
58.4295,65.9109
58.4295,65.9109
59.0891,66.5705
59.1805,66.6232
59.2823,66.6505
59.2823,66.6505
81.3027,66.6505
81.3027,66.6505
81.4046,66.6232
81.4959,66.5705
90.3897,57.6766
90.4421,57.6550
90.4775,57.6640
90.5790,57.7194
90.6877,57.7788
90.9491,57.8763
90.9491,57.8763
90.9491,57.8763
91.2217,57.9356
91.2835,57.9400
91.5000,57.9555
91.5000,57.9555
91.5000,57.9555
91.6948,57.9415
91.7783,57.9356
92.0509,57.8763
92.0509,57.8763
92.0509,57.8763
92.3123,57.7788
92.4210,57.7194
92.5572,57.6451
92.7806,57.4779
92.9779,57.2806
93.1451,57.0572
93.2788,56.8123
93.2788,56.8123
93.2788,56.8123
93.3763,56.5509
93.3763,56.5509
93.3763,56.5509
93.4356,56.2783
93.4517,56.0530
93.4770,56.0024
93.4861,55.9994
93.4732,55.9940
93.4517,55.9470
93.4356,55.7217
93.4356,55.7217
93.3763,55.4491
93.3763,55.4491
93.3763,55.4491
93.2788,55.1877
93.1451,54.9428
93.0637,54.8341
92.9779,54.7194
92.7806,54.5221
92.6689,54.4385
92.5572,54.3549
92.3123,54.2212
92.0509,54.1237
92.0509,54.1237
92.0509,54.1237
91.9960,54.1118
91.7783,54.0644
91.5000,54.0445
91.5000,54.0445
91.2217,54.0644
90.9491,54.1237
90.9491,54.1237
90.6877,54.2212
90.4428,54.3549
90.2194,54.5221
90.0221,54.7194
89.8549,54.9428
89.7212,55.1877
89.6237,55.4491
89.6237,55.4491
89.5644,55.7217
89.5445,56.0000
89.5445,56.0000
89.5644,56.2783
89.6237,56.5509
89.6237,56.5509
89.7212,56.8123
89.7212,56.8123
89.8360,57.0225
89.8420,57.0788
89.8233,57.1103
81.1058,65.8278
81.0535,65.8495
69.8620,65.8495
69.8096,65.8278
69.7880,65.7755
69.8096,65.7232
69.8157,65.7172
69.8505,65.6823
69.9164,65.5682
69.9505,65.4409
69.9505,65.4409
69.9505,27.8091
69.9419,27.7768
69.9164,27.6818
69.9164,27.6818
69.9147,27.6778
69.9147,27.6212
69.9548,27.5811
69.9831,27.5755
71.2285,27.5755
71.2808,27.5972
71.3278,27.6442
71.3495,27.6965
71.3495,33.6973
71.3495,33.8027
71.3768,33.9046
71.3768,33.9046
71.4295,33.9959
71.4295,33.9959
71.4295,33.9959
74.4111,36.9775
77.3233,39.8897
77.3450,39.9421
77.3360,39.9775
77.2212,40.1877
77.1237,40.4491
77.1237,40.4491
77.0644,40.7217
77.0445,41.0000
77.0445,41.0000
77.0644,41.2783
77.1237,41.5509
77.1237,41.5509
77.2212,41.8123
77.3549,42.0572
77.4385,42.1689
77.5221,42.2806
77.7194,42.4779
77.8869,42.6033
77.9428,42.6451
78.1877,42.7788
78.4491,42.8763
78.4491,42.8763
78.4491,42.8763
78.7217,42.9356
78.7835,42.9400
79.0000,42.9555
79.0000,42.9555
79.0000,42.9555
79.1948,42.9415
79.2783,42.9356
79.5509,42.8763
79.5509,42.8763
79.5509,42.8763
79.8123,42.7788
80.0572,42.6451
80.0572,42.6451
80.0572,42.6451
80.2806,42.4779
80.4779,42.2806
80.6451,42.0572
80.7788,41.8123
80.7788,41.8123
80.7788,41.8123
80.8763,41.5509
80.8763,41.5509
80.8763,41.5509
80.9356,41.2783
80.9555,41.0000
80.9555,41.0000
80.9356,40.7217
80.9356,40.7217
80.8763,40.4491
80.8763,40.4491
80.8763,40.4491
80.7788,40.1877
80.6451,39.9428
80.5223,39.7788
80.4779,39.7194
80.2806,39.5221
80.0695,39.3641
80.0572,39.3549
79.8123,39.2212
79.5509,39.1237
79.5509,39.1237
79.5509,39.1237
79.4960,39.1118
79.2783,39.0644
79.0000,39.0445
79.0000,39.0445
78.7217,39.0644
78.4491,39.1237
78.4491,39.1237
78.1877,39.2212
77.9775,39.3360
77.9212,39.3420
77.8897,39.3233
72.1722,33.6058
72.1505,33.5535
72.1505,27.4473
72.1505,27.4473
72.1406,27.4103
72.1232,27.3454
72.0705,27.2541
71.9959,27.1795
71.8932,27.0768
71.8715,27.0245
71.8932,26.9722
71.9455,26.9505
72.1035,26.9505
72.1558,26.9722
74.8278,29.6442
74.8495,29.6965
74.8495,32.6973
74.8495,32.8027
74.8692,32.8763
74.8768,32.9046
74.8768,32.9046
74.9295,32.9959
74.9295,32.9959
74.9295,32.9959
77.7541,35.8205
77.8454,35.8732
77.9473,35.9005
82.5535,35.9005
82.6058,35.9222
91.0778,44.3942
91.0995,44.4465
91.0995,45.0314
91.0778,45.0837
91.0412,45.1037
90.9491,45.1237
90.9491,45.1237
90.6877,45.2212
90.4428,45.3549
90.2194,45.5221
90.0221,45.7194
89.8549,45.9428
89.7212,46.1877
89.6237,46.4491
89.6237,46.4491
89.5644,46.7217
89.5445,47.0000
89.5445,47.0000
89.5644,47.2783
89.6237,47.5509
89.6237,47.5509
89.7212,47.8123
89.8549,48.0572
89.8835,48.0954
90.0221,48.2806
90.2194,48.4779
90.3869,48.6033
90.4428,48.6451
90.6877,48.7788
90.9491,48.8763
90.9491,48.8763
90.9491,48.8763
91.2217,48.9356
91.2835,48.9400
91.5000,48.9555
91.5000,48.9555
91.5000,48.9555
91.6948,48.9415
91.7783,48.9356
92.0509,48.8763
92.0509,48.8763
92.0509,48.8763
92.3123,48.7788
92.4210,48.7194
92.5572,48.6451
92.7806,48.4779
92.9779,48.2806
93.1451,48.0572
93.2788,47.8123
93.2788,47.8123
93.2788,47.8123
93.3763,47.5509
93.3763,47.5509
93.3763,47.5509
93.4356,47.2783
93.4517,47.0530
93.4555,47.0000
93.4555,47.0000
93.4356,46.7217
93.4356,46.7217
93.3763,46.4491
93.3763,46.4491
93.3763,46.4491
93.2788,46.1877
93.1451,45.9428
93.1033,45.8869
92.9779,45.7194
92.7806,45.5221
92.6514,45.4255
92.5572,45.3549
92.3123,45.2212
92.0509,45.1237
92.0509,45.1237
92.0509,45.1237
91.9588,45.1037
91.9122,45.0714
91.9005,45.0314
91.9005,44.3087
91.9005,44.3087
91.9005,44.1973
91.9005,44.1973
91.8732,44.0954
91.8732,44.0954
91.8205,44.0041
91.7433,43.9269
91.7433,43.9269
87.4614,39.6451
82.9959,35.1795
82.9959,35.1795
82.9959,35.1795
82.9046,35.1268
82.9046,35.1268
82.8027,35.0995
82.8027,35.0995
78.1965,35.0995
78.1442,35.0778
75.6722,32.6058
75.6505,32.5535
75.6505,29.4473
75.6232,29.3454
75.6232,29.3454
75.5705,29.2541
75.5705,29.2541
75.5705,29.2541
72.7932,26.4768
72.7715,26.4245
72.7932,26.3722
72.8455,26.3505
73.2535,26.3505
73.3058,26.3722
76.8233,29.8897
76.8450,29.9421
76.8360,29.9775
76.7212,30.1877
76.6237,30.4491
76.6237,30.4491
76.5644,30.7217
76.5445,31.0000
76.5445,31.0000
76.5644,31.2783
76.6237,31.5509
76.6237,31.5509
76.7212,31.8123
76.8549,32.0572
76.9385,32.1689
77.0221,32.2806
77.2194,32.4779
77.3869,32.6033
77.4428,32.6451
77.6877,32.7788
77.9491,32.8763
77.9491,32.8763
77.9491,32.8763
78.2217,32.9356
78.2835,32.9400
78.5000,32.9555
78.5000,32.9555
78.5000,32.9555
78.6948,32.9415
78.7783,32.9356
79.0509,32.8763
79.0509,32.8763
79.0509,32.8763
79.3123,32.7788
79.5572,32.6451
79.5572,32.6451
79.5572,32.6451
79.7806,32.4779
79.9779,32.2806
80.1451,32.0572
80.2788,31.8123
80.2788,31.8123
80.2788,31.8123
80.3763,31.5509
80.3763,31.5509
80.3763,31.5509
80.4356,31.2783
80.4555,31.0000
80.4555,31.0000
80.4356,30.7217
80.4356,30.7217
80.3763,30.4491
80.3763,30.4491
80.3763,30.4491
80.2788,30.1877
80.1451,29.9428
80.1033,29.8869
79.9779,29.7194
79.7806,29.5221
79.5695,29.3641
79.5572,29.3549
79.3123,29.2212
79.0509,29.1237
79.0509,29.1237
79.0509,29.1237
78.9588,29.1037
78.7783,29.0644
78.5000,29.0445
78.5000,29.0445
78.2217,29.0644
77.9491,29.1237
77.9491,29.1237
77.6877,29.2212
77.4775,29.3360
77.4212,29.3420
77.3897,29.3233
75.8432,27.7768
75.8215,27.7245
75.8432,27.6722
75.8955,27.6505
80.5535,27.6505
80.6058,27.6722
89.8233,36.8897
89.8450,36.9421
89.8360,36.9775
89.7212,37.1877
89.6237,37.4491
89.6237,37.4491
89.5644,37.7217
89.5445,38.0000
89.5445,38.0000
89.5644,38.2783
89.6237,38.5509
89.6237,38.5509
89.7212,38.8123
89.8549,39.0572
89.9047,39.1237
90.0221,39.2806
90.2194,39.4779
90.3869,39.6033
90.4428,39.6451
90.6877,39.7788
90.9491,39.8763
90.9491,39.8763
90.9491,39.8763
91.2217,39.9356
91.2835,39.9400
91.5000,39.9555
91.5000,39.9555
91.5000,39.9555
91.6948,39.9415
91.7783,39.9356
92.0509,39.8763
92.0509,39.8763
92.0509,39.8763
92.3123,39.7788
92.4210,39.7194
92.5572,39.6451
92.7806,39.4779
92.9779,39.2806
93.1451,39.0572
93.2788,38.8123
93.2788,38.8123
93.2788,38.8123
93.3763,38.5509
93.3763,38.5509
93.3763,38.5509
93.4356,38.2783
93.4517,38.0530
93.4555,38.0000
93.4555,38.0000
93.4356,37.7217
93.4356,37.7217
93.3763,37.4491
93.3763,37.4491
93.3763,37.4491
93.2788,37.1877
93.1451,36.9428
93.1033,36.8869
92.9779,36.7194
92.7806,36.5221
92.5695,36.3641
92.5572,36.3549
92.3123,36.2212
92.0509,36.1237
92.0509,36.1237
92.0509,36.1237
91.9960,36.1118
91.7783,36.0644
91.5000,36.0445
91.5000,36.0445
91.2217,36.0644
90.9491,36.1237
90.9491,36.1237
90.6877,36.2212
90.4775,36.3360
90.4212,36.3420
90.3897,36.3233
85.8787,31.8123
80.9959,26.9295
80.9959,26.9295
80.9959,26.9295
80.9046,26.8768
80.9046,26.8768
80.8027,26.8495
80.8027,26.8495
75.8451,26.8495
75.7927,26.8278
74.9881,26.0232
73.9944,25.0295
73.9944,25.0295
73.9944,25.0295
73.9031,24.9768
73.9031,24.9768
73.8013,24.9495
73.8013,24.9495
72.7965,24.9495
72.7442,24.9278
69.9253,22.1089
69.9036,22.0566
69.9068,22.0351
69.9367,21.9363
69.9551,21.7500
69.9367,21.5637
69.8824,21.3845
69.8824,21.3845
69.8824,21.3845
69.7941,21.2194
69.7941,21.2194
69.7941,21.2194
69.6754,21.0746
69.5306,20.9559
69.5306,20.9559
69.5306,20.9559
69.3655,20.8676
69.1863,20.8133
69.0000,20.7949
68.8137,20.8133
68.6345,20.8676
68.4694,20.9559
68.4694,20.9559
68.3246,21.0746
68.2059,21.2194
68.2059,21.2194
68.1176,21.3845
68.0633,21.5637
68.0449,21.7500
68.0633,21.9363
68.1176,22.1155
68.2059,22.2806
68.2059,22.2806
68.2059,22.2806
68.3246,22.4254
68.4694,22.5441
68.4694,22.5441
68.4694,22.5441
68.6345,22.6324
68.6345,22.6324
68.6345,22.6324
68.8137,22.6867
69.0000,22.7051
69.1863,22.6867
69.2851,22.6568
69.3414,22.6623
69.3589,22.6753
72.1068,25.4232
72.1285,25.4755
72.1068,25.5278
72.0545,25.5495
70.3965,25.5495
70.3442,25.5278
66.9253,22.1089
66.9036,22.0566
66.9068,22.0351
66.9367,21.9363
66.9551,21.7500
66.9367,21.5637
66.8824,21.3845
66.8824,21.3845
66.8824,21.3845
66.7941,21.2194
66.7941,21.2194
66.7941,21.2194
66.6754,21.0746
66.5306,20.9559
66.5306,20.9559
66.5306,20.9559
66.3655,20.8676
66.1863,20.8133
66.0000,20.7949
65.8137,20.8133
65.6345,20.8676
65.4694,20.9559
65.4694,20.9559
65.3246,21.0746
65.2059,21.2194
65.2059,21.2194
65.1176,21.3845
65.0633,21.5637
65.0449,21.7500
65.0633,21.9363
65.1176,22.1155
65.2059,22.2806
65.2059,22.2806
65.2059,22.2806
65.3246,22.4254
65.4694,22.5441
65.4694,22.5441
65.4694,22.5441
65.6345,22.6324
65.6345,22.6324
65.6345,22.6324
65.8137,22.6867
66.0000,22.7051
66.1863,22.6867
66.2851,22.6568
66.3414,22.6623
66.3589,22.6753
69.7068,26.0232
69.7285,26.0755
69.7068,26.1278
69.6545,26.1495
67.9965,26.1495
67.9442,26.1278
63.9253,22.1089
63.9036,22.0566
63.9068,22.0351
63.9367,21.9363
63.9551,21.7500
63.9367,21.5637
63.8824,21.3845
63.8824,21.3845
63.8824,21.3845
63.7941,21.2194
63.7941,21.2194
63.7941,21.2194
63.6754,21.0746
63.5306,20.9559
63.5306,20.9559
63.5306,20.9559
63.3655,20.8676
63.1863,20.8133
63.0000,20.7949
62.8137,20.8133
62.6345,20.8676
62.4694,20.9559
62.4694,20.9559
62.3246,21.0746
62.2059,21.2194
62.2059,21.2194
62.1176,21.3845
62.0633,21.5637
62.0449,21.7500
62.0633,21.9363
62.1176,22.1155
62.2059,22.2806
62.2059,22.2806
62.2059,22.2806
62.3246,22.4254
62.4694,22.5441
62.4694,22.5441
62.4694,22.5441
62.6345,22.6324
62.6345,22.6324
62.6345,22.6324
62.8137,22.6867
63.0000,22.7051
63.1863,22.6867
63.2851,22.6568
63.3414,22.6623
63.3589,22.6753
67.3318,26.6482
67.3535,26.7005
67.3318,26.7528
67.2795,26.7745
65.6215,26.7745
65.5692,26.7528
60.9253,22.1089
60.9036,22.0566
60.9068,22.0351
60.9367,21.9363
60.9551,21.7500
60.9367,21.5637
60.8824,21.3845
60.8824,21.3845
60.8824,21.3845
60.7941,21.2194
60.7941,21.2194
60.7941,21.2194
60.6754,21.0746
60.5306,20.9559
60.5306,20.9559
60.5306,20.9559
60.3655,20.8676
60.1863,20.8133
60.0000,20.7949
59.8137,20.8133
59.6345,20.8676
59.4694,20.9559
59.4694,20.9559
59.3246,21.0746
59.2059,21.2194
59.2059,21.2194
59.1176,21.3845
59.0633,21.5637
59.0449,21.7500
59.0633,21.9363
59.1176,22.1155
59.2059,22.2806
59.2059,22.2806
59.2059,22.2806
59.3246,22.4254
59.4694,22.5441
59.4694,22.5441
59.4694,22.5441
59.6345,22.6324
59.6345,22.6324
59.6345,22.6324
59.8137,22.6867
60.0000,22.7051
60.1863,22.6867
60.2851,22.6568
60.3414,22.6623
60.3589,22.6753
62.6795,24.9959
64.9318,27.2482
64.9535,27.3005
64.9318,27.3528
64.8795,27.3745
59.3841,27.3745
59.2568,27.4086
59.2528,27.4103
59.1962,27.4103
59.1561,27.3702
59.1505,27.3419
59.1505,23.5587
59.1505,23.5587
59.1505,23.4473
59.1505,23.4473
59.1232,23.3454
59.1232,23.3454
59.1105,23.3235
59.0705,23.2541
58.9933,23.1769
58.9933,23.1769
57.9253,22.1089
57.9036,22.0566
57.9068,22.0351
57.9367,21.9363
57.9551,21.7500
57.9367,21.5637
57.8824,21.3845
57.8824,21.3845
57.8824,21.3845
57.7941,21.2194
57.7941,21.2194
57.7941,21.2194
57.6754,21.0746
57.5306,20.9559
57.5306,20.9559
57.5306,20.9559
57.3655,20.8676
57.1863,20.8133
57.0000,20.7949
56.8137,20.8133
56.6345,20.8676
56.4694,20.9559
56.4694,20.9559
56.3246,21.0746
56.2059,21.2194
56.2059,21.2194
56.1176,21.3845
56.0633,21.5637
56.0449,21.7500
54.9551,21.7500
54.9367,21.5637
54.8824,21.3845
54.8824,21.3845
54.8824,21.3845
54.7941,21.2194
54.7941,21.2194
54.7941,21.2194
54.6754,21.0746
54.5306,20.9559
54.5306,20.9559
54.5306,20.9559
54.3655,20.8676
54.1863,20.8133
54.0000,20.7949
53.8137,20.8133
53.6345,20.8676
53.4694,20.9559
53.4694,20.9559
53.3246,21.0746
53.2059,21.2194
53.2059,21.2194
53.1176,21.3845
53.0633,21.5637
53.0449,21.7500
53.0633,21.9363
53.1176,22.1155
53.2059,22.2806
53.2059,22.2806
53.2059,22.2806
53.3246,22.4254
53.4694,22.5441
53.4694,22.5441
53.4694,22.5441
53.6345,22.6324
53.6345,22.6324
53.6345,22.6324
53.8137,22.6867
54.0000,22.7051
54.1863,22.6867
54.2851,22.6568
54.3414,22.6623
54.3589,22.6753
56.4909,24.8073
56.5126,24.8596
56.5126,64.9044
56.4909,64.9567
56.4386,64.9784
56.3863,64.9567
56.3693,64.9303
56.2788,64.6877
56.1451,64.4428
56.0343,64.2948
55.9779,64.2194
55.7806,64.0221
55.6689,63.9385
55.5572,63.8549
55.3123,63.7212
55.0509,63.6237
55.0509,63.6237
55.0509,63.6237
54.9428,63.6002
54.7783,63.5644
54.5000,63.5445
54.5000,63.5445
54.2217,63.5644
53.9491,63.6237
53.9491,63.6237
53.6877,63.7212
53.4428,63.8549
53.2194,64.0221
53.0221,64.2194
52.8549,64.4428
52.7212,64.6877
52.6237,64.9491
52.6237,64.9491
52.5644,65.2217
52.5445,65.5000
52.5445,65.5000
52.5644,65.7783
52.5832,65.8647
52.5732,65.9204
52.5266,65.9527
52.4709,65.9427
52.4586,65.9327
51.4222,64.8963
51.4005,64.8440
51.4005,56.0583
51.4222,56.0060
51.4351,56.0006
51.5139,56.0006
51.5268,56.0060
51.5483,56.0530
51.5644,56.2783
51.6237,56.5509
51.6237,56.5509
51.7212,56.8123
51.8549,57.0572
51.8711,57.0788
52.0221,57.2806
52.2194,57.4779
52.3869,57.6033
52.4428,57.6451
52.6877,57.7788
52.9491,57.8763
52.9491,57.8763
52.9491,57.8763
53.2217,57.9356
53.2835,57.9400
53.5000,57.9555
53.5000,57.9555
53.5000,57.9555
53.6948,57.9415
53.7783,57.9356
54.0509,57.8763
54.0509,57.8763
54.0509,57.8763
54.3123,57.7788
54.4210,57.7194
54.5572,57.6451
54.7806,57.4779
54.9779,57.2806
55.1451,57.0572
55.2788,56.8123
55.2788,56.8123
55.2788,56.8123
55.3763,56.5509
55.3763,56.5509
55.3763,56.5509
55.4356,56.2783
55.4548,56.0099
55.4555,56.0000
55.4555,56.0000
55.4356,55.7217
55.4356,55.7217
55.3763,55.4491
55.3763,55.4491
55.3763,55.4491
55.2788,55.1877
55.1451,54.9428
55.0637,54.8341
54.9779,54.7194
54.7806,54.5221
54.6689,54.4385
54.5572,54.3549
54.3123,54.2212
54.0509,54.1237
54.0509,54.1237
54.0509,54.1237
53.9960,54.1118
53.7783,54.0644
53.5000,54.0445
53.5000,54.0445
53.2217,54.0644
52.9491,54.1237
52.9491,54.1237
52.6877,54.2212
52.4428,54.3549
52.2194,54.5221
52.0221,54.7194
51.8549,54.9428
51.7212,55.1877
51.6237,55.4491
51.6237,55.4491
51.5644,55.7217
51.5483,55.9470
51.5230,55.9976
51.5139,56.0006
51.4351,56.0006
51.4375,55.9996
51.4186,55.9901
51.4005,55.9417
51.4005,47.0583
51.4222,47.0060
51.4351,47.0006
51.5139,47.0006
51.5268,47.0060
51.5483,47.0530
51.5644,47.2783
51.6237,47.5509
51.6237,47.5509
51.7212,47.8123
51.8549,48.0572
51.8835,48.0954
52.0221,48.2806
52.2194,48.4779
52.3869,48.6033
52.4428,48.6451
52.6877,48.7788
52.9491,48.8763
52.9491,48.8763
52.9491,48.8763
53.2217,48.9356
53.2835,48.9400
53.5000,48.9555
53.5000,48.9555
53.5000,48.9555
53.6948,48.9415
53.7783,48.9356
54.0509,48.8763
54.0509,48.8763
54.0509,48.8763
54.3123,48.7788
54.4210,48.7194
54.5572,48.6451
54.7806,48.4779
54.9779,48.2806
55.1451,48.0572
55.2788,47.8123
55.2788,47.8123
55.2788,47.8123
55.3763,47.5509
55.3763,47.5509
55.3763,47.5509
55.4356,47.2783
55.4517,47.0530
55.4555,47.0000
55.4555,47.0000
55.4356,46.7217
55.4356,46.7217
55.3763,46.4491
55.3763,46.4491
55.3763,46.4491
55.2788,46.1877
55.1451,45.9428
55.1033,45.8869
54.9779,45.7194
54.7806,45.5221
54.6514,45.4255
54.5572,45.3549
54.3123,45.2212
54.0509,45.1237
54.0509,45.1237
54.0509,45.1237
53.9588,45.1037
53.7783,45.0644
53.5000,45.0445
53.5000,45.0445
53.2217,45.0644
52.9491,45.1237
52.9491,45.1237
52.6877,45.2212
52.4428,45.3549
52.2194,45.5221
52.0221,45.7194
51.8549,45.9428
51.7212,46.1877
51.6237,46.4491
51.6237,46.4491
51.5644,46.7217
51.5483,46.9470
51.5230,46.9976
51.5139,47.0006
51.4351,47.0006
51.4375,46.9996
51.4186,46.9901
51.4005,46.9417
51.4005,38.0583
51.4222,38.0060
51.4351,38.0006
51.5139,38.0006
51.5268,38.0060
51.5483,38.0530
51.5644,38.2783
51.6237,38.5509
51.6237,38.5509
51.7212,38.8123
51.8549,39.0572
51.9047,39.1237
52.0221,39.2806
52.2194,39.4779
52.3869,39.6033
52.4428,39.6451
52.6877,39.7788
52.9491,39.8763
52.9491,39.8763
52.9491,39.8763
53.2217,39.9356
53.2835,39.9400
53.5000,39.9555
53.5000,39.9555
53.5000,39.9555
53.6948,39.9415
53.7783,39.9356
54.0509,39.8763
54.0509,39.8763
54.0509,39.8763
54.3123,39.7788
54.4210,39.7194
54.5572,39.6451
54.7806,39.4779
54.9779,39.2806
55.1451,39.0572
55.2788,38.8123
55.2788,38.8123
55.2788,38.8123
55.3763,38.5509
55.3763,38.5509
55.3763,38.5509
55.4356,38.2783
55.4517,38.0530
55.4555,38.0000
55.4555,38.0000
55.4356,37.7217
55.4356,37.7217
55.3763,37.4491
55.3763,37.4491
55.3763,37.4491
55.2788,37.1877
55.1451,36.9428
55.1033,36.8869
54.9779,36.7194
54.7806,36.5221
54.5695,36.3641
54.5572,36.3549
54.3123,36.2212
54.0509,36.1237
54.0509,36.1237
54.0509,36.1237
53.9960,36.1118
53.7783,36.0644
53.5000,36.0445
53.5000,36.0445
53.2217,36.0644
52.9491,36.1237
52.9491,36.1237
52.6877,36.2212
52.4428,36.3549
52.2194,36.5221
52.0221,36.7194
51.8549,36.9428
51.7212,37.1877
51.6237,37.4491
51.6237,37.4491
51.5644,37.7217
51.5483,37.9470
51.5230,37.9976
51.5139,38.0006
51.4351,38.0006
51.4375,37.9996
51.4186,37.9901
51.4005,37.9417
51.4005,22.6580
51.4222,22.6057
51.4396,22.5928
51.5306,22.5441
51.6754,22.4254
51.7941,22.2806
51.8824,22.1155
51.9367,21.9363
51.9551,21.7500
51.9367,21.5637
51.8824,21.3845
51.8824,21.3845
51.8824,21.3845
51.7941,21.2194
51.7941,21.2194
51.7941,21.2194
51.6754,21.0746
51.5306,20.9559
51.5306,20.9559
51.5306,20.9559
51.3655,20.8676
51.1863,20.8133
51.0000,20.7949
50.8137,20.8133
50.6345,20.8676
50.4694,20.9559
50.4694,20.9559
50.3246,21.0746
50.2059,21.2194
50.2059,21.2194
50.1176,21.3845
50.0633,21.5637
50.0449,21.7500
50.0633,21.9363
50.1176,22.1155
50.2059,22.2806
50.2059,22.2806
50.2059,22.2806
50.3246,22.4254
50.4694,22.5441
50.5604,22.5928
50.5963,22.6366
50.5995,22.6580
50.5995,64.9878
50.5995,65.0933
50.6159,65.1546
50.6268,65.1951
50.6268,65.1952
50.6795,65.2865
50.6795,65.2865
50.6795,65.2865
54.2135,68.8205
54.3049,68.8732
54.4067,68.9005
54.4067,68.9005
89.5527,68.9005
89.5527,68.9005
89.6546,68.8732
89.7459,68.8205
91.3897,67.1766
91.4421,67.1550
91.4775,67.1640
91.6877,67.2788
91.6877,67.2788
91.9491,67.3763
91.9491,67.3763
91.9491,67.3763
92.2217,67.4356
92.2835,67.4400
92.5000,67.4555
92.5000,67.4555
92.5000,67.4555
92.6948,67.4415
92.7783,67.4356
93.0509,67.3763
93.0509,67.3763
93.0509,67.3763
93.1411,67.3426
93.1977,67.3446
93.2363,67.3861
93.2343,67.4427
93.2193,67.4643
91.4427,69.2409
91.3904,69.2626
52.8596,69.2626
52.8073,69.2409
48.4222,64.8558
48.4005,64.8035
48.4005,22.6580
48.4222,22.6057
48.4396,22.5928
48.5306,22.5441
48.6754,22.4254
48.7941,22.2806
48.8824,22.1155
48.9367,21.9363
48.9551,21.7500
48.9367,21.5637
48.8824,21.3845
48.8824,21.3845
48.8824,21.3845
48.7941,21.2194
48.7941,21.2194
48.7941,21.2194
48.6754,21.0746
48.5306,20.9559
48.5306,20.9559
48.5306,20.9559
48.3655,20.8676
48.1863,20.8133
48.0000,20.7949
47.8137,20.8133
47.6345,20.8676
47.4694,20.9559
47.4694,20.9559
47.3246,21.0746
47.2059,21.2194
47.2059,21.2194
47.1176,21.3845
47.0633,21.5637
47.0449,21.7500
47.0633,21.9363
47.1176,22.1155
47.2059,22.2806
47.2059,22.2806
47.2059,22.2806
47.3246,22.4254
47.4694,22.5441
47.5604,22.5928
47.5963,22.6366
47.5995,22.6580
47.5995,64.9473
47.5995,65.0527
47.6104,65.0933
47.6268,65.1546
47.6268,65.1546
47.6795,65.2459
47.6795,65.2459
47.6795,65.2459
49.9942,67.5606
52.1699,69.7363
52.1915,69.7886
52.1699,69.8409
52.1175,69.8626
10.0745,69.8626
10.0222,69.8409
10.0005,69.7886
10.0005,65.5000
14.5445,65.5000
14.5644,65.7783
14.6237,66.0509
14.6237,66.0509
14.7212,66.3123
14.8549,66.5572
14.9385,66.6689
15.0221,66.7806
15.2194,66.9779
15.3056,67.0423
15.4428,67.1451
15.6877,67.2788
15.9491,67.3763
15.9491,67.3763
15.9491,67.3763
16.2217,67.4356
16.2835,67.4400
16.5000,67.4555
16.5000,67.4555
16.5000,67.4555
16.6948,67.4415
16.7783,67.4356
17.0509,67.3763
17.0509,67.3763
17.0509,67.3763
17.3123,67.2788
17.5161,67.1675
17.5572,67.1451
17.7806,66.9779
17.9779,66.7806
18.1451,66.5572
18.2788,66.3123
18.2788,66.3123
18.2788,66.3123
18.3763,66.0509
18.3763,66.0509
18.3763,66.0509
18.3873,66.0000
40.7950,66.0000
40.8151,66.3589
40.8151,66.3589
40.8753,66.7132
40.9748,67.0586
41.1124,67.3906
41.1124,67.3906
41.2862,67.7052
41.2862,67.7052
41.4942,67.9983
41.6002,68.1169
42.7355,66.9817
42.7796,67.0423
42.9577,67.2204
43.0183,67.2645
41.8831,68.3998
42.0017,68.5058
42.2948,68.7138
42.2948,68.7138
42.6094,68.8876
42.6094,68.8876
42.9414,69.0252
43.2868,69.1247
43.2868,69.1247
43.6411,69.1849
43.6411,69.1849
44.0000,69.2050
44.3589,69.1849
44.3589,69.1849
44.7132,69.1247
45.0586,69.0252
45.3906,68.8876
45.3906,68.8876
45.7052,68.7138
45.7052,68.7138
45.9983,68.5058
46.1169,68.3998
46.1169,68.3998
44.9817,67.2645
45.0423,67.2204
45.2204,67.0423
45.2645,66.9817
46.3998,68.1169
46.3998,68.1169
46.5058,67.9983
46.7138,67.7052
46.7138,67.7052
46.8876,67.3906
46.8876,67.3906
47.0252,67.0586
47.1247,66.7132
47.1849,66.3589
47.1849,66.3589
47.2050,66.0000
47.1849,65.6411
47.1849,65.6411
47.1247,65.2868
47.0252,64.9414
46.8876,64.6094
46.8876,64.6094
46.7138,64.2948
46.7138,64.2948
46.5058,64.0017
46.3998,63.8831
46.3998,63.8831
45.2645,65.0183
45.2204,64.9577
45.0423,64.7796
44.9817,64.7355
46.1169,63.6002
45.9983,63.4942
45.7052,63.2862
45.7052,63.2862
45.3906,63.1124
45.3906,63.1124
45.0586,62.9748
44.7132,62.8753
44.7132,62.8753
44.3589,62.8151
44.3589,62.8151
44.0000,62.7950
43.6411,62.8151
43.6411,62.8151
43.2868,62.8753
42.9414,62.9748
42.6094,63.1124
42.6094,63.1124
42.2948,63.2862
42.2948,63.2862
42.0017,63.4942
41.8831,63.6002
43.0183,64.7355
42.9577,64.7796
42.7796,64.9577
42.7355,65.0183
41.6002,63.8831
41.4942,64.0017
41.2862,64.2948
41.2862,64.2948
41.1124,64.6094
41.1124,64.6094
40.9748,64.9414
40.8753,65.2868
40.8151,65.6411
40.8151,65.6411
40.7950,66.0000
18.3873,66.0000
18.4356,65.7783
18.4506,65.5682
18.4555,65.5000
18.4555,65.5000
18.4513,65.4409
20.4995,65.4409
20.5336,65.5682
20.5336,65.5682
20.5835,65.6546
20.5995,65.6823
20.6927,65.7755
20.8068,65.8414
20.9341,65.8755
20.9341,65.8755
20.9341,65.8755
34.5159,65.8755
34.5159,65.8755
34.6432,65.8414
34.7573,65.7755
34.8505,65.6823
34.9164,65.5682
34.9505,65.4409
34.9505,65.4409
34.9505,59.0000
39.0445,59.0000
39.0644,59.2783
39.1237,59.5509
39.1237,59.5509
39.2212,59.8123
39.3549,60.0572
39.4207,60.1451
39.5221,60.2806
39.7194,60.4779
39.8869,60.6033
39.9428,60.6451
40.1877,60.7788
40.4491,60.8763
40.4491,60.8763
40.4491,60.8763
40.7217,60.9356
40.7835,60.9400
41.0000,60.9555
41.0000,60.9555
41.0000,60.9555
41.1948,60.9415
41.2783,60.9356
41.5509,60.8763
41.5509,60.8763
41.5509,60.8763
41.8123,60.7788
42.0572,60.6451
42.0572,60.6451
42.0572,60.6451
42.2806,60.4779
42.4779,60.2806
42.6451,60.0572
42.7788,59.8123
42.7788,59.8123
42.7788,59.8123
42.8763,59.5509
42.8763,59.5509
42.8763,59.5509
42.9356,59.2783
42.9518,59.0509
42.9555,59.0000
42.9555,59.0000
42.9356,58.7217
42.9356,58.7217
42.8763,58.4491
42.8763,58.4491
42.8763,58.4491
42.7788,58.1877
42.6451,57.9428
42.5953,57.8763
42.4779,57.7194
42.2806,57.5221
42.1582,57.4305
42.0572,57.3549
41.8123,57.2212
41.5509,57.1237
41.5509,57.1237
41.5509,57.1237
41.4890,57.1103
41.2783,57.0644
41.0000,57.0445
41.0000,57.0445
40.7217,57.0644
40.4491,57.1237
40.4491,57.1237
40.1877,57.2212
39.9428,57.3549
39.7194,57.5221
39.5221,57.7194
39.3549,57.9428
39.2212,58.1877
39.1237,58.4491
39.1237,58.4491
39.0644,58.7217
39.0445,59.0000
39.0445,59.0000
34.9505,59.0000
34.9505,50.0000
39.0445,50.0000
39.0644,50.2783
39.1237,50.5509
39.1237,50.5509
39.2212,50.8123
39.3549,51.0572
39.3947,51.1103
39.5221,51.2806
39.7194,51.4779
39.8869,51.6033
39.9428,51.6451
40.1877,51.7788
40.4491,51.8763
40.4491,51.8763
40.4491,51.8763
40.7217,51.9356
40.7835,51.9400
41.0000,51.9555
41.0000,51.9555
41.0000,51.9555
41.1948,51.9415
41.2783,51.9356
41.5509,51.8763
41.5509,51.8763
41.5509,51.8763
41.8123,51.7788
42.0336,51.6580
42.0572,51.6451
42.2806,51.4779
42.4779,51.2806
42.6451,51.0572
42.7788,50.8123
42.7788,50.8123
42.7788,50.8123
42.8763,50.5509
42.8763,50.5509
42.8763,50.5509
42.9356,50.2783
42.9555,50.0000
42.9555,50.0000
42.9356,49.7217
42.9356,49.7217
42.8763,49.4491
42.8763,49.4491
42.8763,49.4491
42.7788,49.1877
42.6451,48.9428
42.5223,48.7788
42.4779,48.7194
42.2806,48.5221
42.0695,48.3641
42.0572,48.3549
41.8123,48.2212
41.5509,48.1237
41.5509,48.1237
41.5509,48.1237
41.4208,48.0954
41.2783,48.0644
41.0000,48.0445
41.0000,48.0445
40.7217,48.0644
40.4491,48.1237
40.4491,48.1237
40.1877,48.2212
39.9428,48.3549
39.7194,48.5221
39.5221,48.7194
39.3549,48.9428
39.2212,49.1877
39.1237,49.4491
39.1237,49.4491
39.0644,49.7217
39.0445,50.0000
39.0445,50.0000
34.9505,50.0000
34.9505,41.0000
39.0445,41.0000
39.0644,41.2783
39.1237,41.5509
39.1237,41.5509
39.2212,41.8123
39.3549,42.0572
39.4385,42.1689
39.5221,42.2806
39.7194,42.4779
39.8869,42.6033
39.9428,42.6451
40.1877,42.7788
40.4491,42.8763
40.4491,42.8763
40.4491,42.8763
40.7217,42.9356
40.7835,42.9400
41.0000,42.9555
41.0000,42.9555
41.0000,42.9555
41.1948,42.9415
41.2783,42.9356
41.5509,42.8763
41.5509,42.8763
41.5509,42.8763
41.8123,42.7788
42.0572,42.6451
42.0572,42.6451
42.0572,42.6451
42.2806,42.4779
42.4779,42.2806
42.6451,42.0572
42.7788,41.8123
42.7788,41.8123
42.7788,41.8123
42.8763,41.5509
42.8763,41.5509
42.8763,41.5509
42.9356,41.2783
42.9555,41.0000
42.9555,41.0000
42.9356,40.7217
42.9356,40.7217
42.8763,40.4491
42.8763,40.4491
42.8763,40.4491
42.7788,40.1877
42.6451,39.9428
42.5223,39.7788
42.4779,39.7194
42.2806,39.5221
42.0695,39.3641
42.0572,39.3549
41.8123,39.2212
41.5509,39.1237
41.5509,39.1237
41.5509,39.1237
41.4960,39.1118
41.2783,39.0644
41.0000,39.0445
41.0000,39.0445
40.7217,39.0644
40.4491,39.1237
40.4491,39.1237
40.1877,39.2212
39.9428,39.3549
39.7194,39.5221
39.5221,39.7194
39.3549,39.9428
39.2212,40.1877
39.1237,40.4491
39.1237,40.4491
39.0644,40.7217
39.0445,41.0000
39.0445,41.0000
34.9505,41.0000
34.9505,31.0000
38.5445,31.0000
38.5644,31.2783
38.6237,31.5509
38.6237,31.5509
38.7212,31.8123
38.8549,32.0572
38.9385,32.1689
39.0221,32.2806
39.2194,32.4779
39.3869,32.6033
39.4428,32.6451
39.6877,32.7788
39.9491,32.8763
39.9491,32.8763
39.9491,32.8763
40.2217,32.9356
40.2835,32.9400
40.5000,32.9555
40.5000,32.9555
40.5000,32.9555
40.6948,32.9415
40.7783,32.9356
41.0509,32.8763
41.0509,32.8763
41.0509,32.8763
41.3123,32.7788
41.5572,32.6451
41.5572,32.6451
41.5572,32.6451
41.7806,32.4779
41.9779,32.2806
42.1451,32.0572
42.2788,31.8123
42.2788,31.8123
42.2788,31.8123
42.3763,31.5509
42.3763,31.5509
42.3763,31.5509
42.4356,31.2783
42.4555,31.0000
42.4555,31.0000
42.4356,30.7217
42.4356,30.7217
42.3763,30.4491
42.3763,30.4491
42.3763,30.4491
42.2788,30.1877
42.1451,29.9428
42.1033,29.8869
41.9779,29.7194
41.7806,29.5221
41.5695,29.3641
41.5572,29.3549
41.3123,29.2212
41.0509,29.1237
41.0509,29.1237
41.0509,29.1237
40.9588,29.1037
40.7783,29.0644
40.5000,29.0445
40.5000,29.0445
40.2217,29.0644
39.9491,29.1237
39.9491,29.1237
39.6877,29.2212
39.4428,29.3549
39.2194,29.5221
39.0221,29.7194
38.8549,29.9428
38.7212,30.1877
38.6237,30.4491
38.6237,30.4491
38.5644,30.7217
38.5445,31.0000
38.5445,31.0000
34.9505,31.0000
34.9505,21.5841
34.9505,21.5841
34.9281,21.5005
34.9164,21.4568
34.8505,21.3427
34.7573,21.2495
34.7051,21.2194
34.6432,21.1836
34.6432,21.1836
34.5159,21.1495
34.5159,21.1495
21.0659,21.1495
20.9341,21.1495
20.9341,21.1495
20.8068,21.1836
20.8068,21.1836
20.6927,21.2495
20.5995,21.3427
20.5336,21.4568
20.5336,21.4568
20.4995,21.5841
20.4995,65.4409
18.4513,65.4409
18.4356,65.2217
18.4356,65.2217
18.3763,64.9491
18.3763,64.9491
18.3763,64.9491
18.2788,64.6877
18.1451,64.4428
18.0343,64.2948
17.9779,64.2194
17.7806,64.0221
17.6689,63.9385
17.5572,63.8549
17.3123,63.7212
17.0509,63.6237
17.0509,63.6237
17.0509,63.6237
16.9428,63.6002
16.7783,63.5644
16.5000,63.5445
16.5000,63.5445
16.2217,63.5644
15.9491,63.6237
15.9491,63.6237
15.6877,63.7212
15.4428,63.8549
15.2194,64.0221
15.0221,64.2194
14.8549,64.4428
14.7212,64.6877
14.6237,64.9491
14.6237,64.9491
14.5644,65.2217
14.5445,65.5000
14.5445,65.5000
10.0005,65.5000
10.0005,56.0000
13.5445,56.0000
13.5644,56.2783
13.6237,56.5509
13.6237,56.5509
13.7212,56.8123
13.8549,57.0572
13.8711,57.0788
14.0221,57.2806
14.2194,57.4779
14.3869,57.6033
14.4428,57.6451
14.6877,57.7788
14.9491,57.8763
14.9491,57.8763
14.9491,57.8763
15.2217,57.9356
15.2835,57.9400
15.5000,57.9555
15.5000,57.9555
15.5000,57.9555
15.6948,57.9415
15.7783,57.9356
16.0509,57.8763
16.0509,57.8763
16.0509,57.8763
16.3123,57.7788
16.4210,57.7194
16.5572,57.6451
16.7806,57.4779
16.9779,57.2806
17.1451,57.0572
17.2788,56.8123
17.2788,56.8123
17.2788,56.8123
17.3763,56.5509
17.3763,56.5509
17.3763,56.5509
17.4356,56.2783
17.4548,56.0099
17.4555,56.0000
17.4555,56.0000
17.4356,55.7217
17.4356,55.7217
17.3763,55.4491
17.3763,55.4491
17.3763,55.4491
17.2788,55.1877
17.1451,54.9428
17.0637,54.8341
16.9779,54.7194
16.7806,54.5221
16.6689,54.4385
16.5572,54.3549
16.3123,54.2212
16.0509,54.1237
16.0509,54.1237
16.0509,54.1237
15.9960,54.1118
15.7783,54.0644
15.5000,54.0445
15.5000,54.0445
15.2217,54.0644
14.9491,54.1237
14.9491,54.1237
14.6877,54.2212
14.4428,54.3549
14.2194,54.5221
14.0221,54.7194
13.8549,54.9428
13.7212,55.1877
13.6237,55.4491
13.6237,55.4491
13.5644,55.7217
13.5445,56.0000
13.5445,56.0000
10.0005,56.0000
10.0005,47.0000
13.5445,47.0000
13.5644,47.2783
13.6237,47.5509
13.6237,47.5509
13.7212,47.8123
13.8549,48.0572
13.8835,48.0954
14.0221,48.2806
14.2194,48.4779
14.3869,48.6033
14.4428,48.6451
14.6877,48.7788
14.9491,48.8763
14.9491,48.8763
14.9491,48.8763
15.2217,48.9356
15.2835,48.9400
15.5000,48.9555
15.5000,48.9555
15.5000,48.9555
15.6948,48.9415
15.7783,48.9356
16.0509,48.8763
16.0509,48.8763
16.0509,48.8763
16.3123,48.7788
16.4210,48.7194
16.5572,48.6451
16.7806,48.4779
16.9779,48.2806
17.1451,48.0572
17.2788,47.8123
17.2788,47.8123
17.2788,47.8123
17.3763,47.5509
17.3763,47.5509
17.3763,47.5509
17.4356,47.2783
17.4517,47.0530
17.4555,47.0000
17.4555,47.0000
17.4356,46.7217
17.4356,46.7217
17.3763,46.4491
17.3763,46.4491
17.3763,46.4491
17.2788,46.1877
17.1451,45.9428
17.1033,45.8869
16.9779,45.7194
16.7806,45.5221
16.6514,45.4255
16.5572,45.3549
16.3123,45.2212
16.0509,45.1237
16.0509,45.1237
16.0509,45.1237
15.9588,45.1037
15.7783,45.0644
15.5000,45.0445
15.5000,45.0445
15.2217,45.0644
14.9491,45.1237
14.9491,45.1237
14.6877,45.2212
14.4428,45.3549
14.2194,45.5221
14.0221,45.7194
13.8549,45.9428
13.7212,46.1877
13.6237,46.4491
13.6237,46.4491
13.5644,46.7217
13.5445,47.0000
13.5445,47.0000
10.0005,47.0000
10.0005,38.0000
13.5445,38.0000
13.5644,38.2783
13.6237,38.5509
13.6237,38.5509
13.7212,38.8123
13.8549,39.0572
13.9047,39.1237
14.0221,39.2806
14.2194,39.4779
14.3869,39.6033
14.4428,39.6451
14.6877,39.7788
14.9491,39.8763
14.9491,39.8763
14.9491,39.8763
15.2217,39.9356
15.2835,39.9400
15.5000,39.9555
15.5000,39.9555
15.5000,39.9555
15.6948,39.9415
15.7783,39.9356
16.0509,39.8763
16.0509,39.8763
16.0509,39.8763
16.3123,39.7788
16.4210,39.7194
16.5572,39.6451
16.7806,39.4779
16.9779,39.2806
17.1451,39.0572
17.2788,38.8123
17.2788,38.8123
17.2788,38.8123
17.3763,38.5509
17.3763,38.5509
17.3763,38.5509
17.4356,38.2783
17.4517,38.0530
17.4555,38.0000
17.4555,38.0000
17.4356,37.7217
17.4356,37.7217
17.3763,37.4491
17.3763,37.4491
17.3763,37.4491
17.2788,37.1877
17.1451,36.9428
17.1033,36.8869
16.9779,36.7194
16.7806,36.5221
16.5695,36.3641
16.5572,36.3549
16.3123,36.2212
16.0509,36.1237
16.0509,36.1237
16.0509,36.1237
15.9960,36.1118
15.7783,36.0644
15.5000,36.0445
15.5000,36.0445
15.2217,36.0644
14.9491,36.1237
14.9491,36.1237
14.6877,36.2212
14.4428,36.3549
14.2194,36.5221
14.0221,36.7194
13.8549,36.9428
13.7212,37.1877
13.6237,37.4491
13.6237,37.4491
13.5644,37.7217
13.5445,38.0000
13.5445,38.0000
10.0005,38.0000
10.0005,21.0000
10.5450,21.0000
10.5651,21.3589
10.5651,21.3589
10.6253,21.7132
10.7248,22.0586
10.8624,22.3906
10.8624,22.3906
11.0362,22.7052
11.0362,22.7052
11.2442,22.9983
11.3502,23.1169
12.4855,21.9817
12.5296,22.0423
12.7077,22.2204
12.7683,22.2645
11.6331,23.3998
11.7517,23.5058
12.0448,23.7138
12.0448,23.7138
12.3594,23.8876
12.3594,23.8876
12.6914,24.0252
13.0368,24.1247
13.0368,24.1247
13.3911,24.1849
13.3911,24.1849
13.7500,24.2050
14.1089,24.1849
14.1089,24.1849
14.4632,24.1247
14.8086,24.0252
15.1406,23.8876
15.1406,23.8876
15.4552,23.7138
15.4552,23.7138
15.7483,23.5058
15.8669,23.3998
15.8669,23.3998
14.7317,22.2645
14.7923,22.2204
14.9704,22.0423
15.0145,21.9817
16.1498,23.1169
16.1498,23.1169
16.2558,22.9983
16.4638,22.7052
16.4638,22.7052
16.6376,22.3906
16.6376,22.3906
16.7752,22.0586
16.8747,21.7132
16.9349,21.3589
16.9349,21.3589
16.9550,21.0000
16.9349,20.6411
16.9349,20.6411
16.8747,20.2868
16.7752,19.9414
16.6376,19.6094
16.6376,19.6094
16.4690,19.3043
47.0495,19.3043
47.0495,19.3043
47.0524,19.3347
47.0524,19.3347
47.0972,19.4629
47.0972,19.4629
47.1778,19.5721
47.1779,19.5722
47.2871,19.6528
47.2871,19.6528
47.4153,19.6976
47.4153,19.6976
47.4153,19.6976
47.4457,19.7005
48.5543,19.7005
48.5847,19.6976
48.6158,19.6867
48.7129,19.6528
48.7129,19.6528
48.7717,19.6094
48.8222,19.5722
48.9028,19.4629
48.9159,19.4254
48.9476,19.3347
48.9476,19.3347
48.9476,19.3347
48.9505,19.3043
48.9505,18.7500
50.0449,18.7500
50.0633,18.9363
50.1176,19.1155
50.2059,19.2806
50.2059,19.2806
50.2059,19.2806
50.3246,19.4254
50.4694,19.5441
50.4694,19.5441
50.4694,19.5441
50.6345,19.6324
50.6345,19.6324
50.6345,19.6324
50.8137,19.6867
51.0000,19.7051
51.1863,19.6867
51.3655,19.6324
51.5306,19.5441
51.6754,19.4254
51.7941,19.2806
51.8824,19.1155
51.9367,18.9363
51.9551,18.7500
53.0449,18.7500
53.0633,18.9363
53.1176,19.1155
53.2059,19.2806
53.2059,19.2806
53.2059,19.2806
53.3246,19.4254
53.4694,19.5441
53.4694,19.5441
53.4694,19.5441
53.6345,19.6324
53.6345,19.6324
53.6345,19.6324
53.8137,19.6867
54.0000,19.7051
54.1863,19.6867
54.3655,19.6324
54.5306,19.5441
54.6754,19.4254
54.7941,19.2806
54.8824,19.1155
54.9367,18.9363
54.9551,18.7500
56.0449,18.7500
56.0633,18.9363
56.1176,19.1155
56.2059,19.2806
56.2059,19.2806
56.2059,19.2806
56.3246,19.4254
56.4694,19.5441
56.4694,19.5441
56.4694,19.5441
56.6345,19.6324
56.6345,19.6324
56.6345,19.6324
56.8137,19.6867
57.0000,19.7051
57.1863,19.6867
57.3655,19.6324
57.5306,19.5441
57.6754,19.4254
57.7941,19.2806
57.8824,19.1155
57.9367,18.9363
57.9551,18.7500
59.0449,18.7500
59.0633,18.9363
59.1176,19.1155
59.2059,19.2806
59.2059,19.2806
59.2059,19.2806
59.3246,19.4254
59.4694,19.5441
59.4694,19.5441
59.4694,19.5441
59.6345,19.6324
59.6345,19.6324
59.6345,19.6324
59.8137,19.6867
60.0000,19.7051
60.1863,19.6867
60.3655,19.6324
60.5306,19.5441
60.6754,19.4254
60.7941,19.2806
60.8824,19.1155
60.9367,18.9363
60.9551,18.7500
62.0449,18.7500
62.0633,18.9363
62.1176,19.1155
62.2059,19.2806
62.2059,19.2806
62.2059,19.2806
62.3246,19.4254
62.4694,19.5441
62.4694,19.5441
62.4694,19.5441
62.6345,19.6324
62.6345,19.6324
62.6345,19.6324
62.8137,19.6867
63.0000,19.7051
63.1863,19.6867
63.3655,19.6324
63.5306,19.5441
63.6754,19.4254
63.7941,19.2806
63.8824,19.1155
63.9367,18.9363
63.9551,18.7500
65.0449,18.7500
65.0633,18.9363
65.1176,19.1155
65.2059,19.2806
65.2059,19.2806
65.2059,19.2806
65.3246,19.4254
65.4694,19.5441
65.4694,19.5441
65.4694,19.5441
65.6345,19.6324
65.6345,19.6324
65.6345,19.6324
65.8137,19.6867
66.0000,19.7051
66.1863,19.6867
66.3655,19.6324
66.5306,19.5441
66.6754,19.4254
66.7941,19.2806
66.8824,19.1155
66.9367,18.9363
66.9551,18.7500
68.0449,18.7500
68.0633,18.9363
68.1176,19.1155
68.2059,19.2806
68.2059,19.2806
68.2059,19.2806
68.3246,19.4254
68.4694,19.5441
68.4694,19.5441
68.4694,19.5441
68.6345,19.6324
68.6345,19.6324
68.6345,19.6324
68.8137,19.6867
69.0000,19.7051
69.1863,19.6867
69.3655,19.6324
69.5306,19.5441
69.6754,19.4254
69.7941,19.2806
69.8824,19.1155
69.9367,18.9363
69.9551,18.7500
71.0449,18.7500
71.0633,18.9363
71.1176,19.1155
71.2059,19.2806
71.2059,19.2806
71.2059,19.2806
71.3246,19.4254
71.4694,19.5441
71.4694,19.5441
71.4694,19.5441
71.6345,19.6324
71.6345,19.6324
71.6345,19.6324
71.8137,19.6867
72.0000,19.7051
72.1863,19.6867
72.3655,19.6324
72.5306,19.5441
72.6754,19.4254
72.7941,19.2806
72.8824,19.1155
72.9367,18.9363
72.9551,18.7500
74.0449,18.7500
74.0633,18.9363
74.1176,19.1155
74.2059,19.2806
74.2059,19.2806
74.2059,19.2806
74.3246,19.4254
74.4694,19.5441
74.4694,19.5441
74.4694,19.5441
74.6345,19.6324
74.6345,19.6324
74.6345,19.6324
74.8137,19.6867
75.0000,19.7051
75.1863,19.6867
75.3655,19.6324
75.5306,19.5441
75.6754,19.4254
75.7941,19.2806
75.8824,19.1155
75.9367,18.9363
75.9551,18.7500
77.0449,18.7500
77.0633,18.9363
77.1176,19.1155
77.2059,19.2806
77.2059,19.2806
77.2059,19.2806
77.3246,19.4254
77.4694,19.5441
77.4694,19.5441
77.4694,19.5441
77.6345,19.6324
77.6345,19.6324
77.6345,19.6324
77.8137,19.6867
78.0000,19.7051
78.1863,19.6867
78.3655,19.6324
78.5306,19.5441
78.6754,19.4254
78.7941,19.2806
78.8824,19.1155
78.9367,18.9363
78.9551,18.7500
80.0449,18.7500
80.0633,18.9363
80.1176,19.1155
80.2059,19.2806
80.2059,19.2806
80.2059,19.2806
80.3246,19.4254
80.4694,19.5441
80.4694,19.5441
80.4694,19.5441
80.6345,19.6324
80.6345,19.6324
80.6345,19.6324
80.8137,19.6867
81.0000,19.7051
81.1863,19.6867
81.3655,19.6324
81.5306,19.5441
81.6754,19.4254
81.7941,19.2806
81.8824,19.1155
81.9367,18.9363
81.9551,18.7500
81.9367,18.5637
81.8824,18.3845
81.8824,18.3845
81.8824,18.3845
81.7941,18.2194
81.7941,18.2194
81.7941,18.2194
81.6754,18.0746
81.5306,17.9559
81.5306,17.9559
81.5306,17.9559
81.3655,17.8676
81.1863,17.8133
81.0000,17.7949
80.8137,17.8133
80.6345,17.8676
80.4694,17.9559
80.4694,17.9559
80.3246,18.0746
80.2059,18.2194
80.2059,18.2194
80.1176,18.3845
80.0633,18.5637
80.0449,18.7500
78.9551,18.7500
78.9367,18.5637
78.8824,18.3845
78.8824,18.3845
78.8824,18.3845
78.7941,18.2194
78.7941,18.2194
78.7941,18.2194
78.6754,18.0746
78.5306,17.9559
78.5306,17.9559
78.5306,17.9559
78.3655,17.8676
78.1863,17.8133
78.0000,17.7949
77.8137,17.8133
77.6345,17.8676
77.4694,17.9559
77.4694,17.9559
77.3246,18.0746
77.2059,18.2194
77.2059,18.2194
77.1176,18.3845
77.0633,18.5637
77.0449,18.7500
75.9551,18.7500
75.9367,18.5637
75.8824,18.3845
75.8824,18.3845
75.8824,18.3845
75.7941,18.2194
75.7941,18.2194
75.7941,18.2194
75.6754,18.0746
75.5306,17.9559
75.5306,17.9559
75.5306,17.9559
75.3655,17.8676
75.1863,17.8133
75.0000,17.7949
74.8137,17.8133
74.6345,17.8676
74.4694,17.9559
74.4694,17.9559
74.3246,18.0746
74.2059,18.2194
74.2059,18.2194
74.1176,18.3845
74.0633,18.5637
74.0449,18.7500
72.9551,18.7500
72.9367,18.5637
72.8824,18.3845
72.8824,18.3845
72.8824,18.3845
72.7941,18.2194
72.7941,18.2194
72.7941,18.2194
72.6754,18.0746
72.5306,17.9559
72.5306,17.9559
72.5306,17.9559
72.3655,17.8676
72.1863,17.8133
72.0000,17.7949
71.8137,17.8133
71.6345,17.8676
71.4694,17.9559
71.4694,17.9559
71.3246,18.0746
71.2059,18.2194
71.2059,18.2194
71.1176,18.3845
71.0633,18.5637
71.0449,18.7500
69.9551,18.7500
69.9367,18.5637
69.8824,18.3845
69.8824,18.3845
69.8824,18.3845
69.7941,18.2194
69.7941,18.2194
69.7941,18.2194
69.6754,18.0746
69.5306,17.9559
69.5306,17.9559
69.5306,17.9559
69.3655,17.8676
69.1863,17.8133
69.0000,17.7949
68.8137,17.8133
68.6345,17.8676
68.4694,17.9559
68.4694,17.9559
68.3246,18.0746
68.2059,18.2194
68.2059,18.2194
68.1176,18.3845
68.0633,18.5637
68.0449,18.7500
66.9551,18.7500
66.9367,18.5637
66.8824,18.3845
66.8824,18.3845
66.8824,18.3845
66.7941,18.2194
66.7941,18.2194
66.7941,18.2194
66.6754,18.0746
66.5306,17.9559
66.5306,17.9559
66.5306,17.9559
66.3655,17.8676
66.1863,17.8133
66.0000,17.7949
65.8137,17.8133
65.6345,17.8676
65.4694,17.9559
65.4694,17.9559
65.3246,18.0746
65.2059,18.2194
65.2059,18.2194
65.1176,18.3845
65.0633,18.5637
65.0449,18.7500
63.9551,18.7500
63.9367,18.5637
63.8824,18.3845
63.8824,18.3845
63.8824,18.3845
63.7941,18.2194
63.7941,18.2194
63.7941,18.2194
63.6754,18.0746
63.5306,17.9559
63.5306,17.9559
63.5306,17.9559
63.3655,17.8676
63.1863,17.8133
63.0000,17.7949
62.8137,17.8133
62.6345,17.8676
62.4694,17.9559
62.4694,17.9559
62.3246,18.0746
62.2059,18.2194
62.2059,18.2194
62.1176,18.3845
62.0633,18.5637
62.0449,18.7500
60.9551,18.7500
60.9367,18.5637
60.8824,18.3845
60.8824,18.3845
60.8824,18.3845
60.7941,18.2194
60.7941,18.2194
60.7941,18.2194
60.6754,18.0746
60.5306,17.9559
60.5306,17.9559
60.5306,17.9559
60.3655,17.8676
60.1863,17.8133
60.0000,17.7949
59.8137,17.8133
59.6345,17.8676
59.4694,17.9559
59.4694,17.9559
59.3246,18.0746
59.2059,18.2194
59.2059,18.2194
59.1176,18.3845
59.0633,18.5637
59.0449,18.7500
57.9551,18.7500
57.9367,18.5637
57.8824,18.3845
57.8824,18.3845
57.8824,18.3845
57.7941,18.2194
57.7941,18.2194
57.7941,18.2194
57.6754,18.0746
57.5306,17.9559
57.5306,17.9559
57.5306,17.9559
57.3655,17.8676
57.1863,17.8133
57.0000,17.7949
56.8137,17.8133
56.6345,17.8676
56.4694,17.9559
56.4694,17.9559
56.3246,18.0746
56.2059,18.2194
56.2059,18.2194
56.1176,18.3845
56.0633,18.5637
56.0449,18.7500
54.9551,18.7500
54.9367,18.5637
54.8824,18.3845
54.8824,18.3845
54.8824,18.3845
54.7941,18.2194
54.7941,18.2194
54.7941,18.2194
54.6754,18.0746
54.5306,17.9559
54.5306,17.9559
54.5306,17.9559
54.3655,17.8676
54.1863,17.8133
54.0000,17.7949
53.8137,17.8133
53.6345,17.8676
53.4694,17.9559
53.4694,17.9559
53.3246,18.0746
53.2059,18.2194
53.2059,18.2194
53.1176,18.3845
53.0633,18.5637
53.0449,18.7500
51.9551,18.7500
51.9367,18.5637
51.8824,18.3845
51.8824,18.3845
51.8824,18.3845
51.7941,18.2194
51.7941,18.2194
51.7941,18.2194
51.6754,18.0746
51.5306,17.9559
51.5306,17.9559
51.5306,17.9559
51.3655,17.8676
51.1863,17.8133
51.0000,17.7949
50.8137,17.8133
50.6345,17.8676
50.4694,17.9559
50.4694,17.9559
50.3246,18.0746
50.2059,18.2194
50.2059,18.2194
50.1176,18.3845
50.0633,18.5637
50.0449,18.7500
48.9505,18.7500
48.9505,18.1957
48.9476,18.1653
48.9380,18.1376
48.9028,18.0371
48.9028,18.0371
48.8222,17.9279
48.8221,17.9278
48.7129,17.8472
48.7129,17.8472
48.5847,17.8024
48.5847,17.8024
48.5779,17.8017
48.5543,17.7995
48.5543,17.7995
47.4457,17.7995
47.4457,17.7995
47.4153,17.8024
47.4153,17.8024
47.2871,17.8472
47.2871,17.8472
47.1779,17.9278
47.1778,17.9279
47.0972,18.0371
47.0972,18.0371
47.0524,18.1653
47.0524,18.1653
47.0524,18.1653
47.0495,18.1957
47.0495,18.1957
47.0495,18.1957
47.0495,19.3043
16.4690,19.3043
16.4638,19.2948
16.4638,19.2948
16.2558,19.0017
16.1498,18.8831
16.1498,18.8831
15.0145,20.0183
14.9704,19.9577
14.7923,19.7796
14.7317,19.7355
15.8669,18.6002
15.7483,18.4942
15.4552,18.2862
15.4552,18.2862
15.1406,18.1124
15.1406,18.1124
14.8086,17.9748
14.4632,17.8753
14.4632,17.8753
14.1089,17.8151
14.1089,17.8151
13.7500,17.7950
13.3911,17.8151
13.3911,17.8151
13.0368,17.8753
12.6914,17.9748
12.3594,18.1124
12.3594,18.1124
12.0448,18.2862
12.0448,18.2862
11.7517,18.4942
11.6331,18.6002
12.7683,19.7355
12.7077,19.7796
12.5296,19.9577
12.4855,20.0183
11.3502,18.8831
11.2442,19.0017
11.0362,19.2948
11.0362,19.2948
10.8624,19.6094
10.8624,19.6094
10.7248,19.9414
10.6253,20.2868
10.5651,20.6411
10.5651,20.6411
10.5450,21.0000
10.0005,21.0000
10.0005,16.9376
10.0222,16.8853
10.0745,16.8636
85.1414,16.8636
Z" /> 
</g>
<g style="fill:#FFFFFF; fill-opacity:1.0000; stroke:none;">
<circle cx="79.0000" cy="50.0000" r="1.2650" /> 
</g>
<g style="fill:#FFFFFF; fill-opacity:1.0000; stroke:none;">
<circle cx="79.0000" cy="58.5000" r="1.2650" /> 
</g>
<g style="fill:#FFFFFF; fill-opacity:1.0000; stroke:none;">
<circle cx="44.0000" cy="66.0000" r="1.6000" /> 
</g>
<g style="fill:#FFFFFF; fill-opacity:1.0000; stroke:none;">
<circle cx="116.0000" cy="31.0000" r="1.2650" /> 
</g>
<g style="fill:#FFFFFF; fill-opacity:1.0000; stroke:none;">
<circle cx="117.0000" cy="41.0000" r="1.2650" /> 
</g>
<g style="fill:#FFFFFF; fill-opacity:1.0000; stroke:none;">
<circle cx="117.0000" cy="50.0000" r="1.2650" /> 
</g>
<g style="fill:#FFFFFF; fill-opacity:1.0000; stroke:none;">
<circle cx="117.0000" cy="59.0000" r="1.2650" /> 
</g>
<g style="fill:#FFFFFF; fill-opacity:1.0000; stroke:none;">
<circle cx="91.5000" cy="38.0000" r="1.2650" /> 
</g>
<g style="fill:#FFFFFF; fill-opacity:1.0000; stroke:none;">
<circle cx="78.5000" cy="31.0000" r="1.2650" /> 
</g>
<g style="fill:#FFFFFF; fill-opacity:1.0000; stroke:none;">
<circle cx="91.5000" cy="47.0000" r="1.2650" /> 
</g>
<g style="fill:#FFFFFF; fill-opacity:1.0000; stroke:none;">
<circle cx="79.0000" cy="41.0000" r="1.2650" /> 
</g>
<g style="fill:#FFFFFF; fill-opacity:1.0000; stroke:none;">
<circle cx="91.5000" cy="56.0000" r="1.2650" /> 
</g>
<g style="fill:#FFFFFF; fill-opacity:1.0000; stroke:none;">
<circle cx="92.5000" cy="65.5000" r="1.2650" /> 
</g>
<g style="fill:#FFFFFF; fill-opacity:1.0000; stroke:none;">
<circle cx="54.5000" cy="65.5000" r="1.2650" /> 
</g>
<g style="fill:#FFFFFF; fill-opacity:1.0000; stroke:none;">
<circle cx="53.5000" cy="56.0000" r="1.2650" /> 
</g>
<g style="fill:#FFFFFF; fill-opacity:1.0000; stroke:none;">
<circle cx="41.0000" cy="59.0000" r="1.2650" /> 
</g>
<g style="fill:#FFFFFF; fill-opacity:1.0000; stroke:none;">
<circle cx="53.5000" cy="47.0000" r="1.2650" /> 
</g>
<g style="fill:#FFFFFF; fill-opacity:1.0000; stroke:none;">
<circle cx="41.0000" cy="50.0000" r="1.2650" /> 
</g>
<g style="fill:#FFFFFF; fill-opacity:1.0000; stroke:none;">
<circle cx="53.5000" cy="38.0000" r="1.2650" /> 
</g>
<g style="fill:#FFFFFF; fill-opacity:1.0000; stroke:none;">
<circle cx="41.0000" cy="41.0000" r="1.2650" /> 
</g>
<g style="fill:#FFFFFF; fill-opacity:1.0000; stroke:none;">
<circle cx="40.5000" cy="31.0000" r="1.2650" /> 
</g>
<g style="fill:#FFFFFF; fill-opacity:1.0000; stroke:none;">
<circle cx="16.5000" cy="65.5000" r="1.2650" /> 
</g>
<g style="fill:#FFFFFF; fill-opacity:1.0000; stroke:none;">
<circle cx="15.5000" cy="56.0000" r="1.2650" /> 
</g>
<g style="fill:#FFFFFF; fill-opacity:1.0000; stroke:none;">
<circle cx="15.5000" cy="47.0000" r="1.2650" /> 
</g>
<g style="fill:#FFFFFF; fill-opacity:1.0000; stroke:none;">
<circle cx="15.5000" cy="38.0000" r="1.2650" /> 
</g>
<g style="fill:#FFFFFF; fill-opacity:1.0000; stroke:none;">
<circle cx="121.2500" cy="66.0000" r="1.6000" /> 
</g>
<g style="fill:#FFFFFF; fill-opacity:1.0000; stroke:none;">
<circle cx="13.7500" cy="21.0000" r="1.6000" /> 
</g>
<g style="fill:#FFFFFF; fill-opacity:1.0000; stroke:none;">
<circle cx="121.2500" cy="21.0000" r="1.6000" /> 
</g>
<g style="fill:#FFFFFF; fill-opacity:1.0000; stroke:none;">
<circle cx="50.1600" cy="14.4300" r="1.5000" /> 
</g>
<g style="fill:#FFFFFF; fill-opacity:1.0000; stroke:none;">
<circle cx="78.8600" cy="14.4300" r="1.5000" /> 
</g>
<g style="fill:#FFFFFF; fill-opacity:1.0000; stroke:none;">
<circle cx="48.0000" cy="18.7500" r="0.5100" /> 
</g>
<g style="fill:#FFFFFF; fill-opacity:1.0000; stroke:none;">
<circle cx="51.0000" cy="18.7500" r="0.5100" /> 
</g>
<g style="fill:#FFFFFF; fill-opacity:1.0000; stroke:none;">
<circle cx="54.0000" cy="18.7500" r="0.5100" /> 
</g>
<g style="fill:#FFFFFF; fill-opacity:1.0000; stroke:none;">
<circle cx="57.0000" cy="18.7500" r="0.5100" /> 
</g>
<g style="fill:#FFFFFF; fill-opacity:1.0000; stroke:none;">
<circle cx="60.0000" cy="18.7500" r="0.5100" /> 
</g>
<g style="fill:#FFFFFF; fill-opacity:1.0000; stroke:none;">
<circle cx="63.0000" cy="18.7500" r="0.5100" /> 
</g>
<g style="fill:#FFFFFF; fill-opacity:1.0000; stroke:none;">
<circle cx="66.0000" cy="18.7500" r="0.5100" /> 
</g>
<g style="fill:#FFFFFF; fill-opacity:1.0000; stroke:none;">
<circle cx="69.0000" cy="18.7500" r="0.5100" /> 
</g>
<g style="fill:#FFFFFF; fill-opacity:1.0000; stroke:none;">
<circle cx="72.0000" cy="18.7500" r="0.5100" /> 
</g>
<g style="fill:#FFFFFF; fill-opacity:1.0000; stroke:none;">
<circle cx="75.0000" cy="18.7500" r="0.5100" /> 
</g>
<g style="fill:#FFFFFF; fill-opacity:1.0000; stroke:none;">
<circle cx="78.0000" cy="18.7500" r="0.5100" /> 
</g>
<g style="fill:#FFFFFF; fill-opacity:1.0000; stroke:none;">
<circle cx="81.0000" cy="18.7500" r="0.5100" /> 
</g>
<g style="fill:#FFFFFF; fill-opacity:1.0000; stroke:none;">
<circle cx="48.0000" cy="21.7500" r="0.5100" /> 
</g>
<g style="fill:#FFFFFF; fill-opacity:1.0000; stroke:none;">
<circle cx="51.0000" cy="21.7500" r="0.5100" /> 
</g>
<g style="fill:#FFFFFF; fill-opacity:1.0000; stroke:none;">
<circle cx="54.0000" cy="21.7500" r="0.5100" /> 
</g>
<g style="fill:#FFFFFF; fill-opacity:1.0000; stroke:none;">
<circle cx="57.0000" cy="21.7500" r="0.5100" /> 
</g>
<g style="fill:#FFFFFF; fill-opacity:1.0000; stroke:none;">
<circle cx="60.0000" cy="21.7500" r="0.5100" /> 
</g>
<g style="fill:#FFFFFF; fill-opacity:1.0000; stroke:none;">
<circle cx="63.0000" cy="21.7500" r="0.5100" /> 
</g>
<g style="fill:#FFFFFF; fill-opacity:1.0000; stroke:none;">
<circle cx="66.0000" cy="21.7500" r="0.5100" /> 
</g>
<g style="fill:#FFFFFF; fill-opacity:1.0000; stroke:none;">
<circle cx="69.0000" cy="21.7500" r="0.5100" /> 
</g>
<g style="fill:#FFFFFF; fill-opacity:1.0000; stroke:none;">
<circle cx="72.0000" cy="21.7500" r="0.5100" /> 
</g>
<g style="fill:#FFFFFF; fill-opacity:1.0000; stroke:none;">
<circle cx="75.0000" cy="21.7500" r="0.5100" /> 
</g>
<g style="fill:#FFFFFF; fill-opacity:1.0000; stroke:none;">
<circle cx="78.0000" cy="21.7500" r="0.5100" /> 
</g>
<g style="fill:#FFFFFF; fill-opacity:1.0000; stroke:none;">
<circle cx="81.0000" cy="21.7500" r="0.5100" /> 
<path style="fill:none; 
stroke:#D0D2CD; stroke-width:0.0500; stroke-opacity:1; 
stroke-linecap:round; stroke-linejoin:round;fill:none"
d="M 9.5000,16.3631
125.5000,16.3631
125.5000,70.3631
9.5000,70.3631
Z" /> 
<path style="fill:none; 
stroke:#D0D2CD; stroke-width:0.0500; stroke-opacity:1; 
stroke-linecap:round; stroke-linejoin:round;fill:none"
d="M 21.0000,21.6500
34.4500,21.6500
34.4500,65.3750
21.0000,65.3750
Z" /> 
<path style="fill:none; 
stroke:#D0D2CD; stroke-width:0.0500; stroke-opacity:1; 
stroke-linecap:round; stroke-linejoin:round;fill:none"
d="M 59.4500,27.8750
69.4500,27.8750
69.4500,65.3750
59.4500,65.3750
Z" /> 
<path style="fill:none; 
stroke:#D0D2CD; stroke-width:0.0500; stroke-opacity:1; 
stroke-linecap:round; stroke-linejoin:round;fill:none"
d="M 97.0000,21.0000
107.0000,21.0000
107.0000,65.3750
97.0000,65.3750
Z" /> 
</g> 
</svg>
