<?xml version="1.0" encoding="utf-8"?>
<!-- Generator: Fusion 360, Shaper Origin Export Add-In, Version 1.7.0  -->
<svg xmlns="http://www.w3.org/2000/svg" xmlns:xlink="http://www.w3.org/1999/xlink" xmlns:shaper="http://www.shapertools.com/namespaces/shaper" shaper:fusionaddin="version:1.7.0" width="11.7636632cm" height="5.3200001cm" version="1.1" x="0cm" y="0cm" viewBox="0 0 11.7636632 5.3200001" enable-background="new 0 0 11.7636632 5.3200001" xml:space="preserve"><path d="M7.3634955,-1.84 L7.3634955,2.66 -4.2255045,2.66 -4.2255045,-1.84 -4.3267706,-1.84 -4.3267706,-2.66 7.4368925,-2.66 7.4368925,-1.84 7.3634955,-1.84z" transform="matrix(1,0,0,-1,4.3267706,2.66)" fill="rgb(0,0,0)" stroke-linecap="round" stroke-linejoin="round" /><path d="M-1.75,2.4928616 L-1.75,-1.84 -3.0710352,-1.84 -3.0710352,2.4928616 -1.75,2.4928616z" transform="matrix(1,0,0,-1,4.3267706,2.66)" fill="rgb(255,255,255)" stroke="rgb(0,0,0)" stroke-width="0.0010cm" stroke-linecap="round" stroke-linejoin="round" /><path d="M4.5289648,-1.84 L4.5289648,2.5409708 5.5180261,2.5409708 5.5180261,-1.84 4.5289648,-1.84z" transform="matrix(1,0,0,-1,4.3267706,2.66)" fill="rgb(255,255,255)" stroke="rgb(0,0,0)" stroke-width="0.0010cm" stroke-linecap="round" stroke-linejoin="round" /><path d="M0.7789648,-1.84 L0.7789648,2.5409708 1.75,2.5409708 1.75,-1.84 0.7789648,-1.84z" transform="matrix(1,0,0,-1,4.3267706,2.66)" fill="rgb(255,255,255)" stroke="rgb(0,0,0)" stroke-width="0.0010cm" stroke-linecap="round" stroke-linejoin="round" /><path d="M3.0763228,1.1839293 L3.0763228,1.1839293 3.0746156,1.1670472 3.0706301,1.1505418 3.0644376,1.1347077 3.0561486,1.1198273 3.0459109,1.1061663 3.0339073,1.0939685 3.0203519,1.0834514 3.0054867,1.0748028 2.9895769,1.068177 2.9729065,1.0636923 2.9557728,1.0614286 2.9384818,1.0614265 2.9213418,1.0636858 2.9046589,1.0681663 2.8887307,1.0747881 2.8738414,1.0834329 2.8602567,1.0939465 2.8482191,1.1061414 2.8379434,1.1197998 2.8296129,1.134678 2.8233763,1.1505106 2.8193449,1.1670149 2.8175907,1.1838966 2.8181448,1.2008543 2.8209976,1.2175854 2.8260979,1.2337913 2.8333549,1.249183 2.842639,1.2634856 2.8537845,1.2764439 2.8665926,1.2878268 2.8808347,1.2974311 2.8962567,1.3050854 2.9125832,1.310653 2.9295231,1.3140348 2.946774,1.3151702 2.964028,1.3140391 2.9809773,1.3106617 2.9973193,1.3050981 3.0127626,1.2974477 3.0270314,1.2878471 3.0398712,1.2764674 3.0510529,1.2635119 3.0603768,1.2492116 3.0676766,1.2338219 3.0728221,1.2176172 3.0757214,1.2008868 3.0763228,1.1839293z" transform="matrix(1,0,0,-1,4.3267706,2.66)" fill="rgb(255,255,255)" stroke="rgb(0,0,0)" stroke-width="0.0010cm" stroke-linecap="round" stroke-linejoin="round" /><path d="M-0.7236772,1.3839293 L-0.7236772,1.3839293 -0.7253844,1.3670472 -0.7293699,1.3505418 -0.7355624,1.3347077 -0.7438514,1.3198273 -0.7540891,1.3061663 -0.7660927,1.2939685 -0.7796481,1.2834514 -0.7945133,1.2748028 -0.8104231,1.268177 -0.8270935,1.2636923 -0.8442272,1.2614286 -0.8615182,1.2614265 -0.8786582,1.2636858 -0.8953411,1.2681663 -0.9112693,1.2747881 -0.9261586,1.2834329 -0.9397433,1.2939465 -0.9517809,1.3061414 -0.9620566,1.3197998 -0.9703871,1.334678 -0.9766237,1.3505106 -0.9806551,1.3670149 -0.9824093,1.3838966 -0.9818552,1.4008543 -0.9790024,1.4175854 -0.9739021,1.4337913 -0.9666451,1.449183 -0.957361,1.4634856 -0.9462155,1.4764439 -0.9334074,1.4878268 -0.9191653,1.4974311 -0.9037433,1.5050854 -0.8874168,1.510653 -0.8704769,1.5140348 -0.853226,1.5151702 -0.835972,1.5140391 -0.8190227,1.5106617 -0.8026807,1.5050981 -0.7872374,1.4974477 -0.7729686,1.4878471 -0.7601288,1.4764674 -0.7489471,1.4635119 -0.7396232,1.4492116 -0.7323234,1.4338219 -0.7271779,1.4176172 -0.7242786,1.4008868 -0.7236772,1.3839293z" transform="matrix(1,0,0,-1,4.3267706,2.66)" fill="rgb(255,255,255)" stroke="rgb(0,0,0)" stroke-width="0.0010cm" stroke-linecap="round" stroke-linejoin="round" /><path d="M3.9376841,0.664679 L3.9376841,0.664679 3.9393914,0.6815611 3.9433768,0.6980665 3.9495693,0.7139006 3.9578583,0.728781 3.968096,0.742442 3.9800996,0.7546398 3.993655,0.7651569 4.0085202,0.7738055 4.02443,0.7804312 4.0411005,0.784916 4.0582341,0.7871796 4.0755251,0.7871818 4.0926651,0.7849225 4.109348,0.780442 4.1252762,0.7738202 4.1401655,0.7651754 4.1537502,0.7546617 4.1657878,0.7424669 4.1760635,0.7288085 4.184394,0.7139303 4.1906306,0.6980977 4.194662,0.6815933 4.1964162,0.6647117 4.1958621,0.647754 4.1930094,0.6310229 4.187909,0.6148169 4.180652,0.5994253 4.1713679,0.5851227 4.1602224,0.5721644 4.1474143,0.5607815 4.1331722,0.5511772 4.1177502,0.5435229 4.1014237,0.5379552 4.0844838,0.5345735 4.0672329,0.533438 4.0499789,0.5345691 4.0330296,0.5379466 4.0166876,0.5435102 4.0012443,0.5511605 3.9869755,0.5607612 3.9741357,0.5721409 3.9629541,0.5850964 3.9536301,0.5993967 3.9463303,0.6147864 3.9411848,0.6309911 3.9382855,0.6477215 3.9376841,0.664679z" transform="matrix(1,0,0,-1,4.3267706,2.66)" fill="rgb(255,255,255)" stroke="rgb(0,0,0)" stroke-width="0.0010cm" stroke-linecap="round" stroke-linejoin="round" /><path d="M3.9376841,-0.2686543 L3.9376841,-0.2686543 3.9393914,-0.2517722 3.9433768,-0.2352668 3.9495693,-0.2194327 3.9578583,-0.2045524 3.968096,-0.1908914 3.9800996,-0.1786935 3.993655,-0.1681765 4.0085202,-0.1595279 4.02443,-0.1529021 4.0411005,-0.1484174 4.0582341,-0.1461537 4.0755251,-0.1461515 4.0926651,-0.1484108 4.109348,-0.1528914 4.1252762,-0.1595131 4.1401655,-0.168158 4.1537502,-0.1786716 4.1657878,-0.1908664 4.1760635,-0.2045248 4.184394,-0.219403 4.1906306,-0.2352356 4.194662,-0.25174 4.1964162,-0.2686217 4.1958621,-0.2855793 4.1930094,-0.3023104 4.187909,-0.3185164 4.180652,-0.333908 4.1713679,-0.3482106 4.1602224,-0.361169 4.1474143,-0.3725518 4.1331722,-0.3821561 4.1177502,-0.3898104 4.1014237,-0.3953781 4.0844838,-0.3987598 4.0672329,-0.3998953 4.0499789,-0.3987642 4.0330296,-0.3953867 4.0166876,-0.3898232 4.0012443,-0.3821728 3.9869755,-0.3725721 3.9741357,-0.3611925 3.9629541,-0.3482369 3.9536301,-0.3339367 3.9463303,-0.3185469 3.9411848,-0.3023422 3.9382855,-0.2856119 3.9376841,-0.2686543z" transform="matrix(1,0,0,-1,4.3267706,2.66)" fill="rgb(255,255,255)" stroke="rgb(0,0,0)" stroke-width="0.0010cm" stroke-linecap="round" stroke-linejoin="round" /><path d="M3.902642,-1.1519877 L3.902642,-1.1519877 3.9043492,-1.1351056 3.9083346,-1.1186002 3.9145271,-1.102766 3.9228162,-1.0878857 3.9330539,-1.0742247 3.9450575,-1.0620269 3.9586129,-1.0515098 3.9734781,-1.0428612 3.9893879,-1.0362354 4.0060583,-1.0317507 4.0231919,-1.029487 4.040483,-1.0294848 4.0576229,-1.0317442 4.0743059,-1.0362247 4.0902341,-1.0428465 4.1051234,-1.0514913 4.118708,-1.0620049 4.1307456,-1.0741997 4.1410214,-1.0878581 4.1493518,-1.1027364 4.1555884,-1.118569 4.1596198,-1.1350733 4.1613741,-1.151955 4.1608199,-1.1689127 4.1579672,-1.1856438 4.1528669,-1.2018497 4.1456099,-1.2172413 4.1363258,-1.2315439 4.1251802,-1.2445023 4.1123721,-1.2558852 4.09813,-1.2654895 4.0827081,-1.2731437 4.0663815,-1.2787114 4.0494417,-1.2820932 4.0321908,-1.2832286 4.0149368,-1.2820975 3.9979875,-1.2787201 3.9816454,-1.2731565 3.9662022,-1.2655061 3.9519333,-1.2559054 3.9390935,-1.2445258 3.9279119,-1.2315703 3.918588,-1.21727 3.9112881,-1.2018802 3.9061427,-1.1856756 3.9032434,-1.1689452 3.902642,-1.1519877z" transform="matrix(1,0,0,-1,4.3267706,2.66)" fill="rgb(255,255,255)" stroke="rgb(0,0,0)" stroke-width="0.0010cm" stroke-linecap="round" stroke-linejoin="round" /><path d="M3.0412807,0.3005959 L3.0412807,0.3005959 3.0395734,0.2837138 3.035588,0.2672085 3.0293955,0.2513743 3.0211064,0.236494 3.0108688,0.222833 2.9988651,0.2106351 2.9853098,0.2001181 2.9704445,0.1914695 2.9545348,0.1848437 2.9378643,0.180359 2.9207307,0.1780953 2.9034396,0.1780931 2.8862997,0.1803525 2.8696168,0.184833 2.8536885,0.1914547 2.8387992,0.2000996 2.8252146,0.2106132 2.813177,0.222808 2.8029013,0.2364664 2.7945708,0.2513447 2.7883342,0.2671772 2.7843028,0.2836816 2.7825485,0.3005633 2.7831027,0.317521 2.7859554,0.3342521 2.7910558,0.350458 2.7983127,0.3658496 2.8075968,0.3801522 2.8187424,0.3931106 2.8315505,0.4044935 2.8457926,0.4140977 2.8612145,0.421752 2.8775411,0.4273197 2.894481,0.4307015 2.9117318,0.4318369 2.9289859,0.4307058 2.9459351,0.4273283 2.9622772,0.4217648 2.9777205,0.4141144 2.9919893,0.4045137 3.0048291,0.3931341 3.0160107,0.3801785 3.0253346,0.3658783 3.0326345,0.3504885 3.03778,0.3342839 3.0406793,0.3175535 3.0412807,0.3005959z" transform="matrix(1,0,0,-1,4.3267706,2.66)" fill="rgb(255,255,255)" stroke="rgb(0,0,0)" stroke-width="0.0010cm" stroke-linecap="round" stroke-linejoin="round" /><path d="M3.0412807,-0.6327374 L3.0412807,-0.6327374 3.0395734,-0.6496195 3.035588,-0.6661249 3.0293955,-0.681959 3.0211064,-0.6968393 3.0108688,-0.7105003 2.9988651,-0.7226982 2.9853098,-0.7332153 2.9704445,-0.7418639 2.9545348,-0.7484896 2.9378643,-0.7529744 2.9207307,-0.755238 2.9034396,-0.7552402 2.8862997,-0.7529809 2.8696168,-0.7485004 2.8536885,-0.7418786 2.8387992,-0.7332338 2.8252146,-0.7227201 2.813177,-0.7105253 2.8029013,-0.6968669 2.7945708,-0.6819887 2.7883342,-0.6661561 2.7843028,-0.6496517 2.7825485,-0.6327701 2.7831027,-0.6158124 2.7859554,-0.5990813 2.7910558,-0.5828753 2.7983127,-0.5674837 2.8075968,-0.5531811 2.8187424,-0.5402227 2.8315505,-0.5288399 2.8457926,-0.5192356 2.8612145,-0.5115813 2.8775411,-0.5060136 2.894481,-0.5026319 2.9117318,-0.5014964 2.9289859,-0.5026275 2.9459351,-0.506005 2.9622772,-0.5115686 2.9777205,-0.5192189 2.9919893,-0.5288196 3.0048291,-0.5401992 3.0160107,-0.5531548 3.0253346,-0.567455 3.0326345,-0.5828448 3.03778,-0.5990495 3.0406793,-0.6157799 3.0412807,-0.6327374z" transform="matrix(1,0,0,-1,4.3267706,2.66)" fill="rgb(255,255,255)" stroke="rgb(0,0,0)" stroke-width="0.0010cm" stroke-linecap="round" stroke-linejoin="round" /><path d="M0.1376841,0.164679 L0.1376841,0.164679 0.1393914,0.1815611 0.1433768,0.1980665 0.1495693,0.2139006 0.1578583,0.228781 0.168096,0.242442 0.1800996,0.2546398 0.193655,0.2651569 0.2085202,0.2738055 0.22443,0.2804312 0.2411005,0.284916 0.2582341,0.2871796 0.2755251,0.2871818 0.2926651,0.2849225 0.309348,0.280442 0.3252762,0.2738202 0.3401655,0.2651754 0.3537502,0.2546617 0.3657878,0.2424669 0.3760635,0.2288085 0.384394,0.2139303 0.3906306,0.1980977 0.394662,0.1815933 0.3964162,0.1647117 0.3958621,0.147754 0.3930094,0.1310229 0.387909,0.1148169 0.380652,0.0994253 0.3713679,0.0851227 0.3602224,0.0721644 0.3474143,0.0607815 0.3331722,0.0511772 0.3177502,0.0435229 0.3014237,0.0379552 0.2844838,0.0345735 0.2672329,0.033438 0.2499789,0.0345691 0.2330296,0.0379466 0.2166876,0.0435102 0.2012443,0.0511605 0.1869755,0.0607612 0.1741357,0.0721409 0.1629541,0.0850964 0.1536301,0.0993967 0.1463303,0.1147864 0.1411848,0.1309911 0.1382855,0.1477215 0.1376841,0.164679z" transform="matrix(1,0,0,-1,4.3267706,2.66)" fill="rgb(255,255,255)" stroke="rgb(0,0,0)" stroke-width="0.0010cm" stroke-linecap="round" stroke-linejoin="round" /><path d="M0.1376841,-0.9686543 L0.1376841,-0.9686543 0.1393914,-0.9517722 0.1433768,-0.9352668 0.1495693,-0.9194327 0.1578583,-0.9045524 0.168096,-0.8908914 0.1800996,-0.8786935 0.193655,-0.8681765 0.2085202,-0.8595279 0.22443,-0.8529021 0.2411005,-0.8484174 0.2582341,-0.8461537 0.2755251,-0.8461515 0.2926651,-0.8484108 0.309348,-0.8528914 0.3252762,-0.8595131 0.3401655,-0.868158 0.3537502,-0.8786716 0.3657878,-0.8908664 0.3760635,-0.9045248 0.384394,-0.919403 0.3906306,-0.9352356 0.394662,-0.95174 0.3964162,-0.9686217 0.3958621,-0.9855793 0.3930094,-1.0023104 0.387909,-1.0185164 0.380652,-1.033908 0.3713679,-1.0482106 0.3602224,-1.061169 0.3474143,-1.0725518 0.3331722,-1.0821561 0.3177502,-1.0898104 0.3014237,-1.0953781 0.2844838,-1.0987598 0.2672329,-1.0998953 0.2499789,-1.0987642 0.2330296,-1.0953867 0.2166876,-1.0898232 0.2012443,-1.0821728 0.1869755,-1.0725721 0.1741357,-1.0611925 0.1629541,-1.0482369 0.1536301,-1.0339367 0.1463303,-1.0185469 0.1411848,-1.0023422 0.1382855,-0.9856119 0.1376841,-0.9686543z" transform="matrix(1,0,0,-1,4.3267706,2.66)" fill="rgb(255,255,255)" stroke="rgb(0,0,0)" stroke-width="0.0010cm" stroke-linecap="round" stroke-linejoin="round" /><path d="M0.0894239,1.6659169 L0.0894239,1.6659169 0.0908748,1.6828247 0.0946545,1.6993927 0.1006956,1.7153253 0.1088902,1.7303381 0.1190921,1.7441633 0.1311194,1.7565541 0.1447572,1.7672895 0.1597623,1.7761778 0.175867,1.7830604 0.1927837,1.7878146 0.2102108,1.7903554 0.227837,1.7906376 0.245348,1.7886561 0.2624312,1.7844463 0.2787818,1.7780832 0.294108,1.7696805 0.3081363,1.759388 0.3206164,1.7473895 0.3313255,1.7338991 0.3400726,1.7191575 0.3467016,1.7034278 0.3510942,1.6869906 0.3531719,1.6701393 0.3528978,1.6531746 0.3502766,1.6363992 0.3453552,1.6201126 0.3382215,1.6046052 0.3290026,1.5901539 0.3178632,1.5770166 0.3050019,1.5654276 0.2906484,1.5555938 0.2750587,1.5476907 0.258511,1.5418593 0.2413007,1.5382036 0.2237348,1.5367889 0.2061269,1.5376405 0.1887911,1.5407431 0.1720367,1.5460414 0.1561629,1.5534408 0.1414528,1.5628093 0.1281689,1.5739797 0.1165484,1.5867527 0.1067985,1.6009003 0.0990932,1.6161701 0.0935701,1.6322896 0.0903278,1.6489711 0.0894239,1.6659169z" transform="matrix(1,0,0,-1,4.3267706,2.66)" fill="rgb(255,255,255)" stroke="rgb(0,0,0)" stroke-width="0.0010cm" stroke-linecap="round" stroke-linejoin="round" /><path d="M0.102642,-1.3519877 L0.102642,-1.3519877 0.1043492,-1.3351056 0.1083346,-1.3186002 0.1145271,-1.302766 0.1228162,-1.2878857 0.1330539,-1.2742247 0.1450575,-1.2620269 0.1586129,-1.2515098 0.1734781,-1.2428612 0.1893879,-1.2362354 0.2060583,-1.2317507 0.2231919,-1.229487 0.240483,-1.2294848 0.2576229,-1.2317442 0.2743059,-1.2362247 0.2902341,-1.2428465 0.3051234,-1.2514913 0.318708,-1.2620049 0.3307456,-1.2741997 0.3410214,-1.2878581 0.3493518,-1.3027364 0.3555884,-1.318569 0.3596198,-1.3350733 0.3613741,-1.351955 0.3608199,-1.3689127 0.3579672,-1.3856438 0.3528669,-1.4018497 0.3456099,-1.4172413 0.3363258,-1.4315439 0.3251802,-1.4445023 0.3123721,-1.4558852 0.29813,-1.4654895 0.2827081,-1.4731437 0.2663815,-1.4787114 0.2494417,-1.4820932 0.2321908,-1.4832286 0.2149368,-1.4820975 0.1979875,-1.4787201 0.1816454,-1.4731565 0.1662022,-1.4655061 0.1519333,-1.4559054 0.1390935,-1.4445258 0.1279119,-1.4315703 0.118588,-1.41727 0.1112881,-1.4018802 0.1061427,-1.3856756 0.1032434,-1.3689452 0.102642,-1.3519877z" transform="matrix(1,0,0,-1,4.3267706,2.66)" fill="rgb(255,255,255)" stroke="rgb(0,0,0)" stroke-width="0.0010cm" stroke-linecap="round" stroke-linejoin="round" /><path d="M-0.7587193,0.6005959 L-0.7587193,0.6005959 -0.7604266,0.5837138 -0.764412,0.5672085 -0.7706045,0.5513743 -0.7788936,0.536494 -0.7891312,0.522833 -0.8011349,0.5106351 -0.8146902,0.5001181 -0.8295555,0.4914695 -0.8454652,0.4848437 -0.8621357,0.480359 -0.8792693,0.4780953 -0.8965604,0.4780931 -0.9137003,0.4803525 -0.9303832,0.484833 -0.9463115,0.4914547 -0.9612008,0.5000996 -0.9747854,0.5106132 -0.986823,0.522808 -0.9970987,0.5364664 -1.0054292,0.5513447 -1.0116658,0.5671772 -1.0156972,0.5836816 -1.0174515,0.6005633 -1.0168973,0.617521 -1.0140446,0.6342521 -1.0089442,0.650458 -1.0016873,0.6658496 -0.9924032,0.6801522 -0.9812576,0.6931106 -0.9684495,0.7044935 -0.9542074,0.7140977 -0.9387855,0.721752 -0.9224589,0.7273197 -0.905519,0.7307015 -0.8882682,0.7318369 -0.8710141,0.7307058 -0.8540649,0.7273283 -0.8377228,0.7217648 -0.8222795,0.7141144 -0.8080107,0.7045137 -0.7951709,0.6931341 -0.7839893,0.6801785 -0.7746654,0.6658783 -0.7673655,0.6504885 -0.76222,0.6342839 -0.7593207,0.6175535 -0.7587193,0.6005959z" transform="matrix(1,0,0,-1,4.3267706,2.66)" fill="rgb(255,255,255)" stroke="rgb(0,0,0)" stroke-width="0.0010cm" stroke-linecap="round" stroke-linejoin="round" /><path d="M6.8575669,1.2659169 L6.8575669,1.2659169 6.8566631,1.2489711 6.8534207,1.2322896 6.8478976,1.2161701 6.8401924,1.2009003 6.8304425,1.1867527 6.8188219,1.1739797 6.805538,1.1628093 6.7908279,1.1534408 6.7749541,1.1460414 6.7581998,1.1407431 6.740864,1.1376405 6.723256,1.1367889 6.7056902,1.1382036 6.6884799,1.1418593 6.6719322,1.1476907 6.6563425,1.1555938 6.6419889,1.1654276 6.6291277,1.1770166 6.6179882,1.1901539 6.6087694,1.2046052 6.6016356,1.2201126 6.5967142,1.2363992 6.5940931,1.2531746 6.593819,1.2701393 6.5958967,1.2869906 6.6002892,1.3034278 6.6069182,1.3191575 6.6156653,1.3338991 6.6263745,1.3473895 6.6388545,1.359388 6.6528829,1.3696805 6.668209,1.3780832 6.6845596,1.3844463 6.7016429,1.3886561 6.7191538,1.3906376 6.7367801,1.3903554 6.7542071,1.3878146 6.7711239,1.3830604 6.7872285,1.3761778 6.8022336,1.3672895 6.8158715,1.3565541 6.8278987,1.3441633 6.8381006,1.3303381 6.8462953,1.3153253 6.8523363,1.2993927 6.856116,1.2828247 6.8575669,1.2659169z" transform="matrix(1,0,0,-1,4.3267706,2.66)" fill="rgb(255,255,255)" stroke="rgb(0,0,0)" stroke-width="0.0010cm" stroke-linecap="round" stroke-linejoin="round" /><path d="M6.8093067,0.384679 L6.8093067,0.384679 6.8087054,0.3677215 6.805806,0.3509911 6.8006606,0.3347864 6.7933607,0.3193967 6.7840368,0.3050964 6.7728552,0.2921409 6.7600154,0.2807612 6.7457465,0.2711605 6.7303033,0.2635102 6.7139612,0.2579466 6.6970119,0.2545691 6.6797579,0.253438 6.662507,0.2545735 6.6455672,0.2579552 6.6292406,0.2635229 6.6138187,0.2711772 6.5995766,0.2807815 6.5867685,0.2921644 6.5756229,0.3051227 6.5663388,0.3194253 6.5590819,0.3348169 6.5539815,0.3510229 6.5511288,0.367754 6.5505746,0.3847117 6.5523289,0.4015933 6.5563603,0.4180977 6.5625969,0.4339303 6.5709274,0.4488085 6.5812031,0.4624669 6.5932407,0.4746617 6.6068253,0.4851754 6.6217146,0.4938202 6.6376428,0.500442 6.6543258,0.5049225 6.6714657,0.5071818 6.6887568,0.5071796 6.7058904,0.504916 6.7225608,0.5004312 6.7384706,0.4938055 6.7533358,0.4851569 6.7668912,0.4746398 6.7788948,0.462442 6.7891325,0.448781 6.7974216,0.4339006 6.8036141,0.4180665 6.8075995,0.4015611 6.8093067,0.384679z" transform="matrix(1,0,0,-1,4.3267706,2.66)" fill="rgb(255,255,255)" stroke="rgb(0,0,0)" stroke-width="0.0010cm" stroke-linecap="round" stroke-linejoin="round" /><path d="M-3.7105761,1.1659169 L-3.7105761,1.1659169 -3.7091252,1.1828247 -3.7053455,1.1993927 -3.6993044,1.2153253 -3.6911098,1.2303381 -3.6809079,1.2441633 -3.6688806,1.2565541 -3.6552428,1.2672895 -3.6402377,1.2761778 -3.624133,1.2830604 -3.6072163,1.2878146 -3.5897892,1.2903554 -3.572163,1.2906376 -3.554652,1.2886561 -3.5375688,1.2844463 -3.5212182,1.2780832 -3.505892,1.2696805 -3.4918637,1.259388 -3.4793836,1.2473895 -3.4686745,1.2338991 -3.4599274,1.2191575 -3.4532984,1.2034278 -3.4489058,1.1869906 -3.4468281,1.1701393 -3.4471022,1.1531746 -3.4497234,1.1363992 -3.4546448,1.1201126 -3.4617785,1.1046052 -3.4709974,1.0901539 -3.4821368,1.0770166 -3.4949981,1.0654276 -3.5093516,1.0555938 -3.5249413,1.0476907 -3.541489,1.0418593 -3.5586993,1.0382036 -3.5762652,1.0367889 -3.5938731,1.0376405 -3.6112089,1.0407431 -3.6279633,1.0460414 -3.6438371,1.0534408 -3.6585472,1.0628093 -3.6718311,1.0739797 -3.6834516,1.0867527 -3.6932015,1.1009003 -3.7009068,1.1161701 -3.7064299,1.1322896 -3.7096722,1.1489711 -3.7105761,1.1659169z" transform="matrix(1,0,0,-1,4.3267706,2.66)" fill="rgb(255,255,255)" stroke="rgb(0,0,0)" stroke-width="0.0010cm" stroke-linecap="round" stroke-linejoin="round" /><path d="M-3.697358,-1.6519877 L-3.697358,-1.6519877 -3.6956508,-1.6351056 -3.6916654,-1.6186002 -3.6854729,-1.602766 -3.6771838,-1.5878857 -3.6669461,-1.5742247 -3.6549425,-1.5620269 -3.6413871,-1.5515098 -3.6265219,-1.5428612 -3.6106121,-1.5362354 -3.5939417,-1.5317507 -3.5768081,-1.529487 -3.559517,-1.5294848 -3.5423771,-1.5317442 -3.5256941,-1.5362247 -3.5097659,-1.5428465 -3.4948766,-1.5514913 -3.481292,-1.5620049 -3.4692544,-1.5741997 -3.4589786,-1.5878581 -3.4506482,-1.6027364 -3.4444116,-1.618569 -3.4403802,-1.6350733 -3.4386259,-1.651955 -3.4391801,-1.6689127 -3.4420328,-1.6856438 -3.4471331,-1.7018497 -3.4543901,-1.7172413 -3.4636742,-1.7315439 -3.4748198,-1.7445023 -3.4876279,-1.7558852 -3.50187,-1.7654895 -3.5172919,-1.7731437 -3.5336185,-1.7787114 -3.5505583,-1.7820932 -3.5678092,-1.7832286 -3.5850632,-1.7820975 -3.6020125,-1.7787201 -3.6183546,-1.7731565 -3.6337978,-1.7655061 -3.6480667,-1.7559054 -3.6609065,-1.7445258 -3.6720881,-1.7315703 -3.681412,-1.71727 -3.6887119,-1.7018802 -3.6938573,-1.6856756 -3.6967566,-1.6689452 -3.697358,-1.6519877z" transform="matrix(1,0,0,-1,4.3267706,2.66)" fill="rgb(255,255,255)" stroke="rgb(0,0,0)" stroke-width="0.0010cm" stroke-linecap="round" stroke-linejoin="round" /><path d="M-0.7587193,-0.3327374 L-0.7587193,-0.3327374 -0.7604266,-0.3496195 -0.764412,-0.3661249 -0.7706045,-0.381959 -0.7788936,-0.3968393 -0.7891312,-0.4105003 -0.8011349,-0.4226982 -0.8146902,-0.4332153 -0.8295555,-0.4418639 -0.8454652,-0.4484896 -0.8621357,-0.4529744 -0.8792693,-0.455238 -0.8965604,-0.4552402 -0.9137003,-0.4529809 -0.9303832,-0.4485004 -0.9463115,-0.4418786 -0.9612008,-0.4332338 -0.9747854,-0.4227201 -0.986823,-0.4105253 -0.9970987,-0.3968669 -1.0054292,-0.3819887 -1.0116658,-0.3661561 -1.0156972,-0.3496517 -1.0174515,-0.3327701 -1.0168973,-0.3158124 -1.0140446,-0.2990813 -1.0089442,-0.2828753 -1.0016873,-0.2674837 -0.9924032,-0.2531811 -0.9812576,-0.2402227 -0.9684495,-0.2288399 -0.9542074,-0.2192356 -0.9387855,-0.2115813 -0.9224589,-0.2060136 -0.905519,-0.2026319 -0.8882682,-0.2014964 -0.8710141,-0.2026275 -0.8540649,-0.206005 -0.8377228,-0.2115686 -0.8222795,-0.2192189 -0.8080107,-0.2288196 -0.7951709,-0.2401992 -0.7839893,-0.2531548 -0.7746654,-0.267455 -0.7673655,-0.2828448 -0.76222,-0.2990495 -0.7593207,-0.3157799 -0.7587193,-0.3327374z" transform="matrix(1,0,0,-1,4.3267706,2.66)" fill="rgb(255,255,255)" stroke="rgb(0,0,0)" stroke-width="0.0010cm" stroke-linecap="round" stroke-linejoin="round" /><path d="M-3.6623159,0.164679 L-3.6623159,0.164679 -3.6606086,0.1815611 -3.6566232,0.1980665 -3.6504307,0.2139006 -3.6421417,0.228781 -3.631904,0.242442 -3.6199004,0.2546398 -3.606345,0.2651569 -3.5914798,0.2738055 -3.57557,0.2804312 -3.5588995,0.284916 -3.5417659,0.2871796 -3.5244749,0.2871818 -3.5073349,0.2849225 -3.490652,0.280442 -3.4747238,0.2738202 -3.4598345,0.2651754 -3.4462498,0.2546617 -3.4342122,0.2424669 -3.4239365,0.2288085 -3.415606,0.2139303 -3.4093694,0.1980977 -3.405338,0.1815933 -3.4035838,0.1647117 -3.4041379,0.147754 -3.4069906,0.1310229 -3.412091,0.1148169 -3.419348,0.0994253 -3.4286321,0.0851227 -3.4397776,0.0721644 -3.4525857,0.0607815 -3.4668278,0.0511772 -3.4822498,0.0435229 -3.4985763,0.0379552 -3.5155162,0.0345735 -3.5327671,0.033438 -3.5500211,0.0345691 -3.5669704,0.0379466 -3.5833124,0.0435102 -3.5987557,0.0511605 -3.6130245,0.0607612 -3.6258643,0.0721409 -3.6370459,0.0850964 -3.6463699,0.0993967 -3.6536697,0.1147864 -3.6588152,0.1309911 -3.6617145,0.1477215 -3.6623159,0.164679z" transform="matrix(1,0,0,-1,4.3267706,2.66)" fill="rgb(255,255,255)" stroke="rgb(0,0,0)" stroke-width="0.0010cm" stroke-linecap="round" stroke-linejoin="round" /><path d="M-3.6623159,-0.7686543 L-3.6623159,-0.7686543 -3.6606086,-0.7517722 -3.6566232,-0.7352668 -3.6504307,-0.7194327 -3.6421417,-0.7045524 -3.631904,-0.6908914 -3.6199004,-0.6786935 -3.606345,-0.6681765 -3.5914798,-0.6595279 -3.57557,-0.6529021 -3.5588995,-0.6484174 -3.5417659,-0.6461537 -3.5244749,-0.6461515 -3.5073349,-0.6484108 -3.490652,-0.6528914 -3.4747238,-0.6595131 -3.4598345,-0.668158 -3.4462498,-0.6786716 -3.4342122,-0.6908664 -3.4239365,-0.7045248 -3.415606,-0.719403 -3.4093694,-0.7352356 -3.405338,-0.75174 -3.4035838,-0.7686217 -3.4041379,-0.7855793 -3.4069906,-0.8023104 -3.412091,-0.8185164 -3.419348,-0.833908 -3.4286321,-0.8482106 -3.4397776,-0.861169 -3.4525857,-0.8725518 -3.4668278,-0.8821561 -3.4822498,-0.8898104 -3.4985763,-0.8953781 -3.5155162,-0.8987598 -3.5327671,-0.8998953 -3.5500211,-0.8987642 -3.5669704,-0.8953867 -3.5833124,-0.8898232 -3.5987557,-0.8821728 -3.6130245,-0.8725721 -3.6258643,-0.8611925 -3.6370459,-0.8482369 -3.6463699,-0.8339367 -3.6536697,-0.8185469 -3.6588152,-0.8023422 -3.6617145,-0.7856119 -3.6623159,-0.7686543z" transform="matrix(1,0,0,-1,4.3267706,2.66)" fill="rgb(255,255,255)" stroke="rgb(0,0,0)" stroke-width="0.0010cm" stroke-linecap="round" stroke-linejoin="round" /><path d="M3.8894239,1.6659169 L3.8894239,1.6659169 3.8908748,1.6828247 3.8946545,1.6993927 3.9006956,1.7153253 3.9088902,1.7303381 3.9190921,1.7441633 3.9311194,1.7565541 3.9447572,1.7672895 3.9597623,1.7761778 3.975867,1.7830604 3.9927837,1.7878146 4.0102108,1.7903554 4.027837,1.7906376 4.045348,1.7886561 4.0624312,1.7844463 4.0787818,1.7780832 4.094108,1.7696805 4.1081363,1.759388 4.1206164,1.7473895 4.1313255,1.7338991 4.1400726,1.7191575 4.1467016,1.7034278 4.1510942,1.6869906 4.1531719,1.6701393 4.1528978,1.6531746 4.1502766,1.6363992 4.1453552,1.6201126 4.1382215,1.6046052 4.1290026,1.5901539 4.1178632,1.5770166 4.1050019,1.5654276 4.0906484,1.5555938 4.0750587,1.5476907 4.058511,1.5418593 4.0413007,1.5382036 4.0237348,1.5367889 4.0061269,1.5376405 3.9887911,1.5407431 3.9720367,1.5460414 3.9561629,1.5534408 3.9414528,1.5628093 3.9281689,1.5739797 3.9165484,1.5867527 3.9067985,1.6009003 3.8990932,1.6161701 3.8935701,1.6322896 3.8903278,1.6489711 3.8894239,1.6659169z" transform="matrix(1,0,0,-1,4.3267706,2.66)" fill="rgb(255,255,255)" stroke="rgb(0,0,0)" stroke-width="0.0010cm" stroke-linecap="round" stroke-linejoin="round" /><path d="M6.6879687,-1.6804656 L6.6879687,-1.6804656 6.6710878,-1.682851 6.6540366,-1.6830386 6.637111,-1.6810252 6.6206047,-1.6768457 6.6048043,-1.6705727 6.5899839,-1.662315 6.5764008,-1.6522159 6.5642906,-1.6404507 6.5538636,-1.6272236 6.5453006,-1.6127642 6.5387504,-1.5973234 6.5343267,-1.5811691 6.532106,-1.5645817 6.5321271,-1.5478492 6.5343896,-1.5312618 6.5388541,-1.5151076 6.5454433,-1.4996667 6.5540427,-1.4852073 6.5645031,-1.4719802 6.5766429,-1.460215 6.5902516,-1.450116 6.6050928,-1.4418582 6.620909,-1.4355852 6.6374258,-1.4314057 6.6543565,-1.4293923 6.6714072,-1.4295799 6.6882821,-1.4319653 6.6882821,-1.4319653 6.705163,-1.4295799 6.7222142,-1.4293923 6.7391398,-1.4314057 6.755646,-1.4355852 6.7714465,-1.4418582 6.7862669,-1.450116 6.79985,-1.460215 6.8119602,-1.4719802 6.8223872,-1.4852073 6.8309501,-1.4996667 6.8375003,-1.5151076 6.8419241,-1.5312618 6.8441447,-1.5478492 6.8441236,-1.5645817 6.8418612,-1.5811691 6.8373966,-1.5973234 6.8308075,-1.6127642 6.8222081,-1.6272236 6.8117477,-1.6404507 6.7996078,-1.6522159 6.7859992,-1.662315 6.771158,-1.6705727 6.7553417,-1.6768457 6.7388249,-1.6810252 6.7218943,-1.6830386 6.7048435,-1.682851 6.6879687,-1.6804656z" transform="matrix(1,0,0,-1,4.3267706,2.66)" fill="rgb(255,255,255)" stroke="rgb(0,0,0)" stroke-width="0.0010cm" stroke-linecap="round" stroke-linejoin="round" /><path d="M6.8093067,-0.5486543 L6.8093067,-0.5486543 6.8087054,-0.5656119 6.805806,-0.5823422 6.8006606,-0.5985469 6.7933607,-0.6139367 6.7840368,-0.6282369 6.7728552,-0.6411925 6.7600154,-0.6525721 6.7457465,-0.6621728 6.7303033,-0.6698232 6.7139612,-0.6753867 6.6970119,-0.6787642 6.6797579,-0.6798953 6.662507,-0.6787598 6.6455672,-0.6753781 6.6292406,-0.6698104 6.6138187,-0.6621561 6.5995766,-0.6525518 6.5867685,-0.641169 6.5756229,-0.6282106 6.5663388,-0.613908 6.5590819,-0.5985164 6.5539815,-0.5823104 6.5511288,-0.5655793 6.5505746,-0.5486217 6.5523289,-0.53174 6.5563603,-0.5152356 6.5625969,-0.499403 6.5709274,-0.4845248 6.5812031,-0.4708664 6.5932407,-0.4586716 6.6068253,-0.448158 6.6217146,-0.4395131 6.6376428,-0.4328914 6.6543258,-0.4284108 6.6714657,-0.4261515 6.6887568,-0.4261537 6.7058904,-0.4284174 6.7225608,-0.4329021 6.7384706,-0.4395279 6.7533358,-0.4481765 6.7668912,-0.4586935 6.7788948,-0.4708914 6.7891325,-0.4845524 6.7974216,-0.4994327 6.8036141,-0.5152668 6.8075995,-0.5317722 6.8093067,-0.5486543z" transform="matrix(1,0,0,-1,4.3267706,2.66)" fill="rgb(255,255,255)" stroke="rgb(0,0,0)" stroke-width="0.0010cm" stroke-linecap="round" stroke-linejoin="round" /><path d="M-0.7474343,-1.57 L-0.7474343,-1.57 -0.748589,-1.5866609 -0.7520324,-1.6030244 -0.757703,-1.6187987 -0.7654997,-1.6337021 -0.7752834,-1.6474687 -0.7868793,-1.659853 -0.8000808,-1.6706338 -0.814652,-1.6796187 -0.8303331,-1.6866476 -0.8468441,-1.6915948 -0.8638905,-1.6943722 -0.8811681,-1.6949302 -0.8983685,-1.6932588 -0.9151848,-1.6893878 -0.9313168,-1.6833864 -0.9464768,-1.6753615 -0.9603943,-1.6654565 -0.9728207,-1.6538481 -0.9835345,-1.6407434 -0.9923443,-1.6263763 -0.999093,-1.6110031 -1.0036602,-1.5948983 -1.0059644,-1.5783491 -1.0059644,-1.5616509 -1.0036602,-1.5451018 -0.999093,-1.5289969 -0.9923443,-1.5136237 -0.9835345,-1.4992566 -0.9728207,-1.4861519 -0.9603943,-1.4745435 -0.9464768,-1.4646385 -0.9313168,-1.4566136 -0.9151848,-1.4506122 -0.8983685,-1.4467412 -0.8811681,-1.4450698 -0.8638905,-1.4456278 -0.8468441,-1.4484052 -0.8303331,-1.4533524 -0.814652,-1.4603813 -0.8000808,-1.4693663 -0.7868793,-1.480147 -0.7752834,-1.4925313 -0.7654997,-1.5062979 -0.757703,-1.5212013 -0.7520324,-1.5369756 -0.748589,-1.5533391 -0.7474343,-1.57z" transform="matrix(1,0,0,-1,4.3267706,2.66)" fill="rgb(255,255,255)" stroke="rgb(0,0,0)" stroke-width="0.0010cm" stroke-linecap="round" stroke-linejoin="round" /><path d="M3.0079328,-1.5339753 L3.0079328,-1.5339753 3.0064819,-1.5508831 3.0027022,-1.5674511 2.9966612,-1.5833837 2.9884666,-1.5983965 2.9782646,-1.6122217 2.9662374,-1.6246125 2.9525996,-1.6353479 2.9375944,-1.6442362 2.9214898,-1.6511188 2.904573,-1.655873 2.887146,-1.6584138 2.8695198,-1.658696 2.8520088,-1.6567145 2.8349256,-1.6525046 2.818575,-1.6461416 2.8032488,-1.6377389 2.7892205,-1.6274464 2.7767404,-1.6154479 2.7660312,-1.6019575 2.7572841,-1.5872159 2.7506552,-1.5714861 2.7462626,-1.555049 2.7441849,-1.5381977 2.744459,-1.521233 2.7470802,-1.5044576 2.7520015,-1.4881709 2.7591353,-1.4726636 2.7683542,-1.4582123 2.7794936,-1.445075 2.7923549,-1.433486 2.8067084,-1.4236522 2.8222981,-1.4157491 2.8388458,-1.4099177 2.8560561,-1.406262 2.873622,-1.4048473 2.8912299,-1.4056989 2.9085657,-1.4088015 2.92532,-1.4140998 2.9411939,-1.4214992 2.955904,-1.4308677 2.9691878,-1.4420381 2.9808084,-1.4548111 2.9905583,-1.4689587 2.9982635,-1.4842285 3.0037866,-1.500348 3.007029,-1.5170294 3.0079328,-1.5339753z" transform="matrix(1,0,0,-1,4.3267706,2.66)" fill="rgb(255,255,255)" stroke="rgb(0,0,0)" stroke-width="0.0010cm" stroke-linecap="round" stroke-linejoin="round" /></svg>