<?xml version="1.0" standalone="no"?>
 <!DOCTYPE svg PUBLIC "-//W3C//DTD SVG 1.1//EN" 
 "http://www.w3.org/Graphics/SVG/1.1/DTD/svg11.dtd"> 
<svg
  xmlns:svg="http://www.w3.org/2000/svg"
  xmlns="http://www.w3.org/2000/svg"
  xmlns:xlink="http://www.w3.org/1999/xlink"
  version="1.1"
  width="135.9916mm" height="77.1906mm" viewBox="0.0000 0.0000 135.9916 77.1906">
<title>SVG Image created as LowerPOGO-Edge_Cuts.svg date 2025/04/10 18:42:26 </title>
  <desc>Image generated by PCBNEW </desc>
<g style="fill:#000000; fill-opacity:1.0000;stroke:#000000; stroke-opacity:1.0000;
stroke-linecap:round; stroke-linejoin:round;"
 transform="translate(0 0) scale(1 1)">
<path style="fill:none; 
stroke:#D0D2CD; stroke-width:0.0500; stroke-opacity:1; 
stroke-linecap:round; stroke-linejoin:round;fill:none"
d="M 21.7500,27.2000
35.2500,27.2000
35.2500,65.2000
21.7500,65.2000
Z" /> 
</g>
<g style="fill:none; 
stroke:#D0D2CD; stroke-width:0.0500; stroke-opacity:1; 
stroke-linecap:round; stroke-linejoin:round;">
<path d="M125.5000 71.5631
L9.5000 71.5631
" />
<path style="fill:none; 
stroke:#D0D2CD; stroke-width:0.0500; stroke-opacity:1; 
stroke-linecap:round; stroke-linejoin:round;fill:none"
d="M 96.7500,27.2000
110.2500,27.2000
110.2500,65.2000
96.7500,65.2000
Z" /> 
<path d="M9.5000 13.5500
L125.5000 13.5500
" />
<path d="M125.5000 13.5500
L125.5000 71.5631
" />
<path d="M9.5000 71.5631
L9.5000 13.5500
" />
<path style="fill:none; 
stroke:#D0D2CD; stroke-width:0.0500; stroke-opacity:1; 
stroke-linecap:round; stroke-linejoin:round;fill:none"
d="M 59.2500,27.2000
72.7500,27.2000
72.7500,65.2000
59.2500,65.2000
Z" /> 
<path style="fill:none; 
stroke:#D0D2CD; stroke-width:0.0500; stroke-opacity:1; 
stroke-linecap:round; stroke-linejoin:round;fill:none"
d="M 21.7500,27.2000
35.2500,27.2000
35.2500,65.2000
21.7500,65.2000
Z" /> 
</g>
<g style="fill:none; 
stroke:#D0D2CD; stroke-width:0.0500; stroke-opacity:1; 
stroke-linecap:round; stroke-linejoin:round;">
<path d="M125.5000 71.5631
L9.5000 71.5631
" />
<path style="fill:none; 
stroke:#D0D2CD; stroke-width:0.0500; stroke-opacity:1; 
stroke-linecap:round; stroke-linejoin:round;fill:none"
d="M 96.7500,27.2000
110.2500,27.2000
110.2500,65.2000
96.7500,65.2000
Z" /> 
<path d="M9.5000 13.5500
L125.5000 13.5500
" />
<path d="M125.5000 13.5500
L125.5000 71.5631
" />
<path d="M9.5000 71.5631
L9.5000 13.5500
" />
<path style="fill:none; 
stroke:#D0D2CD; stroke-width:0.0500; stroke-opacity:1; 
stroke-linecap:round; stroke-linejoin:round;fill:none"
d="M 59.2500,27.2000
72.7500,27.2000
72.7500,65.2000
59.2500,65.2000
Z" /> 
</g> 
</svg>
