<?xml version="1.0" standalone="no"?>
 <!DOCTYPE svg PUBLIC "-//W3C//DTD SVG 1.1//EN" 
 "http://www.w3.org/Graphics/SVG/1.1/DTD/svg11.dtd"> 
<svg
  xmlns:svg="http://www.w3.org/2000/svg"
  xmlns="http://www.w3.org/2000/svg"
  xmlns:xlink="http://www.w3.org/1999/xlink"
  version="1.1"
  width="135.9916mm" height="77.1906mm" viewBox="0.0000 0.0000 135.9916 77.1906">
<title>SVG Image created as LowerPOGO-B_Cu.svg date 2025/04/10 18:42:26 </title>
  <desc>Image generated by PCBNEW </desc>
<g style="fill:#000000; fill-opacity:1.0000;stroke:#000000; stroke-opacity:1.0000;
stroke-linecap:round; stroke-linejoin:round;"
 transform="translate(0 0) scale(1 1)">
<path style="fill:none; 
stroke:#D0D2CD; stroke-width:0.0500; stroke-opacity:1; 
stroke-linecap:round; stroke-linejoin:round;fill:none"
d="M 21.7500,27.2000
35.2500,27.2000
35.2500,65.2000
21.7500,65.2000
Z" /> 
</g>
<g style="fill:none; 
stroke:#D0D2CD; stroke-width:0.0500; stroke-opacity:1; 
stroke-linecap:round; stroke-linejoin:round;">
<path d="M125.5000 71.5631
L9.5000 71.5631
" />
<path style="fill:none; 
stroke:#D0D2CD; stroke-width:0.0500; stroke-opacity:1; 
stroke-linecap:round; stroke-linejoin:round;fill:none"
d="M 96.7500,27.2000
110.2500,27.2000
110.2500,65.2000
96.7500,65.2000
Z" /> 
<path d="M9.5000 13.5500
L125.5000 13.5500
" />
<path d="M125.5000 13.5500
L125.5000 71.5631
" />
<path d="M9.5000 71.5631
L9.5000 13.5500
" />
<path style="fill:none; 
stroke:#D0D2CD; stroke-width:0.0500; stroke-opacity:1; 
stroke-linecap:round; stroke-linejoin:round;fill:none"
d="M 59.2500,27.2000
72.7500,27.2000
72.7500,65.2000
59.2500,65.2000
Z" /> 
</g>
<g style="fill:#D0D2CD; fill-opacity:1.0000; stroke:none;">
<circle cx="55.7500" cy="39.2000" r="1.2450" /> 
</g>
<g style="fill:#D0D2CD; fill-opacity:1.0000; stroke:none;">
<circle cx="44.7500" cy="51.2000" r="1.2450" /> 
</g>
<g style="fill:#D0D2CD; fill-opacity:1.0000; stroke:none;">
<circle cx="94.5000" cy="24.7000" r="0.5000" /> 
</g>
<g style="fill:#D0D2CD; fill-opacity:1.0000; stroke:none;">
<circle cx="91.9600" cy="24.7000" r="0.5000" /> 
</g>
<g style="fill:#D0D2CD; fill-opacity:1.0000; stroke:none;">
<circle cx="89.4200" cy="24.7000" r="0.5000" /> 
</g>
<g style="fill:#D0D2CD; fill-opacity:1.0000; stroke:none;">
<circle cx="86.8800" cy="24.7000" r="0.5000" /> 
</g>
<g style="fill:#D0D2CD; fill-opacity:1.0000; stroke:none;">
<circle cx="44.7500" cy="60.2000" r="1.2450" /> 
</g>
<g style="fill:#D0D2CD; fill-opacity:1.0000; stroke:none;">
<circle cx="94.5000" cy="66.7000" r="1.2450" /> 
</g>
<g style="fill:#D0D2CD; fill-opacity:1.0000; stroke:none;">
<circle cx="121.2500" cy="67.2000" r="1.6000" /> 
</g>
<g style="fill:#D0D2CD; fill-opacity:1.0000; stroke:none;">
<circle cx="120.0000" cy="51.2000" r="1.2450" /> 
</g>
<g style="fill:#D0D2CD; fill-opacity:1.0000; stroke:none;">
<circle cx="28.8250" cy="20.4500" r="1.6000" /> 
</g>
<g style="fill:#D0D2CD; fill-opacity:1.0000; stroke:none;">
<circle cx="103.6500" cy="20.6250" r="1.6000" /> 
</g>
<g style="fill:#D0D2CD; fill-opacity:1.0000; stroke:none;">
<circle cx="13.7500" cy="67.2000" r="1.6000" /> 
</g>
<g style="fill:#D0D2CD; fill-opacity:1.0000; stroke:none;">
<circle cx="55.7500" cy="57.2000" r="1.2450" /> 
</g>
<g style="fill:#D0D2CD; fill-opacity:1.0000; stroke:none;">
<circle cx="57.0000" cy="66.7000" r="1.2450" /> 
</g>
<g style="fill:#D0D2CD; fill-opacity:1.0000; stroke:none;">
<circle cx="18.2500" cy="39.2000" r="1.2450" /> 
</g>
<g style="fill:#D0D2CD; fill-opacity:1.0000; stroke:none;">
<circle cx="120.0000" cy="60.2000" r="1.2450" /> 
</g>
<g style="fill:#D0D2CD; fill-opacity:1.0000; stroke:none;">
<circle cx="45.2000" cy="24.7000" r="0.5000" /> 
</g>
<g style="fill:#D0D2CD; fill-opacity:1.0000; stroke:none;">
<circle cx="42.6600" cy="24.7000" r="0.5000" /> 
</g>
<g style="fill:#D0D2CD; fill-opacity:1.0000; stroke:none;">
<circle cx="40.1200" cy="24.7000" r="0.5000" /> 
</g>
<g style="fill:#D0D2CD; fill-opacity:1.0000; stroke:none;">
<circle cx="37.5800" cy="24.7000" r="0.5000" /> 
</g>
<g style="fill:#D0D2CD; fill-opacity:1.0000; stroke:none;">
<circle cx="93.2500" cy="39.2000" r="1.2450" /> 
</g>
<g style="fill:#D0D2CD; fill-opacity:1.0000; stroke:none;">
<circle cx="82.7500" cy="24.7000" r="0.5000" /> 
</g>
<g style="fill:#D0D2CD; fill-opacity:1.0000; stroke:none;">
<circle cx="80.2100" cy="24.7000" r="0.5000" /> 
</g>
<g style="fill:#D0D2CD; fill-opacity:1.0000; stroke:none;">
<circle cx="77.6700" cy="24.7000" r="0.5000" /> 
</g>
<g style="fill:#D0D2CD; fill-opacity:1.0000; stroke:none;">
<circle cx="75.1300" cy="24.7000" r="0.5000" /> 
</g>
<g style="fill:#D0D2CD; fill-opacity:1.0000; stroke:none;">
<circle cx="44.2500" cy="32.2000" r="1.2450" /> 
</g>
<g style="fill:#D0D2CD; fill-opacity:1.0000; stroke:none;">
<circle cx="19.5250" cy="24.7000" r="0.5000" /> 
</g>
<g style="fill:#D0D2CD; fill-opacity:1.0000; stroke:none;">
<circle cx="16.9850" cy="24.7000" r="0.5000" /> 
</g>
<g style="fill:#D0D2CD; fill-opacity:1.0000; stroke:none;">
<circle cx="14.4450" cy="24.7000" r="0.5000" /> 
</g>
<g style="fill:#D0D2CD; fill-opacity:1.0000; stroke:none;">
<circle cx="11.9050" cy="24.7000" r="0.5000" /> 
</g>
<g style="fill:#D0D2CD; fill-opacity:1.0000; stroke:none;">
<circle cx="93.2500" cy="48.2000" r="1.2450" /> 
</g>
<g style="fill:#D0D2CD; fill-opacity:1.0000; stroke:none;">
<circle cx="18.2500" cy="48.2000" r="1.2450" /> 
</g>
<g style="fill:#D0D2CD; fill-opacity:1.0000; stroke:none;">
<circle cx="18.2500" cy="57.2000" r="1.2450" /> 
</g>
<g style="fill:#D0D2CD; fill-opacity:1.0000; stroke:none;">
<circle cx="44.7500" cy="42.2000" r="1.2450" /> 
</g>
<g style="fill:#D0D2CD; fill-opacity:1.0000; stroke:none;">
<circle cx="82.2500" cy="42.2000" r="1.2450" /> 
</g>
<g style="fill:#D0D2CD; fill-opacity:1.0000; stroke:none;">
<circle cx="19.5000" cy="66.7000" r="1.2450" /> 
</g>
<g style="fill:#D0D2CD; fill-opacity:1.0000; stroke:none;">
<circle cx="119.0000" cy="32.2000" r="1.2450" /> 
</g>
<g style="fill:#D0D2CD; fill-opacity:1.0000; stroke:none;">
<circle cx="120.0000" cy="42.2000" r="1.2450" /> 
</g>
<g style="fill:#D0D2CD; fill-opacity:1.0000; stroke:none;">
<circle cx="55.7500" cy="48.2000" r="1.2450" /> 
</g>
<g style="fill:#D0D2CD; fill-opacity:1.0000; stroke:none;">
<circle cx="93.2500" cy="57.2000" r="1.2450" /> 
</g>
<g style="fill:#D0D2CD; fill-opacity:1.0000; stroke:none;">
<circle cx="81.7500" cy="32.2000" r="1.2450" /> 
</g>
<g style="fill:#D0D2CD; fill-opacity:1.0000; stroke:none;">
<circle cx="120.3250" cy="24.6500" r="0.5000" /> 
</g>
<g style="fill:#D0D2CD; fill-opacity:1.0000; stroke:none;">
<circle cx="117.7850" cy="24.6500" r="0.5000" /> 
</g>
<g style="fill:#D0D2CD; fill-opacity:1.0000; stroke:none;">
<circle cx="115.2450" cy="24.6500" r="0.5000" /> 
</g>
<g style="fill:#D0D2CD; fill-opacity:1.0000; stroke:none;">
<circle cx="112.7050" cy="24.6500" r="0.5000" /> 
</g>
<g style="fill:#D0D2CD; fill-opacity:1.0000; stroke:none;">
<circle cx="82.2500" cy="59.7000" r="1.2450" /> 
</g>
<g style="fill:#D0D2CD; fill-opacity:1.0000; stroke:none;">
<circle cx="82.2500" cy="51.2000" r="1.2450" /> 
</g>
<g style="fill:#D0D2CD; fill-opacity:1.0000; stroke:none;">
<circle cx="57.0250" cy="24.7000" r="0.5000" /> 
</g>
<g style="fill:#D0D2CD; fill-opacity:1.0000; stroke:none;">
<circle cx="54.4850" cy="24.7000" r="0.5000" /> 
</g>
<g style="fill:#D0D2CD; fill-opacity:1.0000; stroke:none;">
<circle cx="51.9450" cy="24.7000" r="0.5000" /> 
</g>
<g style="fill:#D0D2CD; fill-opacity:1.0000; stroke:none;">
<circle cx="49.4050" cy="24.7000" r="0.5000" /> 
</g>
<g style="fill:#4D7FC4; fill-opacity:1.0000; stroke:none;">
<circle cx="55.7500" cy="39.2000" r="1.6250" /> 
</g>
<g style="fill:#4D7FC4; fill-opacity:1.0000; stroke:none;">
<circle cx="44.7500" cy="51.2000" r="1.6250" /> 
<path style="fill:#4D7FC4; fill-opacity:1.0000; stroke:none;fill-rule:evenodd;"
d="M 93.6500,23.8500
95.3500,23.8500
95.3500,25.5500
93.6500,25.5500
Z" /> 
</g>
<g style="fill:#4D7FC4; fill-opacity:1.0000; stroke:none;">
<circle cx="91.9600" cy="24.7000" r="0.8500" /> 
<circle cx="89.4200" cy="24.7000" r="0.8500" /> 
<circle cx="86.8800" cy="24.7000" r="0.8500" /> 
<circle cx="44.7500" cy="60.2000" r="1.6250" /> 
</g>
<g style="fill:#4D7FC4; fill-opacity:1.0000; stroke:none;">
<circle cx="94.5000" cy="66.7000" r="1.6250" /> 
</g>
<g style="fill:#4D7FC4; fill-opacity:1.0000; stroke:none;">
<circle cx="121.2500" cy="67.2000" r="1.8000" /> 
</g>
<g style="fill:#4D7FC4; fill-opacity:1.0000; stroke:none;">
<circle cx="121.2500" cy="67.2000" r="2.8000" /> 
</g>
<g style="fill:#4D7FC4; fill-opacity:1.0000; stroke:none;">
<circle cx="120.0000" cy="51.2000" r="1.6250" /> 
</g>
<g style="fill:#4D7FC4; fill-opacity:1.0000; stroke:none;">
<circle cx="28.8250" cy="20.4500" r="1.8000" /> 
</g>
<g style="fill:#4D7FC4; fill-opacity:1.0000; stroke:none;">
<circle cx="28.8250" cy="20.4500" r="2.8000" /> 
</g>
<g style="fill:#4D7FC4; fill-opacity:1.0000; stroke:none;">
<circle cx="103.6500" cy="20.6250" r="1.8000" /> 
</g>
<g style="fill:#4D7FC4; fill-opacity:1.0000; stroke:none;">
<circle cx="103.6500" cy="20.6250" r="2.8000" /> 
</g>
<g style="fill:#4D7FC4; fill-opacity:1.0000; stroke:none;">
<circle cx="13.7500" cy="67.2000" r="1.8000" /> 
</g>
<g style="fill:#4D7FC4; fill-opacity:1.0000; stroke:none;">
<circle cx="13.7500" cy="67.2000" r="2.8000" /> 
</g>
<g style="fill:#4D7FC4; fill-opacity:1.0000; stroke:none;">
<circle cx="55.7500" cy="57.2000" r="1.6250" /> 
</g>
<g style="fill:#4D7FC4; fill-opacity:1.0000; stroke:none;">
<circle cx="57.0000" cy="66.7000" r="1.6250" /> 
</g>
<g style="fill:#4D7FC4; fill-opacity:1.0000; stroke:none;">
<circle cx="18.2500" cy="39.2000" r="1.6250" /> 
</g>
<g style="fill:#4D7FC4; fill-opacity:1.0000; stroke:none;">
<circle cx="120.0000" cy="60.2000" r="1.6250" /> 
<path style="fill:#4D7FC4; fill-opacity:1.0000; stroke:none;fill-rule:evenodd;"
d="M 44.3500,23.8500
46.0500,23.8500
46.0500,25.5500
44.3500,25.5500
Z" /> 
</g>
<g style="fill:#4D7FC4; fill-opacity:1.0000; stroke:none;">
<circle cx="42.6600" cy="24.7000" r="0.8500" /> 
<circle cx="40.1200" cy="24.7000" r="0.8500" /> 
<circle cx="37.5800" cy="24.7000" r="0.8500" /> 
<circle cx="93.2500" cy="39.2000" r="1.6250" /> 
<path style="fill:#4D7FC4; fill-opacity:1.0000; stroke:none;fill-rule:evenodd;"
d="M 81.9000,23.8500
83.6000,23.8500
83.6000,25.5500
81.9000,25.5500
Z" /> 
</g>
<g style="fill:#4D7FC4; fill-opacity:1.0000; stroke:none;">
<circle cx="80.2100" cy="24.7000" r="0.8500" /> 
<circle cx="77.6700" cy="24.7000" r="0.8500" /> 
<circle cx="75.1300" cy="24.7000" r="0.8500" /> 
<circle cx="44.2500" cy="32.2000" r="1.6250" /> 
<path style="fill:#4D7FC4; fill-opacity:1.0000; stroke:none;fill-rule:evenodd;"
d="M 18.6750,23.8500
20.3750,23.8500
20.3750,25.5500
18.6750,25.5500
Z" /> 
</g>
<g style="fill:#4D7FC4; fill-opacity:1.0000; stroke:none;">
<circle cx="16.9850" cy="24.7000" r="0.8500" /> 
<circle cx="14.4450" cy="24.7000" r="0.8500" /> 
<circle cx="11.9050" cy="24.7000" r="0.8500" /> 
<circle cx="93.2500" cy="48.2000" r="1.6250" /> 
</g>
<g style="fill:#4D7FC4; fill-opacity:1.0000; stroke:none;">
<circle cx="18.2500" cy="48.2000" r="1.6250" /> 
</g>
<g style="fill:#4D7FC4; fill-opacity:1.0000; stroke:none;">
<circle cx="18.2500" cy="57.2000" r="1.6250" /> 
</g>
<g style="fill:#4D7FC4; fill-opacity:1.0000; stroke:none;">
<circle cx="44.7500" cy="42.2000" r="1.6250" /> 
</g>
<g style="fill:#4D7FC4; fill-opacity:1.0000; stroke:none;">
<circle cx="82.2500" cy="42.2000" r="1.6250" /> 
</g>
<g style="fill:#4D7FC4; fill-opacity:1.0000; stroke:none;">
<circle cx="19.5000" cy="66.7000" r="1.6250" /> 
</g>
<g style="fill:#4D7FC4; fill-opacity:1.0000; stroke:none;">
<circle cx="119.0000" cy="32.2000" r="1.6250" /> 
</g>
<g style="fill:#4D7FC4; fill-opacity:1.0000; stroke:none;">
<circle cx="120.0000" cy="42.2000" r="1.6250" /> 
</g>
<g style="fill:#4D7FC4; fill-opacity:1.0000; stroke:none;">
<circle cx="55.7500" cy="48.2000" r="1.6250" /> 
</g>
<g style="fill:#4D7FC4; fill-opacity:1.0000; stroke:none;">
<circle cx="93.2500" cy="57.2000" r="1.6250" /> 
</g>
<g style="fill:#4D7FC4; fill-opacity:1.0000; stroke:none;">
<circle cx="81.7500" cy="32.2000" r="1.6250" /> 
<path style="fill:#4D7FC4; fill-opacity:1.0000; stroke:none;fill-rule:evenodd;"
d="M 119.4750,23.8000
121.1750,23.8000
121.1750,25.5000
119.4750,25.5000
Z" /> 
</g>
<g style="fill:#4D7FC4; fill-opacity:1.0000; stroke:none;">
<circle cx="117.7850" cy="24.6500" r="0.8500" /> 
<circle cx="115.2450" cy="24.6500" r="0.8500" /> 
<circle cx="112.7050" cy="24.6500" r="0.8500" /> 
<circle cx="82.2500" cy="59.7000" r="1.6250" /> 
</g>
<g style="fill:#4D7FC4; fill-opacity:1.0000; stroke:none;">
<circle cx="82.2500" cy="51.2000" r="1.6250" /> 
<path style="fill:#4D7FC4; fill-opacity:1.0000; stroke:none;fill-rule:evenodd;"
d="M 56.1750,23.8500
57.8750,23.8500
57.8750,25.5500
56.1750,25.5500
Z" /> 
</g>
<g style="fill:#4D7FC4; fill-opacity:1.0000; stroke:none;">
<circle cx="54.4850" cy="24.7000" r="0.8500" /> 
<circle cx="51.9450" cy="24.7000" r="0.8500" /> 
<circle cx="49.4050" cy="24.7000" r="0.8500" /> 
<path style="fill:#4D7FC4; fill-opacity:1.0000; stroke:none;fill-rule:evenodd;"
d="M 124.9778,14.0722
124.9995,14.1245
124.9995,70.9886
124.9778,71.0409
124.9255,71.0626
10.0745,71.0626
10.0222,71.0409
10.0005,70.9886
10.0005,67.2000
10.5450,67.2000
10.5651,67.5589
10.5651,67.5589
10.6253,67.9132
10.7248,68.2586
10.8624,68.5906
10.8624,68.5906
11.0362,68.9052
11.0362,68.9052
11.2442,69.1983
11.3502,69.3169
12.4855,68.1817
12.5296,68.2423
12.7077,68.4204
12.7683,68.4645
11.6331,69.5998
11.7517,69.7058
12.0448,69.9138
12.0448,69.9138
12.3594,70.0876
12.3594,70.0876
12.6914,70.2252
13.0368,70.3247
13.0368,70.3247
13.3911,70.3849
13.3911,70.3849
13.7500,70.4050
14.1089,70.3849
14.1089,70.3849
14.4632,70.3247
14.8086,70.2252
15.1406,70.0876
15.1406,70.0876
15.4552,69.9138
15.4552,69.9138
15.7483,69.7058
15.8669,69.5998
15.8669,69.5998
14.7317,68.4645
14.7923,68.4204
14.9704,68.2423
15.0145,68.1817
16.1498,69.3169
16.1498,69.3169
16.2558,69.1983
16.4638,68.9052
16.4638,68.9052
16.6376,68.5906
16.6376,68.5906
16.7752,68.2586
16.8747,67.9132
16.9141,67.6815
16.9442,67.6335
16.9994,67.6209
17.0474,67.6511
17.0545,67.6635
17.1710,67.9224
17.3353,68.1942
17.5312,68.4442
17.7558,68.6688
18.0058,68.8647
18.2776,69.0290
18.5673,69.1594
18.8705,69.2539
19.1830,69.3111
19.5000,69.3303
19.8170,69.3111
20.1295,69.2539
20.4327,69.1594
20.7224,69.0290
20.9942,68.8647
21.2442,68.6688
21.4688,68.4442
21.6647,68.1942
21.8290,67.9224
21.9594,67.6327
22.0539,67.3295
22.1111,67.0170
22.1303,66.7000
54.3697,66.7000
54.3889,67.0170
54.4461,67.3295
54.5406,67.6327
54.6669,67.9132
54.6710,67.9224
54.8353,68.1942
55.0312,68.4442
55.2558,68.6688
55.5058,68.8647
55.7776,69.0290
56.0673,69.1594
56.3705,69.2539
56.6830,69.3111
57.0000,69.3303
57.3170,69.3111
57.6295,69.2539
57.9327,69.1594
58.2224,69.0290
58.4942,68.8647
58.7442,68.6688
58.9688,68.4442
59.1647,68.1942
59.3290,67.9224
59.4594,67.6327
59.5539,67.3295
59.6111,67.0170
59.6303,66.7000
91.8697,66.7000
91.8889,67.0170
91.9461,67.3295
92.0406,67.6327
92.1669,67.9132
92.1710,67.9224
92.3353,68.1942
92.5312,68.4442
92.7558,68.6688
93.0058,68.8647
93.2776,69.0290
93.5673,69.1594
93.8705,69.2539
94.1830,69.3111
94.5000,69.3303
94.8170,69.3111
95.1295,69.2539
95.4327,69.1594
95.7224,69.0290
95.9942,68.8647
96.2442,68.6688
96.4688,68.4442
96.6647,68.1942
96.8290,67.9224
96.9594,67.6327
97.0539,67.3295
97.0776,67.2000
118.0450,67.2000
118.0651,67.5589
118.0651,67.5589
118.1253,67.9132
118.2248,68.2586
118.3624,68.5906
118.3624,68.5906
118.5362,68.9052
118.5362,68.9052
118.7442,69.1983
118.8502,69.3169
119.9855,68.1817
120.0296,68.2423
120.2077,68.4204
120.2683,68.4645
119.1331,69.5998
119.2517,69.7058
119.5448,69.9138
119.5448,69.9138
119.8594,70.0876
119.8594,70.0876
120.1914,70.2252
120.5368,70.3247
120.5368,70.3247
120.8911,70.3849
120.8911,70.3849
121.2500,70.4050
121.6089,70.3849
121.6089,70.3849
121.9632,70.3247
122.3086,70.2252
122.6406,70.0876
122.6406,70.0876
122.9552,69.9138
122.9552,69.9138
123.2483,69.7058
123.3669,69.5998
123.3669,69.5998
122.2317,68.4645
122.2923,68.4204
122.4704,68.2423
122.5145,68.1817
123.6498,69.3169
123.6498,69.3169
123.7558,69.1983
123.9638,68.9052
123.9638,68.9052
124.1376,68.5906
124.1376,68.5906
124.2752,68.2586
124.3747,67.9132
124.4349,67.5589
124.4349,67.5589
124.4550,67.2000
124.4349,66.8411
124.4349,66.8411
124.3747,66.4868
124.2752,66.1414
124.1376,65.8094
124.1376,65.8094
123.9638,65.4948
123.9638,65.4948
123.7558,65.2017
123.6498,65.0831
123.6498,65.0831
122.5145,66.2183
122.4704,66.1577
122.2923,65.9796
122.2317,65.9355
123.3669,64.8002
123.2483,64.6942
122.9552,64.4862
122.9552,64.4862
122.6406,64.3124
122.6406,64.3124
122.3086,64.1748
121.9632,64.0753
121.9632,64.0753
121.6089,64.0151
121.6089,64.0151
121.2500,63.9950
120.8911,64.0151
120.8911,64.0151
120.5368,64.0753
120.1914,64.1748
119.8594,64.3124
119.8594,64.3124
119.5448,64.4862
119.5448,64.4862
119.2517,64.6942
119.1331,64.8002
120.2683,65.9355
120.2077,65.9796
120.0296,66.1577
119.9855,66.2183
118.8502,65.0831
118.7442,65.2017
118.5362,65.4948
118.5362,65.4948
118.3624,65.8094
118.3624,65.8094
118.2248,66.1414
118.1253,66.4868
118.0651,66.8411
118.0651,66.8411
118.0450,67.2000
97.0776,67.2000
97.1111,67.0170
97.1303,66.7000
97.1111,66.3830
97.0539,66.0705
96.9685,65.7965
96.9736,65.7401
97.0171,65.7039
97.0391,65.7005
110.3159,65.7005
110.3159,65.7005
110.4432,65.6664
110.5573,65.6005
110.6505,65.5073
110.7164,65.3932
110.7505,65.2659
110.7505,65.2659
110.7505,60.2000
117.3697,60.2000
117.3889,60.5170
117.4461,60.8295
117.5406,61.1327
117.5406,61.1327
117.5406,61.1327
117.6710,61.4224
117.8353,61.6942
118.0312,61.9442
118.2558,62.1688
118.5058,62.3647
118.7776,62.5290
119.0673,62.6594
119.3705,62.7539
119.6830,62.8111
120.0000,62.8303
120.3170,62.8111
120.6295,62.7539
120.9327,62.6594
121.2224,62.5290
121.4942,62.3647
121.7442,62.1688
121.9688,61.9442
122.1647,61.6942
122.3290,61.4224
122.4594,61.1327
122.5539,60.8295
122.6111,60.5170
122.6303,60.2000
122.6111,59.8830
122.5539,59.5705
122.4594,59.2673
122.3290,58.9776
122.1647,58.7058
121.9688,58.4558
121.7442,58.2312
121.4942,58.0353
121.2224,57.8710
121.2224,57.8710
121.2224,57.8710
120.9327,57.7406
120.6295,57.6461
120.3170,57.5889
120.0000,57.5697
119.6830,57.5889
119.3705,57.6461
119.0673,57.7406
118.7776,57.8710
118.7776,57.8710
118.5058,58.0353
118.2558,58.2312
118.0312,58.4558
117.8353,58.7058
117.6710,58.9776
117.6710,58.9776
117.5406,59.2673
117.4461,59.5705
117.3889,59.8830
117.3697,60.2000
110.7505,60.2000
110.7505,51.2000
117.3697,51.2000
117.3889,51.5170
117.4461,51.8295
117.5406,52.1327
117.5406,52.1327
117.5406,52.1327
117.6710,52.4224
117.8353,52.6942
118.0312,52.9442
118.2558,53.1688
118.5058,53.3647
118.7776,53.5290
119.0673,53.6594
119.3705,53.7539
119.6830,53.8111
120.0000,53.8303
120.3170,53.8111
120.6295,53.7539
120.9327,53.6594
121.2224,53.5290
121.4942,53.3647
121.7442,53.1688
121.9688,52.9442
122.1647,52.6942
122.3290,52.4224
122.4594,52.1327
122.5539,51.8295
122.6111,51.5170
122.6303,51.2000
122.6111,50.8830
122.5539,50.5705
122.4594,50.2673
122.3290,49.9776
122.1647,49.7058
121.9688,49.4558
121.7442,49.2312
121.4942,49.0353
121.2224,48.8710
121.2224,48.8710
121.2224,48.8710
120.9327,48.7406
120.6295,48.6461
120.3170,48.5889
120.0000,48.5697
119.6830,48.5889
119.3705,48.6461
119.0673,48.7406
118.7776,48.8710
118.7776,48.8710
118.5058,49.0353
118.2558,49.2312
118.0312,49.4558
117.8353,49.7058
117.6710,49.9776
117.6710,49.9776
117.5406,50.2673
117.4461,50.5705
117.3889,50.8830
117.3697,51.2000
110.7505,51.2000
110.7505,42.2000
117.3697,42.2000
117.3889,42.5170
117.4461,42.8295
117.5406,43.1327
117.5406,43.1327
117.5406,43.1327
117.6710,43.4224
117.8353,43.6942
118.0312,43.9442
118.2558,44.1688
118.5058,44.3647
118.7776,44.5290
119.0673,44.6594
119.3705,44.7539
119.6830,44.8111
120.0000,44.8303
120.3170,44.8111
120.6295,44.7539
120.9327,44.6594
121.2224,44.5290
121.4942,44.3647
121.7442,44.1688
121.9688,43.9442
122.1647,43.6942
122.3290,43.4224
122.4594,43.1327
122.5539,42.8295
122.6111,42.5170
122.6303,42.2000
122.6111,41.8830
122.5539,41.5705
122.4594,41.2673
122.3290,40.9776
122.1647,40.7058
121.9688,40.4558
121.7442,40.2312
121.4942,40.0353
121.2224,39.8710
121.2224,39.8710
121.2224,39.8710
120.9327,39.7406
120.6295,39.6461
120.3170,39.5889
120.0000,39.5697
119.6830,39.5889
119.3705,39.6461
119.0673,39.7406
118.7776,39.8710
118.7776,39.8710
118.5058,40.0353
118.2558,40.2312
118.0312,40.4558
117.8353,40.7058
117.6710,40.9776
117.6710,40.9776
117.5406,41.2673
117.4461,41.5705
117.3889,41.8830
117.3697,42.2000
110.7505,42.2000
110.7505,32.2000
116.3697,32.2000
116.3889,32.5170
116.4461,32.8295
116.5406,33.1327
116.5406,33.1327
116.5406,33.1327
116.6710,33.4224
116.8353,33.6942
117.0312,33.9442
117.2558,34.1688
117.5058,34.3647
117.7776,34.5290
118.0673,34.6594
118.3705,34.7539
118.6830,34.8111
119.0000,34.8303
119.3170,34.8111
119.6295,34.7539
119.9327,34.6594
120.2224,34.5290
120.4942,34.3647
120.7442,34.1688
120.9688,33.9442
121.1647,33.6942
121.3290,33.4224
121.4594,33.1327
121.5539,32.8295
121.6111,32.5170
121.6303,32.2000
121.6111,31.8830
121.5539,31.5705
121.5066,31.4189
121.4594,31.2673
121.4594,31.2673
121.4594,31.2673
121.3290,30.9776
121.1647,30.7058
120.9688,30.4558
120.7442,30.2312
120.4942,30.0353
120.2224,29.8710
120.2224,29.8710
120.2224,29.8710
120.0295,29.7842
119.9327,29.7406
119.9327,29.7406
119.9327,29.7406
119.6295,29.6461
119.3170,29.5889
119.0000,29.5697
118.6830,29.5889
118.3705,29.6461
118.0673,29.7406
117.7776,29.8710
117.7776,29.8710
117.5058,30.0353
117.2558,30.2312
117.0312,30.4558
116.8353,30.7058
116.6710,30.9776
116.6710,30.9776
116.5406,31.2673
116.4461,31.5705
116.3889,31.8830
116.3697,32.2000
110.7505,32.2000
110.7505,27.1341
110.7505,27.1341
110.7164,27.0068
110.7164,27.0068
110.6505,26.8927
110.5573,26.7995
110.4432,26.7336
110.4432,26.7336
110.3159,26.6995
110.3159,26.6995
96.8159,26.6995
96.6841,26.6995
96.6841,26.6995
96.5568,26.7336
96.5568,26.7336
96.4427,26.7995
96.3495,26.8927
96.2836,27.0068
96.2836,27.0068
96.2495,27.1341
96.2495,64.5834
96.2278,64.6357
96.1755,64.6574
96.1299,64.6416
95.9942,64.5353
95.9130,64.4862
95.7224,64.3710
95.7224,64.3710
95.7224,64.3710
95.4327,64.2406
95.1295,64.1461
94.8170,64.0889
94.5000,64.0697
94.1830,64.0889
93.8705,64.1461
93.5673,64.2406
93.2776,64.3710
93.2776,64.3710
93.0058,64.5353
92.7558,64.7312
92.5312,64.9558
92.3353,65.2058
92.1710,65.4776
92.1710,65.4776
92.0406,65.7673
91.9461,66.0705
91.8889,66.3830
91.8697,66.7000
59.6303,66.7000
59.6111,66.3830
59.5539,66.0705
59.4685,65.7965
59.4736,65.7401
59.5171,65.7039
59.5391,65.7005
72.8159,65.7005
72.8159,65.7005
72.9432,65.6664
73.0573,65.6005
73.1505,65.5073
73.2164,65.3932
73.2505,65.2659
73.2505,65.2659
73.2505,59.7000
79.6197,59.7000
79.6389,60.0170
79.6961,60.3295
79.7906,60.6327
79.7906,60.6327
79.7906,60.6327
79.9210,60.9224
80.0853,61.1942
80.2812,61.4442
80.5058,61.6688
80.7558,61.8647
81.0276,62.0290
81.3173,62.1594
81.3173,62.1594
81.3173,62.1594
81.3476,62.1688
81.6205,62.2539
81.9330,62.3111
82.2500,62.3303
82.5670,62.3111
82.8795,62.2539
83.1827,62.1594
83.4724,62.0290
83.7442,61.8647
83.9942,61.6688
84.2188,61.4442
84.4147,61.1942
84.5790,60.9224
84.7094,60.6327
84.8039,60.3295
84.8611,60.0170
84.8803,59.7000
84.8611,59.3830
84.8039,59.0705
84.7094,58.7673
84.5790,58.4776
84.4147,58.2058
84.2188,57.9558
83.9942,57.7312
83.7442,57.5353
83.4724,57.3710
83.4724,57.3710
83.4724,57.3710
83.1827,57.2406
83.0523,57.2000
90.6197,57.2000
90.6389,57.5170
90.6961,57.8295
90.7906,58.1327
90.7906,58.1327
90.7906,58.1327
90.9210,58.4224
91.0853,58.6942
91.2812,58.9442
91.5058,59.1688
91.7558,59.3647
92.0276,59.5290
92.3173,59.6594
92.6205,59.7539
92.9330,59.8111
93.2500,59.8303
93.5670,59.8111
93.8795,59.7539
94.1827,59.6594
94.4724,59.5290
94.7442,59.3647
94.9942,59.1688
95.2188,58.9442
95.4147,58.6942
95.5790,58.4224
95.7094,58.1327
95.8039,57.8295
95.8611,57.5170
95.8803,57.2000
95.8611,56.8830
95.8039,56.5705
95.7094,56.2673
95.5790,55.9776
95.4147,55.7058
95.2188,55.4558
94.9942,55.2312
94.7442,55.0353
94.4724,54.8710
94.4724,54.8710
94.4724,54.8710
94.1827,54.7406
93.8795,54.6461
93.5670,54.5889
93.2500,54.5697
92.9330,54.5889
92.6205,54.6461
92.3173,54.7406
92.0276,54.8710
92.0276,54.8710
91.7558,55.0353
91.5058,55.2312
91.2812,55.4558
91.0853,55.7058
90.9210,55.9776
90.9210,55.9776
90.7906,56.2673
90.6961,56.5705
90.6389,56.8830
90.6197,57.2000
83.0523,57.2000
82.8795,57.1461
82.5670,57.0889
82.2500,57.0697
81.9330,57.0889
81.6205,57.1461
81.3173,57.2406
81.0276,57.3710
81.0276,57.3710
80.7558,57.5353
80.5058,57.7312
80.2812,57.9558
80.0853,58.2058
79.9210,58.4776
79.9210,58.4776
79.7906,58.7673
79.6961,59.0705
79.6389,59.3830
79.6197,59.7000
73.2505,59.7000
73.2505,51.2000
79.6197,51.2000
79.6389,51.5170
79.6961,51.8295
79.7906,52.1327
79.7906,52.1327
79.7906,52.1327
79.9210,52.4224
80.0853,52.6942
80.2812,52.9442
80.5058,53.1688
80.7558,53.3647
81.0276,53.5290
81.3173,53.6594
81.6205,53.7539
81.9330,53.8111
82.2500,53.8303
82.5670,53.8111
82.8795,53.7539
83.1827,53.6594
83.4724,53.5290
83.7442,53.3647
83.9942,53.1688
84.2188,52.9442
84.4147,52.6942
84.5790,52.4224
84.7094,52.1327
84.8039,51.8295
84.8611,51.5170
84.8803,51.2000
84.8611,50.8830
84.8039,50.5705
84.7094,50.2673
84.5790,49.9776
84.4147,49.7058
84.2188,49.4558
83.9942,49.2312
83.7442,49.0353
83.4724,48.8710
83.4724,48.8710
83.4724,48.8710
83.1827,48.7406
82.8795,48.6461
82.5670,48.5889
82.2500,48.5697
81.9330,48.5889
81.6205,48.6461
81.3173,48.7406
81.0276,48.8710
81.0276,48.8710
80.7558,49.0353
80.5058,49.2312
80.2812,49.4558
80.0853,49.7058
79.9210,49.9776
79.9210,49.9776
79.7906,50.2673
79.6961,50.5705
79.6389,50.8830
79.6197,51.2000
73.2505,51.2000
73.2505,48.2000
90.6197,48.2000
90.6389,48.5170
90.6961,48.8295
90.7906,49.1327
90.7906,49.1327
90.7906,49.1327
90.9210,49.4224
91.0853,49.6942
91.2812,49.9442
91.5058,50.1688
91.7558,50.3647
92.0276,50.5290
92.3173,50.6594
92.6205,50.7539
92.9330,50.8111
93.2500,50.8303
93.5670,50.8111
93.8795,50.7539
94.1827,50.6594
94.4724,50.5290
94.7442,50.3647
94.9942,50.1688
95.2188,49.9442
95.4147,49.6942
95.5790,49.4224
95.7094,49.1327
95.8039,48.8295
95.8611,48.5170
95.8803,48.2000
95.8611,47.8830
95.8039,47.5705
95.7094,47.2673
95.5790,46.9776
95.4147,46.7058
95.2188,46.4558
94.9942,46.2312
94.7442,46.0353
94.4724,45.8710
94.4724,45.8710
94.4724,45.8710
94.1827,45.7406
93.8795,45.6461
93.5670,45.5889
93.2500,45.5697
92.9330,45.5889
92.6205,45.6461
92.3173,45.7406
92.0276,45.8710
92.0276,45.8710
91.7558,46.0353
91.5058,46.2312
91.2812,46.4558
91.0853,46.7058
90.9210,46.9776
90.9210,46.9776
90.7906,47.2673
90.6961,47.5705
90.6389,47.8830
90.6197,48.2000
73.2505,48.2000
73.2505,42.2000
79.6197,42.2000
79.6389,42.5170
79.6961,42.8295
79.7906,43.1327
79.7906,43.1327
79.7906,43.1327
79.9210,43.4224
80.0853,43.6942
80.2812,43.9442
80.5058,44.1688
80.7558,44.3647
81.0276,44.5290
81.3173,44.6594
81.6205,44.7539
81.9330,44.8111
82.2500,44.8303
82.5670,44.8111
82.8795,44.7539
83.1827,44.6594
83.4724,44.5290
83.7442,44.3647
83.9942,44.1688
84.2188,43.9442
84.4147,43.6942
84.5790,43.4224
84.7094,43.1327
84.8039,42.8295
84.8611,42.5170
84.8803,42.2000
84.8611,41.8830
84.8039,41.5705
84.7094,41.2673
84.5790,40.9776
84.4147,40.7058
84.2188,40.4558
83.9942,40.2312
83.7442,40.0353
83.4724,39.8710
83.4724,39.8710
83.4724,39.8710
83.1827,39.7406
82.8795,39.6461
82.5670,39.5889
82.2500,39.5697
81.9330,39.5889
81.6205,39.6461
81.3173,39.7406
81.0276,39.8710
81.0276,39.8710
80.7558,40.0353
80.5058,40.2312
80.2812,40.4558
80.0853,40.7058
79.9210,40.9776
79.9210,40.9776
79.7906,41.2673
79.6961,41.5705
79.6389,41.8830
79.6197,42.2000
73.2505,42.2000
73.2505,39.2000
90.6197,39.2000
90.6389,39.5170
90.6961,39.8295
90.7906,40.1327
90.7906,40.1327
90.7906,40.1327
90.9210,40.4224
91.0853,40.6942
91.2812,40.9442
91.5058,41.1688
91.7558,41.3647
92.0276,41.5290
92.3173,41.6594
92.6205,41.7539
92.9330,41.8111
93.2500,41.8303
93.5670,41.8111
93.8795,41.7539
94.1827,41.6594
94.4724,41.5290
94.7442,41.3647
94.9942,41.1688
95.2188,40.9442
95.4147,40.6942
95.5790,40.4224
95.7094,40.1327
95.8039,39.8295
95.8611,39.5170
95.8803,39.2000
95.8611,38.8830
95.8039,38.5705
95.7094,38.2673
95.5790,37.9776
95.4147,37.7058
95.2188,37.4558
94.9942,37.2312
94.7442,37.0353
94.4724,36.8710
94.4724,36.8710
94.4724,36.8710
94.1827,36.7406
93.8795,36.6461
93.5670,36.5889
93.2500,36.5697
92.9330,36.5889
92.6205,36.6461
92.3173,36.7406
92.0276,36.8710
92.0276,36.8710
91.7558,37.0353
91.5058,37.2312
91.2812,37.4558
91.0853,37.7058
90.9210,37.9776
90.9210,37.9776
90.7906,38.2673
90.6961,38.5705
90.6389,38.8830
90.6197,39.2000
73.2505,39.2000
73.2505,32.2000
79.2796,32.2000
79.2991,32.5096
79.2991,32.5096
79.3572,32.8143
79.3572,32.8144
79.4531,33.1094
79.4531,33.1094
79.5852,33.3901
79.7514,33.6520
79.7514,33.6520
79.7863,33.6942
79.9492,33.8911
79.9492,33.8911
80.1637,34.0925
80.1753,34.1035
80.4263,34.2858
80.6982,34.4353
80.7806,34.4679
80.9866,34.5495
80.9866,34.5495
80.9866,34.5495
80.9866,34.5495
80.9866,34.5495
81.1275,34.5856
81.2871,34.6266
81.5949,34.6655
81.5949,34.6655
81.9051,34.6655
81.9051,34.6655
82.2129,34.6266
82.5134,34.5495
82.5134,34.5495
82.5134,34.5495
82.6325,34.5023
82.8018,34.4353
83.0737,34.2858
83.3247,34.1035
83.5508,33.8911
83.7486,33.6520
83.9148,33.3901
84.0469,33.1094
84.1428,32.8144
84.2009,32.5096
84.2204,32.2000
84.2009,31.8904
84.1428,31.5856
84.0469,31.2906
83.9148,31.0099
83.8943,30.9776
83.7486,30.7480
83.7486,30.7479
83.5508,30.5089
83.5508,30.5089
83.3247,30.2965
83.3247,30.2965
83.0737,30.1142
82.8018,29.9647
82.8018,29.9647
82.5134,29.8505
82.5134,29.8505
82.2129,29.7734
82.1103,29.7604
81.9051,29.7345
81.5949,29.7345
81.4190,29.7567
81.2871,29.7734
80.9866,29.8505
80.9866,29.8505
80.6982,29.9647
80.6982,29.9647
80.4263,30.1142
80.1753,30.2965
80.1753,30.2965
79.9492,30.5089
79.9492,30.5089
79.7514,30.7479
79.7514,30.7480
79.5852,31.0099
79.4531,31.2906
79.4531,31.2906
79.3572,31.5856
79.3572,31.5857
79.2991,31.8904
79.2991,31.8904
79.2796,32.2000
73.2505,32.2000
73.2505,27.1341
73.2505,27.1341
73.2164,27.0068
73.2164,27.0068
73.1505,26.8927
73.0573,26.7995
72.9432,26.7336
72.9432,26.7336
72.8159,26.6995
72.8159,26.6995
59.3159,26.6995
59.1841,26.6995
59.1841,26.6995
59.0568,26.7336
59.0568,26.7336
58.9427,26.7995
58.8495,26.8927
58.7836,27.0068
58.7836,27.0068
58.7495,27.1341
58.7495,64.5834
58.7278,64.6357
58.6755,64.6574
58.6299,64.6416
58.4942,64.5353
58.4130,64.4862
58.2224,64.3710
58.2224,64.3710
58.2224,64.3710
57.9327,64.2406
57.6295,64.1461
57.3170,64.0889
57.0000,64.0697
56.6830,64.0889
56.3705,64.1461
56.0673,64.2406
55.7776,64.3710
55.7776,64.3710
55.5058,64.5353
55.2558,64.7312
55.0312,64.9558
54.8353,65.2058
54.6710,65.4776
54.6710,65.4776
54.5406,65.7673
54.4461,66.0705
54.3889,66.3830
54.3697,66.7000
22.1303,66.7000
22.1111,66.3830
22.0539,66.0705
21.9685,65.7965
21.9736,65.7401
22.0171,65.7039
22.0391,65.7005
35.3159,65.7005
35.3159,65.7005
35.4432,65.6664
35.5573,65.6005
35.6505,65.5073
35.7164,65.3932
35.7505,65.2659
35.7505,65.2659
35.7505,60.2000
42.1197,60.2000
42.1389,60.5170
42.1961,60.8295
42.2906,61.1327
42.2906,61.1327
42.2906,61.1327
42.4210,61.4224
42.5853,61.6942
42.7812,61.9442
43.0058,62.1688
43.2558,62.3647
43.5276,62.5290
43.8173,62.6594
44.1205,62.7539
44.4330,62.8111
44.7500,62.8303
45.0670,62.8111
45.3795,62.7539
45.6827,62.6594
45.9724,62.5290
46.2442,62.3647
46.4942,62.1688
46.7188,61.9442
46.9147,61.6942
47.0790,61.4224
47.2094,61.1327
47.3039,60.8295
47.3611,60.5170
47.3803,60.2000
47.3611,59.8830
47.3039,59.5705
47.2094,59.2673
47.0790,58.9776
46.9147,58.7058
46.7188,58.4558
46.4942,58.2312
46.2442,58.0353
45.9724,57.8710
45.9724,57.8710
45.9724,57.8710
45.6827,57.7406
45.3795,57.6461
45.0670,57.5889
44.7500,57.5697
44.4330,57.5889
44.1205,57.6461
43.8173,57.7406
43.5276,57.8710
43.5276,57.8710
43.2558,58.0353
43.0058,58.2312
42.7812,58.4558
42.5853,58.7058
42.4210,58.9776
42.4210,58.9776
42.2906,59.2673
42.1961,59.5705
42.1389,59.8830
42.1197,60.2000
35.7505,60.2000
35.7505,57.2000
53.1197,57.2000
53.1389,57.5170
53.1961,57.8295
53.2906,58.1327
53.2906,58.1327
53.2906,58.1327
53.4210,58.4224
53.5853,58.6942
53.7812,58.9442
54.0058,59.1688
54.2558,59.3647
54.5276,59.5290
54.8173,59.6594
55.1205,59.7539
55.4330,59.8111
55.7500,59.8303
56.0670,59.8111
56.3795,59.7539
56.6827,59.6594
56.9724,59.5290
57.2442,59.3647
57.4942,59.1688
57.7188,58.9442
57.9147,58.6942
58.0790,58.4224
58.2094,58.1327
58.3039,57.8295
58.3611,57.5170
58.3803,57.2000
58.3611,56.8830
58.3039,56.5705
58.2094,56.2673
58.0790,55.9776
57.9147,55.7058
57.7188,55.4558
57.4942,55.2312
57.2442,55.0353
56.9724,54.8710
56.9724,54.8710
56.9724,54.8710
56.6827,54.7406
56.3795,54.6461
56.0670,54.5889
55.7500,54.5697
55.4330,54.5889
55.1205,54.6461
54.8173,54.7406
54.5276,54.8710
54.5276,54.8710
54.2558,55.0353
54.0058,55.2312
53.7812,55.4558
53.5853,55.7058
53.4210,55.9776
53.4210,55.9776
53.2906,56.2673
53.1961,56.5705
53.1389,56.8830
53.1197,57.2000
35.7505,57.2000
35.7505,51.2000
42.1197,51.2000
42.1389,51.5170
42.1961,51.8295
42.2906,52.1327
42.2906,52.1327
42.2906,52.1327
42.4210,52.4224
42.5853,52.6942
42.7812,52.9442
43.0058,53.1688
43.2558,53.3647
43.5276,53.5290
43.8173,53.6594
44.1205,53.7539
44.4330,53.8111
44.7500,53.8303
45.0670,53.8111
45.3795,53.7539
45.6827,53.6594
45.9724,53.5290
46.2442,53.3647
46.4942,53.1688
46.7188,52.9442
46.9147,52.6942
47.0790,52.4224
47.2094,52.1327
47.3039,51.8295
47.3611,51.5170
47.3803,51.2000
47.3611,50.8830
47.3039,50.5705
47.2094,50.2673
47.0790,49.9776
46.9147,49.7058
46.7188,49.4558
46.4942,49.2312
46.2442,49.0353
45.9724,48.8710
45.9724,48.8710
45.9724,48.8710
45.6827,48.7406
45.3795,48.6461
45.0670,48.5889
44.7500,48.5697
44.4330,48.5889
44.1205,48.6461
43.8173,48.7406
43.5276,48.8710
43.5276,48.8710
43.2558,49.0353
43.0058,49.2312
42.7812,49.4558
42.5853,49.7058
42.4210,49.9776
42.4210,49.9776
42.2906,50.2673
42.1961,50.5705
42.1389,50.8830
42.1197,51.2000
35.7505,51.2000
35.7505,48.2000
53.1197,48.2000
53.1389,48.5170
53.1961,48.8295
53.2906,49.1327
53.2906,49.1327
53.2906,49.1327
53.4210,49.4224
53.5853,49.6942
53.7812,49.9442
54.0058,50.1688
54.2558,50.3647
54.5276,50.5290
54.8173,50.6594
55.1205,50.7539
55.4330,50.8111
55.7500,50.8303
56.0670,50.8111
56.3795,50.7539
56.6827,50.6594
56.9724,50.5290
57.2442,50.3647
57.4942,50.1688
57.7188,49.9442
57.9147,49.6942
58.0790,49.4224
58.2094,49.1327
58.3039,48.8295
58.3611,48.5170
58.3803,48.2000
58.3611,47.8830
58.3039,47.5705
58.2094,47.2673
58.0790,46.9776
57.9147,46.7058
57.7188,46.4558
57.4942,46.2312
57.2442,46.0353
56.9724,45.8710
56.9724,45.8710
56.9724,45.8710
56.6827,45.7406
56.3795,45.6461
56.0670,45.5889
55.7500,45.5697
55.4330,45.5889
55.1205,45.6461
54.8173,45.7406
54.5276,45.8710
54.5276,45.8710
54.2558,46.0353
54.0058,46.2312
53.7812,46.4558
53.5853,46.7058
53.4210,46.9776
53.4210,46.9776
53.2906,47.2673
53.1961,47.5705
53.1389,47.8830
53.1197,48.2000
35.7505,48.2000
35.7505,42.2000
42.1197,42.2000
42.1389,42.5170
42.1961,42.8295
42.2906,43.1327
42.2906,43.1327
42.2906,43.1327
42.4210,43.4224
42.5853,43.6942
42.7812,43.9442
43.0058,44.1688
43.2558,44.3647
43.5276,44.5290
43.8173,44.6594
44.1205,44.7539
44.4330,44.8111
44.7500,44.8303
45.0670,44.8111
45.3795,44.7539
45.6827,44.6594
45.9724,44.5290
46.2442,44.3647
46.4942,44.1688
46.7188,43.9442
46.9147,43.6942
47.0790,43.4224
47.2094,43.1327
47.3039,42.8295
47.3611,42.5170
47.3803,42.2000
47.3611,41.8830
47.3039,41.5705
47.2094,41.2673
47.0790,40.9776
46.9147,40.7058
46.7188,40.4558
46.4942,40.2312
46.2442,40.0353
45.9724,39.8710
45.9724,39.8710
45.9724,39.8710
45.6827,39.7406
45.3795,39.6461
45.0670,39.5889
44.7500,39.5697
44.4330,39.5889
44.1205,39.6461
43.8173,39.7406
43.5276,39.8710
43.5276,39.8710
43.2558,40.0353
43.0058,40.2312
42.7812,40.4558
42.5853,40.7058
42.4210,40.9776
42.4210,40.9776
42.2906,41.2673
42.1961,41.5705
42.1389,41.8830
42.1197,42.2000
35.7505,42.2000
35.7505,39.2000
53.1197,39.2000
53.1389,39.5170
53.1961,39.8295
53.2906,40.1327
53.2906,40.1327
53.2906,40.1327
53.4210,40.4224
53.5853,40.6942
53.7812,40.9442
54.0058,41.1688
54.2558,41.3647
54.5276,41.5290
54.8173,41.6594
55.1205,41.7539
55.4330,41.8111
55.7500,41.8303
56.0670,41.8111
56.3795,41.7539
56.6827,41.6594
56.9724,41.5290
57.2442,41.3647
57.4942,41.1688
57.7188,40.9442
57.9147,40.6942
58.0790,40.4224
58.2094,40.1327
58.3039,39.8295
58.3611,39.5170
58.3803,39.2000
58.3611,38.8830
58.3039,38.5705
58.2094,38.2673
58.0790,37.9776
57.9147,37.7058
57.7188,37.4558
57.4942,37.2312
57.2442,37.0353
56.9724,36.8710
56.9724,36.8710
56.9724,36.8710
56.6827,36.7406
56.3795,36.6461
56.0670,36.5889
55.7500,36.5697
55.4330,36.5889
55.1205,36.6461
54.8173,36.7406
54.5276,36.8710
54.5276,36.8710
54.2558,37.0353
54.0058,37.2312
53.7812,37.4558
53.5853,37.7058
53.4210,37.9776
53.4210,37.9776
53.2906,38.2673
53.1961,38.5705
53.1389,38.8830
53.1197,39.2000
35.7505,39.2000
35.7505,32.2000
41.6197,32.2000
41.6389,32.5170
41.6961,32.8295
41.7906,33.1327
41.7906,33.1327
41.7906,33.1327
41.9210,33.4224
42.0853,33.6942
42.2812,33.9442
42.5058,34.1688
42.7558,34.3647
43.0276,34.5290
43.3173,34.6594
43.6205,34.7539
43.9330,34.8111
44.2500,34.8303
44.5670,34.8111
44.8795,34.7539
45.1827,34.6594
45.4724,34.5290
45.7442,34.3647
45.9942,34.1688
46.2188,33.9442
46.4147,33.6942
46.5790,33.4224
46.7094,33.1327
46.8039,32.8295
46.8611,32.5170
46.8803,32.2000
46.8611,31.8830
46.8039,31.5705
46.7566,31.4189
46.7094,31.2673
46.7094,31.2673
46.7094,31.2673
46.5790,30.9776
46.4147,30.7058
46.2188,30.4558
45.9942,30.2312
45.7442,30.0353
45.4724,29.8710
45.4724,29.8710
45.4724,29.8710
45.2795,29.7842
45.1827,29.7406
45.1827,29.7406
45.1827,29.7406
44.8795,29.6461
44.5670,29.5889
44.2500,29.5697
43.9330,29.5889
43.6205,29.6461
43.3173,29.7406
43.0276,29.8710
43.0276,29.8710
42.7558,30.0353
42.5058,30.2312
42.2812,30.4558
42.0853,30.7058
41.9210,30.9776
41.9210,30.9776
41.7906,31.2673
41.6961,31.5705
41.6389,31.8830
41.6197,32.2000
35.7505,32.2000
35.7505,27.1341
35.7505,27.1341
35.7164,27.0068
35.7164,27.0068
35.6505,26.8927
35.5573,26.7995
35.4432,26.7336
35.4432,26.7336
35.3159,26.6995
35.3159,26.6995
21.8159,26.6995
21.6841,26.6995
21.6841,26.6995
21.5568,26.7336
21.5568,26.7336
21.4427,26.7995
21.3495,26.8927
21.2836,27.0068
21.2836,27.0068
21.2495,27.1341
21.2495,64.5834
21.2278,64.6357
21.1755,64.6574
21.1299,64.6416
20.9942,64.5353
20.9130,64.4862
20.7224,64.3710
20.7224,64.3710
20.7224,64.3710
20.4327,64.2406
20.1295,64.1461
19.8170,64.0889
19.5000,64.0697
19.1830,64.0889
18.8705,64.1461
18.5673,64.2406
18.2776,64.3710
18.2776,64.3710
18.0058,64.5353
17.7558,64.7312
17.5312,64.9558
17.3353,65.2058
17.1710,65.4776
17.1710,65.4776
17.0406,65.7673
16.9461,66.0705
16.9285,66.1669
16.8977,66.2145
16.8423,66.2263
16.7948,66.1956
16.7846,66.1740
16.7752,66.1414
16.6376,65.8094
16.6376,65.8094
16.4638,65.4948
16.4638,65.4948
16.2558,65.2017
16.1498,65.0831
16.1498,65.0831
15.0145,66.2183
14.9704,66.1577
14.7923,65.9796
14.7317,65.9355
15.8669,64.8002
15.7483,64.6942
15.4552,64.4862
15.4552,64.4862
15.1406,64.3124
15.1406,64.3124
14.8086,64.1748
14.4632,64.0753
14.4632,64.0753
14.1089,64.0151
14.1089,64.0151
13.7500,63.9950
13.3911,64.0151
13.3911,64.0151
13.0368,64.0753
12.6914,64.1748
12.3594,64.3124
12.3594,64.3124
12.0448,64.4862
12.0448,64.4862
11.7517,64.6942
11.6331,64.8002
12.7683,65.9355
12.7077,65.9796
12.5296,66.1577
12.4855,66.2183
11.3502,65.0831
11.2442,65.2017
11.0362,65.4948
11.0362,65.4948
10.8624,65.8094
10.8624,65.8094
10.7248,66.1414
10.6253,66.4868
10.5651,66.8411
10.5651,66.8411
10.5450,67.2000
10.0005,67.2000
10.0005,57.2000
15.6197,57.2000
15.6389,57.5170
15.6961,57.8295
15.7906,58.1327
15.7906,58.1327
15.7906,58.1327
15.9210,58.4224
16.0853,58.6942
16.2812,58.9442
16.5058,59.1688
16.7558,59.3647
17.0276,59.5290
17.3173,59.6594
17.6205,59.7539
17.9330,59.8111
18.2500,59.8303
18.5670,59.8111
18.8795,59.7539
19.1827,59.6594
19.4724,59.5290
19.7442,59.3647
19.9942,59.1688
20.2188,58.9442
20.4147,58.6942
20.5790,58.4224
20.7094,58.1327
20.8039,57.8295
20.8611,57.5170
20.8803,57.2000
20.8611,56.8830
20.8039,56.5705
20.7094,56.2673
20.5790,55.9776
20.4147,55.7058
20.2188,55.4558
19.9942,55.2312
19.7442,55.0353
19.4724,54.8710
19.4724,54.8710
19.4724,54.8710
19.1827,54.7406
18.8795,54.6461
18.5670,54.5889
18.2500,54.5697
17.9330,54.5889
17.6205,54.6461
17.3173,54.7406
17.0276,54.8710
17.0276,54.8710
16.7558,55.0353
16.5058,55.2312
16.2812,55.4558
16.0853,55.7058
15.9210,55.9776
15.9210,55.9776
15.7906,56.2673
15.6961,56.5705
15.6389,56.8830
15.6197,57.2000
10.0005,57.2000
10.0005,48.2000
15.6197,48.2000
15.6389,48.5170
15.6961,48.8295
15.7906,49.1327
15.7906,49.1327
15.7906,49.1327
15.9210,49.4224
16.0853,49.6942
16.2812,49.9442
16.5058,50.1688
16.7558,50.3647
17.0276,50.5290
17.3173,50.6594
17.6205,50.7539
17.9330,50.8111
18.2500,50.8303
18.5670,50.8111
18.8795,50.7539
19.1827,50.6594
19.4724,50.5290
19.7442,50.3647
19.9942,50.1688
20.2188,49.9442
20.4147,49.6942
20.5790,49.4224
20.7094,49.1327
20.8039,48.8295
20.8611,48.5170
20.8803,48.2000
20.8611,47.8830
20.8039,47.5705
20.7094,47.2673
20.5790,46.9776
20.4147,46.7058
20.2188,46.4558
19.9942,46.2312
19.7442,46.0353
19.4724,45.8710
19.4724,45.8710
19.4724,45.8710
19.1827,45.7406
18.8795,45.6461
18.5670,45.5889
18.2500,45.5697
17.9330,45.5889
17.6205,45.6461
17.3173,45.7406
17.0276,45.8710
17.0276,45.8710
16.7558,46.0353
16.5058,46.2312
16.2812,46.4558
16.0853,46.7058
15.9210,46.9776
15.9210,46.9776
15.7906,47.2673
15.6961,47.5705
15.6389,47.8830
15.6197,48.2000
10.0005,48.2000
10.0005,39.2000
15.6197,39.2000
15.6389,39.5170
15.6961,39.8295
15.7906,40.1327
15.7906,40.1327
15.7906,40.1327
15.9210,40.4224
16.0853,40.6942
16.2812,40.9442
16.5058,41.1688
16.7558,41.3647
17.0276,41.5290
17.3173,41.6594
17.6205,41.7539
17.9330,41.8111
18.2500,41.8303
18.5670,41.8111
18.8795,41.7539
19.1827,41.6594
19.4724,41.5290
19.7442,41.3647
19.9942,41.1688
20.2188,40.9442
20.4147,40.6942
20.5790,40.4224
20.7094,40.1327
20.8039,39.8295
20.8611,39.5170
20.8803,39.2000
20.8611,38.8830
20.8039,38.5705
20.7094,38.2673
20.5790,37.9776
20.4147,37.7058
20.2188,37.4558
19.9942,37.2312
19.7442,37.0353
19.4724,36.8710
19.4724,36.8710
19.4724,36.8710
19.1827,36.7406
18.8795,36.6461
18.5670,36.5889
18.2500,36.5697
17.9330,36.5889
17.6205,36.6461
17.3173,36.7406
17.0276,36.8710
17.0276,36.8710
16.7558,37.0353
16.5058,37.2312
16.2812,37.4558
16.0853,37.7058
15.9210,37.9776
15.9210,37.9776
15.7906,38.2673
15.6961,38.5705
15.6389,38.8830
15.6197,39.2000
10.0005,39.2000
10.0005,24.7000
10.8494,24.7000
10.8697,24.9059
10.9298,25.1040
11.0273,25.2864
11.1586,25.4464
11.3186,25.5777
11.5010,25.6752
11.6991,25.7353
11.9050,25.7556
12.1109,25.7353
12.3090,25.6752
12.4914,25.5777
12.6514,25.4464
12.7827,25.2864
12.8802,25.1040
12.9403,24.9059
12.9606,24.7000
13.3894,24.7000
13.4097,24.9059
13.4698,25.1040
13.5673,25.2864
13.6986,25.4464
13.8585,25.5777
14.0410,25.6752
14.2391,25.7353
14.4450,25.7556
14.6509,25.7353
14.8490,25.6752
15.0314,25.5777
15.1914,25.4464
15.3227,25.2864
15.4202,25.1040
15.4803,24.9059
15.5006,24.7000
15.9294,24.7000
15.9497,24.9059
16.0098,25.1040
16.1073,25.2864
16.2386,25.4464
16.3986,25.5777
16.5810,25.6752
16.7791,25.7353
16.9850,25.7556
17.1909,25.7353
17.3890,25.6752
17.5714,25.5777
17.7314,25.4464
17.8627,25.2864
17.9602,25.1040
18.0203,24.9059
18.0406,24.7000
18.0203,24.4941
17.9602,24.2960
17.8627,24.1136
17.7314,23.9536
17.6705,23.9036
17.5811,23.8303
18.4745,23.8303
18.4745,25.5697
18.4762,25.5782
18.4861,25.6282
18.5156,25.6723
18.5304,25.6946
18.5470,25.7056
18.5968,25.7389
18.5968,25.7389
18.5968,25.7389
18.6553,25.7505
18.6553,25.7505
20.3947,25.7505
20.3947,25.7505
20.4532,25.7389
20.5196,25.6946
20.5639,25.6282
20.5755,25.5697
20.5755,24.7000
36.5244,24.7000
36.5447,24.9059
36.6048,25.1040
36.7023,25.2864
36.8336,25.4464
36.9935,25.5777
37.1760,25.6752
37.3741,25.7353
37.5800,25.7556
37.7859,25.7353
37.9840,25.6752
38.1664,25.5777
38.3264,25.4464
38.4577,25.2864
38.5552,25.1040
38.6153,24.9059
38.6356,24.7000
39.0644,24.7000
39.0847,24.9059
39.1448,25.1040
39.2423,25.2864
39.3736,25.4464
39.5335,25.5777
39.7160,25.6752
39.9141,25.7353
40.1200,25.7556
40.3259,25.7353
40.5240,25.6752
40.7064,25.5777
40.8664,25.4464
40.9977,25.2864
41.0952,25.1040
41.1553,24.9059
41.1756,24.7000
41.6044,24.7000
41.6247,24.9059
41.6848,25.1040
41.7823,25.2864
41.9136,25.4464
42.0735,25.5777
42.2560,25.6752
42.4541,25.7353
42.6600,25.7556
42.8659,25.7353
43.0640,25.6752
43.2464,25.5777
43.4064,25.4464
43.5377,25.2864
43.6352,25.1040
43.6953,24.9059
43.7156,24.7000
43.6953,24.4941
43.6352,24.2960
43.5377,24.1136
43.4064,23.9536
43.3455,23.9036
43.2561,23.8303
44.1495,23.8303
44.1495,25.5697
44.1512,25.5782
44.1611,25.6282
44.1906,25.6723
44.2054,25.6946
44.2220,25.7056
44.2718,25.7389
44.2718,25.7389
44.2718,25.7389
44.3303,25.7505
44.3303,25.7505
46.0697,25.7505
46.0697,25.7505
46.1282,25.7389
46.1946,25.6946
46.2389,25.6282
46.2505,25.5697
46.2505,24.7000
48.3494,24.7000
48.3697,24.9059
48.4298,25.1040
48.5273,25.2864
48.6586,25.4464
48.8185,25.5777
49.0010,25.6752
49.1991,25.7353
49.4050,25.7556
49.6109,25.7353
49.8090,25.6752
49.9915,25.5777
50.1514,25.4464
50.2827,25.2864
50.3802,25.1040
50.4403,24.9059
50.4606,24.7000
50.8894,24.7000
50.9097,24.9059
50.9698,25.1040
51.0673,25.2864
51.1986,25.4464
51.3586,25.5777
51.5410,25.6752
51.7391,25.7353
51.9450,25.7556
52.1509,25.7353
52.3490,25.6752
52.5314,25.5777
52.6914,25.4464
52.8227,25.2864
52.9202,25.1040
52.9803,24.9059
53.0006,24.7000
53.4294,24.7000
53.4497,24.9059
53.5098,25.1040
53.6073,25.2864
53.7386,25.4464
53.8986,25.5777
54.0810,25.6752
54.2791,25.7353
54.4850,25.7556
54.6909,25.7353
54.8890,25.6752
55.0714,25.5777
55.2314,25.4464
55.3627,25.2864
55.4602,25.1040
55.5203,24.9059
55.5406,24.7000
55.5203,24.4941
55.4602,24.2960
55.3627,24.1136
55.2314,23.9536
55.1705,23.9036
55.0811,23.8303
55.9745,23.8303
55.9745,25.5697
55.9762,25.5782
55.9861,25.6282
56.0156,25.6723
56.0304,25.6946
56.0470,25.7056
56.0968,25.7389
56.0968,25.7389
56.0968,25.7389
56.1553,25.7505
56.1553,25.7505
57.8947,25.7505
57.8947,25.7505
57.9532,25.7389
58.0196,25.6946
58.0639,25.6282
58.0755,25.5697
58.0755,24.7000
74.0744,24.7000
74.0947,24.9059
74.1548,25.1040
74.2523,25.2864
74.3836,25.4464
74.5435,25.5777
74.7260,25.6752
74.9241,25.7353
75.1300,25.7556
75.3359,25.7353
75.5340,25.6752
75.7164,25.5777
75.8764,25.4464
76.0077,25.2864
76.1052,25.1040
76.1653,24.9059
76.1856,24.7000
76.6144,24.7000
76.6347,24.9059
76.6948,25.1040
76.7923,25.2864
76.9236,25.4464
77.0836,25.5777
77.2660,25.6752
77.4641,25.7353
77.6700,25.7556
77.8759,25.7353
78.0740,25.6752
78.2565,25.5777
78.4164,25.4464
78.5477,25.2864
78.6452,25.1040
78.7053,24.9059
78.7256,24.7000
79.1544,24.7000
79.1747,24.9059
79.2348,25.1040
79.3323,25.2864
79.4636,25.4464
79.6235,25.5777
79.8060,25.6752
80.0041,25.7353
80.2100,25.7556
80.4159,25.7353
80.6140,25.6752
80.7964,25.5777
80.9564,25.4464
81.0877,25.2864
81.1852,25.1040
81.2453,24.9059
81.2656,24.7000
81.2453,24.4941
81.1852,24.2960
81.0877,24.1136
80.9564,23.9536
80.8955,23.9036
80.8061,23.8303
81.6995,23.8303
81.6995,25.5697
81.7012,25.5782
81.7111,25.6282
81.7406,25.6723
81.7554,25.6946
81.7720,25.7056
81.8218,25.7389
81.8218,25.7389
81.8218,25.7389
81.8803,25.7505
81.8803,25.7505
83.6197,25.7505
83.6197,25.7505
83.6782,25.7389
83.7446,25.6946
83.7889,25.6282
83.8005,25.5697
83.8005,24.7000
85.8244,24.7000
85.8447,24.9059
85.9048,25.1040
86.0023,25.2864
86.1336,25.4464
86.2935,25.5777
86.4760,25.6752
86.6741,25.7353
86.8800,25.7556
87.0859,25.7353
87.2840,25.6752
87.4664,25.5777
87.6264,25.4464
87.7577,25.2864
87.8552,25.1040
87.9153,24.9059
87.9356,24.7000
88.3644,24.7000
88.3847,24.9059
88.4448,25.1040
88.5423,25.2864
88.6736,25.4464
88.8336,25.5777
89.0160,25.6752
89.2141,25.7353
89.4200,25.7556
89.6259,25.7353
89.8240,25.6752
90.0065,25.5777
90.1664,25.4464
90.2977,25.2864
90.3952,25.1040
90.4553,24.9059
90.4756,24.7000
90.9044,24.7000
90.9247,24.9059
90.9848,25.1040
91.0823,25.2864
91.2136,25.4464
91.3735,25.5777
91.5560,25.6752
91.7541,25.7353
91.9600,25.7556
92.1659,25.7353
92.3640,25.6752
92.5464,25.5777
92.7064,25.4464
92.8377,25.2864
92.9352,25.1040
92.9953,24.9059
93.0156,24.7000
92.9953,24.4941
92.9352,24.2960
92.8377,24.1136
92.7064,23.9536
92.6455,23.9036
92.5561,23.8303
93.4495,23.8303
93.4495,25.5697
93.4512,25.5782
93.4611,25.6282
93.4906,25.6723
93.5054,25.6946
93.5220,25.7056
93.5718,25.7389
93.5718,25.7389
93.5718,25.7389
93.6303,25.7505
93.6303,25.7505
95.3697,25.7505
95.3697,25.7505
95.4282,25.7389
95.4946,25.6946
95.5389,25.6282
95.5505,25.5697
95.5505,24.6500
111.6494,24.6500
111.6697,24.8559
111.7298,25.0540
111.8273,25.2364
111.9586,25.3964
112.1185,25.5277
112.3010,25.6252
112.4991,25.6853
112.7050,25.7056
112.9109,25.6853
113.1090,25.6252
113.2914,25.5277
113.4514,25.3964
113.5827,25.2364
113.6802,25.0540
113.7403,24.8559
113.7606,24.6500
114.1894,24.6500
114.2097,24.8559
114.2698,25.0540
114.3673,25.2364
114.4986,25.3964
114.6585,25.5277
114.8410,25.6252
115.0391,25.6853
115.2450,25.7056
115.4509,25.6853
115.6490,25.6252
115.8314,25.5277
115.9914,25.3964
116.1227,25.2364
116.2202,25.0540
116.2803,24.8559
116.3006,24.6500
116.7294,24.6500
116.7497,24.8559
116.8098,25.0540
116.9073,25.2364
117.0386,25.3964
117.1985,25.5277
117.3810,25.6252
117.5791,25.6853
117.7850,25.7056
117.9909,25.6853
118.1890,25.6252
118.3714,25.5277
118.5314,25.3964
118.6627,25.2364
118.7602,25.0540
118.8203,24.8559
118.8406,24.6500
118.8203,24.4441
118.7602,24.2460
118.6627,24.0635
118.5314,23.9036
118.3811,23.7803
119.2745,23.7803
119.2745,25.5197
119.2861,25.5782
119.3156,25.6223
119.3304,25.6446
119.3746,25.6740
119.3968,25.6889
119.3968,25.6889
119.3968,25.6889
119.4553,25.7005
119.4553,25.7005
121.1947,25.7005
121.1947,25.7005
121.2532,25.6889
121.3196,25.6446
121.3639,25.5782
121.3755,25.5197
121.3755,23.7803
121.3639,23.7218
121.3530,23.7054
121.3257,23.6647
121.3196,23.6554
121.2888,23.6349
121.2532,23.6111
121.2532,23.6111
121.2240,23.6053
121.1947,23.5995
119.4553,23.5995
119.4260,23.6053
119.3968,23.6111
119.3304,23.6554
119.3304,23.6554
119.2861,23.7218
119.2745,23.7803
118.3811,23.7803
118.3714,23.7723
118.3704,23.7718
118.1890,23.6748
118.1890,23.6748
118.1890,23.6748
118.0575,23.6349
117.9909,23.6147
117.7850,23.5944
117.5791,23.6147
117.3810,23.6748
117.1985,23.7723
117.0386,23.9036
117.0386,23.9036
116.9073,24.0635
116.8098,24.2460
116.7497,24.4441
116.7448,24.4941
116.7294,24.6500
116.3006,24.6500
116.2803,24.4441
116.2202,24.2460
116.1227,24.0635
115.9914,23.9036
115.8314,23.7723
115.8304,23.7718
115.6490,23.6748
115.6490,23.6748
115.6490,23.6748
115.5175,23.6349
115.4509,23.6147
115.2450,23.5944
115.0391,23.6147
114.8410,23.6748
114.6585,23.7723
114.4986,23.9036
114.4986,23.9036
114.3673,24.0635
114.2698,24.2460
114.2097,24.4441
114.2048,24.4941
114.1894,24.6500
113.7606,24.6500
113.7403,24.4441
113.6802,24.2460
113.5827,24.0635
113.4514,23.9036
113.2914,23.7723
113.2904,23.7718
113.1090,23.6748
113.1090,23.6748
113.1090,23.6748
112.9775,23.6349
112.9109,23.6147
112.7050,23.5944
112.4991,23.6147
112.3010,23.6748
112.1185,23.7723
111.9586,23.9036
111.9586,23.9036
111.8273,24.0635
111.7298,24.2460
111.6697,24.4441
111.6648,24.4941
111.6494,24.6500
95.5505,24.6500
95.5505,23.8303
95.5389,23.7718
95.4946,23.7054
95.4723,23.6906
95.4282,23.6611
95.4282,23.6611
95.3976,23.6550
95.3697,23.6495
93.6303,23.6495
93.6024,23.6550
93.5718,23.6611
93.5054,23.7054
93.5054,23.7054
93.4611,23.7718
93.4594,23.7803
93.4495,23.8303
92.5561,23.8303
92.5464,23.8223
92.3640,23.7248
92.3640,23.7248
92.3640,23.7248
92.2522,23.6909
92.1659,23.6647
91.9600,23.6444
91.7541,23.6647
91.6197,23.7054
91.5659,23.7218
91.5560,23.7248
91.3735,23.8223
91.2136,23.9536
91.2136,23.9536
91.0823,24.1135
90.9848,24.2960
90.9247,24.4941
90.9247,24.4941
90.9044,24.7000
90.4756,24.7000
90.4553,24.4941
90.3952,24.2960
90.2977,24.1136
90.1664,23.9536
90.1055,23.9036
90.0065,23.8223
89.8240,23.7248
89.8240,23.7248
89.8240,23.7248
89.7122,23.6909
89.6259,23.6647
89.4200,23.6444
89.2141,23.6647
89.0797,23.7054
89.0259,23.7218
89.0160,23.7248
88.8335,23.8223
88.6736,23.9536
88.6736,23.9536
88.5423,24.1135
88.4448,24.2960
88.3847,24.4941
88.3847,24.4941
88.3644,24.7000
87.9356,24.7000
87.9153,24.4941
87.8552,24.2960
87.7577,24.1136
87.6264,23.9536
87.5655,23.9036
87.4664,23.8223
87.2840,23.7248
87.2840,23.7248
87.2840,23.7248
87.1722,23.6909
87.0859,23.6647
86.8800,23.6444
86.6741,23.6647
86.5397,23.7054
86.4859,23.7218
86.4760,23.7248
86.2935,23.8223
86.1336,23.9536
86.1336,23.9536
86.0023,24.1135
85.9048,24.2960
85.8447,24.4941
85.8447,24.4941
85.8244,24.7000
83.8005,24.7000
83.8005,23.8303
83.7889,23.7718
83.7446,23.7054
83.7223,23.6906
83.6782,23.6611
83.6782,23.6611
83.6476,23.6550
83.6197,23.6495
81.8803,23.6495
81.8524,23.6550
81.8218,23.6611
81.7554,23.7054
81.7554,23.7054
81.7111,23.7718
81.7094,23.7803
81.6995,23.8303
80.8061,23.8303
80.7964,23.8223
80.6140,23.7248
80.6140,23.7248
80.6140,23.7248
80.5022,23.6909
80.4159,23.6647
80.2100,23.6444
80.0041,23.6647
79.8697,23.7054
79.8159,23.7218
79.8060,23.7248
79.6235,23.8223
79.4636,23.9536
79.4636,23.9536
79.3323,24.1135
79.2348,24.2960
79.1747,24.4941
79.1747,24.4941
79.1544,24.7000
78.7256,24.7000
78.7053,24.4941
78.6452,24.2960
78.5477,24.1136
78.4164,23.9536
78.3555,23.9036
78.2565,23.8223
78.0740,23.7248
78.0740,23.7248
78.0740,23.7248
77.9622,23.6909
77.8759,23.6647
77.6700,23.6444
77.4641,23.6647
77.3297,23.7054
77.2759,23.7218
77.2660,23.7248
77.0835,23.8223
76.9236,23.9536
76.9236,23.9536
76.7923,24.1135
76.6948,24.2960
76.6347,24.4941
76.6347,24.4941
76.6144,24.7000
76.1856,24.7000
76.1653,24.4941
76.1052,24.2960
76.0077,24.1136
75.8764,23.9536
75.8155,23.9036
75.7164,23.8223
75.5340,23.7248
75.5340,23.7248
75.5340,23.7248
75.4222,23.6909
75.3359,23.6647
75.1300,23.6444
74.9241,23.6647
74.7897,23.7054
74.7359,23.7218
74.7260,23.7248
74.5435,23.8223
74.3836,23.9536
74.3836,23.9536
74.2523,24.1135
74.1548,24.2960
74.0947,24.4941
74.0947,24.4941
74.0744,24.7000
58.0755,24.7000
58.0755,23.8303
58.0639,23.7718
58.0196,23.7054
57.9973,23.6906
57.9532,23.6611
57.9532,23.6611
57.9226,23.6550
57.8947,23.6495
56.1553,23.6495
56.1274,23.6550
56.0968,23.6611
56.0304,23.7054
56.0304,23.7054
55.9861,23.7718
55.9844,23.7803
55.9745,23.8303
55.0811,23.8303
55.0714,23.8223
54.8890,23.7248
54.8890,23.7248
54.8890,23.7248
54.7772,23.6909
54.6909,23.6647
54.4850,23.6444
54.2791,23.6647
54.1447,23.7054
54.0909,23.7218
54.0810,23.7248
53.8985,23.8223
53.7386,23.9536
53.7386,23.9536
53.6073,24.1135
53.5098,24.2960
53.4497,24.4941
53.4497,24.4941
53.4294,24.7000
53.0006,24.7000
52.9803,24.4941
52.9202,24.2960
52.8227,24.1136
52.6914,23.9536
52.6305,23.9036
52.5314,23.8223
52.3490,23.7248
52.3490,23.7248
52.3490,23.7248
52.2372,23.6909
52.1509,23.6647
51.9450,23.6444
51.7391,23.6647
51.6047,23.7054
51.5509,23.7218
51.5410,23.7248
51.3585,23.8223
51.1986,23.9536
51.1986,23.9536
51.0673,24.1135
50.9698,24.2960
50.9097,24.4941
50.9097,24.4941
50.8894,24.7000
50.4606,24.7000
50.4403,24.4941
50.3802,24.2960
50.2827,24.1136
50.1514,23.9536
50.0905,23.9036
49.9915,23.8223
49.8090,23.7248
49.8090,23.7248
49.8090,23.7248
49.6972,23.6909
49.6109,23.6647
49.4050,23.6444
49.1991,23.6647
49.0647,23.7054
49.0109,23.7218
49.0010,23.7248
48.8185,23.8223
48.6586,23.9536
48.6586,23.9536
48.5273,24.1135
48.4298,24.2960
48.3697,24.4941
48.3697,24.4941
48.3494,24.7000
46.2505,24.7000
46.2505,23.8303
46.2389,23.7718
46.1946,23.7054
46.1723,23.6906
46.1282,23.6611
46.1282,23.6611
46.0976,23.6550
46.0697,23.6495
44.3303,23.6495
44.3024,23.6550
44.2718,23.6611
44.2054,23.7054
44.2054,23.7054
44.1611,23.7718
44.1594,23.7803
44.1495,23.8303
43.2561,23.8303
43.2464,23.8223
43.0640,23.7248
43.0640,23.7248
43.0640,23.7248
42.9522,23.6909
42.8659,23.6647
42.6600,23.6444
42.4541,23.6647
42.3197,23.7054
42.2659,23.7218
42.2560,23.7248
42.0735,23.8223
41.9136,23.9536
41.9136,23.9536
41.7823,24.1135
41.6848,24.2960
41.6247,24.4941
41.6247,24.4941
41.6044,24.7000
41.1756,24.7000
41.1553,24.4941
41.0952,24.2960
40.9977,24.1136
40.8664,23.9536
40.8055,23.9036
40.7064,23.8223
40.5240,23.7248
40.5240,23.7248
40.5240,23.7248
40.4122,23.6909
40.3259,23.6647
40.1200,23.6444
39.9141,23.6647
39.7797,23.7054
39.7259,23.7218
39.7160,23.7248
39.5335,23.8223
39.3736,23.9536
39.3736,23.9536
39.2423,24.1135
39.1448,24.2960
39.0847,24.4941
39.0847,24.4941
39.0644,24.7000
38.6356,24.7000
38.6153,24.4941
38.5552,24.2960
38.4577,24.1136
38.3264,23.9536
38.2655,23.9036
38.1664,23.8223
37.9840,23.7248
37.9840,23.7248
37.9840,23.7248
37.8722,23.6909
37.7859,23.6647
37.5800,23.6444
37.3741,23.6647
37.2397,23.7054
37.1859,23.7218
37.1760,23.7248
36.9935,23.8223
36.8336,23.9536
36.8336,23.9536
36.7023,24.1135
36.6048,24.2960
36.5447,24.4941
36.5447,24.4941
36.5244,24.7000
20.5755,24.7000
20.5755,23.8303
20.5639,23.7718
20.5196,23.7054
20.4973,23.6906
20.4532,23.6611
20.4532,23.6611
20.4226,23.6550
20.3947,23.6495
18.6553,23.6495
18.6274,23.6550
18.5968,23.6611
18.5304,23.7054
18.5304,23.7054
18.4861,23.7718
18.4844,23.7803
18.4745,23.8303
17.5811,23.8303
17.5714,23.8223
17.3890,23.7248
17.3890,23.7248
17.3890,23.7248
17.2772,23.6909
17.1909,23.6647
16.9850,23.6444
16.7791,23.6647
16.6447,23.7054
16.5909,23.7218
16.5810,23.7248
16.3985,23.8223
16.2386,23.9536
16.2386,23.9536
16.1073,24.1135
16.0098,24.2960
15.9497,24.4941
15.9497,24.4941
15.9294,24.7000
15.5006,24.7000
15.4803,24.4941
15.4202,24.2960
15.3227,24.1136
15.1914,23.9536
15.1305,23.9036
15.0314,23.8223
14.8490,23.7248
14.8490,23.7248
14.8490,23.7248
14.7372,23.6909
14.6509,23.6647
14.4450,23.6444
14.2391,23.6647
14.1047,23.7054
14.0509,23.7218
14.0410,23.7248
13.8585,23.8223
13.6986,23.9536
13.6986,23.9536
13.5673,24.1135
13.4698,24.2960
13.4097,24.4941
13.4097,24.4941
13.3894,24.7000
12.9606,24.7000
12.9403,24.4941
12.8802,24.2960
12.7827,24.1136
12.6514,23.9536
12.5905,23.9036
12.4914,23.8223
12.3090,23.7248
12.3090,23.7248
12.3090,23.7248
12.1972,23.6909
12.1109,23.6647
11.9050,23.6444
11.6991,23.6647
11.5647,23.7054
11.5109,23.7218
11.5010,23.7248
11.3185,23.8223
11.1586,23.9536
11.1586,23.9536
11.0273,24.1135
10.9298,24.2960
10.8697,24.4941
10.8697,24.4941
10.8494,24.7000
10.0005,24.7000
10.0005,20.4500
25.6200,20.4500
25.6401,20.8089
25.6401,20.8089
25.7003,21.1632
25.7998,21.5086
25.9374,21.8406
25.9374,21.8406
26.1112,22.1552
26.1112,22.1552
26.3192,22.4483
26.4252,22.5669
27.5605,21.4317
27.6046,21.4923
27.7827,21.6704
27.8433,21.7145
26.7081,22.8498
26.8267,22.9558
27.1198,23.1638
27.1198,23.1638
27.4344,23.3376
27.4344,23.3376
27.7664,23.4752
28.1118,23.5747
28.1118,23.5747
28.4661,23.6349
28.4661,23.6349
28.8250,23.6550
29.1839,23.6349
29.1839,23.6349
29.5382,23.5747
29.8836,23.4752
30.2156,23.3376
30.2156,23.3376
30.5302,23.1638
30.5302,23.1638
30.8233,22.9558
30.9419,22.8498
30.9419,22.8498
29.8067,21.7145
29.8673,21.6704
30.0454,21.4923
30.0895,21.4317
31.2248,22.5669
31.2248,22.5669
31.3308,22.4483
31.5388,22.1552
31.5388,22.1552
31.7126,21.8406
31.7126,21.8406
31.8502,21.5086
31.9497,21.1632
32.0099,20.8089
32.0099,20.8089
32.0202,20.6250
100.4450,20.6250
100.4651,20.9839
100.4651,20.9839
100.5253,21.3382
100.6248,21.6836
100.7624,22.0156
100.7624,22.0156
100.9362,22.3302
100.9362,22.3302
101.1442,22.6233
101.2502,22.7419
102.3855,21.6067
102.4296,21.6673
102.6077,21.8454
102.6683,21.8895
101.5331,23.0248
101.6517,23.1308
101.9448,23.3388
101.9448,23.3388
102.2594,23.5126
102.2594,23.5126
102.5914,23.6502
102.9368,23.7497
102.9368,23.7497
103.2911,23.8099
103.2911,23.8099
103.6500,23.8300
104.0089,23.8099
104.0089,23.8099
104.3632,23.7497
104.7086,23.6502
105.0406,23.5126
105.0406,23.5126
105.3552,23.3388
105.3552,23.3388
105.6483,23.1308
105.7669,23.0248
105.7669,23.0248
104.6317,21.8895
104.6923,21.8454
104.8704,21.6673
104.9145,21.6067
106.0498,22.7419
106.0498,22.7419
106.1558,22.6233
106.3638,22.3302
106.3638,22.3302
106.5376,22.0156
106.5376,22.0156
106.6752,21.6836
106.7747,21.3382
106.8349,20.9839
106.8349,20.9839
106.8550,20.6250
106.8349,20.2661
106.8349,20.2661
106.7747,19.9118
106.6752,19.5664
106.5376,19.2344
106.5376,19.2344
106.3638,18.9198
106.3638,18.9198
106.1558,18.6267
106.0498,18.5081
106.0498,18.5081
104.9145,19.6433
104.8704,19.5827
104.6923,19.4046
104.6317,19.3605
105.7669,18.2252
105.6483,18.1192
105.3552,17.9112
105.3552,17.9112
105.0406,17.7374
105.0406,17.7374
104.7086,17.5998
104.3632,17.5003
104.3632,17.5003
104.0089,17.4401
104.0089,17.4401
103.6500,17.4200
103.2911,17.4401
103.2911,17.4401
102.9368,17.5003
102.5914,17.5998
102.2594,17.7374
102.2594,17.7374
101.9448,17.9112
101.9448,17.9112
101.6517,18.1192
101.5331,18.2252
102.6683,19.3605
102.6077,19.4046
102.4296,19.5827
102.3855,19.6433
101.2502,18.5081
101.1442,18.6267
100.9362,18.9198
100.9362,18.9198
100.7624,19.2344
100.7624,19.2344
100.6248,19.5664
100.5253,19.9118
100.4651,20.2661
100.4651,20.2661
100.4450,20.6250
32.0202,20.6250
32.0300,20.4500
32.0099,20.0911
32.0099,20.0911
31.9497,19.7368
31.8502,19.3914
31.7126,19.0594
31.7126,19.0594
31.5388,18.7448
31.5388,18.7448
31.3308,18.4517
31.2248,18.3331
31.2248,18.3331
30.0895,19.4683
30.0454,19.4077
29.8673,19.2296
29.8067,19.1855
30.9419,18.0502
30.8233,17.9442
30.5302,17.7362
30.5302,17.7362
30.2156,17.5624
30.2156,17.5624
29.8836,17.4248
29.5382,17.3253
29.5382,17.3253
29.1839,17.2651
29.1839,17.2651
28.8250,17.2450
28.4661,17.2651
28.4661,17.2651
28.1118,17.3253
27.7664,17.4248
27.4344,17.5624
27.4344,17.5624
27.1198,17.7362
27.1198,17.7362
26.8267,17.9442
26.7081,18.0502
27.8433,19.1855
27.7827,19.2296
27.6046,19.4077
27.5605,19.4683
26.4252,18.3331
26.3192,18.4517
26.1112,18.7448
26.1112,18.7448
25.9374,19.0594
25.9374,19.0594
25.7998,19.3914
25.7003,19.7368
25.6401,20.0911
25.6401,20.0911
25.6200,20.4500
10.0005,20.4500
10.0005,14.1245
10.0222,14.0722
10.0745,14.0505
124.9255,14.0505
Z" /> 
</g>
<g style="fill:#FFFFFF; fill-opacity:1.0000; stroke:none;">
<circle cx="55.7500" cy="39.2000" r="1.2450" /> 
</g>
<g style="fill:#FFFFFF; fill-opacity:1.0000; stroke:none;">
<circle cx="44.7500" cy="51.2000" r="1.2450" /> 
</g>
<g style="fill:#FFFFFF; fill-opacity:1.0000; stroke:none;">
<circle cx="94.5000" cy="24.7000" r="0.5000" /> 
</g>
<g style="fill:#FFFFFF; fill-opacity:1.0000; stroke:none;">
<circle cx="91.9600" cy="24.7000" r="0.5000" /> 
</g>
<g style="fill:#FFFFFF; fill-opacity:1.0000; stroke:none;">
<circle cx="89.4200" cy="24.7000" r="0.5000" /> 
</g>
<g style="fill:#FFFFFF; fill-opacity:1.0000; stroke:none;">
<circle cx="86.8800" cy="24.7000" r="0.5000" /> 
</g>
<g style="fill:#FFFFFF; fill-opacity:1.0000; stroke:none;">
<circle cx="44.7500" cy="60.2000" r="1.2450" /> 
</g>
<g style="fill:#FFFFFF; fill-opacity:1.0000; stroke:none;">
<circle cx="94.5000" cy="66.7000" r="1.2450" /> 
</g>
<g style="fill:#FFFFFF; fill-opacity:1.0000; stroke:none;">
<circle cx="121.2500" cy="67.2000" r="1.6000" /> 
</g>
<g style="fill:#FFFFFF; fill-opacity:1.0000; stroke:none;">
<circle cx="120.0000" cy="51.2000" r="1.2450" /> 
</g>
<g style="fill:#FFFFFF; fill-opacity:1.0000; stroke:none;">
<circle cx="28.8250" cy="20.4500" r="1.6000" /> 
</g>
<g style="fill:#FFFFFF; fill-opacity:1.0000; stroke:none;">
<circle cx="103.6500" cy="20.6250" r="1.6000" /> 
</g>
<g style="fill:#FFFFFF; fill-opacity:1.0000; stroke:none;">
<circle cx="13.7500" cy="67.2000" r="1.6000" /> 
</g>
<g style="fill:#FFFFFF; fill-opacity:1.0000; stroke:none;">
<circle cx="55.7500" cy="57.2000" r="1.2450" /> 
</g>
<g style="fill:#FFFFFF; fill-opacity:1.0000; stroke:none;">
<circle cx="57.0000" cy="66.7000" r="1.2450" /> 
</g>
<g style="fill:#FFFFFF; fill-opacity:1.0000; stroke:none;">
<circle cx="18.2500" cy="39.2000" r="1.2450" /> 
</g>
<g style="fill:#FFFFFF; fill-opacity:1.0000; stroke:none;">
<circle cx="120.0000" cy="60.2000" r="1.2450" /> 
</g>
<g style="fill:#FFFFFF; fill-opacity:1.0000; stroke:none;">
<circle cx="45.2000" cy="24.7000" r="0.5000" /> 
</g>
<g style="fill:#FFFFFF; fill-opacity:1.0000; stroke:none;">
<circle cx="42.6600" cy="24.7000" r="0.5000" /> 
</g>
<g style="fill:#FFFFFF; fill-opacity:1.0000; stroke:none;">
<circle cx="40.1200" cy="24.7000" r="0.5000" /> 
</g>
<g style="fill:#FFFFFF; fill-opacity:1.0000; stroke:none;">
<circle cx="37.5800" cy="24.7000" r="0.5000" /> 
</g>
<g style="fill:#FFFFFF; fill-opacity:1.0000; stroke:none;">
<circle cx="93.2500" cy="39.2000" r="1.2450" /> 
</g>
<g style="fill:#FFFFFF; fill-opacity:1.0000; stroke:none;">
<circle cx="82.7500" cy="24.7000" r="0.5000" /> 
</g>
<g style="fill:#FFFFFF; fill-opacity:1.0000; stroke:none;">
<circle cx="80.2100" cy="24.7000" r="0.5000" /> 
</g>
<g style="fill:#FFFFFF; fill-opacity:1.0000; stroke:none;">
<circle cx="77.6700" cy="24.7000" r="0.5000" /> 
</g>
<g style="fill:#FFFFFF; fill-opacity:1.0000; stroke:none;">
<circle cx="75.1300" cy="24.7000" r="0.5000" /> 
</g>
<g style="fill:#FFFFFF; fill-opacity:1.0000; stroke:none;">
<circle cx="44.2500" cy="32.2000" r="1.2450" /> 
</g>
<g style="fill:#FFFFFF; fill-opacity:1.0000; stroke:none;">
<circle cx="19.5250" cy="24.7000" r="0.5000" /> 
</g>
<g style="fill:#FFFFFF; fill-opacity:1.0000; stroke:none;">
<circle cx="16.9850" cy="24.7000" r="0.5000" /> 
</g>
<g style="fill:#FFFFFF; fill-opacity:1.0000; stroke:none;">
<circle cx="14.4450" cy="24.7000" r="0.5000" /> 
</g>
<g style="fill:#FFFFFF; fill-opacity:1.0000; stroke:none;">
<circle cx="11.9050" cy="24.7000" r="0.5000" /> 
</g>
<g style="fill:#FFFFFF; fill-opacity:1.0000; stroke:none;">
<circle cx="93.2500" cy="48.2000" r="1.2450" /> 
</g>
<g style="fill:#FFFFFF; fill-opacity:1.0000; stroke:none;">
<circle cx="18.2500" cy="48.2000" r="1.2450" /> 
</g>
<g style="fill:#FFFFFF; fill-opacity:1.0000; stroke:none;">
<circle cx="18.2500" cy="57.2000" r="1.2450" /> 
</g>
<g style="fill:#FFFFFF; fill-opacity:1.0000; stroke:none;">
<circle cx="44.7500" cy="42.2000" r="1.2450" /> 
</g>
<g style="fill:#FFFFFF; fill-opacity:1.0000; stroke:none;">
<circle cx="82.2500" cy="42.2000" r="1.2450" /> 
</g>
<g style="fill:#FFFFFF; fill-opacity:1.0000; stroke:none;">
<circle cx="19.5000" cy="66.7000" r="1.2450" /> 
</g>
<g style="fill:#FFFFFF; fill-opacity:1.0000; stroke:none;">
<circle cx="119.0000" cy="32.2000" r="1.2450" /> 
</g>
<g style="fill:#FFFFFF; fill-opacity:1.0000; stroke:none;">
<circle cx="120.0000" cy="42.2000" r="1.2450" /> 
</g>
<g style="fill:#FFFFFF; fill-opacity:1.0000; stroke:none;">
<circle cx="55.7500" cy="48.2000" r="1.2450" /> 
</g>
<g style="fill:#FFFFFF; fill-opacity:1.0000; stroke:none;">
<circle cx="93.2500" cy="57.2000" r="1.2450" /> 
</g>
<g style="fill:#FFFFFF; fill-opacity:1.0000; stroke:none;">
<circle cx="81.7500" cy="32.2000" r="1.2450" /> 
</g>
<g style="fill:#FFFFFF; fill-opacity:1.0000; stroke:none;">
<circle cx="120.3250" cy="24.6500" r="0.5000" /> 
</g>
<g style="fill:#FFFFFF; fill-opacity:1.0000; stroke:none;">
<circle cx="117.7850" cy="24.6500" r="0.5000" /> 
</g>
<g style="fill:#FFFFFF; fill-opacity:1.0000; stroke:none;">
<circle cx="115.2450" cy="24.6500" r="0.5000" /> 
</g>
<g style="fill:#FFFFFF; fill-opacity:1.0000; stroke:none;">
<circle cx="112.7050" cy="24.6500" r="0.5000" /> 
</g>
<g style="fill:#FFFFFF; fill-opacity:1.0000; stroke:none;">
<circle cx="82.2500" cy="59.7000" r="1.2450" /> 
</g>
<g style="fill:#FFFFFF; fill-opacity:1.0000; stroke:none;">
<circle cx="82.2500" cy="51.2000" r="1.2450" /> 
</g>
<g style="fill:#FFFFFF; fill-opacity:1.0000; stroke:none;">
<circle cx="57.0250" cy="24.7000" r="0.5000" /> 
</g>
<g style="fill:#FFFFFF; fill-opacity:1.0000; stroke:none;">
<circle cx="54.4850" cy="24.7000" r="0.5000" /> 
</g>
<g style="fill:#FFFFFF; fill-opacity:1.0000; stroke:none;">
<circle cx="51.9450" cy="24.7000" r="0.5000" /> 
</g>
<g style="fill:#FFFFFF; fill-opacity:1.0000; stroke:none;">
<circle cx="49.4050" cy="24.7000" r="0.5000" /> 
</g> 
</svg>
