M48
; DRILL file {KiCad 9.0.3} date 2025-07-15T15:01:56-0400
; FORMAT={-:-/ absolute / metric / decimal}
; #@! TF.CreationDate,2025-07-15T15:01:56-04:00
; #@! TF.GenerationSoftware,Kicad,Pcbnew,9.0.3
; #@! TF.FileFunction,Plated,1,2,PTH
FMAT,2
METRIC
; #@! TA.AperFunction,Plated,PTH,ComponentDrill
T1C1.000
; #@! TA.AperFunction,Plated,PTH,ComponentDrill
T2C2.490
; #@! TA.AperFunction,Plated,PTH,ComponentDrill
T3C3.200
%
G90
G05
T1
X91.405Y-112.0
X93.945Y-112.0
X96.485Y-112.0
X99.025Y-112.0
X117.08Y-112.0
X119.62Y-112.0
X122.16Y-112.0
X124.7Y-112.0
X128.905Y-112.0
X131.445Y-112.0
X133.985Y-112.0
X136.525Y-112.0
X154.63Y-112.0
X157.17Y-112.0
X159.71Y-112.0
X162.25Y-112.0
X166.38Y-112.0
X168.92Y-112.0
X171.46Y-112.0
X174.0Y-112.0
X192.205Y-111.95
X194.745Y-111.95
X197.285Y-111.95
X199.825Y-111.95
T2
X97.75Y-129.5
X97.75Y-138.5
X97.75Y-147.5
X99.0Y-119.5
X123.0Y-154.5
X124.25Y-126.5
X124.25Y-135.5
X124.25Y-144.5
X135.25Y-129.5
X135.25Y-138.5
X135.25Y-147.5
X136.5Y-119.5
X160.5Y-154.5
X161.75Y-126.5
X161.75Y-135.5
X161.75Y-144.5
X172.75Y-129.5
X172.75Y-138.5
X172.75Y-147.5
X174.0Y-119.5
X198.25Y-154.5
X199.5Y-126.5
X199.5Y-135.5
X199.5Y-144.5
T3
X93.25Y-154.5
X108.325Y-107.75
X169.6Y-154.5
X183.15Y-107.925
M30
