<?xml version="1.0" standalone="no"?>
 <!DOCTYPE svg PUBLIC "-//W3C//DTD SVG 1.1//EN" 
 "http://www.w3.org/Graphics/SVG/1.1/DTD/svg11.dtd"> 
<svg
  xmlns:svg="http://www.w3.org/2000/svg"
  xmlns="http://www.w3.org/2000/svg"
  xmlns:xlink="http://www.w3.org/1999/xlink"
  version="1.1"
  width="135.9916mm" height="75.9968mm" viewBox="0.0000 0.0000 135.9916 75.9968">
<title>SVG Image created as LowerPOGO-B_Cu.svg date 2024/09/11 12:44:41 </title>
  <desc>Image generated by PCBNEW </desc>
<g style="fill:#000000; fill-opacity:1.0000;stroke:#000000; stroke-opacity:1.0000;
stroke-linecap:round; stroke-linejoin:round;"
 transform="translate(0 0) scale(1 1)">
</g>
<g style="fill:none; 
stroke:#D0D2CD; stroke-width:0.0500; stroke-opacity:1; 
stroke-linecap:round; stroke-linejoin:round;">
<path d="M92.5000 16.2500
L125.5000 16.2500
" />
<path style="fill:none; 
stroke:#D0D2CD; stroke-width:0.0500; stroke-opacity:1; 
stroke-linecap:round; stroke-linejoin:round;fill:none"
d="M 23.8000,26.0000
37.3000,26.0000
37.3000,65.4750
23.8000,65.4750
Z" /> 
<path d="M125.5000 70.3631
L9.5000 70.3631
" />
<path d="M42.5000 3.2500
L92.5000 3.2500
" />
<path d="M92.5000 3.2500
L92.5000 16.2500
" />
<path style="fill:none; 
stroke:#D0D2CD; stroke-width:0.0500; stroke-opacity:1; 
stroke-linecap:round; stroke-linejoin:round;fill:none"
d="M 99.2500,26.0000
112.7500,26.0000
112.7500,65.3750
99.2500,65.3750
Z" /> 
<path d="M42.5000 16.2500
L42.5000 3.2500
" />
<path d="M9.5000 16.2500
L42.5000 16.2500
" />
<path d="M125.5000 16.2500
L125.5000 70.3631
" />
<path d="M9.5000 70.3631
L9.5000 16.2500
" />
<path style="fill:none; 
stroke:#D0D2CD; stroke-width:0.0500; stroke-opacity:1; 
stroke-linecap:round; stroke-linejoin:round;fill:none"
d="M 61.5000,25.8750
75.0000,25.8750
75.0000,65.1250
61.5000,65.1250
Z" /> 
</g>
<g style="fill:#D0D2CD; fill-opacity:1.0000; stroke:none;">
<circle cx="55.7500" cy="38.0000" r="1.2450" /> 
</g>
<g style="fill:#D0D2CD; fill-opacity:1.0000; stroke:none;">
<circle cx="44.5000" cy="50.0000" r="1.2450" /> 
</g>
<g style="fill:#D0D2CD; fill-opacity:1.0000; stroke:none;">
<circle cx="44.5000" cy="59.0000" r="1.2450" /> 
</g>
<g style="fill:#D0D2CD; fill-opacity:1.0000; stroke:none;">
<circle cx="94.5000" cy="65.5000" r="1.2450" /> 
</g>
<g style="fill:#D0D2CD; fill-opacity:1.0000; stroke:none;">
<circle cx="121.2500" cy="66.0000" r="1.6000" /> 
</g>
<g style="fill:#D0D2CD; fill-opacity:1.0000; stroke:none;">
<circle cx="120.0000" cy="50.0000" r="1.2450" /> 
</g>
<g style="fill:#D0D2CD; fill-opacity:1.0000; stroke:none;">
<circle cx="13.7500" cy="21.0000" r="1.6000" /> 
</g>
<g style="fill:#D0D2CD; fill-opacity:1.0000; stroke:none;">
<circle cx="121.2500" cy="21.0000" r="1.6000" /> 
</g>
<g style="fill:#D0D2CD; fill-opacity:1.0000; stroke:none;">
<circle cx="13.7500" cy="66.0000" r="1.6000" /> 
</g>
<g style="fill:#D0D2CD; fill-opacity:1.0000; stroke:none;">
<circle cx="55.7500" cy="56.0000" r="1.2450" /> 
</g>
<g style="fill:#D0D2CD; fill-opacity:1.0000; stroke:none;">
<circle cx="56.7500" cy="65.5000" r="1.2450" /> 
</g>
<g style="fill:#D0D2CD; fill-opacity:1.0000; stroke:none;">
<circle cx="18.5000" cy="38.0000" r="1.2450" /> 
</g>
<g style="fill:#D0D2CD; fill-opacity:1.0000; stroke:none;">
<circle cx="120.0000" cy="59.0000" r="1.2450" /> 
</g>
<g style="fill:#D0D2CD; fill-opacity:1.0000; stroke:none;">
<circle cx="93.5000" cy="38.0000" r="1.2450" /> 
</g>
<g style="fill:#D0D2CD; fill-opacity:1.0000; stroke:none;">
<circle cx="44.0000" cy="31.0000" r="1.2450" /> 
</g>
<g style="fill:#D0D2CD; fill-opacity:1.0000; stroke:none;">
<circle cx="93.5000" cy="47.0000" r="1.2450" /> 
</g>
<g style="fill:#D0D2CD; fill-opacity:1.0000; stroke:none;">
<circle cx="18.5000" cy="47.0000" r="1.2450" /> 
</g>
<g style="fill:#D0D2CD; fill-opacity:1.0000; stroke:none;">
<circle cx="18.5000" cy="56.0000" r="1.2450" /> 
</g>
<g style="fill:#D0D2CD; fill-opacity:1.0000; stroke:none;">
<circle cx="44.5000" cy="41.0000" r="1.2450" /> 
</g>
<g style="fill:#D0D2CD; fill-opacity:1.0000; stroke:none;">
<circle cx="82.2500" cy="41.0000" r="1.2450" /> 
</g>
<g style="fill:#D0D2CD; fill-opacity:1.0000; stroke:none;">
<circle cx="19.5000" cy="65.5000" r="1.2450" /> 
</g>
<g style="fill:#D0D2CD; fill-opacity:1.0000; stroke:none;">
<circle cx="119.0000" cy="31.0000" r="1.2450" /> 
</g>
<g style="fill:#D0D2CD; fill-opacity:1.0000; stroke:none;">
<circle cx="120.0000" cy="41.0000" r="1.2450" /> 
</g>
<g style="fill:#D0D2CD; fill-opacity:1.0000; stroke:none;">
<circle cx="55.7500" cy="47.0000" r="1.2450" /> 
</g>
<g style="fill:#D0D2CD; fill-opacity:1.0000; stroke:none;">
<circle cx="93.5000" cy="56.0000" r="1.2450" /> 
</g>
<g style="fill:#D0D2CD; fill-opacity:1.0000; stroke:none;">
<circle cx="81.7500" cy="31.0000" r="1.2450" /> 
</g>
<g style="fill:#D0D2CD; fill-opacity:1.0000; stroke:none;">
<circle cx="82.2500" cy="58.5000" r="1.2450" /> 
</g>
<g style="fill:#D0D2CD; fill-opacity:1.0000; stroke:none;">
<circle cx="82.2500" cy="50.0000" r="1.2450" /> 
</g>
<g style="fill:#D0D2CD; fill-opacity:1.0000; stroke:none;">
<circle cx="53.5000" cy="16.7500" r="0.5000" /> 
</g>
<g style="fill:#D0D2CD; fill-opacity:1.0000; stroke:none;">
<circle cx="56.0400" cy="16.7500" r="0.5000" /> 
</g>
<g style="fill:#D0D2CD; fill-opacity:1.0000; stroke:none;">
<circle cx="58.5800" cy="16.7500" r="0.5000" /> 
</g>
<g style="fill:#D0D2CD; fill-opacity:1.0000; stroke:none;">
<circle cx="61.1200" cy="16.7500" r="0.5000" /> 
</g>
<g style="fill:#D0D2CD; fill-opacity:1.0000; stroke:none;">
<circle cx="63.6600" cy="16.7500" r="0.5000" /> 
</g>
<g style="fill:#D0D2CD; fill-opacity:1.0000; stroke:none;">
<circle cx="66.2000" cy="16.7500" r="0.5000" /> 
</g>
<g style="fill:#D0D2CD; fill-opacity:1.0000; stroke:none;">
<circle cx="68.7400" cy="16.7500" r="0.5000" /> 
</g>
<g style="fill:#D0D2CD; fill-opacity:1.0000; stroke:none;">
<circle cx="71.2800" cy="16.7500" r="0.5000" /> 
</g>
<g style="fill:#D0D2CD; fill-opacity:1.0000; stroke:none;">
<circle cx="73.8200" cy="16.7500" r="0.5000" /> 
</g>
<g style="fill:#D0D2CD; fill-opacity:1.0000; stroke:none;">
<circle cx="76.3600" cy="16.7500" r="0.5000" /> 
</g>
<g style="fill:#D0D2CD; fill-opacity:1.0000; stroke:none;">
<circle cx="78.9000" cy="16.7500" r="0.5000" /> 
</g>
<g style="fill:#D0D2CD; fill-opacity:1.0000; stroke:none;">
<circle cx="81.4400" cy="16.7500" r="0.5000" /> 
</g>
<g style="fill:#D0D2CD; fill-opacity:1.0000; stroke:none;">
<circle cx="53.5000" cy="14.2100" r="0.5000" /> 
</g>
<g style="fill:#D0D2CD; fill-opacity:1.0000; stroke:none;">
<circle cx="56.0400" cy="14.2100" r="0.5000" /> 
</g>
<g style="fill:#D0D2CD; fill-opacity:1.0000; stroke:none;">
<circle cx="58.5800" cy="14.2100" r="0.5000" /> 
</g>
<g style="fill:#D0D2CD; fill-opacity:1.0000; stroke:none;">
<circle cx="61.1200" cy="14.2100" r="0.5000" /> 
</g>
<g style="fill:#D0D2CD; fill-opacity:1.0000; stroke:none;">
<circle cx="63.6600" cy="14.2100" r="0.5000" /> 
</g>
<g style="fill:#D0D2CD; fill-opacity:1.0000; stroke:none;">
<circle cx="66.2000" cy="14.2100" r="0.5000" /> 
</g>
<g style="fill:#D0D2CD; fill-opacity:1.0000; stroke:none;">
<circle cx="68.7400" cy="14.2100" r="0.5000" /> 
</g>
<g style="fill:#D0D2CD; fill-opacity:1.0000; stroke:none;">
<circle cx="71.2800" cy="14.2100" r="0.5000" /> 
</g>
<g style="fill:#D0D2CD; fill-opacity:1.0000; stroke:none;">
<circle cx="73.8200" cy="14.2100" r="0.5000" /> 
</g>
<g style="fill:#D0D2CD; fill-opacity:1.0000; stroke:none;">
<circle cx="76.3600" cy="14.2100" r="0.5000" /> 
</g>
<g style="fill:#D0D2CD; fill-opacity:1.0000; stroke:none;">
<circle cx="78.9000" cy="14.2100" r="0.5000" /> 
</g>
<g style="fill:#D0D2CD; fill-opacity:1.0000; stroke:none;">
<circle cx="81.4400" cy="14.2100" r="0.5000" /> 
</g>
<g style="fill:#4D7FC4; fill-opacity:1.0000; stroke:none;">
<circle cx="55.7500" cy="38.0000" r="1.6250" /> 
</g>
<g style="fill:#4D7FC4; fill-opacity:1.0000; stroke:none;">
<circle cx="44.5000" cy="50.0000" r="1.6250" /> 
</g>
<g style="fill:#4D7FC4; fill-opacity:1.0000; stroke:none;">
<circle cx="44.5000" cy="59.0000" r="1.6250" /> 
</g>
<g style="fill:#4D7FC4; fill-opacity:1.0000; stroke:none;">
<circle cx="94.5000" cy="65.5000" r="1.6250" /> 
</g>
<g style="fill:#4D7FC4; fill-opacity:1.0000; stroke:none;">
<circle cx="121.2500" cy="66.0000" r="1.8000" /> 
</g>
<g style="fill:#4D7FC4; fill-opacity:1.0000; stroke:none;">
<circle cx="121.2500" cy="66.0000" r="2.8000" /> 
</g>
<g style="fill:#4D7FC4; fill-opacity:1.0000; stroke:none;">
<circle cx="120.0000" cy="50.0000" r="1.6250" /> 
</g>
<g style="fill:#4D7FC4; fill-opacity:1.0000; stroke:none;">
<circle cx="13.7500" cy="21.0000" r="1.8000" /> 
</g>
<g style="fill:#4D7FC4; fill-opacity:1.0000; stroke:none;">
<circle cx="13.7500" cy="21.0000" r="2.8000" /> 
</g>
<g style="fill:#4D7FC4; fill-opacity:1.0000; stroke:none;">
<circle cx="121.2500" cy="21.0000" r="1.8000" /> 
</g>
<g style="fill:#4D7FC4; fill-opacity:1.0000; stroke:none;">
<circle cx="121.2500" cy="21.0000" r="2.8000" /> 
</g>
<g style="fill:#4D7FC4; fill-opacity:1.0000; stroke:none;">
<circle cx="13.7500" cy="66.0000" r="1.8000" /> 
</g>
<g style="fill:#4D7FC4; fill-opacity:1.0000; stroke:none;">
<circle cx="13.7500" cy="66.0000" r="2.8000" /> 
</g>
<g style="fill:#4D7FC4; fill-opacity:1.0000; stroke:none;">
<circle cx="55.7500" cy="56.0000" r="1.6250" /> 
</g>
<g style="fill:#4D7FC4; fill-opacity:1.0000; stroke:none;">
<circle cx="56.7500" cy="65.5000" r="1.6250" /> 
</g>
<g style="fill:#4D7FC4; fill-opacity:1.0000; stroke:none;">
<circle cx="18.5000" cy="38.0000" r="1.6250" /> 
</g>
<g style="fill:#4D7FC4; fill-opacity:1.0000; stroke:none;">
<circle cx="120.0000" cy="59.0000" r="1.6250" /> 
</g>
<g style="fill:#4D7FC4; fill-opacity:1.0000; stroke:none;">
<circle cx="93.5000" cy="38.0000" r="1.6250" /> 
</g>
<g style="fill:#4D7FC4; fill-opacity:1.0000; stroke:none;">
<circle cx="44.0000" cy="31.0000" r="1.6250" /> 
</g>
<g style="fill:#4D7FC4; fill-opacity:1.0000; stroke:none;">
<circle cx="93.5000" cy="47.0000" r="1.6250" /> 
</g>
<g style="fill:#4D7FC4; fill-opacity:1.0000; stroke:none;">
<circle cx="18.5000" cy="47.0000" r="1.6250" /> 
</g>
<g style="fill:#4D7FC4; fill-opacity:1.0000; stroke:none;">
<circle cx="18.5000" cy="56.0000" r="1.6250" /> 
</g>
<g style="fill:#4D7FC4; fill-opacity:1.0000; stroke:none;">
<circle cx="44.5000" cy="41.0000" r="1.6250" /> 
</g>
<g style="fill:#4D7FC4; fill-opacity:1.0000; stroke:none;">
<circle cx="82.2500" cy="41.0000" r="1.6250" /> 
</g>
<g style="fill:#4D7FC4; fill-opacity:1.0000; stroke:none;">
<circle cx="19.5000" cy="65.5000" r="1.6250" /> 
</g>
<g style="fill:#4D7FC4; fill-opacity:1.0000; stroke:none;">
<circle cx="119.0000" cy="31.0000" r="1.6250" /> 
</g>
<g style="fill:#4D7FC4; fill-opacity:1.0000; stroke:none;">
<circle cx="120.0000" cy="41.0000" r="1.6250" /> 
</g>
<g style="fill:#4D7FC4; fill-opacity:1.0000; stroke:none;">
<circle cx="55.7500" cy="47.0000" r="1.6250" /> 
</g>
<g style="fill:#4D7FC4; fill-opacity:1.0000; stroke:none;">
<circle cx="93.5000" cy="56.0000" r="1.6250" /> 
</g>
<g style="fill:#4D7FC4; fill-opacity:1.0000; stroke:none;">
<circle cx="81.7500" cy="31.0000" r="1.6250" /> 
</g>
<g style="fill:#4D7FC4; fill-opacity:1.0000; stroke:none;">
<circle cx="82.2500" cy="58.5000" r="1.6250" /> 
</g>
<g style="fill:#4D7FC4; fill-opacity:1.0000; stroke:none;">
<circle cx="82.2500" cy="50.0000" r="1.6250" /> 
<path style="fill:#4D7FC4; fill-opacity:1.0000; stroke:none;fill-rule:evenodd;"
d="M 52.6500,15.9000
54.3500,15.9000
54.3500,17.6000
52.6500,17.6000
Z" /> 
</g>
<g style="fill:#4D7FC4; fill-opacity:1.0000; stroke:none;">
<circle cx="56.0400" cy="16.7500" r="0.8500" /> 
<circle cx="58.5800" cy="16.7500" r="0.8500" /> 
<circle cx="61.1200" cy="16.7500" r="0.8500" /> 
<circle cx="63.6600" cy="16.7500" r="0.8500" /> 
<circle cx="66.2000" cy="16.7500" r="0.8500" /> 
<circle cx="68.7400" cy="16.7500" r="0.8500" /> 
<circle cx="71.2800" cy="16.7500" r="0.8500" /> 
<circle cx="73.8200" cy="16.7500" r="0.8500" /> 
<circle cx="76.3600" cy="16.7500" r="0.8500" /> 
<circle cx="78.9000" cy="16.7500" r="0.8500" /> 
<circle cx="81.4400" cy="16.7500" r="0.8500" /> 
<circle cx="53.5000" cy="14.2100" r="0.8500" /> 
<circle cx="56.0400" cy="14.2100" r="0.8500" /> 
<circle cx="58.5800" cy="14.2100" r="0.8500" /> 
<circle cx="61.1200" cy="14.2100" r="0.8500" /> 
<circle cx="63.6600" cy="14.2100" r="0.8500" /> 
<circle cx="66.2000" cy="14.2100" r="0.8500" /> 
<circle cx="68.7400" cy="14.2100" r="0.8500" /> 
<circle cx="71.2800" cy="14.2100" r="0.8500" /> 
<circle cx="73.8200" cy="14.2100" r="0.8500" /> 
<circle cx="76.3600" cy="14.2100" r="0.8500" /> 
<circle cx="78.9000" cy="14.2100" r="0.8500" /> 
<circle cx="81.4400" cy="14.2100" r="0.8500" /> 
</g>
<g style="fill:none; 
stroke:#4D7FC4; stroke-width:0.4000; stroke-opacity:1; 
stroke-linecap:round; stroke-linejoin:round;">
<path d="M78.0280 21.6000
L83.6000 21.6000
" />
<path d="M83.6000 21.6000
L88.8250 26.8250
" />
<path d="M94.5000 65.4500
L94.5000 65.5000
" />
<path d="M73.8200 16.7500
L73.8200 17.3920
" />
<path d="M73.8200 17.3920
L78.0280 21.6000
" />
<path d="M88.8250 59.7750
L94.5000 65.4500
" />
<path d="M88.8250 26.8250
L88.8250 59.7750
" />
<path d="M47.5000 47.0000
L44.5000 50.0000
" />
<path d="M58.5800 18.4200
L47.5000 29.5000
" />
<path d="M58.5800 16.7500
L58.5800 18.4200
" />
<path d="M47.5000 29.5000
L47.5000 47.0000
" />
<path d="M61.1200 18.8800
L49.0000 31.0000
" />
<path d="M61.1200 16.7500
L61.1200 18.8800
" />
<path d="M49.0000 31.0000
L49.0000 54.5000
" />
<path d="M49.0000 54.5000
L44.5000 59.0000
" />
<path d="M53.5000 16.7500
L52.5000 17.7500
" />
<path d="M52.5000 17.7500
L24.0000 17.7500
" />
<path d="M24.0000 17.7500
L14.7500 27.0000
" />
<path d="M14.7500 52.2500
L18.5000 56.0000
" />
<path d="M14.7500 27.0000
L14.7500 52.2500
" />
<path d="M52.6000 21.7500
L26.7500 21.7500
" />
<path d="M26.7500 21.7500
L22.7500 25.7500
" />
<path d="M56.0400 16.7500
L56.0400 18.3100
" />
<path d="M22.7500 62.2500
L19.5000 65.5000
" />
<path d="M56.0400 18.3100
L52.6000 21.7500
" />
<path d="M22.7500 25.7500
L22.7500 62.2500
" />
<path d="M59.2500 48.0000
L52.5000 54.7500
" />
<path d="M52.5000 61.2500
L56.7500 65.5000
" />
<path d="M63.6600 16.7500
L63.6600 19.3400
" />
<path d="M63.6600 19.3400
L59.2500 23.7500
" />
<path d="M59.2500 23.7500
L59.2500 48.0000
" />
<path d="M52.5000 54.7500
L52.5000 61.2500
" />
<path d="M60.7500 25.2500
L66.2000 19.8000
" />
<path d="M55.7500 56.0000
L60.7500 51.0000
" />
<path d="M66.2000 19.8000
L66.2000 16.7500
" />
<path d="M60.7500 51.0000
L60.7500 25.2500
" />
<path d="M76.8500 53.1000
L82.2500 58.5000
" />
<path d="M76.8500 25.2191
L76.8500 53.1000
" />
<path d="M68.7400 17.1091
L76.8500 25.2191
" />
<path d="M68.7400 16.7500
L68.7400 17.1091
" />
<path d="M71.2800 17.1091
L78.2500 24.0791
" />
<path d="M71.2800 16.7500
L71.2800 17.1091
" />
<path d="M78.2500 46.0000
L82.2500 50.0000
" />
<path d="M78.2500 24.0791
L78.2500 46.0000
" />
<path d="M90.2250 52.7250
L93.5000 56.0000
" />
<path d="M76.3600 17.9521
L78.6079 20.2000
" />
<path d="M76.3600 16.7500
L76.3600 17.9521
" />
<path d="M90.2250 25.9000
L90.2250 52.7250
" />
<path d="M84.5250 20.2000
L90.2250 25.9000
" />
<path d="M78.6079 20.2000
L84.5250 20.2000
" />
<path d="M88.0549 21.7500
L109.5000 21.7500
" />
<path d="M80.5909 18.8000
L85.1049 18.8000
" />
<path d="M78.9000 17.1091
L80.5909 18.8000
" />
<path d="M114.0000 26.2500
L114.0000 44.0000
" />
<path d="M109.5000 21.7500
L114.0000 26.2500
" />
<path d="M114.0000 44.0000
L120.0000 50.0000
" />
<path d="M78.9000 16.7500
L78.9000 17.1091
" />
<path d="M85.1049 18.8000
L88.0549 21.7500
" />
<path d="M81.4400 16.7500
L82.4400 17.7500
" />
<path d="M82.4400 17.7500
L111.0000 17.7500
" />
<path d="M123.7500 30.5000
L123.7500 55.2500
" />
<path d="M123.7500 55.2500
L120.0000 59.0000
" />
<path d="M111.0000 17.7500
L123.7500 30.5000
" />
<path style="fill:#4D7FC4; fill-opacity:1.0000; stroke:none;fill-rule:evenodd;"
d="M 91.9778,3.7722
91.9995,3.8245
91.9995,16.3159
92.0336,16.4432
92.0336,16.4432
92.0336,16.4432
92.0995,16.5573
92.1927,16.6505
92.3068,16.7164
92.4341,16.7505
92.4341,16.7505
92.4341,16.7505
92.5659,16.7505
124.9255,16.7505
124.9778,16.7722
124.9995,16.8245
124.9995,69.7886
124.9778,69.8409
124.9255,69.8626
10.0745,69.8626
10.0222,69.8409
10.0005,69.7886
10.0005,66.0000
10.5450,66.0000
10.5651,66.3589
10.5651,66.3589
10.6253,66.7132
10.7248,67.0586
10.8624,67.3906
10.8624,67.3906
11.0362,67.7052
11.0362,67.7052
11.2442,67.9983
11.3502,68.1169
12.4855,66.9817
12.5296,67.0423
12.7077,67.2204
12.7683,67.2645
11.6331,68.3998
11.7517,68.5058
12.0448,68.7138
12.0448,68.7138
12.3594,68.8876
12.3594,68.8876
12.6914,69.0252
13.0368,69.1247
13.0368,69.1247
13.3911,69.1849
13.3911,69.1849
13.7500,69.2050
14.1089,69.1849
14.1089,69.1849
14.4632,69.1247
14.8086,69.0252
15.1406,68.8876
15.1406,68.8876
15.4552,68.7138
15.4552,68.7138
15.7483,68.5058
15.8669,68.3998
15.8669,68.3998
14.7317,67.2645
14.7923,67.2204
14.9704,67.0423
15.0145,66.9817
16.1498,68.1169
16.1498,68.1169
16.2558,67.9983
16.4638,67.7052
16.4638,67.7052
16.6376,67.3906
16.6376,67.3906
16.7752,67.0586
16.8747,66.7132
16.9141,66.4815
16.9442,66.4335
16.9994,66.4209
17.0474,66.4511
17.0545,66.4635
17.1710,66.7224
17.3353,66.9942
17.5312,67.2442
17.7558,67.4688
18.0058,67.6647
18.2776,67.8290
18.5673,67.9594
18.8705,68.0539
19.1830,68.1111
19.5000,68.1303
19.8170,68.1111
20.1295,68.0539
20.4327,67.9594
20.7224,67.8290
20.9942,67.6647
21.2442,67.4688
21.4688,67.2442
21.6647,66.9942
21.8290,66.7224
21.9594,66.4327
22.0539,66.1295
22.1111,65.8170
22.1303,65.5000
22.1111,65.1830
22.0539,64.8705
21.9594,64.5673
21.8290,64.2776
21.6647,64.0058
21.6594,63.9990
21.6442,63.9445
21.6653,63.9011
23.0705,62.4959
23.1232,62.4046
23.1505,62.3027
23.1505,62.1973
23.1505,25.9465
23.1722,25.8942
23.1732,25.8932
23.2255,25.8715
23.2778,25.8932
23.2995,25.9455
23.2995,65.5409
23.3336,65.6682
23.3336,65.6682
23.3336,65.6682
23.3995,65.7823
23.4927,65.8755
23.6068,65.9414
23.7341,65.9755
23.7341,65.9755
23.7341,65.9755
37.3659,65.9755
37.3659,65.9755
37.4932,65.9414
37.6073,65.8755
37.7005,65.7823
37.7664,65.6682
37.8005,65.5409
37.8005,65.5409
37.8005,31.0000
41.3697,31.0000
41.3889,31.3170
41.4461,31.6295
41.5406,31.9327
41.5406,31.9327
41.5406,31.9327
41.6710,32.2224
41.8353,32.4942
42.0312,32.7442
42.2558,32.9688
42.5058,33.1647
42.7776,33.3290
43.0673,33.4594
43.3705,33.5539
43.6830,33.6111
44.0000,33.6303
44.3170,33.6111
44.6295,33.5539
44.9327,33.4594
45.2224,33.3290
45.4942,33.1647
45.7442,32.9688
45.9688,32.7442
46.1647,32.4942
46.3290,32.2224
46.4594,31.9327
46.5539,31.6295
46.6111,31.3170
46.6303,31.0000
46.6111,30.6830
46.5539,30.3705
46.5066,30.2189
46.4594,30.0673
46.4594,30.0673
46.4594,30.0673
46.3290,29.7776
46.1647,29.5058
45.9688,29.2558
45.7442,29.0312
45.4942,28.8353
45.2224,28.6710
45.2224,28.6710
45.2224,28.6710
45.0295,28.5842
44.9327,28.5406
44.9327,28.5406
44.9327,28.5406
44.6295,28.4461
44.3170,28.3889
44.0000,28.3697
43.6830,28.3889
43.3705,28.4461
43.0673,28.5406
42.7776,28.6710
42.7776,28.6710
42.5058,28.8353
42.2558,29.0312
42.0312,29.2558
41.8353,29.5058
41.6710,29.7776
41.6710,29.7776
41.5406,30.0673
41.4461,30.3705
41.3889,30.6830
41.3697,31.0000
37.8005,31.0000
37.8005,25.9341
37.8005,25.9341
37.7664,25.8068
37.7664,25.8068
37.7005,25.6927
37.6073,25.5995
37.5522,25.5677
37.4932,25.5336
37.4932,25.5336
37.3659,25.4995
37.3659,25.4995
23.8659,25.4995
23.7455,25.4995
23.6932,25.4778
23.6715,25.4255
23.6932,25.3732
26.8942,22.1722
26.9465,22.1505
52.6527,22.1505
52.6527,22.1505
52.7546,22.1232
52.8459,22.0705
56.2859,18.6305
56.2859,18.6305
56.3605,18.5559
56.4132,18.4646
56.4197,18.4405
56.4203,18.4380
56.4548,18.3931
56.4700,18.3865
56.6593,18.3281
56.8876,18.2181
57.0970,18.0754
57.2597,17.9244
57.3128,17.9047
57.3603,17.9244
57.5230,18.0754
57.7324,18.2181
57.9383,18.3173
57.9632,18.3293
57.9625,18.3305
58.0003,18.3669
58.0014,18.4235
57.9848,18.4488
47.1795,29.2541
47.1268,29.3454
47.1268,29.3454
47.0995,29.4473
47.0995,40.0339
47.0778,40.0862
47.0255,40.1079
46.9732,40.0862
46.9580,40.0643
46.8290,39.7776
46.6647,39.5058
46.4688,39.2558
46.2442,39.0312
45.9942,38.8353
45.7224,38.6710
45.7224,38.6710
45.7224,38.6710
45.4327,38.5406
45.1295,38.4461
44.8170,38.3889
44.5000,38.3697
44.1830,38.3889
43.8705,38.4461
43.5673,38.5406
43.2776,38.6710
43.2776,38.6710
43.0058,38.8353
42.7558,39.0312
42.5312,39.2558
42.3353,39.5058
42.1710,39.7776
42.1710,39.7776
42.0406,40.0673
41.9461,40.3705
41.8889,40.6830
41.8697,41.0000
41.8889,41.3170
41.9461,41.6295
42.0406,41.9327
42.0406,41.9327
42.0406,41.9327
42.1710,42.2224
42.3353,42.4942
42.5312,42.7442
42.7558,42.9688
43.0058,43.1647
43.2776,43.3290
43.5673,43.4594
43.8705,43.5539
44.1830,43.6111
44.5000,43.6303
44.8170,43.6111
45.1295,43.5539
45.4327,43.4594
45.7224,43.3290
45.9942,43.1647
46.2442,42.9688
46.4688,42.7442
46.6647,42.4942
46.8290,42.2224
46.9580,41.9357
46.9993,41.8969
47.0559,41.8986
47.0947,41.9398
47.0995,41.9661
47.0995,46.8035
47.0778,46.8558
46.0989,47.8347
46.0466,47.8564
46.0010,47.8406
45.9942,47.8353
45.9942,47.8353
45.9942,47.8353
45.7224,47.6710
45.7224,47.6710
45.7224,47.6710
45.4327,47.5406
45.1295,47.4461
44.8170,47.3889
44.5000,47.3697
44.1830,47.3889
43.8705,47.4461
43.5673,47.5406
43.2776,47.6710
43.2776,47.6710
43.0058,47.8353
42.7558,48.0312
42.5312,48.2558
42.3353,48.5058
42.1710,48.7776
42.1710,48.7776
42.0406,49.0673
41.9461,49.3705
41.8889,49.6830
41.8697,50.0000
41.8889,50.3170
41.9461,50.6295
42.0406,50.9327
42.0406,50.9327
42.0406,50.9327
42.1710,51.2224
42.3353,51.4942
42.5312,51.7442
42.7558,51.9688
43.0058,52.1647
43.2776,52.3290
43.5673,52.4594
43.8705,52.5539
44.1830,52.6111
44.5000,52.6303
44.8170,52.6111
45.1295,52.5539
45.4327,52.4594
45.7224,52.3290
45.9942,52.1647
46.2442,51.9688
46.4688,51.7442
46.6647,51.4942
46.8290,51.2224
46.9594,50.9327
47.0539,50.6295
47.1111,50.3170
47.1303,50.0000
47.1111,49.6830
47.0539,49.3705
46.9594,49.0673
46.8290,48.7776
46.6647,48.5058
46.6647,48.5058
46.6647,48.5058
46.6594,48.4990
46.6442,48.4445
46.6653,48.4011
47.7459,47.3205
47.7459,47.3205
47.8205,47.2459
47.8732,47.1546
47.8752,47.1472
47.9005,47.0527
47.9005,46.9473
47.9005,46.9427
47.9005,46.9427
47.9005,29.6965
47.9222,29.6442
58.9005,18.6659
58.9532,18.5746
58.9805,18.4727
58.9805,18.4502
59.0022,18.3978
59.0327,18.3795
59.1993,18.3281
59.4276,18.2181
59.6370,18.0754
59.7997,17.9244
59.8528,17.9047
59.9003,17.9244
60.0630,18.0754
60.2724,18.2181
60.5007,18.3281
60.6673,18.3795
60.7109,18.4156
60.7195,18.4502
60.7195,18.6835
60.6978,18.7358
48.6795,30.7541
48.6268,30.8454
48.6268,30.8454
48.5995,30.9473
48.5995,54.3035
48.5778,54.3558
46.0989,56.8347
46.0466,56.8564
46.0010,56.8406
45.9942,56.8353
45.9942,56.8353
45.9942,56.8353
45.9942,56.8353
45.7224,56.6710
45.7224,56.6710
45.7224,56.6710
45.7224,56.6710
45.4327,56.5406
45.1295,56.4461
44.8170,56.3889
44.5000,56.3697
44.1830,56.3889
43.8705,56.4461
43.5673,56.5406
43.2776,56.6710
43.2776,56.6710
43.0058,56.8353
42.7558,57.0312
42.5312,57.2558
42.3353,57.5058
42.1710,57.7776
42.1710,57.7776
42.0406,58.0673
41.9461,58.3705
41.8889,58.6830
41.8697,59.0000
41.8889,59.3170
41.9461,59.6295
42.0406,59.9327
42.0406,59.9327
42.0406,59.9327
42.1710,60.2224
42.3353,60.4942
42.5312,60.7442
42.7558,60.9688
43.0058,61.1647
43.2776,61.3290
43.5673,61.4594
43.8705,61.5539
44.1830,61.6111
44.5000,61.6303
44.8170,61.6111
45.1295,61.5539
45.4327,61.4594
45.7224,61.3290
45.9942,61.1647
46.2442,60.9688
46.4688,60.7442
46.6647,60.4942
46.8290,60.2224
46.9594,59.9327
47.0539,59.6295
47.1111,59.3170
47.1303,59.0000
47.1111,58.6830
47.0539,58.3705
46.9594,58.0673
46.8290,57.7776
46.6647,57.5058
46.6594,57.4990
46.6442,57.4445
46.6653,57.4011
49.3205,54.7459
49.3732,54.6546
49.4005,54.5527
49.4005,54.4473
49.4005,47.0000
53.1197,47.0000
53.1389,47.3170
53.1961,47.6295
53.2906,47.9327
53.3905,48.1546
53.4210,48.2224
53.5853,48.4942
53.7812,48.7442
54.0058,48.9688
54.2558,49.1647
54.5276,49.3290
54.8173,49.4594
55.1205,49.5539
55.4330,49.6111
55.7500,49.6303
56.0670,49.6111
56.3795,49.5539
56.6827,49.4594
56.9724,49.3290
57.2442,49.1647
57.4942,48.9688
57.7188,48.7442
57.9147,48.4942
58.0790,48.2224
58.2094,47.9327
58.3039,47.6295
58.3611,47.3170
58.3803,47.0000
58.3611,46.6830
58.3039,46.3705
58.2094,46.0673
58.0790,45.7776
57.9147,45.5058
57.7188,45.2558
57.4942,45.0312
57.2442,44.8353
56.9724,44.6710
56.9724,44.6710
56.9724,44.6710
56.6827,44.5406
56.3795,44.4461
56.0670,44.3889
55.7500,44.3697
55.4330,44.3889
55.1205,44.4461
54.8173,44.5406
54.5276,44.6710
54.5276,44.6710
54.2558,44.8353
54.0058,45.0312
53.7812,45.2558
53.5853,45.5058
53.4210,45.7776
53.4210,45.7776
53.2906,46.0673
53.1961,46.3705
53.1389,46.6830
53.1197,47.0000
49.4005,47.0000
49.4005,38.0000
53.1197,38.0000
53.1389,38.3170
53.1961,38.6295
53.2906,38.9327
53.2906,38.9327
53.2906,38.9327
53.4210,39.2224
53.5853,39.4942
53.7812,39.7442
54.0058,39.9688
54.2558,40.1647
54.5276,40.3290
54.8173,40.4594
55.1205,40.5539
55.4330,40.6111
55.7500,40.6303
56.0670,40.6111
56.3795,40.5539
56.6827,40.4594
56.9724,40.3290
57.2442,40.1647
57.4942,39.9688
57.7188,39.7442
57.9147,39.4942
58.0790,39.2224
58.2094,38.9327
58.3039,38.6295
58.3611,38.3170
58.3803,38.0000
58.3611,37.6830
58.3039,37.3705
58.2094,37.0673
58.0790,36.7776
57.9147,36.5058
57.7188,36.2558
57.4942,36.0312
57.2442,35.8353
56.9724,35.6710
56.9724,35.6710
56.9724,35.6710
56.6827,35.5406
56.3795,35.4461
56.0670,35.3889
55.7500,35.3697
55.4330,35.3889
55.1205,35.4461
54.8173,35.5406
54.5276,35.6710
54.5276,35.6710
54.2558,35.8353
54.0058,36.0312
53.7812,36.2558
53.5853,36.5058
53.4210,36.7776
53.4210,36.7776
53.2906,37.0673
53.1961,37.3705
53.1389,37.6830
53.1197,38.0000
49.4005,38.0000
49.4005,31.1965
49.4222,31.1442
55.4000,25.1664
61.4405,19.1259
61.4932,19.0346
61.4932,19.0346
61.5205,18.9327
61.5205,18.4502
61.5422,18.3978
61.5727,18.3795
61.7393,18.3281
61.9676,18.2181
62.1770,18.0754
62.3397,17.9244
62.3928,17.9047
62.4403,17.9244
62.6030,18.0754
62.8124,18.2181
63.0407,18.3281
63.2073,18.3795
63.2509,18.4156
63.2595,18.4502
63.2595,19.1435
63.2378,19.1958
58.9295,23.5041
58.8768,23.5954
58.8768,23.5954
58.8495,23.6973
58.8495,47.8035
58.8278,47.8558
52.1795,54.5041
52.1268,54.5954
52.1268,54.5954
52.1109,54.6546
52.1109,54.6546
52.0995,54.6973
52.0995,61.1973
52.0995,61.3027
52.1065,61.3290
52.1268,61.4046
52.1268,61.4046
52.1795,61.4959
52.1795,61.4959
52.1795,61.4959
53.4786,62.7950
54.5847,63.9011
54.6064,63.9534
54.5906,63.9990
54.5885,64.0017
54.5853,64.0058
54.4210,64.2776
54.4210,64.2776
54.2906,64.5673
54.1961,64.8705
54.1389,65.1830
54.1197,65.5000
54.1389,65.8170
54.1961,66.1295
54.2906,66.4327
54.4169,66.7132
54.4210,66.7224
54.5853,66.9942
54.7812,67.2442
55.0058,67.4688
55.2558,67.6647
55.5276,67.8290
55.8173,67.9594
56.1205,68.0539
56.4330,68.1111
56.7500,68.1303
57.0670,68.1111
57.3795,68.0539
57.6827,67.9594
57.9724,67.8290
58.2442,67.6647
58.4942,67.4688
58.7188,67.2442
58.9147,66.9942
59.0790,66.7224
59.2094,66.4327
59.3039,66.1295
59.3611,65.8170
59.3803,65.5000
59.3611,65.1830
59.3039,64.8705
59.2094,64.5673
59.0790,64.2776
58.9147,64.0058
58.7188,63.7558
58.4942,63.5312
58.2442,63.3353
57.9724,63.1710
57.9724,63.1710
57.9724,63.1710
57.6827,63.0406
57.3795,62.9461
57.0670,62.8889
56.7500,62.8697
56.4330,62.8889
56.1205,62.9461
55.8173,63.0406
55.5276,63.1710
55.5276,63.1710
55.2558,63.3353
55.2558,63.3353
55.2490,63.3406
55.1945,63.3558
55.1511,63.3347
52.9222,61.1058
52.9005,61.0535
52.9005,54.9465
52.9222,54.8942
59.4959,48.3205
59.4959,48.3205
59.5705,48.2459
59.6232,48.1546
59.6301,48.1289
59.6505,48.0527
59.6505,47.9473
59.6505,47.9427
59.6505,47.9427
59.6505,23.9465
59.6722,23.8942
63.9805,19.5859
64.0332,19.4946
64.0605,19.3927
64.0605,19.2873
64.0605,18.4502
64.0822,18.3978
64.1127,18.3795
64.2793,18.3281
64.5076,18.2181
64.7170,18.0754
64.8797,17.9244
64.9328,17.9047
64.9803,17.9244
65.1430,18.0754
65.3524,18.2181
65.5807,18.3281
65.7473,18.3795
65.7909,18.4156
65.7995,18.4502
65.7995,19.6035
65.7778,19.6558
60.4295,25.0041
60.3768,25.0954
60.3768,25.0954
60.3495,25.1973
60.3495,50.8035
60.3278,50.8558
57.3489,53.8347
57.2966,53.8564
57.2510,53.8406
57.2442,53.8353
57.2442,53.8353
57.2442,53.8353
57.2442,53.8353
57.2442,53.8353
56.9724,53.6710
56.9724,53.6710
56.9724,53.6710
56.9724,53.6710
56.6827,53.5406
56.3795,53.4461
56.0670,53.3889
55.7500,53.3697
55.4330,53.3889
55.1205,53.4461
54.8173,53.5406
54.5276,53.6710
54.5276,53.6710
54.2558,53.8353
54.0058,54.0312
53.7812,54.2558
53.5853,54.5058
53.4210,54.7776
53.4210,54.7776
53.2906,55.0673
53.1961,55.3705
53.1389,55.6830
53.1197,56.0000
53.1389,56.3170
53.1961,56.6295
53.2906,56.9327
53.2906,56.9327
53.2906,56.9327
53.4210,57.2224
53.5853,57.4942
53.7812,57.7442
54.0058,57.9688
54.2558,58.1647
54.5276,58.3290
54.8173,58.4594
55.1205,58.5539
55.4330,58.6111
55.7500,58.6303
56.0670,58.6111
56.3795,58.5539
56.6827,58.4594
56.9724,58.3290
57.2442,58.1647
57.4942,57.9688
57.7188,57.7442
57.9147,57.4942
58.0790,57.2224
58.2094,56.9327
58.3039,56.6295
58.3611,56.3170
58.3803,56.0000
58.3611,55.6830
58.3039,55.3705
58.2094,55.0673
58.0790,54.7776
57.9147,54.5058
57.9094,54.4990
57.8942,54.4445
57.9153,54.4011
60.8732,51.4432
60.9255,51.4215
60.9778,51.4432
60.9995,51.4955
60.9995,65.1909
61.0336,65.3182
61.0336,65.3182
61.0995,65.4323
61.1927,65.5255
61.3068,65.5914
61.4341,65.6255
61.4341,65.6255
61.4341,65.6255
75.0659,65.6255
75.0659,65.6255
75.1932,65.5914
75.3073,65.5255
75.4005,65.4323
75.4664,65.3182
75.5005,65.1909
75.5005,65.1909
75.5005,25.8091
75.5005,25.8091
75.4664,25.6818
75.4664,25.6818
75.4005,25.5677
75.3073,25.4745
75.2058,25.4159
75.1932,25.4086
75.1932,25.4086
75.0659,25.3745
75.0659,25.3745
61.5659,25.3745
61.4341,25.3745
61.3700,25.3917
61.3138,25.3843
61.2794,25.3394
61.2868,25.2832
61.2985,25.2679
66.5205,20.0459
66.5732,19.9546
66.6005,19.8527
66.6005,19.7473
66.6005,18.4502
66.6222,18.3978
66.6527,18.3795
66.8193,18.3281
67.0476,18.2181
67.2570,18.0754
67.4197,17.9244
67.4728,17.9047
67.5203,17.9244
67.6830,18.0754
67.8924,18.2181
68.1207,18.3281
68.2314,18.3622
68.3628,18.4027
68.3628,18.4027
68.5948,18.4377
68.6133,18.4405
68.6133,18.4405
68.8667,18.4405
68.8667,18.4405
69.1172,18.4027
69.3421,18.3334
69.3985,18.3387
69.4162,18.3518
76.4278,25.3634
76.4495,25.4157
76.4495,53.0473
76.4495,53.1527
76.4768,53.2546
76.4768,53.2546
76.5295,53.3459
76.5295,53.3459
76.5295,53.3459
78.3809,55.1973
80.0847,56.9011
80.1064,56.9534
80.0906,56.9990
80.0853,57.0058
80.0853,57.0058
79.9210,57.2776
79.9210,57.2776
79.7906,57.5673
79.6961,57.8705
79.6389,58.1830
79.6197,58.5000
79.6389,58.8170
79.6961,59.1295
79.7906,59.4327
79.8700,59.6091
79.9210,59.7224
80.0853,59.9942
80.2812,60.2442
80.5058,60.4688
80.7558,60.6647
81.0276,60.8290
81.3173,60.9594
81.3173,60.9594
81.3173,60.9594
81.3476,60.9688
81.6205,61.0539
81.9330,61.1111
82.2500,61.1303
82.5670,61.1111
82.8795,61.0539
83.1827,60.9594
83.4724,60.8290
83.7442,60.6647
83.9942,60.4688
84.2188,60.2442
84.4147,59.9942
84.5790,59.7224
84.7094,59.4327
84.8039,59.1295
84.8611,58.8170
84.8803,58.5000
84.8611,58.1830
84.8039,57.8705
84.7094,57.5673
84.5790,57.2776
84.4147,57.0058
84.2188,56.7558
83.9942,56.5312
83.7442,56.3353
83.4724,56.1710
83.4724,56.1710
83.4724,56.1710
83.1827,56.0406
82.8795,55.9461
82.5670,55.8889
82.2500,55.8697
81.9330,55.8889
81.6205,55.9461
81.3173,56.0406
81.0276,56.1710
81.0276,56.1710
80.7558,56.3353
80.7558,56.3353
80.7490,56.3406
80.6945,56.3558
80.6511,56.3347
77.2722,52.9558
77.2505,52.9035
77.2505,25.1664
77.2505,25.1664
77.2232,25.0646
77.1705,24.9732
70.6759,18.4787
70.6543,18.4263
70.6759,18.3740
70.7283,18.3523
70.7501,18.3556
70.9028,18.4027
70.9028,18.4027
71.1348,18.4377
71.1533,18.4405
71.1533,18.4405
71.4067,18.4405
71.4067,18.4405
71.6572,18.4027
71.8821,18.3334
71.9385,18.3387
71.9562,18.3518
77.8278,24.2234
77.8495,24.2757
77.8495,45.9473
77.8495,46.0527
77.8534,46.0673
77.8768,46.1546
77.8768,46.1546
77.9295,46.2459
77.9295,46.2459
77.9295,46.2459
79.0102,47.3266
80.0847,48.4011
80.1064,48.4534
80.0906,48.4990
80.0853,48.5058
80.0853,48.5058
79.9210,48.7776
79.9210,48.7776
79.7906,49.0673
79.6961,49.3705
79.6389,49.6830
79.6197,50.0000
79.6389,50.3170
79.6961,50.6295
79.7906,50.9327
79.7906,50.9327
79.7906,50.9327
79.9210,51.2224
80.0853,51.4942
80.2812,51.7442
80.5058,51.9688
80.7558,52.1647
81.0276,52.3290
81.3173,52.4594
81.6205,52.5539
81.9330,52.6111
82.2500,52.6303
82.5670,52.6111
82.8795,52.5539
83.1827,52.4594
83.4724,52.3290
83.7442,52.1647
83.9942,51.9688
84.2188,51.7442
84.4147,51.4942
84.5790,51.2224
84.7094,50.9327
84.8039,50.6295
84.8611,50.3170
84.8803,50.0000
84.8611,49.6830
84.8039,49.3705
84.7094,49.0673
84.5790,48.7776
84.4147,48.5058
84.2188,48.2558
83.9942,48.0312
83.7442,47.8353
83.4724,47.6710
83.4724,47.6710
83.4724,47.6710
83.1827,47.5406
82.8795,47.4461
82.5670,47.3889
82.2500,47.3697
81.9330,47.3889
81.6205,47.4461
81.3173,47.5406
81.0276,47.6710
81.0276,47.6710
80.7558,47.8353
80.7558,47.8353
80.7490,47.8406
80.6945,47.8558
80.6511,47.8347
78.6722,45.8558
78.6505,45.8035
78.6505,41.0000
79.6197,41.0000
79.6389,41.3170
79.6961,41.6295
79.7906,41.9327
79.7906,41.9327
79.7906,41.9327
79.9210,42.2224
80.0853,42.4942
80.2812,42.7442
80.5058,42.9688
80.7558,43.1647
81.0276,43.3290
81.3173,43.4594
81.6205,43.5539
81.9330,43.6111
82.2500,43.6303
82.5670,43.6111
82.8795,43.5539
83.1827,43.4594
83.4724,43.3290
83.7442,43.1647
83.9942,42.9688
84.2188,42.7442
84.4147,42.4942
84.5790,42.2224
84.7094,41.9327
84.8039,41.6295
84.8611,41.3170
84.8803,41.0000
84.8611,40.6830
84.8039,40.3705
84.7094,40.0673
84.5790,39.7776
84.4147,39.5058
84.2188,39.2558
83.9942,39.0312
83.7442,38.8353
83.4724,38.6710
83.4724,38.6710
83.4724,38.6710
83.1827,38.5406
82.8795,38.4461
82.5670,38.3889
82.2500,38.3697
81.9330,38.3889
81.6205,38.4461
81.3173,38.5406
81.0276,38.6710
81.0276,38.6710
80.7558,38.8353
80.5058,39.0312
80.2812,39.2558
80.0853,39.5058
79.9210,39.7776
79.9210,39.7776
79.7906,40.0673
79.6961,40.3705
79.6389,40.6830
79.6197,41.0000
78.6505,41.0000
78.6505,31.0000
79.2796,31.0000
79.2991,31.3096
79.2991,31.3096
79.3572,31.6143
79.3572,31.6144
79.4531,31.9094
79.4531,31.9094
79.5852,32.1901
79.7514,32.4520
79.7514,32.4520
79.7863,32.4942
79.9492,32.6911
79.9492,32.6911
80.1637,32.8925
80.1753,32.9035
80.4263,33.0858
80.6982,33.2353
80.7806,33.2679
80.9866,33.3495
80.9866,33.3495
80.9866,33.3495
80.9866,33.3495
80.9866,33.3495
81.1275,33.3856
81.2871,33.4266
81.5949,33.4655
81.5949,33.4655
81.9051,33.4655
81.9051,33.4655
82.2129,33.4266
82.5134,33.3495
82.5134,33.3495
82.5134,33.3495
82.6325,33.3023
82.8018,33.2353
83.0737,33.0858
83.3247,32.9035
83.5508,32.6911
83.7486,32.4520
83.9148,32.1901
84.0469,31.9094
84.1428,31.6144
84.2009,31.3096
84.2204,31.0000
84.2009,30.6904
84.1545,30.4473
84.1428,30.3857
84.1428,30.3856
84.0469,30.0906
84.0469,30.0906
83.9148,29.8099
83.7486,29.5480
83.7486,29.5480
83.5508,29.3089
83.5508,29.3089
83.3247,29.0965
83.3247,29.0965
83.0737,28.9142
82.8018,28.7647
82.8018,28.7647
82.5134,28.6505
82.5134,28.6505
82.2129,28.5734
82.1103,28.5604
81.9051,28.5345
81.5949,28.5345
81.4190,28.5567
81.2871,28.5734
80.9866,28.6505
80.9866,28.6505
80.6982,28.7647
80.6982,28.7647
80.4263,28.9142
80.1753,29.0965
80.1753,29.0965
79.9492,29.3089
79.9492,29.3089
79.7514,29.5479
79.7514,29.5480
79.5852,29.8099
79.4531,30.0906
79.4531,30.0906
79.3572,30.3856
79.3572,30.3857
79.2991,30.6904
79.2991,30.6904
79.2796,31.0000
78.6505,31.0000
78.6505,24.1378
78.6505,24.1378
78.6505,24.0264
78.6505,24.0264
78.6232,23.9246
78.6232,23.9246
78.6232,23.9246
78.6117,23.9046
78.5705,23.8332
78.4959,23.7587
78.4933,23.7561
78.4933,23.7561
73.2159,18.4787
73.1943,18.4263
73.2159,18.3740
73.2683,18.3523
73.2901,18.3556
73.4428,18.4027
73.4428,18.4027
73.6748,18.4377
73.6933,18.4405
73.6933,18.4405
73.9467,18.4405
73.9467,18.4405
74.1972,18.4027
74.1972,18.4027
74.1972,18.4027
74.1972,18.4027
74.2059,18.4001
74.2623,18.4053
74.2801,18.4184
77.7821,21.9205
77.8734,21.9732
77.9753,22.0005
78.0807,22.0005
83.4035,22.0005
83.4558,22.0222
88.4028,26.9692
88.4245,27.0215
88.4245,59.7223
88.4245,59.8277
88.4518,59.9296
88.4518,59.9296
88.5045,60.0209
88.5045,60.0209
88.5045,60.0209
90.5371,62.0535
92.3567,63.8730
92.3783,63.9254
92.3626,63.9710
92.3353,64.0058
92.3353,64.0058
92.3353,64.0058
92.1710,64.2776
92.1710,64.2776
92.0406,64.5673
91.9461,64.8705
91.8889,65.1830
91.8697,65.5000
91.8889,65.8170
91.9461,66.1295
92.0406,66.4327
92.1669,66.7132
92.1710,66.7224
92.3353,66.9942
92.5312,67.2442
92.7558,67.4688
93.0058,67.6647
93.2776,67.8290
93.5673,67.9594
93.8705,68.0539
94.1830,68.1111
94.5000,68.1303
94.8170,68.1111
95.1295,68.0539
95.4327,67.9594
95.7224,67.8290
95.9942,67.6647
96.2442,67.4688
96.4688,67.2442
96.6647,66.9942
96.8290,66.7224
96.9594,66.4327
97.0539,66.1295
97.0776,66.0000
118.0450,66.0000
118.0651,66.3589
118.0651,66.3589
118.1253,66.7132
118.2248,67.0586
118.3624,67.3906
118.3624,67.3906
118.5362,67.7052
118.5362,67.7052
118.7442,67.9983
118.8502,68.1169
119.9855,66.9817
120.0296,67.0423
120.2077,67.2204
120.2683,67.2645
119.1331,68.3998
119.2517,68.5058
119.5448,68.7138
119.5448,68.7138
119.8594,68.8876
119.8594,68.8876
120.1914,69.0252
120.5368,69.1247
120.5368,69.1247
120.8911,69.1849
120.8911,69.1849
121.2500,69.2050
121.6089,69.1849
121.6089,69.1849
121.9632,69.1247
122.3086,69.0252
122.6406,68.8876
122.6406,68.8876
122.9552,68.7138
122.9552,68.7138
123.2483,68.5058
123.3669,68.3998
123.3669,68.3998
122.2317,67.2645
122.2923,67.2204
122.4704,67.0423
122.5145,66.9817
123.6498,68.1169
123.6498,68.1169
123.7558,67.9983
123.9638,67.7052
123.9638,67.7052
124.1376,67.3906
124.1376,67.3906
124.2752,67.0586
124.3747,66.7132
124.4349,66.3589
124.4349,66.3589
124.4550,66.0000
124.4349,65.6411
124.4349,65.6411
124.3747,65.2868
124.2752,64.9414
124.1376,64.6094
124.1376,64.6094
123.9638,64.2948
123.9638,64.2948
123.7558,64.0017
123.6498,63.8831
123.6498,63.8831
122.5145,65.0183
122.4704,64.9577
122.2923,64.7796
122.2317,64.7355
123.3669,63.6002
123.2483,63.4942
122.9552,63.2862
122.9552,63.2862
122.6406,63.1124
122.6406,63.1124
122.3086,62.9748
121.9632,62.8753
121.9632,62.8753
121.6089,62.8151
121.6089,62.8151
121.2500,62.7950
120.8911,62.8151
120.8911,62.8151
120.5368,62.8753
120.1914,62.9748
119.8594,63.1124
119.8594,63.1124
119.5448,63.2862
119.5448,63.2862
119.2517,63.4942
119.1331,63.6002
120.2683,64.7355
120.2077,64.7796
120.0296,64.9577
119.9855,65.0183
118.8502,63.8831
118.7442,64.0017
118.5362,64.2948
118.5362,64.2948
118.3624,64.6094
118.3624,64.6094
118.2248,64.9414
118.1253,65.2868
118.0651,65.6411
118.0651,65.6411
118.0450,66.0000
97.0776,66.0000
97.1111,65.8170
97.1303,65.5000
97.1111,65.1830
97.0539,64.8705
96.9594,64.5673
96.8290,64.2776
96.6647,64.0058
96.4688,63.7558
96.2442,63.5312
95.9942,63.3353
95.7224,63.1710
95.7224,63.1710
95.7224,63.1710
95.4327,63.0406
95.1295,62.9461
94.8170,62.8889
94.5000,62.8697
94.1830,62.8889
93.8705,62.9461
93.5673,63.0406
93.2776,63.1710
93.2776,63.1710
93.1029,63.2766
93.0870,63.2862
93.0217,63.3257
92.9657,63.3342
92.9311,63.3147
89.2472,59.6308
89.2255,59.5785
89.2255,26.7723
89.1982,26.6704
89.1982,26.6704
89.1455,26.5791
89.1455,26.5791
89.1455,26.5791
83.8459,21.2795
83.8459,21.2795
83.8459,21.2795
83.7546,21.2268
83.7546,21.2268
83.6527,21.1995
83.6527,21.1995
78.2246,21.1995
78.1722,21.1778
75.0313,18.0369
75.0096,17.9846
75.0313,17.9322
75.0333,17.9304
75.0397,17.9244
75.0928,17.9047
75.1403,17.9244
75.3030,18.0754
75.5124,18.2181
75.7407,18.3281
75.8514,18.3622
75.9828,18.4027
75.9828,18.4027
76.2148,18.4377
76.2333,18.4405
76.2514,18.4405
76.3037,18.4622
78.2848,20.4433
78.2849,20.4433
78.2874,20.4459
78.3620,20.5205
78.4533,20.5732
78.4533,20.5732
78.4533,20.5732
78.5043,20.5869
78.5552,20.6005
78.5552,20.6005
78.5552,20.6005
78.6652,20.6005
78.6652,20.6005
84.3285,20.6005
84.3808,20.6222
89.8028,26.0442
89.8245,26.0965
89.8245,52.6723
89.8245,52.7777
89.8518,52.8796
89.8518,52.8796
89.9045,52.9709
89.9045,52.9709
89.9045,52.9709
90.7683,53.8347
91.3347,54.4011
91.3564,54.4534
91.3406,54.4990
91.3353,54.5058
91.3353,54.5058
91.1710,54.7776
91.1710,54.7776
91.0406,55.0673
90.9461,55.3705
90.8889,55.6830
90.8697,56.0000
90.8889,56.3170
90.9461,56.6295
91.0406,56.9327
91.0406,56.9327
91.0406,56.9327
91.1710,57.2224
91.3353,57.4942
91.5312,57.7442
91.7558,57.9688
92.0058,58.1647
92.2776,58.3290
92.5673,58.4594
92.8705,58.5539
93.1830,58.6111
93.5000,58.6303
93.8170,58.6111
94.1295,58.5539
94.4327,58.4594
94.7224,58.3290
94.9942,58.1647
95.2442,57.9688
95.4688,57.7442
95.6647,57.4942
95.8290,57.2224
95.9594,56.9327
96.0539,56.6295
96.1111,56.3170
96.1303,56.0000
96.1111,55.6830
96.0539,55.3705
95.9594,55.0673
95.8290,54.7776
95.6647,54.5058
95.4688,54.2558
95.2442,54.0312
94.9942,53.8353
94.7224,53.6710
94.7224,53.6710
94.7224,53.6710
94.4327,53.5406
94.1295,53.4461
93.8170,53.3889
93.5000,53.3697
93.1830,53.3889
92.8705,53.4461
92.5673,53.5406
92.2776,53.6710
92.2776,53.6710
92.0058,53.8353
92.0058,53.8353
91.9990,53.8406
91.9445,53.8558
91.9011,53.8347
90.6472,52.5808
90.6255,52.5285
90.6255,47.0000
90.8697,47.0000
90.8889,47.3170
90.9461,47.6295
91.0406,47.9327
91.1405,48.1546
91.1710,48.2224
91.3353,48.4942
91.5312,48.7442
91.7558,48.9688
92.0058,49.1647
92.2776,49.3290
92.5673,49.4594
92.8705,49.5539
93.1830,49.6111
93.5000,49.6303
93.8170,49.6111
94.1295,49.5539
94.4327,49.4594
94.7224,49.3290
94.9942,49.1647
95.2442,48.9688
95.4688,48.7442
95.6647,48.4942
95.8290,48.2224
95.9594,47.9327
96.0539,47.6295
96.1111,47.3170
96.1303,47.0000
96.1111,46.6830
96.0539,46.3705
95.9594,46.0673
95.8290,45.7776
95.6647,45.5058
95.4688,45.2558
95.2442,45.0312
94.9942,44.8353
94.7224,44.6710
94.7224,44.6710
94.7224,44.6710
94.4327,44.5406
94.1295,44.4461
93.8170,44.3889
93.5000,44.3697
93.1830,44.3889
92.8705,44.4461
92.5673,44.5406
92.2776,44.6710
92.2776,44.6710
92.0058,44.8353
91.7558,45.0312
91.5312,45.2558
91.3353,45.5058
91.1710,45.7776
91.1710,45.7776
91.0406,46.0673
90.9461,46.3705
90.8889,46.6830
90.8697,47.0000
90.6255,47.0000
90.6255,38.0000
90.8697,38.0000
90.8889,38.3170
90.9461,38.6295
91.0406,38.9327
91.0406,38.9327
91.0406,38.9327
91.1710,39.2224
91.3353,39.4942
91.5312,39.7442
91.7558,39.9688
92.0058,40.1647
92.2776,40.3290
92.5673,40.4594
92.8705,40.5539
93.1830,40.6111
93.5000,40.6303
93.8170,40.6111
94.1295,40.5539
94.4327,40.4594
94.7224,40.3290
94.9942,40.1647
95.2442,39.9688
95.4688,39.7442
95.6647,39.4942
95.8290,39.2224
95.9594,38.9327
96.0539,38.6295
96.1111,38.3170
96.1303,38.0000
96.1111,37.6830
96.0539,37.3705
95.9594,37.0673
95.8290,36.7776
95.6647,36.5058
95.4688,36.2558
95.2442,36.0312
94.9942,35.8353
94.7224,35.6710
94.7224,35.6710
94.7224,35.6710
94.4327,35.5406
94.1295,35.4461
93.8170,35.3889
93.5000,35.3697
93.1830,35.3889
92.8705,35.4461
92.5673,35.5406
92.2776,35.6710
92.2776,35.6710
92.0058,35.8353
91.7558,36.0312
91.5312,36.2558
91.3353,36.5058
91.1710,36.7776
91.1710,36.7776
91.0406,37.0673
90.9461,37.3705
90.8889,37.6830
90.8697,38.0000
90.6255,38.0000
90.6255,25.8473
90.5982,25.7454
90.5982,25.7454
90.5455,25.6541
90.5455,25.6541
90.5455,25.6541
84.7709,19.8795
84.7709,19.8795
84.7709,19.8795
84.6796,19.8268
84.6796,19.8268
84.5777,19.7995
84.5777,19.7995
78.8045,19.7995
78.7521,19.7778
77.2617,18.2874
77.2401,18.2351
77.2617,18.1828
77.2724,18.1740
77.4170,18.0754
77.5797,17.9244
77.6328,17.9047
77.6803,17.9244
77.8430,18.0754
78.0524,18.2181
78.2807,18.3281
78.3914,18.3622
78.5228,18.4027
78.5228,18.4027
78.7548,18.4377
78.7733,18.4405
78.7733,18.4405
79.0267,18.4405
79.0267,18.4405
79.2772,18.4027
79.5021,18.3334
79.5585,18.3387
79.5762,18.3518
80.3449,19.1205
80.3450,19.1205
80.3450,19.1205
80.4091,19.1575
80.4363,19.1732
80.5381,19.2005
80.6436,19.2005
84.9084,19.2005
84.9607,19.2222
87.8090,22.0705
87.9003,22.1232
88.0022,22.1505
88.1076,22.1505
109.3035,22.1505
109.3558,22.1722
112.5568,25.3732
112.5785,25.4255
112.5568,25.4778
112.5045,25.4995
99.1841,25.4995
99.0568,25.5336
99.0568,25.5336
98.9427,25.5995
98.8495,25.6927
98.7836,25.8068
98.7836,25.8068
98.7495,25.9341
98.7495,65.4409
98.7836,65.5682
98.7836,65.5682
98.8413,65.6682
98.8495,65.6823
98.9427,65.7755
99.0568,65.8414
99.1841,65.8755
99.1841,65.8755
99.1841,65.8755
112.8159,65.8755
112.8159,65.8755
112.9432,65.8414
113.0573,65.7755
113.1505,65.6823
113.2164,65.5682
113.2505,65.4409
113.2505,65.4409
113.2505,26.2455
113.2722,26.1932
113.3245,26.1715
113.3768,26.1932
113.5778,26.3942
113.5995,26.4465
113.5995,43.9473
113.5995,44.0527
113.6268,44.1546
113.6268,44.1546
113.6795,44.2459
113.6795,44.2459
113.6795,44.2459
115.8041,46.3705
117.8347,48.4011
117.8564,48.4534
117.8406,48.4990
117.8353,48.5058
117.8353,48.5058
117.6710,48.7776
117.6710,48.7776
117.5406,49.0673
117.4461,49.3705
117.3889,49.6830
117.3697,50.0000
117.3889,50.3170
117.4461,50.6295
117.5406,50.9327
117.5406,50.9327
117.5406,50.9327
117.6710,51.2224
117.8353,51.4942
118.0312,51.7442
118.2558,51.9688
118.5058,52.1647
118.7776,52.3290
119.0673,52.4594
119.3705,52.5539
119.6830,52.6111
120.0000,52.6303
120.3170,52.6111
120.6295,52.5539
120.9327,52.4594
121.2224,52.3290
121.4942,52.1647
121.7442,51.9688
121.9688,51.7442
122.1647,51.4942
122.3290,51.2224
122.4594,50.9327
122.5539,50.6295
122.6111,50.3170
122.6303,50.0000
122.6111,49.6830
122.5539,49.3705
122.4594,49.0673
122.3290,48.7776
122.1647,48.5058
121.9688,48.2558
121.7442,48.0312
121.4942,47.8353
121.2224,47.6710
121.2224,47.6710
121.2224,47.6710
120.9327,47.5406
120.6295,47.4461
120.3170,47.3889
120.0000,47.3697
119.6830,47.3889
119.3705,47.4461
119.0673,47.5406
118.7776,47.6710
118.7776,47.6710
118.5058,47.8353
118.5058,47.8353
118.4990,47.8406
118.4445,47.8558
118.4011,47.8347
114.4222,43.8558
114.4005,43.8035
114.4005,41.0000
117.3697,41.0000
117.3889,41.3170
117.4461,41.6295
117.5406,41.9327
117.5406,41.9327
117.5406,41.9327
117.6710,42.2224
117.8353,42.4942
118.0312,42.7442
118.2558,42.9688
118.5058,43.1647
118.7776,43.3290
119.0673,43.4594
119.3705,43.5539
119.6830,43.6111
120.0000,43.6303
120.3170,43.6111
120.6295,43.5539
120.9327,43.4594
121.2224,43.3290
121.4942,43.1647
121.7442,42.9688
121.9688,42.7442
122.1647,42.4942
122.3290,42.2224
122.4594,41.9327
122.5539,41.6295
122.6111,41.3170
122.6303,41.0000
122.6111,40.6830
122.5539,40.3705
122.4594,40.0673
122.3290,39.7776
122.1647,39.5058
121.9688,39.2558
121.7442,39.0312
121.4942,38.8353
121.2224,38.6710
121.2224,38.6710
121.2224,38.6710
120.9327,38.5406
120.6295,38.4461
120.3170,38.3889
120.0000,38.3697
119.6830,38.3889
119.3705,38.4461
119.0673,38.5406
118.7776,38.6710
118.7776,38.6710
118.5058,38.8353
118.2558,39.0312
118.0312,39.2558
117.8353,39.5058
117.6710,39.7776
117.6710,39.7776
117.5406,40.0673
117.4461,40.3705
117.3889,40.6830
117.3697,41.0000
114.4005,41.0000
114.4005,31.0000
116.3697,31.0000
116.3889,31.3170
116.4461,31.6295
116.5406,31.9327
116.5406,31.9327
116.5406,31.9327
116.6710,32.2224
116.8353,32.4942
117.0312,32.7442
117.2558,32.9688
117.5058,33.1647
117.7776,33.3290
118.0673,33.4594
118.3705,33.5539
118.6830,33.6111
119.0000,33.6303
119.3170,33.6111
119.6295,33.5539
119.9327,33.4594
120.2224,33.3290
120.4942,33.1647
120.7442,32.9688
120.9688,32.7442
121.1647,32.4942
121.3290,32.2224
121.4594,31.9327
121.5539,31.6295
121.6111,31.3170
121.6303,31.0000
121.6111,30.6830
121.5539,30.3705
121.5066,30.2189
121.4594,30.0673
121.4594,30.0673
121.4594,30.0673
121.3290,29.7776
121.1647,29.5058
120.9688,29.2558
120.7442,29.0312
120.4942,28.8353
120.2224,28.6710
120.2224,28.6710
120.2224,28.6710
120.0295,28.5842
119.9327,28.5406
119.9327,28.5406
119.9327,28.5406
119.6295,28.4461
119.3170,28.3889
119.0000,28.3697
118.6830,28.3889
118.3705,28.4461
118.0673,28.5406
117.7776,28.6710
117.7776,28.6710
117.5058,28.8353
117.2558,29.0312
117.0312,29.2558
116.8353,29.5058
116.6710,29.7776
116.6710,29.7776
116.5406,30.0673
116.4461,30.3705
116.3889,30.6830
116.3697,31.0000
114.4005,31.0000
114.4005,26.1973
114.3732,26.0954
114.3732,26.0954
114.3205,26.0041
114.3205,26.0041
114.3205,26.0041
109.7459,21.4295
109.7459,21.4295
109.7459,21.4295
109.6546,21.3768
109.6546,21.3768
109.5877,21.3589
109.5527,21.3495
109.5527,21.3495
88.2514,21.3495
88.1991,21.3278
86.8127,19.9414
85.3508,18.4795
85.3508,18.4795
85.3508,18.4795
85.2595,18.4268
85.2595,18.4268
85.2177,18.4156
85.1576,18.3995
85.1576,18.3995
82.2352,18.3995
82.1829,18.3778
82.1612,18.3255
82.1829,18.2732
82.2031,18.2588
82.2876,18.2181
82.3679,18.1634
82.4096,18.1505
82.4973,18.1505
82.4973,18.1505
110.8035,18.1505
110.8558,18.1722
123.3278,30.6442
123.3495,30.6965
123.3495,55.0535
123.3278,55.1058
121.5989,56.8347
121.5466,56.8564
121.5010,56.8406
121.4942,56.8353
121.4942,56.8353
121.4942,56.8353
121.4942,56.8353
121.2224,56.6710
121.2224,56.6710
121.2224,56.6710
121.2224,56.6710
120.9327,56.5406
120.6295,56.4461
120.3170,56.3889
120.0000,56.3697
119.6830,56.3889
119.3705,56.4461
119.0673,56.5406
118.7776,56.6710
118.7776,56.6710
118.5058,56.8353
118.2558,57.0312
118.0312,57.2558
117.8353,57.5058
117.6710,57.7776
117.6710,57.7776
117.5406,58.0673
117.4461,58.3705
117.3889,58.6830
117.3697,59.0000
117.3889,59.3170
117.4461,59.6295
117.5406,59.9327
117.5406,59.9327
117.5406,59.9327
117.6710,60.2224
117.8353,60.4942
118.0312,60.7442
118.2558,60.9688
118.5058,61.1647
118.7776,61.3290
119.0673,61.4594
119.3705,61.5539
119.6830,61.6111
120.0000,61.6303
120.3170,61.6111
120.6295,61.5539
120.9327,61.4594
121.2224,61.3290
121.4942,61.1647
121.7442,60.9688
121.9688,60.7442
122.1647,60.4942
122.3290,60.2224
122.4594,59.9327
122.5539,59.6295
122.6111,59.3170
122.6303,59.0000
122.6111,58.6830
122.5539,58.3705
122.4594,58.0673
122.3290,57.7776
122.1647,57.5058
122.1594,57.4990
122.1442,57.4445
122.1653,57.4011
124.0705,55.4959
124.1232,55.4046
124.1505,55.3027
124.1505,55.1973
124.1505,30.4473
124.1232,30.3454
124.0705,30.2541
114.8164,21.0000
118.0450,21.0000
118.0651,21.3589
118.0651,21.3589
118.1253,21.7132
118.2248,22.0586
118.3624,22.3906
118.3624,22.3906
118.5362,22.7052
118.5362,22.7052
118.7442,22.9983
118.8502,23.1169
119.9855,21.9817
120.0296,22.0423
120.2077,22.2204
120.2683,22.2645
119.1331,23.3998
119.2517,23.5058
119.5448,23.7138
119.5448,23.7138
119.8594,23.8876
119.8594,23.8876
120.1914,24.0252
120.5368,24.1247
120.5368,24.1247
120.8911,24.1849
120.8911,24.1849
121.2500,24.2050
121.6089,24.1849
121.6089,24.1849
121.9632,24.1247
122.3086,24.0252
122.6406,23.8876
122.6406,23.8876
122.9552,23.7138
122.9552,23.7138
123.2483,23.5058
123.3669,23.3998
123.3669,23.3998
122.2317,22.2645
122.2923,22.2204
122.4704,22.0423
122.5145,21.9817
123.6498,23.1169
123.6498,23.1169
123.7558,22.9983
123.9638,22.7052
123.9638,22.7052
124.1376,22.3906
124.1376,22.3906
124.2752,22.0586
124.3747,21.7132
124.4349,21.3589
124.4349,21.3589
124.4550,21.0000
124.4349,20.6411
124.4349,20.6411
124.3747,20.2868
124.2752,19.9414
124.1376,19.6094
124.1376,19.6094
123.9638,19.2948
123.9638,19.2948
123.7558,19.0017
123.6498,18.8831
123.6498,18.8831
122.5145,20.0183
122.4704,19.9577
122.2923,19.7796
122.2317,19.7355
123.3669,18.6002
123.2483,18.4942
122.9552,18.2862
122.9552,18.2862
122.6406,18.1124
122.6406,18.1124
122.3086,17.9748
121.9632,17.8753
121.9632,17.8753
121.6089,17.8151
121.6089,17.8151
121.2500,17.7950
120.8911,17.8151
120.8911,17.8151
120.5368,17.8753
120.1914,17.9748
119.8594,18.1124
119.8594,18.1124
119.5448,18.2862
119.5448,18.2862
119.2517,18.4942
119.1331,18.6002
120.2683,19.7355
120.2077,19.7796
120.0296,19.9577
119.9855,20.0183
118.8502,18.8831
118.7442,19.0017
118.5362,19.2948
118.5362,19.2948
118.3624,19.6094
118.3624,19.6094
118.2248,19.9414
118.1253,20.2868
118.0651,20.6411
118.0651,20.6411
118.0450,21.0000
114.8164,21.0000
111.2459,17.4295
111.2459,17.4295
111.2459,17.4295
111.1546,17.3768
111.1546,17.3768
111.1546,17.3768
111.0527,17.3495
111.0527,17.3495
83.1293,17.3495
83.0770,17.3278
83.0553,17.2755
83.0596,17.2525
83.0591,17.2523
83.0599,17.2497
83.1163,17.0027
83.1352,16.7500
83.1163,16.4973
83.0599,16.2503
82.9674,16.0145
82.8407,15.7950
82.6827,15.5969
82.6151,15.5342
82.5915,15.4828
82.6112,15.4297
82.6151,15.4258
82.6827,15.3631
82.8407,15.1650
82.9674,14.9455
83.0599,14.7097
83.1163,14.4627
83.1352,14.2100
83.1163,13.9573
83.0599,13.7103
82.9674,13.4745
82.8407,13.2550
82.6827,13.0569
82.6809,13.0553
82.6411,13.0183
82.4970,12.8846
82.2876,12.7419
82.1685,12.6845
82.0593,12.6319
82.0593,12.6319
82.0593,12.6319
82.0593,12.6319
82.0593,12.6319
81.8172,12.5573
81.8172,12.5573
81.5667,12.5195
81.5667,12.5195
81.3133,12.5195
81.3133,12.5195
81.0628,12.5573
80.8207,12.6319
80.8207,12.6319
80.5924,12.7419
80.5924,12.7419
80.3830,12.8846
80.3830,12.8846
80.2203,13.0356
80.1672,13.0553
80.1197,13.0356
80.0713,12.9907
79.9570,12.8846
79.7476,12.7419
79.6285,12.6845
79.5193,12.6319
79.5193,12.6319
79.5193,12.6319
79.5193,12.6319
79.5193,12.6319
79.2772,12.5573
79.2772,12.5573
79.0267,12.5195
79.0267,12.5195
78.7733,12.5195
78.7733,12.5195
78.5228,12.5573
78.2807,12.6319
78.2807,12.6319
78.0524,12.7419
78.0524,12.7419
77.8430,12.8846
77.8430,12.8846
77.6803,13.0356
77.6272,13.0553
77.5797,13.0356
77.5313,12.9907
77.4170,12.8846
77.2076,12.7419
77.0885,12.6845
76.9793,12.6319
76.9793,12.6319
76.9793,12.6319
76.9793,12.6319
76.9793,12.6319
76.7372,12.5573
76.7372,12.5573
76.4867,12.5195
76.4867,12.5195
76.2333,12.5195
76.2333,12.5195
75.9828,12.5573
75.7407,12.6319
75.7407,12.6319
75.5124,12.7419
75.5124,12.7419
75.3030,12.8846
75.3030,12.8846
75.1403,13.0356
75.0872,13.0553
75.0397,13.0356
74.9913,12.9907
74.8770,12.8846
74.6676,12.7419
74.5485,12.6845
74.4393,12.6319
74.4393,12.6319
74.4393,12.6319
74.4393,12.6319
74.4393,12.6319
74.1972,12.5573
74.1972,12.5573
73.9467,12.5195
73.9467,12.5195
73.6933,12.5195
73.6933,12.5195
73.4428,12.5573
73.2007,12.6319
73.2007,12.6319
72.9724,12.7419
72.9724,12.7419
72.7630,12.8846
72.7630,12.8846
72.6003,13.0356
72.5472,13.0553
72.4997,13.0356
72.4513,12.9907
72.3370,12.8846
72.1276,12.7419
72.0085,12.6845
71.8993,12.6319
71.8993,12.6319
71.8993,12.6319
71.8993,12.6319
71.8993,12.6319
71.6572,12.5573
71.6572,12.5573
71.4067,12.5195
71.4067,12.5195
71.1533,12.5195
71.1533,12.5195
70.9028,12.5573
70.6607,12.6319
70.6607,12.6319
70.4324,12.7419
70.4324,12.7419
70.2230,12.8846
70.2230,12.8846
70.0603,13.0356
70.0072,13.0553
69.9597,13.0356
69.9113,12.9907
69.7970,12.8846
69.5876,12.7419
69.4685,12.6845
69.3593,12.6319
69.3593,12.6319
69.3593,12.6319
69.3593,12.6319
69.3593,12.6319
69.1172,12.5573
69.1172,12.5573
68.8667,12.5195
68.8667,12.5195
68.6133,12.5195
68.6133,12.5195
68.3628,12.5573
68.1207,12.6319
68.1207,12.6319
67.8924,12.7419
67.8924,12.7419
67.6830,12.8846
67.6830,12.8846
67.5203,13.0356
67.4672,13.0553
67.4197,13.0356
67.3713,12.9907
67.2570,12.8846
67.0476,12.7419
66.9285,12.6845
66.8193,12.6319
66.8193,12.6319
66.8193,12.6319
66.8193,12.6319
66.8193,12.6319
66.5772,12.5573
66.5772,12.5573
66.3267,12.5195
66.3267,12.5195
66.0733,12.5195
66.0733,12.5195
65.8228,12.5573
65.5807,12.6319
65.5807,12.6319
65.3524,12.7419
65.3524,12.7419
65.1430,12.8846
65.1430,12.8846
64.9803,13.0356
64.9272,13.0553
64.8797,13.0356
64.8313,12.9907
64.7170,12.8846
64.5076,12.7419
64.3885,12.6845
64.2793,12.6319
64.2793,12.6319
64.2793,12.6319
64.2793,12.6319
64.2793,12.6319
64.0372,12.5573
64.0372,12.5573
63.7867,12.5195
63.7867,12.5195
63.5333,12.5195
63.5333,12.5195
63.2828,12.5573
63.0407,12.6319
63.0407,12.6319
62.8124,12.7419
62.8124,12.7419
62.6030,12.8846
62.6030,12.8846
62.4403,13.0356
62.3872,13.0553
62.3397,13.0356
62.2913,12.9907
62.1770,12.8846
61.9676,12.7419
61.8485,12.6845
61.7393,12.6319
61.7393,12.6319
61.7393,12.6319
61.7393,12.6319
61.7393,12.6319
61.4972,12.5573
61.4972,12.5573
61.2467,12.5195
61.2467,12.5195
60.9933,12.5195
60.9933,12.5195
60.7428,12.5573
60.5007,12.6319
60.5007,12.6319
60.2724,12.7419
60.2724,12.7419
60.0630,12.8846
60.0630,12.8846
59.9003,13.0356
59.8472,13.0553
59.7997,13.0356
59.7513,12.9907
59.6370,12.8846
59.4276,12.7419
59.3085,12.6845
59.1993,12.6319
59.1993,12.6319
59.1993,12.6319
59.1993,12.6319
59.1993,12.6319
58.9572,12.5573
58.9572,12.5573
58.7067,12.5195
58.7067,12.5195
58.4533,12.5195
58.4533,12.5195
58.2028,12.5573
57.9607,12.6319
57.9607,12.6319
57.7324,12.7419
57.7324,12.7419
57.5230,12.8846
57.5230,12.8846
57.3603,13.0356
57.3072,13.0553
57.2597,13.0356
57.2113,12.9907
57.0970,12.8846
56.8876,12.7419
56.7685,12.6845
56.6593,12.6319
56.6593,12.6319
56.6593,12.6319
56.6593,12.6319
56.6593,12.6319
56.4172,12.5573
56.4172,12.5573
56.1667,12.5195
56.1667,12.5195
55.9133,12.5195
55.9133,12.5195
55.6628,12.5573
55.4207,12.6319
55.4207,12.6319
55.1924,12.7419
55.1924,12.7419
54.9830,12.8846
54.9830,12.8846
54.8203,13.0356
54.7672,13.0553
54.7197,13.0356
54.6713,12.9907
54.5570,12.8846
54.3476,12.7419
54.2285,12.6845
54.1193,12.6319
54.1193,12.6319
54.1193,12.6319
54.1193,12.6319
54.1193,12.6319
53.8772,12.5573
53.8772,12.5573
53.6267,12.5195
53.6267,12.5195
53.3733,12.5195
53.3733,12.5195
53.1228,12.5573
52.8807,12.6319
52.8807,12.6319
52.6524,12.7419
52.6524,12.7419
52.4430,12.8846
52.4430,12.8846
52.2573,13.0569
52.0993,13.2550
52.0993,13.2550
51.9726,13.4745
51.8801,13.7103
51.8801,13.7103
51.8801,13.7103
51.8237,13.9573
51.8048,14.2100
51.8237,14.4627
51.8801,14.7097
51.9726,14.9455
52.0993,15.1650
52.0993,15.1650
52.0993,15.1650
52.0993,15.1650
52.1016,15.1678
52.1173,15.2223
52.0901,15.2717
52.0522,15.3022
51.9376,15.4447
51.8564,15.6084
51.8123,15.7859
51.8095,15.8269
51.8095,15.8269
51.8095,16.5573
51.8095,17.2755
51.7878,17.3278
51.7355,17.3495
23.9473,17.3495
23.8454,17.3768
23.8454,17.3768
23.7541,17.4295
14.4295,26.7541
14.3768,26.8454
14.3768,26.8454
14.3768,26.8454
14.3495,26.9473
14.3495,52.1973
14.3495,52.3027
14.3565,52.3290
14.3768,52.4046
14.3768,52.4046
14.4295,52.4959
14.4295,52.4959
14.4295,52.4959
15.4742,53.5406
16.3347,54.4011
16.3564,54.4534
16.3406,54.4990
16.3353,54.5058
16.3353,54.5058
16.1710,54.7776
16.1710,54.7776
16.0406,55.0673
15.9461,55.3705
15.8889,55.6830
15.8697,56.0000
15.8889,56.3170
15.9461,56.6295
16.0406,56.9327
16.0406,56.9327
16.0406,56.9327
16.1710,57.2224
16.3353,57.4942
16.5312,57.7442
16.7558,57.9688
17.0058,58.1647
17.2776,58.3290
17.5673,58.4594
17.8705,58.5539
18.1830,58.6111
18.5000,58.6303
18.8170,58.6111
19.1295,58.5539
19.4327,58.4594
19.7224,58.3290
19.9942,58.1647
20.2442,57.9688
20.4688,57.7442
20.6647,57.4942
20.8290,57.2224
20.9594,56.9327
21.0539,56.6295
21.1111,56.3170
21.1303,56.0000
21.1111,55.6830
21.0539,55.3705
20.9594,55.0673
20.8290,54.7776
20.6647,54.5058
20.4688,54.2558
20.2442,54.0312
19.9942,53.8353
19.7224,53.6710
19.7224,53.6710
19.7224,53.6710
19.4327,53.5406
19.1295,53.4461
18.8170,53.3889
18.5000,53.3697
18.1830,53.3889
17.8705,53.4461
17.5673,53.5406
17.2776,53.6710
17.2776,53.6710
17.0058,53.8353
17.0058,53.8353
16.9990,53.8406
16.9445,53.8558
16.9011,53.8347
15.1722,52.1058
15.1505,52.0535
15.1505,47.0000
15.8697,47.0000
15.8889,47.3170
15.9461,47.6295
16.0406,47.9327
16.1405,48.1546
16.1710,48.2224
16.3353,48.4942
16.5312,48.7442
16.7558,48.9688
17.0058,49.1647
17.2776,49.3290
17.5673,49.4594
17.8705,49.5539
18.1830,49.6111
18.5000,49.6303
18.8170,49.6111
19.1295,49.5539
19.4327,49.4594
19.7224,49.3290
19.9942,49.1647
20.2442,48.9688
20.4688,48.7442
20.6647,48.4942
20.8290,48.2224
20.9594,47.9327
21.0539,47.6295
21.1111,47.3170
21.1303,47.0000
21.1111,46.6830
21.0539,46.3705
20.9594,46.0673
20.8290,45.7776
20.6647,45.5058
20.4688,45.2558
20.2442,45.0312
19.9942,44.8353
19.7224,44.6710
19.7224,44.6710
19.7224,44.6710
19.4327,44.5406
19.1295,44.4461
18.8170,44.3889
18.5000,44.3697
18.1830,44.3889
17.8705,44.4461
17.5673,44.5406
17.2776,44.6710
17.2776,44.6710
17.0058,44.8353
16.7558,45.0312
16.5312,45.2558
16.3353,45.5058
16.1710,45.7776
16.1710,45.7776
16.0406,46.0673
15.9461,46.3705
15.8889,46.6830
15.8697,47.0000
15.1505,47.0000
15.1505,38.0000
15.8697,38.0000
15.8889,38.3170
15.9461,38.6295
16.0406,38.9327
16.0406,38.9327
16.0406,38.9327
16.1710,39.2224
16.3353,39.4942
16.5312,39.7442
16.7558,39.9688
17.0058,40.1647
17.2776,40.3290
17.5673,40.4594
17.8705,40.5539
18.1830,40.6111
18.5000,40.6303
18.8170,40.6111
19.1295,40.5539
19.4327,40.4594
19.7224,40.3290
19.9942,40.1647
20.2442,39.9688
20.4688,39.7442
20.6647,39.4942
20.8290,39.2224
20.9594,38.9327
21.0539,38.6295
21.1111,38.3170
21.1303,38.0000
21.1111,37.6830
21.0539,37.3705
20.9594,37.0673
20.8290,36.7776
20.6647,36.5058
20.4688,36.2558
20.2442,36.0312
19.9942,35.8353
19.7224,35.6710
19.7224,35.6710
19.7224,35.6710
19.4327,35.5406
19.1295,35.4461
18.8170,35.3889
18.5000,35.3697
18.1830,35.3889
17.8705,35.4461
17.5673,35.5406
17.2776,35.6710
17.2776,35.6710
17.0058,35.8353
16.7558,36.0312
16.5312,36.2558
16.3353,36.5058
16.1710,36.7776
16.1710,36.7776
16.0406,37.0673
15.9461,37.3705
15.8889,37.6830
15.8697,38.0000
15.1505,38.0000
15.1505,27.1965
15.1722,27.1442
24.1442,18.1722
24.1965,18.1505
51.9787,18.1505
52.0310,18.1722
52.0363,18.1781
52.0522,18.1978
52.0522,18.1978
52.0522,18.1978
52.1947,18.3124
52.3584,18.3936
52.5359,18.4377
52.5769,18.4405
54.4231,18.4405
54.4641,18.4377
54.6416,18.3936
54.8053,18.3124
54.9478,18.1978
54.9810,18.1565
55.0307,18.1293
55.0804,18.1418
55.1924,18.2181
55.1924,18.2181
55.3502,18.2941
55.3880,18.3364
55.3848,18.3929
55.3705,18.4131
52.4558,21.3278
52.4035,21.3495
26.8027,21.3495
26.6973,21.3495
26.6623,21.3589
26.5954,21.3768
26.5954,21.3768
26.5041,21.4295
22.4295,25.5041
22.3768,25.5954
22.3768,25.5954
22.3536,25.6818
22.3536,25.6818
22.3495,25.6973
22.3495,62.0535
22.3278,62.1058
21.0989,63.3347
21.0466,63.3564
21.0010,63.3406
20.9942,63.3353
20.9942,63.3353
20.9942,63.3353
20.9942,63.3353
20.7224,63.1710
20.7224,63.1710
20.7224,63.1710
20.7224,63.1710
20.4327,63.0406
20.1295,62.9461
19.8170,62.8889
19.5000,62.8697
19.1830,62.8889
18.8705,62.9461
18.5673,63.0406
18.2776,63.1710
18.2776,63.1710
18.0058,63.3353
17.7558,63.5312
17.5312,63.7558
17.3353,64.0058
17.1710,64.2776
17.1710,64.2776
17.0406,64.5673
16.9461,64.8705
16.9285,64.9669
16.8977,65.0145
16.8423,65.0263
16.7948,64.9956
16.7846,64.9740
16.7752,64.9414
16.6376,64.6094
16.6376,64.6094
16.4638,64.2948
16.4638,64.2948
16.2558,64.0017
16.1498,63.8831
16.1498,63.8831
15.0145,65.0183
14.9704,64.9577
14.7923,64.7796
14.7317,64.7355
15.8669,63.6002
15.7483,63.4942
15.4552,63.2862
15.4552,63.2862
15.1406,63.1124
15.1406,63.1124
14.8086,62.9748
14.4632,62.8753
14.4632,62.8753
14.1089,62.8151
14.1089,62.8151
13.7500,62.7950
13.3911,62.8151
13.3911,62.8151
13.0368,62.8753
12.6914,62.9748
12.3594,63.1124
12.3594,63.1124
12.0448,63.2862
12.0448,63.2862
11.7517,63.4942
11.6331,63.6002
12.7683,64.7355
12.7077,64.7796
12.5296,64.9577
12.4855,65.0183
11.3502,63.8831
11.2442,64.0017
11.0362,64.2948
11.0362,64.2948
10.8624,64.6094
10.8624,64.6094
10.7248,64.9414
10.6253,65.2868
10.5651,65.6411
10.5651,65.6411
10.5450,66.0000
10.0005,66.0000
10.0005,21.0000
10.5450,21.0000
10.5651,21.3589
10.5651,21.3589
10.6253,21.7132
10.7248,22.0586
10.8624,22.3906
10.8624,22.3906
11.0362,22.7052
11.0362,22.7052
11.2442,22.9983
11.3502,23.1169
12.4855,21.9817
12.5296,22.0423
12.7077,22.2204
12.7683,22.2645
11.6331,23.3998
11.7517,23.5058
12.0448,23.7138
12.0448,23.7138
12.3594,23.8876
12.3594,23.8876
12.6914,24.0252
13.0368,24.1247
13.0368,24.1247
13.3911,24.1849
13.3911,24.1849
13.7500,24.2050
14.1089,24.1849
14.1089,24.1849
14.4632,24.1247
14.8086,24.0252
15.1406,23.8876
15.1406,23.8876
15.4552,23.7138
15.4552,23.7138
15.7483,23.5058
15.8669,23.3998
15.8669,23.3998
14.7317,22.2645
14.7923,22.2204
14.9704,22.0423
15.0145,21.9817
16.1498,23.1169
16.1498,23.1169
16.2558,22.9983
16.4638,22.7052
16.4638,22.7052
16.6376,22.3906
16.6376,22.3906
16.7752,22.0586
16.8747,21.7132
16.9349,21.3589
16.9349,21.3589
16.9550,21.0000
16.9349,20.6411
16.9349,20.6411
16.8747,20.2868
16.7752,19.9414
16.6376,19.6094
16.6376,19.6094
16.4638,19.2948
16.4638,19.2948
16.2558,19.0017
16.1498,18.8831
16.1498,18.8831
15.0145,20.0183
14.9704,19.9577
14.7923,19.7796
14.7317,19.7355
15.8669,18.6002
15.7483,18.4942
15.4552,18.2862
15.4552,18.2862
15.1406,18.1124
15.1406,18.1124
14.8086,17.9748
14.4632,17.8753
14.4632,17.8753
14.1089,17.8151
14.1089,17.8151
13.7500,17.7950
13.3911,17.8151
13.3911,17.8151
13.0368,17.8753
12.6914,17.9748
12.3594,18.1124
12.3594,18.1124
12.0448,18.2862
12.0448,18.2862
11.7517,18.4942
11.6331,18.6002
12.7683,19.7355
12.7077,19.7796
12.5296,19.9577
12.4855,20.0183
11.3502,18.8831
11.2442,19.0017
11.0362,19.2948
11.0362,19.2948
10.8624,19.6094
10.8624,19.6094
10.7248,19.9414
10.6253,20.2868
10.5651,20.6411
10.5651,20.6411
10.5450,21.0000
10.0005,21.0000
10.0005,16.8245
10.0222,16.7722
10.0745,16.7505
42.5659,16.7505
42.5659,16.7505
42.6932,16.7164
42.8073,16.6505
42.9005,16.5573
42.9664,16.4432
43.0005,16.3159
43.0005,16.3159
43.0005,3.8245
43.0222,3.7722
43.0745,3.7505
91.9255,3.7505
Z" /> 
</g>
<g style="fill:#FFFFFF; fill-opacity:1.0000; stroke:none;">
<circle cx="55.7500" cy="38.0000" r="1.2450" /> 
</g>
<g style="fill:#FFFFFF; fill-opacity:1.0000; stroke:none;">
<circle cx="44.5000" cy="50.0000" r="1.2450" /> 
</g>
<g style="fill:#FFFFFF; fill-opacity:1.0000; stroke:none;">
<circle cx="44.5000" cy="59.0000" r="1.2450" /> 
</g>
<g style="fill:#FFFFFF; fill-opacity:1.0000; stroke:none;">
<circle cx="94.5000" cy="65.5000" r="1.2450" /> 
</g>
<g style="fill:#FFFFFF; fill-opacity:1.0000; stroke:none;">
<circle cx="121.2500" cy="66.0000" r="1.6000" /> 
</g>
<g style="fill:#FFFFFF; fill-opacity:1.0000; stroke:none;">
<circle cx="120.0000" cy="50.0000" r="1.2450" /> 
</g>
<g style="fill:#FFFFFF; fill-opacity:1.0000; stroke:none;">
<circle cx="13.7500" cy="21.0000" r="1.6000" /> 
</g>
<g style="fill:#FFFFFF; fill-opacity:1.0000; stroke:none;">
<circle cx="121.2500" cy="21.0000" r="1.6000" /> 
</g>
<g style="fill:#FFFFFF; fill-opacity:1.0000; stroke:none;">
<circle cx="13.7500" cy="66.0000" r="1.6000" /> 
</g>
<g style="fill:#FFFFFF; fill-opacity:1.0000; stroke:none;">
<circle cx="55.7500" cy="56.0000" r="1.2450" /> 
</g>
<g style="fill:#FFFFFF; fill-opacity:1.0000; stroke:none;">
<circle cx="56.7500" cy="65.5000" r="1.2450" /> 
</g>
<g style="fill:#FFFFFF; fill-opacity:1.0000; stroke:none;">
<circle cx="18.5000" cy="38.0000" r="1.2450" /> 
</g>
<g style="fill:#FFFFFF; fill-opacity:1.0000; stroke:none;">
<circle cx="120.0000" cy="59.0000" r="1.2450" /> 
</g>
<g style="fill:#FFFFFF; fill-opacity:1.0000; stroke:none;">
<circle cx="93.5000" cy="38.0000" r="1.2450" /> 
</g>
<g style="fill:#FFFFFF; fill-opacity:1.0000; stroke:none;">
<circle cx="44.0000" cy="31.0000" r="1.2450" /> 
</g>
<g style="fill:#FFFFFF; fill-opacity:1.0000; stroke:none;">
<circle cx="93.5000" cy="47.0000" r="1.2450" /> 
</g>
<g style="fill:#FFFFFF; fill-opacity:1.0000; stroke:none;">
<circle cx="18.5000" cy="47.0000" r="1.2450" /> 
</g>
<g style="fill:#FFFFFF; fill-opacity:1.0000; stroke:none;">
<circle cx="18.5000" cy="56.0000" r="1.2450" /> 
</g>
<g style="fill:#FFFFFF; fill-opacity:1.0000; stroke:none;">
<circle cx="44.5000" cy="41.0000" r="1.2450" /> 
</g>
<g style="fill:#FFFFFF; fill-opacity:1.0000; stroke:none;">
<circle cx="82.2500" cy="41.0000" r="1.2450" /> 
</g>
<g style="fill:#FFFFFF; fill-opacity:1.0000; stroke:none;">
<circle cx="19.5000" cy="65.5000" r="1.2450" /> 
</g>
<g style="fill:#FFFFFF; fill-opacity:1.0000; stroke:none;">
<circle cx="119.0000" cy="31.0000" r="1.2450" /> 
</g>
<g style="fill:#FFFFFF; fill-opacity:1.0000; stroke:none;">
<circle cx="120.0000" cy="41.0000" r="1.2450" /> 
</g>
<g style="fill:#FFFFFF; fill-opacity:1.0000; stroke:none;">
<circle cx="55.7500" cy="47.0000" r="1.2450" /> 
</g>
<g style="fill:#FFFFFF; fill-opacity:1.0000; stroke:none;">
<circle cx="93.5000" cy="56.0000" r="1.2450" /> 
</g>
<g style="fill:#FFFFFF; fill-opacity:1.0000; stroke:none;">
<circle cx="81.7500" cy="31.0000" r="1.2450" /> 
</g>
<g style="fill:#FFFFFF; fill-opacity:1.0000; stroke:none;">
<circle cx="82.2500" cy="58.5000" r="1.2450" /> 
</g>
<g style="fill:#FFFFFF; fill-opacity:1.0000; stroke:none;">
<circle cx="82.2500" cy="50.0000" r="1.2450" /> 
</g>
<g style="fill:#FFFFFF; fill-opacity:1.0000; stroke:none;">
<circle cx="53.5000" cy="16.7500" r="0.5000" /> 
</g>
<g style="fill:#FFFFFF; fill-opacity:1.0000; stroke:none;">
<circle cx="56.0400" cy="16.7500" r="0.5000" /> 
</g>
<g style="fill:#FFFFFF; fill-opacity:1.0000; stroke:none;">
<circle cx="58.5800" cy="16.7500" r="0.5000" /> 
</g>
<g style="fill:#FFFFFF; fill-opacity:1.0000; stroke:none;">
<circle cx="61.1200" cy="16.7500" r="0.5000" /> 
</g>
<g style="fill:#FFFFFF; fill-opacity:1.0000; stroke:none;">
<circle cx="63.6600" cy="16.7500" r="0.5000" /> 
</g>
<g style="fill:#FFFFFF; fill-opacity:1.0000; stroke:none;">
<circle cx="66.2000" cy="16.7500" r="0.5000" /> 
</g>
<g style="fill:#FFFFFF; fill-opacity:1.0000; stroke:none;">
<circle cx="68.7400" cy="16.7500" r="0.5000" /> 
</g>
<g style="fill:#FFFFFF; fill-opacity:1.0000; stroke:none;">
<circle cx="71.2800" cy="16.7500" r="0.5000" /> 
</g>
<g style="fill:#FFFFFF; fill-opacity:1.0000; stroke:none;">
<circle cx="73.8200" cy="16.7500" r="0.5000" /> 
</g>
<g style="fill:#FFFFFF; fill-opacity:1.0000; stroke:none;">
<circle cx="76.3600" cy="16.7500" r="0.5000" /> 
</g>
<g style="fill:#FFFFFF; fill-opacity:1.0000; stroke:none;">
<circle cx="78.9000" cy="16.7500" r="0.5000" /> 
</g>
<g style="fill:#FFFFFF; fill-opacity:1.0000; stroke:none;">
<circle cx="81.4400" cy="16.7500" r="0.5000" /> 
</g>
<g style="fill:#FFFFFF; fill-opacity:1.0000; stroke:none;">
<circle cx="53.5000" cy="14.2100" r="0.5000" /> 
</g>
<g style="fill:#FFFFFF; fill-opacity:1.0000; stroke:none;">
<circle cx="56.0400" cy="14.2100" r="0.5000" /> 
</g>
<g style="fill:#FFFFFF; fill-opacity:1.0000; stroke:none;">
<circle cx="58.5800" cy="14.2100" r="0.5000" /> 
</g>
<g style="fill:#FFFFFF; fill-opacity:1.0000; stroke:none;">
<circle cx="61.1200" cy="14.2100" r="0.5000" /> 
</g>
<g style="fill:#FFFFFF; fill-opacity:1.0000; stroke:none;">
<circle cx="63.6600" cy="14.2100" r="0.5000" /> 
</g>
<g style="fill:#FFFFFF; fill-opacity:1.0000; stroke:none;">
<circle cx="66.2000" cy="14.2100" r="0.5000" /> 
</g>
<g style="fill:#FFFFFF; fill-opacity:1.0000; stroke:none;">
<circle cx="68.7400" cy="14.2100" r="0.5000" /> 
</g>
<g style="fill:#FFFFFF; fill-opacity:1.0000; stroke:none;">
<circle cx="71.2800" cy="14.2100" r="0.5000" /> 
</g>
<g style="fill:#FFFFFF; fill-opacity:1.0000; stroke:none;">
<circle cx="73.8200" cy="14.2100" r="0.5000" /> 
</g>
<g style="fill:#FFFFFF; fill-opacity:1.0000; stroke:none;">
<circle cx="76.3600" cy="14.2100" r="0.5000" /> 
</g>
<g style="fill:#FFFFFF; fill-opacity:1.0000; stroke:none;">
<circle cx="78.9000" cy="14.2100" r="0.5000" /> 
</g>
<g style="fill:#FFFFFF; fill-opacity:1.0000; stroke:none;">
<circle cx="81.4400" cy="14.2100" r="0.5000" /> 
</g> 
</svg>
