<?xml version="1.0" standalone="no"?>
 <!DOCTYPE svg PUBLIC "-//W3C//DTD SVG 1.1//EN" 
 "http://www.w3.org/Graphics/SVG/1.1/DTD/svg11.dtd"> 
<svg
  xmlns:svg="http://www.w3.org/2000/svg"
  xmlns="http://www.w3.org/2000/svg"
  xmlns:xlink="http://www.w3.org/1999/xlink"
  version="1.1"
  width="135.9916mm" height="75.9968mm" viewBox="0.0000 0.0000 135.9916 75.9968">
<title>SVG Image created as LowerPOGO-Edge_Cuts.svg date 2024/09/11 12:44:41 </title>
  <desc>Image generated by PCBNEW </desc>
<g style="fill:#000000; fill-opacity:1.0000;stroke:#000000; stroke-opacity:1.0000;
stroke-linecap:round; stroke-linejoin:round;"
 transform="translate(0 0) scale(1 1)">
</g>
<g style="fill:none; 
stroke:#D0D2CD; stroke-width:0.0500; stroke-opacity:1; 
stroke-linecap:round; stroke-linejoin:round;">
<path d="M92.5000 16.2500
L125.5000 16.2500
" />
<path style="fill:none; 
stroke:#D0D2CD; stroke-width:0.0500; stroke-opacity:1; 
stroke-linecap:round; stroke-linejoin:round;fill:none"
d="M 23.8000,26.0000
37.3000,26.0000
37.3000,65.4750
23.8000,65.4750
Z" /> 
<path d="M125.5000 70.3631
L9.5000 70.3631
" />
<path d="M42.5000 3.2500
L92.5000 3.2500
" />
<path d="M92.5000 3.2500
L92.5000 16.2500
" />
<path style="fill:none; 
stroke:#D0D2CD; stroke-width:0.0500; stroke-opacity:1; 
stroke-linecap:round; stroke-linejoin:round;fill:none"
d="M 99.2500,26.0000
112.7500,26.0000
112.7500,65.3750
99.2500,65.3750
Z" /> 
<path d="M42.5000 16.2500
L42.5000 3.2500
" />
<path d="M9.5000 16.2500
L42.5000 16.2500
" />
<path d="M125.5000 16.2500
L125.5000 70.3631
" />
<path d="M9.5000 70.3631
L9.5000 16.2500
" />
<path style="fill:none; 
stroke:#D0D2CD; stroke-width:0.0500; stroke-opacity:1; 
stroke-linecap:round; stroke-linejoin:round;fill:none"
d="M 61.5000,25.8750
75.0000,25.8750
75.0000,65.1250
61.5000,65.1250
Z" /> 
</g>
<g style="fill:none; 
stroke:#D0D2CD; stroke-width:0.0500; stroke-opacity:1; 
stroke-linecap:round; stroke-linejoin:round;">
<path d="M92.5000 16.2500
L125.5000 16.2500
" />
<path style="fill:none; 
stroke:#D0D2CD; stroke-width:0.0500; stroke-opacity:1; 
stroke-linecap:round; stroke-linejoin:round;fill:none"
d="M 23.8000,26.0000
37.3000,26.0000
37.3000,65.4750
23.8000,65.4750
Z" /> 
<path d="M125.5000 70.3631
L9.5000 70.3631
" />
<path d="M42.5000 3.2500
L92.5000 3.2500
" />
<path d="M92.5000 3.2500
L92.5000 16.2500
" />
<path style="fill:none; 
stroke:#D0D2CD; stroke-width:0.0500; stroke-opacity:1; 
stroke-linecap:round; stroke-linejoin:round;fill:none"
d="M 99.2500,26.0000
112.7500,26.0000
112.7500,65.3750
99.2500,65.3750
Z" /> 
<path d="M42.5000 16.2500
L42.5000 3.2500
" />
<path d="M9.5000 16.2500
L42.5000 16.2500
" />
<path d="M125.5000 16.2500
L125.5000 70.3631
" />
<path d="M9.5000 70.3631
L9.5000 16.2500
" />
<path style="fill:none; 
stroke:#D0D2CD; stroke-width:0.0500; stroke-opacity:1; 
stroke-linecap:round; stroke-linejoin:round;fill:none"
d="M 61.5000,25.8750
75.0000,25.8750
75.0000,65.1250
61.5000,65.1250
Z" /> 
</g> 
</svg>
