%TF.GenerationSoftware,KiCad,Pcbnew,8.0.5*%
%TF.CreationDate,2024-09-30T14:26:47-04:00*%
%TF.ProjectId,LowerPOGO,4c6f7765-7250-44f4-974f-2e6b69636164,v4*%
%TF.SameCoordinates,Original*%
%TF.FileFunction,Legend,Top*%
%TF.FilePolarity,Positive*%
%FSLAX46Y46*%
G04 Gerber Fmt 4.6, Leading zero omitted, Abs format (unit mm)*
G04 Created by KiCad (PCBNEW 8.0.5) date 2024-09-30 14:26:47*
%MOMM*%
%LPD*%
G01*
G04 APERTURE LIST*
%ADD10C,0.150000*%
%ADD11C,0.120000*%
G04 APERTURE END LIST*
D10*
X134440476Y-123304819D02*
X134440476Y-124019104D01*
X134440476Y-124019104D02*
X134392857Y-124161961D01*
X134392857Y-124161961D02*
X134297619Y-124257200D01*
X134297619Y-124257200D02*
X134154762Y-124304819D01*
X134154762Y-124304819D02*
X134059524Y-124304819D01*
X135440476Y-124304819D02*
X134869048Y-124304819D01*
X135154762Y-124304819D02*
X135154762Y-123304819D01*
X135154762Y-123304819D02*
X135059524Y-123447676D01*
X135059524Y-123447676D02*
X134964286Y-123542914D01*
X134964286Y-123542914D02*
X134869048Y-123590533D01*
X135773810Y-123304819D02*
X136392857Y-123304819D01*
X136392857Y-123304819D02*
X136059524Y-123685771D01*
X136059524Y-123685771D02*
X136202381Y-123685771D01*
X136202381Y-123685771D02*
X136297619Y-123733390D01*
X136297619Y-123733390D02*
X136345238Y-123781009D01*
X136345238Y-123781009D02*
X136392857Y-123876247D01*
X136392857Y-123876247D02*
X136392857Y-124114342D01*
X136392857Y-124114342D02*
X136345238Y-124209580D01*
X136345238Y-124209580D02*
X136297619Y-124257200D01*
X136297619Y-124257200D02*
X136202381Y-124304819D01*
X136202381Y-124304819D02*
X135916667Y-124304819D01*
X135916667Y-124304819D02*
X135821429Y-124257200D01*
X135821429Y-124257200D02*
X135773810Y-124209580D01*
X123916666Y-135304819D02*
X123916666Y-136019104D01*
X123916666Y-136019104D02*
X123869047Y-136161961D01*
X123869047Y-136161961D02*
X123773809Y-136257200D01*
X123773809Y-136257200D02*
X123630952Y-136304819D01*
X123630952Y-136304819D02*
X123535714Y-136304819D01*
X124297619Y-135304819D02*
X124916666Y-135304819D01*
X124916666Y-135304819D02*
X124583333Y-135685771D01*
X124583333Y-135685771D02*
X124726190Y-135685771D01*
X124726190Y-135685771D02*
X124821428Y-135733390D01*
X124821428Y-135733390D02*
X124869047Y-135781009D01*
X124869047Y-135781009D02*
X124916666Y-135876247D01*
X124916666Y-135876247D02*
X124916666Y-136114342D01*
X124916666Y-136114342D02*
X124869047Y-136209580D01*
X124869047Y-136209580D02*
X124821428Y-136257200D01*
X124821428Y-136257200D02*
X124726190Y-136304819D01*
X124726190Y-136304819D02*
X124440476Y-136304819D01*
X124440476Y-136304819D02*
X124345238Y-136257200D01*
X124345238Y-136257200D02*
X124297619Y-136209580D01*
X123916666Y-144304819D02*
X123916666Y-145019104D01*
X123916666Y-145019104D02*
X123869047Y-145161961D01*
X123869047Y-145161961D02*
X123773809Y-145257200D01*
X123773809Y-145257200D02*
X123630952Y-145304819D01*
X123630952Y-145304819D02*
X123535714Y-145304819D01*
X124821428Y-144638152D02*
X124821428Y-145304819D01*
X124583333Y-144257200D02*
X124345238Y-144971485D01*
X124345238Y-144971485D02*
X124964285Y-144971485D01*
X173666666Y-150804819D02*
X173666666Y-151519104D01*
X173666666Y-151519104D02*
X173619047Y-151661961D01*
X173619047Y-151661961D02*
X173523809Y-151757200D01*
X173523809Y-151757200D02*
X173380952Y-151804819D01*
X173380952Y-151804819D02*
X173285714Y-151804819D01*
X174190476Y-151804819D02*
X174380952Y-151804819D01*
X174380952Y-151804819D02*
X174476190Y-151757200D01*
X174476190Y-151757200D02*
X174523809Y-151709580D01*
X174523809Y-151709580D02*
X174619047Y-151566723D01*
X174619047Y-151566723D02*
X174666666Y-151376247D01*
X174666666Y-151376247D02*
X174666666Y-150995295D01*
X174666666Y-150995295D02*
X174619047Y-150900057D01*
X174619047Y-150900057D02*
X174571428Y-150852438D01*
X174571428Y-150852438D02*
X174476190Y-150804819D01*
X174476190Y-150804819D02*
X174285714Y-150804819D01*
X174285714Y-150804819D02*
X174190476Y-150852438D01*
X174190476Y-150852438D02*
X174142857Y-150900057D01*
X174142857Y-150900057D02*
X174095238Y-150995295D01*
X174095238Y-150995295D02*
X174095238Y-151233390D01*
X174095238Y-151233390D02*
X174142857Y-151328628D01*
X174142857Y-151328628D02*
X174190476Y-151376247D01*
X174190476Y-151376247D02*
X174285714Y-151423866D01*
X174285714Y-151423866D02*
X174476190Y-151423866D01*
X174476190Y-151423866D02*
X174571428Y-151376247D01*
X174571428Y-151376247D02*
X174619047Y-151328628D01*
X174619047Y-151328628D02*
X174666666Y-151233390D01*
X199988095Y-151154819D02*
X199988095Y-150154819D01*
X199988095Y-150631009D02*
X200559523Y-150631009D01*
X200559523Y-151154819D02*
X200559523Y-150154819D01*
X201464285Y-150488152D02*
X201464285Y-151154819D01*
X201226190Y-150107200D02*
X200988095Y-150821485D01*
X200988095Y-150821485D02*
X201607142Y-150821485D01*
X198690476Y-135304819D02*
X198690476Y-136019104D01*
X198690476Y-136019104D02*
X198642857Y-136161961D01*
X198642857Y-136161961D02*
X198547619Y-136257200D01*
X198547619Y-136257200D02*
X198404762Y-136304819D01*
X198404762Y-136304819D02*
X198309524Y-136304819D01*
X199690476Y-136304819D02*
X199119048Y-136304819D01*
X199404762Y-136304819D02*
X199404762Y-135304819D01*
X199404762Y-135304819D02*
X199309524Y-135447676D01*
X199309524Y-135447676D02*
X199214286Y-135542914D01*
X199214286Y-135542914D02*
X199119048Y-135590533D01*
X200642857Y-136304819D02*
X200071429Y-136304819D01*
X200357143Y-136304819D02*
X200357143Y-135304819D01*
X200357143Y-135304819D02*
X200261905Y-135447676D01*
X200261905Y-135447676D02*
X200166667Y-135542914D01*
X200166667Y-135542914D02*
X200071429Y-135590533D01*
X92488095Y-106154819D02*
X92488095Y-105154819D01*
X92488095Y-105631009D02*
X93059523Y-105631009D01*
X93059523Y-106154819D02*
X93059523Y-105154819D01*
X94059523Y-106154819D02*
X93488095Y-106154819D01*
X93773809Y-106154819D02*
X93773809Y-105154819D01*
X93773809Y-105154819D02*
X93678571Y-105297676D01*
X93678571Y-105297676D02*
X93583333Y-105392914D01*
X93583333Y-105392914D02*
X93488095Y-105440533D01*
X199988095Y-106154819D02*
X199988095Y-105154819D01*
X199988095Y-105631009D02*
X200559523Y-105631009D01*
X200559523Y-106154819D02*
X200559523Y-105154819D01*
X200988095Y-105250057D02*
X201035714Y-105202438D01*
X201035714Y-105202438D02*
X201130952Y-105154819D01*
X201130952Y-105154819D02*
X201369047Y-105154819D01*
X201369047Y-105154819D02*
X201464285Y-105202438D01*
X201464285Y-105202438D02*
X201511904Y-105250057D01*
X201511904Y-105250057D02*
X201559523Y-105345295D01*
X201559523Y-105345295D02*
X201559523Y-105440533D01*
X201559523Y-105440533D02*
X201511904Y-105583390D01*
X201511904Y-105583390D02*
X200940476Y-106154819D01*
X200940476Y-106154819D02*
X201559523Y-106154819D01*
X92488095Y-151154819D02*
X92488095Y-150154819D01*
X92488095Y-150631009D02*
X93059523Y-150631009D01*
X93059523Y-151154819D02*
X93059523Y-150154819D01*
X93440476Y-150154819D02*
X94059523Y-150154819D01*
X94059523Y-150154819D02*
X93726190Y-150535771D01*
X93726190Y-150535771D02*
X93869047Y-150535771D01*
X93869047Y-150535771D02*
X93964285Y-150583390D01*
X93964285Y-150583390D02*
X94011904Y-150631009D01*
X94011904Y-150631009D02*
X94059523Y-150726247D01*
X94059523Y-150726247D02*
X94059523Y-150964342D01*
X94059523Y-150964342D02*
X94011904Y-151059580D01*
X94011904Y-151059580D02*
X93964285Y-151107200D01*
X93964285Y-151107200D02*
X93869047Y-151154819D01*
X93869047Y-151154819D02*
X93583333Y-151154819D01*
X93583333Y-151154819D02*
X93488095Y-151107200D01*
X93488095Y-151107200D02*
X93440476Y-151059580D01*
X134916666Y-141304819D02*
X134916666Y-142019104D01*
X134916666Y-142019104D02*
X134869047Y-142161961D01*
X134869047Y-142161961D02*
X134773809Y-142257200D01*
X134773809Y-142257200D02*
X134630952Y-142304819D01*
X134630952Y-142304819D02*
X134535714Y-142304819D01*
X135821428Y-141304819D02*
X135630952Y-141304819D01*
X135630952Y-141304819D02*
X135535714Y-141352438D01*
X135535714Y-141352438D02*
X135488095Y-141400057D01*
X135488095Y-141400057D02*
X135392857Y-141542914D01*
X135392857Y-141542914D02*
X135345238Y-141733390D01*
X135345238Y-141733390D02*
X135345238Y-142114342D01*
X135345238Y-142114342D02*
X135392857Y-142209580D01*
X135392857Y-142209580D02*
X135440476Y-142257200D01*
X135440476Y-142257200D02*
X135535714Y-142304819D01*
X135535714Y-142304819D02*
X135726190Y-142304819D01*
X135726190Y-142304819D02*
X135821428Y-142257200D01*
X135821428Y-142257200D02*
X135869047Y-142209580D01*
X135869047Y-142209580D02*
X135916666Y-142114342D01*
X135916666Y-142114342D02*
X135916666Y-141876247D01*
X135916666Y-141876247D02*
X135869047Y-141781009D01*
X135869047Y-141781009D02*
X135821428Y-141733390D01*
X135821428Y-141733390D02*
X135726190Y-141685771D01*
X135726190Y-141685771D02*
X135535714Y-141685771D01*
X135535714Y-141685771D02*
X135440476Y-141733390D01*
X135440476Y-141733390D02*
X135392857Y-141781009D01*
X135392857Y-141781009D02*
X135345238Y-141876247D01*
X136166666Y-150804819D02*
X136166666Y-151519104D01*
X136166666Y-151519104D02*
X136119047Y-151661961D01*
X136119047Y-151661961D02*
X136023809Y-151757200D01*
X136023809Y-151757200D02*
X135880952Y-151804819D01*
X135880952Y-151804819D02*
X135785714Y-151804819D01*
X137119047Y-150804819D02*
X136642857Y-150804819D01*
X136642857Y-150804819D02*
X136595238Y-151281009D01*
X136595238Y-151281009D02*
X136642857Y-151233390D01*
X136642857Y-151233390D02*
X136738095Y-151185771D01*
X136738095Y-151185771D02*
X136976190Y-151185771D01*
X136976190Y-151185771D02*
X137071428Y-151233390D01*
X137071428Y-151233390D02*
X137119047Y-151281009D01*
X137119047Y-151281009D02*
X137166666Y-151376247D01*
X137166666Y-151376247D02*
X137166666Y-151614342D01*
X137166666Y-151614342D02*
X137119047Y-151709580D01*
X137119047Y-151709580D02*
X137071428Y-151757200D01*
X137071428Y-151757200D02*
X136976190Y-151804819D01*
X136976190Y-151804819D02*
X136738095Y-151804819D01*
X136738095Y-151804819D02*
X136642857Y-151757200D01*
X136642857Y-151757200D02*
X136595238Y-151709580D01*
X96940476Y-123304819D02*
X96940476Y-124019104D01*
X96940476Y-124019104D02*
X96892857Y-124161961D01*
X96892857Y-124161961D02*
X96797619Y-124257200D01*
X96797619Y-124257200D02*
X96654762Y-124304819D01*
X96654762Y-124304819D02*
X96559524Y-124304819D01*
X97940476Y-124304819D02*
X97369048Y-124304819D01*
X97654762Y-124304819D02*
X97654762Y-123304819D01*
X97654762Y-123304819D02*
X97559524Y-123447676D01*
X97559524Y-123447676D02*
X97464286Y-123542914D01*
X97464286Y-123542914D02*
X97369048Y-123590533D01*
X98273810Y-123304819D02*
X98940476Y-123304819D01*
X98940476Y-123304819D02*
X98511905Y-124304819D01*
X198690476Y-144304819D02*
X198690476Y-145019104D01*
X198690476Y-145019104D02*
X198642857Y-145161961D01*
X198642857Y-145161961D02*
X198547619Y-145257200D01*
X198547619Y-145257200D02*
X198404762Y-145304819D01*
X198404762Y-145304819D02*
X198309524Y-145304819D01*
X199690476Y-145304819D02*
X199119048Y-145304819D01*
X199404762Y-145304819D02*
X199404762Y-144304819D01*
X199404762Y-144304819D02*
X199309524Y-144447676D01*
X199309524Y-144447676D02*
X199214286Y-144542914D01*
X199214286Y-144542914D02*
X199119048Y-144590533D01*
X200071429Y-144400057D02*
X200119048Y-144352438D01*
X200119048Y-144352438D02*
X200214286Y-144304819D01*
X200214286Y-144304819D02*
X200452381Y-144304819D01*
X200452381Y-144304819D02*
X200547619Y-144352438D01*
X200547619Y-144352438D02*
X200595238Y-144400057D01*
X200595238Y-144400057D02*
X200642857Y-144495295D01*
X200642857Y-144495295D02*
X200642857Y-144590533D01*
X200642857Y-144590533D02*
X200595238Y-144733390D01*
X200595238Y-144733390D02*
X200023810Y-145304819D01*
X200023810Y-145304819D02*
X200642857Y-145304819D01*
X171940476Y-123304819D02*
X171940476Y-124019104D01*
X171940476Y-124019104D02*
X171892857Y-124161961D01*
X171892857Y-124161961D02*
X171797619Y-124257200D01*
X171797619Y-124257200D02*
X171654762Y-124304819D01*
X171654762Y-124304819D02*
X171559524Y-124304819D01*
X172369048Y-123400057D02*
X172416667Y-123352438D01*
X172416667Y-123352438D02*
X172511905Y-123304819D01*
X172511905Y-123304819D02*
X172750000Y-123304819D01*
X172750000Y-123304819D02*
X172845238Y-123352438D01*
X172845238Y-123352438D02*
X172892857Y-123400057D01*
X172892857Y-123400057D02*
X172940476Y-123495295D01*
X172940476Y-123495295D02*
X172940476Y-123590533D01*
X172940476Y-123590533D02*
X172892857Y-123733390D01*
X172892857Y-123733390D02*
X172321429Y-124304819D01*
X172321429Y-124304819D02*
X172940476Y-124304819D01*
X173892857Y-124304819D02*
X173321429Y-124304819D01*
X173607143Y-124304819D02*
X173607143Y-123304819D01*
X173607143Y-123304819D02*
X173511905Y-123447676D01*
X173511905Y-123447676D02*
X173416667Y-123542914D01*
X173416667Y-123542914D02*
X173321429Y-123590533D01*
X122940476Y-116304819D02*
X122940476Y-117019104D01*
X122940476Y-117019104D02*
X122892857Y-117161961D01*
X122892857Y-117161961D02*
X122797619Y-117257200D01*
X122797619Y-117257200D02*
X122654762Y-117304819D01*
X122654762Y-117304819D02*
X122559524Y-117304819D01*
X123940476Y-117304819D02*
X123369048Y-117304819D01*
X123654762Y-117304819D02*
X123654762Y-116304819D01*
X123654762Y-116304819D02*
X123559524Y-116447676D01*
X123559524Y-116447676D02*
X123464286Y-116542914D01*
X123464286Y-116542914D02*
X123369048Y-116590533D01*
X124797619Y-116304819D02*
X124607143Y-116304819D01*
X124607143Y-116304819D02*
X124511905Y-116352438D01*
X124511905Y-116352438D02*
X124464286Y-116400057D01*
X124464286Y-116400057D02*
X124369048Y-116542914D01*
X124369048Y-116542914D02*
X124321429Y-116733390D01*
X124321429Y-116733390D02*
X124321429Y-117114342D01*
X124321429Y-117114342D02*
X124369048Y-117209580D01*
X124369048Y-117209580D02*
X124416667Y-117257200D01*
X124416667Y-117257200D02*
X124511905Y-117304819D01*
X124511905Y-117304819D02*
X124702381Y-117304819D01*
X124702381Y-117304819D02*
X124797619Y-117257200D01*
X124797619Y-117257200D02*
X124845238Y-117209580D01*
X124845238Y-117209580D02*
X124892857Y-117114342D01*
X124892857Y-117114342D02*
X124892857Y-116876247D01*
X124892857Y-116876247D02*
X124845238Y-116781009D01*
X124845238Y-116781009D02*
X124797619Y-116733390D01*
X124797619Y-116733390D02*
X124702381Y-116685771D01*
X124702381Y-116685771D02*
X124511905Y-116685771D01*
X124511905Y-116685771D02*
X124416667Y-116733390D01*
X124416667Y-116733390D02*
X124369048Y-116781009D01*
X124369048Y-116781009D02*
X124321429Y-116876247D01*
X171940476Y-132304819D02*
X171940476Y-133019104D01*
X171940476Y-133019104D02*
X171892857Y-133161961D01*
X171892857Y-133161961D02*
X171797619Y-133257200D01*
X171797619Y-133257200D02*
X171654762Y-133304819D01*
X171654762Y-133304819D02*
X171559524Y-133304819D01*
X172369048Y-132400057D02*
X172416667Y-132352438D01*
X172416667Y-132352438D02*
X172511905Y-132304819D01*
X172511905Y-132304819D02*
X172750000Y-132304819D01*
X172750000Y-132304819D02*
X172845238Y-132352438D01*
X172845238Y-132352438D02*
X172892857Y-132400057D01*
X172892857Y-132400057D02*
X172940476Y-132495295D01*
X172940476Y-132495295D02*
X172940476Y-132590533D01*
X172940476Y-132590533D02*
X172892857Y-132733390D01*
X172892857Y-132733390D02*
X172321429Y-133304819D01*
X172321429Y-133304819D02*
X172940476Y-133304819D01*
X173321429Y-132400057D02*
X173369048Y-132352438D01*
X173369048Y-132352438D02*
X173464286Y-132304819D01*
X173464286Y-132304819D02*
X173702381Y-132304819D01*
X173702381Y-132304819D02*
X173797619Y-132352438D01*
X173797619Y-132352438D02*
X173845238Y-132400057D01*
X173845238Y-132400057D02*
X173892857Y-132495295D01*
X173892857Y-132495295D02*
X173892857Y-132590533D01*
X173892857Y-132590533D02*
X173845238Y-132733390D01*
X173845238Y-132733390D02*
X173273810Y-133304819D01*
X173273810Y-133304819D02*
X173892857Y-133304819D01*
X96940476Y-132304819D02*
X96940476Y-133019104D01*
X96940476Y-133019104D02*
X96892857Y-133161961D01*
X96892857Y-133161961D02*
X96797619Y-133257200D01*
X96797619Y-133257200D02*
X96654762Y-133304819D01*
X96654762Y-133304819D02*
X96559524Y-133304819D01*
X97940476Y-133304819D02*
X97369048Y-133304819D01*
X97654762Y-133304819D02*
X97654762Y-132304819D01*
X97654762Y-132304819D02*
X97559524Y-132447676D01*
X97559524Y-132447676D02*
X97464286Y-132542914D01*
X97464286Y-132542914D02*
X97369048Y-132590533D01*
X98511905Y-132733390D02*
X98416667Y-132685771D01*
X98416667Y-132685771D02*
X98369048Y-132638152D01*
X98369048Y-132638152D02*
X98321429Y-132542914D01*
X98321429Y-132542914D02*
X98321429Y-132495295D01*
X98321429Y-132495295D02*
X98369048Y-132400057D01*
X98369048Y-132400057D02*
X98416667Y-132352438D01*
X98416667Y-132352438D02*
X98511905Y-132304819D01*
X98511905Y-132304819D02*
X98702381Y-132304819D01*
X98702381Y-132304819D02*
X98797619Y-132352438D01*
X98797619Y-132352438D02*
X98845238Y-132400057D01*
X98845238Y-132400057D02*
X98892857Y-132495295D01*
X98892857Y-132495295D02*
X98892857Y-132542914D01*
X98892857Y-132542914D02*
X98845238Y-132638152D01*
X98845238Y-132638152D02*
X98797619Y-132685771D01*
X98797619Y-132685771D02*
X98702381Y-132733390D01*
X98702381Y-132733390D02*
X98511905Y-132733390D01*
X98511905Y-132733390D02*
X98416667Y-132781009D01*
X98416667Y-132781009D02*
X98369048Y-132828628D01*
X98369048Y-132828628D02*
X98321429Y-132923866D01*
X98321429Y-132923866D02*
X98321429Y-133114342D01*
X98321429Y-133114342D02*
X98369048Y-133209580D01*
X98369048Y-133209580D02*
X98416667Y-133257200D01*
X98416667Y-133257200D02*
X98511905Y-133304819D01*
X98511905Y-133304819D02*
X98702381Y-133304819D01*
X98702381Y-133304819D02*
X98797619Y-133257200D01*
X98797619Y-133257200D02*
X98845238Y-133209580D01*
X98845238Y-133209580D02*
X98892857Y-133114342D01*
X98892857Y-133114342D02*
X98892857Y-132923866D01*
X98892857Y-132923866D02*
X98845238Y-132828628D01*
X98845238Y-132828628D02*
X98797619Y-132781009D01*
X98797619Y-132781009D02*
X98702381Y-132733390D01*
X97416666Y-141304819D02*
X97416666Y-142019104D01*
X97416666Y-142019104D02*
X97369047Y-142161961D01*
X97369047Y-142161961D02*
X97273809Y-142257200D01*
X97273809Y-142257200D02*
X97130952Y-142304819D01*
X97130952Y-142304819D02*
X97035714Y-142304819D01*
X98416666Y-142304819D02*
X97845238Y-142304819D01*
X98130952Y-142304819D02*
X98130952Y-141304819D01*
X98130952Y-141304819D02*
X98035714Y-141447676D01*
X98035714Y-141447676D02*
X97940476Y-141542914D01*
X97940476Y-141542914D02*
X97845238Y-141590533D01*
X123440476Y-126304819D02*
X123440476Y-127019104D01*
X123440476Y-127019104D02*
X123392857Y-127161961D01*
X123392857Y-127161961D02*
X123297619Y-127257200D01*
X123297619Y-127257200D02*
X123154762Y-127304819D01*
X123154762Y-127304819D02*
X123059524Y-127304819D01*
X124440476Y-127304819D02*
X123869048Y-127304819D01*
X124154762Y-127304819D02*
X124154762Y-126304819D01*
X124154762Y-126304819D02*
X124059524Y-126447676D01*
X124059524Y-126447676D02*
X123964286Y-126542914D01*
X123964286Y-126542914D02*
X123869048Y-126590533D01*
X125345238Y-126304819D02*
X124869048Y-126304819D01*
X124869048Y-126304819D02*
X124821429Y-126781009D01*
X124821429Y-126781009D02*
X124869048Y-126733390D01*
X124869048Y-126733390D02*
X124964286Y-126685771D01*
X124964286Y-126685771D02*
X125202381Y-126685771D01*
X125202381Y-126685771D02*
X125297619Y-126733390D01*
X125297619Y-126733390D02*
X125345238Y-126781009D01*
X125345238Y-126781009D02*
X125392857Y-126876247D01*
X125392857Y-126876247D02*
X125392857Y-127114342D01*
X125392857Y-127114342D02*
X125345238Y-127209580D01*
X125345238Y-127209580D02*
X125297619Y-127257200D01*
X125297619Y-127257200D02*
X125202381Y-127304819D01*
X125202381Y-127304819D02*
X124964286Y-127304819D01*
X124964286Y-127304819D02*
X124869048Y-127257200D01*
X124869048Y-127257200D02*
X124821429Y-127209580D01*
X160940476Y-126304819D02*
X160940476Y-127019104D01*
X160940476Y-127019104D02*
X160892857Y-127161961D01*
X160892857Y-127161961D02*
X160797619Y-127257200D01*
X160797619Y-127257200D02*
X160654762Y-127304819D01*
X160654762Y-127304819D02*
X160559524Y-127304819D01*
X161369048Y-126400057D02*
X161416667Y-126352438D01*
X161416667Y-126352438D02*
X161511905Y-126304819D01*
X161511905Y-126304819D02*
X161750000Y-126304819D01*
X161750000Y-126304819D02*
X161845238Y-126352438D01*
X161845238Y-126352438D02*
X161892857Y-126400057D01*
X161892857Y-126400057D02*
X161940476Y-126495295D01*
X161940476Y-126495295D02*
X161940476Y-126590533D01*
X161940476Y-126590533D02*
X161892857Y-126733390D01*
X161892857Y-126733390D02*
X161321429Y-127304819D01*
X161321429Y-127304819D02*
X161940476Y-127304819D01*
X162273810Y-126304819D02*
X162892857Y-126304819D01*
X162892857Y-126304819D02*
X162559524Y-126685771D01*
X162559524Y-126685771D02*
X162702381Y-126685771D01*
X162702381Y-126685771D02*
X162797619Y-126733390D01*
X162797619Y-126733390D02*
X162845238Y-126781009D01*
X162845238Y-126781009D02*
X162892857Y-126876247D01*
X162892857Y-126876247D02*
X162892857Y-127114342D01*
X162892857Y-127114342D02*
X162845238Y-127209580D01*
X162845238Y-127209580D02*
X162797619Y-127257200D01*
X162797619Y-127257200D02*
X162702381Y-127304819D01*
X162702381Y-127304819D02*
X162416667Y-127304819D01*
X162416667Y-127304819D02*
X162321429Y-127257200D01*
X162321429Y-127257200D02*
X162273810Y-127209580D01*
X98666666Y-150804819D02*
X98666666Y-151519104D01*
X98666666Y-151519104D02*
X98619047Y-151661961D01*
X98619047Y-151661961D02*
X98523809Y-151757200D01*
X98523809Y-151757200D02*
X98380952Y-151804819D01*
X98380952Y-151804819D02*
X98285714Y-151804819D01*
X99095238Y-150900057D02*
X99142857Y-150852438D01*
X99142857Y-150852438D02*
X99238095Y-150804819D01*
X99238095Y-150804819D02*
X99476190Y-150804819D01*
X99476190Y-150804819D02*
X99571428Y-150852438D01*
X99571428Y-150852438D02*
X99619047Y-150900057D01*
X99619047Y-150900057D02*
X99666666Y-150995295D01*
X99666666Y-150995295D02*
X99666666Y-151090533D01*
X99666666Y-151090533D02*
X99619047Y-151233390D01*
X99619047Y-151233390D02*
X99047619Y-151804819D01*
X99047619Y-151804819D02*
X99666666Y-151804819D01*
X197690476Y-116304819D02*
X197690476Y-117019104D01*
X197690476Y-117019104D02*
X197642857Y-117161961D01*
X197642857Y-117161961D02*
X197547619Y-117257200D01*
X197547619Y-117257200D02*
X197404762Y-117304819D01*
X197404762Y-117304819D02*
X197309524Y-117304819D01*
X198690476Y-117304819D02*
X198119048Y-117304819D01*
X198404762Y-117304819D02*
X198404762Y-116304819D01*
X198404762Y-116304819D02*
X198309524Y-116447676D01*
X198309524Y-116447676D02*
X198214286Y-116542914D01*
X198214286Y-116542914D02*
X198119048Y-116590533D01*
X199166667Y-117304819D02*
X199357143Y-117304819D01*
X199357143Y-117304819D02*
X199452381Y-117257200D01*
X199452381Y-117257200D02*
X199500000Y-117209580D01*
X199500000Y-117209580D02*
X199595238Y-117066723D01*
X199595238Y-117066723D02*
X199642857Y-116876247D01*
X199642857Y-116876247D02*
X199642857Y-116495295D01*
X199642857Y-116495295D02*
X199595238Y-116400057D01*
X199595238Y-116400057D02*
X199547619Y-116352438D01*
X199547619Y-116352438D02*
X199452381Y-116304819D01*
X199452381Y-116304819D02*
X199261905Y-116304819D01*
X199261905Y-116304819D02*
X199166667Y-116352438D01*
X199166667Y-116352438D02*
X199119048Y-116400057D01*
X199119048Y-116400057D02*
X199071429Y-116495295D01*
X199071429Y-116495295D02*
X199071429Y-116733390D01*
X199071429Y-116733390D02*
X199119048Y-116828628D01*
X199119048Y-116828628D02*
X199166667Y-116876247D01*
X199166667Y-116876247D02*
X199261905Y-116923866D01*
X199261905Y-116923866D02*
X199452381Y-116923866D01*
X199452381Y-116923866D02*
X199547619Y-116876247D01*
X199547619Y-116876247D02*
X199595238Y-116828628D01*
X199595238Y-116828628D02*
X199642857Y-116733390D01*
X198690476Y-126304819D02*
X198690476Y-127019104D01*
X198690476Y-127019104D02*
X198642857Y-127161961D01*
X198642857Y-127161961D02*
X198547619Y-127257200D01*
X198547619Y-127257200D02*
X198404762Y-127304819D01*
X198404762Y-127304819D02*
X198309524Y-127304819D01*
X199119048Y-126400057D02*
X199166667Y-126352438D01*
X199166667Y-126352438D02*
X199261905Y-126304819D01*
X199261905Y-126304819D02*
X199500000Y-126304819D01*
X199500000Y-126304819D02*
X199595238Y-126352438D01*
X199595238Y-126352438D02*
X199642857Y-126400057D01*
X199642857Y-126400057D02*
X199690476Y-126495295D01*
X199690476Y-126495295D02*
X199690476Y-126590533D01*
X199690476Y-126590533D02*
X199642857Y-126733390D01*
X199642857Y-126733390D02*
X199071429Y-127304819D01*
X199071429Y-127304819D02*
X199690476Y-127304819D01*
X200309524Y-126304819D02*
X200404762Y-126304819D01*
X200404762Y-126304819D02*
X200500000Y-126352438D01*
X200500000Y-126352438D02*
X200547619Y-126400057D01*
X200547619Y-126400057D02*
X200595238Y-126495295D01*
X200595238Y-126495295D02*
X200642857Y-126685771D01*
X200642857Y-126685771D02*
X200642857Y-126923866D01*
X200642857Y-126923866D02*
X200595238Y-127114342D01*
X200595238Y-127114342D02*
X200547619Y-127209580D01*
X200547619Y-127209580D02*
X200500000Y-127257200D01*
X200500000Y-127257200D02*
X200404762Y-127304819D01*
X200404762Y-127304819D02*
X200309524Y-127304819D01*
X200309524Y-127304819D02*
X200214286Y-127257200D01*
X200214286Y-127257200D02*
X200166667Y-127209580D01*
X200166667Y-127209580D02*
X200119048Y-127114342D01*
X200119048Y-127114342D02*
X200071429Y-126923866D01*
X200071429Y-126923866D02*
X200071429Y-126685771D01*
X200071429Y-126685771D02*
X200119048Y-126495295D01*
X200119048Y-126495295D02*
X200166667Y-126400057D01*
X200166667Y-126400057D02*
X200214286Y-126352438D01*
X200214286Y-126352438D02*
X200309524Y-126304819D01*
X134440476Y-132304819D02*
X134440476Y-133019104D01*
X134440476Y-133019104D02*
X134392857Y-133161961D01*
X134392857Y-133161961D02*
X134297619Y-133257200D01*
X134297619Y-133257200D02*
X134154762Y-133304819D01*
X134154762Y-133304819D02*
X134059524Y-133304819D01*
X135440476Y-133304819D02*
X134869048Y-133304819D01*
X135154762Y-133304819D02*
X135154762Y-132304819D01*
X135154762Y-132304819D02*
X135059524Y-132447676D01*
X135059524Y-132447676D02*
X134964286Y-132542914D01*
X134964286Y-132542914D02*
X134869048Y-132590533D01*
X136297619Y-132638152D02*
X136297619Y-133304819D01*
X136059524Y-132257200D02*
X135821429Y-132971485D01*
X135821429Y-132971485D02*
X136440476Y-132971485D01*
X171940476Y-141304819D02*
X171940476Y-142019104D01*
X171940476Y-142019104D02*
X171892857Y-142161961D01*
X171892857Y-142161961D02*
X171797619Y-142257200D01*
X171797619Y-142257200D02*
X171654762Y-142304819D01*
X171654762Y-142304819D02*
X171559524Y-142304819D01*
X172940476Y-142304819D02*
X172369048Y-142304819D01*
X172654762Y-142304819D02*
X172654762Y-141304819D01*
X172654762Y-141304819D02*
X172559524Y-141447676D01*
X172559524Y-141447676D02*
X172464286Y-141542914D01*
X172464286Y-141542914D02*
X172369048Y-141590533D01*
X173559524Y-141304819D02*
X173654762Y-141304819D01*
X173654762Y-141304819D02*
X173750000Y-141352438D01*
X173750000Y-141352438D02*
X173797619Y-141400057D01*
X173797619Y-141400057D02*
X173845238Y-141495295D01*
X173845238Y-141495295D02*
X173892857Y-141685771D01*
X173892857Y-141685771D02*
X173892857Y-141923866D01*
X173892857Y-141923866D02*
X173845238Y-142114342D01*
X173845238Y-142114342D02*
X173797619Y-142209580D01*
X173797619Y-142209580D02*
X173750000Y-142257200D01*
X173750000Y-142257200D02*
X173654762Y-142304819D01*
X173654762Y-142304819D02*
X173559524Y-142304819D01*
X173559524Y-142304819D02*
X173464286Y-142257200D01*
X173464286Y-142257200D02*
X173416667Y-142209580D01*
X173416667Y-142209580D02*
X173369048Y-142114342D01*
X173369048Y-142114342D02*
X173321429Y-141923866D01*
X173321429Y-141923866D02*
X173321429Y-141685771D01*
X173321429Y-141685771D02*
X173369048Y-141495295D01*
X173369048Y-141495295D02*
X173416667Y-141400057D01*
X173416667Y-141400057D02*
X173464286Y-141352438D01*
X173464286Y-141352438D02*
X173559524Y-141304819D01*
X160440476Y-116304819D02*
X160440476Y-117019104D01*
X160440476Y-117019104D02*
X160392857Y-117161961D01*
X160392857Y-117161961D02*
X160297619Y-117257200D01*
X160297619Y-117257200D02*
X160154762Y-117304819D01*
X160154762Y-117304819D02*
X160059524Y-117304819D01*
X160869048Y-116400057D02*
X160916667Y-116352438D01*
X160916667Y-116352438D02*
X161011905Y-116304819D01*
X161011905Y-116304819D02*
X161250000Y-116304819D01*
X161250000Y-116304819D02*
X161345238Y-116352438D01*
X161345238Y-116352438D02*
X161392857Y-116400057D01*
X161392857Y-116400057D02*
X161440476Y-116495295D01*
X161440476Y-116495295D02*
X161440476Y-116590533D01*
X161440476Y-116590533D02*
X161392857Y-116733390D01*
X161392857Y-116733390D02*
X160821429Y-117304819D01*
X160821429Y-117304819D02*
X161440476Y-117304819D01*
X162297619Y-116638152D02*
X162297619Y-117304819D01*
X162059524Y-116257200D02*
X161821429Y-116971485D01*
X161821429Y-116971485D02*
X162440476Y-116971485D01*
X161416666Y-143804819D02*
X161416666Y-144519104D01*
X161416666Y-144519104D02*
X161369047Y-144661961D01*
X161369047Y-144661961D02*
X161273809Y-144757200D01*
X161273809Y-144757200D02*
X161130952Y-144804819D01*
X161130952Y-144804819D02*
X161035714Y-144804819D01*
X161797619Y-143804819D02*
X162464285Y-143804819D01*
X162464285Y-143804819D02*
X162035714Y-144804819D01*
X161416666Y-135304819D02*
X161416666Y-136019104D01*
X161416666Y-136019104D02*
X161369047Y-136161961D01*
X161369047Y-136161961D02*
X161273809Y-136257200D01*
X161273809Y-136257200D02*
X161130952Y-136304819D01*
X161130952Y-136304819D02*
X161035714Y-136304819D01*
X162035714Y-135733390D02*
X161940476Y-135685771D01*
X161940476Y-135685771D02*
X161892857Y-135638152D01*
X161892857Y-135638152D02*
X161845238Y-135542914D01*
X161845238Y-135542914D02*
X161845238Y-135495295D01*
X161845238Y-135495295D02*
X161892857Y-135400057D01*
X161892857Y-135400057D02*
X161940476Y-135352438D01*
X161940476Y-135352438D02*
X162035714Y-135304819D01*
X162035714Y-135304819D02*
X162226190Y-135304819D01*
X162226190Y-135304819D02*
X162321428Y-135352438D01*
X162321428Y-135352438D02*
X162369047Y-135400057D01*
X162369047Y-135400057D02*
X162416666Y-135495295D01*
X162416666Y-135495295D02*
X162416666Y-135542914D01*
X162416666Y-135542914D02*
X162369047Y-135638152D01*
X162369047Y-135638152D02*
X162321428Y-135685771D01*
X162321428Y-135685771D02*
X162226190Y-135733390D01*
X162226190Y-135733390D02*
X162035714Y-135733390D01*
X162035714Y-135733390D02*
X161940476Y-135781009D01*
X161940476Y-135781009D02*
X161892857Y-135828628D01*
X161892857Y-135828628D02*
X161845238Y-135923866D01*
X161845238Y-135923866D02*
X161845238Y-136114342D01*
X161845238Y-136114342D02*
X161892857Y-136209580D01*
X161892857Y-136209580D02*
X161940476Y-136257200D01*
X161940476Y-136257200D02*
X162035714Y-136304819D01*
X162035714Y-136304819D02*
X162226190Y-136304819D01*
X162226190Y-136304819D02*
X162321428Y-136257200D01*
X162321428Y-136257200D02*
X162369047Y-136209580D01*
X162369047Y-136209580D02*
X162416666Y-136114342D01*
X162416666Y-136114342D02*
X162416666Y-135923866D01*
X162416666Y-135923866D02*
X162369047Y-135828628D01*
X162369047Y-135828628D02*
X162321428Y-135781009D01*
X162321428Y-135781009D02*
X162226190Y-135733390D01*
D11*
%TO.C,J13*%
X136580000Y-128340000D02*
X136580000Y-128400000D01*
X133920000Y-128400000D02*
X136580000Y-128400000D01*
X133920000Y-128340000D02*
X136580000Y-128340000D01*
X133920000Y-128340000D02*
X133920000Y-128400000D01*
X133400000Y-125980000D02*
X133400000Y-124650000D01*
X133400000Y-124650000D02*
X134730000Y-124650000D01*
%TO.C,J3*%
X122400000Y-136650000D02*
X123730000Y-136650000D01*
X122400000Y-137980000D02*
X122400000Y-136650000D01*
X122920000Y-140340000D02*
X122920000Y-140400000D01*
X122920000Y-140340000D02*
X125580000Y-140340000D01*
X122920000Y-140400000D02*
X125580000Y-140400000D01*
X125580000Y-140340000D02*
X125580000Y-140400000D01*
%TO.C,J4*%
X122400000Y-145650000D02*
X123730000Y-145650000D01*
X122400000Y-146980000D02*
X122400000Y-145650000D01*
X122920000Y-149340000D02*
X122920000Y-149400000D01*
X122920000Y-149340000D02*
X125580000Y-149340000D01*
X122920000Y-149400000D02*
X125580000Y-149400000D01*
X125580000Y-149340000D02*
X125580000Y-149400000D01*
%TO.C,J9*%
X172150000Y-152150000D02*
X173480000Y-152150000D01*
X172150000Y-153480000D02*
X172150000Y-152150000D01*
X172670000Y-155840000D02*
X172670000Y-155900000D01*
X172670000Y-155840000D02*
X175330000Y-155840000D01*
X172670000Y-155900000D02*
X175330000Y-155900000D01*
X175330000Y-155840000D02*
X175330000Y-155900000D01*
%TO.C,J11*%
X197650000Y-136650000D02*
X198980000Y-136650000D01*
X197650000Y-137980000D02*
X197650000Y-136650000D01*
X198170000Y-140340000D02*
X198170000Y-140400000D01*
X198170000Y-140340000D02*
X200830000Y-140340000D01*
X198170000Y-140400000D02*
X200830000Y-140400000D01*
X200830000Y-140340000D02*
X200830000Y-140400000D01*
%TO.C,J6*%
X136580000Y-146340000D02*
X136580000Y-146400000D01*
X133920000Y-146400000D02*
X136580000Y-146400000D01*
X133920000Y-146340000D02*
X136580000Y-146340000D01*
X133920000Y-146340000D02*
X133920000Y-146400000D01*
X133400000Y-143980000D02*
X133400000Y-142650000D01*
X133400000Y-142650000D02*
X134730000Y-142650000D01*
%TO.C,J5*%
X134650000Y-152150000D02*
X135980000Y-152150000D01*
X134650000Y-153480000D02*
X134650000Y-152150000D01*
X135170000Y-155840000D02*
X135170000Y-155900000D01*
X135170000Y-155840000D02*
X137830000Y-155840000D01*
X135170000Y-155900000D02*
X137830000Y-155900000D01*
X137830000Y-155840000D02*
X137830000Y-155900000D01*
%TO.C,J17*%
X95900000Y-124650000D02*
X97230000Y-124650000D01*
X95900000Y-125980000D02*
X95900000Y-124650000D01*
X96420000Y-128340000D02*
X96420000Y-128400000D01*
X96420000Y-128340000D02*
X99080000Y-128340000D01*
X96420000Y-128400000D02*
X99080000Y-128400000D01*
X99080000Y-128340000D02*
X99080000Y-128400000D01*
%TO.C,J12*%
X197650000Y-145650000D02*
X198980000Y-145650000D01*
X197650000Y-146980000D02*
X197650000Y-145650000D01*
X198170000Y-149340000D02*
X198170000Y-149400000D01*
X198170000Y-149340000D02*
X200830000Y-149340000D01*
X198170000Y-149400000D02*
X200830000Y-149400000D01*
X200830000Y-149340000D02*
X200830000Y-149400000D01*
%TO.C,J21*%
X174080000Y-128340000D02*
X174080000Y-128400000D01*
X171420000Y-128400000D02*
X174080000Y-128400000D01*
X171420000Y-128340000D02*
X174080000Y-128340000D01*
X171420000Y-128340000D02*
X171420000Y-128400000D01*
X170900000Y-125980000D02*
X170900000Y-124650000D01*
X170900000Y-124650000D02*
X172230000Y-124650000D01*
%TO.C,J16*%
X121900000Y-117650000D02*
X123230000Y-117650000D01*
X121900000Y-118980000D02*
X121900000Y-117650000D01*
X122420000Y-121340000D02*
X122420000Y-121400000D01*
X122420000Y-121340000D02*
X125080000Y-121340000D01*
X122420000Y-121400000D02*
X125080000Y-121400000D01*
X125080000Y-121340000D02*
X125080000Y-121400000D01*
%TO.C,J22*%
X174080000Y-137340000D02*
X174080000Y-137400000D01*
X171420000Y-137400000D02*
X174080000Y-137400000D01*
X171420000Y-137340000D02*
X174080000Y-137340000D01*
X171420000Y-137340000D02*
X171420000Y-137400000D01*
X170900000Y-134980000D02*
X170900000Y-133650000D01*
X170900000Y-133650000D02*
X172230000Y-133650000D01*
%TO.C,J18*%
X95900000Y-133650000D02*
X97230000Y-133650000D01*
X95900000Y-134980000D02*
X95900000Y-133650000D01*
X96420000Y-137340000D02*
X96420000Y-137400000D01*
X96420000Y-137340000D02*
X99080000Y-137340000D01*
X96420000Y-137400000D02*
X99080000Y-137400000D01*
X99080000Y-137340000D02*
X99080000Y-137400000D01*
%TO.C,J1*%
X99080000Y-146340000D02*
X99080000Y-146400000D01*
X96420000Y-146400000D02*
X99080000Y-146400000D01*
X96420000Y-146340000D02*
X99080000Y-146340000D01*
X96420000Y-146340000D02*
X96420000Y-146400000D01*
X95900000Y-143980000D02*
X95900000Y-142650000D01*
X95900000Y-142650000D02*
X97230000Y-142650000D01*
%TO.C,J15*%
X122400000Y-127650000D02*
X123730000Y-127650000D01*
X122400000Y-128980000D02*
X122400000Y-127650000D01*
X122920000Y-131340000D02*
X122920000Y-131400000D01*
X122920000Y-131340000D02*
X125580000Y-131340000D01*
X122920000Y-131400000D02*
X125580000Y-131400000D01*
X125580000Y-131340000D02*
X125580000Y-131400000D01*
%TO.C,J23*%
X159900000Y-127650000D02*
X161230000Y-127650000D01*
X159900000Y-128980000D02*
X159900000Y-127650000D01*
X160420000Y-131340000D02*
X160420000Y-131400000D01*
X160420000Y-131340000D02*
X163080000Y-131340000D01*
X160420000Y-131400000D02*
X163080000Y-131400000D01*
X163080000Y-131340000D02*
X163080000Y-131400000D01*
%TO.C,J2*%
X97150000Y-152150000D02*
X98480000Y-152150000D01*
X97150000Y-153480000D02*
X97150000Y-152150000D01*
X97670000Y-155840000D02*
X97670000Y-155900000D01*
X97670000Y-155840000D02*
X100330000Y-155840000D01*
X97670000Y-155900000D02*
X100330000Y-155900000D01*
X100330000Y-155840000D02*
X100330000Y-155900000D01*
%TO.C,J19*%
X196650000Y-117650000D02*
X197980000Y-117650000D01*
X196650000Y-118980000D02*
X196650000Y-117650000D01*
X197170000Y-121340000D02*
X197170000Y-121400000D01*
X197170000Y-121340000D02*
X199830000Y-121340000D01*
X197170000Y-121400000D02*
X199830000Y-121400000D01*
X199830000Y-121340000D02*
X199830000Y-121400000D01*
%TO.C,J20*%
X197650000Y-127650000D02*
X198980000Y-127650000D01*
X197650000Y-128980000D02*
X197650000Y-127650000D01*
X198170000Y-131340000D02*
X198170000Y-131400000D01*
X198170000Y-131340000D02*
X200830000Y-131340000D01*
X198170000Y-131400000D02*
X200830000Y-131400000D01*
X200830000Y-131340000D02*
X200830000Y-131400000D01*
%TO.C,J14*%
X136580000Y-137340000D02*
X136580000Y-137400000D01*
X133920000Y-137400000D02*
X136580000Y-137400000D01*
X133920000Y-137340000D02*
X136580000Y-137340000D01*
X133920000Y-137340000D02*
X133920000Y-137400000D01*
X133400000Y-134980000D02*
X133400000Y-133650000D01*
X133400000Y-133650000D02*
X134730000Y-133650000D01*
%TO.C,J10*%
X174080000Y-146340000D02*
X174080000Y-146400000D01*
X171420000Y-146400000D02*
X174080000Y-146400000D01*
X171420000Y-146340000D02*
X174080000Y-146340000D01*
X171420000Y-146340000D02*
X171420000Y-146400000D01*
X170900000Y-143980000D02*
X170900000Y-142650000D01*
X170900000Y-142650000D02*
X172230000Y-142650000D01*
%TO.C,J24*%
X159400000Y-117650000D02*
X160730000Y-117650000D01*
X159400000Y-118980000D02*
X159400000Y-117650000D01*
X159920000Y-121340000D02*
X159920000Y-121400000D01*
X159920000Y-121340000D02*
X162580000Y-121340000D01*
X159920000Y-121400000D02*
X162580000Y-121400000D01*
X162580000Y-121340000D02*
X162580000Y-121400000D01*
%TO.C,J7*%
X159900000Y-145150000D02*
X161230000Y-145150000D01*
X159900000Y-146480000D02*
X159900000Y-145150000D01*
X160420000Y-148840000D02*
X160420000Y-148900000D01*
X160420000Y-148840000D02*
X163080000Y-148840000D01*
X160420000Y-148900000D02*
X163080000Y-148900000D01*
X163080000Y-148840000D02*
X163080000Y-148900000D01*
%TO.C,J8*%
X159900000Y-136650000D02*
X161230000Y-136650000D01*
X159900000Y-137980000D02*
X159900000Y-136650000D01*
X160420000Y-140340000D02*
X160420000Y-140400000D01*
X160420000Y-140340000D02*
X163080000Y-140340000D01*
X160420000Y-140400000D02*
X163080000Y-140400000D01*
X163080000Y-140340000D02*
X163080000Y-140400000D01*
%TD*%
M02*
