%TF.GenerationSoftware,KiCad,Pcbnew,8.0.5*%
%TF.CreationDate,2024-09-30T14:26:46-04:00*%
%TF.ProjectId,LowerPOGO,4c6f7765-7250-44f4-974f-2e6b69636164,v4*%
%TF.SameCoordinates,Original*%
%TF.FileFunction,Copper,L2,Bot*%
%TF.FilePolarity,Positive*%
%FSLAX46Y46*%
G04 Gerber Fmt 4.6, Leading zero omitted, Abs format (unit mm)*
G04 Created by KiCad (PCBNEW 8.0.5) date 2024-09-30 14:26:46*
%MOMM*%
%LPD*%
G01*
G04 APERTURE LIST*
%TA.AperFunction,ComponentPad*%
%ADD10C,3.250000*%
%TD*%
%TA.AperFunction,ComponentPad*%
%ADD11C,3.600000*%
%TD*%
%TA.AperFunction,ConnectorPad*%
%ADD12C,5.600000*%
%TD*%
%TA.AperFunction,ComponentPad*%
%ADD13R,1.700000X1.700000*%
%TD*%
%TA.AperFunction,ComponentPad*%
%ADD14O,1.700000X1.700000*%
%TD*%
%TA.AperFunction,Conductor*%
%ADD15C,0.400000*%
%TD*%
G04 APERTURE END LIST*
D10*
%TO.P,J13,1,Pin_1*%
%TO.N,Net-(J13-Pin_1)*%
X135250000Y-126500000D03*
%TD*%
%TO.P,J3,1,Pin_1*%
%TO.N,Net-(J25-Pin_3)*%
X124250000Y-138500000D03*
%TD*%
%TO.P,J4,1,Pin_1*%
%TO.N,Net-(J25-Pin_4)*%
X124250000Y-147500000D03*
%TD*%
%TO.P,J9,1,Pin_1*%
%TO.N,Net-(J25-Pin_9)*%
X174000000Y-154000000D03*
%TD*%
D11*
%TO.P,H4,1,1*%
%TO.N,Earth*%
X200750000Y-154500000D03*
D12*
X200750000Y-154500000D03*
%TD*%
D10*
%TO.P,J11,1,Pin_1*%
%TO.N,Net-(J11-Pin_1)*%
X199500000Y-138500000D03*
%TD*%
D11*
%TO.P,H1,1,1*%
%TO.N,Earth*%
X93250000Y-109500000D03*
D12*
X93250000Y-109500000D03*
%TD*%
D11*
%TO.P,H2,1,1*%
%TO.N,Earth*%
X200750000Y-109500000D03*
D12*
X200750000Y-109500000D03*
%TD*%
D11*
%TO.P,H3,1,1*%
%TO.N,Earth*%
X93250000Y-154500000D03*
D12*
X93250000Y-154500000D03*
%TD*%
D10*
%TO.P,J6,1,Pin_1*%
%TO.N,Net-(J25-Pin_6)*%
X135250000Y-144500000D03*
%TD*%
%TO.P,J5,1,Pin_1*%
%TO.N,Net-(J25-Pin_5)*%
X136500000Y-154000000D03*
%TD*%
%TO.P,J17,1,Pin_1*%
%TO.N,Net-(J17-Pin_1)*%
X97750000Y-126500000D03*
%TD*%
%TO.P,J12,1,Pin_1*%
%TO.N,Net-(J12-Pin_1)*%
X199500000Y-147500000D03*
%TD*%
%TO.P,J21,1,Pin_1*%
%TO.N,Net-(J21-Pin_1)*%
X172750000Y-126500000D03*
%TD*%
%TO.P,J16,1,Pin_1*%
%TO.N,Net-(J16-Pin_1)*%
X123750000Y-119500000D03*
%TD*%
%TO.P,J22,1,Pin_1*%
%TO.N,Net-(J22-Pin_1)*%
X172750000Y-135500000D03*
%TD*%
%TO.P,J18,1,Pin_1*%
%TO.N,Net-(J18-Pin_1)*%
X97750000Y-135500000D03*
%TD*%
%TO.P,J1,1,Pin_1*%
%TO.N,Net-(J1-Pin_1)*%
X97750000Y-144500000D03*
%TD*%
%TO.P,J15,1,Pin_1*%
%TO.N,Net-(J15-Pin_1)*%
X124250000Y-129500000D03*
%TD*%
%TO.P,J23,1,Pin_1*%
%TO.N,Net-(J23-Pin_1)*%
X161750000Y-129500000D03*
%TD*%
%TO.P,J2,1,Pin_1*%
%TO.N,Net-(J2-Pin_1)*%
X99000000Y-154000000D03*
%TD*%
%TO.P,J19,1,Pin_1*%
%TO.N,Net-(J19-Pin_1)*%
X198500000Y-119500000D03*
%TD*%
%TO.P,J20,1,Pin_1*%
%TO.N,Net-(J20-Pin_1)*%
X199500000Y-129500000D03*
%TD*%
%TO.P,J14,1,Pin_1*%
%TO.N,Net-(J14-Pin_1)*%
X135250000Y-135500000D03*
%TD*%
%TO.P,J10,1,Pin_1*%
%TO.N,Net-(J10-Pin_1)*%
X172750000Y-144500000D03*
%TD*%
%TO.P,J24,1,Pin_1*%
%TO.N,Net-(J24-Pin_1)*%
X161250000Y-119500000D03*
%TD*%
%TO.P,J7,1,Pin_1*%
%TO.N,Net-(J25-Pin_7)*%
X161750000Y-147000000D03*
%TD*%
%TO.P,J8,1,Pin_1*%
%TO.N,Net-(J25-Pin_8)*%
X161750000Y-138500000D03*
%TD*%
D13*
%TO.P,J25,1,Pin_1*%
%TO.N,Net-(J1-Pin_1)*%
X133000000Y-105250000D03*
D14*
%TO.P,J25,2,Pin_2*%
%TO.N,Net-(J2-Pin_1)*%
X135540000Y-105250000D03*
%TO.P,J25,3,Pin_3*%
%TO.N,Net-(J25-Pin_3)*%
X138080000Y-105250000D03*
%TO.P,J25,4,Pin_4*%
%TO.N,Net-(J25-Pin_4)*%
X140620000Y-105250000D03*
%TO.P,J25,5,Pin_5*%
%TO.N,Net-(J25-Pin_5)*%
X143160000Y-105250000D03*
%TO.P,J25,6,Pin_6*%
%TO.N,Net-(J25-Pin_6)*%
X145700000Y-105250000D03*
%TO.P,J25,7,Pin_7*%
%TO.N,Net-(J25-Pin_7)*%
X148240000Y-105250000D03*
%TO.P,J25,8,Pin_8*%
%TO.N,Net-(J25-Pin_8)*%
X150780000Y-105250000D03*
%TO.P,J25,9,Pin_9*%
%TO.N,Net-(J25-Pin_9)*%
X153320000Y-105250000D03*
%TO.P,J25,10,Pin_10*%
%TO.N,Net-(J10-Pin_1)*%
X155860000Y-105250000D03*
%TO.P,J25,11,Pin_11*%
%TO.N,Net-(J11-Pin_1)*%
X158400000Y-105250000D03*
%TO.P,J25,12,Pin_12*%
%TO.N,Net-(J12-Pin_1)*%
X160940000Y-105250000D03*
%TO.P,J25,13,Pin_13*%
%TO.N,Net-(J13-Pin_1)*%
X133000000Y-102710000D03*
%TO.P,J25,14,Pin_14*%
%TO.N,Net-(J14-Pin_1)*%
X135540000Y-102710000D03*
%TO.P,J25,15,Pin_15*%
%TO.N,Net-(J15-Pin_1)*%
X138080000Y-102710000D03*
%TO.P,J25,16,Pin_16*%
%TO.N,Net-(J16-Pin_1)*%
X140620000Y-102710000D03*
%TO.P,J25,17,Pin_17*%
%TO.N,Net-(J17-Pin_1)*%
X143160000Y-102710000D03*
%TO.P,J25,18,Pin_18*%
%TO.N,Net-(J18-Pin_1)*%
X145700000Y-102710000D03*
%TO.P,J25,19,Pin_19*%
%TO.N,Net-(J19-Pin_1)*%
X148240000Y-102710000D03*
%TO.P,J25,20,Pin_20*%
%TO.N,Net-(J20-Pin_1)*%
X150780000Y-102710000D03*
%TO.P,J25,21,Pin_21*%
%TO.N,Net-(J21-Pin_1)*%
X153320000Y-102710000D03*
%TO.P,J25,22,Pin_22*%
%TO.N,Net-(J22-Pin_1)*%
X155860000Y-102710000D03*
%TO.P,J25,23,Pin_23*%
%TO.N,Net-(J23-Pin_1)*%
X158400000Y-102710000D03*
%TO.P,J25,24,Pin_24*%
%TO.N,Net-(J24-Pin_1)*%
X160940000Y-102710000D03*
%TD*%
D15*
%TO.N,Net-(J12-Pin_1)*%
X203250000Y-143750000D02*
X199500000Y-147500000D01*
X203250000Y-117750000D02*
X203250000Y-143750000D01*
X161940000Y-106250000D02*
X191750000Y-106250000D01*
X160940000Y-105250000D02*
X161940000Y-106250000D01*
X191750000Y-106250000D02*
X203250000Y-117750000D01*
%TO.N,Net-(J1-Pin_1)*%
X92750000Y-139250000D02*
X98000000Y-144500000D01*
X92750000Y-116000000D02*
X92750000Y-139250000D01*
X102500000Y-106250000D02*
X92750000Y-116000000D01*
X132000000Y-106250000D02*
X102500000Y-106250000D01*
X133000000Y-105250000D02*
X132000000Y-106250000D01*
%TO.N,Net-(J2-Pin_1)*%
X135540000Y-106210000D02*
X135540000Y-105250000D01*
X118250000Y-152500000D02*
X118250000Y-117500000D01*
X118250000Y-117500000D02*
X125500000Y-110250000D01*
X131500000Y-110250000D02*
X135540000Y-106210000D01*
X115125000Y-155625000D02*
X118250000Y-152500000D01*
X125500000Y-110250000D02*
X131500000Y-110250000D01*
X100625000Y-155625000D02*
X115125000Y-155625000D01*
X99000000Y-154000000D02*
X100625000Y-155625000D01*
%TO.N,Net-(J25-Pin_6)*%
X131750000Y-119500000D02*
X145700000Y-105550000D01*
X145700000Y-105550000D02*
X145700000Y-105250000D01*
X131750000Y-141000000D02*
X131750000Y-119500000D01*
X135250000Y-144500000D02*
X131750000Y-141000000D01*
%TO.N,Net-(J25-Pin_5)*%
X130000000Y-118750000D02*
X130000000Y-147750000D01*
X130000000Y-147750000D02*
X136250000Y-154000000D01*
X143160000Y-105250000D02*
X143160000Y-105590000D01*
X143160000Y-105590000D02*
X130000000Y-118750000D01*
%TO.N,Net-(J25-Pin_4)*%
X128500000Y-143000000D02*
X124000000Y-147500000D01*
X128500000Y-117750000D02*
X128500000Y-143000000D01*
X140620000Y-105630000D02*
X128500000Y-117750000D01*
X140620000Y-105250000D02*
X140620000Y-105630000D01*
%TO.N,Net-(J25-Pin_3)*%
X127000000Y-135500000D02*
X124000000Y-138500000D01*
X138080000Y-105670000D02*
X127000000Y-116750000D01*
X138080000Y-105250000D02*
X138080000Y-105670000D01*
X127000000Y-116750000D02*
X127000000Y-135500000D01*
%TO.N,Net-(J25-Pin_9)*%
X157528020Y-110100000D02*
X163100000Y-110100000D01*
X163100000Y-110100000D02*
X168325000Y-115325000D01*
X174000000Y-153950000D02*
X174000000Y-154000000D01*
X153320000Y-105250000D02*
X153320000Y-105891980D01*
X153320000Y-105891980D02*
X157528020Y-110100000D01*
X168325000Y-148275000D02*
X174000000Y-153950000D01*
X168325000Y-115325000D02*
X168325000Y-148275000D01*
%TO.N,Net-(J25-Pin_7)*%
X156350000Y-141600000D02*
X161750000Y-147000000D01*
X156350000Y-113719138D02*
X156350000Y-141600000D01*
X148240000Y-105609138D02*
X156350000Y-113719138D01*
X148240000Y-105250000D02*
X148240000Y-105609138D01*
%TO.N,Net-(J25-Pin_8)*%
X150780000Y-105609138D02*
X157750000Y-112579138D01*
X150780000Y-105250000D02*
X150780000Y-105609138D01*
X157750000Y-134500000D02*
X161750000Y-138500000D01*
X157750000Y-112579138D02*
X157750000Y-134500000D01*
%TO.N,Net-(J10-Pin_1)*%
X169725000Y-141225000D02*
X173000000Y-144500000D01*
X155860000Y-106452081D02*
X158107919Y-108700000D01*
X155860000Y-105250000D02*
X155860000Y-106452081D01*
X169725000Y-114400000D02*
X169725000Y-141225000D01*
X164025000Y-108700000D02*
X169725000Y-114400000D01*
X158107919Y-108700000D02*
X164025000Y-108700000D01*
%TO.N,Net-(J11-Pin_1)*%
X164604899Y-107300000D02*
X167554899Y-110250000D01*
X158400000Y-105609138D02*
X160090862Y-107300000D01*
X158400000Y-105250000D02*
X158400000Y-105609138D01*
X189750000Y-110250000D02*
X193500000Y-114000000D01*
X167554899Y-110250000D02*
X189750000Y-110250000D01*
X160090862Y-107300000D02*
X164604899Y-107300000D01*
X193500000Y-132500000D02*
X199500000Y-138500000D01*
X193500000Y-114000000D02*
X193500000Y-132500000D01*
%TD*%
%TA.AperFunction,Conductor*%
%TO.N,Earth*%
G36*
X171477826Y-92272174D02*
G01*
X171499500Y-92324500D01*
X171499500Y-104815894D01*
X171533606Y-104943181D01*
X171533607Y-104943184D01*
X171533608Y-104943186D01*
X171599500Y-105057314D01*
X171692686Y-105150500D01*
X171806814Y-105216392D01*
X171934105Y-105250499D01*
X171934106Y-105250500D01*
X171934108Y-105250500D01*
X172065892Y-105250500D01*
X204425500Y-105250500D01*
X204477826Y-105272174D01*
X204499500Y-105324500D01*
X204499500Y-158288594D01*
X204477826Y-158340920D01*
X204425500Y-158362594D01*
X89574500Y-158362594D01*
X89522174Y-158340920D01*
X89500500Y-158288594D01*
X89500500Y-154500000D01*
X90044958Y-154500000D01*
X90065111Y-154858853D01*
X90065113Y-154858865D01*
X90125313Y-155213184D01*
X90224815Y-155558560D01*
X90362352Y-155890607D01*
X90362363Y-155890628D01*
X90536206Y-156205173D01*
X90536210Y-156205180D01*
X90744199Y-156498313D01*
X90850213Y-156616942D01*
X91985502Y-155481652D01*
X92029588Y-155542330D01*
X92207670Y-155720412D01*
X92268346Y-155764495D01*
X91133055Y-156899786D01*
X91251681Y-157005796D01*
X91544819Y-157213789D01*
X91544826Y-157213793D01*
X91859371Y-157387636D01*
X91859392Y-157387647D01*
X92191439Y-157525184D01*
X92536816Y-157624686D01*
X92536814Y-157624686D01*
X92891134Y-157684886D01*
X92891146Y-157684888D01*
X93250000Y-157705041D01*
X93608853Y-157684888D01*
X93608865Y-157684886D01*
X93963184Y-157624686D01*
X94308560Y-157525184D01*
X94640607Y-157387647D01*
X94640628Y-157387636D01*
X94955173Y-157213793D01*
X94955180Y-157213789D01*
X95248318Y-157005796D01*
X95366942Y-156899786D01*
X95366943Y-156899786D01*
X94231653Y-155764496D01*
X94292330Y-155720412D01*
X94470412Y-155542330D01*
X94514496Y-155481653D01*
X95649786Y-156616943D01*
X95649786Y-156616942D01*
X95755796Y-156498318D01*
X95963789Y-156205180D01*
X95963793Y-156205173D01*
X96137636Y-155890628D01*
X96137647Y-155890607D01*
X96275184Y-155558560D01*
X96374684Y-155213192D01*
X96414051Y-154981486D01*
X96444184Y-154933530D01*
X96499401Y-154920926D01*
X96547357Y-154951059D01*
X96554485Y-154963508D01*
X96670986Y-155222361D01*
X96835306Y-155494180D01*
X97031193Y-155744211D01*
X97255789Y-155968807D01*
X97505820Y-156164694D01*
X97777639Y-156329014D01*
X98067283Y-156459372D01*
X98370528Y-156553867D01*
X98682952Y-156611121D01*
X99000000Y-156630299D01*
X99317048Y-156611121D01*
X99629472Y-156553867D01*
X99932717Y-156459372D01*
X100222361Y-156329014D01*
X100494180Y-156164694D01*
X100651747Y-156041247D01*
X100697384Y-156025500D01*
X115177726Y-156025500D01*
X115177727Y-156025500D01*
X115279588Y-155998207D01*
X115370913Y-155945480D01*
X118570480Y-152745913D01*
X118623206Y-152654588D01*
X118623207Y-152654587D01*
X118650500Y-152552727D01*
X118650500Y-119500000D01*
X121119701Y-119500000D01*
X121138878Y-119817046D01*
X121196134Y-120129477D01*
X121290625Y-120432710D01*
X121290627Y-120432715D01*
X121290628Y-120432717D01*
X121420986Y-120722361D01*
X121585306Y-120994180D01*
X121781193Y-121244211D01*
X122005789Y-121468807D01*
X122255820Y-121664694D01*
X122527639Y-121829014D01*
X122817283Y-121959372D01*
X123120528Y-122053867D01*
X123432952Y-122111121D01*
X123750000Y-122130299D01*
X124067048Y-122111121D01*
X124379472Y-122053867D01*
X124682717Y-121959372D01*
X124972361Y-121829014D01*
X125244180Y-121664694D01*
X125494211Y-121468807D01*
X125718807Y-121244211D01*
X125914694Y-120994180D01*
X126079014Y-120722361D01*
X126209372Y-120432717D01*
X126303867Y-120129472D01*
X126361121Y-119817048D01*
X126380299Y-119500000D01*
X126361121Y-119182952D01*
X126303867Y-118870528D01*
X126218137Y-118595412D01*
X126209374Y-118567289D01*
X126209373Y-118567288D01*
X126209372Y-118567283D01*
X126079014Y-118277639D01*
X125914694Y-118005820D01*
X125718807Y-117755789D01*
X125494211Y-117531193D01*
X125244180Y-117335306D01*
X124972361Y-117170986D01*
X124972357Y-117170984D01*
X124972355Y-117170983D01*
X124779527Y-117084199D01*
X124682717Y-117040628D01*
X124682715Y-117040627D01*
X124682710Y-117040625D01*
X124379477Y-116946134D01*
X124067046Y-116888878D01*
X123750000Y-116869701D01*
X123432953Y-116888878D01*
X123120522Y-116946134D01*
X122817289Y-117040625D01*
X122527644Y-117170983D01*
X122527635Y-117170988D01*
X122255819Y-117335306D01*
X122005788Y-117531193D01*
X121781193Y-117755788D01*
X121585306Y-118005819D01*
X121420988Y-118277635D01*
X121420983Y-118277644D01*
X121290625Y-118567289D01*
X121196134Y-118870522D01*
X121138878Y-119182953D01*
X121119701Y-119500000D01*
X118650500Y-119500000D01*
X118650500Y-117696545D01*
X118672174Y-117644219D01*
X125644219Y-110672174D01*
X125696545Y-110650500D01*
X131552726Y-110650500D01*
X131552727Y-110650500D01*
X131654588Y-110623207D01*
X131745913Y-110570480D01*
X135354497Y-106961893D01*
X135406822Y-106940220D01*
X135412370Y-106940428D01*
X135413302Y-106940498D01*
X135413315Y-106940500D01*
X135413328Y-106940500D01*
X135666683Y-106940500D01*
X135666685Y-106940500D01*
X135917226Y-106902737D01*
X136157946Y-106828484D01*
X136214336Y-106833771D01*
X136250470Y-106877384D01*
X136245183Y-106933774D01*
X136232084Y-106951522D01*
X126679517Y-116504090D01*
X126626792Y-116595412D01*
X126626793Y-116595413D01*
X126599500Y-116697273D01*
X126599500Y-128046075D01*
X126577826Y-128098401D01*
X126525500Y-128120075D01*
X126473174Y-128098401D01*
X126462172Y-128084358D01*
X126414693Y-128005819D01*
X126405575Y-127994180D01*
X126218807Y-127755789D01*
X125994211Y-127531193D01*
X125744180Y-127335306D01*
X125472361Y-127170986D01*
X125472357Y-127170984D01*
X125472355Y-127170983D01*
X125182710Y-127040625D01*
X124879477Y-126946134D01*
X124567046Y-126888878D01*
X124250000Y-126869701D01*
X123932953Y-126888878D01*
X123620522Y-126946134D01*
X123317289Y-127040625D01*
X123027644Y-127170983D01*
X123027635Y-127170988D01*
X122755819Y-127335306D01*
X122505788Y-127531193D01*
X122281193Y-127755788D01*
X122085306Y-128005819D01*
X121920988Y-128277635D01*
X121920983Y-128277644D01*
X121790625Y-128567289D01*
X121696134Y-128870522D01*
X121638878Y-129182953D01*
X121619701Y-129500000D01*
X121638878Y-129817046D01*
X121696134Y-130129477D01*
X121790625Y-130432710D01*
X121900499Y-130676842D01*
X121920986Y-130722361D01*
X122085306Y-130994180D01*
X122281193Y-131244211D01*
X122505789Y-131468807D01*
X122755820Y-131664694D01*
X123027639Y-131829014D01*
X123317283Y-131959372D01*
X123620528Y-132053867D01*
X123932952Y-132111121D01*
X124250000Y-132130299D01*
X124567048Y-132111121D01*
X124879472Y-132053867D01*
X125182717Y-131959372D01*
X125472361Y-131829014D01*
X125744180Y-131664694D01*
X125994211Y-131468807D01*
X126218807Y-131244211D01*
X126414694Y-130994180D01*
X126462172Y-130915640D01*
X126507790Y-130882074D01*
X126563783Y-130890596D01*
X126597350Y-130936214D01*
X126599500Y-130953924D01*
X126599500Y-135303454D01*
X126577826Y-135355780D01*
X125694256Y-136239349D01*
X125641930Y-136261023D01*
X125603647Y-136250351D01*
X125472361Y-136170986D01*
X125472357Y-136170984D01*
X125472355Y-136170983D01*
X125182710Y-136040625D01*
X124879477Y-135946134D01*
X124567046Y-135888878D01*
X124250000Y-135869701D01*
X123932953Y-135888878D01*
X123620522Y-135946134D01*
X123317289Y-136040625D01*
X123027644Y-136170983D01*
X123027635Y-136170988D01*
X122755819Y-136335306D01*
X122505788Y-136531193D01*
X122281193Y-136755788D01*
X122085306Y-137005819D01*
X121920988Y-137277635D01*
X121920983Y-137277644D01*
X121790625Y-137567289D01*
X121696134Y-137870522D01*
X121638878Y-138182953D01*
X121619701Y-138500000D01*
X121638878Y-138817046D01*
X121696134Y-139129477D01*
X121790625Y-139432710D01*
X121790627Y-139432715D01*
X121790628Y-139432717D01*
X121920986Y-139722361D01*
X122085306Y-139994180D01*
X122281193Y-140244211D01*
X122505789Y-140468807D01*
X122755820Y-140664694D01*
X123027639Y-140829014D01*
X123317283Y-140959372D01*
X123620528Y-141053867D01*
X123932952Y-141111121D01*
X124250000Y-141130299D01*
X124567048Y-141111121D01*
X124879472Y-141053867D01*
X125182717Y-140959372D01*
X125472361Y-140829014D01*
X125744180Y-140664694D01*
X125994211Y-140468807D01*
X126218807Y-140244211D01*
X126414694Y-139994180D01*
X126579014Y-139722361D01*
X126709372Y-139432717D01*
X126803867Y-139129472D01*
X126861121Y-138817048D01*
X126880299Y-138500000D01*
X126861121Y-138182952D01*
X126803867Y-137870528D01*
X126709372Y-137567283D01*
X126579014Y-137277639D01*
X126414694Y-137005820D01*
X126414685Y-137005809D01*
X126299563Y-136858866D01*
X126284354Y-136804310D01*
X126305487Y-136760904D01*
X127245910Y-135820481D01*
X127245913Y-135820480D01*
X127320480Y-135745913D01*
X127373207Y-135654587D01*
X127375192Y-135647178D01*
X127400501Y-135552727D01*
X127400501Y-135447273D01*
X127400501Y-135442744D01*
X127400500Y-135442726D01*
X127400500Y-116946544D01*
X127422173Y-116894219D01*
X137450284Y-106866107D01*
X137502609Y-106844434D01*
X137524421Y-106847722D01*
X137702774Y-106902737D01*
X137702786Y-106902738D01*
X137702791Y-106902740D01*
X137934844Y-106937716D01*
X137953315Y-106940500D01*
X137953317Y-106940500D01*
X138206683Y-106940500D01*
X138206685Y-106940500D01*
X138457226Y-106902737D01*
X138640104Y-106846326D01*
X138696492Y-106851613D01*
X138732627Y-106895226D01*
X138727340Y-106951615D01*
X138714241Y-106969364D01*
X128179517Y-117504090D01*
X128126795Y-117595407D01*
X128126791Y-117595416D01*
X128110936Y-117654587D01*
X128110937Y-117654588D01*
X128099500Y-117697273D01*
X128099500Y-142803454D01*
X128077826Y-142855780D01*
X125694256Y-145239349D01*
X125641930Y-145261023D01*
X125603647Y-145250351D01*
X125472361Y-145170986D01*
X125472357Y-145170984D01*
X125472355Y-145170983D01*
X125182710Y-145040625D01*
X124879477Y-144946134D01*
X124567046Y-144888878D01*
X124250000Y-144869701D01*
X123932953Y-144888878D01*
X123620522Y-144946134D01*
X123317289Y-145040625D01*
X123027644Y-145170983D01*
X123027635Y-145170988D01*
X122755819Y-145335306D01*
X122505788Y-145531193D01*
X122281193Y-145755788D01*
X122085306Y-146005819D01*
X121920988Y-146277635D01*
X121920983Y-146277644D01*
X121790625Y-146567289D01*
X121696134Y-146870522D01*
X121638878Y-147182953D01*
X121619701Y-147500000D01*
X121638878Y-147817046D01*
X121696134Y-148129477D01*
X121790625Y-148432710D01*
X121790627Y-148432715D01*
X121790628Y-148432717D01*
X121920986Y-148722361D01*
X122085306Y-148994180D01*
X122281193Y-149244211D01*
X122505789Y-149468807D01*
X122755820Y-149664694D01*
X123027639Y-149829014D01*
X123317283Y-149959372D01*
X123620528Y-150053867D01*
X123932952Y-150111121D01*
X124250000Y-150130299D01*
X124567048Y-150111121D01*
X124879472Y-150053867D01*
X125182717Y-149959372D01*
X125472361Y-149829014D01*
X125744180Y-149664694D01*
X125994211Y-149468807D01*
X126218807Y-149244211D01*
X126414694Y-148994180D01*
X126579014Y-148722361D01*
X126709372Y-148432717D01*
X126803867Y-148129472D01*
X126861121Y-147817048D01*
X126880299Y-147500000D01*
X126861121Y-147182952D01*
X126803867Y-146870528D01*
X126709372Y-146567283D01*
X126579014Y-146277639D01*
X126414694Y-146005820D01*
X126299563Y-145858866D01*
X126284354Y-145804310D01*
X126305487Y-145760904D01*
X128820480Y-143245913D01*
X128873207Y-143154588D01*
X128900500Y-143052727D01*
X128900500Y-142947273D01*
X128900500Y-117946544D01*
X128922173Y-117894219D01*
X139959714Y-106856677D01*
X140012039Y-106835004D01*
X140033848Y-106838291D01*
X140242774Y-106902737D01*
X140242772Y-106902737D01*
X140474844Y-106937716D01*
X140493315Y-106940500D01*
X140493317Y-106940500D01*
X140746683Y-106940500D01*
X140746685Y-106940500D01*
X140997226Y-106902737D01*
X141021576Y-106895226D01*
X141122260Y-106864169D01*
X141178649Y-106869456D01*
X141214784Y-106913069D01*
X141209497Y-106969458D01*
X141196398Y-106987207D01*
X129679517Y-118504090D01*
X129626792Y-118595412D01*
X129626793Y-118595413D01*
X129599500Y-118697273D01*
X129599500Y-147697273D01*
X129599500Y-147802727D01*
X129626793Y-147904588D01*
X129626795Y-147904592D01*
X129679517Y-147995909D01*
X129679518Y-147995910D01*
X129679520Y-147995913D01*
X132978565Y-151294958D01*
X134239349Y-152555742D01*
X134261023Y-152608068D01*
X134250351Y-152646351D01*
X134190165Y-152745913D01*
X134170986Y-152777639D01*
X134069177Y-153003851D01*
X134040625Y-153067290D01*
X133946134Y-153370522D01*
X133888878Y-153682953D01*
X133869701Y-154000000D01*
X133888878Y-154317046D01*
X133946134Y-154629477D01*
X134040625Y-154932710D01*
X134166855Y-155213184D01*
X134170986Y-155222361D01*
X134335306Y-155494180D01*
X134531193Y-155744211D01*
X134755789Y-155968807D01*
X135005820Y-156164694D01*
X135277639Y-156329014D01*
X135567283Y-156459372D01*
X135870528Y-156553867D01*
X136182952Y-156611121D01*
X136500000Y-156630299D01*
X136817048Y-156611121D01*
X137129472Y-156553867D01*
X137432717Y-156459372D01*
X137722361Y-156329014D01*
X137994180Y-156164694D01*
X138244211Y-155968807D01*
X138468807Y-155744211D01*
X138664694Y-155494180D01*
X138829014Y-155222361D01*
X138959372Y-154932717D01*
X139053867Y-154629472D01*
X139111121Y-154317048D01*
X139130299Y-154000000D01*
X139111121Y-153682952D01*
X139053867Y-153370528D01*
X138968481Y-153096514D01*
X138973606Y-153040111D01*
X139017115Y-153003851D01*
X139039130Y-153000500D01*
X152315894Y-153000500D01*
X152315894Y-153000499D01*
X152443186Y-152966392D01*
X152557314Y-152900500D01*
X152650500Y-152807314D01*
X152716392Y-152693186D01*
X152750499Y-152565894D01*
X152750500Y-152565894D01*
X152750500Y-114434106D01*
X152750499Y-114434105D01*
X152716393Y-114306818D01*
X152716392Y-114306814D01*
X152650500Y-114192686D01*
X152557314Y-114099500D01*
X152443190Y-114033610D01*
X152443181Y-114033606D01*
X152315894Y-113999500D01*
X152315892Y-113999500D01*
X138815892Y-113999500D01*
X138684108Y-113999500D01*
X138684106Y-113999500D01*
X138556818Y-114033606D01*
X138556809Y-114033610D01*
X138442685Y-114099500D01*
X138349500Y-114192685D01*
X138283610Y-114306809D01*
X138283606Y-114306818D01*
X138249500Y-114434105D01*
X138249500Y-151883354D01*
X138227826Y-151935680D01*
X138175500Y-151957354D01*
X138129863Y-151941606D01*
X137994180Y-151835306D01*
X137912965Y-151786210D01*
X137722361Y-151670986D01*
X137722357Y-151670984D01*
X137722355Y-151670983D01*
X137432710Y-151540625D01*
X137129477Y-151446134D01*
X136817046Y-151388878D01*
X136500000Y-151369701D01*
X136182953Y-151388878D01*
X135870522Y-151446134D01*
X135567289Y-151540625D01*
X135277644Y-151670983D01*
X135277635Y-151670988D01*
X135005816Y-151835308D01*
X134858866Y-151950436D01*
X134804309Y-151965644D01*
X134760903Y-151944510D01*
X130422174Y-147605781D01*
X130400500Y-147553455D01*
X130400500Y-118946544D01*
X130422173Y-118894219D01*
X142469144Y-106847247D01*
X142521469Y-106825574D01*
X142543276Y-106828861D01*
X142782774Y-106902737D01*
X142782772Y-106902737D01*
X143014844Y-106937716D01*
X143033315Y-106940500D01*
X143033317Y-106940500D01*
X143286683Y-106940500D01*
X143286685Y-106940500D01*
X143537226Y-106902737D01*
X143604417Y-106882011D01*
X143660807Y-106887298D01*
X143696942Y-106930910D01*
X143691655Y-106987300D01*
X143678556Y-107005049D01*
X131429517Y-119254090D01*
X131376792Y-119345412D01*
X131376793Y-119345413D01*
X131349500Y-119447273D01*
X131349500Y-140947273D01*
X131349500Y-141052727D01*
X131370285Y-141130298D01*
X131376793Y-141154588D01*
X131376795Y-141154592D01*
X131429517Y-141245909D01*
X131429518Y-141245910D01*
X131429520Y-141245913D01*
X132354590Y-142170983D01*
X133084688Y-142901081D01*
X133106362Y-142953407D01*
X133090615Y-142999042D01*
X133085313Y-143005809D01*
X133085309Y-143005815D01*
X132920988Y-143277635D01*
X132920983Y-143277644D01*
X132790625Y-143567289D01*
X132696134Y-143870522D01*
X132638878Y-144182953D01*
X132619701Y-144500000D01*
X132638878Y-144817046D01*
X132696134Y-145129477D01*
X132790625Y-145432710D01*
X132790627Y-145432715D01*
X132790628Y-145432717D01*
X132920986Y-145722361D01*
X133085306Y-145994180D01*
X133281193Y-146244211D01*
X133505789Y-146468807D01*
X133755820Y-146664694D01*
X134027639Y-146829014D01*
X134317283Y-146959372D01*
X134620528Y-147053867D01*
X134932952Y-147111121D01*
X135250000Y-147130299D01*
X135567048Y-147111121D01*
X135879472Y-147053867D01*
X136182717Y-146959372D01*
X136472361Y-146829014D01*
X136744180Y-146664694D01*
X136994211Y-146468807D01*
X137218807Y-146244211D01*
X137414694Y-145994180D01*
X137579014Y-145722361D01*
X137709372Y-145432717D01*
X137803867Y-145129472D01*
X137861121Y-144817048D01*
X137880299Y-144500000D01*
X137861121Y-144182952D01*
X137803867Y-143870528D01*
X137709372Y-143567283D01*
X137579014Y-143277639D01*
X137414694Y-143005820D01*
X137218807Y-142755789D01*
X136994211Y-142531193D01*
X136744180Y-142335306D01*
X136472361Y-142170986D01*
X136472357Y-142170984D01*
X136472355Y-142170983D01*
X136182710Y-142040625D01*
X135879477Y-141946134D01*
X135567046Y-141888878D01*
X135250000Y-141869701D01*
X134932953Y-141888878D01*
X134620522Y-141946134D01*
X134317289Y-142040625D01*
X134027644Y-142170983D01*
X134027635Y-142170988D01*
X133755815Y-142335309D01*
X133755809Y-142335313D01*
X133749042Y-142340615D01*
X133694484Y-142355822D01*
X133651081Y-142334688D01*
X132172174Y-140855781D01*
X132150500Y-140803455D01*
X132150500Y-135500000D01*
X132619701Y-135500000D01*
X132638878Y-135817046D01*
X132696134Y-136129477D01*
X132790625Y-136432710D01*
X132790627Y-136432715D01*
X132790628Y-136432717D01*
X132920986Y-136722361D01*
X133085306Y-136994180D01*
X133281193Y-137244211D01*
X133505789Y-137468807D01*
X133755820Y-137664694D01*
X134027639Y-137829014D01*
X134317283Y-137959372D01*
X134620528Y-138053867D01*
X134932952Y-138111121D01*
X135250000Y-138130299D01*
X135567048Y-138111121D01*
X135879472Y-138053867D01*
X136182717Y-137959372D01*
X136472361Y-137829014D01*
X136744180Y-137664694D01*
X136994211Y-137468807D01*
X137218807Y-137244211D01*
X137414694Y-136994180D01*
X137579014Y-136722361D01*
X137709372Y-136432717D01*
X137803867Y-136129472D01*
X137861121Y-135817048D01*
X137880299Y-135500000D01*
X137861121Y-135182952D01*
X137803867Y-134870528D01*
X137736577Y-134654588D01*
X137709374Y-134567289D01*
X137709373Y-134567288D01*
X137709372Y-134567283D01*
X137579014Y-134277639D01*
X137414694Y-134005820D01*
X137218807Y-133755789D01*
X136994211Y-133531193D01*
X136744180Y-133335306D01*
X136472361Y-133170986D01*
X136472357Y-133170984D01*
X136472355Y-133170983D01*
X136182710Y-133040625D01*
X135879477Y-132946134D01*
X135567046Y-132888878D01*
X135250000Y-132869701D01*
X134932953Y-132888878D01*
X134620522Y-132946134D01*
X134317289Y-133040625D01*
X134027644Y-133170983D01*
X134027635Y-133170988D01*
X133755819Y-133335306D01*
X133505788Y-133531193D01*
X133281193Y-133755788D01*
X133085306Y-134005819D01*
X132920988Y-134277635D01*
X132920983Y-134277644D01*
X132790625Y-134567289D01*
X132696134Y-134870522D01*
X132638878Y-135182953D01*
X132619701Y-135500000D01*
X132150500Y-135500000D01*
X132150500Y-126500000D01*
X132619701Y-126500000D01*
X132638878Y-126817046D01*
X132696134Y-127129477D01*
X132790625Y-127432710D01*
X132790627Y-127432715D01*
X132790628Y-127432717D01*
X132920986Y-127722361D01*
X133085306Y-127994180D01*
X133281193Y-128244211D01*
X133505789Y-128468807D01*
X133755820Y-128664694D01*
X134027639Y-128829014D01*
X134317283Y-128959372D01*
X134620528Y-129053867D01*
X134932952Y-129111121D01*
X135250000Y-129130299D01*
X135567048Y-129111121D01*
X135879472Y-129053867D01*
X136182717Y-128959372D01*
X136472361Y-128829014D01*
X136744180Y-128664694D01*
X136994211Y-128468807D01*
X137218807Y-128244211D01*
X137414694Y-127994180D01*
X137579014Y-127722361D01*
X137709372Y-127432717D01*
X137803867Y-127129472D01*
X137861121Y-126817048D01*
X137880299Y-126500000D01*
X137861121Y-126182952D01*
X137803867Y-125870528D01*
X137743409Y-125676510D01*
X137709374Y-125567289D01*
X137709373Y-125567288D01*
X137709372Y-125567283D01*
X137579014Y-125277639D01*
X137414694Y-125005820D01*
X137218807Y-124755789D01*
X136994211Y-124531193D01*
X136744180Y-124335306D01*
X136472361Y-124170986D01*
X136472357Y-124170984D01*
X136472355Y-124170983D01*
X136182710Y-124040625D01*
X135879477Y-123946134D01*
X135567046Y-123888878D01*
X135250000Y-123869701D01*
X134932953Y-123888878D01*
X134620522Y-123946134D01*
X134317289Y-124040625D01*
X134027644Y-124170983D01*
X134027635Y-124170988D01*
X133755819Y-124335306D01*
X133505788Y-124531193D01*
X133281193Y-124755788D01*
X133085306Y-125005819D01*
X132920988Y-125277635D01*
X132920983Y-125277644D01*
X132790625Y-125567289D01*
X132696134Y-125870522D01*
X132638878Y-126182953D01*
X132619701Y-126500000D01*
X132150500Y-126500000D01*
X132150500Y-119696544D01*
X132172173Y-119644219D01*
X144981219Y-106835172D01*
X145033544Y-106813499D01*
X145065650Y-106820827D01*
X145075509Y-106825574D01*
X145080659Y-106828054D01*
X145214880Y-106869456D01*
X145322773Y-106902737D01*
X145322772Y-106902737D01*
X145554844Y-106937716D01*
X145573315Y-106940500D01*
X145573317Y-106940500D01*
X145826683Y-106940500D01*
X145826685Y-106940500D01*
X146077226Y-106902737D01*
X146319341Y-106828054D01*
X146547620Y-106718121D01*
X146756965Y-106575392D01*
X146919668Y-106424425D01*
X146972767Y-106404724D01*
X147020331Y-106424425D01*
X147183035Y-106575392D01*
X147392380Y-106718121D01*
X147620659Y-106828054D01*
X147754880Y-106869456D01*
X147862773Y-106902737D01*
X147862772Y-106902737D01*
X148094844Y-106937716D01*
X148113315Y-106940500D01*
X148113317Y-106940500D01*
X148366683Y-106940500D01*
X148366685Y-106940500D01*
X148617226Y-106902737D01*
X148842093Y-106833374D01*
X148898480Y-106838661D01*
X148916229Y-106851760D01*
X155927826Y-113863357D01*
X155949500Y-113915683D01*
X155949500Y-141547273D01*
X155949500Y-141652727D01*
X155976793Y-141754588D01*
X155976795Y-141754592D01*
X156029517Y-141845909D01*
X156029518Y-141845910D01*
X156029520Y-141845913D01*
X157880880Y-143697273D01*
X159584688Y-145401081D01*
X159606362Y-145453407D01*
X159590615Y-145499042D01*
X159585313Y-145505809D01*
X159585309Y-145505815D01*
X159420988Y-145777635D01*
X159420983Y-145777644D01*
X159290625Y-146067289D01*
X159196134Y-146370522D01*
X159138878Y-146682953D01*
X159119701Y-147000000D01*
X159138878Y-147317046D01*
X159196134Y-147629477D01*
X159290625Y-147932710D01*
X159370014Y-148109107D01*
X159420986Y-148222361D01*
X159585306Y-148494180D01*
X159781193Y-148744211D01*
X160005789Y-148968807D01*
X160255820Y-149164694D01*
X160527639Y-149329014D01*
X160817283Y-149459372D01*
X160817288Y-149459373D01*
X160817289Y-149459374D01*
X160847561Y-149468807D01*
X161120528Y-149553867D01*
X161432952Y-149611121D01*
X161750000Y-149630299D01*
X162067048Y-149611121D01*
X162379472Y-149553867D01*
X162682717Y-149459372D01*
X162972361Y-149329014D01*
X163244180Y-149164694D01*
X163494211Y-148968807D01*
X163718807Y-148744211D01*
X163914694Y-148494180D01*
X164079014Y-148222361D01*
X164209372Y-147932717D01*
X164303867Y-147629472D01*
X164361121Y-147317048D01*
X164380299Y-147000000D01*
X164361121Y-146682952D01*
X164303867Y-146370528D01*
X164209372Y-146067283D01*
X164079014Y-145777639D01*
X163914694Y-145505820D01*
X163718807Y-145255789D01*
X163494211Y-145031193D01*
X163244180Y-144835306D01*
X162972361Y-144670986D01*
X162972357Y-144670984D01*
X162972355Y-144670983D01*
X162682710Y-144540625D01*
X162379477Y-144446134D01*
X162067046Y-144388878D01*
X161750000Y-144369701D01*
X161432953Y-144388878D01*
X161120522Y-144446134D01*
X160817289Y-144540625D01*
X160527644Y-144670983D01*
X160527635Y-144670988D01*
X160255815Y-144835309D01*
X160255809Y-144835313D01*
X160249042Y-144840615D01*
X160194484Y-144855822D01*
X160151081Y-144834688D01*
X156772174Y-141455781D01*
X156750500Y-141403455D01*
X156750500Y-113666410D01*
X156739885Y-113626792D01*
X156739885Y-113626791D01*
X156723208Y-113564553D01*
X156723206Y-113564548D01*
X156670482Y-113473228D01*
X156670481Y-113473227D01*
X156670480Y-113473225D01*
X150175925Y-106978670D01*
X150154251Y-106926344D01*
X150175925Y-106874018D01*
X150228251Y-106852344D01*
X150250063Y-106855632D01*
X150402773Y-106902737D01*
X150402772Y-106902737D01*
X150634844Y-106937716D01*
X150653315Y-106940500D01*
X150653317Y-106940500D01*
X150906683Y-106940500D01*
X150906685Y-106940500D01*
X151157226Y-106902737D01*
X151382093Y-106833374D01*
X151438480Y-106838661D01*
X151456229Y-106851760D01*
X157327826Y-112723356D01*
X157349500Y-112775682D01*
X157349500Y-134447273D01*
X157349500Y-134552727D01*
X157365110Y-134610986D01*
X157376793Y-134654588D01*
X157376795Y-134654592D01*
X157429517Y-134745909D01*
X157429518Y-134745910D01*
X157429520Y-134745913D01*
X158510176Y-135826569D01*
X159584688Y-136901081D01*
X159606362Y-136953407D01*
X159590615Y-136999042D01*
X159585313Y-137005809D01*
X159585309Y-137005815D01*
X159420988Y-137277635D01*
X159420983Y-137277644D01*
X159290625Y-137567289D01*
X159196134Y-137870522D01*
X159138878Y-138182953D01*
X159119701Y-138500000D01*
X159138878Y-138817046D01*
X159196134Y-139129477D01*
X159290625Y-139432710D01*
X159290627Y-139432715D01*
X159290628Y-139432717D01*
X159420986Y-139722361D01*
X159585306Y-139994180D01*
X159781193Y-140244211D01*
X160005789Y-140468807D01*
X160255820Y-140664694D01*
X160527639Y-140829014D01*
X160817283Y-140959372D01*
X161120528Y-141053867D01*
X161432952Y-141111121D01*
X161750000Y-141130299D01*
X162067048Y-141111121D01*
X162379472Y-141053867D01*
X162682717Y-140959372D01*
X162972361Y-140829014D01*
X163244180Y-140664694D01*
X163494211Y-140468807D01*
X163718807Y-140244211D01*
X163914694Y-139994180D01*
X164079014Y-139722361D01*
X164209372Y-139432717D01*
X164303867Y-139129472D01*
X164361121Y-138817048D01*
X164380299Y-138500000D01*
X164361121Y-138182952D01*
X164303867Y-137870528D01*
X164209372Y-137567283D01*
X164079014Y-137277639D01*
X163914694Y-137005820D01*
X163718807Y-136755789D01*
X163494211Y-136531193D01*
X163244180Y-136335306D01*
X162972361Y-136170986D01*
X162972357Y-136170984D01*
X162972355Y-136170983D01*
X162682710Y-136040625D01*
X162379477Y-135946134D01*
X162067046Y-135888878D01*
X161750000Y-135869701D01*
X161432953Y-135888878D01*
X161120522Y-135946134D01*
X160817289Y-136040625D01*
X160527644Y-136170983D01*
X160527635Y-136170988D01*
X160255815Y-136335309D01*
X160255809Y-136335313D01*
X160249042Y-136340615D01*
X160194484Y-136355822D01*
X160151081Y-136334688D01*
X158172174Y-134355781D01*
X158150500Y-134303455D01*
X158150500Y-129500000D01*
X159119701Y-129500000D01*
X159138878Y-129817046D01*
X159196134Y-130129477D01*
X159290625Y-130432710D01*
X159400499Y-130676842D01*
X159420986Y-130722361D01*
X159585306Y-130994180D01*
X159781193Y-131244211D01*
X160005789Y-131468807D01*
X160255820Y-131664694D01*
X160527639Y-131829014D01*
X160817283Y-131959372D01*
X161120528Y-132053867D01*
X161432952Y-132111121D01*
X161750000Y-132130299D01*
X162067048Y-132111121D01*
X162379472Y-132053867D01*
X162682717Y-131959372D01*
X162972361Y-131829014D01*
X163244180Y-131664694D01*
X163494211Y-131468807D01*
X163718807Y-131244211D01*
X163914694Y-130994180D01*
X164079014Y-130722361D01*
X164209372Y-130432717D01*
X164303867Y-130129472D01*
X164361121Y-129817048D01*
X164380299Y-129500000D01*
X164361121Y-129182952D01*
X164303867Y-128870528D01*
X164209372Y-128567283D01*
X164079014Y-128277639D01*
X163914694Y-128005820D01*
X163718807Y-127755789D01*
X163494211Y-127531193D01*
X163244180Y-127335306D01*
X162972361Y-127170986D01*
X162972357Y-127170984D01*
X162972355Y-127170983D01*
X162682710Y-127040625D01*
X162379477Y-126946134D01*
X162067046Y-126888878D01*
X161750000Y-126869701D01*
X161432953Y-126888878D01*
X161120522Y-126946134D01*
X160817289Y-127040625D01*
X160527644Y-127170983D01*
X160527635Y-127170988D01*
X160255819Y-127335306D01*
X160005788Y-127531193D01*
X159781193Y-127755788D01*
X159585306Y-128005819D01*
X159420988Y-128277635D01*
X159420983Y-128277644D01*
X159290625Y-128567289D01*
X159196134Y-128870522D01*
X159138878Y-129182953D01*
X159119701Y-129500000D01*
X158150500Y-129500000D01*
X158150500Y-119500000D01*
X158779625Y-119500000D01*
X158799104Y-119809611D01*
X158799107Y-119809633D01*
X158857233Y-120114347D01*
X158857236Y-120114359D01*
X158953099Y-120409397D01*
X158953101Y-120409403D01*
X159085194Y-120690113D01*
X159251416Y-120952036D01*
X159251425Y-120952050D01*
X159286278Y-120994180D01*
X159449172Y-121191086D01*
X159449176Y-121191091D01*
X159663672Y-121392515D01*
X159675324Y-121403457D01*
X159926307Y-121585807D01*
X160198165Y-121735262D01*
X160280578Y-121767891D01*
X160486597Y-121849461D01*
X160486609Y-121849464D01*
X160486612Y-121849466D01*
X160486615Y-121849466D01*
X160486619Y-121849468D01*
X160627466Y-121885631D01*
X160787098Y-121926618D01*
X161094884Y-121965500D01*
X161094888Y-121965500D01*
X161405112Y-121965500D01*
X161405116Y-121965500D01*
X161712902Y-121926618D01*
X162013388Y-121849466D01*
X162013395Y-121849463D01*
X162013402Y-121849461D01*
X162132544Y-121802288D01*
X162301835Y-121735262D01*
X162573693Y-121585807D01*
X162824676Y-121403457D01*
X163050826Y-121191088D01*
X163248575Y-120952050D01*
X163414806Y-120690112D01*
X163546897Y-120409406D01*
X163642764Y-120114357D01*
X163700895Y-119809620D01*
X163720375Y-119500000D01*
X163700895Y-119190380D01*
X163669636Y-119026515D01*
X163642766Y-118885652D01*
X163642763Y-118885640D01*
X163546900Y-118590602D01*
X163546898Y-118590596D01*
X163414805Y-118309886D01*
X163248583Y-118047963D01*
X163248575Y-118047950D01*
X163050826Y-117808912D01*
X163050823Y-117808908D01*
X162824676Y-117596543D01*
X162824674Y-117596541D01*
X162573698Y-117414196D01*
X162505662Y-117376793D01*
X162301835Y-117264738D01*
X162301828Y-117264735D01*
X162013402Y-117150538D01*
X162013380Y-117150531D01*
X161712904Y-117073382D01*
X161610306Y-117060421D01*
X161405116Y-117034500D01*
X161094884Y-117034500D01*
X160919006Y-117056718D01*
X160787095Y-117073382D01*
X160486619Y-117150531D01*
X160486597Y-117150538D01*
X160198171Y-117264735D01*
X160198164Y-117264738D01*
X159926301Y-117414196D01*
X159675325Y-117596541D01*
X159675323Y-117596543D01*
X159449176Y-117808908D01*
X159449172Y-117808913D01*
X159251428Y-118047946D01*
X159251416Y-118047963D01*
X159085194Y-118309886D01*
X158953101Y-118590596D01*
X158953099Y-118590602D01*
X158857236Y-118885640D01*
X158857233Y-118885652D01*
X158799107Y-119190366D01*
X158799104Y-119190388D01*
X158779625Y-119500000D01*
X158150500Y-119500000D01*
X158150500Y-112637836D01*
X158150501Y-112637823D01*
X158150501Y-112526410D01*
X158150500Y-112526409D01*
X158123208Y-112424554D01*
X158123206Y-112424549D01*
X158109078Y-112400078D01*
X158070480Y-112333225D01*
X157995913Y-112258658D01*
X157993334Y-112256079D01*
X157993323Y-112256069D01*
X152715925Y-106978670D01*
X152694251Y-106926344D01*
X152715925Y-106874018D01*
X152768251Y-106852344D01*
X152790063Y-106855632D01*
X152942773Y-106902737D01*
X152942772Y-106902737D01*
X153174844Y-106937716D01*
X153193315Y-106940500D01*
X153193317Y-106940500D01*
X153446683Y-106940500D01*
X153446685Y-106940500D01*
X153697219Y-106902738D01*
X153697220Y-106902738D01*
X153697220Y-106902737D01*
X153697226Y-106902737D01*
X153705922Y-106900054D01*
X153762310Y-106905336D01*
X153780065Y-106918438D01*
X157282107Y-110420480D01*
X157373432Y-110473207D01*
X157475293Y-110500500D01*
X157580747Y-110500500D01*
X162903455Y-110500500D01*
X162955781Y-110522174D01*
X167902826Y-115469219D01*
X167924500Y-115521545D01*
X167924500Y-148222273D01*
X167924500Y-148327727D01*
X167951793Y-148429588D01*
X167951795Y-148429592D01*
X168004517Y-148520909D01*
X168004518Y-148520910D01*
X168004520Y-148520913D01*
X170778565Y-151294958D01*
X171856652Y-152373045D01*
X171878326Y-152425371D01*
X171862579Y-152471007D01*
X171835308Y-152505817D01*
X171670988Y-152777635D01*
X171670983Y-152777644D01*
X171540625Y-153067289D01*
X171446134Y-153370522D01*
X171388878Y-153682953D01*
X171369701Y-154000000D01*
X171388878Y-154317046D01*
X171446134Y-154629477D01*
X171540625Y-154932710D01*
X171666855Y-155213184D01*
X171670986Y-155222361D01*
X171835306Y-155494180D01*
X172031193Y-155744211D01*
X172255789Y-155968807D01*
X172505820Y-156164694D01*
X172777639Y-156329014D01*
X173067283Y-156459372D01*
X173370528Y-156553867D01*
X173682952Y-156611121D01*
X174000000Y-156630299D01*
X174317048Y-156611121D01*
X174629472Y-156553867D01*
X174932717Y-156459372D01*
X175222361Y-156329014D01*
X175494180Y-156164694D01*
X175744211Y-155968807D01*
X175968807Y-155744211D01*
X176164694Y-155494180D01*
X176329014Y-155222361D01*
X176459372Y-154932717D01*
X176553867Y-154629472D01*
X176577594Y-154500000D01*
X197544958Y-154500000D01*
X197565111Y-154858853D01*
X197565113Y-154858865D01*
X197625313Y-155213184D01*
X197724815Y-155558560D01*
X197862352Y-155890607D01*
X197862363Y-155890628D01*
X198036206Y-156205173D01*
X198036210Y-156205180D01*
X198244199Y-156498313D01*
X198350213Y-156616942D01*
X199485502Y-155481652D01*
X199529588Y-155542330D01*
X199707670Y-155720412D01*
X199768346Y-155764495D01*
X198633055Y-156899786D01*
X198751681Y-157005796D01*
X199044819Y-157213789D01*
X199044826Y-157213793D01*
X199359371Y-157387636D01*
X199359392Y-157387647D01*
X199691439Y-157525184D01*
X200036816Y-157624686D01*
X200036814Y-157624686D01*
X200391134Y-157684886D01*
X200391146Y-157684888D01*
X200750000Y-157705041D01*
X201108853Y-157684888D01*
X201108865Y-157684886D01*
X201463184Y-157624686D01*
X201808560Y-157525184D01*
X202140607Y-157387647D01*
X202140628Y-157387636D01*
X202455173Y-157213793D01*
X202455180Y-157213789D01*
X202748318Y-157005796D01*
X202866942Y-156899786D01*
X202866943Y-156899786D01*
X201731653Y-155764496D01*
X201792330Y-155720412D01*
X201970412Y-155542330D01*
X202014496Y-155481653D01*
X203149786Y-156616943D01*
X203149786Y-156616942D01*
X203255796Y-156498318D01*
X203463789Y-156205180D01*
X203463793Y-156205173D01*
X203637636Y-155890628D01*
X203637647Y-155890607D01*
X203775184Y-155558560D01*
X203874686Y-155213184D01*
X203934886Y-154858865D01*
X203934888Y-154858853D01*
X203955041Y-154500000D01*
X203934888Y-154141146D01*
X203934886Y-154141134D01*
X203874686Y-153786815D01*
X203775184Y-153441439D01*
X203637647Y-153109392D01*
X203637636Y-153109371D01*
X203463793Y-152794826D01*
X203463789Y-152794819D01*
X203255796Y-152501681D01*
X203149786Y-152383056D01*
X203149786Y-152383055D01*
X202014495Y-153518345D01*
X201970412Y-153457670D01*
X201792330Y-153279588D01*
X201731652Y-153235502D01*
X202866942Y-152100213D01*
X202748313Y-151994199D01*
X202455180Y-151786210D01*
X202455173Y-151786206D01*
X202140628Y-151612363D01*
X202140607Y-151612352D01*
X201808560Y-151474815D01*
X201463183Y-151375313D01*
X201463185Y-151375313D01*
X201108865Y-151315113D01*
X201108853Y-151315111D01*
X200750000Y-151294958D01*
X200391146Y-151315111D01*
X200391134Y-151315113D01*
X200036815Y-151375313D01*
X199691439Y-151474815D01*
X199359392Y-151612352D01*
X199359371Y-151612363D01*
X199044826Y-151786206D01*
X199044819Y-151786210D01*
X198751686Y-151994199D01*
X198633055Y-152100212D01*
X199768346Y-153235503D01*
X199707670Y-153279588D01*
X199529588Y-153457670D01*
X199485503Y-153518346D01*
X198350212Y-152383055D01*
X198244199Y-152501686D01*
X198036210Y-152794819D01*
X198036206Y-152794826D01*
X197862363Y-153109371D01*
X197862352Y-153109392D01*
X197724815Y-153441439D01*
X197625313Y-153786815D01*
X197565113Y-154141134D01*
X197565111Y-154141146D01*
X197544958Y-154500000D01*
X176577594Y-154500000D01*
X176611121Y-154317048D01*
X176630299Y-154000000D01*
X176611121Y-153682952D01*
X176553867Y-153370528D01*
X176468481Y-153096514D01*
X176473606Y-153040111D01*
X176517115Y-153003851D01*
X176539130Y-153000500D01*
X189815894Y-153000500D01*
X189815894Y-153000499D01*
X189943186Y-152966392D01*
X190057314Y-152900500D01*
X190150500Y-152807314D01*
X190216392Y-152693186D01*
X190250499Y-152565894D01*
X190250500Y-152565894D01*
X190250500Y-114434106D01*
X190250499Y-114434105D01*
X190216393Y-114306818D01*
X190216392Y-114306814D01*
X190150500Y-114192686D01*
X190057314Y-114099500D01*
X189943190Y-114033610D01*
X189943181Y-114033606D01*
X189815894Y-113999500D01*
X189815892Y-113999500D01*
X176315892Y-113999500D01*
X176184108Y-113999500D01*
X176184106Y-113999500D01*
X176056818Y-114033606D01*
X176056809Y-114033610D01*
X175942685Y-114099500D01*
X175849500Y-114192685D01*
X175783610Y-114306809D01*
X175783606Y-114306818D01*
X175749500Y-114434105D01*
X175749500Y-151883354D01*
X175727826Y-151935680D01*
X175675500Y-151957354D01*
X175629863Y-151941606D01*
X175494180Y-151835306D01*
X175412965Y-151786210D01*
X175222361Y-151670986D01*
X175222357Y-151670984D01*
X175222355Y-151670983D01*
X174932710Y-151540625D01*
X174629477Y-151446134D01*
X174317046Y-151388878D01*
X174000000Y-151369701D01*
X173682953Y-151388878D01*
X173370522Y-151446134D01*
X173067289Y-151540625D01*
X172777644Y-151670983D01*
X172777635Y-151670988D01*
X172602936Y-151776597D01*
X172587042Y-151786206D01*
X172521704Y-151825704D01*
X172465712Y-151834226D01*
X172431095Y-151814702D01*
X168747174Y-148130781D01*
X168725500Y-148078455D01*
X168725500Y-115272273D01*
X168698207Y-115170413D01*
X168698207Y-115170412D01*
X168645482Y-115079090D01*
X168645481Y-115079089D01*
X168645480Y-115079087D01*
X163345913Y-109779520D01*
X163345910Y-109779518D01*
X163345909Y-109779517D01*
X163254592Y-109726795D01*
X163254588Y-109726793D01*
X163152727Y-109699500D01*
X163152726Y-109699500D01*
X157724565Y-109699500D01*
X157672239Y-109677826D01*
X154531312Y-106536899D01*
X154509638Y-106484573D01*
X154531312Y-106432247D01*
X154533271Y-106430360D01*
X154539669Y-106424424D01*
X154592767Y-106404723D01*
X154640330Y-106424424D01*
X154803035Y-106575392D01*
X155012380Y-106718121D01*
X155240659Y-106828054D01*
X155374880Y-106869456D01*
X155482773Y-106902737D01*
X155482772Y-106902737D01*
X155714844Y-106937716D01*
X155733315Y-106940500D01*
X155751374Y-106940500D01*
X155803700Y-106962174D01*
X157784850Y-108943323D01*
X157784855Y-108943329D01*
X157787439Y-108945913D01*
X157862006Y-109020480D01*
X157953332Y-109073207D01*
X157953333Y-109073207D01*
X157953335Y-109073208D01*
X158004262Y-109086854D01*
X158055189Y-109100500D01*
X158055190Y-109100501D01*
X158055192Y-109100501D01*
X158165176Y-109100501D01*
X158165192Y-109100500D01*
X163828455Y-109100500D01*
X163880781Y-109122174D01*
X169302826Y-114544219D01*
X169324500Y-114596545D01*
X169324500Y-141172273D01*
X169324500Y-141277727D01*
X169351793Y-141379588D01*
X169351795Y-141379592D01*
X169404517Y-141470909D01*
X169404518Y-141470910D01*
X169404520Y-141470913D01*
X170104590Y-142170983D01*
X170694510Y-142760903D01*
X170716184Y-142813229D01*
X170700436Y-142858866D01*
X170585308Y-143005816D01*
X170420988Y-143277635D01*
X170420983Y-143277644D01*
X170290625Y-143567289D01*
X170196134Y-143870522D01*
X170138878Y-144182953D01*
X170119701Y-144500000D01*
X170138878Y-144817046D01*
X170196134Y-145129477D01*
X170290625Y-145432710D01*
X170290627Y-145432715D01*
X170290628Y-145432717D01*
X170420986Y-145722361D01*
X170585306Y-145994180D01*
X170781193Y-146244211D01*
X171005789Y-146468807D01*
X171255820Y-146664694D01*
X171527639Y-146829014D01*
X171817283Y-146959372D01*
X172120528Y-147053867D01*
X172432952Y-147111121D01*
X172750000Y-147130299D01*
X173067048Y-147111121D01*
X173379472Y-147053867D01*
X173682717Y-146959372D01*
X173972361Y-146829014D01*
X174244180Y-146664694D01*
X174494211Y-146468807D01*
X174718807Y-146244211D01*
X174914694Y-145994180D01*
X175079014Y-145722361D01*
X175209372Y-145432717D01*
X175303867Y-145129472D01*
X175361121Y-144817048D01*
X175380299Y-144500000D01*
X175361121Y-144182952D01*
X175303867Y-143870528D01*
X175209372Y-143567283D01*
X175079014Y-143277639D01*
X174914694Y-143005820D01*
X174718807Y-142755789D01*
X174494211Y-142531193D01*
X174244180Y-142335306D01*
X173972361Y-142170986D01*
X173972357Y-142170984D01*
X173972355Y-142170983D01*
X173682710Y-142040625D01*
X173379477Y-141946134D01*
X173067046Y-141888878D01*
X172750000Y-141869701D01*
X172432953Y-141888878D01*
X172120522Y-141946134D01*
X171817290Y-142040625D01*
X171527637Y-142170987D01*
X171396351Y-142250351D01*
X171340358Y-142258873D01*
X171305742Y-142239349D01*
X170147174Y-141080781D01*
X170125500Y-141028455D01*
X170125500Y-136389013D01*
X170147174Y-136336687D01*
X170199500Y-136315013D01*
X170251826Y-136336687D01*
X170270149Y-136366998D01*
X170290625Y-136432710D01*
X170290627Y-136432715D01*
X170290628Y-136432717D01*
X170420986Y-136722361D01*
X170585306Y-136994180D01*
X170781193Y-137244211D01*
X171005789Y-137468807D01*
X171255820Y-137664694D01*
X171527639Y-137829014D01*
X171817283Y-137959372D01*
X172120528Y-138053867D01*
X172432952Y-138111121D01*
X172750000Y-138130299D01*
X173067048Y-138111121D01*
X173379472Y-138053867D01*
X173682717Y-137959372D01*
X173972361Y-137829014D01*
X174244180Y-137664694D01*
X174494211Y-137468807D01*
X174718807Y-137244211D01*
X174914694Y-136994180D01*
X175079014Y-136722361D01*
X175209372Y-136432717D01*
X175303867Y-136129472D01*
X175361121Y-135817048D01*
X175380299Y-135500000D01*
X175361121Y-135182952D01*
X175303867Y-134870528D01*
X175236577Y-134654588D01*
X175209374Y-134567289D01*
X175209373Y-134567288D01*
X175209372Y-134567283D01*
X175079014Y-134277639D01*
X174914694Y-134005820D01*
X174718807Y-133755789D01*
X174494211Y-133531193D01*
X174244180Y-133335306D01*
X173972361Y-133170986D01*
X173972357Y-133170984D01*
X173972355Y-133170983D01*
X173682710Y-133040625D01*
X173379477Y-132946134D01*
X173067046Y-132888878D01*
X172750000Y-132869701D01*
X172432953Y-132888878D01*
X172120522Y-132946134D01*
X171817289Y-133040625D01*
X171527644Y-133170983D01*
X171527635Y-133170988D01*
X171255819Y-133335306D01*
X171005788Y-133531193D01*
X170781193Y-133755788D01*
X170585306Y-134005819D01*
X170420988Y-134277635D01*
X170420983Y-134277644D01*
X170290625Y-134567290D01*
X170270149Y-134633001D01*
X170233889Y-134676510D01*
X170177485Y-134681635D01*
X170133976Y-134645375D01*
X170125500Y-134610986D01*
X170125500Y-127389013D01*
X170147174Y-127336687D01*
X170199500Y-127315013D01*
X170251826Y-127336687D01*
X170270149Y-127366998D01*
X170290625Y-127432710D01*
X170290627Y-127432715D01*
X170290628Y-127432717D01*
X170420986Y-127722361D01*
X170585306Y-127994180D01*
X170781193Y-128244211D01*
X171005789Y-128468807D01*
X171255820Y-128664694D01*
X171527639Y-128829014D01*
X171817283Y-128959372D01*
X172120528Y-129053867D01*
X172432952Y-129111121D01*
X172750000Y-129130299D01*
X173067048Y-129111121D01*
X173379472Y-129053867D01*
X173682717Y-128959372D01*
X173972361Y-128829014D01*
X174244180Y-128664694D01*
X174494211Y-128468807D01*
X174718807Y-128244211D01*
X174914694Y-127994180D01*
X175079014Y-127722361D01*
X175209372Y-127432717D01*
X175303867Y-127129472D01*
X175361121Y-126817048D01*
X175380299Y-126500000D01*
X175361121Y-126182952D01*
X175303867Y-125870528D01*
X175243409Y-125676510D01*
X175209374Y-125567289D01*
X175209373Y-125567288D01*
X175209372Y-125567283D01*
X175079014Y-125277639D01*
X174914694Y-125005820D01*
X174718807Y-124755789D01*
X174494211Y-124531193D01*
X174244180Y-124335306D01*
X173972361Y-124170986D01*
X173972357Y-124170984D01*
X173972355Y-124170983D01*
X173682710Y-124040625D01*
X173379477Y-123946134D01*
X173067046Y-123888878D01*
X172750000Y-123869701D01*
X172432953Y-123888878D01*
X172120522Y-123946134D01*
X171817289Y-124040625D01*
X171527644Y-124170983D01*
X171527635Y-124170988D01*
X171255819Y-124335306D01*
X171005788Y-124531193D01*
X170781193Y-124755788D01*
X170585306Y-125005819D01*
X170420988Y-125277635D01*
X170420983Y-125277644D01*
X170290625Y-125567290D01*
X170270149Y-125633001D01*
X170233889Y-125676510D01*
X170177485Y-125681635D01*
X170133976Y-125645375D01*
X170125500Y-125610986D01*
X170125500Y-114347273D01*
X170098207Y-114245413D01*
X170098207Y-114245412D01*
X170045482Y-114154090D01*
X170045481Y-114154089D01*
X170045480Y-114154087D01*
X164270913Y-108379520D01*
X164270910Y-108379518D01*
X164270909Y-108379517D01*
X164179592Y-108326795D01*
X164179588Y-108326793D01*
X164077727Y-108299500D01*
X164077726Y-108299500D01*
X158304463Y-108299500D01*
X158252137Y-108277826D01*
X156761744Y-106787432D01*
X156740070Y-106735106D01*
X156761744Y-106682780D01*
X156772378Y-106673969D01*
X156916965Y-106575392D01*
X157079668Y-106424425D01*
X157132767Y-106404724D01*
X157180331Y-106424425D01*
X157343035Y-106575392D01*
X157552380Y-106718121D01*
X157780659Y-106828054D01*
X157914880Y-106869456D01*
X158022773Y-106902737D01*
X158022772Y-106902737D01*
X158254844Y-106937716D01*
X158273315Y-106940500D01*
X158273317Y-106940500D01*
X158526683Y-106940500D01*
X158526685Y-106940500D01*
X158777226Y-106902737D01*
X159002093Y-106833374D01*
X159058480Y-106838661D01*
X159076229Y-106851760D01*
X159844949Y-107620480D01*
X159936274Y-107673207D01*
X160038135Y-107700500D01*
X164408354Y-107700500D01*
X164460680Y-107722174D01*
X167308986Y-110570480D01*
X167400311Y-110623207D01*
X167502172Y-110650500D01*
X189553455Y-110650500D01*
X189605781Y-110672174D01*
X193077826Y-114144219D01*
X193099500Y-114196545D01*
X193099500Y-132447273D01*
X193099500Y-132552727D01*
X193126793Y-132654588D01*
X193126795Y-132654592D01*
X193179517Y-132745909D01*
X193179518Y-132745910D01*
X193179520Y-132745913D01*
X195304129Y-134870522D01*
X197334688Y-136901081D01*
X197356362Y-136953407D01*
X197340615Y-136999042D01*
X197335313Y-137005809D01*
X197335309Y-137005815D01*
X197170988Y-137277635D01*
X197170983Y-137277644D01*
X197040625Y-137567289D01*
X196946134Y-137870522D01*
X196888878Y-138182953D01*
X196869701Y-138500000D01*
X196888878Y-138817046D01*
X196946134Y-139129477D01*
X197040625Y-139432710D01*
X197040627Y-139432715D01*
X197040628Y-139432717D01*
X197170986Y-139722361D01*
X197335306Y-139994180D01*
X197531193Y-140244211D01*
X197755789Y-140468807D01*
X198005820Y-140664694D01*
X198277639Y-140829014D01*
X198567283Y-140959372D01*
X198870528Y-141053867D01*
X199182952Y-141111121D01*
X199500000Y-141130299D01*
X199817048Y-141111121D01*
X200129472Y-141053867D01*
X200432717Y-140959372D01*
X200722361Y-140829014D01*
X200994180Y-140664694D01*
X201244211Y-140468807D01*
X201468807Y-140244211D01*
X201664694Y-139994180D01*
X201829014Y-139722361D01*
X201959372Y-139432717D01*
X202053867Y-139129472D01*
X202111121Y-138817048D01*
X202130299Y-138500000D01*
X202111121Y-138182952D01*
X202053867Y-137870528D01*
X201959372Y-137567283D01*
X201829014Y-137277639D01*
X201664694Y-137005820D01*
X201468807Y-136755789D01*
X201244211Y-136531193D01*
X200994180Y-136335306D01*
X200722361Y-136170986D01*
X200722357Y-136170984D01*
X200722355Y-136170983D01*
X200432710Y-136040625D01*
X200129477Y-135946134D01*
X199817046Y-135888878D01*
X199500000Y-135869701D01*
X199182953Y-135888878D01*
X198870522Y-135946134D01*
X198567289Y-136040625D01*
X198277644Y-136170983D01*
X198277635Y-136170988D01*
X198005815Y-136335309D01*
X198005809Y-136335313D01*
X197999042Y-136340615D01*
X197944484Y-136355822D01*
X197901081Y-136334688D01*
X193922174Y-132355781D01*
X193900500Y-132303455D01*
X193900500Y-129500000D01*
X196869701Y-129500000D01*
X196888878Y-129817046D01*
X196946134Y-130129477D01*
X197040625Y-130432710D01*
X197150499Y-130676842D01*
X197170986Y-130722361D01*
X197335306Y-130994180D01*
X197531193Y-131244211D01*
X197755789Y-131468807D01*
X198005820Y-131664694D01*
X198277639Y-131829014D01*
X198567283Y-131959372D01*
X198870528Y-132053867D01*
X199182952Y-132111121D01*
X199500000Y-132130299D01*
X199817048Y-132111121D01*
X200129472Y-132053867D01*
X200432717Y-131959372D01*
X200722361Y-131829014D01*
X200994180Y-131664694D01*
X201244211Y-131468807D01*
X201468807Y-131244211D01*
X201664694Y-130994180D01*
X201829014Y-130722361D01*
X201959372Y-130432717D01*
X202053867Y-130129472D01*
X202111121Y-129817048D01*
X202130299Y-129500000D01*
X202111121Y-129182952D01*
X202053867Y-128870528D01*
X201959372Y-128567283D01*
X201829014Y-128277639D01*
X201664694Y-128005820D01*
X201468807Y-127755789D01*
X201244211Y-127531193D01*
X200994180Y-127335306D01*
X200722361Y-127170986D01*
X200722357Y-127170984D01*
X200722355Y-127170983D01*
X200432710Y-127040625D01*
X200129477Y-126946134D01*
X199817046Y-126888878D01*
X199500000Y-126869701D01*
X199182953Y-126888878D01*
X198870522Y-126946134D01*
X198567289Y-127040625D01*
X198277644Y-127170983D01*
X198277635Y-127170988D01*
X198005819Y-127335306D01*
X197755788Y-127531193D01*
X197531193Y-127755788D01*
X197335306Y-128005819D01*
X197170988Y-128277635D01*
X197170983Y-128277644D01*
X197040625Y-128567289D01*
X196946134Y-128870522D01*
X196888878Y-129182953D01*
X196869701Y-129500000D01*
X193900500Y-129500000D01*
X193900500Y-119500000D01*
X195869701Y-119500000D01*
X195888878Y-119817046D01*
X195946134Y-120129477D01*
X196040625Y-120432710D01*
X196040627Y-120432715D01*
X196040628Y-120432717D01*
X196170986Y-120722361D01*
X196335306Y-120994180D01*
X196531193Y-121244211D01*
X196755789Y-121468807D01*
X197005820Y-121664694D01*
X197277639Y-121829014D01*
X197567283Y-121959372D01*
X197870528Y-122053867D01*
X198182952Y-122111121D01*
X198500000Y-122130299D01*
X198817048Y-122111121D01*
X199129472Y-122053867D01*
X199432717Y-121959372D01*
X199722361Y-121829014D01*
X199994180Y-121664694D01*
X200244211Y-121468807D01*
X200468807Y-121244211D01*
X200664694Y-120994180D01*
X200829014Y-120722361D01*
X200959372Y-120432717D01*
X201053867Y-120129472D01*
X201111121Y-119817048D01*
X201130299Y-119500000D01*
X201111121Y-119182952D01*
X201053867Y-118870528D01*
X200968137Y-118595412D01*
X200959374Y-118567289D01*
X200959373Y-118567288D01*
X200959372Y-118567283D01*
X200829014Y-118277639D01*
X200664694Y-118005820D01*
X200468807Y-117755789D01*
X200244211Y-117531193D01*
X199994180Y-117335306D01*
X199722361Y-117170986D01*
X199722357Y-117170984D01*
X199722355Y-117170983D01*
X199529527Y-117084199D01*
X199432717Y-117040628D01*
X199432715Y-117040627D01*
X199432710Y-117040625D01*
X199129477Y-116946134D01*
X198817046Y-116888878D01*
X198500000Y-116869701D01*
X198182953Y-116888878D01*
X197870522Y-116946134D01*
X197567289Y-117040625D01*
X197277644Y-117170983D01*
X197277635Y-117170988D01*
X197005819Y-117335306D01*
X196755788Y-117531193D01*
X196531193Y-117755788D01*
X196335306Y-118005819D01*
X196170988Y-118277635D01*
X196170983Y-118277644D01*
X196040625Y-118567289D01*
X195946134Y-118870522D01*
X195888878Y-119182953D01*
X195869701Y-119500000D01*
X193900500Y-119500000D01*
X193900500Y-113947274D01*
X193900500Y-113947273D01*
X193873207Y-113845412D01*
X193820480Y-113754087D01*
X189995913Y-109929520D01*
X189995910Y-109929518D01*
X189995909Y-109929517D01*
X189904592Y-109876795D01*
X189904588Y-109876793D01*
X189837678Y-109858865D01*
X189802727Y-109849500D01*
X189802726Y-109849500D01*
X167751444Y-109849500D01*
X167699118Y-109827826D01*
X166312731Y-108441439D01*
X164850812Y-106979520D01*
X164850809Y-106979518D01*
X164850808Y-106979517D01*
X164759491Y-106926795D01*
X164759487Y-106926793D01*
X164692241Y-106908775D01*
X164657626Y-106899500D01*
X164657625Y-106899500D01*
X161735197Y-106899500D01*
X161682871Y-106877826D01*
X161661197Y-106825500D01*
X161682871Y-106773174D01*
X161703088Y-106758829D01*
X161787620Y-106718121D01*
X161867940Y-106663358D01*
X161909626Y-106650501D01*
X161997257Y-106650501D01*
X161997273Y-106650500D01*
X191553455Y-106650500D01*
X191605781Y-106672174D01*
X202827826Y-117894219D01*
X202849500Y-117946545D01*
X202849500Y-143553454D01*
X202827826Y-143605780D01*
X201098917Y-145334688D01*
X201046591Y-145356362D01*
X201000954Y-145340613D01*
X200994185Y-145335310D01*
X200994180Y-145335306D01*
X200994177Y-145335304D01*
X200994174Y-145335302D01*
X200722364Y-145170988D01*
X200722361Y-145170986D01*
X200722357Y-145170984D01*
X200722355Y-145170983D01*
X200432710Y-145040625D01*
X200129477Y-144946134D01*
X199817046Y-144888878D01*
X199500000Y-144869701D01*
X199182953Y-144888878D01*
X198870522Y-144946134D01*
X198567289Y-145040625D01*
X198277644Y-145170983D01*
X198277635Y-145170988D01*
X198005819Y-145335306D01*
X197755788Y-145531193D01*
X197531193Y-145755788D01*
X197335306Y-146005819D01*
X197170988Y-146277635D01*
X197170983Y-146277644D01*
X197040625Y-146567289D01*
X196946134Y-146870522D01*
X196888878Y-147182953D01*
X196869701Y-147500000D01*
X196888878Y-147817046D01*
X196946134Y-148129477D01*
X197040625Y-148432710D01*
X197040627Y-148432715D01*
X197040628Y-148432717D01*
X197170986Y-148722361D01*
X197335306Y-148994180D01*
X197531193Y-149244211D01*
X197755789Y-149468807D01*
X198005820Y-149664694D01*
X198277639Y-149829014D01*
X198567283Y-149959372D01*
X198870528Y-150053867D01*
X199182952Y-150111121D01*
X199500000Y-150130299D01*
X199817048Y-150111121D01*
X200129472Y-150053867D01*
X200432717Y-149959372D01*
X200722361Y-149829014D01*
X200994180Y-149664694D01*
X201244211Y-149468807D01*
X201468807Y-149244211D01*
X201664694Y-148994180D01*
X201829014Y-148722361D01*
X201959372Y-148432717D01*
X202053867Y-148129472D01*
X202111121Y-147817048D01*
X202130299Y-147500000D01*
X202111121Y-147182952D01*
X202053867Y-146870528D01*
X201959372Y-146567283D01*
X201829014Y-146277639D01*
X201664694Y-146005820D01*
X201659385Y-145999044D01*
X201644175Y-145944490D01*
X201665309Y-145901082D01*
X203570480Y-143995913D01*
X203623207Y-143904588D01*
X203650500Y-143802727D01*
X203650500Y-143697273D01*
X203650500Y-117697273D01*
X203639063Y-117654588D01*
X203623207Y-117595412D01*
X203570480Y-117504087D01*
X195566393Y-109500000D01*
X197544958Y-109500000D01*
X197565111Y-109858853D01*
X197565113Y-109858865D01*
X197625313Y-110213184D01*
X197724815Y-110558560D01*
X197862352Y-110890607D01*
X197862363Y-110890628D01*
X198036206Y-111205173D01*
X198036210Y-111205180D01*
X198244199Y-111498313D01*
X198350213Y-111616942D01*
X199485502Y-110481652D01*
X199529588Y-110542330D01*
X199707670Y-110720412D01*
X199768346Y-110764495D01*
X198633055Y-111899786D01*
X198751681Y-112005796D01*
X199044819Y-112213789D01*
X199044826Y-112213793D01*
X199359371Y-112387636D01*
X199359392Y-112387647D01*
X199691439Y-112525184D01*
X200036816Y-112624686D01*
X200036814Y-112624686D01*
X200391134Y-112684886D01*
X200391146Y-112684888D01*
X200750000Y-112705041D01*
X201108853Y-112684888D01*
X201108865Y-112684886D01*
X201463184Y-112624686D01*
X201808560Y-112525184D01*
X202140607Y-112387647D01*
X202140628Y-112387636D01*
X202455173Y-112213793D01*
X202455180Y-112213789D01*
X202748318Y-112005796D01*
X202866942Y-111899786D01*
X202866943Y-111899786D01*
X201731653Y-110764496D01*
X201792330Y-110720412D01*
X201970412Y-110542330D01*
X202014496Y-110481653D01*
X203149786Y-111616943D01*
X203149786Y-111616942D01*
X203255796Y-111498318D01*
X203463789Y-111205180D01*
X203463793Y-111205173D01*
X203637636Y-110890628D01*
X203637647Y-110890607D01*
X203775184Y-110558560D01*
X203874686Y-110213184D01*
X203934886Y-109858865D01*
X203934888Y-109858853D01*
X203955041Y-109500000D01*
X203934888Y-109141146D01*
X203934886Y-109141134D01*
X203874686Y-108786815D01*
X203775184Y-108441439D01*
X203637647Y-108109392D01*
X203637636Y-108109371D01*
X203463793Y-107794826D01*
X203463789Y-107794819D01*
X203255796Y-107501681D01*
X203149786Y-107383056D01*
X203149786Y-107383055D01*
X202014495Y-108518345D01*
X201970412Y-108457670D01*
X201792330Y-108279588D01*
X201731652Y-108235502D01*
X202866942Y-107100213D01*
X202748313Y-106994199D01*
X202455180Y-106786210D01*
X202455173Y-106786206D01*
X202140628Y-106612363D01*
X202140607Y-106612352D01*
X201808560Y-106474815D01*
X201463183Y-106375313D01*
X201463185Y-106375313D01*
X201108865Y-106315113D01*
X201108853Y-106315111D01*
X200750000Y-106294958D01*
X200391146Y-106315111D01*
X200391134Y-106315113D01*
X200036815Y-106375313D01*
X199691439Y-106474815D01*
X199359392Y-106612352D01*
X199359371Y-106612363D01*
X199044826Y-106786206D01*
X199044819Y-106786210D01*
X198751686Y-106994199D01*
X198633055Y-107100212D01*
X199768346Y-108235503D01*
X199707670Y-108279588D01*
X199529588Y-108457670D01*
X199485503Y-108518346D01*
X198350212Y-107383055D01*
X198244199Y-107501686D01*
X198036210Y-107794819D01*
X198036206Y-107794826D01*
X197862363Y-108109371D01*
X197862352Y-108109392D01*
X197724815Y-108441439D01*
X197625313Y-108786815D01*
X197565113Y-109141134D01*
X197565111Y-109141146D01*
X197544958Y-109500000D01*
X195566393Y-109500000D01*
X191995913Y-105929520D01*
X191995910Y-105929518D01*
X191995909Y-105929517D01*
X191904592Y-105876795D01*
X191904588Y-105876793D01*
X191802727Y-105849500D01*
X191802726Y-105849500D01*
X162629287Y-105849500D01*
X162576961Y-105827826D01*
X162555287Y-105775500D01*
X162559641Y-105752482D01*
X162559111Y-105752319D01*
X162559925Y-105749680D01*
X162616306Y-105502662D01*
X162635240Y-105250000D01*
X162616306Y-104997338D01*
X162559925Y-104750319D01*
X162467358Y-104514463D01*
X162340673Y-104295037D01*
X162182699Y-104096944D01*
X162115125Y-104034245D01*
X162091511Y-103982767D01*
X162111213Y-103929667D01*
X162115126Y-103925754D01*
X162182699Y-103863056D01*
X162340673Y-103664963D01*
X162467358Y-103445537D01*
X162559925Y-103209681D01*
X162616306Y-102962662D01*
X162635240Y-102710000D01*
X162616306Y-102457338D01*
X162559925Y-102210319D01*
X162467358Y-101974463D01*
X162340673Y-101755037D01*
X162182699Y-101556944D01*
X162180900Y-101555275D01*
X162141104Y-101518350D01*
X161996965Y-101384608D01*
X161787620Y-101241879D01*
X161668547Y-101184537D01*
X161559346Y-101131948D01*
X161559342Y-101131946D01*
X161559341Y-101131946D01*
X161559336Y-101131944D01*
X161559332Y-101131943D01*
X161317226Y-101057262D01*
X161317227Y-101057262D01*
X161066691Y-101019500D01*
X161066685Y-101019500D01*
X160813315Y-101019500D01*
X160813308Y-101019500D01*
X160562773Y-101057262D01*
X160320667Y-101131943D01*
X160320653Y-101131948D01*
X160092382Y-101241878D01*
X160092380Y-101241879D01*
X159883035Y-101384608D01*
X159883034Y-101384609D01*
X159720333Y-101535573D01*
X159667233Y-101555275D01*
X159619667Y-101535573D01*
X159571303Y-101490698D01*
X159456965Y-101384608D01*
X159247620Y-101241879D01*
X159128547Y-101184537D01*
X159019346Y-101131948D01*
X159019342Y-101131946D01*
X159019341Y-101131946D01*
X159019336Y-101131944D01*
X159019332Y-101131943D01*
X158777226Y-101057262D01*
X158777227Y-101057262D01*
X158526691Y-101019500D01*
X158526685Y-101019500D01*
X158273315Y-101019500D01*
X158273308Y-101019500D01*
X158022773Y-101057262D01*
X157780667Y-101131943D01*
X157780653Y-101131948D01*
X157552382Y-101241878D01*
X157552380Y-101241879D01*
X157343035Y-101384608D01*
X157343034Y-101384609D01*
X157180333Y-101535573D01*
X157127233Y-101555275D01*
X157079667Y-101535573D01*
X157031303Y-101490698D01*
X156916965Y-101384608D01*
X156707620Y-101241879D01*
X156588547Y-101184537D01*
X156479346Y-101131948D01*
X156479342Y-101131946D01*
X156479341Y-101131946D01*
X156479336Y-101131944D01*
X156479332Y-101131943D01*
X156237226Y-101057262D01*
X156237227Y-101057262D01*
X155986691Y-101019500D01*
X155986685Y-101019500D01*
X155733315Y-101019500D01*
X155733308Y-101019500D01*
X155482773Y-101057262D01*
X155240667Y-101131943D01*
X155240653Y-101131948D01*
X155012382Y-101241878D01*
X155012380Y-101241879D01*
X154803035Y-101384608D01*
X154803034Y-101384609D01*
X154640333Y-101535573D01*
X154587233Y-101555275D01*
X154539667Y-101535573D01*
X154491303Y-101490698D01*
X154376965Y-101384608D01*
X154167620Y-101241879D01*
X154048547Y-101184537D01*
X153939346Y-101131948D01*
X153939342Y-101131946D01*
X153939341Y-101131946D01*
X153939336Y-101131944D01*
X153939332Y-101131943D01*
X153697226Y-101057262D01*
X153697227Y-101057262D01*
X153446691Y-101019500D01*
X153446685Y-101019500D01*
X153193315Y-101019500D01*
X153193308Y-101019500D01*
X152942773Y-101057262D01*
X152700667Y-101131943D01*
X152700653Y-101131948D01*
X152472382Y-101241878D01*
X152472380Y-101241879D01*
X152263035Y-101384608D01*
X152263034Y-101384609D01*
X152100333Y-101535573D01*
X152047233Y-101555275D01*
X151999667Y-101535573D01*
X151951303Y-101490698D01*
X151836965Y-101384608D01*
X151627620Y-101241879D01*
X151508547Y-101184537D01*
X151399346Y-101131948D01*
X151399342Y-101131946D01*
X151399341Y-101131946D01*
X151399336Y-101131944D01*
X151399332Y-101131943D01*
X151157226Y-101057262D01*
X151157227Y-101057262D01*
X150906691Y-101019500D01*
X150906685Y-101019500D01*
X150653315Y-101019500D01*
X150653308Y-101019500D01*
X150402773Y-101057262D01*
X150160667Y-101131943D01*
X150160653Y-101131948D01*
X149932382Y-101241878D01*
X149932380Y-101241879D01*
X149723035Y-101384608D01*
X149723034Y-101384609D01*
X149560333Y-101535573D01*
X149507233Y-101555275D01*
X149459667Y-101535573D01*
X149411303Y-101490698D01*
X149296965Y-101384608D01*
X149087620Y-101241879D01*
X148968547Y-101184537D01*
X148859346Y-101131948D01*
X148859342Y-101131946D01*
X148859341Y-101131946D01*
X148859336Y-101131944D01*
X148859332Y-101131943D01*
X148617226Y-101057262D01*
X148617227Y-101057262D01*
X148366691Y-101019500D01*
X148366685Y-101019500D01*
X148113315Y-101019500D01*
X148113308Y-101019500D01*
X147862773Y-101057262D01*
X147620667Y-101131943D01*
X147620653Y-101131948D01*
X147392382Y-101241878D01*
X147392380Y-101241879D01*
X147183035Y-101384608D01*
X147183034Y-101384609D01*
X147020333Y-101535573D01*
X146967233Y-101555275D01*
X146919667Y-101535573D01*
X146871303Y-101490698D01*
X146756965Y-101384608D01*
X146547620Y-101241879D01*
X146428547Y-101184537D01*
X146319346Y-101131948D01*
X146319342Y-101131946D01*
X146319341Y-101131946D01*
X146319336Y-101131944D01*
X146319332Y-101131943D01*
X146077226Y-101057262D01*
X146077227Y-101057262D01*
X145826691Y-101019500D01*
X145826685Y-101019500D01*
X145573315Y-101019500D01*
X145573308Y-101019500D01*
X145322773Y-101057262D01*
X145080667Y-101131943D01*
X145080653Y-101131948D01*
X144852382Y-101241878D01*
X144852380Y-101241879D01*
X144643035Y-101384608D01*
X144643034Y-101384609D01*
X144480333Y-101535573D01*
X144427233Y-101555275D01*
X144379667Y-101535573D01*
X144331303Y-101490698D01*
X144216965Y-101384608D01*
X144007620Y-101241879D01*
X143888547Y-101184537D01*
X143779346Y-101131948D01*
X143779342Y-101131946D01*
X143779341Y-101131946D01*
X143779336Y-101131944D01*
X143779332Y-101131943D01*
X143537226Y-101057262D01*
X143537227Y-101057262D01*
X143286691Y-101019500D01*
X143286685Y-101019500D01*
X143033315Y-101019500D01*
X143033308Y-101019500D01*
X142782773Y-101057262D01*
X142540667Y-101131943D01*
X142540653Y-101131948D01*
X142312382Y-101241878D01*
X142312380Y-101241879D01*
X142103035Y-101384608D01*
X142103034Y-101384609D01*
X141940333Y-101535573D01*
X141887233Y-101555275D01*
X141839667Y-101535573D01*
X141791303Y-101490698D01*
X141676965Y-101384608D01*
X141467620Y-101241879D01*
X141348547Y-101184537D01*
X141239346Y-101131948D01*
X141239342Y-101131946D01*
X141239341Y-101131946D01*
X141239336Y-101131944D01*
X141239332Y-101131943D01*
X140997226Y-101057262D01*
X140997227Y-101057262D01*
X140746691Y-101019500D01*
X140746685Y-101019500D01*
X140493315Y-101019500D01*
X140493308Y-101019500D01*
X140242773Y-101057262D01*
X140000667Y-101131943D01*
X140000653Y-101131948D01*
X139772382Y-101241878D01*
X139772380Y-101241879D01*
X139563035Y-101384608D01*
X139563034Y-101384609D01*
X139400333Y-101535573D01*
X139347233Y-101555275D01*
X139299667Y-101535573D01*
X139251303Y-101490698D01*
X139136965Y-101384608D01*
X138927620Y-101241879D01*
X138808547Y-101184537D01*
X138699346Y-101131948D01*
X138699342Y-101131946D01*
X138699341Y-101131946D01*
X138699336Y-101131944D01*
X138699332Y-101131943D01*
X138457226Y-101057262D01*
X138457227Y-101057262D01*
X138206691Y-101019500D01*
X138206685Y-101019500D01*
X137953315Y-101019500D01*
X137953308Y-101019500D01*
X137702773Y-101057262D01*
X137460667Y-101131943D01*
X137460653Y-101131948D01*
X137232382Y-101241878D01*
X137232380Y-101241879D01*
X137023035Y-101384608D01*
X137023034Y-101384609D01*
X136860333Y-101535573D01*
X136807233Y-101555275D01*
X136759667Y-101535573D01*
X136711303Y-101490698D01*
X136596965Y-101384608D01*
X136387620Y-101241879D01*
X136268547Y-101184537D01*
X136159346Y-101131948D01*
X136159342Y-101131946D01*
X136159341Y-101131946D01*
X136159336Y-101131944D01*
X136159332Y-101131943D01*
X135917226Y-101057262D01*
X135917227Y-101057262D01*
X135666691Y-101019500D01*
X135666685Y-101019500D01*
X135413315Y-101019500D01*
X135413308Y-101019500D01*
X135162773Y-101057262D01*
X134920667Y-101131943D01*
X134920653Y-101131948D01*
X134692382Y-101241878D01*
X134692380Y-101241879D01*
X134483035Y-101384608D01*
X134483034Y-101384609D01*
X134320333Y-101535573D01*
X134267233Y-101555275D01*
X134219667Y-101535573D01*
X134171303Y-101490698D01*
X134056965Y-101384608D01*
X133847620Y-101241879D01*
X133728547Y-101184537D01*
X133619346Y-101131948D01*
X133619342Y-101131946D01*
X133619341Y-101131946D01*
X133619336Y-101131944D01*
X133619332Y-101131943D01*
X133377226Y-101057262D01*
X133377227Y-101057262D01*
X133126691Y-101019500D01*
X133126685Y-101019500D01*
X132873315Y-101019500D01*
X132873308Y-101019500D01*
X132622773Y-101057262D01*
X132380667Y-101131943D01*
X132380653Y-101131948D01*
X132152382Y-101241878D01*
X132152380Y-101241879D01*
X131943035Y-101384608D01*
X131943034Y-101384609D01*
X131757304Y-101556940D01*
X131599324Y-101755040D01*
X131599323Y-101755042D01*
X131472641Y-101974464D01*
X131380076Y-102210315D01*
X131380075Y-102210318D01*
X131380075Y-102210319D01*
X131323694Y-102457338D01*
X131304760Y-102710000D01*
X131323694Y-102962662D01*
X131380075Y-103209681D01*
X131472642Y-103445537D01*
X131599327Y-103664963D01*
X131599329Y-103664966D01*
X131599330Y-103664967D01*
X131599332Y-103664971D01*
X131601620Y-103667839D01*
X131617304Y-103722261D01*
X131590132Y-103771658D01*
X131552172Y-103802171D01*
X131437634Y-103944663D01*
X131356405Y-104108447D01*
X131312283Y-104285867D01*
X131309500Y-104326912D01*
X131309500Y-104326917D01*
X131309500Y-105057314D01*
X131309501Y-105775500D01*
X131287827Y-105827826D01*
X131235501Y-105849500D01*
X102552727Y-105849500D01*
X102447273Y-105849500D01*
X102396342Y-105863146D01*
X102345411Y-105876793D01*
X102345407Y-105876795D01*
X102254090Y-105929517D01*
X92429517Y-115754090D01*
X92376792Y-115845412D01*
X92376793Y-115845413D01*
X92349500Y-115947273D01*
X92349500Y-139197273D01*
X92349500Y-139302727D01*
X92376793Y-139404588D01*
X92376795Y-139404592D01*
X92429517Y-139495909D01*
X92429518Y-139495910D01*
X92429520Y-139495913D01*
X94063905Y-141130298D01*
X95694510Y-142760903D01*
X95716184Y-142813229D01*
X95700436Y-142858866D01*
X95585308Y-143005816D01*
X95420988Y-143277635D01*
X95420983Y-143277644D01*
X95290625Y-143567289D01*
X95196134Y-143870522D01*
X95138878Y-144182953D01*
X95119701Y-144500000D01*
X95138878Y-144817046D01*
X95196134Y-145129477D01*
X95290625Y-145432710D01*
X95290627Y-145432715D01*
X95290628Y-145432717D01*
X95420986Y-145722361D01*
X95585306Y-145994180D01*
X95781193Y-146244211D01*
X96005789Y-146468807D01*
X96255820Y-146664694D01*
X96527639Y-146829014D01*
X96817283Y-146959372D01*
X97120528Y-147053867D01*
X97432952Y-147111121D01*
X97750000Y-147130299D01*
X98067048Y-147111121D01*
X98379472Y-147053867D01*
X98682717Y-146959372D01*
X98972361Y-146829014D01*
X99244180Y-146664694D01*
X99494211Y-146468807D01*
X99718807Y-146244211D01*
X99914694Y-145994180D01*
X100079014Y-145722361D01*
X100209372Y-145432717D01*
X100303867Y-145129472D01*
X100361121Y-144817048D01*
X100380299Y-144500000D01*
X100361121Y-144182952D01*
X100303867Y-143870528D01*
X100209372Y-143567283D01*
X100079014Y-143277639D01*
X99914694Y-143005820D01*
X99718807Y-142755789D01*
X99494211Y-142531193D01*
X99244180Y-142335306D01*
X98972361Y-142170986D01*
X98972357Y-142170984D01*
X98972355Y-142170983D01*
X98682710Y-142040625D01*
X98379477Y-141946134D01*
X98067046Y-141888878D01*
X97750000Y-141869701D01*
X97432953Y-141888878D01*
X97120522Y-141946134D01*
X96817290Y-142040625D01*
X96527637Y-142170987D01*
X96396351Y-142250351D01*
X96340358Y-142258873D01*
X96305742Y-142239349D01*
X93172174Y-139105781D01*
X93150500Y-139053455D01*
X93150500Y-135500000D01*
X95119701Y-135500000D01*
X95138878Y-135817046D01*
X95196134Y-136129477D01*
X95290625Y-136432710D01*
X95290627Y-136432715D01*
X95290628Y-136432717D01*
X95420986Y-136722361D01*
X95585306Y-136994180D01*
X95781193Y-137244211D01*
X96005789Y-137468807D01*
X96255820Y-137664694D01*
X96527639Y-137829014D01*
X96817283Y-137959372D01*
X97120528Y-138053867D01*
X97432952Y-138111121D01*
X97750000Y-138130299D01*
X98067048Y-138111121D01*
X98379472Y-138053867D01*
X98682717Y-137959372D01*
X98972361Y-137829014D01*
X99244180Y-137664694D01*
X99494211Y-137468807D01*
X99718807Y-137244211D01*
X99914694Y-136994180D01*
X100079014Y-136722361D01*
X100209372Y-136432717D01*
X100303867Y-136129472D01*
X100361121Y-135817048D01*
X100380299Y-135500000D01*
X100361121Y-135182952D01*
X100303867Y-134870528D01*
X100236577Y-134654588D01*
X100209374Y-134567289D01*
X100209373Y-134567288D01*
X100209372Y-134567283D01*
X100079014Y-134277639D01*
X99914694Y-134005820D01*
X99718807Y-133755789D01*
X99494211Y-133531193D01*
X99244180Y-133335306D01*
X98972361Y-133170986D01*
X98972357Y-133170984D01*
X98972355Y-133170983D01*
X98682710Y-133040625D01*
X98379477Y-132946134D01*
X98067046Y-132888878D01*
X97750000Y-132869701D01*
X97432953Y-132888878D01*
X97120522Y-132946134D01*
X96817289Y-133040625D01*
X96527644Y-133170983D01*
X96527635Y-133170988D01*
X96255819Y-133335306D01*
X96005788Y-133531193D01*
X95781193Y-133755788D01*
X95585306Y-134005819D01*
X95420988Y-134277635D01*
X95420983Y-134277644D01*
X95290625Y-134567289D01*
X95196134Y-134870522D01*
X95138878Y-135182953D01*
X95119701Y-135500000D01*
X93150500Y-135500000D01*
X93150500Y-126500000D01*
X95119701Y-126500000D01*
X95138878Y-126817046D01*
X95196134Y-127129477D01*
X95290625Y-127432710D01*
X95290627Y-127432715D01*
X95290628Y-127432717D01*
X95420986Y-127722361D01*
X95585306Y-127994180D01*
X95781193Y-128244211D01*
X96005789Y-128468807D01*
X96255820Y-128664694D01*
X96527639Y-128829014D01*
X96817283Y-128959372D01*
X97120528Y-129053867D01*
X97432952Y-129111121D01*
X97750000Y-129130299D01*
X98067048Y-129111121D01*
X98379472Y-129053867D01*
X98682717Y-128959372D01*
X98972361Y-128829014D01*
X99244180Y-128664694D01*
X99494211Y-128468807D01*
X99718807Y-128244211D01*
X99914694Y-127994180D01*
X100079014Y-127722361D01*
X100209372Y-127432717D01*
X100303867Y-127129472D01*
X100361121Y-126817048D01*
X100380299Y-126500000D01*
X100361121Y-126182952D01*
X100303867Y-125870528D01*
X100243409Y-125676510D01*
X100209374Y-125567289D01*
X100209373Y-125567288D01*
X100209372Y-125567283D01*
X100079014Y-125277639D01*
X99914694Y-125005820D01*
X99718807Y-124755789D01*
X99494211Y-124531193D01*
X99244180Y-124335306D01*
X98972361Y-124170986D01*
X98972357Y-124170984D01*
X98972355Y-124170983D01*
X98682710Y-124040625D01*
X98379477Y-123946134D01*
X98067046Y-123888878D01*
X97750000Y-123869701D01*
X97432953Y-123888878D01*
X97120522Y-123946134D01*
X96817289Y-124040625D01*
X96527644Y-124170983D01*
X96527635Y-124170988D01*
X96255819Y-124335306D01*
X96005788Y-124531193D01*
X95781193Y-124755788D01*
X95585306Y-125005819D01*
X95420988Y-125277635D01*
X95420983Y-125277644D01*
X95290625Y-125567289D01*
X95196134Y-125870522D01*
X95138878Y-126182953D01*
X95119701Y-126500000D01*
X93150500Y-126500000D01*
X93150500Y-116196545D01*
X93172174Y-116144219D01*
X102644219Y-106672174D01*
X102696545Y-106650500D01*
X131478668Y-106650500D01*
X131530994Y-106672174D01*
X131536344Y-106678138D01*
X131552169Y-106697825D01*
X131552170Y-106697826D01*
X131552172Y-106697828D01*
X131694664Y-106812366D01*
X131858448Y-106893595D01*
X132035863Y-106937716D01*
X132076917Y-106940500D01*
X133923082Y-106940499D01*
X133964137Y-106937716D01*
X134080509Y-106908775D01*
X134136517Y-106917180D01*
X134170179Y-106962729D01*
X134161774Y-107018739D01*
X134150692Y-107032914D01*
X131355781Y-109827826D01*
X131303455Y-109849500D01*
X125447271Y-109849500D01*
X125345417Y-109876791D01*
X125345408Y-109876795D01*
X125254086Y-109929520D01*
X117929517Y-117254090D01*
X117876795Y-117345407D01*
X117876791Y-117345416D01*
X117868384Y-117376791D01*
X117868385Y-117376792D01*
X117849500Y-117447273D01*
X117849500Y-152303455D01*
X117827826Y-152355781D01*
X114980781Y-155202826D01*
X114928455Y-155224500D01*
X101442505Y-155224500D01*
X101390179Y-155202826D01*
X101368505Y-155150500D01*
X101375024Y-155120130D01*
X101377699Y-155114187D01*
X101459372Y-154932717D01*
X101553867Y-154629472D01*
X101611121Y-154317048D01*
X101630299Y-154000000D01*
X101611121Y-153682952D01*
X101553867Y-153370528D01*
X101468481Y-153096514D01*
X101473606Y-153040111D01*
X101517115Y-153003851D01*
X101539130Y-153000500D01*
X114815894Y-153000500D01*
X114815894Y-153000499D01*
X114943186Y-152966392D01*
X115057314Y-152900500D01*
X115150500Y-152807314D01*
X115216392Y-152693186D01*
X115250499Y-152565894D01*
X115250500Y-152565894D01*
X115250500Y-114434106D01*
X115250499Y-114434105D01*
X115216393Y-114306818D01*
X115216392Y-114306814D01*
X115150500Y-114192686D01*
X115057314Y-114099500D01*
X114943190Y-114033610D01*
X114943181Y-114033606D01*
X114815894Y-113999500D01*
X114815892Y-113999500D01*
X101315892Y-113999500D01*
X101184108Y-113999500D01*
X101184106Y-113999500D01*
X101056818Y-114033606D01*
X101056809Y-114033610D01*
X100942685Y-114099500D01*
X100849500Y-114192685D01*
X100783610Y-114306809D01*
X100783606Y-114306818D01*
X100749500Y-114434105D01*
X100749500Y-151883354D01*
X100727826Y-151935680D01*
X100675500Y-151957354D01*
X100629863Y-151941606D01*
X100494180Y-151835306D01*
X100412965Y-151786210D01*
X100222361Y-151670986D01*
X100222357Y-151670984D01*
X100222355Y-151670983D01*
X99932710Y-151540625D01*
X99629477Y-151446134D01*
X99317046Y-151388878D01*
X99000000Y-151369701D01*
X98682953Y-151388878D01*
X98370522Y-151446134D01*
X98067289Y-151540625D01*
X97777644Y-151670983D01*
X97777635Y-151670988D01*
X97505819Y-151835306D01*
X97255788Y-152031193D01*
X97031193Y-152255788D01*
X96835306Y-152505819D01*
X96670988Y-152777635D01*
X96670983Y-152777644D01*
X96540625Y-153067289D01*
X96446134Y-153370522D01*
X96428473Y-153466893D01*
X96397722Y-153514455D01*
X96342346Y-153526342D01*
X96294784Y-153495591D01*
X96284577Y-153474040D01*
X96275184Y-153441438D01*
X96137647Y-153109392D01*
X96137636Y-153109371D01*
X95963793Y-152794826D01*
X95963789Y-152794819D01*
X95755796Y-152501681D01*
X95649786Y-152383056D01*
X95649786Y-152383055D01*
X94514495Y-153518345D01*
X94470412Y-153457670D01*
X94292330Y-153279588D01*
X94231652Y-153235502D01*
X95366942Y-152100213D01*
X95248313Y-151994199D01*
X94955180Y-151786210D01*
X94955173Y-151786206D01*
X94640628Y-151612363D01*
X94640607Y-151612352D01*
X94308560Y-151474815D01*
X93963183Y-151375313D01*
X93963185Y-151375313D01*
X93608865Y-151315113D01*
X93608853Y-151315111D01*
X93250000Y-151294958D01*
X92891146Y-151315111D01*
X92891134Y-151315113D01*
X92536815Y-151375313D01*
X92191439Y-151474815D01*
X91859392Y-151612352D01*
X91859371Y-151612363D01*
X91544826Y-151786206D01*
X91544819Y-151786210D01*
X91251686Y-151994199D01*
X91133055Y-152100212D01*
X92268346Y-153235503D01*
X92207670Y-153279588D01*
X92029588Y-153457670D01*
X91985503Y-153518346D01*
X90850212Y-152383055D01*
X90744199Y-152501686D01*
X90536210Y-152794819D01*
X90536206Y-152794826D01*
X90362363Y-153109371D01*
X90362352Y-153109392D01*
X90224815Y-153441439D01*
X90125313Y-153786815D01*
X90065113Y-154141134D01*
X90065111Y-154141146D01*
X90044958Y-154500000D01*
X89500500Y-154500000D01*
X89500500Y-109500000D01*
X90044958Y-109500000D01*
X90065111Y-109858853D01*
X90065113Y-109858865D01*
X90125313Y-110213184D01*
X90224815Y-110558560D01*
X90362352Y-110890607D01*
X90362363Y-110890628D01*
X90536206Y-111205173D01*
X90536210Y-111205180D01*
X90744199Y-111498313D01*
X90850213Y-111616942D01*
X91985502Y-110481652D01*
X92029588Y-110542330D01*
X92207670Y-110720412D01*
X92268346Y-110764495D01*
X91133055Y-111899786D01*
X91251681Y-112005796D01*
X91544819Y-112213789D01*
X91544826Y-112213793D01*
X91859371Y-112387636D01*
X91859392Y-112387647D01*
X92191439Y-112525184D01*
X92536816Y-112624686D01*
X92536814Y-112624686D01*
X92891134Y-112684886D01*
X92891146Y-112684888D01*
X93250000Y-112705041D01*
X93608853Y-112684888D01*
X93608865Y-112684886D01*
X93963184Y-112624686D01*
X94308560Y-112525184D01*
X94640607Y-112387647D01*
X94640628Y-112387636D01*
X94955173Y-112213793D01*
X94955180Y-112213789D01*
X95248318Y-112005796D01*
X95366942Y-111899786D01*
X95366943Y-111899786D01*
X94231653Y-110764496D01*
X94292330Y-110720412D01*
X94470412Y-110542330D01*
X94514496Y-110481653D01*
X95649786Y-111616943D01*
X95649786Y-111616942D01*
X95755796Y-111498318D01*
X95963789Y-111205180D01*
X95963793Y-111205173D01*
X96137636Y-110890628D01*
X96137647Y-110890607D01*
X96275184Y-110558560D01*
X96374686Y-110213184D01*
X96434886Y-109858865D01*
X96434888Y-109858853D01*
X96455041Y-109500000D01*
X96434888Y-109141146D01*
X96434886Y-109141134D01*
X96374686Y-108786815D01*
X96275184Y-108441439D01*
X96137647Y-108109392D01*
X96137636Y-108109371D01*
X95963793Y-107794826D01*
X95963789Y-107794819D01*
X95755796Y-107501681D01*
X95649786Y-107383056D01*
X95649786Y-107383055D01*
X94514495Y-108518345D01*
X94470412Y-108457670D01*
X94292330Y-108279588D01*
X94231652Y-108235502D01*
X95366942Y-107100213D01*
X95248313Y-106994199D01*
X94955180Y-106786210D01*
X94955173Y-106786206D01*
X94640628Y-106612363D01*
X94640607Y-106612352D01*
X94308560Y-106474815D01*
X93963183Y-106375313D01*
X93963185Y-106375313D01*
X93608865Y-106315113D01*
X93608853Y-106315111D01*
X93250000Y-106294958D01*
X92891146Y-106315111D01*
X92891134Y-106315113D01*
X92536815Y-106375313D01*
X92191439Y-106474815D01*
X91859392Y-106612352D01*
X91859371Y-106612363D01*
X91544826Y-106786206D01*
X91544819Y-106786210D01*
X91251686Y-106994199D01*
X91133055Y-107100212D01*
X92268346Y-108235503D01*
X92207670Y-108279588D01*
X92029588Y-108457670D01*
X91985503Y-108518346D01*
X90850212Y-107383055D01*
X90744199Y-107501686D01*
X90536210Y-107794819D01*
X90536206Y-107794826D01*
X90362363Y-108109371D01*
X90362352Y-108109392D01*
X90224815Y-108441439D01*
X90125313Y-108786815D01*
X90065113Y-109141134D01*
X90065111Y-109141146D01*
X90044958Y-109500000D01*
X89500500Y-109500000D01*
X89500500Y-105324500D01*
X89522174Y-105272174D01*
X89574500Y-105250500D01*
X122065894Y-105250500D01*
X122065894Y-105250499D01*
X122193186Y-105216392D01*
X122307314Y-105150500D01*
X122400500Y-105057314D01*
X122466392Y-104943186D01*
X122500499Y-104815894D01*
X122500500Y-104815894D01*
X122500500Y-92324500D01*
X122522174Y-92272174D01*
X122574500Y-92250500D01*
X171425500Y-92250500D01*
X171477826Y-92272174D01*
G37*
%TD.AperFunction*%
%TD*%
M02*
