999
dxfrw 0.6.3
  0
SECTION
  2
HEADER
  9
$ACADVER
  1
AC1021
  9
$DWGCODEPAGE
  3
ANSI_1252
  9
$INSBASE
 10
0
 20
0
 30
0
  9
$EXTMIN
 10
2.246478430232559
 20
-270.6795039328166
 30
0
  9
$EXTMAX
 10
483.2464784302326
 20
-1.679503932816601
 30
0
  9
$LIMMIN
 10
0
 20
0
  9
$LIMMAX
 10
420
 20
297
  9
$ORTHOMODE
 70
    0
  9
$REGENMODE
 70
    1
  9
$FILLMODE
 70
    1
  9
$QTEXTMODE
 70
    0
  9
$MIRRTEXT
 70
    0
  9
$LTSCALE
 40
1
  9
$ATTMODE
 70
    0
  9
$TEXTSIZE
 40
2.5
  9
$TRACEWID
 40
15.68
  9
$TEXTSTYLE
  7
STANDARD
  9
$CLAYER
  8
0
  9
$CELTYPE
  6
BYLAYER
  9
$CECOLOR
 62
  256
  9
$CELTSCALE
 40
1
  9
$DISPSILH
 70
    0
  9
$DIMSCALE
 40
2
  9
$DIMASZ
 40
2.5
  9
$DIMEXO
 40
0.625
  9
$DIMDLI
 40
3.75
  9
$DIMRND
 40
0
  9
$DIMDLE
 40
0
  9
$DIMEXE
 40
1.25
  9
$DIMTP
 40
0
  9
$DIMTM
 40
0
  9
$DIMTXT
 40
2.5
  9
$DIMCEN
 40
2.5
  9
$DIMTSZ
 40
0
  9
$DIMTOL
 70
    0
  9
$DIMLIM
 70
    0
  9
$DIMTIH
 70
    0
  9
$DIMTOH
 70
    0
  9
$DIMSE1
 70
    0
  9
$DIMSE2
 70
    0
  9
$DIMTAD
 70
    1
  9
$DIMZIN
 70
    1
  9
$DIMBLK
  1

  9
$DIMASO
 70
    1
  9
$DIMSHO
 70
    1
  9
$DIMPOST
  1

  9
$DIMAPOST
  1

  9
$DIMALT
 70
    0
  9
$DIMALTD
 70
    3
  9
$DIMALTF
 40
0.03937
  9
$DIMLFAC
 40
0.2824858757062147
  9
$DIMTOFL
 70
    1
  9
$DIMTVP
 40
0
  9
$DIMTIX
 70
    0
  9
$DIMSOXD
 70
    0
  9
$DIMSAH
 70
    0
  9
$DIMBLK1
  1

  9
$DIMBLK2
  1

  9
$DIMSTYLE
  2
STANDARD
  9
$DIMCLRD
 70
    0
  9
$DIMCLRE
 70
    0
  9
$DIMCLRT
 70
    0
  9
$DIMTFAC
 40
1
  9
$DIMGAP
 40
0.625
  9
$DIMJUST
 70
    0
  9
$DIMSD1
 70
    0
  9
$DIMSD2
 70
    0
  9
$DIMTOLJ
 70
    0
  9
$DIMTZIN
 70
    8
  9
$DIMALTZ
 70
    0
  9
$DIMALTTZ
 70
    0
  9
$DIMUPT
 70
    0
  9
$DIMDEC
 70
    1
  9
$DIMTDEC
 70
    2
  9
$DIMALTU
 70
    2
  9
$DIMALTTD
 70
    3
  9
$DIMTXSTY
  7
standard
  9
$DIMAUNIT
 70
    0
  9
$DIMADEC
 70
    2
  9
$DIMALTRND
 40
0
  9
$DIMAZIN
 70
    0
  9
$DIMDSEP
 70
    0
  9
$DIMATFIT
 70
    3
  9
$DIMFRAC
 70
    0
  9
$DIMLDRBLK
  1
STANDARD
  9
$DIMLUNIT
 70
    2
  9
$DIMLWD
 70
   -2
  9
$DIMLWE
 70
   -2
  9
$DIMTMOVE
 70
    0
  9
$DIMFXL
 40
1
  9
$DIMFXLON
 70
    0
  9
$DIMJOGANG
 40
0.7854
  9
$DIMTFILL
 70
    0
  9
$DIMTFILLCLR
 70
    0
  9
$DIMARCSYM
 70
    0
  9
$DIMLTYPE
  6

  9
$DIMLTEX1
  6

  9
$DIMLTEX2
  6

  9
$LUNITS
 70
    2
  9
$LUPREC
 70
    3
  9
$SKETCHINC
 40
1
  9
$FILLETRAD
 40
0
  9
$AUNITS
 70
    0
  9
$AUPREC
 70
    2
  9
$MENU
  1
.
  9
$ELEVATION
 40
0
  9
$PELEVATION
 40
0
  9
$THICKNESS
 40
0
  9
$LIMCHECK
 70
    0
  9
$CHAMFERA
 40
0
  9
$CHAMFERB
 40
0
  9
$CHAMFERC
 40
0
  9
$CHAMFERD
 40
0
  9
$SKPOLY
 70
    0
  9
$USRTIMER
 70
    1
  9
$ANGBASE
 50
0
  9
$ANGDIR
 70
    0
  9
$PDMODE
 70
   34
  9
$PDSIZE
 40
0
  9
$PLINEWID
 40
0
  9
$SPLFRAME
 70
    0
  9
$SPLINETYPE
 70
    2
  9
$SPLINESEGS
 70
    8
  9
$HANDSEED
  5
20000
  9
$SURFTAB1
 70
    6
  9
$SURFTAB2
 70
    6
  9
$SURFTYPE
 70
    6
  9
$SURFU
 70
    6
  9
$SURFV
 70
    6
  9
$UCSBASE
  2

  9
$UCSNAME
  2

  9
$UCSORG
 10
0
 20
0
 30
0
  9
$UCSXDIR
 10
1
 20
0
 30
0
  9
$UCSYDIR
 10
0
 20
1
 30
0
  9
$UCSORTHOREF
  2

  9
$UCSORTHOVIEW
 70
    0
  9
$UCSORGTOP
 10
0
 20
0
 30
0
  9
$UCSORGBOTTOM
 10
0
 20
0
 30
0
  9
$UCSORGLEFT
 10
0
 20
0
 30
0
  9
$UCSORGRIGHT
 10
0
 20
0
 30
0
  9
$UCSORGFRONT
 10
0
 20
0
 30
0
  9
$UCSORGBACK
 10
0
 20
0
 30
0
  9
$PUCSBASE
  2

  9
$PUCSNAME
  2

  9
$PUCSORG
 10
0
 20
0
 30
0
  9
$PUCSXDIR
 10
1
 20
0
 30
0
  9
$PUCSYDIR
 10
0
 20
1
 30
0
  9
$PUCSORTHOREF
  2

  9
$PUCSORTHOVIEW
 70
    0
  9
$PUCSORGTOP
 10
0
 20
0
 30
0
  9
$PUCSORGBOTTOM
 10
0
 20
0
 30
0
  9
$PUCSORGLEFT
 10
0
 20
0
 30
0
  9
$PUCSORGRIGHT
 10
0
 20
0
 30
0
  9
$PUCSORGFRONT
 10
0
 20
0
 30
0
  9
$PUCSORGBACK
 10
0
 20
0
 30
0
  9
$USERI1
 70
    0
  9
$USERI2
 70
    0
  9
$USERI3
 70
    0
  9
$USERI4
 70
    0
  9
$USERI5
 70
    0
  9
$USERR1
 40
0
  9
$USERR2
 40
0
  9
$USERR3
 40
0
  9
$USERR4
 40
0
  9
$USERR5
 40
0
  9
$WORLDVIEW
 70
    1
  9
$SHADEDGE
 70
    3
  9
$SHADEDIF
 70
   70
  9
$TILEMODE
 70
    1
  9
$MAXACTVP
 70
   64
  9
$PINSBASE
 10
0
 20
0
 30
0
  9
$PLIMCHECK
 70
    0
  9
$PEXTMIN
 10
0
 20
0
 30
0
  9
$PEXTMAX
 10
0
 20
0
 30
0
  9
$GRIDMODE
 70
    1
  9
$SNAPSTYLE
 70
    0
  9
$GRIDUNIT
 10
0
 20
0
  9
$PLIMMIN
 10
0
 20
0
  9
$PLIMMAX
 10
210
 20
297
  9
$UNITMODE
 70
    0
  9
$VISRETAIN
 70
    1
  9
$PLINEGEN
 70
    0
  9
$PSLTSCALE
 70
    1
  9
$TREEDEPTH
 70
 3020
  9
$CMLSTYLE
  2
Standard
  9
$CMLJUST
 70
    0
  9
$CMLSCALE
 40
20
  9
$PROXYGRAPHICS
 70
    1
  9
$MEASUREMENT
 70
    1
  9
$CELWEIGHT
370
   -1
  9
$ENDCAPS
280
    0
  9
$JOINSTYLE
280
    0
  9
$LWDISPLAY
290
    0
  9
$INSUNITS
 70
    4
  9
$HYPERLINKBASE
  1

  9
$STYLESHEET
  1

  9
$XEDIT
290
    1
  9
$CEPSNTYPE
380
    0
  9
$PSTYLEMODE
290
    1
  9
$EXTNAMES
290
    1
  9
$PSVPSCALE
 40
1
  9
$OLESTARTUP
290
    0
  9
$SORTENTS
280
  127
  9
$INDEXCTL
280
    0
  9
$HIDETEXT
280
    1
  9
$XCLIPFRAME
290
    0
  9
$HALOGAP
280
    0
  9
$OBSCOLOR
 70
  257
  9
$OBSLTYPE
280
    0
  9
$INTERSECTIONDISPLAY
280
    0
  9
$INTERSECTIONCOLOR
 70
  257
  9
$DIMASSOC
280
    1
  9
$PROJECTNAME
  1

  9
$CAMERADISPLAY
290
    0
  9
$LENSLENGTH
 40
50
  9
$CAMERAHEIGHT
 40
0
  9
$STEPSPERSEC
 40
2
  9
$STEPSIZE
 40
50
  9
$3DDWFPREC
 40
2
  9
$PSOLWIDTH
 40
5
  9
$PSOLHEIGHT
 40
80
  9
$LOFTANG1
 40
1.570796326794897
  9
$LOFTANG2
 40
1.570796326794897
  9
$LOFTMAG1
 40
0
  9
$LOFTMAG2
 40
0
  9
$LOFTPARAM
 70
    7
  9
$LOFTNORMALS
280
    1
  9
$LATITUDE
 40
1
  9
$LONGITUDE
 40
1
  9
$NORTHDIRECTION
 40
0
  9
$TIMEZONE
 70
-8000
  9
$LIGHTGLYPHDISPLAY
280
    1
  9
$TILEMODELIGHTSYNCH
280
    1
  9
$SOLIDHIST
280
    1
  9
$SHOWHIST
280
    1
  9
$DWFFRAME
280
    2
  9
$DGNFRAME
280
    0
  9
$REALWORLDSCALE
290
    1
  9
$INTERFERECOLOR
 62
    1
  9
$CSHADOW
280
    0
  9
$SHADOWPLANELOCATION
 40
0
  0
ENDSEC
  0
SECTION
  2
CLASSES
  0
ENDSEC
  0
SECTION
  2
TABLES
  0
TABLE
  2
VPORT
  5
8
330
0
100
AcDbSymbolTable
 70
    1
  0
VPORT
  5
31
330
2
100
AcDbSymbolTableRecord
100
AcDbViewportTableRecord
  2
*ACTIVE
 70
    0
 10
0
 20
0
 11
1
 21
1
 12
257.3572351421188
 22
1.042635658914729
 13
0
 23
0
 14
10
 24
10
 15
10
 25
10
 16
0
 26
0
 36
1
 17
0
 27
0
 37
0
 40
275.9509043927649
 41
1.97103274559194
 42
50
 43
0
 44
0
 50
0
 51
0
 71
    0
 72
  100
 73
    1
 74
    3
 75
    0
 76
    1
 77
    0
 78
    0
281
    0
 65
    1
110
0
120
0
130
0
111
1
121
0
131
0
112
0
122
1
132
0
 79
    0
146
0
348
10020
 60
    7
 61
    5
292
1
282
    1
141
0
142
0
 63
  250
421
3358443
  0
ENDTAB
  0
TABLE
  2
LTYPE
  5
5
330
0
100
AcDbSymbolTable
 70
    4
  0
LTYPE
  5
14
330
5
100
AcDbSymbolTableRecord
100
AcDbLinetypeTableRecord
  2
ByBlock
 70
    0
  3

 72
   65
 73
    0
 40
0
  0
LTYPE
  5
15
330
5
100
AcDbSymbolTableRecord
100
AcDbLinetypeTableRecord
  2
ByLayer
 70
    0
  3

 72
   65
 73
    0
 40
0
  0
LTYPE
  5
16
330
5
100
AcDbSymbolTableRecord
100
AcDbLinetypeTableRecord
  2
Continuous
 70
    0
  3
Solid line
 72
   65
 73
    0
 40
0
  0
LTYPE
  5
32
330
5
100
AcDbSymbolTableRecord
100
AcDbLinetypeTableRecord
  2
DOT
 70
    0
  3
Dot . . . . . . . . . . . . . . . . . . . . . .
 72
   65
 73
    2
 40
6.35
 49
0
 74
    0
 49
-6.35
 74
    0
  0
LTYPE
  5
33
330
5
100
AcDbSymbolTableRecord
100
AcDbLinetypeTableRecord
  2
DOTTINY
 70
    0
  3
Dot (.15x) .....................................
 72
   65
 73
    2
 40
0.9525
 49
0
 74
    0
 49
-0.9525
 74
    0
  0
LTYPE
  5
34
330
5
100
AcDbSymbolTableRecord
100
AcDbLinetypeTableRecord
  2
DOT2
 70
    0
  3
Dot (.5x) .....................................
 72
   65
 73
    2
 40
3.175
 49
0
 74
    0
 49
-3.175
 74
    0
  0
LTYPE
  5
35
330
5
100
AcDbSymbolTableRecord
100
AcDbLinetypeTableRecord
  2
DOTX2
 70
    0
  3
Dot (2x) .  .  .  .  .  .  .  .  .  .  .  .  .
 72
   65
 73
    2
 40
12.7
 49
0
 74
    0
 49
-12.7
 74
    0
  0
LTYPE
  5
36
330
5
100
AcDbSymbolTableRecord
100
AcDbLinetypeTableRecord
  2
DASHED
 70
    0
  3
Dashed _ _ _ _ _ _ _ _ _ _ _ _ _ _ _ _ _
 72
   65
 73
    2
 40
19.05
 49
12.7
 74
    0
 49
-6.35
 74
    0
  0
LTYPE
  5
37
330
5
100
AcDbSymbolTableRecord
100
AcDbLinetypeTableRecord
  2
DASHEDTINY
 70
    0
  3
Dashed (.15x) _ _ _ _ _ _ _ _ _ _ _ _ _ _ _ _ _
 72
   65
 73
    2
 40
2.8575
 49
1.905
 74
    0
 49
-0.9525
 74
    0
  0
LTYPE
  5
38
330
5
100
AcDbSymbolTableRecord
100
AcDbLinetypeTableRecord
  2
DASHED2
 70
    0
  3
Dashed (.5x) _ _ _ _ _ _ _ _ _ _ _ _ _ _ _ _ _
 72
   65
 73
    2
 40
9.524999999999999
 49
6.35
 74
    0
 49
-3.175
 74
    0
  0
LTYPE
  5
39
330
5
100
AcDbSymbolTableRecord
100
AcDbLinetypeTableRecord
  2
DASHEDX2
 70
    0
  3
Dashed (2x) ____  ____  ____  ____  ____  ___
 72
   65
 73
    2
 40
38.09999999999999
 49
25.4
 74
    0
 49
-12.7
 74
    0
  0
LTYPE
  5
3A
330
5
100
AcDbSymbolTableRecord
100
AcDbLinetypeTableRecord
  2
DASHDOT
 70
    0
  3
Dash dot __ . __ . __ . __ . __ . __ . __ . __
 72
   65
 73
    4
 40
25.4
 49
12.7
 74
    0
 49
-6.35
 74
    0
 49
0
 74
    0
 49
-6.35
 74
    0
  0
LTYPE
  5
3B
330
5
100
AcDbSymbolTableRecord
100
AcDbLinetypeTableRecord
  2
DASHDOTTINY
 70
    0
  3
Dash dot (.15x) _._._._._._._._._._._._._._._.
 72
   65
 73
    4
 40
3.81
 49
1.905
 74
    0
 49
-0.9525
 74
    0
 49
0
 74
    0
 49
-0.9525
 74
    0
  0
LTYPE
  5
3C
330
5
100
AcDbSymbolTableRecord
100
AcDbLinetypeTableRecord
  2
DASHDOT2
 70
    0
  3
Dash dot (.5x) _._._._._._._._._._._._._._._.
 72
   65
 73
    4
 40
12.7
 49
6.35
 74
    0
 49
-3.175
 74
    0
 49
0
 74
    0
 49
-3.175
 74
    0
  0
LTYPE
  5
3D
330
5
100
AcDbSymbolTableRecord
100
AcDbLinetypeTableRecord
  2
DASHDOTX2
 70
    0
  3
Dash dot (2x) ____  .  ____  .  ____  .  ___
 72
   65
 73
    4
 40
50.8
 49
25.4
 74
    0
 49
-12.7
 74
    0
 49
0
 74
    0
 49
-12.7
 74
    0
  0
LTYPE
  5
3E
330
5
100
AcDbSymbolTableRecord
100
AcDbLinetypeTableRecord
  2
DIVIDE
 70
    0
  3
Divide ____ . . ____ . . ____ . . ____ . . ____
 72
   65
 73
    6
 40
31.75
 49
12.7
 74
    0
 49
-6.35
 74
    0
 49
0
 74
    0
 49
-6.35
 74
    0
 49
0
 74
    0
 49
-6.35
 74
    0
  0
LTYPE
  5
3F
330
5
100
AcDbSymbolTableRecord
100
AcDbLinetypeTableRecord
  2
DIVIDETINY
 70
    0
  3
Divide (.15x) __..__..__..__..__..__..__..__.._
 72
   65
 73
    6
 40
4.7625
 49
1.905
 74
    0
 49
-0.9525
 74
    0
 49
0
 74
    0
 49
-0.9525
 74
    0
 49
0
 74
    0
 49
-0.9525
 74
    0
  0
LTYPE
  5
40
330
5
100
AcDbSymbolTableRecord
100
AcDbLinetypeTableRecord
  2
DIVIDE2
 70
    0
  3
Divide (.5x) __..__..__..__..__..__..__..__.._
 72
   65
 73
    6
 40
15.875
 49
6.35
 74
    0
 49
-3.175
 74
    0
 49
0
 74
    0
 49
-3.175
 74
    0
 49
0
 74
    0
 49
-3.175
 74
    0
  0
LTYPE
  5
41
330
5
100
AcDbSymbolTableRecord
100
AcDbLinetypeTableRecord
  2
DIVIDEX2
 70
    0
  3
Divide (2x) ________  .  .  ________  .  .  _
 72
   65
 73
    6
 40
63.5
 49
25.4
 74
    0
 49
-12.7
 74
    0
 49
0
 74
    0
 49
-12.7
 74
    0
 49
0
 74
    0
 49
-12.7
 74
    0
  0
LTYPE
  5
42
330
5
100
AcDbSymbolTableRecord
100
AcDbLinetypeTableRecord
  2
BORDER
 70
    0
  3
Border __ __ . __ __ . __ __ . __ __ . __ __ .
 72
   65
 73
    6
 40
44.45
 49
12.7
 74
    0
 49
-6.35
 74
    0
 49
12.7
 74
    0
 49
-6.35
 74
    0
 49
0
 74
    0
 49
-6.35
 74
    0
  0
LTYPE
  5
43
330
5
100
AcDbSymbolTableRecord
100
AcDbLinetypeTableRecord
  2
BORDERTINY
 70
    0
  3
Border (.15x) __.__.__.__.__.__.__.__.__.__.__.
 72
   65
 73
    6
 40
6.6675
 49
1.905
 74
    0
 49
-0.9525
 74
    0
 49
1.905
 74
    0
 49
-0.9525
 74
    0
 49
0
 74
    0
 49
-0.9525
 74
    0
  0
LTYPE
  5
44
330
5
100
AcDbSymbolTableRecord
100
AcDbLinetypeTableRecord
  2
BORDER2
 70
    0
  3
Border (.5x) __.__.__.__.__.__.__.__.__.__.__.
 72
   65
 73
    6
 40
22.225
 49
6.35
 74
    0
 49
-3.175
 74
    0
 49
6.35
 74
    0
 49
-3.175
 74
    0
 49
0
 74
    0
 49
-3.175
 74
    0
  0
LTYPE
  5
45
330
5
100
AcDbSymbolTableRecord
100
AcDbLinetypeTableRecord
  2
BORDERX2
 70
    0
  3
Border (2x) ____  ____  .  ____  ____  .  ___
 72
   65
 73
    6
 40
88.89999999999999
 49
25.4
 74
    0
 49
-12.7
 74
    0
 49
25.4
 74
    0
 49
-12.7
 74
    0
 49
0
 74
    0
 49
-12.7
 74
    0
  0
LTYPE
  5
46
330
5
100
AcDbSymbolTableRecord
100
AcDbLinetypeTableRecord
  2
CENTER
 70
    0
  3
Center ____ _ ____ _ ____ _ ____ _ ____ _ ____
 72
   65
 73
    4
 40
50.8
 49
31.75
 74
    0
 49
-6.35
 74
    0
 49
6.35
 74
    0
 49
-6.35
 74
    0
  0
LTYPE
  5
47
330
5
100
AcDbSymbolTableRecord
100
AcDbLinetypeTableRecord
  2
CENTERTINY
 70
    0
  3
Center (.15x) ___ _ ___ _ ___ _ ___ _ ___ _ ___
 72
   65
 73
    4
 40
7.62
 49
4.7625
 74
    0
 49
-0.9525
 74
    0
 49
0.9525
 74
    0
 49
-0.9525
 74
    0
  0
LTYPE
  5
48
330
5
100
AcDbSymbolTableRecord
100
AcDbLinetypeTableRecord
  2
CENTER2
 70
    0
  3
Center (.5x) ___ _ ___ _ ___ _ ___ _ ___ _ ___
 72
   65
 73
    4
 40
28.575
 49
19.05
 74
    0
 49
-3.175
 74
    0
 49
3.175
 74
    0
 49
-3.175
 74
    0
  0
LTYPE
  5
49
330
5
100
AcDbSymbolTableRecord
100
AcDbLinetypeTableRecord
  2
CENTERX2
 70
    0
  3
Center (2x) ________  __  ________  __  _____
 72
   65
 73
    4
 40
101.6
 49
63.5
 74
    0
 49
-12.7
 74
    0
 49
12.7
 74
    0
 49
-12.7
 74
    0
  0
ENDTAB
  0
TABLE
  2
LAYER
  5
2
330
0
100
AcDbSymbolTable
 70
    1
  0
LAYER
  5
10
330
2
100
AcDbSymbolTableRecord
100
AcDbLayerTableRecord
  2
0
 70
    0
 62
    7
  6
CONTINUOUS
370
    0
390
F
  0
ENDTAB
  0
TABLE
  2
STYLE
  5
3
330
0
100
AcDbSymbolTable
 70
    3
  0
STYLE
  5
4A
330
2
100
AcDbSymbolTableRecord
100
AcDbTextStyleTableRecord
  2
Standard
 70
    0
 40
0
 41
1
 50
0
 71
    0
 42
1
  3
txt
  4

  0
ENDTAB
  0
TABLE
  2
VIEW
  5
6
330
0
100
AcDbSymbolTable
 70
    0
  0
ENDTAB
  0
TABLE
  2
UCS
  5
7
330
0
100
AcDbSymbolTable
 70
    0
  0
ENDTAB
  0
TABLE
  2
APPID
  5
9
330
0
100
AcDbSymbolTable
 70
    1
  0
APPID
  5
12
330
9
100
AcDbSymbolTableRecord
100
AcDbRegAppTableRecord
  2
ACAD
 70
    0
  0
APPID
  5
4B
330
9
100
AcDbSymbolTableRecord
100
AcDbRegAppTableRecord
  2
LibreCad
 70
    0
  0
ENDTAB
  0
TABLE
  2
DIMSTYLE
  5
A
330
0
100
AcDbSymbolTable
 70
    1
100
AcDbDimStyleTable
 71
    1
  0
DIMSTYLE
105
4C
330
A
100
AcDbSymbolTableRecord
100
AcDbDimStyleTableRecord
  2
Standard
 70
    0
 40
2
 41
2.5
 42
0.625
 43
0.38
 44
1.25
 45
0
 46
0
 47
0
 48
0
 49
1
140
2.5
141
0.09
142
0
143
25.4
144
0.2824858757062147
145
0
146
1
147
0.625
148
0
 71
    0
 72
    0
 73
    0
 74
    1
 75
    0
 76
    0
 77
    0
 78
    1
 79
    0
170
    0
171
    2
172
    0
173
    0
174
    0
175
    0
176
    0
177
    0
178
    0
179
    2
271
    1
272
    4
273
    2
274
    2
275
    0
276
    0
277
    2
278
    0
279
    0
280
    0
281
    0
282
    0
283
    1
284
    0
285
    0
286
    0
288
    0
289
    3
340
standard
341

371
   -2
372
   -2
  0
ENDTAB
  0
TABLE
  2
BLOCK_RECORD
  5
1
330
0
100
AcDbSymbolTable
 70
    2
  0
BLOCK_RECORD
  5
1F
330
1
100
AcDbSymbolTableRecord
100
AcDbBlockTableRecord
  2
*Model_Space
 70
    0
280
    1
281
    0
  0
BLOCK_RECORD
  5
1E
330
1
100
AcDbSymbolTableRecord
100
AcDbBlockTableRecord
  2
*Paper_Space
 70
    0
280
    1
281
    0
  0
BLOCK_RECORD
  5
4D
330
1
100
AcDbSymbolTableRecord
100
AcDbBlockTableRecord
  2
*D13
 70
    0
280
    1
281
    0
  0
BLOCK_RECORD
  5
50
330
1
100
AcDbSymbolTableRecord
100
AcDbBlockTableRecord
  2
*D20
 70
    0
280
    1
281
    0
  0
BLOCK_RECORD
  5
53
330
1
100
AcDbSymbolTableRecord
100
AcDbBlockTableRecord
  2
*D19
 70
    0
280
    1
281
    0
  0
BLOCK_RECORD
  5
56
330
1
100
AcDbSymbolTableRecord
100
AcDbBlockTableRecord
  2
*D1
 70
    0
280
    1
281
    0
  0
BLOCK_RECORD
  5
59
330
1
100
AcDbSymbolTableRecord
100
AcDbBlockTableRecord
  2
*D15
 70
    0
280
    1
281
    0
  0
BLOCK_RECORD
  5
5C
330
1
100
AcDbSymbolTableRecord
100
AcDbBlockTableRecord
  2
*D5
 70
    0
280
    1
281
    0
  0
BLOCK_RECORD
  5
5F
330
1
100
AcDbSymbolTableRecord
100
AcDbBlockTableRecord
  2
*D3
 70
    0
280
    1
281
    0
  0
BLOCK_RECORD
  5
62
330
1
100
AcDbSymbolTableRecord
100
AcDbBlockTableRecord
  2
*D23
 70
    0
280
    1
281
    0
  0
BLOCK_RECORD
  5
65
330
1
100
AcDbSymbolTableRecord
100
AcDbBlockTableRecord
  2
*D9
 70
    0
280
    1
281
    0
  0
BLOCK_RECORD
  5
68
330
1
100
AcDbSymbolTableRecord
100
AcDbBlockTableRecord
  2
*D16
 70
    0
280
    1
281
    0
  0
BLOCK_RECORD
  5
6B
330
1
100
AcDbSymbolTableRecord
100
AcDbBlockTableRecord
  2
*D8
 70
    0
280
    1
281
    0
  0
BLOCK_RECORD
  5
6E
330
1
100
AcDbSymbolTableRecord
100
AcDbBlockTableRecord
  2
*D6
 70
    0
280
    1
281
    0
  0
BLOCK_RECORD
  5
71
330
1
100
AcDbSymbolTableRecord
100
AcDbBlockTableRecord
  2
*D11
 70
    0
280
    1
281
    0
  0
BLOCK_RECORD
  5
74
330
1
100
AcDbSymbolTableRecord
100
AcDbBlockTableRecord
  2
*D17
 70
    0
280
    1
281
    0
  0
BLOCK_RECORD
  5
77
330
1
100
AcDbSymbolTableRecord
100
AcDbBlockTableRecord
  2
*D21
 70
    0
280
    1
281
    0
  0
BLOCK_RECORD
  5
7A
330
1
100
AcDbSymbolTableRecord
100
AcDbBlockTableRecord
  2
*D4
 70
    0
280
    1
281
    0
  0
BLOCK_RECORD
  5
7D
330
1
100
AcDbSymbolTableRecord
100
AcDbBlockTableRecord
  2
*D12
 70
    0
280
    1
281
    0
  0
BLOCK_RECORD
  5
80
330
1
100
AcDbSymbolTableRecord
100
AcDbBlockTableRecord
  2
*D14
 70
    0
280
    1
281
    0
  0
BLOCK_RECORD
  5
83
330
1
100
AcDbSymbolTableRecord
100
AcDbBlockTableRecord
  2
*D18
 70
    0
280
    1
281
    0
  0
BLOCK_RECORD
  5
86
330
1
100
AcDbSymbolTableRecord
100
AcDbBlockTableRecord
  2
*D10
 70
    0
280
    1
281
    0
  0
BLOCK_RECORD
  5
89
330
1
100
AcDbSymbolTableRecord
100
AcDbBlockTableRecord
  2
*D22
 70
    0
280
    1
281
    0
  0
BLOCK_RECORD
  5
8C
330
1
100
AcDbSymbolTableRecord
100
AcDbBlockTableRecord
  2
*D7
 70
    0
280
    1
281
    0
  0
BLOCK_RECORD
  5
8F
330
1
100
AcDbSymbolTableRecord
100
AcDbBlockTableRecord
  2
*D2
 70
    0
280
    1
281
    0
  0
ENDTAB
  0
ENDSEC
  0
SECTION
  2
BLOCKS
  0
BLOCK
  5
20
330
1F
100
AcDbEntity
  8
0
100
AcDbBlockBegin
  2
*Model_Space
 70
    0
 10
0
 20
0
 30
0
  3
*Model_Space
  1

  0
ENDBLK
  5
21
330
1F
100
AcDbEntity
  8
0
100
AcDbBlockEnd
  0
BLOCK
  5
1C
330
1B
100
AcDbEntity
  8
0
100
AcDbBlockBegin
  2
*Paper_Space
 70
    0
 10
0
 20
0
 30
0
  3
*Paper_Space
  1

  0
ENDBLK
  5
1D
330
1F
100
AcDbEntity
  8
0
100
AcDbBlockEnd
  0
BLOCK
  5
4E
330
4D
100
AcDbEntity
  8
0
100
AcDbBlockBegin
  2
*D13
 70
    1
 10
0
 20
0
  3
*D13
  1

  0
LINE
  5
92
100
AcDbEntity
  8
0
  6
ByBlock
 62
    0
370
   -2
100
AcDbLine
 10
259.4905382558796
 20
-87.27691488923666
 11
344.4273874017804
 21
-87.27691488923666
  0
MTEXT
  5
93
100
AcDbEntity
  8
0
  6
CONTINUOUS
 62
    0
370
   -2
100
AcDbMText
 10
301.95896282883
 20
-83.52691488923666
 30
0
 40
5
 41
12.22222222222222
 71
    5
 72
    1
  1
24.0
  7
standard
210
0
220
0
230
1
 50
0
 73
    2
 44
1
  0
SOLID
  5
94
100
AcDbEntity
  8
0
  6
ByBlock
 62
    0
370
   -2
100
AcDbTrace
 10
259.4905382558796
 20
-87.27691488923666
 30
0
 11
264.4905382558796
 21
-86.44434557369098
 31
0
 12
264.4905382558796
 22
-88.10948420478235
 32
0
 13
264.4905382558796
 23
-88.10948420478235
 33
0
  0
SOLID
  5
95
100
AcDbEntity
  8
0
  6
ByBlock
 62
    0
370
   -2
100
AcDbTrace
 10
344.4273874017804
 20
-87.27691488923666
 30
0
 11
339.4273874017804
 21
-88.10948420478235
 31
0
 12
339.4273874017804
 22
-86.44434557369098
 32
0
 13
339.4273874017804
 23
-86.44434557369098
 33
0
  0
LINE
  5
96
100
AcDbEntity
  8
0
  6
ByBlock
 62
    0
370
   -2
100
AcDbLine
 10
259.4905382558796
 20
-91.44585762976629
 11
259.4905382558796
 21
-84.77691488923666
  0
LINE
  5
97
100
AcDbEntity
  8
0
  6
ByBlock
 62
    0
370
   -2
100
AcDbLine
 10
344.4273874017804
 20
-92.45567133581422
 11
344.4273874017804
 21
-84.77691488923666
  0
ENDBLK
  5
4F
330
4D
100
AcDbEntity
  8
0
100
AcDbBlockEnd
  0
BLOCK
  5
51
330
50
100
AcDbEntity
  8
0
100
AcDbBlockBegin
  2
*D20
 70
    1
 10
0
 20
0
  3
*D20
  1

  0
LINE
  5
98
100
AcDbEntity
  8
0
  6
ByBlock
 62
    0
370
   -2
100
AcDbLine
 10
392.3516175790098
 20
-87.27530862908141
 11
446.088262483554
 21
-87.27530862908141
  0
MTEXT
  5
99
100
AcDbEntity
  8
0
  6
CONTINUOUS
 62
    0
370
   -2
100
AcDbMText
 10
419.2199400312819
 20
-83.52530862908141
 30
0
 40
5
 41
10.55555555555587
 71
    5
 72
    1
  1
15.2
  7
standard
210
0
220
0
230
1
 50
0
 73
    2
 44
1
  0
SOLID
  5
9A
100
AcDbEntity
  8
0
  6
ByBlock
 62
    0
370
   -2
100
AcDbTrace
 10
392.3516175790098
 20
-87.27530862908141
 30
0
 11
397.3516175790098
 21
-86.44273931353572
 31
0
 12
397.3516175790098
 22
-88.10787794462709
 32
0
 13
397.3516175790098
 23
-88.10787794462709
 33
0
  0
SOLID
  5
9B
100
AcDbEntity
  8
0
  6
ByBlock
 62
    0
370
   -2
100
AcDbTrace
 10
446.088262483554
 20
-87.27530862908141
 30
0
 11
441.088262483554
 21
-88.10787794462709
 31
0
 12
441.088262483554
 22
-86.44273931353572
 32
0
 13
441.088262483554
 23
-86.44273931353572
 33
0
  0
LINE
  5
9C
100
AcDbEntity
  8
0
  6
ByBlock
 62
    0
370
   -2
100
AcDbLine
 10
392.3516175790098
 20
-93.19996800962527
 11
392.3516175790098
 21
-84.77530862908141
  0
LINE
  5
9D
100
AcDbEntity
  8
0
  6
ByBlock
 62
    0
370
   -2
100
AcDbLine
 10
446.088262483554
 20
-93.30827458138477
 11
446.088262483554
 21
-84.77530862908141
  0
ENDBLK
  5
52
330
50
100
AcDbEntity
  8
0
100
AcDbBlockEnd
  0
BLOCK
  5
54
330
53
100
AcDbEntity
  8
0
100
AcDbBlockBegin
  2
*D19
 70
    1
 10
0
 20
0
  3
*D19
  1

  0
LINE
  5
9E
100
AcDbEntity
  8
0
  6
ByBlock
 62
    0
370
   -2
100
AcDbLine
 10
79.07817574796464
 20
-87.24896534625951
 11
35.43884931429339
 21
-87.24896534625951
  0
MTEXT
  5
9F
100
AcDbEntity
  8
0
  6
CONTINUOUS
 62
    0
370
   -2
100
AcDbMText
 10
57.25851253112901
 20
-83.49896534625951
 30
0
 40
5
 41
10.55555555555587
 71
    5
 72
    1
  1
12.3
  7
standard
210
0
220
0
230
1
 50
0
 73
    2
 44
1
  0
SOLID
  5
A0
100
AcDbEntity
  8
0
  6
ByBlock
 62
    0
370
   -2
100
AcDbTrace
 10
79.07817574796464
 20
-87.24896534625951
 30
0
 11
74.07817574796464
 21
-88.08153466180519
 31
0
 12
74.07817574796464
 22
-86.41639603071383
 32
0
 13
74.07817574796464
 23
-86.41639603071383
 33
0
  0
SOLID
  5
A1
100
AcDbEntity
  8
0
  6
ByBlock
 62
    0
370
   -2
100
AcDbTrace
 10
35.43884931429339
 20
-87.24896534625951
 30
0
 11
40.43884931429339
 21
-86.41639603071383
 31
0
 12
40.43884931429339
 22
-88.08153466180519
 32
0
 13
40.43884931429339
 23
-88.08153466180519
 33
0
  0
LINE
  5
A2
100
AcDbEntity
  8
0
  6
ByBlock
 62
    0
370
   -2
100
AcDbLine
 10
79.07817574796464
 20
-93.0712088637043
 11
79.07817574796464
 21
-84.74896534625951
  0
LINE
  5
A3
100
AcDbEntity
  8
0
  6
ByBlock
 62
    0
370
   -2
100
AcDbLine
 10
35.43884931429339
 20
-92.96962515244762
 11
35.43884931429339
 21
-84.74896534625951
  0
ENDBLK
  5
55
330
53
100
AcDbEntity
  8
0
100
AcDbBlockEnd
  0
BLOCK
  5
57
330
56
100
AcDbEntity
  8
0
100
AcDbBlockBegin
  2
*D1
 70
    1
 10
0
 20
0
  3
*D1
  1

  0
LINE
  5
A4
100
AcDbEntity
  8
0
  6
ByBlock
 62
    0
370
   -2
100
AcDbLine
 10
152.5352240904666
 20
-10.43147548142719
 11
329.5258824036445
 21
-10.43147548142719
  0
MTEXT
  5
A5
100
AcDbEntity
  8
0
  6
CONTINUOUS
 62
    0
370
   -2
100
AcDbMText
 10
241.0305532470555
 20
-6.68147548142719
 30
0
 40
5
 41
11.66666666666698
 71
    5
 72
    1
  1
50.0
  7
standard
210
0
220
0
230
1
 50
0
 73
    2
 44
1
  0
SOLID
  5
A6
100
AcDbEntity
  8
0
  6
ByBlock
 62
    0
370
   -2
100
AcDbTrace
 10
152.5352240904666
 20
-10.43147548142719
 30
0
 11
157.5352240904666
 21
-9.598906165881511
 31
0
 12
157.5352240904666
 22
-11.26404479697287
 32
0
 13
157.5352240904666
 23
-11.26404479697287
 33
0
  0
SOLID
  5
A7
100
AcDbEntity
  8
0
  6
ByBlock
 62
    0
370
   -2
100
AcDbTrace
 10
329.5258824036445
 20
-10.43147548142719
 30
0
 11
324.5258824036445
 21
-11.26404479697287
 31
0
 12
324.5258824036445
 22
-9.598906165881509
 32
0
 13
324.5258824036445
 23
-9.598906165881509
 33
0
  0
LINE
  5
A8
100
AcDbEntity
  8
0
  6
ByBlock
 62
    0
370
   -2
100
AcDbLine
 10
152.5352240904666
 20
-12.21477171417135
 11
152.5352240904666
 21
-7.93147548142719
  0
LINE
  5
A9
100
AcDbEntity
  8
0
  6
ByBlock
 62
    0
370
   -2
100
AcDbLine
 10
329.5258824036445
 20
-12.25182329645154
 11
329.5258824036445
 21
-7.93147548142719
  0
ENDBLK
  5
58
330
56
100
AcDbEntity
  8
0
100
AcDbBlockEnd
  0
BLOCK
  5
5A
330
59
100
AcDbEntity
  8
0
100
AcDbBlockBegin
  2
*D15
 70
    1
 10
0
 20
0
  3
*D15
  1

  0
LINE
  5
AA
100
AcDbEntity
  8
0
  6
ByBlock
 62
    0
370
   -2
100
AcDbLine
 10
211.7130444064678
 20
-93.41010280015811
 11
211.7130444064678
 21
-13.46477171417136
  0
MTEXT
  5
AB
100
AcDbEntity
  8
0
  6
CONTINUOUS
 62
    0
370
   -2
100
AcDbMText
 10
207.9630444064678
 20
-53.43743725716474
 30
0
 40
5
 41
11.66666666666698
 71
    5
 72
    1
  1
22.6
  7
standard
210
0
220
0
230
1
 50
90
 73
    2
 44
1
  0
SOLID
  5
AC
100
AcDbEntity
  8
0
  6
ByBlock
 62
    0
370
   -2
100
AcDbTrace
 10
211.7130444064678
 20
-93.41010280015811
 30
0
 11
210.8804750909221
 21
-88.41010280015811
 31
0
 12
212.5456137220135
 22
-88.41010280015811
 32
0
 13
212.5456137220135
 23
-88.41010280015811
 33
0
  0
SOLID
  5
AD
100
AcDbEntity
  8
0
  6
ByBlock
 62
    0
370
   -2
100
AcDbTrace
 10
211.7130444064678
 20
-13.46477171417136
 30
0
 11
212.5456137220135
 21
-18.46477171417136
 31
0
 12
210.8804750909221
 22
-18.46477171417136
 32
0
 13
210.8804750909221
 23
-18.46477171417136
 33
0
  0
LINE
  5
AE
100
AcDbEntity
  8
0
  6
ByBlock
 62
    0
370
   -2
100
AcDbLine
 10
212.8167514138083
 20
-93.41010280015811
 11
214.2130444064678
 21
-93.41010280015811
  0
LINE
  5
AF
100
AcDbEntity
  8
0
  6
ByBlock
 62
    0
370
   -2
100
AcDbLine
 10
211.5000896565604
 20
-13.46477171417136
 11
209.2130444064678
 21
-13.46477171417136
  0
ENDBLK
  5
5B
330
59
100
AcDbEntity
  8
0
100
AcDbBlockEnd
  0
BLOCK
  5
5D
330
5C
100
AcDbEntity
  8
0
100
AcDbBlockBegin
  2
*D5
 70
    1
 10
0
 20
0
  3
*D5
  1

  0
LINE
  5
B0
100
AcDbEntity
  8
0
  6
ByBlock
 62
    0
370
   -2
100
AcDbLine
 10
445.5271666845588
 20
-261.6104245736872
 11
34.86308910898035
 21
-261.6104245736872
  0
MTEXT
  5
B1
100
AcDbEntity
  8
0
  6
CONTINUOUS
 62
    0
370
   -2
100
AcDbMText
 10
240.1951278967696
 20
-257.8604245736872
 30
0
 40
5
 41
13.33333333333365
 71
    5
 72
    1
  1
116.0
  7
standard
210
0
220
0
230
1
 50
0
 73
    2
 44
1
  0
SOLID
  5
B2
100
AcDbEntity
  8
0
  6
ByBlock
 62
    0
370
   -2
100
AcDbTrace
 10
445.5271666845588
 20
-261.6104245736872
 30
0
 11
440.5271666845588
 21
-262.4429938892329
 31
0
 12
440.5271666845588
 22
-260.7778552581415
 32
0
 13
440.5271666845588
 23
-260.7778552581415
 33
0
  0
SOLID
  5
B3
100
AcDbEntity
  8
0
  6
ByBlock
 62
    0
370
   -2
100
AcDbTrace
 10
34.86308910898035
 20
-261.6104245736872
 30
0
 11
39.86308910898035
 21
-260.7778552581415
 31
0
 12
39.86308910898035
 22
-262.4429938892329
 32
0
 13
39.86308910898035
 23
-262.4429938892329
 33
0
  0
LINE
  5
B4
100
AcDbEntity
  8
0
  6
ByBlock
 62
    0
370
   -2
100
AcDbLine
 10
445.5271666845587
 20
-252.6174675846732
 11
445.5271666845588
 21
-264.1104245736872
  0
LINE
  5
B5
100
AcDbEntity
  8
0
  6
ByBlock
 62
    0
370
   -2
100
AcDbLine
 10
34.86308910898035
 20
-252.42894909226
 11
34.86308910898035
 21
-264.1104245736872
  0
ENDBLK
  5
5E
330
5C
100
AcDbEntity
  8
0
100
AcDbBlockEnd
  0
BLOCK
  5
60
330
5F
100
AcDbEntity
  8
0
100
AcDbBlockBegin
  2
*D3
 70
    1
 10
0
 20
0
  3
*D3
  1

  0
LINE
  5
B6
100
AcDbEntity
  8
0
  6
ByBlock
 62
    0
370
   -2
100
AcDbLine
 10
329.586434817701
 20
-56.41340673055485
 11
446.3520221721603
 21
-56.41340673055485
  0
MTEXT
  5
B7
100
AcDbEntity
  8
0
  6
CONTINUOUS
 62
    0
370
   -2
100
AcDbMText
 10
387.9692284949306
 20
-52.66340673055485
 30
0
 40
5
 41
11.66666666666729
 71
    5
 72
    1
  1
33.0
  7
standard
210
0
220
0
230
1
 50
0
 73
    2
 44
1
  0
SOLID
  5
B8
100
AcDbEntity
  8
0
  6
ByBlock
 62
    0
370
   -2
100
AcDbTrace
 10
329.586434817701
 20
-56.41340673055485
 30
0
 11
334.586434817701
 21
-55.58083741500916
 31
0
 12
334.586434817701
 22
-57.24597604610053
 32
0
 13
334.586434817701
 23
-57.24597604610053
 33
0
  0
SOLID
  5
B9
100
AcDbEntity
  8
0
  6
ByBlock
 62
    0
370
   -2
100
AcDbTrace
 10
446.3520221721603
 20
-56.41340673055485
 30
0
 11
441.3520221721603
 21
-57.24597604610053
 31
0
 12
441.3520221721603
 22
-55.58083741500916
 32
0
 13
441.3520221721603
 23
-55.58083741500916
 33
0
  0
LINE
  5
BA
100
AcDbEntity
  8
0
  6
ByBlock
 62
    0
370
   -2
100
AcDbLine
 10
329.586434817701
 20
-58.21278006734159
 11
329.586434817701
 21
-53.91340673055485
  0
LINE
  5
BB
100
AcDbEntity
  8
0
  6
ByBlock
 62
    0
370
   -2
100
AcDbLine
 10
446.3520221721603
 20
-57.95866562260937
 11
446.3520221721603
 21
-53.91340673055485
  0
ENDBLK
  5
61
330
5F
100
AcDbEntity
  8
0
100
AcDbBlockEnd
  0
BLOCK
  5
63
330
62
100
AcDbEntity
  8
0
100
AcDbBlockBegin
  2
*D23
 70
    1
 10
0
 20
0
  3
*D23
  1

  0
LINE
  5
BC
100
AcDbEntity
  8
0
  6
ByBlock
 62
    0
370
   -2
100
AcDbLine
 10
342.1412739884786
 20
-251.3330234062587
 11
342.1412739884786
 21
-229.0301714205118
  0
MTEXT
  5
BD
100
AcDbEntity
  8
0
  6
CONTINUOUS
 62
    0
370
   -2
100
AcDbMText
 10
338.3912739884786
 20
-240.1815974133852
 30
0
 40
5
 41
7.777777777778399
 71
    5
 72
    1
  1
6.3
  7
standard
210
0
220
0
230
1
 50
90
 73
    2
 44
1
  0
SOLID
  5
BE
100
AcDbEntity
  8
0
  6
ByBlock
 62
    0
370
   -2
100
AcDbTrace
 10
342.1412739884786
 20
-251.3330234062587
 30
0
 11
341.3087046729329
 21
-246.3330234062587
 31
0
 12
342.9738433040243
 22
-246.3330234062587
 32
0
 13
342.9738433040243
 23
-246.3330234062587
 33
0
  0
SOLID
  5
BF
100
AcDbEntity
  8
0
  6
ByBlock
 62
    0
370
   -2
100
AcDbTrace
 10
342.1412739884786
 20
-229.0301714205118
 30
0
 11
342.9738433040243
 21
-234.0301714205118
 31
0
 12
341.3087046729329
 22
-234.0301714205118
 32
0
 13
341.3087046729329
 23
-234.0301714205118
 33
0
  0
LINE
  5
C0
100
AcDbEntity
  8
0
  6
ByBlock
 62
    0
370
   -2
100
AcDbLine
 10
341.1365316567847
 20
-251.3330234062587
 11
339.6412739884786
 21
-251.3330234062587
  0
LINE
  5
C1
100
AcDbEntity
  8
0
  6
ByBlock
 62
    0
370
   -2
100
AcDbLine
 10
343.2758124490533
 20
-229.0301714205118
 11
344.6412739884786
 21
-229.0301714205118
  0
ENDBLK
  5
64
330
62
100
AcDbEntity
  8
0
100
AcDbBlockEnd
  0
BLOCK
  5
66
330
65
100
AcDbEntity
  8
0
100
AcDbBlockBegin
  2
*D9
 70
    1
 10
0
 20
0
  3
*D9
  1

  0
LINE
  5
C2
100
AcDbEntity
  8
0
  6
ByBlock
 62
    0
370
   -2
100
AcDbLine
 10
209.5344072148102
 20
-93.63217486389306
 11
209.5344072148102
 21
-228.2123389503032
  0
MTEXT
  5
C3
100
AcDbEntity
  8
0
  6
CONTINUOUS
 62
    0
370
   -2
100
AcDbMText
 10
205.7844072148102
 20
-160.9222569070981
 30
0
 40
5
 41
11.66666666666698
 71
    5
 72
    1
  1
38.0
  7
standard
210
0
220
0
230
1
 50
90
 73
    2
 44
1
  0
SOLID
  5
C4
100
AcDbEntity
  8
0
  6
ByBlock
 62
    0
370
   -2
100
AcDbTrace
 10
209.5344072148102
 20
-93.63217486389306
 30
0
 11
210.3669765303559
 21
-98.63217486389306
 31
0
 12
208.7018378992646
 22
-98.63217486389306
 32
0
 13
208.7018378992646
 23
-98.63217486389306
 33
0
  0
SOLID
  5
C5
100
AcDbEntity
  8
0
  6
ByBlock
 62
    0
370
   -2
100
AcDbTrace
 10
209.5344072148102
 20
-228.2123389503032
 30
0
 11
208.7018378992646
 21
-223.2123389503032
 31
0
 12
210.3669765303559
 22
-223.2123389503032
 32
0
 13
210.3669765303559
 23
-223.2123389503032
 33
0
  0
LINE
  5
C6
100
AcDbEntity
  8
0
  6
ByBlock
 62
    0
370
   -2
100
AcDbLine
 10
210.3681729878391
 20
-93.63217486389306
 11
207.0344072148102
 21
-93.63217486389304
  0
LINE
  5
C7
100
AcDbEntity
  8
0
  6
ByBlock
 62
    0
370
   -2
100
AcDbLine
 10
211.0545362136324
 20
-228.2123389503032
 11
207.0344072148102
 21
-228.2123389503032
  0
ENDBLK
  5
67
330
65
100
AcDbEntity
  8
0
100
AcDbBlockEnd
  0
BLOCK
  5
69
330
68
100
AcDbEntity
  8
0
100
AcDbBlockBegin
  2
*D16
 70
    1
 10
0
 20
0
  3
*D16
  1

  0
LINE
  5
C8
100
AcDbEntity
  8
0
  6
ByBlock
 62
    0
370
   -2
100
AcDbLine
 10
126.7950631917084
 20
-87.25846022638412
 11
211.6500200227298
 21
-87.25846022638412
  0
MTEXT
  5
C9
100
AcDbEntity
  8
0
  6
CONTINUOUS
 62
    0
370
   -2
100
AcDbMText
 10
169.2225416072191
 20
-83.50846022638412
 30
0
 40
5
 41
12.22222222222222
 71
    5
 72
    1
  1
24.0
  7
standard
210
0
220
0
230
1
 50
0
 73
    2
 44
1
  0
SOLID
  5
CA
100
AcDbEntity
  8
0
  6
ByBlock
 62
    0
370
   -2
100
AcDbTrace
 10
126.7950631917084
 20
-87.25846022638412
 30
0
 11
131.7950631917084
 21
-86.42589091083843
 31
0
 12
131.7950631917084
 22
-88.0910295419298
 32
0
 13
131.7950631917084
 23
-88.0910295419298
 33
0
  0
SOLID
  5
CB
100
AcDbEntity
  8
0
  6
ByBlock
 62
    0
370
   -2
100
AcDbTrace
 10
211.6500200227298
 20
-87.25846022638412
 30
0
 11
206.6500200227298
 21
-88.0910295419298
 31
0
 12
206.6500200227298
 22
-86.42589091083843
 32
0
 13
206.6500200227298
 23
-86.42589091083843
 33
0
  0
LINE
  5
CC
100
AcDbEntity
  8
0
  6
ByBlock
 62
    0
370
   -2
100
AcDbLine
 10
126.7950631917084
 20
-92.33818411072588
 11
126.7950631917084
 21
-84.75846022638412
  0
LINE
  5
CD
100
AcDbEntity
  8
0
  6
ByBlock
 62
    0
370
   -2
100
AcDbLine
 10
211.6500200227298
 20
-93.01867950005493
 11
211.6500200227298
 21
-84.75846022638412
  0
ENDBLK
  5
6A
330
68
100
AcDbEntity
  8
0
100
AcDbBlockEnd
  0
BLOCK
  5
6C
330
6B
100
AcDbEntity
  8
0
100
AcDbBlockBegin
  2
*D8
 70
    1
 10
0
 20
0
  3
*D8
  1

  0
LINE
  5
CE
100
AcDbEntity
  8
0
  6
ByBlock
 62
    0
370
   -2
100
AcDbLine
 10
76.41593638558857
 20
-93.63217486389306
 11
76.41593638558857
 21
-228.2123389503032
  0
MTEXT
  5
CF
100
AcDbEntity
  8
0
  6
CONTINUOUS
 62
    0
370
   -2
100
AcDbMText
 10
72.66593638558857
 20
-160.9222569070981
 30
0
 40
5
 41
11.66666666666698
 71
    5
 72
    1
  1
38.0
  7
standard
210
0
220
0
230
1
 50
90
 73
    2
 44
1
  0
SOLID
  5
D0
100
AcDbEntity
  8
0
  6
ByBlock
 62
    0
370
   -2
100
AcDbTrace
 10
76.41593638558857
 20
-93.63217486389306
 30
0
 11
77.24850570113425
 21
-98.63217486389306
 31
0
 12
75.58336707004288
 22
-98.63217486389306
 32
0
 13
75.58336707004288
 23
-98.63217486389306
 33
0
  0
SOLID
  5
D1
100
AcDbEntity
  8
0
  6
ByBlock
 62
    0
370
   -2
100
AcDbTrace
 10
76.41593638558857
 20
-228.2123389503032
 30
0
 11
75.58336707004288
 21
-223.2123389503032
 31
0
 12
77.24850570113425
 22
-223.2123389503032
 32
0
 13
77.24850570113425
 23
-223.2123389503032
 33
0
  0
LINE
  5
D2
100
AcDbEntity
  8
0
  6
ByBlock
 62
    0
370
   -2
100
AcDbLine
 10
77.24970215861741
 20
-93.63217486389306
 11
73.91593638558857
 21
-93.63217486389304
  0
LINE
  5
D3
100
AcDbEntity
  8
0
  6
ByBlock
 62
    0
370
   -2
100
AcDbLine
 10
77.9360653844107
 20
-228.2123389503032
 11
73.91593638558857
 21
-228.2123389503032
  0
ENDBLK
  5
6D
330
6B
100
AcDbEntity
  8
0
100
AcDbBlockEnd
  0
BLOCK
  5
6F
330
6E
100
AcDbEntity
  8
0
100
AcDbBlockBegin
  2
*D6
 70
    1
 10
0
 20
0
  3
*D6
  1

  0
LINE
  5
D4
100
AcDbEntity
  8
0
  6
ByBlock
 62
    0
370
   -2
100
AcDbLine
 10
32.30924830944866
 20
-59.46278006734119
 11
32.30924830944864
 21
-251.0036400456588
  0
MTEXT
  5
D5
100
AcDbEntity
  8
0
  6
CONTINUOUS
 62
    0
370
   -2
100
AcDbMText
 10
28.55924830944865
 20
-155.2332100565
 30
0
 40
5
 41
11.11111111111142
 71
    5
 72
    1
  1
54.1
  7
standard
210
0
220
0
230
1
 50
90
 73
    2
 44
1
  0
SOLID
  5
D6
100
AcDbEntity
  8
0
  6
ByBlock
 62
    0
370
   -2
100
AcDbTrace
 10
32.30924830944866
 20
-59.46278006734119
 30
0
 11
33.14181762499434
 21
-64.46278006734119
 31
0
 12
31.47667899390298
 22
-64.46278006734119
 32
0
 13
31.47667899390298
 23
-64.46278006734119
 33
0
  0
SOLID
  5
D7
100
AcDbEntity
  8
0
  6
ByBlock
 62
    0
370
   -2
100
AcDbTrace
 10
32.30924830944864
 20
-251.0036400456588
 30
0
 11
31.47667899390296
 21
-246.0036400456588
 31
0
 12
33.14181762499432
 22
-246.0036400456588
 32
0
 13
33.14181762499432
 23
-246.0036400456588
 33
0
  0
LINE
  5
D8
100
AcDbEntity
  8
0
  6
ByBlock
 62
    0
370
   -2
100
AcDbLine
 10
34.32602226251182
 20
-59.46278006734119
 11
29.80924830944866
 21
-59.46278006734118
  0
LINE
  5
D9
100
AcDbEntity
  8
0
  6
ByBlock
 62
    0
370
   -2
100
AcDbLine
 10
34.23414554216903
 20
-251.0036400456588
 11
29.80924830944864
 21
-251.0036400456588
  0
ENDBLK
  5
70
330
6E
100
AcDbEntity
  8
0
100
AcDbBlockEnd
  0
BLOCK
  5
72
330
71
100
AcDbEntity
  8
0
100
AcDbBlockBegin
  2
*D11
 70
    1
 10
0
 20
0
  3
*D11
  1

  0
LINE
  5
DA
100
AcDbEntity
  8
0
  6
ByBlock
 62
    0
370
   -2
100
AcDbLine
 10
344.5060330148963
 20
-87.28831176552033
 11
392.307705734993
 21
-87.28831176552033
  0
MTEXT
  5
DB
100
AcDbEntity
  8
0
  6
CONTINUOUS
 62
    0
370
   -2
100
AcDbMText
 10
368.4068693749446
 20
-83.53831176552033
 30
0
 40
5
 41
10.55555555555618
 71
    5
 72
    1
  1
13.5
  7
standard
210
0
220
0
230
1
 50
0
 73
    2
 44
1
  0
SOLID
  5
DC
100
AcDbEntity
  8
0
  6
ByBlock
 62
    0
370
   -2
100
AcDbTrace
 10
344.5060330148963
 20
-87.28831176552033
 30
0
 11
349.5060330148963
 21
-86.45574244997465
 31
0
 12
349.5060330148963
 22
-88.12088108106602
 32
0
 13
349.5060330148963
 23
-88.12088108106602
 33
0
  0
SOLID
  5
DD
100
AcDbEntity
  8
0
  6
ByBlock
 62
    0
370
   -2
100
AcDbTrace
 10
392.307705734993
 20
-87.28831176552033
 30
0
 11
387.307705734993
 21
-88.12088108106602
 31
0
 12
387.307705734993
 22
-86.45574244997465
 32
0
 13
387.307705734993
 23
-86.45574244997465
 33
0
  0
LINE
  5
DE
100
AcDbEntity
  8
0
  6
ByBlock
 62
    0
370
   -2
100
AcDbLine
 10
344.5060330148963
 20
-92.5380920457597
 11
344.5060330148963
 21
-84.78831176552033
  0
LINE
  5
DF
100
AcDbEntity
  8
0
  6
ByBlock
 62
    0
370
   -2
100
AcDbLine
 10
392.307705734993
 20
-92.62453268358989
 11
392.307705734993
 21
-84.78831176552033
  0
ENDBLK
  5
73
330
71
100
AcDbEntity
  8
0
100
AcDbBlockEnd
  0
BLOCK
  5
75
330
74
100
AcDbEntity
  8
0
100
AcDbBlockBegin
  2
*D17
 70
    1
 10
0
 20
0
  3
*D17
  1

  0
LINE
  5
E0
100
AcDbEntity
  8
0
  6
ByBlock
 62
    0
370
   -2
100
AcDbLine
 10
79.09459466960628
 20
-94.28907529266678
 11
79.09459466960628
 21
-59.7590122221926
  0
MTEXT
  5
E1
100
AcDbEntity
  8
0
  6
CONTINUOUS
 62
    0
370
   -2
100
AcDbMText
 10
75.34459466960628
 20
-77.02404375742969
 30
0
 40
5
 41
7.777777777778088
 71
    5
 72
    1
  1
9.8
  7
standard
210
0
220
0
230
1
 50
90
 73
    2
 44
1
  0
SOLID
  5
E2
100
AcDbEntity
  8
0
  6
ByBlock
 62
    0
370
   -2
100
AcDbTrace
 10
79.09459466960628
 20
-94.28907529266678
 30
0
 11
78.2620253540606
 21
-89.28907529266678
 31
0
 12
79.92716398515196
 22
-89.28907529266678
 32
0
 13
79.92716398515196
 23
-89.28907529266678
 33
0
  0
SOLID
  5
E3
100
AcDbEntity
  8
0
  6
ByBlock
 62
    0
370
   -2
100
AcDbTrace
 10
79.09459466960628
 20
-59.7590122221926
 30
0
 11
79.92716398515196
 21
-64.75901222219261
 31
0
 12
78.2620253540606
 22
-64.75901222219261
 32
0
 13
78.2620253540606
 23
-64.75901222219261
 33
0
  0
LINE
  5
E4
100
AcDbEntity
  8
0
  6
ByBlock
 62
    0
370
   -2
100
AcDbLine
 10
77.84459466960628
 20
-94.28907529266678
 11
76.59459466960628
 21
-94.28907529266678
  0
LINE
  5
E5
100
AcDbEntity
  8
0
  6
ByBlock
 62
    0
370
   -2
100
AcDbLine
 10
78.62682910809598
 20
-59.7590122221926
 11
76.59459466960628
 21
-59.7590122221926
  0
ENDBLK
  5
76
330
74
100
AcDbEntity
  8
0
100
AcDbBlockEnd
  0
BLOCK
  5
78
330
77
100
AcDbEntity
  8
0
100
AcDbBlockBegin
  2
*D21
 70
    1
 10
0
 20
0
  3
*D21
  1

  0
LINE
  5
E6
100
AcDbEntity
  8
0
  6
ByBlock
 62
    0
370
   -2
100
AcDbLine
 10
209.3790000866698
 20
-251.1027299121712
 11
209.3790000866698
 21
-228.6826262008735
  0
MTEXT
  5
E7
100
AcDbEntity
  8
0
  6
CONTINUOUS
 62
    0
370
   -2
100
AcDbMText
 10
205.6290000866698
 20
-239.8926780565224
 30
0
 40
5
 41
7.777777777778399
 71
    5
 72
    1
  1
6.3
  7
standard
210
0
220
0
230
1
 50
90
 73
    2
 44
1
  0
SOLID
  5
E8
100
AcDbEntity
  8
0
  6
ByBlock
 62
    0
370
   -2
100
AcDbTrace
 10
209.3790000866698
 20
-251.1027299121712
 30
0
 11
208.5464307711241
 21
-246.1027299121712
 31
0
 12
210.2115694022155
 22
-246.1027299121712
 32
0
 13
210.2115694022155
 23
-246.1027299121712
 33
0
  0
SOLID
  5
E9
100
AcDbEntity
  8
0
  6
ByBlock
 62
    0
370
   -2
100
AcDbTrace
 10
209.3790000866698
 20
-228.6826262008735
 30
0
 11
210.2115694022155
 21
-233.6826262008735
 31
0
 12
208.5464307711241
 22
-233.6826262008735
 32
0
 13
208.5464307711241
 23
-233.6826262008735
 33
0
  0
LINE
  5
EA
100
AcDbEntity
  8
0
  6
ByBlock
 62
    0
370
   -2
100
AcDbLine
 10
208.511665474357
 20
-251.1027299121712
 11
206.8790000866698
 21
-251.1027299121712
  0
LINE
  5
EB
100
AcDbEntity
  8
0
  6
ByBlock
 62
    0
370
   -2
100
AcDbLine
 10
210.5135385472445
 20
-228.6826262008735
 11
211.8790000866698
 21
-228.6826262008735
  0
ENDBLK
  5
79
330
77
100
AcDbEntity
  8
0
100
AcDbBlockEnd
  0
BLOCK
  5
7B
330
7A
100
AcDbEntity
  8
0
100
AcDbBlockBegin
  2
*D4
 70
    1
 10
0
 20
0
  3
*D4
  1

  0
LINE
  5
EC
100
AcDbEntity
  8
0
  6
ByBlock
 62
    0
370
   -2
100
AcDbLine
 10
148.9110646130855
 20
-13.48295470524692
 11
148.9110646130855
 21
-59.58983728970743
  0
MTEXT
  5
ED
100
AcDbEntity
  8
0
  6
CONTINUOUS
 62
    0
370
   -2
100
AcDbMText
 10
145.1610646130855
 20
-36.53639599747717
 30
0
 40
5
 41
10.55555555555587
 71
    5
 72
    1
  1
13.0
  7
standard
210
0
220
0
230
1
 50
90
 73
    2
 44
1
  0
SOLID
  5
EE
100
AcDbEntity
  8
0
  6
ByBlock
 62
    0
370
   -2
100
AcDbTrace
 10
148.9110646130855
 20
-13.48295470524692
 30
0
 11
149.7436339286312
 21
-18.48295470524692
 31
0
 12
148.0784952975398
 22
-18.48295470524692
 32
0
 13
148.0784952975398
 23
-18.48295470524692
 33
0
  0
SOLID
  5
EF
100
AcDbEntity
  8
0
  6
ByBlock
 62
    0
370
   -2
100
AcDbTrace
 10
148.9110646130855
 20
-59.58983728970743
 30
0
 11
148.0784952975398
 21
-54.58983728970743
 31
0
 12
149.7436339286312
 22
-54.58983728970743
 32
0
 13
149.7436339286312
 23
-54.58983728970743
 33
0
  0
LINE
  5
F0
100
AcDbEntity
  8
0
  6
ByBlock
 62
    0
370
   -2
100
AcDbLine
 10
151.3434398985512
 20
-13.48295470524692
 11
146.4110646130855
 21
-13.48295470524692
  0
LINE
  5
F1
100
AcDbEntity
  8
0
  6
ByBlock
 62
    0
370
   -2
100
AcDbLine
 10
151.3457240617028
 20
-59.58983728970743
 11
146.4110646130855
 21
-59.58983728970743
  0
ENDBLK
  5
7C
330
7A
100
AcDbEntity
  8
0
100
AcDbBlockEnd
  0
BLOCK
  5
7E
330
7D
100
AcDbEntity
  8
0
100
AcDbBlockBegin
  2
*D12
 70
    1
 10
0
 20
0
  3
*D12
  1

  0
LINE
  5
F2
100
AcDbEntity
  8
0
  6
ByBlock
 62
    0
370
   -2
100
AcDbLine
 10
344.458841708233
 20
-94.34725729751075
 11
344.458841708233
 21
-59.77783242950682
  0
MTEXT
  5
F3
100
AcDbEntity
  8
0
  6
CONTINUOUS
 62
    0
370
   -2
100
AcDbMText
 10
340.708841708233
 20
-77.06254486350879
 30
0
 40
5
 41
7.777777777778088
 71
    5
 72
    1
  1
9.8
  7
standard
210
0
220
0
230
1
 50
90
 73
    2
 44
1
  0
SOLID
  5
F4
100
AcDbEntity
  8
0
  6
ByBlock
 62
    0
370
   -2
100
AcDbTrace
 10
344.458841708233
 20
-94.34725729751075
 30
0
 11
343.6262723926873
 21
-89.34725729751075
 31
0
 12
345.2914110237787
 22
-89.34725729751075
 32
0
 13
345.2914110237787
 23
-89.34725729751075
 33
0
  0
SOLID
  5
F5
100
AcDbEntity
  8
0
  6
ByBlock
 62
    0
370
   -2
100
AcDbTrace
 10
344.458841708233
 20
-59.77783242950682
 30
0
 11
345.2914110237787
 21
-64.77783242950683
 31
0
 12
343.6262723926873
 22
-64.77783242950682
 32
0
 13
343.6262723926873
 23
-64.77783242950682
 33
0
  0
LINE
  5
F6
100
AcDbEntity
  8
0
  6
ByBlock
 62
    0
370
   -2
100
AcDbLine
 10
345.6549195159387
 20
-94.34725729751075
 11
346.958841708233
 21
-94.34725729751075
  0
LINE
  5
F7
100
AcDbEntity
  8
0
  6
ByBlock
 62
    0
370
   -2
100
AcDbLine
 10
343.3669731582783
 20
-59.77783242950682
 11
341.958841708233
 21
-59.77783242950682
  0
ENDBLK
  5
7F
330
7D
100
AcDbEntity
  8
0
100
AcDbBlockEnd
  0
BLOCK
  5
81
330
80
100
AcDbEntity
  8
0
100
AcDbBlockBegin
  2
*D14
 70
    1
 10
0
 20
0
  3
*D14
  1

  0
LINE
  5
F8
100
AcDbEntity
  8
0
  6
ByBlock
 62
    0
370
   -2
100
AcDbLine
 10
211.4564725636398
 20
-87.25629334548394
 11
259.264747706831
 21
-87.25629334548394
  0
MTEXT
  5
F9
100
AcDbEntity
  8
0
  6
CONTINUOUS
 62
    0
370
   -2
100
AcDbMText
 10
235.3606101352354
 20
-83.50629334548394
 30
0
 40
5
 41
10.55555555555618
 71
    5
 72
    1
  1
13.5
  7
standard
210
0
220
0
230
1
 50
0
 73
    2
 44
1
  0
SOLID
  5
FA
100
AcDbEntity
  8
0
  6
ByBlock
 62
    0
370
   -2
100
AcDbTrace
 10
211.4564725636398
 20
-87.25629334548394
 30
0
 11
216.4564725636398
 21
-86.42372402993826
 31
0
 12
216.4564725636398
 22
-88.08886266102962
 32
0
 13
216.4564725636398
 23
-88.08886266102962
 33
0
  0
SOLID
  5
FB
100
AcDbEntity
  8
0
  6
ByBlock
 62
    0
370
   -2
100
AcDbTrace
 10
259.264747706831
 20
-87.25629334548394
 30
0
 11
254.264747706831
 21
-88.08886266102962
 31
0
 12
254.264747706831
 22
-86.42372402993826
 32
0
 13
254.264747706831
 23
-86.42372402993826
 33
0
  0
LINE
  5
FC
100
AcDbEntity
  8
0
  6
ByBlock
 62
    0
370
   -2
100
AcDbLine
 10
211.4564725636398
 20
-92.22687923102271
 11
211.4564725636398
 21
-84.75629334548394
  0
LINE
  5
FD
100
AcDbEntity
  8
0
  6
ByBlock
 62
    0
370
   -2
100
AcDbLine
 10
259.264747706831
 20
-92.16001451054271
 11
259.264747706831
 21
-84.75629334548394
  0
ENDBLK
  5
82
330
80
100
AcDbEntity
  8
0
100
AcDbBlockEnd
  0
BLOCK
  5
84
330
83
100
AcDbEntity
  8
0
100
AcDbBlockBegin
  2
*D18
 70
    1
 10
0
 20
0
  3
*D18
  1

  0
LINE
  5
FE
100
AcDbEntity
  8
0
  6
ByBlock
 62
    0
370
   -2
100
AcDbLine
 10
79.08946104308841
 20
-87.27899577468929
 11
126.8629611070141
 21
-87.27899577468929
  0
MTEXT
  5
FF
100
AcDbEntity
  8
0
  6
CONTINUOUS
 62
    0
370
   -2
100
AcDbMText
 10
102.9762110750512
 20
-83.52899577468929
 30
0
 40
5
 41
10.55555555555618
 71
    5
 72
    1
  1
13.5
  7
standard
210
0
220
0
230
1
 50
0
 73
    2
 44
1
  0
SOLID
  5
100
100
AcDbEntity
  8
0
  6
ByBlock
 62
    0
370
   -2
100
AcDbTrace
 10
79.08946104308841
 20
-87.27899577468929
 30
0
 11
84.08946104308841
 21
-86.44642645914361
 31
0
 12
84.08946104308841
 22
-88.11156509023498
 32
0
 13
84.08946104308841
 23
-88.11156509023498
 33
0
  0
SOLID
  5
101
100
AcDbEntity
  8
0
  6
ByBlock
 62
    0
370
   -2
100
AcDbTrace
 10
126.8629611070141
 20
-87.27899577468929
 30
0
 11
121.8629611070141
 21
-88.11156509023498
 31
0
 12
121.8629611070141
 22
-86.44642645914361
 32
0
 13
121.8629611070141
 23
-86.44642645914361
 33
0
  0
LINE
  5
102
100
AcDbEntity
  8
0
  6
ByBlock
 62
    0
370
   -2
100
AcDbLine
 10
79.08946104308841
 20
-93.06505206867936
 11
79.08946104308841
 21
-84.77899577468929
  0
LINE
  5
103
100
AcDbEntity
  8
0
  6
ByBlock
 62
    0
370
   -2
100
AcDbLine
 10
126.8629611070141
 20
-92.98460819990848
 11
126.8629611070141
 21
-84.77899577468929
  0
ENDBLK
  5
85
330
83
100
AcDbEntity
  8
0
100
AcDbBlockEnd
  0
BLOCK
  5
87
330
86
100
AcDbEntity
  8
0
100
AcDbBlockBegin
  2
*D10
 70
    1
 10
0
 20
0
  3
*D10
  1

  0
LINE
  5
104
100
AcDbEntity
  8
0
  6
ByBlock
 62
    0
370
   -2
100
AcDbLine
 10
342.4176808882813
 20
-93.63217486389306
 11
342.4176808882813
 21
-228.2123389503032
  0
MTEXT
  5
105
100
AcDbEntity
  8
0
  6
CONTINUOUS
 62
    0
370
   -2
100
AcDbMText
 10
338.6676808882813
 20
-160.9222569070981
 30
0
 40
5
 41
11.66666666666698
 71
    5
 72
    1
  1
38.0
  7
standard
210
0
220
0
230
1
 50
90
 73
    2
 44
1
  0
SOLID
  5
106
100
AcDbEntity
  8
0
  6
ByBlock
 62
    0
370
   -2
100
AcDbTrace
 10
342.4176808882813
 20
-93.63217486389306
 30
0
 11
343.250250203827
 21
-98.63217486389306
 31
0
 12
341.5851115727356
 22
-98.63217486389306
 32
0
 13
341.5851115727356
 23
-98.63217486389306
 33
0
  0
SOLID
  5
107
100
AcDbEntity
  8
0
  6
ByBlock
 62
    0
370
   -2
100
AcDbTrace
 10
342.4176808882813
 20
-228.2123389503032
 30
0
 11
341.5851115727356
 21
-223.2123389503032
 31
0
 12
343.250250203827
 22
-223.2123389503032
 32
0
 13
343.250250203827
 23
-223.2123389503032
 33
0
  0
LINE
  5
108
100
AcDbEntity
  8
0
  6
ByBlock
 62
    0
370
   -2
100
AcDbLine
 10
343.2514466613102
 20
-93.63217486389306
 11
339.9176808882813
 21
-93.63217486389304
  0
LINE
  5
109
100
AcDbEntity
  8
0
  6
ByBlock
 62
    0
370
   -2
100
AcDbLine
 10
343.9378098871035
 20
-228.2123389503032
 11
339.9176808882813
 21
-228.2123389503032
  0
ENDBLK
  5
88
330
86
100
AcDbEntity
  8
0
100
AcDbBlockEnd
  0
BLOCK
  5
8A
330
89
100
AcDbEntity
  8
0
100
AcDbBlockBegin
  2
*D22
 70
    1
 10
0
 20
0
  3
*D22
  1

  0
LINE
  5
10A
100
AcDbEntity
  8
0
  6
ByBlock
 62
    0
370
   -2
100
AcDbLine
 10
76.35707839330868
 20
-251.263590085081
 11
76.35707839330868
 21
-228.9124068146732
  0
MTEXT
  5
10B
100
AcDbEntity
  8
0
  6
CONTINUOUS
 62
    0
370
   -2
100
AcDbMText
 10
72.60707839330868
 20
-240.0879984498771
 30
0
 40
5
 41
7.777777777778399
 71
    5
 72
    1
  1
6.3
  7
standard
210
0
220
0
230
1
 50
90
 73
    2
 44
1
  0
SOLID
  5
10C
100
AcDbEntity
  8
0
  6
ByBlock
 62
    0
370
   -2
100
AcDbTrace
 10
76.35707839330868
 20
-251.263590085081
 30
0
 11
75.524509077763
 21
-246.263590085081
 31
0
 12
77.18964770885437
 22
-246.263590085081
 32
0
 13
77.18964770885437
 23
-246.263590085081
 33
0
  0
SOLID
  5
10D
100
AcDbEntity
  8
0
  6
ByBlock
 62
    0
370
   -2
100
AcDbTrace
 10
76.35707839330868
 20
-228.9124068146732
 30
0
 11
77.18964770885437
 21
-233.9124068146732
 31
0
 12
75.524509077763
 22
-233.9124068146732
 32
0
 13
75.524509077763
 23
-233.9124068146732
 33
0
  0
LINE
  5
10E
100
AcDbEntity
  8
0
  6
ByBlock
 62
    0
370
   -2
100
AcDbLine
 10
77.49772195923711
 20
-251.263590085081
 11
78.85707839330868
 21
-251.263590085081
  0
LINE
  5
10F
100
AcDbEntity
  8
0
  6
ByBlock
 62
    0
370
   -2
100
AcDbLine
 10
77.49161685388336
 20
-228.9124068146732
 11
78.85707839330868
 21
-228.9124068146732
  0
ENDBLK
  5
8B
330
89
100
AcDbEntity
  8
0
100
AcDbBlockEnd
  0
BLOCK
  5
8D
330
8C
100
AcDbEntity
  8
0
100
AcDbBlockBegin
  2
*D7
 70
    1
 10
0
 20
0
  3
*D7
  1

  0
LINE
  5
110
100
AcDbEntity
  8
0
  6
ByBlock
 62
    0
370
   -2
100
AcDbLine
 10
21.94454887111362
 20
-13.43515775021521
 11
21.9445488711136
 21
-250.9926358914579
  0
MTEXT
  5
111
100
AcDbEntity
  8
0
  6
CONTINUOUS
 62
    0
370
   -2
100
AcDbMText
 10
18.19454887111361
 20
-132.2138968208366
 30
0
 40
5
 41
10.55555555555587
 71
    5
 72
    1
  1
67.1
  7
standard
210
0
220
0
230
1
 50
90
 73
    2
 44
1
  0
SOLID
  5
112
100
AcDbEntity
  8
0
  6
ByBlock
 62
    0
370
   -2
100
AcDbTrace
 10
21.94454887111362
 20
-13.43515775021521
 30
0
 11
22.7771181866593
 21
-18.43515775021521
 31
0
 12
21.11197955556794
 22
-18.43515775021521
 32
0
 13
21.11197955556794
 23
-18.43515775021521
 33
0
  0
SOLID
  5
113
100
AcDbEntity
  8
0
  6
ByBlock
 62
    0
370
   -2
100
AcDbTrace
 10
21.9445488711136
 20
-250.9926358914579
 30
0
 11
21.11197955556792
 21
-245.9926358914579
 31
0
 12
22.77711818665928
 22
-245.9926358914579
 32
0
 13
22.77711818665928
 23
-245.9926358914579
 33
0
  0
LINE
  5
114
100
AcDbEntity
  8
0
  6
ByBlock
 62
    0
370
   -2
100
AcDbLine
 10
151.3040492927665
 20
-13.43515775021523
 11
19.44454887111362
 21
-13.43515775021521
  0
LINE
  5
115
100
AcDbEntity
  8
0
  6
ByBlock
 62
    0
370
   -2
100
AcDbLine
 10
151.2391998281514
 20
-250.9926358914579
 11
19.4445488711136
 21
-250.9926358914579
  0
ENDBLK
  5
8E
330
8C
100
AcDbEntity
  8
0
100
AcDbBlockEnd
  0
BLOCK
  5
90
330
8F
100
AcDbEntity
  8
0
100
AcDbBlockBegin
  2
*D2
 70
    1
 10
0
 20
0
  3
*D2
  1

  0
LINE
  5
116
100
AcDbEntity
  8
0
  6
ByBlock
 62
    0
370
   -2
100
AcDbLine
 10
35.5051665748736
 20
-56.18173084286556
 11
152.3846979738927
 21
-56.18173084286556
  0
MTEXT
  5
117
100
AcDbEntity
  8
0
  6
CONTINUOUS
 62
    0
370
   -2
100
AcDbMText
 10
93.94493227438315
 20
-52.43173084286556
 30
0
 40
5
 41
11.66666666666729
 71
    5
 72
    1
  1
33.0
  7
standard
210
0
220
0
230
1
 50
0
 73
    2
 44
1
  0
SOLID
  5
118
100
AcDbEntity
  8
0
  6
ByBlock
 62
    0
370
   -2
100
AcDbTrace
 10
35.5051665748736
 20
-56.18173084286556
 30
0
 11
40.5051665748736
 21
-55.34916152731988
 31
0
 12
40.5051665748736
 22
-57.01430015841125
 32
0
 13
40.5051665748736
 23
-57.01430015841125
 33
0
  0
SOLID
  5
119
100
AcDbEntity
  8
0
  6
ByBlock
 62
    0
370
   -2
100
AcDbTrace
 10
152.3846979738927
 20
-56.18173084286556
 30
0
 11
147.3846979738927
 21
-57.01430015841125
 31
0
 12
147.3846979738927
 22
-55.34916152731988
 32
0
 13
147.3846979738927
 23
-55.34916152731988
 33
0
  0
LINE
  5
11A
100
AcDbEntity
  8
0
  6
ByBlock
 62
    0
370
   -2
100
AcDbLine
 10
35.50516657487361
 20
-58.25960122718929
 11
35.50516657487358
 21
-53.68173084286556
  0
LINE
  5
11B
100
AcDbEntity
  8
0
  6
ByBlock
 62
    0
370
   -2
100
AcDbLine
 10
152.3846979738927
 20
-58.19273650670934
 11
152.3846979738927
 21
-53.68173084286556
  0
ENDBLK
  5
91
330
8F
100
AcDbEntity
  8
0
100
AcDbBlockEnd
  0
ENDSEC
  0
SECTION
  2
ENTITIES
  0
IMAGE
  5
11E
100
AcDbEntity
  8
0
  6
ByLayer
 62
  256
370
   -1
100
AcDbRasterImage
 10
2.246478430232559
 20
-270.6795039328166
 30
0
 11
1
 21
0
 31
0
 12
6.123031769111886e-17
 22
1
 32
0
 13
481
 23
269
340
11C
 70
    1
280
    0
281
   50
282
   50
283
    0
360
11D
  0
DIMENSION
  5
11F
100
AcDbEntity
  8
0
  6
ByLayer
 62
  256
370
   -1
100
AcDbDimension
  2
*D1
 10
329.5258824036445
 20
-10.43147548142719
 30
0
 11
241.0305532470555
 21
-6.68147548142719
 31
0
 70
   32
 71
    5
 72
    0
  3
Standard
 53
0
210
0
220
0
230
1
100
AcDbAlignedDimension
 13
152.5352240904666
 23
-13.46477171417135
 33
0
 14
329.5258824036445
 24
-13.50182329645154
 34
0
100
AcDbRotatedDimension
  0
DIMENSION
  5
120
100
AcDbEntity
  8
0
  6
ByLayer
 62
  256
370
   -1
100
AcDbDimension
  2
*D2
 10
152.3846979738927
 20
-56.18173084286556
 30
0
 11
93.94493227438315
 21
-52.43173084286556
 31
0
 70
   32
 71
    5
 72
    0
  3
Standard
 53
0
210
0
220
0
230
1
100
AcDbAlignedDimension
 13
35.50516657487361
 23
-59.50960122718929
 33
0
 14
152.3846979738927
 24
-59.44273650670934
 34
0
100
AcDbRotatedDimension
  0
DIMENSION
  5
121
100
AcDbEntity
  8
0
  6
ByLayer
 62
  256
370
   -1
100
AcDbDimension
  2
*D3
 10
446.3520221721603
 20
-56.41340673055485
 30
0
 11
387.9692284949306
 21
-52.66340673055485
 31
0
 70
   32
 71
    5
 72
    0
  3
Standard
 53
0
210
0
220
0
230
1
100
AcDbAlignedDimension
 13
329.586434817701
 23
-59.46278006734159
 33
0
 14
446.3520221721603
 24
-59.20866562260937
 34
0
100
AcDbRotatedDimension
  0
DIMENSION
  5
122
100
AcDbEntity
  8
0
  6
ByLayer
 62
  256
370
   -1
100
AcDbDimension
  2
*D4
 10
148.9110646130855
 20
-59.58983728970743
 30
0
 11
145.1610646130855
 21
-36.53639599747717
 31
0
 70
   32
 71
    5
 72
    0
  3
Standard
 53
0
210
0
220
0
230
1
100
AcDbAlignedDimension
 13
152.5934398985512
 23
-13.48295470524692
 33
0
 14
152.5957240617028
 24
-59.58983728970743
 34
0
 50
90
100
AcDbRotatedDimension
  0
DIMENSION
  5
123
100
AcDbEntity
  8
0
  6
ByLayer
 62
  256
370
   -1
100
AcDbDimension
  2
*D5
 10
34.86308910898035
 20
-261.6104245736872
 30
0
 11
240.1951278967696
 21
-257.8604245736872
 31
0
 70
   32
 71
    5
 72
    0
  3
Standard
 53
0
210
0
220
0
230
1
100
AcDbAlignedDimension
 13
445.5271666845587
 23
-251.3674675846732
 33
0
 14
34.86308910898035
 24
-251.17894909226
 34
0
100
AcDbRotatedDimension
  0
DIMENSION
  5
124
100
AcDbEntity
  8
0
  6
ByLayer
 62
  256
370
   -1
100
AcDbDimension
  2
*D6
 10
32.30924830944864
 20
-251.0036400456588
 30
0
 11
28.55924830944865
 21
-155.2332100565
 31
0
 70
   32
 71
    5
 72
    0
  3
Standard
 53
0
210
0
220
0
230
1
100
AcDbAlignedDimension
 13
35.57602226251182
 23
-59.46278006734119
 33
0
 14
35.48414554216903
 24
-251.0036400456588
 34
0
 50
90
100
AcDbRotatedDimension
  0
DIMENSION
  5
125
100
AcDbEntity
  8
0
  6
ByLayer
 62
  256
370
   -1
100
AcDbDimension
  2
*D7
 10
21.9445488711136
 20
-250.9926358914579
 30
0
 11
18.19454887111361
 21
-132.2138968208366
 31
0
 70
   32
 71
    5
 72
    0
  3
Standard
 53
0
210
0
220
0
230
1
100
AcDbAlignedDimension
 13
152.5540492927665
 23
-13.43515775021523
 33
0
 14
152.4891998281514
 24
-250.9926358914579
 34
0
 50
90
100
AcDbRotatedDimension
  0
DIMENSION
  5
126
100
AcDbEntity
  8
0
  6
ByLayer
 62
  256
370
   -1
100
AcDbDimension
  2
*D8
 10
76.41593638558857
 20
-234.5259909307269
 30
0
 11
72.66593638558857
 21
-160.9222569070981
 31
0
 70
   32
 71
    5
 72
    0
  3
Standard
 53
0
210
0
220
0
230
1
100
AcDbAlignedDimension
 13
78.49970215861741
 23
-93.63217486389307
 33
0
 14
79.1860653844107
 24
-228.2123389503032
 34
0
 50
90
100
AcDbRotatedDimension
  0
DIMENSION
  5
127
100
AcDbEntity
  8
0
  6
ByLayer
 62
  256
370
   -1
100
AcDbDimension
  2
*D9
 10
209.5344072148102
 20
-234.5259909307269
 30
0
 11
205.7844072148102
 21
-160.9222569070981
 31
0
 70
   32
 71
    5
 72
    0
  3
Standard
 53
0
210
0
220
0
230
1
100
AcDbAlignedDimension
 13
211.6181729878391
 23
-93.63217486389307
 33
0
 14
212.3045362136324
 24
-228.2123389503032
 34
0
 50
90
100
AcDbRotatedDimension
  0
DIMENSION
  5
128
100
AcDbEntity
  8
0
  6
ByLayer
 62
  256
370
   -1
100
AcDbDimension
  2
*D10
 10
342.4176808882813
 20
-234.5259909307269
 30
0
 11
338.6676808882813
 21
-160.9222569070981
 31
0
 70
   32
 71
    5
 72
    0
  3
Standard
 53
0
210
0
220
0
230
1
100
AcDbAlignedDimension
 13
344.5014466613102
 23
-93.63217486389307
 33
0
 14
345.1878098871035
 24
-228.2123389503032
 34
0
 50
90
100
AcDbRotatedDimension
  0
DIMENSION
  5
129
100
AcDbEntity
  8
0
  6
ByLayer
 62
  256
370
   -1
100
AcDbDimension
  2
*D11
 10
392.307705734993
 20
-87.28831176552033
 30
0
 11
368.4068693749446
 21
-83.53831176552033
 31
0
 70
   32
 71
    5
 72
    0
  3
Standard
 53
0
210
0
220
0
230
1
100
AcDbAlignedDimension
 13
344.5060330148963
 23
-93.7880920457597
 33
0
 14
392.307705734993
 24
-93.87453268358989
 34
0
100
AcDbRotatedDimension
  0
DIMENSION
  5
12A
100
AcDbEntity
  8
0
  6
ByLayer
 62
  256
370
   -1
100
AcDbDimension
  2
*D12
 10
344.458841708233
 20
-59.9841819609389
 30
0
 11
340.708841708233
 21
-77.06254486350879
 31
0
 70
   32
 71
    5
 72
    0
  3
Standard
 53
0
210
0
220
0
230
1
100
AcDbAlignedDimension
 13
344.4049195159387
 23
-94.34725729751075
 33
0
 14
344.6169731582783
 24
-59.77783242950682
 34
0
 50
90
100
AcDbRotatedDimension
  0
DIMENSION
  5
12B
100
AcDbEntity
  8
0
  6
ByLayer
 62
  256
370
   -1
100
AcDbDimension
  2
*D13
 10
344.4273874017804
 20
-87.27691488923666
 30
0
 11
301.95896282883
 21
-83.52691488923666
 31
0
 70
   32
 71
    5
 72
    0
  3
Standard
 53
0
210
0
220
0
230
1
100
AcDbAlignedDimension
 13
259.4905382558796
 23
-92.69585762976629
 33
0
 14
344.4273874017804
 24
-93.70567133581422
 34
0
100
AcDbRotatedDimension
  0
DIMENSION
  5
12C
100
AcDbEntity
  8
0
  6
ByLayer
 62
  256
370
   -1
100
AcDbDimension
  2
*D14
 10
259.264747706831
 20
-87.25629334548394
 30
0
 11
235.3606101352354
 21
-83.50629334548394
 31
0
 70
   32
 71
    5
 72
    0
  3
Standard
 53
0
210
0
220
0
230
1
100
AcDbAlignedDimension
 13
211.4564725636398
 23
-93.47687923102271
 33
0
 14
259.264747706831
 24
-93.41001451054271
 34
0
100
AcDbRotatedDimension
  0
DIMENSION
  5
12D
100
AcDbEntity
  8
0
  6
ByLayer
 62
  256
370
   -1
100
AcDbDimension
  2
*D15
 10
211.7130444064678
 20
-13.46477171417136
 30
0
 11
207.9630444064678
 21
-53.43743725716474
 31
0
 70
   32
 71
    5
 72
    0
  3
Standard
 53
0
210
0
220
0
230
1
100
AcDbAlignedDimension
 13
211.5667514138083
 23
-93.41010280015811
 33
0
 14
212.7500896565604
 24
-13.46477171417136
 34
0
 50
90
100
AcDbRotatedDimension
  0
DIMENSION
  5
12E
100
AcDbEntity
  8
0
  6
ByLayer
 62
  256
370
   -1
100
AcDbDimension
  2
*D16
 10
211.6500200227298
 20
-87.25846022638412
 30
0
 11
169.2225416072191
 21
-83.50846022638412
 31
0
 70
   32
 71
    5
 72
    0
  3
Standard
 53
0
210
0
220
0
230
1
100
AcDbAlignedDimension
 13
126.7950631917084
 23
-93.58818411072588
 33
0
 14
211.6500200227298
 24
-94.26867950005493
 34
0
100
AcDbRotatedDimension
  0
DIMENSION
  5
12F
100
AcDbEntity
  8
0
  6
ByLayer
 62
  256
370
   -1
100
AcDbDimension
  2
*D17
 10
79.09459466960628
 20
-59.7590122221926
 30
0
 11
75.34459466960628
 21
-77.02404375742969
 31
0
 70
   32
 71
    5
 72
    0
  3
Standard
 53
0
210
0
220
0
230
1
100
AcDbAlignedDimension
 13
79.09459466960628
 23
-94.28907529266678
 33
0
 14
79.87682910809598
 24
-59.7590122221926
 34
0
 50
90
100
AcDbRotatedDimension
  0
DIMENSION
  5
130
100
AcDbEntity
  8
0
  6
ByLayer
 62
  256
370
   -1
100
AcDbDimension
  2
*D18
 10
126.8629611070141
 20
-87.27899577468929
 30
0
 11
102.9762110750512
 21
-83.52899577468929
 31
0
 70
   32
 71
    5
 72
    0
  3
Standard
 53
0
210
0
220
0
230
1
100
AcDbAlignedDimension
 13
79.08946104308841
 23
-94.31505206867936
 33
0
 14
126.8629611070141
 24
-94.23460819990848
 34
0
100
AcDbRotatedDimension
  0
DIMENSION
  5
131
100
AcDbEntity
  8
0
  6
ByLayer
 62
  256
370
   -1
100
AcDbDimension
  2
*D19
 10
28.4728517216296
 20
-87.24896534625951
 30
0
 11
57.25851253112901
 21
-83.49896534625951
 31
0
 70
   32
 71
    5
 72
    0
  3
Standard
 53
0
210
0
220
0
230
1
100
AcDbAlignedDimension
 13
79.07817574796464
 23
-94.3212088637043
 33
0
 14
35.43884931429339
 24
-94.21962515244762
 34
0
100
AcDbRotatedDimension
  0
DIMENSION
  5
132
100
AcDbEntity
  8
0
  6
ByLayer
 62
  256
370
   -1
100
AcDbDimension
  2
*D20
 10
437.1686679561058
 20
-87.27530862908141
 30
0
 11
419.2199400312819
 21
-83.52530862908141
 31
0
 70
   32
 71
    5
 72
    0
  3
Standard
 53
0
210
0
220
0
230
1
100
AcDbAlignedDimension
 13
392.3516175790098
 23
-94.44996800962527
 33
0
 14
446.088262483554
 24
-94.55827458138477
 34
0
100
AcDbRotatedDimension
  0
DIMENSION
  5
133
100
AcDbEntity
  8
0
  6
ByLayer
 62
  256
370
   -1
100
AcDbDimension
  2
*D21
 10
209.3790000866698
 20
-227.0581287573909
 30
0
 11
205.6290000866698
 21
-239.8926780565224
 31
0
 70
   32
 71
    5
 72
    0
  3
Standard
 53
0
210
0
220
0
230
1
100
AcDbAlignedDimension
 13
209.761665474357
 23
-251.1027299121712
 33
0
 14
209.2635385472445
 24
-228.6826262008735
 34
0
 50
90
100
AcDbRotatedDimension
  0
DIMENSION
  5
134
100
AcDbEntity
  8
0
  6
ByLayer
 62
  256
370
   -1
100
AcDbDimension
  2
*D22
 10
76.35707839330868
 20
-227.2879093711906
 30
0
 11
72.60707839330868
 21
-240.0879984498771
 31
0
 70
   32
 71
    5
 72
    0
  3
Standard
 53
0
210
0
220
0
230
1
100
AcDbAlignedDimension
 13
76.24772195923711
 23
-251.263590085081
 33
0
 14
76.24161685388336
 24
-228.9124068146732
 34
0
 50
90
100
AcDbRotatedDimension
  0
DIMENSION
  5
135
100
AcDbEntity
  8
0
  6
ByLayer
 62
  256
370
   -1
100
AcDbDimension
  2
*D23
 10
342.1412739884786
 20
-227.4056739770292
 30
0
 11
338.3912739884786
 21
-240.1815974133852
 31
0
 70
   32
 71
    5
 72
    0
  3
Standard
 53
0
210
0
220
0
230
1
100
AcDbAlignedDimension
 13
342.3865316567847
 23
-251.3330234062587
 33
0
 14
342.0258124490533
 24
-229.0301714205118
 34
0
 50
90
100
AcDbRotatedDimension
  0
ENDSEC
  0
SECTION
  2
OBJECTS
  0
DICTIONARY
  5
C
330
0
100
AcDbDictionary
281
    1
  3
ACAD_GROUP
350
D
  3
ACAD_IMAGE_DICT
350
136
  0
DICTIONARY
  5
D
330
C
100
AcDbDictionary
281
    1
  0
IMAGEDEF_REACTOR
  5
11D
330
11E
100
AcDbRasterImageDefReactor
 90
    2
330
11E
  0
DICTIONARY
  5
136
330
C
100
AcDbDictionary
281
    1
  3
LowerPOGO-Edge_Cuts
350
11C
  0
IMAGEDEF
  5
11C
102
{ACAD_REACTORS
330
11D
102
}
100
AcDbRasterImageDef
 90
    0
  1
C:/Users/Alexander J. Ross/Documents/KiCad/8.0/projects/LowerPOGO/SVG/LowerPOGO-Edge_Cuts.svg
 10
481
 20
269
 11
1
 21
1
280
    1
281
    0
  0
PLOTSETTINGS
  5
137
100
AcDbPlotSettings
  6
1x1
 40
0
 41
0
 42
0
 43
0
  0
ENDSEC
  0
EOF
