999
dxfrw 0.6.3
  0
SECTION
  2
HEADER
  9
$ACADVER
  1
AC1021
  9
$DWGCODEPAGE
  3
ANSI_1252
  9
$INSBASE
 10
0
 20
0
 30
0
  9
$EXTMIN
 10
2.052745533807295
 20
-270.9624104625629
 30
0
  9
$EXTMAX
 10
483.0527455338073
 20
-1.9624104625629
 30
0
  9
$LIMMIN
 10
0
 20
0
  9
$LIMMAX
 10
420
 20
297
  9
$ORTHOMODE
 70
    0
  9
$REGENMODE
 70
    1
  9
$FILLMODE
 70
    1
  9
$QTEXTMODE
 70
    0
  9
$MIRRTEXT
 70
    0
  9
$LTSCALE
 40
1
  9
$ATTMODE
 70
    0
  9
$TEXTSIZE
 40
2.5
  9
$TRACEWID
 40
15.68
  9
$TEXTSTYLE
  7
STANDARD
  9
$CLAYER
  8
0
  9
$CELTYPE
  6
BYLAYER
  9
$CECOLOR
 62
  256
  9
$CELTSCALE
 40
1
  9
$DISPSILH
 70
    0
  9
$DIMSCALE
 40
2
  9
$DIMASZ
 40
2.5
  9
$DIMEXO
 40
0.625
  9
$DIMDLI
 40
3.75
  9
$DIMRND
 40
0
  9
$DIMDLE
 40
0
  9
$DIMEXE
 40
1.25
  9
$DIMTP
 40
0
  9
$DIMTM
 40
0
  9
$DIMTXT
 40
2.5
  9
$DIMCEN
 40
2.5
  9
$DIMTSZ
 40
0
  9
$DIMTOL
 70
    0
  9
$DIMLIM
 70
    0
  9
$DIMTIH
 70
    0
  9
$DIMTOH
 70
    0
  9
$DIMSE1
 70
    0
  9
$DIMSE2
 70
    0
  9
$DIMTAD
 70
    1
  9
$DIMZIN
 70
    1
  9
$DIMBLK
  1

  9
$DIMASO
 70
    1
  9
$DIMSHO
 70
    1
  9
$DIMPOST
  1

  9
$DIMAPOST
  1

  9
$DIMALT
 70
    0
  9
$DIMALTD
 70
    3
  9
$DIMALTF
 40
0.03937
  9
$DIMLFAC
 40
1
  9
$DIMTOFL
 70
    1
  9
$DIMTVP
 40
0
  9
$DIMTIX
 70
    0
  9
$DIMSOXD
 70
    0
  9
$DIMSAH
 70
    0
  9
$DIMBLK1
  1

  9
$DIMBLK2
  1

  9
$DIMSTYLE
  2
STANDARD
  9
$DIMCLRD
 70
    0
  9
$DIMCLRE
 70
    0
  9
$DIMCLRT
 70
    0
  9
$DIMTFAC
 40
1
  9
$DIMGAP
 40
0.625
  9
$DIMJUST
 70
    0
  9
$DIMSD1
 70
    0
  9
$DIMSD2
 70
    0
  9
$DIMTOLJ
 70
    0
  9
$DIMTZIN
 70
    8
  9
$DIMALTZ
 70
    0
  9
$DIMALTTZ
 70
    0
  9
$DIMUPT
 70
    0
  9
$DIMDEC
 70
    1
  9
$DIMTDEC
 70
    2
  9
$DIMALTU
 70
    2
  9
$DIMALTTD
 70
    3
  9
$DIMTXSTY
  7
STANDARD
  9
$DIMAUNIT
 70
    0
  9
$DIMADEC
 70
    2
  9
$DIMALTRND
 40
0
  9
$DIMAZIN
 70
    0
  9
$DIMDSEP
 70
    0
  9
$DIMATFIT
 70
    3
  9
$DIMFRAC
 70
    0
  9
$DIMLDRBLK
  1
STANDARD
  9
$DIMLUNIT
 70
    2
  9
$DIMLWD
 70
   -2
  9
$DIMLWE
 70
   -2
  9
$DIMTMOVE
 70
    0
  9
$DIMFXL
 40
1
  9
$DIMFXLON
 70
    0
  9
$DIMJOGANG
 40
0.7854
  9
$DIMTFILL
 70
    0
  9
$DIMTFILLCLR
 70
    0
  9
$DIMARCSYM
 70
    0
  9
$DIMLTYPE
  6

  9
$DIMLTEX1
  6

  9
$DIMLTEX2
  6

  9
$LUNITS
 70
    2
  9
$LUPREC
 70
    3
  9
$SKETCHINC
 40
1
  9
$FILLETRAD
 40
0
  9
$AUNITS
 70
    0
  9
$AUPREC
 70
    2
  9
$MENU
  1
.
  9
$ELEVATION
 40
0
  9
$PELEVATION
 40
0
  9
$THICKNESS
 40
0
  9
$LIMCHECK
 70
    0
  9
$CHAMFERA
 40
0
  9
$CHAMFERB
 40
0
  9
$CHAMFERC
 40
0
  9
$CHAMFERD
 40
0
  9
$SKPOLY
 70
    0
  9
$USRTIMER
 70
    1
  9
$ANGBASE
 50
0
  9
$ANGDIR
 70
    0
  9
$PDMODE
 70
   34
  9
$PDSIZE
 40
0
  9
$PLINEWID
 40
0
  9
$SPLFRAME
 70
    0
  9
$SPLINETYPE
 70
    2
  9
$SPLINESEGS
 70
    8
  9
$HANDSEED
  5
20000
  9
$SURFTAB1
 70
    6
  9
$SURFTAB2
 70
    6
  9
$SURFTYPE
 70
    6
  9
$SURFU
 70
    6
  9
$SURFV
 70
    6
  9
$UCSBASE
  2

  9
$UCSNAME
  2

  9
$UCSORG
 10
0
 20
0
 30
0
  9
$UCSXDIR
 10
1
 20
0
 30
0
  9
$UCSYDIR
 10
0
 20
1
 30
0
  9
$UCSORTHOREF
  2

  9
$UCSORTHOVIEW
 70
    0
  9
$UCSORGTOP
 10
0
 20
0
 30
0
  9
$UCSORGBOTTOM
 10
0
 20
0
 30
0
  9
$UCSORGLEFT
 10
0
 20
0
 30
0
  9
$UCSORGRIGHT
 10
0
 20
0
 30
0
  9
$UCSORGFRONT
 10
0
 20
0
 30
0
  9
$UCSORGBACK
 10
0
 20
0
 30
0
  9
$PUCSBASE
  2

  9
$PUCSNAME
  2

  9
$PUCSORG
 10
0
 20
0
 30
0
  9
$PUCSXDIR
 10
1
 20
0
 30
0
  9
$PUCSYDIR
 10
0
 20
1
 30
0
  9
$PUCSORTHOREF
  2

  9
$PUCSORTHOVIEW
 70
    0
  9
$PUCSORGTOP
 10
0
 20
0
 30
0
  9
$PUCSORGBOTTOM
 10
0
 20
0
 30
0
  9
$PUCSORGLEFT
 10
0
 20
0
 30
0
  9
$PUCSORGRIGHT
 10
0
 20
0
 30
0
  9
$PUCSORGFRONT
 10
0
 20
0
 30
0
  9
$PUCSORGBACK
 10
0
 20
0
 30
0
  9
$USERI1
 70
    0
  9
$USERI2
 70
    0
  9
$USERI3
 70
    0
  9
$USERI4
 70
    0
  9
$USERI5
 70
    0
  9
$USERR1
 40
0
  9
$USERR2
 40
0
  9
$USERR3
 40
0
  9
$USERR4
 40
0
  9
$USERR5
 40
0
  9
$WORLDVIEW
 70
    1
  9
$SHADEDGE
 70
    3
  9
$SHADEDIF
 70
   70
  9
$TILEMODE
 70
    1
  9
$MAXACTVP
 70
   64
  9
$PINSBASE
 10
0
 20
0
 30
0
  9
$PLIMCHECK
 70
    0
  9
$PEXTMIN
 10
0
 20
0
 30
0
  9
$PEXTMAX
 10
0
 20
0
 30
0
  9
$GRIDMODE
 70
    1
  9
$GRIDUNIT
 10
0
 20
0
  9
$PLIMMIN
 10
0
 20
0
  9
$PLIMMAX
 10
210
 20
297
  9
$UNITMODE
 70
    0
  9
$VISRETAIN
 70
    1
  9
$PLINEGEN
 70
    0
  9
$PSLTSCALE
 70
    1
  9
$TREEDEPTH
 70
 3020
  9
$CMLSTYLE
  2
Standard
  9
$CMLJUST
 70
    0
  9
$CMLSCALE
 40
20
  9
$PROXYGRAPHICS
 70
    1
  9
$MEASUREMENT
 70
    1
  9
$CELWEIGHT
370
   -1
  9
$ENDCAPS
280
    0
  9
$JOINSTYLE
280
    0
  9
$LWDISPLAY
290
    0
  9
$INSUNITS
 70
    4
  9
$HYPERLINKBASE
  1

  9
$STYLESHEET
  1

  9
$XEDIT
290
    1
  9
$CEPSNTYPE
380
    0
  9
$PSTYLEMODE
290
    1
  9
$EXTNAMES
290
    1
  9
$PSVPSCALE
 40
1
  9
$OLESTARTUP
290
    0
  9
$SORTENTS
280
  127
  9
$INDEXCTL
280
    0
  9
$HIDETEXT
280
    1
  9
$XCLIPFRAME
290
    0
  9
$HALOGAP
280
    0
  9
$OBSCOLOR
 70
  257
  9
$OBSLTYPE
280
    0
  9
$INTERSECTIONDISPLAY
280
    0
  9
$INTERSECTIONCOLOR
 70
  257
  9
$DIMASSOC
280
    1
  9
$PROJECTNAME
  1

  9
$CAMERADISPLAY
290
    0
  9
$LENSLENGTH
 40
50
  9
$CAMERAHEIGHT
 40
0
  9
$STEPSPERSEC
 40
2
  9
$STEPSIZE
 40
50
  9
$3DDWFPREC
 40
2
  9
$PSOLWIDTH
 40
5
  9
$PSOLHEIGHT
 40
80
  9
$LOFTANG1
 40
1.570796326794897
  9
$LOFTANG2
 40
1.570796326794897
  9
$LOFTMAG1
 40
0
  9
$LOFTMAG2
 40
0
  9
$LOFTPARAM
 70
    7
  9
$LOFTNORMALS
280
    1
  9
$LATITUDE
 40
1
  9
$LONGITUDE
 40
1
  9
$NORTHDIRECTION
 40
0
  9
$TIMEZONE
 70
-8000
  9
$LIGHTGLYPHDISPLAY
280
    1
  9
$TILEMODELIGHTSYNCH
280
    1
  9
$SOLIDHIST
280
    1
  9
$SHOWHIST
280
    1
  9
$DWFFRAME
280
    2
  9
$DGNFRAME
280
    0
  9
$REALWORLDSCALE
290
    1
  9
$INTERFERECOLOR
 62
    1
  9
$CSHADOW
280
    0
  9
$SHADOWPLANELOCATION
 40
0
  0
ENDSEC
  0
SECTION
  2
CLASSES
  0
ENDSEC
  0
SECTION
  2
TABLES
  0
TABLE
  2
VPORT
  5
8
330
0
100
AcDbSymbolTable
 70
    1
  0
VPORT
  5
31
330
2
100
AcDbSymbolTableRecord
100
AcDbViewportTableRecord
  2
*ACTIVE
 70
    0
 10
0
 20
0
 11
1
 21
1
 12
260.1279683377309
 22
0.887203166226913
 13
0
 23
0
 14
10
 24
10
 15
10
 25
10
 16
0
 26
0
 36
1
 17
0
 27
0
 37
0
 40
276.0976253298153
 41
2.011568123393316
 42
50
 43
0
 44
0
 50
0
 51
0
 71
    0
 72
  100
 73
    1
 74
    3
 75
    0
 76
    1
 77
    0
 78
    0
281
    0
 65
    1
110
0
120
0
130
0
111
1
121
0
131
0
112
0
122
1
132
0
 79
    0
146
0
348
10020
 60
    7
 61
    5
292
1
282
    1
141
0
142
0
 63
  250
421
3358443
  0
ENDTAB
  0
TABLE
  2
LTYPE
  5
5
330
0
100
AcDbSymbolTable
 70
    4
  0
LTYPE
  5
14
330
5
100
AcDbSymbolTableRecord
100
AcDbLinetypeTableRecord
  2
ByBlock
 70
    0
  3

 72
   65
 73
    0
 40
0
  0
LTYPE
  5
15
330
5
100
AcDbSymbolTableRecord
100
AcDbLinetypeTableRecord
  2
ByLayer
 70
    0
  3

 72
   65
 73
    0
 40
0
  0
LTYPE
  5
16
330
5
100
AcDbSymbolTableRecord
100
AcDbLinetypeTableRecord
  2
Continuous
 70
    0
  3
Solid line
 72
   65
 73
    0
 40
0
  0
LTYPE
  5
32
330
5
100
AcDbSymbolTableRecord
100
AcDbLinetypeTableRecord
  2
DOT
 70
    0
  3
Dot . . . . . . . . . . . . . . . . . . . . . .
 72
   65
 73
    2
 40
6.35
 49
0
 74
    0
 49
-6.35
 74
    0
  0
LTYPE
  5
33
330
5
100
AcDbSymbolTableRecord
100
AcDbLinetypeTableRecord
  2
DOTTINY
 70
    0
  3
Dot (.15x) .....................................
 72
   65
 73
    2
 40
0.9525
 49
0
 74
    0
 49
-0.9525
 74
    0
  0
LTYPE
  5
34
330
5
100
AcDbSymbolTableRecord
100
AcDbLinetypeTableRecord
  2
DOT2
 70
    0
  3
Dot (.5x) .....................................
 72
   65
 73
    2
 40
3.175
 49
0
 74
    0
 49
-3.175
 74
    0
  0
LTYPE
  5
35
330
5
100
AcDbSymbolTableRecord
100
AcDbLinetypeTableRecord
  2
DOTX2
 70
    0
  3
Dot (2x) .  .  .  .  .  .  .  .  .  .  .  .  .
 72
   65
 73
    2
 40
12.7
 49
0
 74
    0
 49
-12.7
 74
    0
  0
LTYPE
  5
36
330
5
100
AcDbSymbolTableRecord
100
AcDbLinetypeTableRecord
  2
DASHED
 70
    0
  3
Dashed _ _ _ _ _ _ _ _ _ _ _ _ _ _ _ _ _
 72
   65
 73
    2
 40
19.05
 49
12.7
 74
    0
 49
-6.35
 74
    0
  0
LTYPE
  5
37
330
5
100
AcDbSymbolTableRecord
100
AcDbLinetypeTableRecord
  2
DASHEDTINY
 70
    0
  3
Dashed (.15x) _ _ _ _ _ _ _ _ _ _ _ _ _ _ _ _ _
 72
   65
 73
    2
 40
2.8575
 49
1.905
 74
    0
 49
-0.9525
 74
    0
  0
LTYPE
  5
38
330
5
100
AcDbSymbolTableRecord
100
AcDbLinetypeTableRecord
  2
DASHED2
 70
    0
  3
Dashed (.5x) _ _ _ _ _ _ _ _ _ _ _ _ _ _ _ _ _
 72
   65
 73
    2
 40
9.524999999999999
 49
6.35
 74
    0
 49
-3.175
 74
    0
  0
LTYPE
  5
39
330
5
100
AcDbSymbolTableRecord
100
AcDbLinetypeTableRecord
  2
DASHEDX2
 70
    0
  3
Dashed (2x) ____  ____  ____  ____  ____  ___
 72
   65
 73
    2
 40
38.09999999999999
 49
25.4
 74
    0
 49
-12.7
 74
    0
  0
LTYPE
  5
3A
330
5
100
AcDbSymbolTableRecord
100
AcDbLinetypeTableRecord
  2
DASHDOT
 70
    0
  3
Dash dot __ . __ . __ . __ . __ . __ . __ . __
 72
   65
 73
    4
 40
25.4
 49
12.7
 74
    0
 49
-6.35
 74
    0
 49
0
 74
    0
 49
-6.35
 74
    0
  0
LTYPE
  5
3B
330
5
100
AcDbSymbolTableRecord
100
AcDbLinetypeTableRecord
  2
DASHDOTTINY
 70
    0
  3
Dash dot (.15x) _._._._._._._._._._._._._._._.
 72
   65
 73
    4
 40
3.81
 49
1.905
 74
    0
 49
-0.9525
 74
    0
 49
0
 74
    0
 49
-0.9525
 74
    0
  0
LTYPE
  5
3C
330
5
100
AcDbSymbolTableRecord
100
AcDbLinetypeTableRecord
  2
DASHDOT2
 70
    0
  3
Dash dot (.5x) _._._._._._._._._._._._._._._.
 72
   65
 73
    4
 40
12.7
 49
6.35
 74
    0
 49
-3.175
 74
    0
 49
0
 74
    0
 49
-3.175
 74
    0
  0
LTYPE
  5
3D
330
5
100
AcDbSymbolTableRecord
100
AcDbLinetypeTableRecord
  2
DASHDOTX2
 70
    0
  3
Dash dot (2x) ____  .  ____  .  ____  .  ___
 72
   65
 73
    4
 40
50.8
 49
25.4
 74
    0
 49
-12.7
 74
    0
 49
0
 74
    0
 49
-12.7
 74
    0
  0
LTYPE
  5
3E
330
5
100
AcDbSymbolTableRecord
100
AcDbLinetypeTableRecord
  2
DIVIDE
 70
    0
  3
Divide ____ . . ____ . . ____ . . ____ . . ____
 72
   65
 73
    6
 40
31.75
 49
12.7
 74
    0
 49
-6.35
 74
    0
 49
0
 74
    0
 49
-6.35
 74
    0
 49
0
 74
    0
 49
-6.35
 74
    0
  0
LTYPE
  5
3F
330
5
100
AcDbSymbolTableRecord
100
AcDbLinetypeTableRecord
  2
DIVIDETINY
 70
    0
  3
Divide (.15x) __..__..__..__..__..__..__..__.._
 72
   65
 73
    6
 40
4.7625
 49
1.905
 74
    0
 49
-0.9525
 74
    0
 49
0
 74
    0
 49
-0.9525
 74
    0
 49
0
 74
    0
 49
-0.9525
 74
    0
  0
LTYPE
  5
40
330
5
100
AcDbSymbolTableRecord
100
AcDbLinetypeTableRecord
  2
DIVIDE2
 70
    0
  3
Divide (.5x) __..__..__..__..__..__..__..__.._
 72
   65
 73
    6
 40
15.875
 49
6.35
 74
    0
 49
-3.175
 74
    0
 49
0
 74
    0
 49
-3.175
 74
    0
 49
0
 74
    0
 49
-3.175
 74
    0
  0
LTYPE
  5
41
330
5
100
AcDbSymbolTableRecord
100
AcDbLinetypeTableRecord
  2
DIVIDEX2
 70
    0
  3
Divide (2x) ________  .  .  ________  .  .  _
 72
   65
 73
    6
 40
63.5
 49
25.4
 74
    0
 49
-12.7
 74
    0
 49
0
 74
    0
 49
-12.7
 74
    0
 49
0
 74
    0
 49
-12.7
 74
    0
  0
LTYPE
  5
42
330
5
100
AcDbSymbolTableRecord
100
AcDbLinetypeTableRecord
  2
BORDER
 70
    0
  3
Border __ __ . __ __ . __ __ . __ __ . __ __ .
 72
   65
 73
    6
 40
44.45
 49
12.7
 74
    0
 49
-6.35
 74
    0
 49
12.7
 74
    0
 49
-6.35
 74
    0
 49
0
 74
    0
 49
-6.35
 74
    0
  0
LTYPE
  5
43
330
5
100
AcDbSymbolTableRecord
100
AcDbLinetypeTableRecord
  2
BORDERTINY
 70
    0
  3
Border (.15x) __.__.__.__.__.__.__.__.__.__.__.
 72
   65
 73
    6
 40
6.6675
 49
1.905
 74
    0
 49
-0.9525
 74
    0
 49
1.905
 74
    0
 49
-0.9525
 74
    0
 49
0
 74
    0
 49
-0.9525
 74
    0
  0
LTYPE
  5
44
330
5
100
AcDbSymbolTableRecord
100
AcDbLinetypeTableRecord
  2
BORDER2
 70
    0
  3
Border (.5x) __.__.__.__.__.__.__.__.__.__.__.
 72
   65
 73
    6
 40
22.225
 49
6.35
 74
    0
 49
-3.175
 74
    0
 49
6.35
 74
    0
 49
-3.175
 74
    0
 49
0
 74
    0
 49
-3.175
 74
    0
  0
LTYPE
  5
45
330
5
100
AcDbSymbolTableRecord
100
AcDbLinetypeTableRecord
  2
BORDERX2
 70
    0
  3
Border (2x) ____  ____  .  ____  ____  .  ___
 72
   65
 73
    6
 40
88.89999999999999
 49
25.4
 74
    0
 49
-12.7
 74
    0
 49
25.4
 74
    0
 49
-12.7
 74
    0
 49
0
 74
    0
 49
-12.7
 74
    0
  0
LTYPE
  5
46
330
5
100
AcDbSymbolTableRecord
100
AcDbLinetypeTableRecord
  2
CENTER
 70
    0
  3
Center ____ _ ____ _ ____ _ ____ _ ____ _ ____
 72
   65
 73
    4
 40
50.8
 49
31.75
 74
    0
 49
-6.35
 74
    0
 49
6.35
 74
    0
 49
-6.35
 74
    0
  0
LTYPE
  5
47
330
5
100
AcDbSymbolTableRecord
100
AcDbLinetypeTableRecord
  2
CENTERTINY
 70
    0
  3
Center (.15x) ___ _ ___ _ ___ _ ___ _ ___ _ ___
 72
   65
 73
    4
 40
7.62
 49
4.7625
 74
    0
 49
-0.9525
 74
    0
 49
0.9525
 74
    0
 49
-0.9525
 74
    0
  0
LTYPE
  5
48
330
5
100
AcDbSymbolTableRecord
100
AcDbLinetypeTableRecord
  2
CENTER2
 70
    0
  3
Center (.5x) ___ _ ___ _ ___ _ ___ _ ___ _ ___
 72
   65
 73
    4
 40
28.575
 49
19.05
 74
    0
 49
-3.175
 74
    0
 49
3.175
 74
    0
 49
-3.175
 74
    0
  0
LTYPE
  5
49
330
5
100
AcDbSymbolTableRecord
100
AcDbLinetypeTableRecord
  2
CENTERX2
 70
    0
  3
Center (2x) ________  __  ________  __  _____
 72
   65
 73
    4
 40
101.6
 49
63.5
 74
    0
 49
-12.7
 74
    0
 49
12.7
 74
    0
 49
-12.7
 74
    0
  0
ENDTAB
  0
TABLE
  2
LAYER
  5
2
330
0
100
AcDbSymbolTable
 70
    1
  0
LAYER
  5
10
330
2
100
AcDbSymbolTableRecord
100
AcDbLayerTableRecord
  2
0
 70
    0
 62
    7
  6
CONTINUOUS
370
    0
390
F
  0
ENDTAB
  0
TABLE
  2
STYLE
  5
3
330
0
100
AcDbSymbolTable
 70
    3
  0
STYLE
  5
4A
330
2
100
AcDbSymbolTableRecord
100
AcDbTextStyleTableRecord
  2
Standard
 70
    0
 40
0
 41
1
 50
0
 71
    0
 42
1
  3
txt
  4

  0
ENDTAB
  0
TABLE
  2
VIEW
  5
6
330
0
100
AcDbSymbolTable
 70
    0
  0
ENDTAB
  0
TABLE
  2
UCS
  5
7
330
0
100
AcDbSymbolTable
 70
    0
  0
ENDTAB
  0
TABLE
  2
APPID
  5
9
330
0
100
AcDbSymbolTable
 70
    1
  0
APPID
  5
12
330
9
100
AcDbSymbolTableRecord
100
AcDbRegAppTableRecord
  2
ACAD
 70
    0
  0
APPID
  5
4B
330
9
100
AcDbSymbolTableRecord
100
AcDbRegAppTableRecord
  2
LibreCad
 70
    0
  0
ENDTAB
  0
TABLE
  2
DIMSTYLE
  5
A
330
0
100
AcDbSymbolTable
 70
    1
100
AcDbDimStyleTable
 71
    1
  0
DIMSTYLE
105
4C
330
A
100
AcDbSymbolTableRecord
100
AcDbDimStyleTableRecord
  2
Standard
 70
    0
 40
2
 41
2.5
 42
0.625
 43
0.38
 44
1.25
 45
0
 46
0
 47
0
 48
0
 49
1
140
2.5
141
0.09
142
0
143
25.4
144
0.2825
145
0
146
1
147
0.625
148
0
 71
    0
 72
    0
 73
    0
 74
    1
 75
    0
 76
    0
 77
    0
 78
    1
 79
    0
170
    0
171
    2
172
    0
173
    0
174
    0
175
    0
176
    0
177
    0
178
    0
179
    2
271
    1
272
    4
273
    2
274
    2
275
    0
276
    0
277
    2
278
    0
279
    0
280
    0
281
    0
282
    0
283
    1
284
    0
285
    0
286
    0
288
    0
289
    3
340
standard
341

371
   -2
372
   -2
  0
ENDTAB
  0
TABLE
  2
BLOCK_RECORD
  5
1
330
0
100
AcDbSymbolTable
 70
    2
  0
BLOCK_RECORD
  5
1F
330
1
100
AcDbSymbolTableRecord
100
AcDbBlockTableRecord
  2
*Model_Space
 70
    0
280
    1
281
    0
  0
BLOCK_RECORD
  5
1E
330
1
100
AcDbSymbolTableRecord
100
AcDbBlockTableRecord
  2
*Paper_Space
 70
    0
280
    1
281
    0
  0
BLOCK_RECORD
  5
4D
330
1
100
AcDbSymbolTableRecord
100
AcDbBlockTableRecord
  2
*D5
 70
    0
280
    1
281
    0
  0
BLOCK_RECORD
  5
50
330
1
100
AcDbSymbolTableRecord
100
AcDbBlockTableRecord
  2
*D12
 70
    0
280
    1
281
    0
  0
BLOCK_RECORD
  5
53
330
1
100
AcDbSymbolTableRecord
100
AcDbBlockTableRecord
  2
*D20
 70
    0
280
    1
281
    0
  0
BLOCK_RECORD
  5
56
330
1
100
AcDbSymbolTableRecord
100
AcDbBlockTableRecord
  2
*D16
 70
    0
280
    1
281
    0
  0
BLOCK_RECORD
  5
59
330
1
100
AcDbSymbolTableRecord
100
AcDbBlockTableRecord
  2
*D8
 70
    0
280
    1
281
    0
  0
BLOCK_RECORD
  5
5C
330
1
100
AcDbSymbolTableRecord
100
AcDbBlockTableRecord
  2
*D18
 70
    0
280
    1
281
    0
  0
BLOCK_RECORD
  5
5F
330
1
100
AcDbSymbolTableRecord
100
AcDbBlockTableRecord
  2
*D19
 70
    0
280
    1
281
    0
  0
BLOCK_RECORD
  5
62
330
1
100
AcDbSymbolTableRecord
100
AcDbBlockTableRecord
  2
*D2
 70
    0
280
    1
281
    0
  0
BLOCK_RECORD
  5
65
330
1
100
AcDbSymbolTableRecord
100
AcDbBlockTableRecord
  2
*D1
 70
    0
280
    1
281
    0
  0
BLOCK_RECORD
  5
68
330
1
100
AcDbSymbolTableRecord
100
AcDbBlockTableRecord
  2
*D10
 70
    0
280
    1
281
    0
  0
BLOCK_RECORD
  5
6B
330
1
100
AcDbSymbolTableRecord
100
AcDbBlockTableRecord
  2
*D21
 70
    0
280
    1
281
    0
  0
BLOCK_RECORD
  5
6E
330
1
100
AcDbSymbolTableRecord
100
AcDbBlockTableRecord
  2
*D3
 70
    0
280
    1
281
    0
  0
BLOCK_RECORD
  5
71
330
1
100
AcDbSymbolTableRecord
100
AcDbBlockTableRecord
  2
*D17
 70
    0
280
    1
281
    0
  0
BLOCK_RECORD
  5
74
330
1
100
AcDbSymbolTableRecord
100
AcDbBlockTableRecord
  2
*D4
 70
    0
280
    1
281
    0
  0
BLOCK_RECORD
  5
77
330
1
100
AcDbSymbolTableRecord
100
AcDbBlockTableRecord
  2
*D13
 70
    0
280
    1
281
    0
  0
BLOCK_RECORD
  5
7A
330
1
100
AcDbSymbolTableRecord
100
AcDbBlockTableRecord
  2
*D14
 70
    0
280
    1
281
    0
  0
BLOCK_RECORD
  5
7D
330
1
100
AcDbSymbolTableRecord
100
AcDbBlockTableRecord
  2
*D22
 70
    0
280
    1
281
    0
  0
BLOCK_RECORD
  5
80
330
1
100
AcDbSymbolTableRecord
100
AcDbBlockTableRecord
  2
*D11
 70
    0
280
    1
281
    0
  0
BLOCK_RECORD
  5
83
330
1
100
AcDbSymbolTableRecord
100
AcDbBlockTableRecord
  2
*D6
 70
    0
280
    1
281
    0
  0
BLOCK_RECORD
  5
86
330
1
100
AcDbSymbolTableRecord
100
AcDbBlockTableRecord
  2
*D7
 70
    0
280
    1
281
    0
  0
BLOCK_RECORD
  5
89
330
1
100
AcDbSymbolTableRecord
100
AcDbBlockTableRecord
  2
*D9
 70
    0
280
    1
281
    0
  0
BLOCK_RECORD
  5
8C
330
1
100
AcDbSymbolTableRecord
100
AcDbBlockTableRecord
  2
*D23
 70
    0
280
    1
281
    0
  0
BLOCK_RECORD
  5
8F
330
1
100
AcDbSymbolTableRecord
100
AcDbBlockTableRecord
  2
*D15
 70
    0
280
    1
281
    0
  0
ENDTAB
  0
ENDSEC
  0
SECTION
  2
BLOCKS
  0
BLOCK
  5
20
330
1F
100
AcDbEntity
  8
0
100
AcDbBlockBegin
  2
*Model_Space
 70
    0
 10
0
 20
0
 30
0
  3
*Model_Space
  1

  0
ENDBLK
  5
21
330
1F
100
AcDbEntity
  8
0
100
AcDbBlockEnd
  0
BLOCK
  5
1C
330
1B
100
AcDbEntity
  8
0
100
AcDbBlockBegin
  2
*Paper_Space
 70
    0
 10
0
 20
0
 30
0
  3
*Paper_Space
  1

  0
ENDBLK
  5
1D
330
1F
100
AcDbEntity
  8
0
100
AcDbBlockEnd
  0
BLOCK
  5
4E
330
4D
100
AcDbEntity
  8
0
100
AcDbBlockBegin
  2
*D5
 70
    1
 10
0
 20
0
  3
*D5
  1

  0
LINE
  5
92
100
AcDbEntity
  8
0
  6
ByBlock
 62
    0
370
   -2
100
AcDbLine
 10
445.5271666845587
 20
-261.6104245736872
 11
34.86308910898035
 21
-261.6104245736872
  0
MTEXT
  5
93
100
AcDbEntity
  8
0
  6
CONTINUOUS
 62
    0
370
   -2
100
AcDbMText
 10
240.1951278967695
 20
-257.8604245736872
 30
0
 40
5
 41
13.33333333333365
 71
    5
 72
    1
  1
116.0
  7
standard
210
0
220
0
230
1
 50
0
 73
    2
 44
1
  0
SOLID
  5
94
100
AcDbEntity
  8
0
  6
ByBlock
 62
    0
370
   -2
100
AcDbTrace
 10
445.5271666845587
 20
-261.6104245736872
 30
0
 11
440.5271666845587
 21
-262.4429938892329
 31
0
 12
440.5271666845587
 22
-260.7778552581415
 32
0
 13
440.5271666845587
 23
-260.7778552581415
 33
0
  0
SOLID
  5
95
100
AcDbEntity
  8
0
  6
ByBlock
 62
    0
370
   -2
100
AcDbTrace
 10
34.86308910898035
 20
-261.6104245736872
 30
0
 11
39.86308910898035
 21
-260.7778552581415
 31
0
 12
39.86308910898035
 22
-262.4429938892329
 32
0
 13
39.86308910898035
 23
-262.4429938892329
 33
0
  0
LINE
  5
96
100
AcDbEntity
  8
0
  6
ByBlock
 62
    0
370
   -2
100
AcDbLine
 10
445.5271666845587
 20
-252.6174675846732
 11
445.5271666845587
 21
-264.1104245736872
  0
LINE
  5
97
100
AcDbEntity
  8
0
  6
ByBlock
 62
    0
370
   -2
100
AcDbLine
 10
34.86308910898035
 20
-252.42894909226
 11
34.86308910898035
 21
-264.1104245736872
  0
ENDBLK
  5
4F
330
4D
100
AcDbEntity
  8
0
100
AcDbBlockEnd
  0
BLOCK
  5
51
330
50
100
AcDbEntity
  8
0
100
AcDbBlockBegin
  2
*D12
 70
    1
 10
0
 20
0
  3
*D12
  1

  0
LINE
  5
98
100
AcDbEntity
  8
0
  6
ByBlock
 62
    0
370
   -2
100
AcDbLine
 10
353.5422087254905
 20
-87.28831176552033
 11
401.3438814455873
 21
-87.28831176552033
  0
MTEXT
  5
99
100
AcDbEntity
  8
0
  6
CONTINUOUS
 62
    0
370
   -2
100
AcDbMText
 10
377.4430450855389
 20
-83.53831176552033
 30
0
 40
5
 41
10.55555555555618
 71
    5
 72
    1
  1
13.5
  7
standard
210
0
220
0
230
1
 50
0
 73
    2
 44
1
  0
SOLID
  5
9A
100
AcDbEntity
  8
0
  6
ByBlock
 62
    0
370
   -2
100
AcDbTrace
 10
353.5422087254905
 20
-87.28831176552033
 30
0
 11
358.5422087254905
 21
-86.45574244997465
 31
0
 12
358.5422087254905
 22
-88.12088108106602
 32
0
 13
358.5422087254905
 23
-88.12088108106602
 33
0
  0
SOLID
  5
9B
100
AcDbEntity
  8
0
  6
ByBlock
 62
    0
370
   -2
100
AcDbTrace
 10
401.3438814455873
 20
-87.28831176552033
 30
0
 11
396.3438814455873
 21
-88.12088108106602
 31
0
 12
396.3438814455873
 22
-86.45574244997465
 32
0
 13
396.3438814455873
 23
-86.45574244997465
 33
0
  0
LINE
  5
9C
100
AcDbEntity
  8
0
  6
ByBlock
 62
    0
370
   -2
100
AcDbLine
 10
353.5422087254905
 20
-92.5380920457597
 11
353.5422087254905
 21
-84.78831176552033
  0
LINE
  5
9D
100
AcDbEntity
  8
0
  6
ByBlock
 62
    0
370
   -2
100
AcDbLine
 10
401.3438814455873
 20
-92.62453268358989
 11
401.3438814455873
 21
-84.78831176552033
  0
ENDBLK
  5
52
330
50
100
AcDbEntity
  8
0
100
AcDbBlockEnd
  0
BLOCK
  5
54
330
53
100
AcDbEntity
  8
0
100
AcDbBlockBegin
  2
*D20
 70
    1
 10
0
 20
0
  3
*D20
  1

  0
LINE
  5
9E
100
AcDbEntity
  8
0
  6
ByBlock
 62
    0
370
   -2
100
AcDbLine
 10
219.7065844581474
 20
-93.41010280015811
 11
219.7065844581474
 21
-13.46477171417136
  0
MTEXT
  5
9F
100
AcDbEntity
  8
0
  6
CONTINUOUS
 62
    0
370
   -2
100
AcDbMText
 10
215.9565844581474
 20
-53.43743725716474
 30
0
 40
5
 41
11.66666666666698
 71
    5
 72
    1
  1
22.6
  7
standard
210
0
220
0
230
1
 50
90
 73
    2
 44
1
  0
SOLID
  5
A0
100
AcDbEntity
  8
0
  6
ByBlock
 62
    0
370
   -2
100
AcDbTrace
 10
219.7065844581474
 20
-93.41010280015811
 30
0
 11
218.8740151426017
 21
-88.41010280015811
 31
0
 12
220.5391537736931
 22
-88.41010280015811
 32
0
 13
220.5391537736931
 23
-88.41010280015811
 33
0
  0
SOLID
  5
A1
100
AcDbEntity
  8
0
  6
ByBlock
 62
    0
370
   -2
100
AcDbTrace
 10
219.7065844581474
 20
-13.46477171417136
 30
0
 11
220.5391537736931
 21
-18.46477171417136
 31
0
 12
218.8740151426017
 22
-18.46477171417136
 32
0
 13
218.8740151426017
 23
-18.46477171417136
 33
0
  0
LINE
  5
A2
100
AcDbEntity
  8
0
  6
ByBlock
 62
    0
370
   -2
100
AcDbLine
 10
220.8102914654879
 20
-93.41010280015811
 11
222.2065844581474
 21
-93.41010280015811
  0
LINE
  5
A3
100
AcDbEntity
  8
0
  6
ByBlock
 62
    0
370
   -2
100
AcDbLine
 10
219.49362970824
 20
-13.46477171417136
 11
217.2065844581474
 21
-13.46477171417136
  0
ENDBLK
  5
55
330
53
100
AcDbEntity
  8
0
100
AcDbBlockEnd
  0
BLOCK
  5
57
330
56
100
AcDbEntity
  8
0
100
AcDbBlockBegin
  2
*D16
 70
    1
 10
0
 20
0
  3
*D16
  1

  0
LINE
  5
A4
100
AcDbEntity
  8
0
  6
ByBlock
 62
    0
370
   -2
100
AcDbLine
 10
267.4000738984201
 20
-87.27691488923666
 11
353.4635631123747
 21
-87.27691488923666
  0
MTEXT
  5
A5
100
AcDbEntity
  8
0
  6
CONTINUOUS
 62
    0
370
   -2
100
AcDbMText
 10
310.4318185053974
 20
-83.52691488923666
 30
0
 40
5
 41
12.22222222222253
 71
    5
 72
    1
  1
24.3
  7
standard
210
0
220
0
230
1
 50
0
 73
    2
 44
1
  0
SOLID
  5
A6
100
AcDbEntity
  8
0
  6
ByBlock
 62
    0
370
   -2
100
AcDbTrace
 10
267.4000738984201
 20
-87.27691488923666
 30
0
 11
272.4000738984201
 21
-86.44434557369098
 31
0
 12
272.4000738984201
 22
-88.10948420478235
 32
0
 13
272.4000738984201
 23
-88.10948420478235
 33
0
  0
SOLID
  5
A7
100
AcDbEntity
  8
0
  6
ByBlock
 62
    0
370
   -2
100
AcDbTrace
 10
353.4635631123747
 20
-87.27691488923666
 30
0
 11
348.4635631123747
 21
-88.10948420478235
 31
0
 12
348.4635631123747
 22
-86.44434557369098
 32
0
 13
348.4635631123747
 23
-86.44434557369098
 33
0
  0
LINE
  5
A8
100
AcDbEntity
  8
0
  6
ByBlock
 62
    0
370
   -2
100
AcDbLine
 10
267.4000738984201
 20
-92.07833016863707
 11
267.4000738984201
 21
-84.77691488923666
  0
LINE
  5
A9
100
AcDbEntity
  8
0
  6
ByBlock
 62
    0
370
   -2
100
AcDbLine
 10
353.4635631123747
 20
-92.45567133581422
 11
353.4635631123747
 21
-84.77691488923666
  0
ENDBLK
  5
58
330
56
100
AcDbEntity
  8
0
100
AcDbBlockEnd
  0
BLOCK
  5
5A
330
59
100
AcDbEntity
  8
0
100
AcDbBlockBegin
  2
*D8
 70
    1
 10
0
 20
0
  3
*D8
  1

  0
LINE
  5
AA
100
AcDbEntity
  8
0
  6
ByBlock
 62
    0
370
   -2
100
AcDbLine
 10
86.38103156464899
 20
-94.31512372647316
 11
86.38103156464899
 21
-59.78506065599898
  0
MTEXT
  5
AB
100
AcDbEntity
  8
0
  6
CONTINUOUS
 62
    0
370
   -2
100
AcDbMText
 10
82.63103156464899
 20
-77.05009219123608
 30
0
 40
5
 41
7.777777777778088
 71
    5
 72
    1
  1
9.8
  7
standard
210
0
220
0
230
1
 50
90
 73
    2
 44
1
  0
SOLID
  5
AC
100
AcDbEntity
  8
0
  6
ByBlock
 62
    0
370
   -2
100
AcDbTrace
 10
86.38103156464899
 20
-94.31512372647316
 30
0
 11
85.54846224910331
 21
-89.31512372647316
 31
0
 12
87.21360088019468
 22
-89.31512372647316
 32
0
 13
87.21360088019468
 23
-89.31512372647316
 33
0
  0
SOLID
  5
AD
100
AcDbEntity
  8
0
  6
ByBlock
 62
    0
370
   -2
100
AcDbTrace
 10
86.38103156464899
 20
-59.78506065599898
 30
0
 11
87.21360088019468
 21
-64.78506065599898
 31
0
 12
85.54846224910331
 22
-64.78506065599898
 32
0
 13
85.54846224910331
 23
-64.78506065599898
 33
0
  0
LINE
  5
AE
100
AcDbEntity
  8
0
  6
ByBlock
 62
    0
370
   -2
100
AcDbLine
 10
85.13103156464899
 20
-94.31512372647316
 11
83.88103156464899
 21
-94.31512372647316
  0
LINE
  5
AF
100
AcDbEntity
  8
0
  6
ByBlock
 62
    0
370
   -2
100
AcDbLine
 10
85.9132660031387
 20
-59.78506065599898
 11
83.88103156464899
 21
-59.78506065599898
  0
ENDBLK
  5
5B
330
59
100
AcDbEntity
  8
0
100
AcDbBlockEnd
  0
BLOCK
  5
5D
330
5C
100
AcDbEntity
  8
0
100
AcDbBlockBegin
  2
*D18
 70
    1
 10
0
 20
0
  3
*D18
  1

  0
LINE
  5
B0
100
AcDbEntity
  8
0
  6
ByBlock
 62
    0
370
   -2
100
AcDbLine
 10
219.2363042650784
 20
-250.9380141730747
 11
219.2363042650784
 21
-232.5147169299882
  0
MTEXT
  5
B1
100
AcDbEntity
  8
0
  6
CONTINUOUS
 62
    0
370
   -2
100
AcDbMText
 10
215.4863042650784
 20
-241.7263655515314
 30
0
 40
5
 41
7.777777777778088
 71
    5
 72
    1
  1
5.2
  7
standard
210
0
220
0
230
1
 50
90
 73
    2
 44
1
  0
SOLID
  5
B2
100
AcDbEntity
  8
0
  6
ByBlock
 62
    0
370
   -2
100
AcDbTrace
 10
219.2363042650784
 20
-250.9380141730747
 30
0
 11
218.4037349495327
 21
-245.9380141730747
 31
0
 12
220.068873580624
 22
-245.9380141730747
 32
0
 13
220.068873580624
 23
-245.9380141730747
 33
0
  0
SOLID
  5
B3
100
AcDbEntity
  8
0
  6
ByBlock
 62
    0
370
   -2
100
AcDbTrace
 10
219.2363042650784
 20
-232.5147169299882
 30
0
 11
220.068873580624
 21
-237.5147169299882
 31
0
 12
218.4037349495327
 22
-237.5147169299882
 32
0
 13
218.4037349495327
 23
-237.5147169299882
 33
0
  0
LINE
  5
B4
100
AcDbEntity
  8
0
  6
ByBlock
 62
    0
370
   -2
100
AcDbLine
 10
218.0507658039124
 20
-250.9380141730747
 11
216.7363042650784
 21
-250.9380141730747
  0
LINE
  5
B5
100
AcDbEntity
  8
0
  6
ByBlock
 62
    0
370
   -2
100
AcDbLine
 10
218.3048802486446
 20
-232.5147169299882
 11
216.7363042650784
 21
-232.5147169299882
  0
ENDBLK
  5
5E
330
5C
100
AcDbEntity
  8
0
100
AcDbBlockEnd
  0
BLOCK
  5
60
330
5F
100
AcDbEntity
  8
0
100
AcDbBlockBegin
  2
*D19
 70
    1
 10
0
 20
0
  3
*D19
  1

  0
LINE
  5
B6
100
AcDbEntity
  8
0
  6
ByBlock
 62
    0
370
   -2
100
AcDbLine
 10
353.7451959752766
 20
-250.9913139740497
 11
353.7451959752766
 21
-233.245274285869
  0
MTEXT
  5
B7
100
AcDbEntity
  8
0
  6
CONTINUOUS
 62
    0
370
   -2
100
AcDbMText
 10
349.9951959752766
 20
-242.1182941299594
 30
0
 40
5
 41
7.777777777778088
 71
    5
 72
    1
  1
5.0
  7
standard
210
0
220
0
230
1
 50
90
 73
    2
 44
1
  0
SOLID
  5
B8
100
AcDbEntity
  8
0
  6
ByBlock
 62
    0
370
   -2
100
AcDbTrace
 10
353.7451959752766
 20
-250.9913139740497
 30
0
 11
352.9126266597309
 21
-245.9913139740497
 31
0
 12
354.5777652908223
 22
-245.9913139740497
 32
0
 13
354.5777652908223
 23
-245.9913139740497
 33
0
  0
SOLID
  5
B9
100
AcDbEntity
  8
0
  6
ByBlock
 62
    0
370
   -2
100
AcDbTrace
 10
353.7451959752766
 20
-233.245274285869
 30
0
 11
354.5777652908223
 21
-238.245274285869
 31
0
 12
352.9126266597309
 22
-238.245274285869
 32
0
 13
352.9126266597309
 23
-238.245274285869
 33
0
  0
LINE
  5
BA
100
AcDbEntity
  8
0
  6
ByBlock
 62
    0
370
   -2
100
AcDbLine
 10
352.728443650373
 20
-250.9913139740497
 11
351.2451959752766
 21
-250.9913139740497
  0
LINE
  5
BB
100
AcDbEntity
  8
0
  6
ByBlock
 62
    0
370
   -2
100
AcDbLine
 10
352.7232715368339
 20
-233.245274285869
 11
351.2451959752766
 21
-233.245274285869
  0
ENDBLK
  5
61
330
5F
100
AcDbEntity
  8
0
100
AcDbBlockEnd
  0
BLOCK
  5
63
330
62
100
AcDbEntity
  8
0
100
AcDbBlockBegin
  2
*D2
 70
    1
 10
0
 20
0
  3
*D2
  1

  0
LINE
  5
BC
100
AcDbEntity
  8
0
  6
ByBlock
 62
    0
370
   -2
100
AcDbLine
 10
35.50516657487363
 20
-56.18173084286556
 11
152.3846979738927
 21
-56.18173084286556
  0
MTEXT
  5
BD
100
AcDbEntity
  8
0
  6
CONTINUOUS
 62
    0
370
   -2
100
AcDbMText
 10
93.94493227438315
 20
-52.43173084286556
 30
0
 40
5
 41
11.66666666666729
 71
    5
 72
    1
  1
33.0
  7
standard
210
0
220
0
230
1
 50
0
 73
    2
 44
1
  0
SOLID
  5
BE
100
AcDbEntity
  8
0
  6
ByBlock
 62
    0
370
   -2
100
AcDbTrace
 10
35.50516657487363
 20
-56.18173084286556
 30
0
 11
40.50516657487363
 21
-55.34916152731987
 31
0
 12
40.50516657487363
 22
-57.01430015841124
 32
0
 13
40.50516657487363
 23
-57.01430015841124
 33
0
  0
SOLID
  5
BF
100
AcDbEntity
  8
0
  6
ByBlock
 62
    0
370
   -2
100
AcDbTrace
 10
152.3846979738927
 20
-56.18173084286556
 30
0
 11
147.3846979738927
 21
-57.01430015841124
 31
0
 12
147.3846979738927
 22
-55.34916152731987
 32
0
 13
147.3846979738927
 23
-55.34916152731987
 33
0
  0
LINE
  5
C0
100
AcDbEntity
  8
0
  6
ByBlock
 62
    0
370
   -2
100
AcDbLine
 10
35.50516657487362
 20
-58.25960122718929
 11
35.50516657487364
 21
-53.68173084286556
  0
LINE
  5
C1
100
AcDbEntity
  8
0
  6
ByBlock
 62
    0
370
   -2
100
AcDbLine
 10
152.3846979738927
 20
-58.19273650670934
 11
152.3846979738927
 21
-53.68173084286556
  0
ENDBLK
  5
64
330
62
100
AcDbEntity
  8
0
100
AcDbBlockEnd
  0
BLOCK
  5
66
330
65
100
AcDbEntity
  8
0
100
AcDbBlockBegin
  2
*D1
 70
    1
 10
0
 20
0
  3
*D1
  1

  0
LINE
  5
C2
100
AcDbEntity
  8
0
  6
ByBlock
 62
    0
370
   -2
100
AcDbLine
 10
152.5352240904666
 20
-10.43147548142719
 11
329.5258824036445
 21
-10.43147548142719
  0
MTEXT
  5
C3
100
AcDbEntity
  8
0
  6
CONTINUOUS
 62
    0
370
   -2
100
AcDbMText
 10
241.0305532470555
 20
-6.681475481427185
 30
0
 40
5
 41
11.66666666666698
 71
    5
 72
    1
  1
50.0
  7
standard
210
0
220
0
230
1
 50
0
 73
    2
 44
1
  0
SOLID
  5
C4
100
AcDbEntity
  8
0
  6
ByBlock
 62
    0
370
   -2
100
AcDbTrace
 10
152.5352240904666
 20
-10.43147548142719
 30
0
 11
157.5352240904666
 21
-9.598906165881505
 31
0
 12
157.5352240904666
 22
-11.26404479697287
 32
0
 13
157.5352240904666
 23
-11.26404479697287
 33
0
  0
SOLID
  5
C5
100
AcDbEntity
  8
0
  6
ByBlock
 62
    0
370
   -2
100
AcDbTrace
 10
329.5258824036445
 20
-10.43147548142719
 30
0
 11
324.5258824036445
 21
-11.26404479697287
 31
0
 12
324.5258824036445
 22
-9.598906165881504
 32
0
 13
324.5258824036445
 23
-9.598906165881504
 33
0
  0
LINE
  5
C6
100
AcDbEntity
  8
0
  6
ByBlock
 62
    0
370
   -2
100
AcDbLine
 10
152.5352240904666
 20
-12.21477171417135
 11
152.5352240904666
 21
-7.931475481427185
  0
LINE
  5
C7
100
AcDbEntity
  8
0
  6
ByBlock
 62
    0
370
   -2
100
AcDbLine
 10
329.5258824036445
 20
-12.25182329645154
 11
329.5258824036445
 21
-7.931475481427185
  0
ENDBLK
  5
67
330
65
100
AcDbEntity
  8
0
100
AcDbBlockEnd
  0
BLOCK
  5
69
330
68
100
AcDbEntity
  8
0
100
AcDbBlockBegin
  2
*D10
 70
    1
 10
0
 20
0
  3
*D10
  1

  0
LINE
  5
C8
100
AcDbEntity
  8
0
  6
ByBlock
 62
    0
370
   -2
100
AcDbLine
 10
86.37589793813112
 20
-87.30504420849567
 11
134.1493980020568
 21
-87.30504420849567
  0
MTEXT
  5
C9
100
AcDbEntity
  8
0
  6
CONTINUOUS
 62
    0
370
   -2
100
AcDbMText
 10
110.262647970094
 20
-83.55504420849567
 30
0
 40
5
 41
10.55555555555618
 71
    5
 72
    1
  1
13.5
  7
standard
210
0
220
0
230
1
 50
0
 73
    2
 44
1
  0
SOLID
  5
CA
100
AcDbEntity
  8
0
  6
ByBlock
 62
    0
370
   -2
100
AcDbTrace
 10
86.37589793813112
 20
-87.30504420849567
 30
0
 11
91.37589793813112
 21
-86.47247489294999
 31
0
 12
91.37589793813112
 22
-88.13761352404136
 32
0
 13
91.37589793813112
 23
-88.13761352404136
 33
0
  0
SOLID
  5
CB
100
AcDbEntity
  8
0
  6
ByBlock
 62
    0
370
   -2
100
AcDbTrace
 10
134.1493980020568
 20
-87.30504420849567
 30
0
 11
129.1493980020568
 21
-88.13761352404136
 31
0
 12
129.1493980020568
 22
-86.47247489294999
 32
0
 13
129.1493980020568
 23
-86.47247489294999
 33
0
  0
LINE
  5
CC
100
AcDbEntity
  8
0
  6
ByBlock
 62
    0
370
   -2
100
AcDbLine
 10
86.37589793813113
 20
-93.09110050248574
 11
86.37589793813112
 21
-84.80504420849567
  0
LINE
  5
CD
100
AcDbEntity
  8
0
  6
ByBlock
 62
    0
370
   -2
100
AcDbLine
 10
134.1493980020568
 20
-93.01065663371486
 11
134.1493980020568
 21
-84.80504420849567
  0
ENDBLK
  5
6A
330
68
100
AcDbEntity
  8
0
100
AcDbBlockEnd
  0
BLOCK
  5
6C
330
6B
100
AcDbEntity
  8
0
100
AcDbBlockBegin
  2
*D21
 70
    1
 10
0
 20
0
  3
*D21
  1

  0
LINE
  5
CE
100
AcDbEntity
  8
0
  6
ByBlock
 62
    0
370
   -2
100
AcDbLine
 10
353.4950174188272
 20
-94.34725729751075
 11
353.4950174188272
 21
-59.9841819609389
  0
MTEXT
  5
CF
100
AcDbEntity
  8
0
  6
CONTINUOUS
 62
    0
370
   -2
100
AcDbMText
 10
349.7450174188272
 20
-77.16571962922482
 30
0
 40
5
 41
7.777777777778088
 71
    5
 72
    1
  1
9.7
  7
standard
210
0
220
0
230
1
 50
90
 73
    2
 44
1
  0
SOLID
  5
D0
100
AcDbEntity
  8
0
  6
ByBlock
 62
    0
370
   -2
100
AcDbTrace
 10
353.4950174188272
 20
-94.34725729751075
 30
0
 11
352.6624481032815
 21
-89.34725729751075
 31
0
 12
354.3275867343729
 22
-89.34725729751075
 32
0
 13
354.3275867343729
 23
-89.34725729751075
 33
0
  0
SOLID
  5
D1
100
AcDbEntity
  8
0
  6
ByBlock
 62
    0
370
   -2
100
AcDbTrace
 10
353.4950174188272
 20
-59.9841819609389
 30
0
 11
354.3275867343729
 21
-64.98418196093891
 31
0
 12
352.6624481032815
 22
-64.98418196093891
 32
0
 13
352.6624481032815
 23
-64.98418196093891
 33
0
  0
LINE
  5
D2
100
AcDbEntity
  8
0
  6
ByBlock
 62
    0
370
   -2
100
AcDbLine
 10
354.691095226533
 20
-94.34725729751075
 11
355.9950174188272
 21
-94.34725729751075
  0
LINE
  5
D3
100
AcDbEntity
  8
0
  6
ByBlock
 62
    0
370
   -2
100
AcDbLine
 10
352.4214414834182
 20
-59.9841819609389
 11
350.9950174188272
 21
-59.9841819609389
  0
ENDBLK
  5
6D
330
6B
100
AcDbEntity
  8
0
100
AcDbBlockEnd
  0
BLOCK
  5
6F
330
6E
100
AcDbEntity
  8
0
100
AcDbBlockBegin
  2
*D3
 70
    1
 10
0
 20
0
  3
*D3
  1

  0
LINE
  5
D4
100
AcDbEntity
  8
0
  6
ByBlock
 62
    0
370
   -2
100
AcDbLine
 10
329.586434817701
 20
-56.41340673055485
 11
446.3520221721603
 21
-56.41340673055485
  0
MTEXT
  5
D5
100
AcDbEntity
  8
0
  6
CONTINUOUS
 62
    0
370
   -2
100
AcDbMText
 10
387.9692284949307
 20
-52.66340673055485
 30
0
 40
5
 41
11.66666666666729
 71
    5
 72
    1
  1
33.0
  7
standard
210
0
220
0
230
1
 50
0
 73
    2
 44
1
  0
SOLID
  5
D6
100
AcDbEntity
  8
0
  6
ByBlock
 62
    0
370
   -2
100
AcDbTrace
 10
329.586434817701
 20
-56.41340673055485
 30
0
 11
334.586434817701
 21
-55.58083741500917
 31
0
 12
334.586434817701
 22
-57.24597604610054
 32
0
 13
334.586434817701
 23
-57.24597604610054
 33
0
  0
SOLID
  5
D7
100
AcDbEntity
  8
0
  6
ByBlock
 62
    0
370
   -2
100
AcDbTrace
 10
446.3520221721603
 20
-56.41340673055485
 30
0
 11
441.3520221721603
 21
-57.24597604610054
 31
0
 12
441.3520221721603
 22
-55.58083741500917
 32
0
 13
441.3520221721603
 23
-55.58083741500917
 33
0
  0
LINE
  5
D8
100
AcDbEntity
  8
0
  6
ByBlock
 62
    0
370
   -2
100
AcDbLine
 10
329.586434817701
 20
-58.21278006734159
 11
329.586434817701
 21
-53.91340673055485
  0
LINE
  5
D9
100
AcDbEntity
  8
0
  6
ByBlock
 62
    0
370
   -2
100
AcDbLine
 10
446.3520221721603
 20
-57.95866562260937
 11
446.3520221721603
 21
-53.91340673055485
  0
ENDBLK
  5
70
330
6E
100
AcDbEntity
  8
0
100
AcDbBlockEnd
  0
BLOCK
  5
72
330
71
100
AcDbEntity
  8
0
100
AcDbBlockBegin
  2
*D17
 70
    1
 10
0
 20
0
  3
*D17
  1

  0
LINE
  5
DA
100
AcDbEntity
  8
0
  6
ByBlock
 62
    0
370
   -2
100
AcDbLine
 10
86.45608358062401
 20
-251.0101606818736
 11
86.45608358062401
 21
-234.0933864004367
  0
MTEXT
  5
DB
100
AcDbEntity
  8
0
  6
CONTINUOUS
 62
    0
370
   -2
100
AcDbMText
 10
82.70608358062401
 20
-242.5517735411551
 30
0
 40
5
 41
8.333333333333334
 71
    5
 72
    1
  1
4.8
  7
standard
210
0
220
0
230
1
 50
90
 73
    2
 44
1
  0
SOLID
  5
DC
100
AcDbEntity
  8
0
  6
ByBlock
 62
    0
370
   -2
100
AcDbTrace
 10
86.45608358062401
 20
-251.0101606818736
 30
0
 11
85.62351426507833
 21
-246.0101606818736
 31
0
 12
87.28865289616969
 22
-246.0101606818736
 32
0
 13
87.28865289616969
 23
-246.0101606818736
 33
0
  0
SOLID
  5
DD
100
AcDbEntity
  8
0
  6
ByBlock
 62
    0
370
   -2
100
AcDbTrace
 10
86.45608358062401
 20
-234.0933864004367
 30
0
 11
87.28865289616969
 21
-239.0933864004367
 31
0
 12
85.62351426507833
 22
-239.0933864004367
 32
0
 13
85.62351426507833
 23
-239.0933864004367
 33
0
  0
LINE
  5
DE
100
AcDbEntity
  8
0
  6
ByBlock
 62
    0
370
   -2
100
AcDbLine
 10
85.27294830110399
 20
-251.0101606818736
 11
83.95608358062401
 21
-251.0101606818736
  0
LINE
  5
DF
100
AcDbEntity
  8
0
  6
ByBlock
 62
    0
370
   -2
100
AcDbLine
 10
85.20608358062401
 20
-234.0933864004367
 11
83.95608358062401
 21
-234.0933864004367
  0
ENDBLK
  5
73
330
71
100
AcDbEntity
  8
0
100
AcDbBlockEnd
  0
BLOCK
  5
75
330
74
100
AcDbEntity
  8
0
100
AcDbBlockBegin
  2
*D4
 70
    1
 10
0
 20
0
  3
*D4
  1

  0
LINE
  5
E0
100
AcDbEntity
  8
0
  6
ByBlock
 62
    0
370
   -2
100
AcDbLine
 10
148.9110646130855
 20
-13.48295470524692
 11
148.9110646130855
 21
-59.58983728970743
  0
MTEXT
  5
E1
100
AcDbEntity
  8
0
  6
CONTINUOUS
 62
    0
370
   -2
100
AcDbMText
 10
145.1610646130855
 20
-36.53639599747717
 30
0
 40
5
 41
10.55555555555587
 71
    5
 72
    1
  1
13.0
  7
standard
210
0
220
0
230
1
 50
90
 73
    2
 44
1
  0
SOLID
  5
E2
100
AcDbEntity
  8
0
  6
ByBlock
 62
    0
370
   -2
100
AcDbTrace
 10
148.9110646130855
 20
-13.48295470524692
 30
0
 11
149.7436339286312
 21
-18.48295470524692
 31
0
 12
148.0784952975398
 22
-18.48295470524692
 32
0
 13
148.0784952975398
 23
-18.48295470524692
 33
0
  0
SOLID
  5
E3
100
AcDbEntity
  8
0
  6
ByBlock
 62
    0
370
   -2
100
AcDbTrace
 10
148.9110646130855
 20
-59.58983728970743
 30
0
 11
148.0784952975398
 21
-54.58983728970743
 31
0
 12
149.7436339286312
 22
-54.58983728970743
 32
0
 13
149.7436339286312
 23
-54.58983728970743
 33
0
  0
LINE
  5
E4
100
AcDbEntity
  8
0
  6
ByBlock
 62
    0
370
   -2
100
AcDbLine
 10
151.3434398985512
 20
-13.48295470524692
 11
146.4110646130855
 21
-13.48295470524692
  0
LINE
  5
E5
100
AcDbEntity
  8
0
  6
ByBlock
 62
    0
370
   -2
100
AcDbLine
 10
151.3457240617028
 20
-59.58983728970743
 11
146.4110646130855
 21
-59.58983728970743
  0
ENDBLK
  5
76
330
74
100
AcDbEntity
  8
0
100
AcDbBlockEnd
  0
BLOCK
  5
78
330
77
100
AcDbEntity
  8
0
100
AcDbBlockBegin
  2
*D13
 70
    1
 10
0
 20
0
  3
*D13
  1

  0
LINE
  5
E6
100
AcDbEntity
  8
0
  6
ByBlock
 62
    0
370
   -2
100
AcDbLine
 10
215.6754222912225
 20
-93.39090603330672
 11
215.6754222912225
 21
-232.5425372034951
  0
MTEXT
  5
E7
100
AcDbEntity
  8
0
  6
CONTINUOUS
 62
    0
370
   -2
100
AcDbMText
 10
211.9254222912225
 20
-162.9667216184009
 30
0
 40
5
 41
11.66666666666729
 71
    5
 72
    1
  1
39.3
  7
standard
210
0
220
0
230
1
 50
90
 73
    2
 44
1
  0
SOLID
  5
E8
100
AcDbEntity
  8
0
  6
ByBlock
 62
    0
370
   -2
100
AcDbTrace
 10
215.6754222912225
 20
-93.39090603330672
 30
0
 11
216.5079916067681
 21
-98.39090603330672
 31
0
 12
214.8428529756768
 22
-98.39090603330672
 32
0
 13
214.8428529756768
 23
-98.39090603330672
 33
0
  0
SOLID
  5
E9
100
AcDbEntity
  8
0
  6
ByBlock
 62
    0
370
   -2
100
AcDbTrace
 10
215.6754222912225
 20
-232.5425372034951
 30
0
 11
214.8428529756768
 21
-227.5425372034951
 31
0
 12
216.5079916067681
 22
-227.5425372034951
 32
0
 13
216.5079916067681
 23
-227.5425372034951
 33
0
  0
LINE
  5
EA
100
AcDbEntity
  8
0
  6
ByBlock
 62
    0
370
   -2
100
AcDbLine
 10
218.1936096954075
 20
-93.39090603330673
 11
213.1754222912225
 21
-93.39090603330671
  0
LINE
  5
EB
100
AcDbEntity
  8
0
  6
ByBlock
 62
    0
370
   -2
100
AcDbLine
 10
218.4654577492098
 20
-232.5425372034951
 11
213.1754222912225
 21
-232.5425372034951
  0
ENDBLK
  5
79
330
77
100
AcDbEntity
  8
0
100
AcDbBlockEnd
  0
BLOCK
  5
7B
330
7A
100
AcDbEntity
  8
0
100
AcDbBlockBegin
  2
*D14
 70
    1
 10
0
 20
0
  3
*D14
  1

  0
LINE
  5
EC
100
AcDbEntity
  8
0
  6
ByBlock
 62
    0
370
   -2
100
AcDbLine
 10
349.2630934064845
 20
-94.31418572721094
 11
349.2630934064845
 21
-233.7511359119492
  0
MTEXT
  5
ED
100
AcDbEntity
  8
0
  6
CONTINUOUS
 62
    0
370
   -2
100
AcDbMText
 10
345.5130934064845
 20
-164.0326608195801
 30
0
 40
5
 41
12.22222222222253
 71
    5
 72
    1
  1
39.4
  7
standard
210
0
220
0
230
1
 50
90
 73
    2
 44
1
  0
SOLID
  5
EE
100
AcDbEntity
  8
0
  6
ByBlock
 62
    0
370
   -2
100
AcDbTrace
 10
349.2630934064845
 20
-94.31418572721094
 30
0
 11
350.0956627220302
 21
-99.31418572721094
 31
0
 12
348.4305240909388
 22
-99.31418572721094
 32
0
 13
348.4305240909388
 23
-99.31418572721094
 33
0
  0
SOLID
  5
EF
100
AcDbEntity
  8
0
  6
ByBlock
 62
    0
370
   -2
100
AcDbTrace
 10
349.2630934064845
 20
-233.7511359119492
 30
0
 11
348.4305240909388
 21
-228.7511359119492
 31
0
 12
350.0956627220302
 22
-228.7511359119492
 32
0
 13
350.0956627220302
 23
-228.7511359119492
 33
0
  0
LINE
  5
F0
100
AcDbEntity
  8
0
  6
ByBlock
 62
    0
370
   -2
100
AcDbLine
 10
352.2989057462461
 20
-94.31418572721094
 11
346.7630934064845
 21
-94.31418572721094
  0
LINE
  5
F1
100
AcDbEntity
  8
0
  6
ByBlock
 62
    0
370
   -2
100
AcDbLine
 10
352.4869897356785
 20
-233.7511359119492
 11
346.7630934064845
 21
-233.7511359119492
  0
ENDBLK
  5
7C
330
7A
100
AcDbEntity
  8
0
100
AcDbBlockEnd
  0
BLOCK
  5
7E
330
7D
100
AcDbEntity
  8
0
100
AcDbBlockBegin
  2
*D22
 70
    1
 10
0
 20
0
  3
*D22
  1

  0
LINE
  5
F2
100
AcDbEntity
  8
0
  6
ByBlock
 62
    0
370
   -2
100
AcDbLine
 10
86.36461264300735
 20
-87.27501378006589
 11
35.75928861667232
 21
-87.27501378006589
  0
MTEXT
  5
F3
100
AcDbEntity
  8
0
  6
CONTINUOUS
 62
    0
370
   -2
100
AcDbMText
 10
61.06195062983983
 20
-83.52501378006589
 30
0
 40
5
 41
11.11111111111142
 71
    5
 72
    1
  1
14.3
  7
standard
210
0
220
0
230
1
 50
0
 73
    2
 44
1
  0
SOLID
  5
F4
100
AcDbEntity
  8
0
  6
ByBlock
 62
    0
370
   -2
100
AcDbTrace
 10
86.36461264300735
 20
-87.27501378006589
 30
0
 11
81.36461264300735
 21
-88.10758309561157
 31
0
 12
81.36461264300735
 22
-86.44244446452021
 32
0
 13
81.36461264300735
 23
-86.44244446452021
 33
0
  0
SOLID
  5
F5
100
AcDbEntity
  8
0
  6
ByBlock
 62
    0
370
   -2
100
AcDbTrace
 10
35.75928861667232
 20
-87.27501378006589
 30
0
 11
40.75928861667232
 21
-86.44244446452021
 31
0
 12
40.75928861667232
 22
-88.10758309561157
 32
0
 13
40.75928861667232
 23
-88.10758309561157
 33
0
  0
LINE
  5
F6
100
AcDbEntity
  8
0
  6
ByBlock
 62
    0
370
   -2
100
AcDbLine
 10
86.36461264300735
 20
-93.09725729751068
 11
86.36461264300735
 21
-84.77501378006589
  0
LINE
  5
F7
100
AcDbEntity
  8
0
  6
ByBlock
 62
    0
370
   -2
100
AcDbLine
 10
35.75928861667232
 20
-93.40036705725456
 11
35.75928861667232
 21
-84.77501378006589
  0
ENDBLK
  5
7F
330
7D
100
AcDbEntity
  8
0
100
AcDbBlockEnd
  0
BLOCK
  5
81
330
80
100
AcDbEntity
  8
0
100
AcDbBlockBegin
  2
*D11
 70
    1
 10
0
 20
0
  3
*D11
  1

  0
LINE
  5
F8
100
AcDbEntity
  8
0
  6
ByBlock
 62
    0
370
   -2
100
AcDbLine
 10
219.4500126153194
 20
-87.25629334548394
 11
267.2582877585106
 21
-87.25629334548394
  0
MTEXT
  5
F9
100
AcDbEntity
  8
0
  6
CONTINUOUS
 62
    0
370
   -2
100
AcDbMText
 10
243.354150186915
 20
-83.50629334548394
 30
0
 40
5
 41
10.55555555555618
 71
    5
 72
    1
  1
13.5
  7
standard
210
0
220
0
230
1
 50
0
 73
    2
 44
1
  0
SOLID
  5
FA
100
AcDbEntity
  8
0
  6
ByBlock
 62
    0
370
   -2
100
AcDbTrace
 10
219.4500126153194
 20
-87.25629334548394
 30
0
 11
224.4500126153194
 21
-86.42372402993826
 31
0
 12
224.4500126153194
 22
-88.08886266102962
 32
0
 13
224.4500126153194
 23
-88.08886266102962
 33
0
  0
SOLID
  5
FB
100
AcDbEntity
  8
0
  6
ByBlock
 62
    0
370
   -2
100
AcDbTrace
 10
267.2582877585106
 20
-87.25629334548394
 30
0
 11
262.2582877585106
 21
-88.08886266102962
 31
0
 12
262.2582877585106
 22
-86.42372402993826
 32
0
 13
262.2582877585106
 23
-86.42372402993826
 33
0
  0
LINE
  5
FC
100
AcDbEntity
  8
0
  6
ByBlock
 62
    0
370
   -2
100
AcDbLine
 10
219.4500126153194
 20
-92.22687923102271
 11
219.4500126153194
 21
-84.75629334548394
  0
LINE
  5
FD
100
AcDbEntity
  8
0
  6
ByBlock
 62
    0
370
   -2
100
AcDbLine
 10
267.2582877585106
 20
-92.16001451054271
 11
267.2582877585106
 21
-84.75629334548394
  0
ENDBLK
  5
82
330
80
100
AcDbEntity
  8
0
100
AcDbBlockEnd
  0
BLOCK
  5
84
330
83
100
AcDbEntity
  8
0
100
AcDbBlockBegin
  2
*D6
 70
    1
 10
0
 20
0
  3
*D6
  1

  0
LINE
  5
FE
100
AcDbEntity
  8
0
  6
ByBlock
 62
    0
370
   -2
100
AcDbLine
 10
32.30924830944866
 20
-59.46278006734119
 11
32.30924830944864
 21
-251.0036400456588
  0
MTEXT
  5
FF
100
AcDbEntity
  8
0
  6
CONTINUOUS
 62
    0
370
   -2
100
AcDbMText
 10
28.55924830944865
 20
-155.2332100565
 30
0
 40
5
 41
11.11111111111142
 71
    5
 72
    1
  1
54.1
  7
standard
210
0
220
0
230
1
 50
90
 73
    2
 44
1
  0
SOLID
  5
100
100
AcDbEntity
  8
0
  6
ByBlock
 62
    0
370
   -2
100
AcDbTrace
 10
32.30924830944866
 20
-59.46278006734119
 30
0
 11
33.14181762499434
 21
-64.46278006734119
 31
0
 12
31.47667899390298
 22
-64.46278006734119
 32
0
 13
31.47667899390298
 23
-64.46278006734119
 33
0
  0
SOLID
  5
101
100
AcDbEntity
  8
0
  6
ByBlock
 62
    0
370
   -2
100
AcDbTrace
 10
32.30924830944864
 20
-251.0036400456588
 30
0
 11
31.47667899390296
 21
-246.0036400456588
 31
0
 12
33.14181762499432
 22
-246.0036400456588
 32
0
 13
33.14181762499432
 23
-246.0036400456588
 33
0
  0
LINE
  5
102
100
AcDbEntity
  8
0
  6
ByBlock
 62
    0
370
   -2
100
AcDbLine
 10
34.32602226251182
 20
-59.46278006734119
 11
29.80924830944866
 21
-59.46278006734118
  0
LINE
  5
103
100
AcDbEntity
  8
0
  6
ByBlock
 62
    0
370
   -2
100
AcDbLine
 10
34.23414554216903
 20
-251.0036400456588
 11
29.80924830944864
 21
-251.0036400456588
  0
ENDBLK
  5
85
330
83
100
AcDbEntity
  8
0
100
AcDbBlockEnd
  0
BLOCK
  5
87
330
86
100
AcDbEntity
  8
0
100
AcDbBlockBegin
  2
*D7
 70
    1
 10
0
 20
0
  3
*D7
  1

  0
LINE
  5
104
100
AcDbEntity
  8
0
  6
ByBlock
 62
    0
370
   -2
100
AcDbLine
 10
21.94454887111361
 20
-13.43515775021524
 11
21.9445488711136
 21
-250.9926358914579
  0
MTEXT
  5
105
100
AcDbEntity
  8
0
  6
CONTINUOUS
 62
    0
370
   -2
100
AcDbMText
 10
18.1945488711136
 20
-132.2138968208366
 30
0
 40
5
 41
10.55555555555587
 71
    5
 72
    1
  1
67.1
  7
standard
210
0
220
0
230
1
 50
90
 73
    2
 44
1
  0
SOLID
  5
106
100
AcDbEntity
  8
0
  6
ByBlock
 62
    0
370
   -2
100
AcDbTrace
 10
21.94454887111361
 20
-13.43515775021524
 30
0
 11
22.77711818665929
 21
-18.43515775021524
 31
0
 12
21.11197955556793
 22
-18.43515775021524
 32
0
 13
21.11197955556793
 23
-18.43515775021524
 33
0
  0
SOLID
  5
107
100
AcDbEntity
  8
0
  6
ByBlock
 62
    0
370
   -2
100
AcDbTrace
 10
21.9445488711136
 20
-250.9926358914579
 30
0
 11
21.11197955556792
 21
-245.9926358914579
 31
0
 12
22.77711818665928
 22
-245.9926358914579
 32
0
 13
22.77711818665928
 23
-245.9926358914579
 33
0
  0
LINE
  5
108
100
AcDbEntity
  8
0
  6
ByBlock
 62
    0
370
   -2
100
AcDbLine
 10
151.3040492927665
 20
-13.43515775021523
 11
19.44454887111361
 21
-13.43515775021524
  0
LINE
  5
109
100
AcDbEntity
  8
0
  6
ByBlock
 62
    0
370
   -2
100
AcDbLine
 10
151.2391998281514
 20
-250.9926358914579
 11
19.4445488711136
 21
-250.9926358914579
  0
ENDBLK
  5
88
330
86
100
AcDbEntity
  8
0
100
AcDbBlockEnd
  0
BLOCK
  5
8A
330
89
100
AcDbEntity
  8
0
100
AcDbBlockBegin
  2
*D9
 70
    1
 10
0
 20
0
  3
*D9
  1

  0
LINE
  5
10A
100
AcDbEntity
  8
0
  6
ByBlock
 62
    0
370
   -2
100
AcDbLine
 10
83.14034603376339
 20
-94.35168500441236
 11
83.14034603376339
 21
-234.1410203036078
  0
MTEXT
  5
10B
100
AcDbEntity
  8
0
  6
CONTINUOUS
 62
    0
370
   -2
100
AcDbMText
 10
79.39034603376339
 20
-164.2463526540101
 30
0
 40
5
 41
11.66666666666729
 71
    5
 72
    1
  1
39.5
  7
standard
210
0
220
0
230
1
 50
90
 73
    2
 44
1
  0
SOLID
  5
10C
100
AcDbEntity
  8
0
  6
ByBlock
 62
    0
370
   -2
100
AcDbTrace
 10
83.14034603376339
 20
-94.35168500441236
 30
0
 11
83.97291534930908
 21
-99.35168500441236
 31
0
 12
82.30777671821771
 22
-99.35168500441236
 32
0
 13
82.30777671821771
 23
-99.35168500441236
 33
0
  0
SOLID
  5
10D
100
AcDbEntity
  8
0
  6
ByBlock
 62
    0
370
   -2
100
AcDbTrace
 10
83.14034603376339
 20
-234.1410203036078
 30
0
 11
82.30777671821771
 21
-229.1410203036078
 31
0
 12
83.97291534930908
 22
-229.1410203036078
 32
0
 13
83.97291534930908
 23
-229.1410203036078
 33
0
  0
LINE
  5
10E
100
AcDbEntity
  8
0
  6
ByBlock
 62
    0
370
   -2
100
AcDbLine
 10
85.14076158216506
 20
-94.35168500441236
 11
80.64034603376339
 21
-94.35168500441236
  0
LINE
  5
10F
100
AcDbEntity
  8
0
  6
ByBlock
 62
    0
370
   -2
100
AcDbLine
 10
85.41806928280523
 20
-234.1410203036078
 11
80.64034603376339
 21
-234.1410203036078
  0
ENDBLK
  5
8B
330
89
100
AcDbEntity
  8
0
100
AcDbBlockEnd
  0
BLOCK
  5
8D
330
8C
100
AcDbEntity
  8
0
100
AcDbBlockBegin
  2
*D23
 70
    1
 10
0
 20
0
  3
*D23
  1

  0
LINE
  5
110
100
AcDbEntity
  8
0
  6
ByBlock
 62
    0
370
   -2
100
AcDbLine
 10
401.3877932896041
 20
-87.27530862908141
 11
446.2048436667
 21
-87.27530862908141
  0
MTEXT
  5
111
100
AcDbEntity
  8
0
  6
CONTINUOUS
 62
    0
370
   -2
100
AcDbMText
 10
423.7963184781521
 20
-83.52530862908141
 30
0
 40
5
 41
10.55555555555556
 71
    5
 72
    1
  1
12.7
  7
standard
210
0
220
0
230
1
 50
0
 73
    2
 44
1
  0
SOLID
  5
112
100
AcDbEntity
  8
0
  6
ByBlock
 62
    0
370
   -2
100
AcDbTrace
 10
401.3877932896041
 20
-87.27530862908141
 30
0
 11
406.3877932896041
 21
-86.44273931353572
 31
0
 12
406.3877932896041
 22
-88.10787794462709
 32
0
 13
406.3877932896041
 23
-88.10787794462709
 33
0
  0
SOLID
  5
113
100
AcDbEntity
  8
0
  6
ByBlock
 62
    0
370
   -2
100
AcDbTrace
 10
446.2048436667
 20
-87.27530862908141
 30
0
 11
441.2048436667
 21
-88.10787794462709
 31
0
 12
441.2048436667
 22
-86.44273931353572
 32
0
 13
441.2048436667
 23
-86.44273931353572
 33
0
  0
LINE
  5
114
100
AcDbEntity
  8
0
  6
ByBlock
 62
    0
370
   -2
100
AcDbLine
 10
401.3877932896041
 20
-93.19996800962527
 11
401.3877932896041
 21
-84.77530862908141
  0
LINE
  5
115
100
AcDbEntity
  8
0
  6
ByBlock
 62
    0
370
   -2
100
AcDbLine
 10
446.2048436667
 20
-93.19996800962527
 11
446.2048436667
 21
-84.77530862908141
  0
ENDBLK
  5
8E
330
8C
100
AcDbEntity
  8
0
100
AcDbBlockEnd
  0
BLOCK
  5
90
330
8F
100
AcDbEntity
  8
0
100
AcDbBlockBegin
  2
*D15
 70
    1
 10
0
 20
0
  3
*D15
  1

  0
LINE
  5
116
100
AcDbEntity
  8
0
  6
ByBlock
 62
    0
370
   -2
100
AcDbLine
 10
134.1366951303505
 20
-87.25846022638412
 11
219.6435600744094
 21
-87.25846022638412
  0
MTEXT
  5
117
100
AcDbEntity
  8
0
  6
CONTINUOUS
 62
    0
370
   -2
100
AcDbMText
 10
176.8901276023799
 20
-83.50846022638412
 30
0
 40
5
 41
12.22222222222222
 71
    5
 72
    1
  1
24.2
  7
standard
210
0
220
0
230
1
 50
0
 73
    2
 44
1
  0
SOLID
  5
118
100
AcDbEntity
  8
0
  6
ByBlock
 62
    0
370
   -2
100
AcDbTrace
 10
134.1366951303505
 20
-87.25846022638412
 30
0
 11
139.1366951303505
 21
-86.42589091083843
 31
0
 12
139.1366951303505
 22
-88.0910295419298
 32
0
 13
139.1366951303505
 23
-88.0910295419298
 33
0
  0
SOLID
  5
119
100
AcDbEntity
  8
0
  6
ByBlock
 62
    0
370
   -2
100
AcDbTrace
 10
219.6435600744094
 20
-87.25846022638412
 30
0
 11
214.6435600744094
 21
-88.0910295419298
 31
0
 12
214.6435600744094
 22
-86.42589091083843
 32
0
 13
214.6435600744094
 23
-86.42589091083843
 33
0
  0
LINE
  5
11A
100
AcDbEntity
  8
0
  6
ByBlock
 62
    0
370
   -2
100
AcDbLine
 10
134.1366951303505
 20
-93.08905552058488
 11
134.1366951303505
 21
-84.75846022638412
  0
LINE
  5
11B
100
AcDbEntity
  8
0
  6
ByBlock
 62
    0
370
   -2
100
AcDbLine
 10
219.6435600744094
 20
-93.01867950005493
 11
219.6435600744094
 21
-84.75846022638412
  0
ENDBLK
  5
91
330
8F
100
AcDbEntity
  8
0
100
AcDbBlockEnd
  0
ENDSEC
  0
SECTION
  2
ENTITIES
  0
IMAGE
  5
11E
100
AcDbEntity
  8
0
  6
ByLayer
 62
  256
370
   -1
100
AcDbRasterImage
 10
2.052745533807295
 20
-270.9624104625629
 30
0
 11
1
 21
0
 31
0
 12
6.123031769111886e-17
 22
1
 32
0
 13
481
 23
269
340
11C
 70
    1
280
    0
281
   50
282
   50
283
    0
360
11D
  0
DIMENSION
  5
11F
100
AcDbEntity
  8
0
  6
ByLayer
 62
  256
370
   -1
100
AcDbDimension
  2
*D1
 10
329.5258824036445
 20
-10.43147548142719
 30
0
 11
241.0305532470555
 21
-6.681475481427185
 31
0
 70
   32
 71
    5
  3
Standard
 53
0
210
0
220
0
230
1
100
AcDbAlignedDimension
 13
152.5352240904666
 23
-13.46477171417135
 33
0
 14
329.5258824036445
 24
-13.50182329645154
 34
0
100
AcDbRotatedDimension
  0
DIMENSION
  5
120
100
AcDbEntity
  8
0
  6
ByLayer
 62
  256
370
   -1
100
AcDbDimension
  2
*D2
 10
152.3846979738927
 20
-56.18173084286556
 30
0
 11
93.94493227438315
 21
-52.43173084286556
 31
0
 70
   32
 71
    5
  3
Standard
 53
0
210
0
220
0
230
1
100
AcDbAlignedDimension
 13
35.50516657487361
 23
-59.50960122718929
 33
0
 14
152.3846979738927
 24
-59.44273650670934
 34
0
100
AcDbRotatedDimension
  0
DIMENSION
  5
121
100
AcDbEntity
  8
0
  6
ByLayer
 62
  256
370
   -1
100
AcDbDimension
  2
*D3
 10
446.3520221721603
 20
-56.41340673055485
 30
0
 11
387.9692284949307
 21
-52.66340673055485
 31
0
 70
   32
 71
    5
  3
Standard
 53
0
210
0
220
0
230
1
100
AcDbAlignedDimension
 13
329.586434817701
 23
-59.46278006734159
 33
0
 14
446.3520221721603
 24
-59.20866562260937
 34
0
100
AcDbRotatedDimension
  0
DIMENSION
  5
122
100
AcDbEntity
  8
0
  6
ByLayer
 62
  256
370
   -1
100
AcDbDimension
  2
*D4
 10
148.9110646130855
 20
-59.58983728970743
 30
0
 11
145.1610646130855
 21
-36.53639599747717
 31
0
 70
   32
 71
    5
  3
Standard
 53
0
210
0
220
0
230
1
100
AcDbAlignedDimension
 13
152.5934398985512
 23
-13.48295470524692
 33
0
 14
152.5957240617028
 24
-59.58983728970743
 34
0
 50
90
100
AcDbRotatedDimension
  0
DIMENSION
  5
123
100
AcDbEntity
  8
0
  6
ByLayer
 62
  256
370
   -1
100
AcDbDimension
  2
*D5
 10
34.86308910898035
 20
-261.6104245736872
 30
0
 11
240.1951278967695
 21
-257.8604245736872
 31
0
 70
   32
 71
    5
  3
Standard
 53
0
210
0
220
0
230
1
100
AcDbAlignedDimension
 13
445.5271666845587
 23
-251.3674675846732
 33
0
 14
34.86308910898035
 24
-251.17894909226
 34
0
100
AcDbRotatedDimension
  0
DIMENSION
  5
124
100
AcDbEntity
  8
0
  6
ByLayer
 62
  256
370
   -1
100
AcDbDimension
  2
*D6
 10
32.30924830944864
 20
-251.0036400456588
 30
0
 11
28.55924830944865
 21
-155.2332100565
 31
0
 70
   32
 71
    5
  3
Standard
 53
0
210
0
220
0
230
1
100
AcDbAlignedDimension
 13
35.57602226251182
 23
-59.46278006734119
 33
0
 14
35.48414554216903
 24
-251.0036400456588
 34
0
 50
90
100
AcDbRotatedDimension
  0
DIMENSION
  5
125
100
AcDbEntity
  8
0
  6
ByLayer
 62
  256
370
   -1
100
AcDbDimension
  2
*D7
 10
21.9445488711136
 20
-250.9926358914579
 30
0
 11
18.1945488711136
 21
-132.2138968208366
 31
0
 70
   32
 71
    5
  3
Standard
 53
0
210
0
220
0
230
1
100
AcDbAlignedDimension
 13
152.5540492927665
 23
-13.43515775021523
 33
0
 14
152.4891998281514
 24
-250.9926358914579
 34
0
 50
90
100
AcDbRotatedDimension
  0
DIMENSION
  5
126
100
AcDbEntity
  8
0
  6
ByLayer
 62
  256
370
   -1
100
AcDbDimension
  2
*D8
 10
86.38103156464899
 20
-59.78506065599898
 30
0
 11
82.63103156464899
 21
-77.05009219123608
 31
0
 70
   32
 71
    5
  3
Standard
 53
0
210
0
220
0
230
1
100
AcDbAlignedDimension
 13
86.38103156464899
 23
-94.31512372647316
 33
0
 14
87.1632660031387
 24
-59.78506065599898
 34
0
 50
90
100
AcDbRotatedDimension
  0
DIMENSION
  5
127
100
AcDbEntity
  8
0
  6
ByLayer
 62
  256
370
   -1
100
AcDbDimension
  2
*D9
 10
83.14034603376339
 20
-234.1410203036078
 30
0
 11
79.39034603376339
 21
-164.2463526540101
 31
0
 70
   32
 71
    5
  3
Standard
 53
0
210
0
220
0
230
1
100
AcDbAlignedDimension
 13
86.39076158216506
 23
-94.35168500441236
 33
0
 14
86.66806928280523
 24
-234.1410203036078
 34
0
 50
90
100
AcDbRotatedDimension
  0
DIMENSION
  5
128
100
AcDbEntity
  8
0
  6
ByLayer
 62
  256
370
   -1
100
AcDbDimension
  2
*D10
 10
134.1493980020568
 20
-87.30504420849567
 30
0
 11
110.262647970094
 21
-83.55504420849567
 31
0
 70
   32
 71
    5
  3
Standard
 53
0
210
0
220
0
230
1
100
AcDbAlignedDimension
 13
86.37589793813113
 23
-94.34110050248574
 33
0
 14
134.1493980020568
 24
-94.26065663371486
 34
0
100
AcDbRotatedDimension
  0
DIMENSION
  5
129
100
AcDbEntity
  8
0
  6
ByLayer
 62
  256
370
   -1
100
AcDbDimension
  2
*D11
 10
267.2582877585106
 20
-87.25629334548394
 30
0
 11
243.354150186915
 21
-83.50629334548394
 31
0
 70
   32
 71
    5
  3
Standard
 53
0
210
0
220
0
230
1
100
AcDbAlignedDimension
 13
219.4500126153194
 23
-93.47687923102271
 33
0
 14
267.2582877585106
 24
-93.41001451054271
 34
0
100
AcDbRotatedDimension
  0
DIMENSION
  5
12A
100
AcDbEntity
  8
0
  6
ByLayer
 62
  256
370
   -1
100
AcDbDimension
  2
*D12
 10
401.3438814455873
 20
-87.28831176552033
 30
0
 11
377.4430450855389
 21
-83.53831176552033
 31
0
 70
   32
 71
    5
  3
Standard
 53
0
210
0
220
0
230
1
100
AcDbAlignedDimension
 13
353.5422087254905
 23
-93.7880920457597
 33
0
 14
401.3438814455873
 24
-93.87453268358989
 34
0
100
AcDbRotatedDimension
  0
DIMENSION
  5
12B
100
AcDbEntity
  8
0
  6
ByLayer
 62
  256
370
   -1
100
AcDbDimension
  2
*D13
 10
215.6754222912225
 20
-232.5425372034951
 30
0
 11
211.9254222912225
 21
-162.9667216184009
 31
0
 70
   32
 71
    5
  3
Standard
 53
0
210
0
220
0
230
1
100
AcDbAlignedDimension
 13
219.4436096954075
 23
-93.39090603330673
 33
0
 14
219.7154577492098
 24
-232.5425372034951
 34
0
 50
90
100
AcDbRotatedDimension
  0
DIMENSION
  5
12C
100
AcDbEntity
  8
0
  6
ByLayer
 62
  256
370
   -1
100
AcDbDimension
  2
*D14
 10
349.2630934064845
 20
-233.7511359119492
 30
0
 11
345.5130934064845
 21
-164.0326608195801
 31
0
 70
   32
 71
    5
  3
Standard
 53
0
210
0
220
0
230
1
100
AcDbAlignedDimension
 13
353.5489057462461
 23
-94.31418572721094
 33
0
 14
353.7369897356785
 24
-233.7511359119492
 34
0
 50
90
100
AcDbRotatedDimension
  0
DIMENSION
  5
12D
100
AcDbEntity
  8
0
  6
ByLayer
 62
  256
370
   -1
100
AcDbDimension
  2
*D15
 10
219.6435600744094
 20
-87.25846022638412
 30
0
 11
176.8901276023799
 21
-83.50846022638412
 31
0
 70
   32
 71
    5
  3
Standard
 53
0
210
0
220
0
230
1
100
AcDbAlignedDimension
 13
134.1366951303505
 23
-94.33905552058488
 33
0
 14
219.6435600744094
 24
-94.26867950005493
 34
0
100
AcDbRotatedDimension
  0
DIMENSION
  5
12E
100
AcDbEntity
  8
0
  6
ByLayer
 62
  256
370
   -1
100
AcDbDimension
  2
*D16
 10
353.4635631123747
 20
-87.27691488923666
 30
0
 11
310.4318185053974
 21
-83.52691488923666
 31
0
 70
   32
 71
    5
  3
Standard
 53
0
210
0
220
0
230
1
100
AcDbAlignedDimension
 13
267.4000738984201
 23
-93.32833016863707
 33
0
 14
353.4635631123747
 24
-93.70567133581422
 34
0
100
AcDbRotatedDimension
  0
DIMENSION
  5
12F
100
AcDbEntity
  8
0
  6
ByLayer
 62
  256
370
   -1
100
AcDbDimension
  2
*D17
 10
86.45608358062401
 20
-234.0933864004367
 30
0
 11
82.70608358062401
 21
-242.5517735411551
 31
0
 70
   32
 71
    5
  3
Standard
 53
0
210
0
220
0
230
1
100
AcDbAlignedDimension
 13
86.52294830110399
 23
-251.0101606818736
 33
0
 14
86.45608358062401
 24
-234.0933864004367
 34
0
 50
90
100
AcDbRotatedDimension
  0
DIMENSION
  5
130
100
AcDbEntity
  8
0
  6
ByLayer
 62
  256
370
   -1
100
AcDbDimension
  2
*D18
 10
219.2363042650784
 20
-232.5147169299882
 30
0
 11
215.4863042650784
 21
-241.7263655515314
 31
0
 70
   32
 71
    5
  3
Standard
 53
0
210
0
220
0
230
1
100
AcDbAlignedDimension
 13
219.3007658039124
 23
-250.9380141730747
 33
0
 14
219.5548802486446
 24
-232.5147169299882
 34
0
 50
90
100
AcDbRotatedDimension
  0
DIMENSION
  5
131
100
AcDbEntity
  8
0
  6
ByLayer
 62
  256
370
   -1
100
AcDbDimension
  2
*D19
 10
353.7451959752766
 20
-233.245274285869
 30
0
 11
349.9951959752766
 21
-242.1182941299594
 31
0
 70
   32
 71
    5
  3
Standard
 53
0
210
0
220
0
230
1
100
AcDbAlignedDimension
 13
353.978443650373
 23
-250.9913139740497
 33
0
 14
353.9732715368339
 24
-233.245274285869
 34
0
 50
90
100
AcDbRotatedDimension
  0
DIMENSION
  5
132
100
AcDbEntity
  8
0
  6
ByLayer
 62
  256
370
   -1
100
AcDbDimension
  2
*D20
 10
219.7065844581474
 20
-13.46477171417136
 30
0
 11
215.9565844581474
 21
-53.43743725716474
 31
0
 70
   32
 71
    5
  3
Standard
 53
0
210
0
220
0
230
1
100
AcDbAlignedDimension
 13
219.5602914654879
 23
-93.41010280015811
 33
0
 14
220.74362970824
 24
-13.46477171417136
 34
0
 50
90
100
AcDbRotatedDimension
  0
DIMENSION
  5
133
100
AcDbEntity
  8
0
  6
ByLayer
 62
  256
370
   -1
100
AcDbDimension
  2
*D21
 10
353.4950174188272
 20
-59.9841819609389
 30
0
 11
349.7450174188272
 21
-77.16571962922482
 31
0
 70
   32
 71
    5
  3
Standard
 53
0
210
0
220
0
230
1
100
AcDbAlignedDimension
 13
353.441095226533
 23
-94.34725729751075
 33
0
 14
353.6714414834182
 24
-59.9841819609389
 34
0
 50
90
100
AcDbRotatedDimension
  0
DIMENSION
  5
134
100
AcDbEntity
  8
0
  6
ByLayer
 62
  256
370
   -1
100
AcDbDimension
  2
*D22
 10
35.75928861667232
 20
-87.27501378006589
 30
0
 11
61.06195062983983
 21
-83.52501378006589
 31
0
 70
   32
 71
    5
  3
Standard
 53
0
210
0
220
0
230
1
100
AcDbAlignedDimension
 13
86.36461264300735
 23
-94.34725729751068
 33
0
 14
35.75928861667232
 24
-94.65036705725456
 34
0
100
AcDbRotatedDimension
  0
DIMENSION
  5
135
100
AcDbEntity
  8
0
  6
ByLayer
 62
  256
370
   -1
100
AcDbDimension
  2
*D23
 10
446.2048436667
 20
-87.27530862908141
 30
0
 11
423.7963184781521
 21
-83.52530862908141
 31
0
 70
   32
 71
    5
  3
Standard
 53
0
210
0
220
0
230
1
100
AcDbAlignedDimension
 13
401.3877932896041
 23
-94.44996800962527
 33
0
 14
446.2048436667
 24
-94.44996800962527
 34
0
100
AcDbRotatedDimension
  0
ENDSEC
  0
SECTION
  2
OBJECTS
  0
DICTIONARY
  5
C
330
0
100
AcDbDictionary
281
    1
  3
ACAD_GROUP
350
D
  3
ACAD_IMAGE_DICT
350
136
  0
DICTIONARY
  5
D
330
C
100
AcDbDictionary
281
    1
  0
IMAGEDEF_REACTOR
  5
11D
330
11E
100
AcDbRasterImageDefReactor
 90
    2
330
11E
  0
DICTIONARY
  5
136
330
C
100
AcDbDictionary
281
    1
  3
LowerPOGO-Edge_Cuts
350
11C
  0
IMAGEDEF
  5
11C
102
{ACAD_REACTORS
330
11D
102
}
100
AcDbRasterImageDef
 90
    0
  1
C:/Users/Alexander J. Ross/Documents/KiCad/8.0/projects/LowerPOGO/SVG/LowerPOGO-Edge_Cuts.svg
 10
481
 20
269
 11
1
 21
1
280
    1
281
    0
  0
PLOTSETTINGS
  5
137
100
AcDbPlotSettings
  6
1x1
 40
0
 41
0
 42
0
 43
0
  0
ENDSEC
  0
EOF
