%TF.GenerationSoftware,KiCad,Pcbnew,8.0.3*%
%TF.CreationDate,2024-06-21T15:14:05-04:00*%
%TF.ProjectId,LowerPOGO,4c6f7765-7250-44f4-974f-2e6b69636164,v4*%
%TF.SameCoordinates,Original*%
%TF.FileFunction,Copper,L1,Top*%
%TF.FilePolarity,Positive*%
%FSLAX46Y46*%
G04 Gerber Fmt 4.6, Leading zero omitted, Abs format (unit mm)*
G04 Created by KiCad (PCBNEW 8.0.3) date 2024-06-21 15:14:05*
%MOMM*%
%LPD*%
G01*
G04 APERTURE LIST*
%TA.AperFunction,ComponentPad*%
%ADD10C,3.600000*%
%TD*%
%TA.AperFunction,ConnectorPad*%
%ADD11C,5.600000*%
%TD*%
%TA.AperFunction,ComponentPad*%
%ADD12O,1.700000X1.700000*%
%TD*%
%TA.AperFunction,ComponentPad*%
%ADD13R,1.700000X1.700000*%
%TD*%
%TA.AperFunction,ComponentPad*%
%ADD14C,3.250000*%
%TD*%
%TA.AperFunction,Conductor*%
%ADD15C,0.400000*%
%TD*%
G04 APERTURE END LIST*
D10*
%TO.P,H4,1,1*%
%TO.N,Earth*%
X200750000Y-154500000D03*
D11*
X200750000Y-154500000D03*
%TD*%
D10*
%TO.P,H1,1,1*%
%TO.N,Earth*%
X93250000Y-109500000D03*
D11*
X93250000Y-109500000D03*
%TD*%
D10*
%TO.P,H2,1,1*%
%TO.N,Earth*%
X200750000Y-109500000D03*
D11*
X200750000Y-109500000D03*
%TD*%
D10*
%TO.P,H3,1,1*%
%TO.N,Earth*%
X123500000Y-154500000D03*
D11*
X123500000Y-154500000D03*
%TD*%
D12*
%TO.P,J25,1,Pin_1*%
%TO.N,Net-(J1-Pin_1)*%
X130210000Y-102710000D03*
%TO.P,J25,2,Pin_2*%
%TO.N,Net-(J2-Pin_1)*%
X132750000Y-102710000D03*
%TO.P,J25,3,Pin_3*%
%TO.N,Net-(J25-Pin_3)*%
X135290000Y-102710000D03*
%TO.P,J25,4,Pin_4*%
%TO.N,Net-(J25-Pin_4)*%
X137830000Y-102710000D03*
%TO.P,J25,5,Pin_5*%
%TO.N,Net-(J25-Pin_5)*%
X140370000Y-102710000D03*
%TO.P,J25,6,Pin_6*%
%TO.N,Net-(J25-Pin_6)*%
X142910000Y-102710000D03*
%TO.P,J25,7,Pin_7*%
%TO.N,Net-(J25-Pin_7)*%
X145450000Y-102710000D03*
%TO.P,J25,8,Pin_8*%
%TO.N,Net-(J25-Pin_8)*%
X147990000Y-102710000D03*
%TO.P,J25,9,Pin_9*%
%TO.N,Net-(J25-Pin_9)*%
X150530000Y-102710000D03*
%TO.P,J25,10,Pin_10*%
%TO.N,Net-(J10-Pin_1)*%
X153070000Y-102710000D03*
%TO.P,J25,11,Pin_11*%
%TO.N,Net-(J11-Pin_1)*%
X155610000Y-102710000D03*
%TO.P,J25,12,Pin_12*%
%TO.N,Net-(J12-Pin_1)*%
X158150000Y-102710000D03*
D13*
%TO.P,J25,13,Pin_13*%
%TO.N,Net-(J13-Pin_1)*%
X130210000Y-105250000D03*
D12*
%TO.P,J25,14,Pin_14*%
%TO.N,Net-(J14-Pin_1)*%
X132750000Y-105250000D03*
%TO.P,J25,15,Pin_15*%
%TO.N,Net-(J15-Pin_1)*%
X135290000Y-105250000D03*
%TO.P,J25,16,Pin_16*%
%TO.N,Net-(J16-Pin_1)*%
X137830000Y-105250000D03*
%TO.P,J25,17,Pin_17*%
%TO.N,Net-(J17-Pin_1)*%
X140370000Y-105250000D03*
%TO.P,J25,18,Pin_18*%
%TO.N,Net-(J18-Pin_1)*%
X142910000Y-105250000D03*
%TO.P,J25,19,Pin_19*%
%TO.N,Net-(J19-Pin_1)*%
X145450000Y-105250000D03*
%TO.P,J25,20,Pin_20*%
%TO.N,Net-(J20-Pin_1)*%
X147990000Y-105250000D03*
%TO.P,J25,21,Pin_21*%
%TO.N,Net-(J21-Pin_1)*%
X150530000Y-105250000D03*
%TO.P,J25,22,Pin_22*%
%TO.N,Net-(J22-Pin_1)*%
X153070000Y-105250000D03*
%TO.P,J25,23,Pin_23*%
%TO.N,Net-(J23-Pin_1)*%
X155610000Y-105250000D03*
%TO.P,J25,24,Pin_24*%
%TO.N,Net-(J24-Pin_1)*%
X158150000Y-105250000D03*
%TD*%
D14*
%TO.P,J1,1,Pin_1*%
%TO.N,Net-(J1-Pin_1)*%
X95000000Y-126500000D03*
%TD*%
%TO.P,J2,1,Pin_1*%
%TO.N,Net-(J2-Pin_1)*%
X95000000Y-135500000D03*
%TD*%
%TO.P,J3,1,Pin_1*%
%TO.N,Net-(J25-Pin_3)*%
X95000000Y-144500000D03*
%TD*%
%TO.P,J4,1,Pin_1*%
%TO.N,Net-(J25-Pin_4)*%
X96000000Y-154000000D03*
%TD*%
%TO.P,J5,1,Pin_1*%
%TO.N,Net-(J25-Pin_5)*%
X120000000Y-119500000D03*
%TD*%
%TO.P,J6,1,Pin_1*%
%TO.N,Net-(J25-Pin_6)*%
X120500000Y-129500000D03*
%TD*%
%TO.P,J7,1,Pin_1*%
%TO.N,Net-(J25-Pin_7)*%
X133000000Y-126500000D03*
%TD*%
%TO.P,J8,1,Pin_1*%
%TO.N,Net-(J25-Pin_8)*%
X120500000Y-138500000D03*
%TD*%
%TO.P,J9,1,Pin_1*%
%TO.N,Net-(J25-Pin_9)*%
X133000000Y-135500000D03*
%TD*%
%TO.P,J10,1,Pin_1*%
%TO.N,Net-(J10-Pin_1)*%
X120500000Y-147500000D03*
%TD*%
%TO.P,J11,1,Pin_1*%
%TO.N,Net-(J11-Pin_1)*%
X133000000Y-144500000D03*
%TD*%
%TO.P,J12,1,Pin_1*%
%TO.N,Net-(J12-Pin_1)*%
X134000000Y-154000000D03*
%TD*%
%TO.P,J13,1,Pin_1*%
%TO.N,Net-(J13-Pin_1)*%
X172000000Y-154000000D03*
%TD*%
%TO.P,J14,1,Pin_1*%
%TO.N,Net-(J14-Pin_1)*%
X171000000Y-144500000D03*
%TD*%
%TO.P,J15,1,Pin_1*%
%TO.N,Net-(J15-Pin_1)*%
X158500000Y-147000000D03*
%TD*%
%TO.P,J16,1,Pin_1*%
%TO.N,Net-(J16-Pin_1)*%
X158500000Y-138500000D03*
%TD*%
%TO.P,J17,1,Pin_1*%
%TO.N,Net-(J17-Pin_1)*%
X158500000Y-129500000D03*
%TD*%
%TO.P,J18,1,Pin_1*%
%TO.N,Net-(J18-Pin_1)*%
X171000000Y-135500000D03*
%TD*%
%TO.P,J19,1,Pin_1*%
%TO.N,Net-(J19-Pin_1)*%
X158000000Y-119500000D03*
%TD*%
%TO.P,J20,1,Pin_1*%
%TO.N,Net-(J20-Pin_1)*%
X171000000Y-126500000D03*
%TD*%
%TO.P,J21,1,Pin_1*%
%TO.N,Net-(J21-Pin_1)*%
X196500000Y-147500000D03*
%TD*%
%TO.P,J22,1,Pin_1*%
%TO.N,Net-(J22-Pin_1)*%
X196500000Y-138500000D03*
%TD*%
%TO.P,J23,1,Pin_1*%
%TO.N,Net-(J23-Pin_1)*%
X196500000Y-129500000D03*
%TD*%
%TO.P,J24,1,Pin_1*%
%TO.N,Net-(J24-Pin_1)*%
X195500000Y-119500000D03*
%TD*%
D15*
%TO.N,Net-(J15-Pin_1)*%
X158500000Y-147000000D02*
X149750000Y-155750000D01*
X138087000Y-155750000D02*
X136413000Y-154076000D01*
X136413000Y-154076000D02*
X136413000Y-106373000D01*
X149750000Y-155750000D02*
X138087000Y-155750000D01*
X136413000Y-106373000D02*
X135290000Y-105250000D01*
%TO.N,Net-(J13-Pin_1)*%
X127500000Y-154250000D02*
X127500000Y-107960000D01*
X127500000Y-107960000D02*
X130210000Y-105250000D01*
X172000000Y-154000000D02*
X167837000Y-158163000D01*
X167837000Y-158163000D02*
X131413000Y-158163000D01*
X131413000Y-158163000D02*
X127500000Y-154250000D01*
%TO.N,Net-(J14-Pin_1)*%
X171000000Y-144500000D02*
X158500000Y-157000000D01*
X130000000Y-154500000D02*
X130000000Y-108000000D01*
X130000000Y-108000000D02*
X132750000Y-105250000D01*
X132500000Y-157000000D02*
X130000000Y-154500000D01*
X158500000Y-157000000D02*
X132500000Y-157000000D01*
%TO.N,Net-(J16-Pin_1)*%
X137830000Y-153745000D02*
X137830000Y-105250000D01*
X158500000Y-138500000D02*
X152500000Y-144500000D01*
X152500000Y-152151472D02*
X149501472Y-155150000D01*
X149501472Y-155150000D02*
X139235000Y-155150000D01*
X152500000Y-144500000D02*
X152500000Y-152151472D01*
X139235000Y-155150000D02*
X137830000Y-153745000D01*
%TO.N,Net-(J17-Pin_1)*%
X151750000Y-109864112D02*
X150185888Y-108300000D01*
X150185888Y-108300000D02*
X143420000Y-108300000D01*
X143420000Y-108300000D02*
X140370000Y-105250000D01*
X158500000Y-129500000D02*
X151750000Y-122750000D01*
X151750000Y-122750000D02*
X151750000Y-109864112D01*
%TO.N,Net-(J18-Pin_1)*%
X169250000Y-135500000D02*
X153500000Y-119750000D01*
X145360000Y-107700000D02*
X142910000Y-105250000D01*
X153500000Y-119750000D02*
X153500000Y-110765584D01*
X171000000Y-135500000D02*
X169250000Y-135500000D01*
X150434416Y-107700000D02*
X145360000Y-107700000D01*
X153500000Y-110765584D02*
X150434416Y-107700000D01*
%TO.N,Net-(J19-Pin_1)*%
X147300000Y-107100000D02*
X145450000Y-105250000D01*
X155000000Y-111417056D02*
X150682944Y-107100000D01*
X155000000Y-116500000D02*
X155000000Y-111417056D01*
X158000000Y-119500000D02*
X155000000Y-116500000D01*
X150682944Y-107100000D02*
X147300000Y-107100000D01*
%TO.N,Net-(J20-Pin_1)*%
X150931472Y-106500000D02*
X149240000Y-106500000D01*
X160250000Y-115750000D02*
X160181472Y-115750000D01*
X149240000Y-106500000D02*
X147990000Y-105250000D01*
X160181472Y-115750000D02*
X150931472Y-106500000D01*
X171000000Y-126500000D02*
X160250000Y-115750000D01*
%TO.N,Net-(J21-Pin_1)*%
X188938000Y-139938000D02*
X188938000Y-108641000D01*
X196500000Y-147500000D02*
X188938000Y-139938000D01*
X188547000Y-108250000D02*
X153530000Y-108250000D01*
X153530000Y-108250000D02*
X150530000Y-105250000D01*
X188938000Y-108641000D02*
X188547000Y-108250000D01*
%TO.N,Net-(J22-Pin_1)*%
X189538000Y-131538000D02*
X189538000Y-108392472D01*
X189538000Y-108392472D02*
X188756528Y-107611000D01*
X188756528Y-107611000D02*
X155431000Y-107611000D01*
X155431000Y-107611000D02*
X153070000Y-105250000D01*
X196500000Y-138500000D02*
X189538000Y-131538000D01*
%TO.N,Net-(J23-Pin_1)*%
X157371000Y-107011000D02*
X155610000Y-105250000D01*
X189005056Y-107011000D02*
X157371000Y-107011000D01*
X190138000Y-123138000D02*
X190138000Y-108143944D01*
X196500000Y-129500000D02*
X190138000Y-123138000D01*
X190138000Y-108143944D02*
X189005056Y-107011000D01*
%TO.N,Net-(J24-Pin_1)*%
X195500000Y-119500000D02*
X195500000Y-112500000D01*
X189411000Y-106411000D02*
X159311000Y-106411000D01*
X195500000Y-112500000D02*
X189411000Y-106411000D01*
X159311000Y-106411000D02*
X158150000Y-105250000D01*
%TD*%
%TA.AperFunction,Conductor*%
%TO.N,Earth*%
G36*
X159727826Y-92272174D02*
G01*
X159749500Y-92324500D01*
X159749500Y-104678174D01*
X159749357Y-104680357D01*
X159749357Y-104815894D01*
X159783463Y-104943181D01*
X159783464Y-104943184D01*
X159783465Y-104943186D01*
X159849357Y-105057314D01*
X159942543Y-105150500D01*
X160056671Y-105216392D01*
X160183962Y-105250499D01*
X160183963Y-105250500D01*
X160183965Y-105250500D01*
X160184108Y-105250500D01*
X160315892Y-105250500D01*
X204425500Y-105250500D01*
X204477826Y-105272174D01*
X204499500Y-105324500D01*
X204499500Y-158288594D01*
X204477826Y-158340920D01*
X204425500Y-158362594D01*
X168382451Y-158362594D01*
X168330125Y-158340920D01*
X168308451Y-158288594D01*
X168330125Y-158236268D01*
X168941707Y-157624686D01*
X170979700Y-155586691D01*
X171032025Y-155565018D01*
X171073708Y-155577875D01*
X171084691Y-155585363D01*
X171331200Y-155704075D01*
X171461924Y-155744398D01*
X171592641Y-155784720D01*
X171592643Y-155784720D01*
X171592649Y-155784722D01*
X171863198Y-155825500D01*
X171863202Y-155825500D01*
X172136798Y-155825500D01*
X172136802Y-155825500D01*
X172407351Y-155784722D01*
X172407356Y-155784720D01*
X172407358Y-155784720D01*
X172451861Y-155770992D01*
X172668800Y-155704075D01*
X172915310Y-155585363D01*
X173141372Y-155431236D01*
X173341939Y-155245137D01*
X173512528Y-155031224D01*
X173649331Y-154794276D01*
X173749290Y-154539584D01*
X173758325Y-154500000D01*
X197544958Y-154500000D01*
X197565111Y-154858853D01*
X197565113Y-154858865D01*
X197625313Y-155213184D01*
X197724815Y-155558560D01*
X197862352Y-155890607D01*
X197862363Y-155890628D01*
X198036206Y-156205173D01*
X198036210Y-156205180D01*
X198244199Y-156498313D01*
X198350213Y-156616942D01*
X199485502Y-155481652D01*
X199529588Y-155542330D01*
X199707670Y-155720412D01*
X199768346Y-155764495D01*
X198633055Y-156899786D01*
X198751681Y-157005796D01*
X199044819Y-157213789D01*
X199044826Y-157213793D01*
X199359371Y-157387636D01*
X199359392Y-157387647D01*
X199691439Y-157525184D01*
X200036816Y-157624686D01*
X200036814Y-157624686D01*
X200391134Y-157684886D01*
X200391146Y-157684888D01*
X200750000Y-157705041D01*
X201108853Y-157684888D01*
X201108865Y-157684886D01*
X201463184Y-157624686D01*
X201808560Y-157525184D01*
X202140607Y-157387647D01*
X202140628Y-157387636D01*
X202455173Y-157213793D01*
X202455180Y-157213789D01*
X202748318Y-157005796D01*
X202866942Y-156899786D01*
X202866943Y-156899786D01*
X201731653Y-155764496D01*
X201792330Y-155720412D01*
X201970412Y-155542330D01*
X202014496Y-155481653D01*
X203149786Y-156616943D01*
X203149786Y-156616942D01*
X203255796Y-156498318D01*
X203463789Y-156205180D01*
X203463793Y-156205173D01*
X203637636Y-155890628D01*
X203637647Y-155890607D01*
X203775184Y-155558560D01*
X203874686Y-155213184D01*
X203934886Y-154858865D01*
X203934888Y-154858853D01*
X203955041Y-154500000D01*
X203934888Y-154141146D01*
X203934886Y-154141134D01*
X203874686Y-153786815D01*
X203775184Y-153441439D01*
X203637647Y-153109392D01*
X203637636Y-153109371D01*
X203463793Y-152794826D01*
X203463789Y-152794819D01*
X203255796Y-152501681D01*
X203149786Y-152383056D01*
X203149786Y-152383055D01*
X202014495Y-153518345D01*
X201970412Y-153457670D01*
X201792330Y-153279588D01*
X201731652Y-153235502D01*
X202866942Y-152100213D01*
X202748313Y-151994199D01*
X202455180Y-151786210D01*
X202455173Y-151786206D01*
X202140628Y-151612363D01*
X202140607Y-151612352D01*
X201808560Y-151474815D01*
X201463183Y-151375313D01*
X201463185Y-151375313D01*
X201108865Y-151315113D01*
X201108853Y-151315111D01*
X200750000Y-151294958D01*
X200391146Y-151315111D01*
X200391134Y-151315113D01*
X200036815Y-151375313D01*
X199691439Y-151474815D01*
X199359392Y-151612352D01*
X199359371Y-151612363D01*
X199044826Y-151786206D01*
X199044819Y-151786210D01*
X198751686Y-151994199D01*
X198633055Y-152100212D01*
X199768346Y-153235503D01*
X199707670Y-153279588D01*
X199529588Y-153457670D01*
X199485503Y-153518346D01*
X198350212Y-152383055D01*
X198244199Y-152501686D01*
X198036210Y-152794819D01*
X198036206Y-152794826D01*
X197862363Y-153109371D01*
X197862352Y-153109392D01*
X197724815Y-153441439D01*
X197625313Y-153786815D01*
X197565113Y-154141134D01*
X197565111Y-154141146D01*
X197544958Y-154500000D01*
X173758325Y-154500000D01*
X173810172Y-154272840D01*
X173830619Y-154000000D01*
X173810172Y-153727160D01*
X173749290Y-153460416D01*
X173649331Y-153205724D01*
X173512528Y-152968776D01*
X173341939Y-152754863D01*
X173141372Y-152568764D01*
X172915310Y-152414637D01*
X172786727Y-152352715D01*
X172668805Y-152295927D01*
X172668801Y-152295925D01*
X172668800Y-152295925D01*
X172668795Y-152295923D01*
X172668791Y-152295922D01*
X172407358Y-152215279D01*
X172384715Y-152211866D01*
X172136802Y-152174500D01*
X171863198Y-152174500D01*
X171661490Y-152204901D01*
X171592641Y-152215279D01*
X171331208Y-152295922D01*
X171331194Y-152295927D01*
X171084693Y-152414636D01*
X171084691Y-152414637D01*
X170858631Y-152568762D01*
X170858627Y-152568765D01*
X170658061Y-152754862D01*
X170487472Y-152968776D01*
X170350668Y-153205725D01*
X170250708Y-153460419D01*
X170189828Y-153727159D01*
X170169381Y-153999998D01*
X170169381Y-154000001D01*
X170189828Y-154272840D01*
X170250708Y-154539580D01*
X170350668Y-154794274D01*
X170427935Y-154928104D01*
X170435327Y-154984257D01*
X170416175Y-155017430D01*
X167692781Y-157740826D01*
X167640455Y-157762500D01*
X131609544Y-157762500D01*
X131557218Y-157740826D01*
X127922174Y-154105781D01*
X127900500Y-154053455D01*
X127900500Y-108156544D01*
X127922174Y-108104218D01*
X129704218Y-106322174D01*
X129756544Y-106300500D01*
X130954454Y-106300500D01*
X131006780Y-106322174D01*
X131028454Y-106374500D01*
X131006780Y-106426826D01*
X129679517Y-107754090D01*
X129626795Y-107845407D01*
X129626794Y-107845409D01*
X129604257Y-107929521D01*
X129604256Y-107929521D01*
X129599500Y-107947270D01*
X129599500Y-107947273D01*
X129599500Y-154447273D01*
X129599500Y-154552727D01*
X129626793Y-154654588D01*
X129626795Y-154654592D01*
X129679517Y-154745909D01*
X129679518Y-154745910D01*
X129679520Y-154745913D01*
X132254087Y-157320480D01*
X132345412Y-157373207D01*
X132447273Y-157400500D01*
X132447274Y-157400500D01*
X158552726Y-157400500D01*
X158552727Y-157400500D01*
X158654588Y-157373207D01*
X158745913Y-157320480D01*
X169979700Y-146086691D01*
X170032025Y-146065018D01*
X170073708Y-146077875D01*
X170084691Y-146085363D01*
X170331200Y-146204075D01*
X170461924Y-146244398D01*
X170592641Y-146284720D01*
X170592643Y-146284720D01*
X170592649Y-146284722D01*
X170863198Y-146325500D01*
X170863202Y-146325500D01*
X171136798Y-146325500D01*
X171136802Y-146325500D01*
X171407351Y-146284722D01*
X171407356Y-146284720D01*
X171407358Y-146284720D01*
X171451861Y-146270992D01*
X171668800Y-146204075D01*
X171915310Y-146085363D01*
X172141372Y-145931236D01*
X172341939Y-145745137D01*
X172512528Y-145531224D01*
X172649331Y-145294276D01*
X172749290Y-145039584D01*
X172810172Y-144772840D01*
X172830619Y-144500000D01*
X172810172Y-144227160D01*
X172749290Y-143960416D01*
X172649331Y-143705724D01*
X172512528Y-143468776D01*
X172341939Y-143254863D01*
X172141372Y-143068764D01*
X171915310Y-142914637D01*
X171786727Y-142852715D01*
X171668805Y-142795927D01*
X171668801Y-142795925D01*
X171668800Y-142795925D01*
X171668795Y-142795923D01*
X171668791Y-142795922D01*
X171407358Y-142715279D01*
X171384715Y-142711866D01*
X171136802Y-142674500D01*
X170863198Y-142674500D01*
X170661490Y-142704901D01*
X170592641Y-142715279D01*
X170331208Y-142795922D01*
X170331194Y-142795927D01*
X170084693Y-142914636D01*
X170084691Y-142914637D01*
X169858631Y-143068762D01*
X169858627Y-143068765D01*
X169658061Y-143254862D01*
X169487472Y-143468776D01*
X169350668Y-143705725D01*
X169250708Y-143960419D01*
X169189828Y-144227159D01*
X169169381Y-144499998D01*
X169169381Y-144500001D01*
X169189828Y-144772840D01*
X169250708Y-145039580D01*
X169350668Y-145294274D01*
X169427935Y-145428105D01*
X169435327Y-145484258D01*
X169416175Y-145517431D01*
X158355781Y-156577826D01*
X158303455Y-156599500D01*
X132696545Y-156599500D01*
X132644219Y-156577826D01*
X130422174Y-154355781D01*
X130400500Y-154303455D01*
X130400500Y-153999998D01*
X132169381Y-153999998D01*
X132169381Y-154000001D01*
X132189828Y-154272840D01*
X132250708Y-154539580D01*
X132295847Y-154654592D01*
X132350669Y-154794276D01*
X132487472Y-155031224D01*
X132658061Y-155245137D01*
X132858628Y-155431236D01*
X133084691Y-155585363D01*
X133331200Y-155704075D01*
X133461924Y-155744398D01*
X133592641Y-155784720D01*
X133592643Y-155784720D01*
X133592649Y-155784722D01*
X133863198Y-155825500D01*
X133863202Y-155825500D01*
X134136798Y-155825500D01*
X134136802Y-155825500D01*
X134407351Y-155784722D01*
X134407356Y-155784720D01*
X134407358Y-155784720D01*
X134451861Y-155770992D01*
X134668800Y-155704075D01*
X134915310Y-155585363D01*
X135141372Y-155431236D01*
X135341939Y-155245137D01*
X135512528Y-155031224D01*
X135649331Y-154794276D01*
X135749290Y-154539584D01*
X135810172Y-154272840D01*
X135830619Y-154000000D01*
X135810172Y-153727160D01*
X135749290Y-153460416D01*
X135649331Y-153205724D01*
X135512528Y-152968776D01*
X135341939Y-152754863D01*
X135141372Y-152568764D01*
X134915310Y-152414637D01*
X134786727Y-152352715D01*
X134668805Y-152295927D01*
X134668801Y-152295925D01*
X134668800Y-152295925D01*
X134668795Y-152295923D01*
X134668791Y-152295922D01*
X134407358Y-152215279D01*
X134384715Y-152211866D01*
X134136802Y-152174500D01*
X133863198Y-152174500D01*
X133661490Y-152204901D01*
X133592641Y-152215279D01*
X133331208Y-152295922D01*
X133331194Y-152295927D01*
X133084693Y-152414636D01*
X133084691Y-152414637D01*
X132858631Y-152568762D01*
X132858627Y-152568765D01*
X132658061Y-152754862D01*
X132487472Y-152968776D01*
X132350668Y-153205725D01*
X132250708Y-153460419D01*
X132189828Y-153727159D01*
X132169381Y-153999998D01*
X130400500Y-153999998D01*
X130400500Y-144499998D01*
X131169381Y-144499998D01*
X131169381Y-144500001D01*
X131189828Y-144772840D01*
X131250708Y-145039580D01*
X131319665Y-145215279D01*
X131350669Y-145294276D01*
X131487472Y-145531224D01*
X131658061Y-145745137D01*
X131858628Y-145931236D01*
X132084691Y-146085363D01*
X132331200Y-146204075D01*
X132461924Y-146244398D01*
X132592641Y-146284720D01*
X132592643Y-146284720D01*
X132592649Y-146284722D01*
X132863198Y-146325500D01*
X132863202Y-146325500D01*
X133136798Y-146325500D01*
X133136802Y-146325500D01*
X133407351Y-146284722D01*
X133407356Y-146284720D01*
X133407358Y-146284720D01*
X133451861Y-146270992D01*
X133668800Y-146204075D01*
X133915310Y-146085363D01*
X134141372Y-145931236D01*
X134341939Y-145745137D01*
X134512528Y-145531224D01*
X134649331Y-145294276D01*
X134749290Y-145039584D01*
X134810172Y-144772840D01*
X134830619Y-144500000D01*
X134810172Y-144227160D01*
X134749290Y-143960416D01*
X134649331Y-143705724D01*
X134512528Y-143468776D01*
X134341939Y-143254863D01*
X134141372Y-143068764D01*
X133915310Y-142914637D01*
X133786727Y-142852715D01*
X133668805Y-142795927D01*
X133668801Y-142795925D01*
X133668800Y-142795925D01*
X133668795Y-142795923D01*
X133668791Y-142795922D01*
X133407358Y-142715279D01*
X133384715Y-142711866D01*
X133136802Y-142674500D01*
X132863198Y-142674500D01*
X132661490Y-142704901D01*
X132592641Y-142715279D01*
X132331208Y-142795922D01*
X132331194Y-142795927D01*
X132084693Y-142914636D01*
X132084691Y-142914637D01*
X131858631Y-143068762D01*
X131858627Y-143068765D01*
X131658061Y-143254862D01*
X131487472Y-143468776D01*
X131350668Y-143705725D01*
X131250708Y-143960419D01*
X131189828Y-144227159D01*
X131169381Y-144499998D01*
X130400500Y-144499998D01*
X130400500Y-135499998D01*
X131169381Y-135499998D01*
X131169381Y-135500001D01*
X131189828Y-135772840D01*
X131250708Y-136039580D01*
X131250710Y-136039584D01*
X131350669Y-136294276D01*
X131487472Y-136531224D01*
X131658061Y-136745137D01*
X131858628Y-136931236D01*
X132084691Y-137085363D01*
X132331200Y-137204075D01*
X132461924Y-137244398D01*
X132592641Y-137284720D01*
X132592643Y-137284720D01*
X132592649Y-137284722D01*
X132863198Y-137325500D01*
X132863202Y-137325500D01*
X133136798Y-137325500D01*
X133136802Y-137325500D01*
X133407351Y-137284722D01*
X133407356Y-137284720D01*
X133407358Y-137284720D01*
X133451861Y-137270992D01*
X133668800Y-137204075D01*
X133915310Y-137085363D01*
X134141372Y-136931236D01*
X134341939Y-136745137D01*
X134512528Y-136531224D01*
X134649331Y-136294276D01*
X134749290Y-136039584D01*
X134810172Y-135772840D01*
X134830619Y-135500000D01*
X134810172Y-135227160D01*
X134749290Y-134960416D01*
X134649331Y-134705724D01*
X134512528Y-134468776D01*
X134341939Y-134254863D01*
X134141372Y-134068764D01*
X133915310Y-133914637D01*
X133786727Y-133852715D01*
X133668805Y-133795927D01*
X133668801Y-133795925D01*
X133668800Y-133795925D01*
X133668795Y-133795923D01*
X133668791Y-133795922D01*
X133407358Y-133715279D01*
X133384715Y-133711866D01*
X133136802Y-133674500D01*
X132863198Y-133674500D01*
X132661490Y-133704901D01*
X132592641Y-133715279D01*
X132331208Y-133795922D01*
X132331194Y-133795927D01*
X132084693Y-133914636D01*
X132084691Y-133914637D01*
X131858631Y-134068762D01*
X131858627Y-134068765D01*
X131658061Y-134254862D01*
X131487472Y-134468776D01*
X131350668Y-134705725D01*
X131250708Y-134960419D01*
X131189828Y-135227159D01*
X131169381Y-135499998D01*
X130400500Y-135499998D01*
X130400500Y-126499998D01*
X131169381Y-126499998D01*
X131169381Y-126500001D01*
X131189828Y-126772840D01*
X131250708Y-127039580D01*
X131250710Y-127039584D01*
X131350669Y-127294276D01*
X131487472Y-127531224D01*
X131658061Y-127745137D01*
X131858628Y-127931236D01*
X132084691Y-128085363D01*
X132331200Y-128204075D01*
X132461924Y-128244398D01*
X132592641Y-128284720D01*
X132592643Y-128284720D01*
X132592649Y-128284722D01*
X132863198Y-128325500D01*
X132863202Y-128325500D01*
X133136798Y-128325500D01*
X133136802Y-128325500D01*
X133407351Y-128284722D01*
X133407356Y-128284720D01*
X133407358Y-128284720D01*
X133451861Y-128270992D01*
X133668800Y-128204075D01*
X133915310Y-128085363D01*
X134141372Y-127931236D01*
X134341939Y-127745137D01*
X134512528Y-127531224D01*
X134649331Y-127294276D01*
X134749290Y-127039584D01*
X134810172Y-126772840D01*
X134830619Y-126500000D01*
X134810172Y-126227160D01*
X134749290Y-125960416D01*
X134649331Y-125705724D01*
X134512528Y-125468776D01*
X134341939Y-125254863D01*
X134141372Y-125068764D01*
X133915310Y-124914637D01*
X133786727Y-124852715D01*
X133668805Y-124795927D01*
X133668801Y-124795925D01*
X133668800Y-124795925D01*
X133668795Y-124795923D01*
X133668791Y-124795922D01*
X133407358Y-124715279D01*
X133384715Y-124711866D01*
X133136802Y-124674500D01*
X132863198Y-124674500D01*
X132661490Y-124704901D01*
X132592641Y-124715279D01*
X132331208Y-124795922D01*
X132331194Y-124795927D01*
X132087455Y-124913306D01*
X132084691Y-124914637D01*
X132056747Y-124933689D01*
X131858627Y-125068765D01*
X131658061Y-125254862D01*
X131487472Y-125468776D01*
X131350668Y-125705725D01*
X131250708Y-125960419D01*
X131189828Y-126227159D01*
X131169381Y-126499998D01*
X130400500Y-126499998D01*
X130400500Y-108196544D01*
X130422173Y-108144219D01*
X132310935Y-106255456D01*
X132363260Y-106233783D01*
X132384735Y-106236968D01*
X132544066Y-106285300D01*
X132750000Y-106305583D01*
X132955934Y-106285300D01*
X133153954Y-106225232D01*
X133336450Y-106127685D01*
X133496410Y-105996410D01*
X133627685Y-105836450D01*
X133725232Y-105653954D01*
X133785300Y-105455934D01*
X133805583Y-105250000D01*
X134234417Y-105250000D01*
X134254700Y-105455934D01*
X134314768Y-105653954D01*
X134412315Y-105836450D01*
X134543590Y-105996410D01*
X134703550Y-106127685D01*
X134886046Y-106225232D01*
X135084066Y-106285300D01*
X135290000Y-106305583D01*
X135495934Y-106285300D01*
X135655260Y-106236969D01*
X135711621Y-106242521D01*
X135729064Y-106255457D01*
X135990826Y-106517219D01*
X136012500Y-106569545D01*
X136012500Y-154023273D01*
X136012500Y-154128727D01*
X136035989Y-154216392D01*
X136039793Y-154230588D01*
X136039795Y-154230592D01*
X136092517Y-154321909D01*
X136092518Y-154321910D01*
X136092520Y-154321913D01*
X136983792Y-155213184D01*
X137763931Y-155993323D01*
X137763936Y-155993329D01*
X137766520Y-155995913D01*
X137841087Y-156070480D01*
X137932413Y-156123207D01*
X137932414Y-156123207D01*
X137932416Y-156123208D01*
X137983343Y-156136854D01*
X138034271Y-156150500D01*
X138034272Y-156150501D01*
X138034274Y-156150501D01*
X138144257Y-156150501D01*
X138144273Y-156150500D01*
X149802726Y-156150500D01*
X149802727Y-156150500D01*
X149904588Y-156123207D01*
X149995913Y-156070480D01*
X157479700Y-148586691D01*
X157532025Y-148565018D01*
X157573708Y-148577875D01*
X157584691Y-148585363D01*
X157831200Y-148704075D01*
X157961924Y-148744398D01*
X158092641Y-148784720D01*
X158092643Y-148784720D01*
X158092649Y-148784722D01*
X158363198Y-148825500D01*
X158363202Y-148825500D01*
X158636798Y-148825500D01*
X158636802Y-148825500D01*
X158907351Y-148784722D01*
X158907356Y-148784720D01*
X158907358Y-148784720D01*
X158951861Y-148770992D01*
X159168800Y-148704075D01*
X159415310Y-148585363D01*
X159641372Y-148431236D01*
X159841939Y-148245137D01*
X160012528Y-148031224D01*
X160149331Y-147794276D01*
X160249290Y-147539584D01*
X160310172Y-147272840D01*
X160330619Y-147000000D01*
X160310172Y-146727160D01*
X160249290Y-146460416D01*
X160149331Y-146205724D01*
X160012528Y-145968776D01*
X159841939Y-145754863D01*
X159641372Y-145568764D01*
X159415310Y-145414637D01*
X159286727Y-145352715D01*
X159168805Y-145295927D01*
X159168801Y-145295925D01*
X159168800Y-145295925D01*
X159168795Y-145295923D01*
X159168791Y-145295922D01*
X158907358Y-145215279D01*
X158884715Y-145211866D01*
X158636802Y-145174500D01*
X158363198Y-145174500D01*
X158161490Y-145204901D01*
X158092641Y-145215279D01*
X157831208Y-145295922D01*
X157831194Y-145295927D01*
X157584693Y-145414636D01*
X157584691Y-145414637D01*
X157358631Y-145568762D01*
X157358627Y-145568765D01*
X157158061Y-145754862D01*
X156987472Y-145968776D01*
X156850668Y-146205725D01*
X156750708Y-146460419D01*
X156689828Y-146727159D01*
X156669381Y-146999998D01*
X156669381Y-147000001D01*
X156689828Y-147272840D01*
X156750708Y-147539580D01*
X156850668Y-147794274D01*
X156927935Y-147928105D01*
X156935327Y-147984258D01*
X156916175Y-148017431D01*
X153026826Y-151906781D01*
X152974500Y-151928455D01*
X152922174Y-151906781D01*
X152900500Y-151854455D01*
X152900500Y-144696544D01*
X152922173Y-144644219D01*
X157479700Y-140086691D01*
X157532025Y-140065018D01*
X157573708Y-140077875D01*
X157584691Y-140085363D01*
X157831200Y-140204075D01*
X157961924Y-140244398D01*
X158092641Y-140284720D01*
X158092643Y-140284720D01*
X158092649Y-140284722D01*
X158363198Y-140325500D01*
X158363202Y-140325500D01*
X158636798Y-140325500D01*
X158636802Y-140325500D01*
X158907351Y-140284722D01*
X158907356Y-140284720D01*
X158907358Y-140284720D01*
X158951861Y-140270992D01*
X159168800Y-140204075D01*
X159415310Y-140085363D01*
X159641372Y-139931236D01*
X159841939Y-139745137D01*
X160012528Y-139531224D01*
X160149331Y-139294276D01*
X160249290Y-139039584D01*
X160310172Y-138772840D01*
X160330619Y-138500000D01*
X160310172Y-138227160D01*
X160249290Y-137960416D01*
X160149331Y-137705724D01*
X160012528Y-137468776D01*
X159841939Y-137254863D01*
X159641372Y-137068764D01*
X159415310Y-136914637D01*
X159286727Y-136852715D01*
X159168805Y-136795927D01*
X159168801Y-136795925D01*
X159168800Y-136795925D01*
X159168795Y-136795923D01*
X159168791Y-136795922D01*
X158907358Y-136715279D01*
X158884715Y-136711866D01*
X158636802Y-136674500D01*
X158363198Y-136674500D01*
X158161490Y-136704901D01*
X158092641Y-136715279D01*
X157831208Y-136795922D01*
X157831194Y-136795927D01*
X157587455Y-136913306D01*
X157584691Y-136914637D01*
X157556747Y-136933689D01*
X157358627Y-137068765D01*
X157158061Y-137254862D01*
X156987472Y-137468776D01*
X156850668Y-137705725D01*
X156750708Y-137960419D01*
X156689828Y-138227159D01*
X156669381Y-138499998D01*
X156669381Y-138500001D01*
X156689828Y-138772840D01*
X156750708Y-139039580D01*
X156850668Y-139294274D01*
X156927935Y-139428104D01*
X156935327Y-139484257D01*
X156916175Y-139517430D01*
X152179517Y-144254090D01*
X152126792Y-144345412D01*
X152126793Y-144345413D01*
X152099500Y-144447273D01*
X152099500Y-151954927D01*
X152077826Y-152007253D01*
X149357253Y-154727826D01*
X149304927Y-154749500D01*
X139431545Y-154749500D01*
X139379219Y-154727826D01*
X139028219Y-154376826D01*
X139006545Y-154324500D01*
X139028219Y-154272174D01*
X139080545Y-154250500D01*
X149015894Y-154250500D01*
X149015894Y-154250499D01*
X149143186Y-154216392D01*
X149257314Y-154150500D01*
X149350500Y-154057314D01*
X149416392Y-153943186D01*
X149450499Y-153815894D01*
X149450500Y-153815894D01*
X149450500Y-109434106D01*
X149450499Y-109434105D01*
X149416393Y-109306818D01*
X149416392Y-109306814D01*
X149350500Y-109192686D01*
X149257314Y-109099500D01*
X149143190Y-109033610D01*
X149143181Y-109033606D01*
X149015894Y-108999500D01*
X149015892Y-108999500D01*
X139015892Y-108999500D01*
X138884108Y-108999500D01*
X138884106Y-108999500D01*
X138756818Y-109033606D01*
X138756809Y-109033610D01*
X138642685Y-109099500D01*
X138549500Y-109192685D01*
X138483610Y-109306809D01*
X138483606Y-109306818D01*
X138449500Y-109434105D01*
X138449500Y-153619455D01*
X138427826Y-153671781D01*
X138375500Y-153693455D01*
X138323174Y-153671781D01*
X138252174Y-153600781D01*
X138230500Y-153548455D01*
X138230500Y-106271432D01*
X138252174Y-106219106D01*
X138269616Y-106206170D01*
X138285187Y-106197847D01*
X138416450Y-106127685D01*
X138576410Y-105996410D01*
X138707685Y-105836450D01*
X138805232Y-105653954D01*
X138865300Y-105455934D01*
X138885583Y-105250000D01*
X139314417Y-105250000D01*
X139334700Y-105455934D01*
X139394768Y-105653954D01*
X139492315Y-105836450D01*
X139623590Y-105996410D01*
X139783550Y-106127685D01*
X139966046Y-106225232D01*
X140164066Y-106285300D01*
X140370000Y-106305583D01*
X140575934Y-106285300D01*
X140735260Y-106236969D01*
X140791621Y-106242521D01*
X140809064Y-106255457D01*
X143099519Y-108545912D01*
X143099520Y-108545913D01*
X143174087Y-108620480D01*
X143265413Y-108673207D01*
X143367270Y-108700499D01*
X143367271Y-108700500D01*
X143367273Y-108700500D01*
X143472727Y-108700500D01*
X149989343Y-108700500D01*
X150041669Y-108722174D01*
X151327826Y-110008331D01*
X151349500Y-110060657D01*
X151349500Y-122697273D01*
X151349500Y-122802727D01*
X151376793Y-122904588D01*
X151376795Y-122904592D01*
X151429517Y-122995909D01*
X151429518Y-122995910D01*
X151429520Y-122995913D01*
X154394024Y-125960416D01*
X156916175Y-128482567D01*
X156937849Y-128534893D01*
X156927935Y-128571892D01*
X156850669Y-128705722D01*
X156750708Y-128960419D01*
X156689828Y-129227159D01*
X156669381Y-129499998D01*
X156669381Y-129500001D01*
X156689828Y-129772840D01*
X156750708Y-130039580D01*
X156750710Y-130039584D01*
X156850669Y-130294276D01*
X156987472Y-130531224D01*
X157158061Y-130745137D01*
X157358628Y-130931236D01*
X157584691Y-131085363D01*
X157831200Y-131204075D01*
X157961924Y-131244398D01*
X158092641Y-131284720D01*
X158092643Y-131284720D01*
X158092649Y-131284722D01*
X158363198Y-131325500D01*
X158363202Y-131325500D01*
X158636798Y-131325500D01*
X158636802Y-131325500D01*
X158907351Y-131284722D01*
X158907356Y-131284720D01*
X158907358Y-131284720D01*
X158951861Y-131270992D01*
X159168800Y-131204075D01*
X159415310Y-131085363D01*
X159641372Y-130931236D01*
X159841939Y-130745137D01*
X160012528Y-130531224D01*
X160149331Y-130294276D01*
X160249290Y-130039584D01*
X160310172Y-129772840D01*
X160330619Y-129500000D01*
X160310172Y-129227160D01*
X160249290Y-128960416D01*
X160149331Y-128705724D01*
X160012528Y-128468776D01*
X159841939Y-128254863D01*
X159641372Y-128068764D01*
X159415310Y-127914637D01*
X159286727Y-127852715D01*
X159168805Y-127795927D01*
X159168801Y-127795925D01*
X159168800Y-127795925D01*
X159168795Y-127795923D01*
X159168791Y-127795922D01*
X158907358Y-127715279D01*
X158884715Y-127711866D01*
X158636802Y-127674500D01*
X158363198Y-127674500D01*
X158161490Y-127704901D01*
X158092641Y-127715279D01*
X157831208Y-127795922D01*
X157831194Y-127795927D01*
X157584685Y-127914639D01*
X157584683Y-127914641D01*
X157573705Y-127922125D01*
X157518261Y-127933689D01*
X157479699Y-127913306D01*
X152172174Y-122605781D01*
X152150500Y-122553455D01*
X152150500Y-110161129D01*
X152172174Y-110108803D01*
X152224500Y-110087129D01*
X152276826Y-110108803D01*
X153077826Y-110909803D01*
X153099500Y-110962129D01*
X153099500Y-119697273D01*
X153099500Y-119802727D01*
X153126793Y-119904588D01*
X153126795Y-119904592D01*
X153179517Y-119995909D01*
X153179518Y-119995910D01*
X153179520Y-119995913D01*
X161096914Y-127913306D01*
X168926931Y-135743323D01*
X168926936Y-135743329D01*
X168929520Y-135745913D01*
X169004087Y-135820480D01*
X169095413Y-135873207D01*
X169095414Y-135873207D01*
X169095416Y-135873208D01*
X169177308Y-135895152D01*
X169222241Y-135929631D01*
X169230300Y-135950163D01*
X169250709Y-136039580D01*
X169250710Y-136039584D01*
X169350669Y-136294276D01*
X169487472Y-136531224D01*
X169658061Y-136745137D01*
X169858628Y-136931236D01*
X170084691Y-137085363D01*
X170331200Y-137204075D01*
X170461924Y-137244398D01*
X170592641Y-137284720D01*
X170592643Y-137284720D01*
X170592649Y-137284722D01*
X170863198Y-137325500D01*
X170863202Y-137325500D01*
X171136798Y-137325500D01*
X171136802Y-137325500D01*
X171407351Y-137284722D01*
X171407356Y-137284720D01*
X171407358Y-137284720D01*
X171451861Y-137270992D01*
X171668800Y-137204075D01*
X171915310Y-137085363D01*
X172141372Y-136931236D01*
X172341939Y-136745137D01*
X172512528Y-136531224D01*
X172649331Y-136294276D01*
X172749290Y-136039584D01*
X172810172Y-135772840D01*
X172830619Y-135500000D01*
X172810172Y-135227160D01*
X172749290Y-134960416D01*
X172649331Y-134705724D01*
X172512528Y-134468776D01*
X172341939Y-134254863D01*
X172141372Y-134068764D01*
X171915310Y-133914637D01*
X171786727Y-133852715D01*
X171668805Y-133795927D01*
X171668801Y-133795925D01*
X171668800Y-133795925D01*
X171668795Y-133795923D01*
X171668791Y-133795922D01*
X171407358Y-133715279D01*
X171384715Y-133711866D01*
X171136802Y-133674500D01*
X170863198Y-133674500D01*
X170661490Y-133704901D01*
X170592641Y-133715279D01*
X170331208Y-133795922D01*
X170331194Y-133795927D01*
X170084693Y-133914636D01*
X170084691Y-133914637D01*
X169858631Y-134068762D01*
X169858627Y-134068765D01*
X169658061Y-134254862D01*
X169487472Y-134468776D01*
X169350666Y-134705728D01*
X169299356Y-134836464D01*
X169260064Y-134877254D01*
X169203436Y-134878312D01*
X169178146Y-134861754D01*
X153922174Y-119605781D01*
X153900500Y-119553455D01*
X153900500Y-111062601D01*
X153922174Y-111010275D01*
X153974500Y-110988601D01*
X154026826Y-111010275D01*
X154577826Y-111561275D01*
X154599500Y-111613601D01*
X154599500Y-116447273D01*
X154599500Y-116552727D01*
X154626793Y-116654588D01*
X154626795Y-116654592D01*
X154679517Y-116745909D01*
X154679518Y-116745910D01*
X154679520Y-116745913D01*
X155592158Y-117658550D01*
X156416175Y-118482567D01*
X156437849Y-118534893D01*
X156427935Y-118571892D01*
X156350669Y-118705722D01*
X156250708Y-118960419D01*
X156189828Y-119227159D01*
X156169381Y-119499998D01*
X156169381Y-119500001D01*
X156189828Y-119772840D01*
X156250708Y-120039580D01*
X156250710Y-120039584D01*
X156350669Y-120294276D01*
X156487472Y-120531224D01*
X156658061Y-120745137D01*
X156858628Y-120931236D01*
X157084691Y-121085363D01*
X157331200Y-121204075D01*
X157461924Y-121244398D01*
X157592641Y-121284720D01*
X157592643Y-121284720D01*
X157592649Y-121284722D01*
X157863198Y-121325500D01*
X157863202Y-121325500D01*
X158136798Y-121325500D01*
X158136802Y-121325500D01*
X158407351Y-121284722D01*
X158407356Y-121284720D01*
X158407358Y-121284720D01*
X158451861Y-121270992D01*
X158668800Y-121204075D01*
X158915310Y-121085363D01*
X159141372Y-120931236D01*
X159341939Y-120745137D01*
X159512528Y-120531224D01*
X159649331Y-120294276D01*
X159749290Y-120039584D01*
X159810172Y-119772840D01*
X159830619Y-119500000D01*
X159810172Y-119227160D01*
X159749290Y-118960416D01*
X159649331Y-118705724D01*
X159512528Y-118468776D01*
X159341939Y-118254863D01*
X159141372Y-118068764D01*
X158915310Y-117914637D01*
X158786727Y-117852715D01*
X158668805Y-117795927D01*
X158668801Y-117795925D01*
X158668800Y-117795925D01*
X158668795Y-117795923D01*
X158668791Y-117795922D01*
X158407358Y-117715279D01*
X158378145Y-117710876D01*
X158136802Y-117674500D01*
X157863198Y-117674500D01*
X157661490Y-117704901D01*
X157592641Y-117715279D01*
X157331208Y-117795922D01*
X157331194Y-117795927D01*
X157084685Y-117914639D01*
X157084683Y-117914641D01*
X157073705Y-117922125D01*
X157018261Y-117933689D01*
X156979699Y-117913306D01*
X155422174Y-116355781D01*
X155400500Y-116303455D01*
X155400500Y-111714073D01*
X155422174Y-111661747D01*
X155474500Y-111640073D01*
X155526826Y-111661747D01*
X159860991Y-115995912D01*
X159860992Y-115995913D01*
X159935559Y-116070480D01*
X160026885Y-116123207D01*
X160048615Y-116129029D01*
X160081788Y-116148181D01*
X169416175Y-125482568D01*
X169437849Y-125534894D01*
X169427935Y-125571894D01*
X169350668Y-125705725D01*
X169250708Y-125960419D01*
X169189828Y-126227159D01*
X169169381Y-126499998D01*
X169169381Y-126500001D01*
X169189828Y-126772840D01*
X169250708Y-127039580D01*
X169250710Y-127039584D01*
X169350669Y-127294276D01*
X169487472Y-127531224D01*
X169658061Y-127745137D01*
X169858628Y-127931236D01*
X170084691Y-128085363D01*
X170331200Y-128204075D01*
X170461924Y-128244398D01*
X170592641Y-128284720D01*
X170592643Y-128284720D01*
X170592649Y-128284722D01*
X170863198Y-128325500D01*
X170863202Y-128325500D01*
X171136798Y-128325500D01*
X171136802Y-128325500D01*
X171407351Y-128284722D01*
X171407356Y-128284720D01*
X171407358Y-128284720D01*
X171451861Y-128270992D01*
X171668800Y-128204075D01*
X171915310Y-128085363D01*
X172141372Y-127931236D01*
X172341939Y-127745137D01*
X172512528Y-127531224D01*
X172649331Y-127294276D01*
X172749290Y-127039584D01*
X172810172Y-126772840D01*
X172830619Y-126500000D01*
X172810172Y-126227160D01*
X172749290Y-125960416D01*
X172649331Y-125705724D01*
X172512528Y-125468776D01*
X172341939Y-125254863D01*
X172141372Y-125068764D01*
X171915310Y-124914637D01*
X171786727Y-124852715D01*
X171668805Y-124795927D01*
X171668801Y-124795925D01*
X171668800Y-124795925D01*
X171668795Y-124795923D01*
X171668791Y-124795922D01*
X171407358Y-124715279D01*
X171384715Y-124711866D01*
X171136802Y-124674500D01*
X170863198Y-124674500D01*
X170661490Y-124704901D01*
X170592641Y-124715279D01*
X170331208Y-124795922D01*
X170331194Y-124795927D01*
X170084685Y-124914639D01*
X170084683Y-124914641D01*
X170073705Y-124922125D01*
X170018261Y-124933689D01*
X169979699Y-124913306D01*
X165360667Y-120294274D01*
X160495913Y-115429520D01*
X160495910Y-115429518D01*
X160495909Y-115429517D01*
X160404589Y-115376793D01*
X160404584Y-115376791D01*
X160382855Y-115370969D01*
X160349682Y-115351817D01*
X154431970Y-109434105D01*
X175999500Y-109434105D01*
X175999500Y-153940894D01*
X176033606Y-154068181D01*
X176033610Y-154068190D01*
X176081132Y-154150500D01*
X176099500Y-154182314D01*
X176192686Y-154275500D01*
X176306814Y-154341392D01*
X176434105Y-154375499D01*
X176434106Y-154375500D01*
X176434108Y-154375500D01*
X186565894Y-154375500D01*
X186565894Y-154375499D01*
X186693186Y-154341392D01*
X186807314Y-154275500D01*
X186900500Y-154182314D01*
X186966392Y-154068186D01*
X187000499Y-153940894D01*
X187000500Y-153940894D01*
X187000500Y-109434106D01*
X187000499Y-109434105D01*
X186966393Y-109306818D01*
X186966392Y-109306814D01*
X186900500Y-109192686D01*
X186807314Y-109099500D01*
X186693190Y-109033610D01*
X186693181Y-109033606D01*
X186565894Y-108999500D01*
X186565892Y-108999500D01*
X176565892Y-108999500D01*
X176434108Y-108999500D01*
X176434106Y-108999500D01*
X176306818Y-109033606D01*
X176306809Y-109033610D01*
X176192685Y-109099500D01*
X176099500Y-109192685D01*
X176033610Y-109306809D01*
X176033606Y-109306818D01*
X175999500Y-109434105D01*
X154431970Y-109434105D01*
X153774691Y-108776826D01*
X153753017Y-108724500D01*
X153774691Y-108672174D01*
X153827017Y-108650500D01*
X188350455Y-108650500D01*
X188402781Y-108672174D01*
X188515826Y-108785218D01*
X188537500Y-108837544D01*
X188537500Y-139885273D01*
X188537500Y-139990727D01*
X188551597Y-140043339D01*
X188564793Y-140092588D01*
X188564795Y-140092592D01*
X188617517Y-140183909D01*
X188617518Y-140183910D01*
X188617520Y-140183913D01*
X191902383Y-143468776D01*
X194916175Y-146482568D01*
X194937849Y-146534894D01*
X194927935Y-146571894D01*
X194850668Y-146705725D01*
X194750708Y-146960419D01*
X194689828Y-147227159D01*
X194669381Y-147499998D01*
X194669381Y-147500001D01*
X194689828Y-147772840D01*
X194750708Y-148039580D01*
X194750710Y-148039584D01*
X194850669Y-148294276D01*
X194987472Y-148531224D01*
X195158061Y-148745137D01*
X195358628Y-148931236D01*
X195584691Y-149085363D01*
X195831200Y-149204075D01*
X195961924Y-149244398D01*
X196092641Y-149284720D01*
X196092643Y-149284720D01*
X196092649Y-149284722D01*
X196363198Y-149325500D01*
X196363202Y-149325500D01*
X196636798Y-149325500D01*
X196636802Y-149325500D01*
X196907351Y-149284722D01*
X196907356Y-149284720D01*
X196907358Y-149284720D01*
X196951861Y-149270992D01*
X197168800Y-149204075D01*
X197415310Y-149085363D01*
X197641372Y-148931236D01*
X197841939Y-148745137D01*
X198012528Y-148531224D01*
X198149331Y-148294276D01*
X198249290Y-148039584D01*
X198310172Y-147772840D01*
X198330619Y-147500000D01*
X198310172Y-147227160D01*
X198249290Y-146960416D01*
X198149331Y-146705724D01*
X198012528Y-146468776D01*
X197841939Y-146254863D01*
X197641372Y-146068764D01*
X197415310Y-145914637D01*
X197286727Y-145852715D01*
X197168805Y-145795927D01*
X197168801Y-145795925D01*
X197168800Y-145795925D01*
X197168795Y-145795923D01*
X197168791Y-145795922D01*
X196907358Y-145715279D01*
X196884715Y-145711866D01*
X196636802Y-145674500D01*
X196363198Y-145674500D01*
X196161490Y-145704901D01*
X196092641Y-145715279D01*
X195831208Y-145795922D01*
X195831194Y-145795927D01*
X195584685Y-145914639D01*
X195584683Y-145914641D01*
X195573705Y-145922125D01*
X195518261Y-145933689D01*
X195479699Y-145913306D01*
X189360174Y-139793781D01*
X189338500Y-139741455D01*
X189338500Y-132083545D01*
X189360174Y-132031219D01*
X189412500Y-132009545D01*
X189464826Y-132031219D01*
X194916175Y-137482568D01*
X194937849Y-137534894D01*
X194927935Y-137571894D01*
X194850668Y-137705725D01*
X194750708Y-137960419D01*
X194689828Y-138227159D01*
X194669381Y-138499998D01*
X194669381Y-138500001D01*
X194689828Y-138772840D01*
X194750708Y-139039580D01*
X194750710Y-139039584D01*
X194850669Y-139294276D01*
X194987472Y-139531224D01*
X195158061Y-139745137D01*
X195358628Y-139931236D01*
X195584691Y-140085363D01*
X195831200Y-140204075D01*
X195961924Y-140244398D01*
X196092641Y-140284720D01*
X196092643Y-140284720D01*
X196092649Y-140284722D01*
X196363198Y-140325500D01*
X196363202Y-140325500D01*
X196636798Y-140325500D01*
X196636802Y-140325500D01*
X196907351Y-140284722D01*
X196907356Y-140284720D01*
X196907358Y-140284720D01*
X196951861Y-140270992D01*
X197168800Y-140204075D01*
X197415310Y-140085363D01*
X197641372Y-139931236D01*
X197841939Y-139745137D01*
X198012528Y-139531224D01*
X198149331Y-139294276D01*
X198249290Y-139039584D01*
X198310172Y-138772840D01*
X198330619Y-138500000D01*
X198310172Y-138227160D01*
X198249290Y-137960416D01*
X198149331Y-137705724D01*
X198012528Y-137468776D01*
X197841939Y-137254863D01*
X197641372Y-137068764D01*
X197415310Y-136914637D01*
X197286727Y-136852715D01*
X197168805Y-136795927D01*
X197168801Y-136795925D01*
X197168800Y-136795925D01*
X197168795Y-136795923D01*
X197168791Y-136795922D01*
X196907358Y-136715279D01*
X196884715Y-136711866D01*
X196636802Y-136674500D01*
X196363198Y-136674500D01*
X196161490Y-136704901D01*
X196092641Y-136715279D01*
X195831208Y-136795922D01*
X195831194Y-136795927D01*
X195584685Y-136914639D01*
X195584683Y-136914641D01*
X195573705Y-136922125D01*
X195518261Y-136933689D01*
X195479699Y-136913306D01*
X189960174Y-131393781D01*
X189938500Y-131341455D01*
X189938500Y-123683544D01*
X189960174Y-123631218D01*
X190012500Y-123609544D01*
X190064826Y-123631218D01*
X194916175Y-128482567D01*
X194937849Y-128534893D01*
X194927935Y-128571892D01*
X194850669Y-128705722D01*
X194750708Y-128960419D01*
X194689828Y-129227159D01*
X194669381Y-129499998D01*
X194669381Y-129500001D01*
X194689828Y-129772840D01*
X194750708Y-130039580D01*
X194750710Y-130039584D01*
X194850669Y-130294276D01*
X194987472Y-130531224D01*
X195158061Y-130745137D01*
X195358628Y-130931236D01*
X195584691Y-131085363D01*
X195831200Y-131204075D01*
X195961924Y-131244398D01*
X196092641Y-131284720D01*
X196092643Y-131284720D01*
X196092649Y-131284722D01*
X196363198Y-131325500D01*
X196363202Y-131325500D01*
X196636798Y-131325500D01*
X196636802Y-131325500D01*
X196907351Y-131284722D01*
X196907356Y-131284720D01*
X196907358Y-131284720D01*
X196951861Y-131270992D01*
X197168800Y-131204075D01*
X197415310Y-131085363D01*
X197641372Y-130931236D01*
X197841939Y-130745137D01*
X198012528Y-130531224D01*
X198149331Y-130294276D01*
X198249290Y-130039584D01*
X198310172Y-129772840D01*
X198330619Y-129500000D01*
X198310172Y-129227160D01*
X198249290Y-128960416D01*
X198149331Y-128705724D01*
X198012528Y-128468776D01*
X197841939Y-128254863D01*
X197641372Y-128068764D01*
X197415310Y-127914637D01*
X197286727Y-127852715D01*
X197168805Y-127795927D01*
X197168801Y-127795925D01*
X197168800Y-127795925D01*
X197168795Y-127795923D01*
X197168791Y-127795922D01*
X196907358Y-127715279D01*
X196884715Y-127711866D01*
X196636802Y-127674500D01*
X196363198Y-127674500D01*
X196161490Y-127704901D01*
X196092641Y-127715279D01*
X195831208Y-127795922D01*
X195831194Y-127795927D01*
X195584685Y-127914639D01*
X195584683Y-127914641D01*
X195573705Y-127922125D01*
X195518261Y-127933689D01*
X195479699Y-127913306D01*
X190560174Y-122993781D01*
X190538500Y-122941455D01*
X190538500Y-108283545D01*
X190560174Y-108231219D01*
X190612500Y-108209545D01*
X190664826Y-108231219D01*
X195077826Y-112644219D01*
X195099500Y-112696545D01*
X195099500Y-117658550D01*
X195077826Y-117710876D01*
X195047312Y-117729262D01*
X194831208Y-117795922D01*
X194831194Y-117795927D01*
X194587455Y-117913306D01*
X194584691Y-117914637D01*
X194556747Y-117933689D01*
X194358627Y-118068765D01*
X194158061Y-118254862D01*
X193987472Y-118468776D01*
X193850668Y-118705725D01*
X193750708Y-118960419D01*
X193689828Y-119227159D01*
X193669381Y-119499998D01*
X193669381Y-119500001D01*
X193689828Y-119772840D01*
X193750708Y-120039580D01*
X193750710Y-120039584D01*
X193850669Y-120294276D01*
X193987472Y-120531224D01*
X194158061Y-120745137D01*
X194358628Y-120931236D01*
X194584691Y-121085363D01*
X194831200Y-121204075D01*
X194961924Y-121244398D01*
X195092641Y-121284720D01*
X195092643Y-121284720D01*
X195092649Y-121284722D01*
X195363198Y-121325500D01*
X195363202Y-121325500D01*
X195636798Y-121325500D01*
X195636802Y-121325500D01*
X195907351Y-121284722D01*
X195907356Y-121284720D01*
X195907358Y-121284720D01*
X195951861Y-121270992D01*
X196168800Y-121204075D01*
X196415310Y-121085363D01*
X196641372Y-120931236D01*
X196841939Y-120745137D01*
X197012528Y-120531224D01*
X197149331Y-120294276D01*
X197249290Y-120039584D01*
X197310172Y-119772840D01*
X197330619Y-119500000D01*
X197310172Y-119227160D01*
X197249290Y-118960416D01*
X197149331Y-118705724D01*
X197012528Y-118468776D01*
X196841939Y-118254863D01*
X196641372Y-118068764D01*
X196415310Y-117914637D01*
X196286727Y-117852715D01*
X196168805Y-117795927D01*
X196168801Y-117795925D01*
X196168800Y-117795925D01*
X196168795Y-117795923D01*
X196168791Y-117795922D01*
X195952688Y-117729262D01*
X195909075Y-117693128D01*
X195900500Y-117658550D01*
X195900500Y-112447271D01*
X195900499Y-112447270D01*
X195873208Y-112345417D01*
X195873207Y-112345413D01*
X195820480Y-112254087D01*
X195745913Y-112179520D01*
X193066393Y-109500000D01*
X197544958Y-109500000D01*
X197565111Y-109858853D01*
X197565113Y-109858865D01*
X197625313Y-110213184D01*
X197724815Y-110558560D01*
X197862352Y-110890607D01*
X197862363Y-110890628D01*
X198036206Y-111205173D01*
X198036210Y-111205180D01*
X198244199Y-111498313D01*
X198350213Y-111616942D01*
X199485502Y-110481652D01*
X199529588Y-110542330D01*
X199707670Y-110720412D01*
X199768346Y-110764495D01*
X198633055Y-111899786D01*
X198751681Y-112005796D01*
X199044819Y-112213789D01*
X199044826Y-112213793D01*
X199359371Y-112387636D01*
X199359392Y-112387647D01*
X199691439Y-112525184D01*
X200036816Y-112624686D01*
X200036814Y-112624686D01*
X200391134Y-112684886D01*
X200391146Y-112684888D01*
X200750000Y-112705041D01*
X201108853Y-112684888D01*
X201108865Y-112684886D01*
X201463184Y-112624686D01*
X201808560Y-112525184D01*
X202140607Y-112387647D01*
X202140628Y-112387636D01*
X202455173Y-112213793D01*
X202455180Y-112213789D01*
X202748318Y-112005796D01*
X202866942Y-111899786D01*
X202866943Y-111899786D01*
X201731653Y-110764496D01*
X201792330Y-110720412D01*
X201970412Y-110542330D01*
X202014496Y-110481653D01*
X203149786Y-111616943D01*
X203149786Y-111616942D01*
X203255796Y-111498318D01*
X203463789Y-111205180D01*
X203463793Y-111205173D01*
X203637636Y-110890628D01*
X203637647Y-110890607D01*
X203775184Y-110558560D01*
X203874686Y-110213184D01*
X203934886Y-109858865D01*
X203934888Y-109858853D01*
X203955041Y-109500000D01*
X203934888Y-109141146D01*
X203934886Y-109141134D01*
X203874686Y-108786815D01*
X203775184Y-108441439D01*
X203637647Y-108109392D01*
X203637636Y-108109371D01*
X203463793Y-107794826D01*
X203463789Y-107794819D01*
X203255796Y-107501681D01*
X203149786Y-107383056D01*
X203149786Y-107383055D01*
X202014495Y-108518345D01*
X201970412Y-108457670D01*
X201792330Y-108279588D01*
X201731652Y-108235502D01*
X202866942Y-107100213D01*
X202748313Y-106994199D01*
X202455180Y-106786210D01*
X202455173Y-106786206D01*
X202140628Y-106612363D01*
X202140607Y-106612352D01*
X201808560Y-106474815D01*
X201463183Y-106375313D01*
X201463185Y-106375313D01*
X201108865Y-106315113D01*
X201108853Y-106315111D01*
X200750000Y-106294958D01*
X200391146Y-106315111D01*
X200391134Y-106315113D01*
X200036815Y-106375313D01*
X199691439Y-106474815D01*
X199359392Y-106612352D01*
X199359371Y-106612363D01*
X199044826Y-106786206D01*
X199044819Y-106786210D01*
X198751686Y-106994199D01*
X198633055Y-107100212D01*
X199768346Y-108235503D01*
X199707670Y-108279588D01*
X199529588Y-108457670D01*
X199485503Y-108518346D01*
X198350212Y-107383055D01*
X198244199Y-107501686D01*
X198036210Y-107794819D01*
X198036206Y-107794826D01*
X197862363Y-108109371D01*
X197862352Y-108109392D01*
X197724815Y-108441439D01*
X197625313Y-108786815D01*
X197565113Y-109141134D01*
X197565111Y-109141146D01*
X197544958Y-109500000D01*
X193066393Y-109500000D01*
X189656913Y-106090520D01*
X189656910Y-106090518D01*
X189656909Y-106090517D01*
X189565592Y-106037795D01*
X189565588Y-106037793D01*
X189546778Y-106032753D01*
X189463727Y-106010500D01*
X189463726Y-106010500D01*
X159507545Y-106010500D01*
X159455219Y-105988826D01*
X159155457Y-105689064D01*
X159133783Y-105636738D01*
X159136967Y-105615266D01*
X159185300Y-105455934D01*
X159205583Y-105250000D01*
X159185300Y-105044066D01*
X159125232Y-104846046D01*
X159027685Y-104663550D01*
X158896410Y-104503590D01*
X158736450Y-104372315D01*
X158553954Y-104274768D01*
X158442158Y-104240855D01*
X158355935Y-104214700D01*
X158150000Y-104194417D01*
X157944064Y-104214700D01*
X157746043Y-104274769D01*
X157563549Y-104372315D01*
X157403590Y-104503589D01*
X157403589Y-104503590D01*
X157272315Y-104663549D01*
X157174769Y-104846043D01*
X157114700Y-105044064D01*
X157114700Y-105044066D01*
X157094417Y-105250000D01*
X157114700Y-105455934D01*
X157174768Y-105653954D01*
X157272315Y-105836450D01*
X157403590Y-105996410D01*
X157563550Y-106127685D01*
X157746046Y-106225232D01*
X157944066Y-106285300D01*
X158150000Y-106305583D01*
X158355934Y-106285300D01*
X158515260Y-106236969D01*
X158571621Y-106242521D01*
X158589064Y-106255457D01*
X158817781Y-106484174D01*
X158839455Y-106536500D01*
X158817781Y-106588826D01*
X158765455Y-106610500D01*
X157567545Y-106610500D01*
X157515219Y-106588826D01*
X156615457Y-105689064D01*
X156593783Y-105636738D01*
X156596967Y-105615266D01*
X156645300Y-105455934D01*
X156665583Y-105250000D01*
X156645300Y-105044066D01*
X156585232Y-104846046D01*
X156487685Y-104663550D01*
X156356410Y-104503590D01*
X156196450Y-104372315D01*
X156013954Y-104274768D01*
X155902158Y-104240855D01*
X155815935Y-104214700D01*
X155610000Y-104194417D01*
X155404064Y-104214700D01*
X155206043Y-104274769D01*
X155023549Y-104372315D01*
X154863590Y-104503589D01*
X154863589Y-104503590D01*
X154732315Y-104663549D01*
X154634769Y-104846043D01*
X154574700Y-105044064D01*
X154574700Y-105044066D01*
X154554417Y-105250000D01*
X154574700Y-105455934D01*
X154634768Y-105653954D01*
X154732315Y-105836450D01*
X154863590Y-105996410D01*
X155023550Y-106127685D01*
X155206046Y-106225232D01*
X155404066Y-106285300D01*
X155610000Y-106305583D01*
X155815934Y-106285300D01*
X155975260Y-106236969D01*
X156031621Y-106242521D01*
X156049064Y-106255457D01*
X156877781Y-107084174D01*
X156899455Y-107136500D01*
X156877781Y-107188826D01*
X156825455Y-107210500D01*
X155627545Y-107210500D01*
X155575219Y-107188826D01*
X154075457Y-105689064D01*
X154053783Y-105636738D01*
X154056967Y-105615266D01*
X154105300Y-105455934D01*
X154125583Y-105250000D01*
X154105300Y-105044066D01*
X154045232Y-104846046D01*
X153947685Y-104663550D01*
X153816410Y-104503590D01*
X153656450Y-104372315D01*
X153473954Y-104274768D01*
X153362158Y-104240855D01*
X153275935Y-104214700D01*
X153070000Y-104194417D01*
X152864064Y-104214700D01*
X152666043Y-104274769D01*
X152483549Y-104372315D01*
X152323590Y-104503589D01*
X152323589Y-104503590D01*
X152192315Y-104663549D01*
X152094769Y-104846043D01*
X152034700Y-105044064D01*
X152034700Y-105044066D01*
X152014417Y-105250000D01*
X152034700Y-105455934D01*
X152094768Y-105653954D01*
X152192315Y-105836450D01*
X152323590Y-105996410D01*
X152483550Y-106127685D01*
X152666046Y-106225232D01*
X152864066Y-106285300D01*
X153070000Y-106305583D01*
X153275934Y-106285300D01*
X153435260Y-106236969D01*
X153491621Y-106242521D01*
X153509064Y-106255457D01*
X154976781Y-107723174D01*
X154998455Y-107775500D01*
X154976781Y-107827826D01*
X154924455Y-107849500D01*
X153726544Y-107849500D01*
X153674218Y-107827826D01*
X151535457Y-105689064D01*
X151513783Y-105636738D01*
X151516967Y-105615266D01*
X151565300Y-105455934D01*
X151585583Y-105250000D01*
X151565300Y-105044066D01*
X151505232Y-104846046D01*
X151407685Y-104663550D01*
X151276410Y-104503590D01*
X151116450Y-104372315D01*
X150933954Y-104274768D01*
X150822158Y-104240855D01*
X150735935Y-104214700D01*
X150530000Y-104194417D01*
X150324064Y-104214700D01*
X150126043Y-104274769D01*
X149943549Y-104372315D01*
X149783590Y-104503589D01*
X149783589Y-104503590D01*
X149652315Y-104663549D01*
X149554769Y-104846043D01*
X149494700Y-105044064D01*
X149474417Y-105250000D01*
X149494700Y-105455935D01*
X149554769Y-105653956D01*
X149652315Y-105836450D01*
X149768937Y-105978555D01*
X149785378Y-106032753D01*
X149758679Y-106082703D01*
X149711734Y-106099500D01*
X149436545Y-106099500D01*
X149384219Y-106077826D01*
X148995457Y-105689064D01*
X148973783Y-105636738D01*
X148976967Y-105615266D01*
X149025300Y-105455934D01*
X149045583Y-105250000D01*
X149025300Y-105044066D01*
X148965232Y-104846046D01*
X148867685Y-104663550D01*
X148736410Y-104503590D01*
X148576450Y-104372315D01*
X148393954Y-104274768D01*
X148282158Y-104240855D01*
X148195935Y-104214700D01*
X147990000Y-104194417D01*
X147784064Y-104214700D01*
X147586043Y-104274769D01*
X147403549Y-104372315D01*
X147243590Y-104503589D01*
X147243589Y-104503590D01*
X147112315Y-104663549D01*
X147014769Y-104846043D01*
X146954700Y-105044064D01*
X146954700Y-105044066D01*
X146934417Y-105250000D01*
X146954700Y-105455934D01*
X147014768Y-105653954D01*
X147112315Y-105836450D01*
X147243590Y-105996410D01*
X147403550Y-106127685D01*
X147586046Y-106225232D01*
X147784066Y-106285300D01*
X147990000Y-106305583D01*
X148195934Y-106285300D01*
X148355260Y-106236969D01*
X148411621Y-106242521D01*
X148429064Y-106255457D01*
X148746781Y-106573174D01*
X148768455Y-106625500D01*
X148746781Y-106677826D01*
X148694455Y-106699500D01*
X147496545Y-106699500D01*
X147444219Y-106677826D01*
X146455457Y-105689064D01*
X146433783Y-105636738D01*
X146436967Y-105615266D01*
X146485300Y-105455934D01*
X146505583Y-105250000D01*
X146485300Y-105044066D01*
X146425232Y-104846046D01*
X146327685Y-104663550D01*
X146196410Y-104503590D01*
X146036450Y-104372315D01*
X145853954Y-104274768D01*
X145742158Y-104240855D01*
X145655935Y-104214700D01*
X145450000Y-104194417D01*
X145244064Y-104214700D01*
X145046043Y-104274769D01*
X144863549Y-104372315D01*
X144703590Y-104503589D01*
X144703589Y-104503590D01*
X144572315Y-104663549D01*
X144474769Y-104846043D01*
X144414700Y-105044064D01*
X144414700Y-105044066D01*
X144394417Y-105250000D01*
X144414700Y-105455934D01*
X144474768Y-105653954D01*
X144572315Y-105836450D01*
X144703590Y-105996410D01*
X144863550Y-106127685D01*
X145046046Y-106225232D01*
X145244066Y-106285300D01*
X145450000Y-106305583D01*
X145655934Y-106285300D01*
X145815260Y-106236969D01*
X145871621Y-106242521D01*
X145889064Y-106255457D01*
X146806781Y-107173174D01*
X146828455Y-107225500D01*
X146806781Y-107277826D01*
X146754455Y-107299500D01*
X145556545Y-107299500D01*
X145504219Y-107277826D01*
X143915457Y-105689064D01*
X143893783Y-105636738D01*
X143896967Y-105615266D01*
X143945300Y-105455934D01*
X143965583Y-105250000D01*
X143945300Y-105044066D01*
X143885232Y-104846046D01*
X143787685Y-104663550D01*
X143656410Y-104503590D01*
X143496450Y-104372315D01*
X143313954Y-104274768D01*
X143202158Y-104240855D01*
X143115935Y-104214700D01*
X142910000Y-104194417D01*
X142704064Y-104214700D01*
X142506043Y-104274769D01*
X142323549Y-104372315D01*
X142163590Y-104503589D01*
X142163589Y-104503590D01*
X142032315Y-104663549D01*
X141934769Y-104846043D01*
X141874700Y-105044064D01*
X141874700Y-105044066D01*
X141854417Y-105250000D01*
X141874700Y-105455934D01*
X141934768Y-105653954D01*
X142032315Y-105836450D01*
X142163590Y-105996410D01*
X142323550Y-106127685D01*
X142506046Y-106225232D01*
X142704066Y-106285300D01*
X142910000Y-106305583D01*
X143115934Y-106285300D01*
X143275260Y-106236969D01*
X143331621Y-106242521D01*
X143349064Y-106255457D01*
X144866781Y-107773174D01*
X144888455Y-107825500D01*
X144866781Y-107877826D01*
X144814455Y-107899500D01*
X143616545Y-107899500D01*
X143564219Y-107877826D01*
X141375457Y-105689064D01*
X141353783Y-105636738D01*
X141356967Y-105615266D01*
X141405300Y-105455934D01*
X141425583Y-105250000D01*
X141405300Y-105044066D01*
X141345232Y-104846046D01*
X141247685Y-104663550D01*
X141116410Y-104503590D01*
X140956450Y-104372315D01*
X140773954Y-104274768D01*
X140662158Y-104240855D01*
X140575935Y-104214700D01*
X140370000Y-104194417D01*
X140164064Y-104214700D01*
X139966043Y-104274769D01*
X139783549Y-104372315D01*
X139623590Y-104503589D01*
X139623589Y-104503590D01*
X139492315Y-104663549D01*
X139394769Y-104846043D01*
X139334700Y-105044064D01*
X139334700Y-105044066D01*
X139314417Y-105250000D01*
X138885583Y-105250000D01*
X138865300Y-105044066D01*
X138805232Y-104846046D01*
X138707685Y-104663550D01*
X138576410Y-104503590D01*
X138416450Y-104372315D01*
X138233954Y-104274768D01*
X138122158Y-104240855D01*
X138035935Y-104214700D01*
X137830000Y-104194417D01*
X137624064Y-104214700D01*
X137426043Y-104274769D01*
X137243549Y-104372315D01*
X137083590Y-104503589D01*
X137083589Y-104503590D01*
X136952315Y-104663549D01*
X136854769Y-104846043D01*
X136794700Y-105044064D01*
X136794700Y-105044066D01*
X136774417Y-105250000D01*
X136794700Y-105455934D01*
X136854768Y-105653954D01*
X136952315Y-105836450D01*
X137083590Y-105996410D01*
X137243550Y-106127685D01*
X137374813Y-106197847D01*
X137390384Y-106206170D01*
X137426314Y-106249951D01*
X137429500Y-106271432D01*
X137429500Y-153692273D01*
X137429500Y-153797727D01*
X137453102Y-153885813D01*
X137456793Y-153899588D01*
X137456795Y-153899592D01*
X137509517Y-153990909D01*
X137509518Y-153990910D01*
X137509520Y-153990913D01*
X138144530Y-154625923D01*
X138741781Y-155223174D01*
X138763455Y-155275500D01*
X138741781Y-155327826D01*
X138689455Y-155349500D01*
X138283544Y-155349500D01*
X138231218Y-155327826D01*
X136835174Y-153931781D01*
X136813500Y-153879455D01*
X136813500Y-106320273D01*
X136786207Y-106218413D01*
X136786207Y-106218412D01*
X136733482Y-106127090D01*
X136733481Y-106127089D01*
X136733480Y-106127087D01*
X136295457Y-105689064D01*
X136273783Y-105636738D01*
X136276967Y-105615266D01*
X136325300Y-105455934D01*
X136345583Y-105250000D01*
X136325300Y-105044066D01*
X136265232Y-104846046D01*
X136167685Y-104663550D01*
X136036410Y-104503590D01*
X135876450Y-104372315D01*
X135693954Y-104274768D01*
X135582158Y-104240855D01*
X135495935Y-104214700D01*
X135290000Y-104194417D01*
X135084064Y-104214700D01*
X134886043Y-104274769D01*
X134703549Y-104372315D01*
X134543590Y-104503589D01*
X134543589Y-104503590D01*
X134412315Y-104663549D01*
X134314769Y-104846043D01*
X134254700Y-105044064D01*
X134254700Y-105044066D01*
X134234417Y-105250000D01*
X133805583Y-105250000D01*
X133785300Y-105044066D01*
X133725232Y-104846046D01*
X133627685Y-104663550D01*
X133496410Y-104503590D01*
X133336450Y-104372315D01*
X133153954Y-104274768D01*
X133042158Y-104240855D01*
X132955935Y-104214700D01*
X132750000Y-104194417D01*
X132544064Y-104214700D01*
X132346043Y-104274769D01*
X132163549Y-104372315D01*
X132003590Y-104503589D01*
X132003589Y-104503590D01*
X131872315Y-104663549D01*
X131774769Y-104846043D01*
X131714700Y-105044064D01*
X131694417Y-105250000D01*
X131714700Y-105455937D01*
X131763029Y-105615258D01*
X131757477Y-105671622D01*
X131744541Y-105689064D01*
X131386826Y-106046780D01*
X131334500Y-106068454D01*
X131282174Y-106046780D01*
X131260500Y-105994454D01*
X131260500Y-104380253D01*
X131254383Y-104349500D01*
X131248867Y-104321769D01*
X131204552Y-104255448D01*
X131182343Y-104240608D01*
X131138232Y-104211133D01*
X131138233Y-104211133D01*
X131108989Y-104205316D01*
X131079748Y-104199500D01*
X129340252Y-104199500D01*
X129311010Y-104205316D01*
X129281767Y-104211133D01*
X129215449Y-104255447D01*
X129215447Y-104255449D01*
X129171133Y-104321767D01*
X129159500Y-104380253D01*
X129159500Y-105703455D01*
X129137826Y-105755781D01*
X127179517Y-107714090D01*
X127126792Y-107805412D01*
X127126793Y-107805413D01*
X127099500Y-107907273D01*
X127099500Y-154197273D01*
X127099500Y-154302727D01*
X127118618Y-154374077D01*
X127126793Y-154404588D01*
X127126795Y-154404592D01*
X127179517Y-154495909D01*
X127179518Y-154495910D01*
X127179520Y-154495913D01*
X129181921Y-156498313D01*
X130919876Y-158236268D01*
X130941550Y-158288594D01*
X130919876Y-158340920D01*
X130867550Y-158362594D01*
X89574500Y-158362594D01*
X89522174Y-158340920D01*
X89500500Y-158288594D01*
X89500500Y-153999998D01*
X94169381Y-153999998D01*
X94169381Y-154000001D01*
X94189828Y-154272840D01*
X94250708Y-154539580D01*
X94295847Y-154654592D01*
X94350669Y-154794276D01*
X94487472Y-155031224D01*
X94658061Y-155245137D01*
X94858628Y-155431236D01*
X95084691Y-155585363D01*
X95331200Y-155704075D01*
X95461924Y-155744398D01*
X95592641Y-155784720D01*
X95592643Y-155784720D01*
X95592649Y-155784722D01*
X95863198Y-155825500D01*
X95863202Y-155825500D01*
X96136798Y-155825500D01*
X96136802Y-155825500D01*
X96407351Y-155784722D01*
X96407356Y-155784720D01*
X96407358Y-155784720D01*
X96451861Y-155770992D01*
X96668800Y-155704075D01*
X96915310Y-155585363D01*
X97141372Y-155431236D01*
X97341939Y-155245137D01*
X97512528Y-155031224D01*
X97649331Y-154794276D01*
X97749290Y-154539584D01*
X97758325Y-154500000D01*
X120294958Y-154500000D01*
X120315111Y-154858853D01*
X120315113Y-154858865D01*
X120375313Y-155213184D01*
X120474815Y-155558560D01*
X120612352Y-155890607D01*
X120612363Y-155890628D01*
X120786206Y-156205173D01*
X120786210Y-156205180D01*
X120994199Y-156498313D01*
X121100213Y-156616942D01*
X122235502Y-155481652D01*
X122279588Y-155542330D01*
X122457670Y-155720412D01*
X122518346Y-155764495D01*
X121383055Y-156899786D01*
X121501681Y-157005796D01*
X121794819Y-157213789D01*
X121794826Y-157213793D01*
X122109371Y-157387636D01*
X122109392Y-157387647D01*
X122441439Y-157525184D01*
X122786816Y-157624686D01*
X122786814Y-157624686D01*
X123141134Y-157684886D01*
X123141146Y-157684888D01*
X123500000Y-157705041D01*
X123858853Y-157684888D01*
X123858865Y-157684886D01*
X124213184Y-157624686D01*
X124558560Y-157525184D01*
X124890607Y-157387647D01*
X124890628Y-157387636D01*
X125205173Y-157213793D01*
X125205180Y-157213789D01*
X125498318Y-157005796D01*
X125616942Y-156899786D01*
X125616943Y-156899786D01*
X124481653Y-155764496D01*
X124542330Y-155720412D01*
X124720412Y-155542330D01*
X124764496Y-155481653D01*
X125899786Y-156616943D01*
X125899786Y-156616942D01*
X126005796Y-156498318D01*
X126213789Y-156205180D01*
X126213793Y-156205173D01*
X126387636Y-155890628D01*
X126387647Y-155890607D01*
X126525184Y-155558560D01*
X126624686Y-155213184D01*
X126684886Y-154858865D01*
X126684888Y-154858853D01*
X126705041Y-154500000D01*
X126684888Y-154141146D01*
X126684886Y-154141134D01*
X126624686Y-153786815D01*
X126525184Y-153441439D01*
X126387647Y-153109392D01*
X126387636Y-153109371D01*
X126213793Y-152794826D01*
X126213789Y-152794819D01*
X126005796Y-152501681D01*
X125899786Y-152383056D01*
X125899786Y-152383055D01*
X124764495Y-153518345D01*
X124720412Y-153457670D01*
X124542330Y-153279588D01*
X124481652Y-153235502D01*
X125616942Y-152100213D01*
X125498313Y-151994199D01*
X125205180Y-151786210D01*
X125205173Y-151786206D01*
X124890628Y-151612363D01*
X124890607Y-151612352D01*
X124558560Y-151474815D01*
X124213183Y-151375313D01*
X124213185Y-151375313D01*
X123858865Y-151315113D01*
X123858853Y-151315111D01*
X123500000Y-151294958D01*
X123141146Y-151315111D01*
X123141134Y-151315113D01*
X122786815Y-151375313D01*
X122441439Y-151474815D01*
X122109392Y-151612352D01*
X122109371Y-151612363D01*
X121794826Y-151786206D01*
X121794819Y-151786210D01*
X121501686Y-151994199D01*
X121383055Y-152100212D01*
X122518346Y-153235503D01*
X122457670Y-153279588D01*
X122279588Y-153457670D01*
X122235503Y-153518346D01*
X121100212Y-152383055D01*
X120994199Y-152501686D01*
X120786210Y-152794819D01*
X120786206Y-152794826D01*
X120612363Y-153109371D01*
X120612352Y-153109392D01*
X120474815Y-153441439D01*
X120375313Y-153786815D01*
X120315113Y-154141134D01*
X120315111Y-154141146D01*
X120294958Y-154500000D01*
X97758325Y-154500000D01*
X97810172Y-154272840D01*
X97830619Y-154000000D01*
X97810172Y-153727160D01*
X97749290Y-153460416D01*
X97649331Y-153205724D01*
X97512528Y-152968776D01*
X97341939Y-152754863D01*
X97141372Y-152568764D01*
X96915310Y-152414637D01*
X96786727Y-152352715D01*
X96668805Y-152295927D01*
X96668801Y-152295925D01*
X96668800Y-152295925D01*
X96668795Y-152295923D01*
X96668791Y-152295922D01*
X96407358Y-152215279D01*
X96384715Y-152211866D01*
X96136802Y-152174500D01*
X95863198Y-152174500D01*
X95661490Y-152204901D01*
X95592641Y-152215279D01*
X95331208Y-152295922D01*
X95331194Y-152295927D01*
X95084693Y-152414636D01*
X95084691Y-152414637D01*
X94858631Y-152568762D01*
X94858627Y-152568765D01*
X94658061Y-152754862D01*
X94487472Y-152968776D01*
X94350668Y-153205725D01*
X94250708Y-153460419D01*
X94189828Y-153727159D01*
X94169381Y-153999998D01*
X89500500Y-153999998D01*
X89500500Y-144499998D01*
X93169381Y-144499998D01*
X93169381Y-144500001D01*
X93189828Y-144772840D01*
X93250708Y-145039580D01*
X93319665Y-145215279D01*
X93350669Y-145294276D01*
X93487472Y-145531224D01*
X93658061Y-145745137D01*
X93858628Y-145931236D01*
X94084691Y-146085363D01*
X94331200Y-146204075D01*
X94461924Y-146244398D01*
X94592641Y-146284720D01*
X94592643Y-146284720D01*
X94592649Y-146284722D01*
X94863198Y-146325500D01*
X94863202Y-146325500D01*
X95136798Y-146325500D01*
X95136802Y-146325500D01*
X95407351Y-146284722D01*
X95407356Y-146284720D01*
X95407358Y-146284720D01*
X95451861Y-146270992D01*
X95668800Y-146204075D01*
X95915310Y-146085363D01*
X96141372Y-145931236D01*
X96341939Y-145745137D01*
X96512528Y-145531224D01*
X96649331Y-145294276D01*
X96749290Y-145039584D01*
X96810172Y-144772840D01*
X96830619Y-144500000D01*
X96810172Y-144227160D01*
X96749290Y-143960416D01*
X96649331Y-143705724D01*
X96512528Y-143468776D01*
X96341939Y-143254863D01*
X96141372Y-143068764D01*
X95915310Y-142914637D01*
X95786727Y-142852715D01*
X95668805Y-142795927D01*
X95668801Y-142795925D01*
X95668800Y-142795925D01*
X95668795Y-142795923D01*
X95668791Y-142795922D01*
X95407358Y-142715279D01*
X95384715Y-142711866D01*
X95136802Y-142674500D01*
X94863198Y-142674500D01*
X94661490Y-142704901D01*
X94592641Y-142715279D01*
X94331208Y-142795922D01*
X94331194Y-142795927D01*
X94084693Y-142914636D01*
X94084691Y-142914637D01*
X93858631Y-143068762D01*
X93858627Y-143068765D01*
X93658061Y-143254862D01*
X93487472Y-143468776D01*
X93350668Y-143705725D01*
X93250708Y-143960419D01*
X93189828Y-144227159D01*
X93169381Y-144499998D01*
X89500500Y-144499998D01*
X89500500Y-135499998D01*
X93169381Y-135499998D01*
X93169381Y-135500001D01*
X93189828Y-135772840D01*
X93250708Y-136039580D01*
X93250710Y-136039584D01*
X93350669Y-136294276D01*
X93487472Y-136531224D01*
X93658061Y-136745137D01*
X93858628Y-136931236D01*
X94084691Y-137085363D01*
X94331200Y-137204075D01*
X94461924Y-137244398D01*
X94592641Y-137284720D01*
X94592643Y-137284720D01*
X94592649Y-137284722D01*
X94863198Y-137325500D01*
X94863202Y-137325500D01*
X95136798Y-137325500D01*
X95136802Y-137325500D01*
X95407351Y-137284722D01*
X95407356Y-137284720D01*
X95407358Y-137284720D01*
X95451861Y-137270992D01*
X95668800Y-137204075D01*
X95915310Y-137085363D01*
X96141372Y-136931236D01*
X96341939Y-136745137D01*
X96512528Y-136531224D01*
X96649331Y-136294276D01*
X96749290Y-136039584D01*
X96810172Y-135772840D01*
X96830619Y-135500000D01*
X96810172Y-135227160D01*
X96749290Y-134960416D01*
X96649331Y-134705724D01*
X96512528Y-134468776D01*
X96341939Y-134254863D01*
X96141372Y-134068764D01*
X95915310Y-133914637D01*
X95786727Y-133852715D01*
X95668805Y-133795927D01*
X95668801Y-133795925D01*
X95668800Y-133795925D01*
X95668795Y-133795923D01*
X95668791Y-133795922D01*
X95407358Y-133715279D01*
X95384715Y-133711866D01*
X95136802Y-133674500D01*
X94863198Y-133674500D01*
X94661490Y-133704901D01*
X94592641Y-133715279D01*
X94331208Y-133795922D01*
X94331194Y-133795927D01*
X94084693Y-133914636D01*
X94084691Y-133914637D01*
X93858631Y-134068762D01*
X93858627Y-134068765D01*
X93658061Y-134254862D01*
X93487472Y-134468776D01*
X93350668Y-134705725D01*
X93250708Y-134960419D01*
X93189828Y-135227159D01*
X93169381Y-135499998D01*
X89500500Y-135499998D01*
X89500500Y-126499998D01*
X93169381Y-126499998D01*
X93169381Y-126500001D01*
X93189828Y-126772840D01*
X93250708Y-127039580D01*
X93250710Y-127039584D01*
X93350669Y-127294276D01*
X93487472Y-127531224D01*
X93658061Y-127745137D01*
X93858628Y-127931236D01*
X94084691Y-128085363D01*
X94331200Y-128204075D01*
X94461924Y-128244398D01*
X94592641Y-128284720D01*
X94592643Y-128284720D01*
X94592649Y-128284722D01*
X94863198Y-128325500D01*
X94863202Y-128325500D01*
X95136798Y-128325500D01*
X95136802Y-128325500D01*
X95407351Y-128284722D01*
X95407356Y-128284720D01*
X95407358Y-128284720D01*
X95451861Y-128270992D01*
X95668800Y-128204075D01*
X95915310Y-128085363D01*
X96141372Y-127931236D01*
X96341939Y-127745137D01*
X96512528Y-127531224D01*
X96649331Y-127294276D01*
X96749290Y-127039584D01*
X96810172Y-126772840D01*
X96830619Y-126500000D01*
X96810172Y-126227160D01*
X96749290Y-125960416D01*
X96649331Y-125705724D01*
X96512528Y-125468776D01*
X96341939Y-125254863D01*
X96141372Y-125068764D01*
X95915310Y-124914637D01*
X95786727Y-124852715D01*
X95668805Y-124795927D01*
X95668801Y-124795925D01*
X95668800Y-124795925D01*
X95668795Y-124795923D01*
X95668791Y-124795922D01*
X95407358Y-124715279D01*
X95384715Y-124711866D01*
X95136802Y-124674500D01*
X94863198Y-124674500D01*
X94661490Y-124704901D01*
X94592641Y-124715279D01*
X94331208Y-124795922D01*
X94331194Y-124795927D01*
X94087455Y-124913306D01*
X94084691Y-124914637D01*
X94056747Y-124933689D01*
X93858627Y-125068765D01*
X93658061Y-125254862D01*
X93487472Y-125468776D01*
X93350668Y-125705725D01*
X93250708Y-125960419D01*
X93189828Y-126227159D01*
X93169381Y-126499998D01*
X89500500Y-126499998D01*
X89500500Y-109500000D01*
X90044958Y-109500000D01*
X90065111Y-109858853D01*
X90065113Y-109858865D01*
X90125313Y-110213184D01*
X90224815Y-110558560D01*
X90362352Y-110890607D01*
X90362363Y-110890628D01*
X90536206Y-111205173D01*
X90536210Y-111205180D01*
X90744199Y-111498313D01*
X90850213Y-111616942D01*
X91985502Y-110481652D01*
X92029588Y-110542330D01*
X92207670Y-110720412D01*
X92268346Y-110764495D01*
X91133055Y-111899786D01*
X91251681Y-112005796D01*
X91544819Y-112213789D01*
X91544826Y-112213793D01*
X91859371Y-112387636D01*
X91859392Y-112387647D01*
X92191439Y-112525184D01*
X92536816Y-112624686D01*
X92536814Y-112624686D01*
X92891134Y-112684886D01*
X92891146Y-112684888D01*
X93250000Y-112705041D01*
X93608853Y-112684888D01*
X93608865Y-112684886D01*
X93963184Y-112624686D01*
X94308560Y-112525184D01*
X94640607Y-112387647D01*
X94640628Y-112387636D01*
X94955173Y-112213793D01*
X94955180Y-112213789D01*
X95248318Y-112005796D01*
X95366942Y-111899786D01*
X95366943Y-111899786D01*
X94231653Y-110764496D01*
X94292330Y-110720412D01*
X94470412Y-110542330D01*
X94514496Y-110481653D01*
X95649786Y-111616943D01*
X95649786Y-111616942D01*
X95755796Y-111498318D01*
X95963789Y-111205180D01*
X95963793Y-111205173D01*
X96137636Y-110890628D01*
X96137647Y-110890607D01*
X96275184Y-110558560D01*
X96374686Y-110213184D01*
X96434886Y-109858865D01*
X96434888Y-109858853D01*
X96455041Y-109500000D01*
X96451340Y-109434105D01*
X99999500Y-109434105D01*
X99999500Y-154040894D01*
X100033606Y-154168181D01*
X100033610Y-154168190D01*
X100081132Y-154250500D01*
X100099500Y-154282314D01*
X100192686Y-154375500D01*
X100306814Y-154441392D01*
X100434105Y-154475499D01*
X100434106Y-154475500D01*
X100434108Y-154475500D01*
X114015894Y-154475500D01*
X114015894Y-154475499D01*
X114143186Y-154441392D01*
X114257314Y-154375500D01*
X114350500Y-154282314D01*
X114416392Y-154168186D01*
X114450499Y-154040894D01*
X114450500Y-154040894D01*
X114450500Y-147499998D01*
X118669381Y-147499998D01*
X118669381Y-147500001D01*
X118689828Y-147772840D01*
X118750708Y-148039580D01*
X118750710Y-148039584D01*
X118850669Y-148294276D01*
X118987472Y-148531224D01*
X119158061Y-148745137D01*
X119358628Y-148931236D01*
X119584691Y-149085363D01*
X119831200Y-149204075D01*
X119961924Y-149244398D01*
X120092641Y-149284720D01*
X120092643Y-149284720D01*
X120092649Y-149284722D01*
X120363198Y-149325500D01*
X120363202Y-149325500D01*
X120636798Y-149325500D01*
X120636802Y-149325500D01*
X120907351Y-149284722D01*
X120907356Y-149284720D01*
X120907358Y-149284720D01*
X120951861Y-149270992D01*
X121168800Y-149204075D01*
X121415310Y-149085363D01*
X121641372Y-148931236D01*
X121841939Y-148745137D01*
X122012528Y-148531224D01*
X122149331Y-148294276D01*
X122249290Y-148039584D01*
X122310172Y-147772840D01*
X122330619Y-147500000D01*
X122310172Y-147227160D01*
X122249290Y-146960416D01*
X122149331Y-146705724D01*
X122012528Y-146468776D01*
X121841939Y-146254863D01*
X121641372Y-146068764D01*
X121415310Y-145914637D01*
X121286727Y-145852715D01*
X121168805Y-145795927D01*
X121168801Y-145795925D01*
X121168800Y-145795925D01*
X121168795Y-145795923D01*
X121168791Y-145795922D01*
X120907358Y-145715279D01*
X120884715Y-145711866D01*
X120636802Y-145674500D01*
X120363198Y-145674500D01*
X120161490Y-145704901D01*
X120092641Y-145715279D01*
X119831208Y-145795922D01*
X119831194Y-145795927D01*
X119587455Y-145913306D01*
X119584691Y-145914637D01*
X119358631Y-146068762D01*
X119358627Y-146068765D01*
X119158061Y-146254862D01*
X118987472Y-146468776D01*
X118850668Y-146705725D01*
X118750708Y-146960419D01*
X118689828Y-147227159D01*
X118669381Y-147499998D01*
X114450500Y-147499998D01*
X114450500Y-138499998D01*
X118669381Y-138499998D01*
X118669381Y-138500001D01*
X118689828Y-138772840D01*
X118750708Y-139039580D01*
X118750710Y-139039584D01*
X118850669Y-139294276D01*
X118987472Y-139531224D01*
X119158061Y-139745137D01*
X119358628Y-139931236D01*
X119584691Y-140085363D01*
X119831200Y-140204075D01*
X119961924Y-140244398D01*
X120092641Y-140284720D01*
X120092643Y-140284720D01*
X120092649Y-140284722D01*
X120363198Y-140325500D01*
X120363202Y-140325500D01*
X120636798Y-140325500D01*
X120636802Y-140325500D01*
X120907351Y-140284722D01*
X120907356Y-140284720D01*
X120907358Y-140284720D01*
X120951861Y-140270992D01*
X121168800Y-140204075D01*
X121415310Y-140085363D01*
X121641372Y-139931236D01*
X121841939Y-139745137D01*
X122012528Y-139531224D01*
X122149331Y-139294276D01*
X122249290Y-139039584D01*
X122310172Y-138772840D01*
X122330619Y-138500000D01*
X122310172Y-138227160D01*
X122249290Y-137960416D01*
X122149331Y-137705724D01*
X122012528Y-137468776D01*
X121841939Y-137254863D01*
X121641372Y-137068764D01*
X121415310Y-136914637D01*
X121286727Y-136852715D01*
X121168805Y-136795927D01*
X121168801Y-136795925D01*
X121168800Y-136795925D01*
X121168795Y-136795923D01*
X121168791Y-136795922D01*
X120907358Y-136715279D01*
X120884715Y-136711866D01*
X120636802Y-136674500D01*
X120363198Y-136674500D01*
X120161490Y-136704901D01*
X120092641Y-136715279D01*
X119831208Y-136795922D01*
X119831194Y-136795927D01*
X119587455Y-136913306D01*
X119584691Y-136914637D01*
X119556747Y-136933689D01*
X119358627Y-137068765D01*
X119158061Y-137254862D01*
X118987472Y-137468776D01*
X118850668Y-137705725D01*
X118750708Y-137960419D01*
X118689828Y-138227159D01*
X118669381Y-138499998D01*
X114450500Y-138499998D01*
X114450500Y-129499998D01*
X118669381Y-129499998D01*
X118669381Y-129500001D01*
X118689828Y-129772840D01*
X118750708Y-130039580D01*
X118750710Y-130039584D01*
X118850669Y-130294276D01*
X118987472Y-130531224D01*
X119158061Y-130745137D01*
X119358628Y-130931236D01*
X119584691Y-131085363D01*
X119831200Y-131204075D01*
X119961924Y-131244398D01*
X120092641Y-131284720D01*
X120092643Y-131284720D01*
X120092649Y-131284722D01*
X120363198Y-131325500D01*
X120363202Y-131325500D01*
X120636798Y-131325500D01*
X120636802Y-131325500D01*
X120907351Y-131284722D01*
X120907356Y-131284720D01*
X120907358Y-131284720D01*
X120951861Y-131270992D01*
X121168800Y-131204075D01*
X121415310Y-131085363D01*
X121641372Y-130931236D01*
X121841939Y-130745137D01*
X122012528Y-130531224D01*
X122149331Y-130294276D01*
X122249290Y-130039584D01*
X122310172Y-129772840D01*
X122330619Y-129500000D01*
X122310172Y-129227160D01*
X122249290Y-128960416D01*
X122149331Y-128705724D01*
X122012528Y-128468776D01*
X121841939Y-128254863D01*
X121641372Y-128068764D01*
X121415310Y-127914637D01*
X121286727Y-127852715D01*
X121168805Y-127795927D01*
X121168801Y-127795925D01*
X121168800Y-127795925D01*
X121168795Y-127795923D01*
X121168791Y-127795922D01*
X120907358Y-127715279D01*
X120884715Y-127711866D01*
X120636802Y-127674500D01*
X120363198Y-127674500D01*
X120161490Y-127704901D01*
X120092641Y-127715279D01*
X119831208Y-127795922D01*
X119831194Y-127795927D01*
X119587455Y-127913306D01*
X119584691Y-127914637D01*
X119556747Y-127933689D01*
X119358627Y-128068765D01*
X119158061Y-128254862D01*
X118987472Y-128468776D01*
X118850668Y-128705725D01*
X118750708Y-128960419D01*
X118689828Y-129227159D01*
X118669381Y-129499998D01*
X114450500Y-129499998D01*
X114450500Y-119499998D01*
X118169381Y-119499998D01*
X118169381Y-119500001D01*
X118189828Y-119772840D01*
X118250708Y-120039580D01*
X118250710Y-120039584D01*
X118350669Y-120294276D01*
X118487472Y-120531224D01*
X118658061Y-120745137D01*
X118858628Y-120931236D01*
X119084691Y-121085363D01*
X119331200Y-121204075D01*
X119461924Y-121244398D01*
X119592641Y-121284720D01*
X119592643Y-121284720D01*
X119592649Y-121284722D01*
X119863198Y-121325500D01*
X119863202Y-121325500D01*
X120136798Y-121325500D01*
X120136802Y-121325500D01*
X120407351Y-121284722D01*
X120407356Y-121284720D01*
X120407358Y-121284720D01*
X120451861Y-121270992D01*
X120668800Y-121204075D01*
X120915310Y-121085363D01*
X121141372Y-120931236D01*
X121341939Y-120745137D01*
X121512528Y-120531224D01*
X121649331Y-120294276D01*
X121749290Y-120039584D01*
X121810172Y-119772840D01*
X121830619Y-119500000D01*
X121810172Y-119227160D01*
X121749290Y-118960416D01*
X121649331Y-118705724D01*
X121512528Y-118468776D01*
X121341939Y-118254863D01*
X121141372Y-118068764D01*
X120915310Y-117914637D01*
X120786727Y-117852715D01*
X120668805Y-117795927D01*
X120668801Y-117795925D01*
X120668800Y-117795925D01*
X120668795Y-117795923D01*
X120668791Y-117795922D01*
X120407358Y-117715279D01*
X120378145Y-117710876D01*
X120136802Y-117674500D01*
X119863198Y-117674500D01*
X119661490Y-117704901D01*
X119592641Y-117715279D01*
X119331208Y-117795922D01*
X119331194Y-117795927D01*
X119087455Y-117913306D01*
X119084691Y-117914637D01*
X119056747Y-117933689D01*
X118858627Y-118068765D01*
X118658061Y-118254862D01*
X118487472Y-118468776D01*
X118350668Y-118705725D01*
X118250708Y-118960419D01*
X118189828Y-119227159D01*
X118169381Y-119499998D01*
X114450500Y-119499998D01*
X114450500Y-109434106D01*
X114450499Y-109434105D01*
X114416393Y-109306818D01*
X114416392Y-109306814D01*
X114350500Y-109192686D01*
X114257314Y-109099500D01*
X114143190Y-109033610D01*
X114143181Y-109033606D01*
X114015894Y-108999500D01*
X114015892Y-108999500D01*
X100565892Y-108999500D01*
X100434108Y-108999500D01*
X100434106Y-108999500D01*
X100306818Y-109033606D01*
X100306809Y-109033610D01*
X100192685Y-109099500D01*
X100099500Y-109192685D01*
X100033610Y-109306809D01*
X100033606Y-109306818D01*
X99999500Y-109434105D01*
X96451340Y-109434105D01*
X96434888Y-109141146D01*
X96434886Y-109141134D01*
X96374686Y-108786815D01*
X96275184Y-108441439D01*
X96137647Y-108109392D01*
X96137636Y-108109371D01*
X95963793Y-107794826D01*
X95963789Y-107794819D01*
X95755796Y-107501681D01*
X95649786Y-107383056D01*
X95649786Y-107383055D01*
X94514495Y-108518345D01*
X94470412Y-108457670D01*
X94292330Y-108279588D01*
X94231652Y-108235502D01*
X95366942Y-107100213D01*
X95248313Y-106994199D01*
X94955180Y-106786210D01*
X94955173Y-106786206D01*
X94640628Y-106612363D01*
X94640607Y-106612352D01*
X94308560Y-106474815D01*
X93963183Y-106375313D01*
X93963185Y-106375313D01*
X93608865Y-106315113D01*
X93608853Y-106315111D01*
X93250000Y-106294958D01*
X92891146Y-106315111D01*
X92891134Y-106315113D01*
X92536815Y-106375313D01*
X92191439Y-106474815D01*
X91859392Y-106612352D01*
X91859371Y-106612363D01*
X91544826Y-106786206D01*
X91544819Y-106786210D01*
X91251686Y-106994199D01*
X91133055Y-107100212D01*
X92268346Y-108235503D01*
X92207670Y-108279588D01*
X92029588Y-108457670D01*
X91985503Y-108518346D01*
X90850212Y-107383055D01*
X90744199Y-107501686D01*
X90536210Y-107794819D01*
X90536206Y-107794826D01*
X90362363Y-108109371D01*
X90362352Y-108109392D01*
X90224815Y-108441439D01*
X90125313Y-108786815D01*
X90065113Y-109141134D01*
X90065111Y-109141146D01*
X90044958Y-109500000D01*
X89500500Y-109500000D01*
X89500500Y-105324500D01*
X89522174Y-105272174D01*
X89574500Y-105250500D01*
X128066058Y-105250500D01*
X128066058Y-105250499D01*
X128193350Y-105216392D01*
X128307478Y-105150500D01*
X128400664Y-105057314D01*
X128466556Y-104943186D01*
X128500663Y-104815894D01*
X128500664Y-104815894D01*
X128500664Y-104680523D01*
X128500500Y-104678016D01*
X128500500Y-102710000D01*
X129154417Y-102710000D01*
X129174700Y-102915934D01*
X129234768Y-103113954D01*
X129332315Y-103296450D01*
X129463590Y-103456410D01*
X129623550Y-103587685D01*
X129806046Y-103685232D01*
X130004066Y-103745300D01*
X130210000Y-103765583D01*
X130415934Y-103745300D01*
X130613954Y-103685232D01*
X130796450Y-103587685D01*
X130956410Y-103456410D01*
X131087685Y-103296450D01*
X131185232Y-103113954D01*
X131245300Y-102915934D01*
X131265583Y-102710000D01*
X131694417Y-102710000D01*
X131714700Y-102915934D01*
X131774768Y-103113954D01*
X131872315Y-103296450D01*
X132003590Y-103456410D01*
X132163550Y-103587685D01*
X132346046Y-103685232D01*
X132544066Y-103745300D01*
X132750000Y-103765583D01*
X132955934Y-103745300D01*
X133153954Y-103685232D01*
X133336450Y-103587685D01*
X133496410Y-103456410D01*
X133627685Y-103296450D01*
X133725232Y-103113954D01*
X133785300Y-102915934D01*
X133805583Y-102710000D01*
X134234417Y-102710000D01*
X134254700Y-102915934D01*
X134314768Y-103113954D01*
X134412315Y-103296450D01*
X134543590Y-103456410D01*
X134703550Y-103587685D01*
X134886046Y-103685232D01*
X135084066Y-103745300D01*
X135290000Y-103765583D01*
X135495934Y-103745300D01*
X135693954Y-103685232D01*
X135876450Y-103587685D01*
X136036410Y-103456410D01*
X136167685Y-103296450D01*
X136265232Y-103113954D01*
X136325300Y-102915934D01*
X136345583Y-102710000D01*
X136774417Y-102710000D01*
X136794700Y-102915934D01*
X136854768Y-103113954D01*
X136952315Y-103296450D01*
X137083590Y-103456410D01*
X137243550Y-103587685D01*
X137426046Y-103685232D01*
X137624066Y-103745300D01*
X137830000Y-103765583D01*
X138035934Y-103745300D01*
X138233954Y-103685232D01*
X138416450Y-103587685D01*
X138576410Y-103456410D01*
X138707685Y-103296450D01*
X138805232Y-103113954D01*
X138865300Y-102915934D01*
X138885583Y-102710000D01*
X139314417Y-102710000D01*
X139334700Y-102915934D01*
X139394768Y-103113954D01*
X139492315Y-103296450D01*
X139623590Y-103456410D01*
X139783550Y-103587685D01*
X139966046Y-103685232D01*
X140164066Y-103745300D01*
X140370000Y-103765583D01*
X140575934Y-103745300D01*
X140773954Y-103685232D01*
X140956450Y-103587685D01*
X141116410Y-103456410D01*
X141247685Y-103296450D01*
X141345232Y-103113954D01*
X141405300Y-102915934D01*
X141425583Y-102710000D01*
X141854417Y-102710000D01*
X141874700Y-102915934D01*
X141934768Y-103113954D01*
X142032315Y-103296450D01*
X142163590Y-103456410D01*
X142323550Y-103587685D01*
X142506046Y-103685232D01*
X142704066Y-103745300D01*
X142910000Y-103765583D01*
X143115934Y-103745300D01*
X143313954Y-103685232D01*
X143496450Y-103587685D01*
X143656410Y-103456410D01*
X143787685Y-103296450D01*
X143885232Y-103113954D01*
X143945300Y-102915934D01*
X143965583Y-102710000D01*
X144394417Y-102710000D01*
X144414700Y-102915934D01*
X144474768Y-103113954D01*
X144572315Y-103296450D01*
X144703590Y-103456410D01*
X144863550Y-103587685D01*
X145046046Y-103685232D01*
X145244066Y-103745300D01*
X145450000Y-103765583D01*
X145655934Y-103745300D01*
X145853954Y-103685232D01*
X146036450Y-103587685D01*
X146196410Y-103456410D01*
X146327685Y-103296450D01*
X146425232Y-103113954D01*
X146485300Y-102915934D01*
X146505583Y-102710000D01*
X146934417Y-102710000D01*
X146954700Y-102915934D01*
X147014768Y-103113954D01*
X147112315Y-103296450D01*
X147243590Y-103456410D01*
X147403550Y-103587685D01*
X147586046Y-103685232D01*
X147784066Y-103745300D01*
X147990000Y-103765583D01*
X148195934Y-103745300D01*
X148393954Y-103685232D01*
X148576450Y-103587685D01*
X148736410Y-103456410D01*
X148867685Y-103296450D01*
X148965232Y-103113954D01*
X149025300Y-102915934D01*
X149045583Y-102710000D01*
X149474417Y-102710000D01*
X149494700Y-102915934D01*
X149554768Y-103113954D01*
X149652315Y-103296450D01*
X149783590Y-103456410D01*
X149943550Y-103587685D01*
X150126046Y-103685232D01*
X150324066Y-103745300D01*
X150530000Y-103765583D01*
X150735934Y-103745300D01*
X150933954Y-103685232D01*
X151116450Y-103587685D01*
X151276410Y-103456410D01*
X151407685Y-103296450D01*
X151505232Y-103113954D01*
X151565300Y-102915934D01*
X151585583Y-102710000D01*
X152014417Y-102710000D01*
X152034700Y-102915934D01*
X152094768Y-103113954D01*
X152192315Y-103296450D01*
X152323590Y-103456410D01*
X152483550Y-103587685D01*
X152666046Y-103685232D01*
X152864066Y-103745300D01*
X153070000Y-103765583D01*
X153275934Y-103745300D01*
X153473954Y-103685232D01*
X153656450Y-103587685D01*
X153816410Y-103456410D01*
X153947685Y-103296450D01*
X154045232Y-103113954D01*
X154105300Y-102915934D01*
X154125583Y-102710000D01*
X154554417Y-102710000D01*
X154574700Y-102915934D01*
X154634768Y-103113954D01*
X154732315Y-103296450D01*
X154863590Y-103456410D01*
X155023550Y-103587685D01*
X155206046Y-103685232D01*
X155404066Y-103745300D01*
X155610000Y-103765583D01*
X155815934Y-103745300D01*
X156013954Y-103685232D01*
X156196450Y-103587685D01*
X156356410Y-103456410D01*
X156487685Y-103296450D01*
X156585232Y-103113954D01*
X156645300Y-102915934D01*
X156665583Y-102710000D01*
X157094417Y-102710000D01*
X157114700Y-102915934D01*
X157174768Y-103113954D01*
X157272315Y-103296450D01*
X157403590Y-103456410D01*
X157563550Y-103587685D01*
X157746046Y-103685232D01*
X157944066Y-103745300D01*
X158150000Y-103765583D01*
X158355934Y-103745300D01*
X158553954Y-103685232D01*
X158736450Y-103587685D01*
X158896410Y-103456410D01*
X159027685Y-103296450D01*
X159125232Y-103113954D01*
X159185300Y-102915934D01*
X159205583Y-102710000D01*
X159185300Y-102504066D01*
X159125232Y-102306046D01*
X159027685Y-102123550D01*
X158896410Y-101963590D01*
X158736450Y-101832315D01*
X158553954Y-101734768D01*
X158442158Y-101700855D01*
X158355935Y-101674700D01*
X158150000Y-101654417D01*
X157944064Y-101674700D01*
X157746043Y-101734769D01*
X157563549Y-101832315D01*
X157403590Y-101963589D01*
X157403589Y-101963590D01*
X157272315Y-102123549D01*
X157174769Y-102306043D01*
X157114700Y-102504064D01*
X157114700Y-102504066D01*
X157094417Y-102710000D01*
X156665583Y-102710000D01*
X156645300Y-102504066D01*
X156585232Y-102306046D01*
X156487685Y-102123550D01*
X156356410Y-101963590D01*
X156196450Y-101832315D01*
X156013954Y-101734768D01*
X155902158Y-101700855D01*
X155815935Y-101674700D01*
X155610000Y-101654417D01*
X155404064Y-101674700D01*
X155206043Y-101734769D01*
X155023549Y-101832315D01*
X154863590Y-101963589D01*
X154863589Y-101963590D01*
X154732315Y-102123549D01*
X154634769Y-102306043D01*
X154574700Y-102504064D01*
X154574700Y-102504066D01*
X154554417Y-102710000D01*
X154125583Y-102710000D01*
X154105300Y-102504066D01*
X154045232Y-102306046D01*
X153947685Y-102123550D01*
X153816410Y-101963590D01*
X153656450Y-101832315D01*
X153473954Y-101734768D01*
X153362158Y-101700855D01*
X153275935Y-101674700D01*
X153070000Y-101654417D01*
X152864064Y-101674700D01*
X152666043Y-101734769D01*
X152483549Y-101832315D01*
X152323590Y-101963589D01*
X152323589Y-101963590D01*
X152192315Y-102123549D01*
X152094769Y-102306043D01*
X152034700Y-102504064D01*
X152034700Y-102504066D01*
X152014417Y-102710000D01*
X151585583Y-102710000D01*
X151565300Y-102504066D01*
X151505232Y-102306046D01*
X151407685Y-102123550D01*
X151276410Y-101963590D01*
X151116450Y-101832315D01*
X150933954Y-101734768D01*
X150822158Y-101700855D01*
X150735935Y-101674700D01*
X150530000Y-101654417D01*
X150324064Y-101674700D01*
X150126043Y-101734769D01*
X149943549Y-101832315D01*
X149783590Y-101963589D01*
X149783589Y-101963590D01*
X149652315Y-102123549D01*
X149554769Y-102306043D01*
X149494700Y-102504064D01*
X149494700Y-102504066D01*
X149474417Y-102710000D01*
X149045583Y-102710000D01*
X149025300Y-102504066D01*
X148965232Y-102306046D01*
X148867685Y-102123550D01*
X148736410Y-101963590D01*
X148576450Y-101832315D01*
X148393954Y-101734768D01*
X148282158Y-101700855D01*
X148195935Y-101674700D01*
X147990000Y-101654417D01*
X147784064Y-101674700D01*
X147586043Y-101734769D01*
X147403549Y-101832315D01*
X147243590Y-101963589D01*
X147243589Y-101963590D01*
X147112315Y-102123549D01*
X147014769Y-102306043D01*
X146954700Y-102504064D01*
X146954700Y-102504066D01*
X146934417Y-102710000D01*
X146505583Y-102710000D01*
X146485300Y-102504066D01*
X146425232Y-102306046D01*
X146327685Y-102123550D01*
X146196410Y-101963590D01*
X146036450Y-101832315D01*
X145853954Y-101734768D01*
X145742158Y-101700855D01*
X145655935Y-101674700D01*
X145450000Y-101654417D01*
X145244064Y-101674700D01*
X145046043Y-101734769D01*
X144863549Y-101832315D01*
X144703590Y-101963589D01*
X144703589Y-101963590D01*
X144572315Y-102123549D01*
X144474769Y-102306043D01*
X144414700Y-102504064D01*
X144414700Y-102504066D01*
X144394417Y-102710000D01*
X143965583Y-102710000D01*
X143945300Y-102504066D01*
X143885232Y-102306046D01*
X143787685Y-102123550D01*
X143656410Y-101963590D01*
X143496450Y-101832315D01*
X143313954Y-101734768D01*
X143202158Y-101700855D01*
X143115935Y-101674700D01*
X142910000Y-101654417D01*
X142704064Y-101674700D01*
X142506043Y-101734769D01*
X142323549Y-101832315D01*
X142163590Y-101963589D01*
X142163589Y-101963590D01*
X142032315Y-102123549D01*
X141934769Y-102306043D01*
X141874700Y-102504064D01*
X141874700Y-102504066D01*
X141854417Y-102710000D01*
X141425583Y-102710000D01*
X141405300Y-102504066D01*
X141345232Y-102306046D01*
X141247685Y-102123550D01*
X141116410Y-101963590D01*
X140956450Y-101832315D01*
X140773954Y-101734768D01*
X140662158Y-101700855D01*
X140575935Y-101674700D01*
X140370000Y-101654417D01*
X140164064Y-101674700D01*
X139966043Y-101734769D01*
X139783549Y-101832315D01*
X139623590Y-101963589D01*
X139623589Y-101963590D01*
X139492315Y-102123549D01*
X139394769Y-102306043D01*
X139334700Y-102504064D01*
X139334700Y-102504066D01*
X139314417Y-102710000D01*
X138885583Y-102710000D01*
X138865300Y-102504066D01*
X138805232Y-102306046D01*
X138707685Y-102123550D01*
X138576410Y-101963590D01*
X138416450Y-101832315D01*
X138233954Y-101734768D01*
X138122158Y-101700855D01*
X138035935Y-101674700D01*
X137830000Y-101654417D01*
X137624064Y-101674700D01*
X137426043Y-101734769D01*
X137243549Y-101832315D01*
X137083590Y-101963589D01*
X137083589Y-101963590D01*
X136952315Y-102123549D01*
X136854769Y-102306043D01*
X136794700Y-102504064D01*
X136794700Y-102504066D01*
X136774417Y-102710000D01*
X136345583Y-102710000D01*
X136325300Y-102504066D01*
X136265232Y-102306046D01*
X136167685Y-102123550D01*
X136036410Y-101963590D01*
X135876450Y-101832315D01*
X135693954Y-101734768D01*
X135582158Y-101700855D01*
X135495935Y-101674700D01*
X135290000Y-101654417D01*
X135084064Y-101674700D01*
X134886043Y-101734769D01*
X134703549Y-101832315D01*
X134543590Y-101963589D01*
X134543589Y-101963590D01*
X134412315Y-102123549D01*
X134314769Y-102306043D01*
X134254700Y-102504064D01*
X134254700Y-102504066D01*
X134234417Y-102710000D01*
X133805583Y-102710000D01*
X133785300Y-102504066D01*
X133725232Y-102306046D01*
X133627685Y-102123550D01*
X133496410Y-101963590D01*
X133336450Y-101832315D01*
X133153954Y-101734768D01*
X133042158Y-101700855D01*
X132955935Y-101674700D01*
X132750000Y-101654417D01*
X132544064Y-101674700D01*
X132346043Y-101734769D01*
X132163549Y-101832315D01*
X132003590Y-101963589D01*
X132003589Y-101963590D01*
X131872315Y-102123549D01*
X131774769Y-102306043D01*
X131714700Y-102504064D01*
X131714700Y-102504066D01*
X131694417Y-102710000D01*
X131265583Y-102710000D01*
X131245300Y-102504066D01*
X131185232Y-102306046D01*
X131087685Y-102123550D01*
X130956410Y-101963590D01*
X130796450Y-101832315D01*
X130613954Y-101734768D01*
X130502158Y-101700855D01*
X130415935Y-101674700D01*
X130210000Y-101654417D01*
X130004064Y-101674700D01*
X129806043Y-101734769D01*
X129623549Y-101832315D01*
X129463590Y-101963589D01*
X129463589Y-101963590D01*
X129332315Y-102123549D01*
X129234769Y-102306043D01*
X129174700Y-102504064D01*
X129174700Y-102504066D01*
X129154417Y-102710000D01*
X128500500Y-102710000D01*
X128500500Y-92324500D01*
X128522174Y-92272174D01*
X128574500Y-92250500D01*
X159675500Y-92250500D01*
X159727826Y-92272174D01*
G37*
%TD.AperFunction*%
%TD*%
M02*
