%TF.GenerationSoftware,KiCad,Pcbnew,8.0.1*%
%TF.CreationDate,2024-05-16T13:38:10-04:00*%
%TF.ProjectId,LowerPOGO,4c6f7765-7250-44f4-974f-2e6b69636164,rev?*%
%TF.SameCoordinates,Original*%
%TF.FileFunction,Legend,Bot*%
%TF.FilePolarity,Positive*%
%FSLAX46Y46*%
G04 Gerber Fmt 4.6, Leading zero omitted, Abs format (unit mm)*
G04 Created by KiCad (PCBNEW 8.0.1) date 2024-05-16 13:38:10*
%MOMM*%
%LPD*%
G01*
G04 APERTURE LIST*
%ADD10C,0.150000*%
G04 APERTURE END LIST*
D10*
X152687030Y-96759875D02*
X153163220Y-96759875D01*
X153163220Y-96759875D02*
X153163220Y-95759875D01*
X152210839Y-96759875D02*
X152306077Y-96712256D01*
X152306077Y-96712256D02*
X152353696Y-96664636D01*
X152353696Y-96664636D02*
X152401315Y-96569398D01*
X152401315Y-96569398D02*
X152401315Y-96283684D01*
X152401315Y-96283684D02*
X152353696Y-96188446D01*
X152353696Y-96188446D02*
X152306077Y-96140827D01*
X152306077Y-96140827D02*
X152210839Y-96093208D01*
X152210839Y-96093208D02*
X152067982Y-96093208D01*
X152067982Y-96093208D02*
X151972744Y-96140827D01*
X151972744Y-96140827D02*
X151925125Y-96188446D01*
X151925125Y-96188446D02*
X151877506Y-96283684D01*
X151877506Y-96283684D02*
X151877506Y-96569398D01*
X151877506Y-96569398D02*
X151925125Y-96664636D01*
X151925125Y-96664636D02*
X151972744Y-96712256D01*
X151972744Y-96712256D02*
X152067982Y-96759875D01*
X152067982Y-96759875D02*
X152210839Y-96759875D01*
X151544172Y-96093208D02*
X151353696Y-96759875D01*
X151353696Y-96759875D02*
X151163220Y-96283684D01*
X151163220Y-96283684D02*
X150972744Y-96759875D01*
X150972744Y-96759875D02*
X150782268Y-96093208D01*
X150020363Y-96712256D02*
X150115601Y-96759875D01*
X150115601Y-96759875D02*
X150306077Y-96759875D01*
X150306077Y-96759875D02*
X150401315Y-96712256D01*
X150401315Y-96712256D02*
X150448934Y-96617017D01*
X150448934Y-96617017D02*
X150448934Y-96236065D01*
X150448934Y-96236065D02*
X150401315Y-96140827D01*
X150401315Y-96140827D02*
X150306077Y-96093208D01*
X150306077Y-96093208D02*
X150115601Y-96093208D01*
X150115601Y-96093208D02*
X150020363Y-96140827D01*
X150020363Y-96140827D02*
X149972744Y-96236065D01*
X149972744Y-96236065D02*
X149972744Y-96331303D01*
X149972744Y-96331303D02*
X150448934Y-96426541D01*
X149544172Y-96759875D02*
X149544172Y-96093208D01*
X149544172Y-96283684D02*
X149496553Y-96188446D01*
X149496553Y-96188446D02*
X149448934Y-96140827D01*
X149448934Y-96140827D02*
X149353696Y-96093208D01*
X149353696Y-96093208D02*
X149258458Y-96093208D01*
X148163219Y-96759875D02*
X148163219Y-95759875D01*
X148163219Y-95759875D02*
X147782267Y-95759875D01*
X147782267Y-95759875D02*
X147687029Y-95807494D01*
X147687029Y-95807494D02*
X147639410Y-95855113D01*
X147639410Y-95855113D02*
X147591791Y-95950351D01*
X147591791Y-95950351D02*
X147591791Y-96093208D01*
X147591791Y-96093208D02*
X147639410Y-96188446D01*
X147639410Y-96188446D02*
X147687029Y-96236065D01*
X147687029Y-96236065D02*
X147782267Y-96283684D01*
X147782267Y-96283684D02*
X148163219Y-96283684D01*
X146972743Y-95759875D02*
X146782267Y-95759875D01*
X146782267Y-95759875D02*
X146687029Y-95807494D01*
X146687029Y-95807494D02*
X146591791Y-95902732D01*
X146591791Y-95902732D02*
X146544172Y-96093208D01*
X146544172Y-96093208D02*
X146544172Y-96426541D01*
X146544172Y-96426541D02*
X146591791Y-96617017D01*
X146591791Y-96617017D02*
X146687029Y-96712256D01*
X146687029Y-96712256D02*
X146782267Y-96759875D01*
X146782267Y-96759875D02*
X146972743Y-96759875D01*
X146972743Y-96759875D02*
X147067981Y-96712256D01*
X147067981Y-96712256D02*
X147163219Y-96617017D01*
X147163219Y-96617017D02*
X147210838Y-96426541D01*
X147210838Y-96426541D02*
X147210838Y-96093208D01*
X147210838Y-96093208D02*
X147163219Y-95902732D01*
X147163219Y-95902732D02*
X147067981Y-95807494D01*
X147067981Y-95807494D02*
X146972743Y-95759875D01*
X145591791Y-95807494D02*
X145687029Y-95759875D01*
X145687029Y-95759875D02*
X145829886Y-95759875D01*
X145829886Y-95759875D02*
X145972743Y-95807494D01*
X145972743Y-95807494D02*
X146067981Y-95902732D01*
X146067981Y-95902732D02*
X146115600Y-95997970D01*
X146115600Y-95997970D02*
X146163219Y-96188446D01*
X146163219Y-96188446D02*
X146163219Y-96331303D01*
X146163219Y-96331303D02*
X146115600Y-96521779D01*
X146115600Y-96521779D02*
X146067981Y-96617017D01*
X146067981Y-96617017D02*
X145972743Y-96712256D01*
X145972743Y-96712256D02*
X145829886Y-96759875D01*
X145829886Y-96759875D02*
X145734648Y-96759875D01*
X145734648Y-96759875D02*
X145591791Y-96712256D01*
X145591791Y-96712256D02*
X145544172Y-96664636D01*
X145544172Y-96664636D02*
X145544172Y-96331303D01*
X145544172Y-96331303D02*
X145734648Y-96331303D01*
X144925124Y-95759875D02*
X144734648Y-95759875D01*
X144734648Y-95759875D02*
X144639410Y-95807494D01*
X144639410Y-95807494D02*
X144544172Y-95902732D01*
X144544172Y-95902732D02*
X144496553Y-96093208D01*
X144496553Y-96093208D02*
X144496553Y-96426541D01*
X144496553Y-96426541D02*
X144544172Y-96617017D01*
X144544172Y-96617017D02*
X144639410Y-96712256D01*
X144639410Y-96712256D02*
X144734648Y-96759875D01*
X144734648Y-96759875D02*
X144925124Y-96759875D01*
X144925124Y-96759875D02*
X145020362Y-96712256D01*
X145020362Y-96712256D02*
X145115600Y-96617017D01*
X145115600Y-96617017D02*
X145163219Y-96426541D01*
X145163219Y-96426541D02*
X145163219Y-96093208D01*
X145163219Y-96093208D02*
X145115600Y-95902732D01*
X145115600Y-95902732D02*
X145020362Y-95807494D01*
X145020362Y-95807494D02*
X144925124Y-95759875D01*
X143306076Y-96759875D02*
X143306076Y-95759875D01*
X143306076Y-95759875D02*
X143067981Y-95759875D01*
X143067981Y-95759875D02*
X142925124Y-95807494D01*
X142925124Y-95807494D02*
X142829886Y-95902732D01*
X142829886Y-95902732D02*
X142782267Y-95997970D01*
X142782267Y-95997970D02*
X142734648Y-96188446D01*
X142734648Y-96188446D02*
X142734648Y-96331303D01*
X142734648Y-96331303D02*
X142782267Y-96521779D01*
X142782267Y-96521779D02*
X142829886Y-96617017D01*
X142829886Y-96617017D02*
X142925124Y-96712256D01*
X142925124Y-96712256D02*
X143067981Y-96759875D01*
X143067981Y-96759875D02*
X143306076Y-96759875D01*
X141925124Y-96712256D02*
X142020362Y-96759875D01*
X142020362Y-96759875D02*
X142210838Y-96759875D01*
X142210838Y-96759875D02*
X142306076Y-96712256D01*
X142306076Y-96712256D02*
X142353695Y-96617017D01*
X142353695Y-96617017D02*
X142353695Y-96236065D01*
X142353695Y-96236065D02*
X142306076Y-96140827D01*
X142306076Y-96140827D02*
X142210838Y-96093208D01*
X142210838Y-96093208D02*
X142020362Y-96093208D01*
X142020362Y-96093208D02*
X141925124Y-96140827D01*
X141925124Y-96140827D02*
X141877505Y-96236065D01*
X141877505Y-96236065D02*
X141877505Y-96331303D01*
X141877505Y-96331303D02*
X142353695Y-96426541D01*
X141496552Y-96712256D02*
X141401314Y-96759875D01*
X141401314Y-96759875D02*
X141210838Y-96759875D01*
X141210838Y-96759875D02*
X141115600Y-96712256D01*
X141115600Y-96712256D02*
X141067981Y-96617017D01*
X141067981Y-96617017D02*
X141067981Y-96569398D01*
X141067981Y-96569398D02*
X141115600Y-96474160D01*
X141115600Y-96474160D02*
X141210838Y-96426541D01*
X141210838Y-96426541D02*
X141353695Y-96426541D01*
X141353695Y-96426541D02*
X141448933Y-96378922D01*
X141448933Y-96378922D02*
X141496552Y-96283684D01*
X141496552Y-96283684D02*
X141496552Y-96236065D01*
X141496552Y-96236065D02*
X141448933Y-96140827D01*
X141448933Y-96140827D02*
X141353695Y-96093208D01*
X141353695Y-96093208D02*
X141210838Y-96093208D01*
X141210838Y-96093208D02*
X141115600Y-96140827D01*
X140639409Y-96759875D02*
X140639409Y-96093208D01*
X140639409Y-95759875D02*
X140687028Y-95807494D01*
X140687028Y-95807494D02*
X140639409Y-95855113D01*
X140639409Y-95855113D02*
X140591790Y-95807494D01*
X140591790Y-95807494D02*
X140639409Y-95759875D01*
X140639409Y-95759875D02*
X140639409Y-95855113D01*
X139734648Y-96093208D02*
X139734648Y-96902732D01*
X139734648Y-96902732D02*
X139782267Y-96997970D01*
X139782267Y-96997970D02*
X139829886Y-97045589D01*
X139829886Y-97045589D02*
X139925124Y-97093208D01*
X139925124Y-97093208D02*
X140067981Y-97093208D01*
X140067981Y-97093208D02*
X140163219Y-97045589D01*
X139734648Y-96712256D02*
X139829886Y-96759875D01*
X139829886Y-96759875D02*
X140020362Y-96759875D01*
X140020362Y-96759875D02*
X140115600Y-96712256D01*
X140115600Y-96712256D02*
X140163219Y-96664636D01*
X140163219Y-96664636D02*
X140210838Y-96569398D01*
X140210838Y-96569398D02*
X140210838Y-96283684D01*
X140210838Y-96283684D02*
X140163219Y-96188446D01*
X140163219Y-96188446D02*
X140115600Y-96140827D01*
X140115600Y-96140827D02*
X140020362Y-96093208D01*
X140020362Y-96093208D02*
X139829886Y-96093208D01*
X139829886Y-96093208D02*
X139734648Y-96140827D01*
X139258457Y-96093208D02*
X139258457Y-96759875D01*
X139258457Y-96188446D02*
X139210838Y-96140827D01*
X139210838Y-96140827D02*
X139115600Y-96093208D01*
X139115600Y-96093208D02*
X138972743Y-96093208D01*
X138972743Y-96093208D02*
X138877505Y-96140827D01*
X138877505Y-96140827D02*
X138829886Y-96236065D01*
X138829886Y-96236065D02*
X138829886Y-96759875D01*
X137687028Y-96093208D02*
X137448933Y-96759875D01*
X137448933Y-96759875D02*
X137210838Y-96093208D01*
X136925123Y-95759875D02*
X136306076Y-95759875D01*
X136306076Y-95759875D02*
X136639409Y-96140827D01*
X136639409Y-96140827D02*
X136496552Y-96140827D01*
X136496552Y-96140827D02*
X136401314Y-96188446D01*
X136401314Y-96188446D02*
X136353695Y-96236065D01*
X136353695Y-96236065D02*
X136306076Y-96331303D01*
X136306076Y-96331303D02*
X136306076Y-96569398D01*
X136306076Y-96569398D02*
X136353695Y-96664636D01*
X136353695Y-96664636D02*
X136401314Y-96712256D01*
X136401314Y-96712256D02*
X136496552Y-96759875D01*
X136496552Y-96759875D02*
X136782266Y-96759875D01*
X136782266Y-96759875D02*
X136877504Y-96712256D01*
X136877504Y-96712256D02*
X136925123Y-96664636D01*
X152496554Y-98465057D02*
X152591792Y-98417438D01*
X152591792Y-98417438D02*
X152687030Y-98322200D01*
X152687030Y-98322200D02*
X152829887Y-98179342D01*
X152829887Y-98179342D02*
X152925125Y-98131723D01*
X152925125Y-98131723D02*
X153020363Y-98131723D01*
X152972744Y-98369819D02*
X153067982Y-98322200D01*
X153067982Y-98322200D02*
X153163220Y-98226961D01*
X153163220Y-98226961D02*
X153210839Y-98036485D01*
X153210839Y-98036485D02*
X153210839Y-97703152D01*
X153210839Y-97703152D02*
X153163220Y-97512676D01*
X153163220Y-97512676D02*
X153067982Y-97417438D01*
X153067982Y-97417438D02*
X152972744Y-97369819D01*
X152972744Y-97369819D02*
X152782268Y-97369819D01*
X152782268Y-97369819D02*
X152687030Y-97417438D01*
X152687030Y-97417438D02*
X152591792Y-97512676D01*
X152591792Y-97512676D02*
X152544173Y-97703152D01*
X152544173Y-97703152D02*
X152544173Y-98036485D01*
X152544173Y-98036485D02*
X152591792Y-98226961D01*
X152591792Y-98226961D02*
X152687030Y-98322200D01*
X152687030Y-98322200D02*
X152782268Y-98369819D01*
X152782268Y-98369819D02*
X152972744Y-98369819D01*
X152163220Y-98084104D02*
X151687030Y-98084104D01*
X152258458Y-98369819D02*
X151925125Y-97369819D01*
X151925125Y-97369819D02*
X151591792Y-98369819D01*
X151401315Y-97369819D02*
X150829887Y-97369819D01*
X151115601Y-98369819D02*
X151115601Y-97369819D01*
X149925125Y-98274580D02*
X149972744Y-98322200D01*
X149972744Y-98322200D02*
X150115601Y-98369819D01*
X150115601Y-98369819D02*
X150210839Y-98369819D01*
X150210839Y-98369819D02*
X150353696Y-98322200D01*
X150353696Y-98322200D02*
X150448934Y-98226961D01*
X150448934Y-98226961D02*
X150496553Y-98131723D01*
X150496553Y-98131723D02*
X150544172Y-97941247D01*
X150544172Y-97941247D02*
X150544172Y-97798390D01*
X150544172Y-97798390D02*
X150496553Y-97607914D01*
X150496553Y-97607914D02*
X150448934Y-97512676D01*
X150448934Y-97512676D02*
X150353696Y-97417438D01*
X150353696Y-97417438D02*
X150210839Y-97369819D01*
X150210839Y-97369819D02*
X150115601Y-97369819D01*
X150115601Y-97369819D02*
X149972744Y-97417438D01*
X149972744Y-97417438D02*
X149925125Y-97465057D01*
X149496553Y-98369819D02*
X149496553Y-97369819D01*
X149496553Y-97846009D02*
X148925125Y-97846009D01*
X148925125Y-98369819D02*
X148925125Y-97369819D01*
X147829886Y-97369819D02*
X147258458Y-97369819D01*
X147544172Y-98369819D02*
X147544172Y-97369819D01*
X146544172Y-98322200D02*
X146639410Y-98369819D01*
X146639410Y-98369819D02*
X146829886Y-98369819D01*
X146829886Y-98369819D02*
X146925124Y-98322200D01*
X146925124Y-98322200D02*
X146972743Y-98226961D01*
X146972743Y-98226961D02*
X146972743Y-97846009D01*
X146972743Y-97846009D02*
X146925124Y-97750771D01*
X146925124Y-97750771D02*
X146829886Y-97703152D01*
X146829886Y-97703152D02*
X146639410Y-97703152D01*
X146639410Y-97703152D02*
X146544172Y-97750771D01*
X146544172Y-97750771D02*
X146496553Y-97846009D01*
X146496553Y-97846009D02*
X146496553Y-97941247D01*
X146496553Y-97941247D02*
X146972743Y-98036485D01*
X145639410Y-98322200D02*
X145734648Y-98369819D01*
X145734648Y-98369819D02*
X145925124Y-98369819D01*
X145925124Y-98369819D02*
X146020362Y-98322200D01*
X146020362Y-98322200D02*
X146067981Y-98274580D01*
X146067981Y-98274580D02*
X146115600Y-98179342D01*
X146115600Y-98179342D02*
X146115600Y-97893628D01*
X146115600Y-97893628D02*
X146067981Y-97798390D01*
X146067981Y-97798390D02*
X146020362Y-97750771D01*
X146020362Y-97750771D02*
X145925124Y-97703152D01*
X145925124Y-97703152D02*
X145734648Y-97703152D01*
X145734648Y-97703152D02*
X145639410Y-97750771D01*
X145210838Y-98369819D02*
X145210838Y-97369819D01*
X144782267Y-98369819D02*
X144782267Y-97846009D01*
X144782267Y-97846009D02*
X144829886Y-97750771D01*
X144829886Y-97750771D02*
X144925124Y-97703152D01*
X144925124Y-97703152D02*
X145067981Y-97703152D01*
X145067981Y-97703152D02*
X145163219Y-97750771D01*
X145163219Y-97750771D02*
X145210838Y-97798390D01*
X144306076Y-97703152D02*
X144306076Y-98369819D01*
X144306076Y-97798390D02*
X144258457Y-97750771D01*
X144258457Y-97750771D02*
X144163219Y-97703152D01*
X144163219Y-97703152D02*
X144020362Y-97703152D01*
X144020362Y-97703152D02*
X143925124Y-97750771D01*
X143925124Y-97750771D02*
X143877505Y-97846009D01*
X143877505Y-97846009D02*
X143877505Y-98369819D01*
X143258457Y-98369819D02*
X143353695Y-98322200D01*
X143353695Y-98322200D02*
X143401314Y-98274580D01*
X143401314Y-98274580D02*
X143448933Y-98179342D01*
X143448933Y-98179342D02*
X143448933Y-97893628D01*
X143448933Y-97893628D02*
X143401314Y-97798390D01*
X143401314Y-97798390D02*
X143353695Y-97750771D01*
X143353695Y-97750771D02*
X143258457Y-97703152D01*
X143258457Y-97703152D02*
X143115600Y-97703152D01*
X143115600Y-97703152D02*
X143020362Y-97750771D01*
X143020362Y-97750771D02*
X142972743Y-97798390D01*
X142972743Y-97798390D02*
X142925124Y-97893628D01*
X142925124Y-97893628D02*
X142925124Y-98179342D01*
X142925124Y-98179342D02*
X142972743Y-98274580D01*
X142972743Y-98274580D02*
X143020362Y-98322200D01*
X143020362Y-98322200D02*
X143115600Y-98369819D01*
X143115600Y-98369819D02*
X143258457Y-98369819D01*
X142353695Y-98369819D02*
X142448933Y-98322200D01*
X142448933Y-98322200D02*
X142496552Y-98226961D01*
X142496552Y-98226961D02*
X142496552Y-97369819D01*
X141829885Y-98369819D02*
X141925123Y-98322200D01*
X141925123Y-98322200D02*
X141972742Y-98274580D01*
X141972742Y-98274580D02*
X142020361Y-98179342D01*
X142020361Y-98179342D02*
X142020361Y-97893628D01*
X142020361Y-97893628D02*
X141972742Y-97798390D01*
X141972742Y-97798390D02*
X141925123Y-97750771D01*
X141925123Y-97750771D02*
X141829885Y-97703152D01*
X141829885Y-97703152D02*
X141687028Y-97703152D01*
X141687028Y-97703152D02*
X141591790Y-97750771D01*
X141591790Y-97750771D02*
X141544171Y-97798390D01*
X141544171Y-97798390D02*
X141496552Y-97893628D01*
X141496552Y-97893628D02*
X141496552Y-98179342D01*
X141496552Y-98179342D02*
X141544171Y-98274580D01*
X141544171Y-98274580D02*
X141591790Y-98322200D01*
X141591790Y-98322200D02*
X141687028Y-98369819D01*
X141687028Y-98369819D02*
X141829885Y-98369819D01*
X140639409Y-97703152D02*
X140639409Y-98512676D01*
X140639409Y-98512676D02*
X140687028Y-98607914D01*
X140687028Y-98607914D02*
X140734647Y-98655533D01*
X140734647Y-98655533D02*
X140829885Y-98703152D01*
X140829885Y-98703152D02*
X140972742Y-98703152D01*
X140972742Y-98703152D02*
X141067980Y-98655533D01*
X140639409Y-98322200D02*
X140734647Y-98369819D01*
X140734647Y-98369819D02*
X140925123Y-98369819D01*
X140925123Y-98369819D02*
X141020361Y-98322200D01*
X141020361Y-98322200D02*
X141067980Y-98274580D01*
X141067980Y-98274580D02*
X141115599Y-98179342D01*
X141115599Y-98179342D02*
X141115599Y-97893628D01*
X141115599Y-97893628D02*
X141067980Y-97798390D01*
X141067980Y-97798390D02*
X141020361Y-97750771D01*
X141020361Y-97750771D02*
X140925123Y-97703152D01*
X140925123Y-97703152D02*
X140734647Y-97703152D01*
X140734647Y-97703152D02*
X140639409Y-97750771D01*
X140163218Y-98369819D02*
X140163218Y-97703152D01*
X140163218Y-97369819D02*
X140210837Y-97417438D01*
X140210837Y-97417438D02*
X140163218Y-97465057D01*
X140163218Y-97465057D02*
X140115599Y-97417438D01*
X140115599Y-97417438D02*
X140163218Y-97369819D01*
X140163218Y-97369819D02*
X140163218Y-97465057D01*
X139306076Y-98322200D02*
X139401314Y-98369819D01*
X139401314Y-98369819D02*
X139591790Y-98369819D01*
X139591790Y-98369819D02*
X139687028Y-98322200D01*
X139687028Y-98322200D02*
X139734647Y-98226961D01*
X139734647Y-98226961D02*
X139734647Y-97846009D01*
X139734647Y-97846009D02*
X139687028Y-97750771D01*
X139687028Y-97750771D02*
X139591790Y-97703152D01*
X139591790Y-97703152D02*
X139401314Y-97703152D01*
X139401314Y-97703152D02*
X139306076Y-97750771D01*
X139306076Y-97750771D02*
X139258457Y-97846009D01*
X139258457Y-97846009D02*
X139258457Y-97941247D01*
X139258457Y-97941247D02*
X139734647Y-98036485D01*
X138877504Y-98322200D02*
X138782266Y-98369819D01*
X138782266Y-98369819D02*
X138591790Y-98369819D01*
X138591790Y-98369819D02*
X138496552Y-98322200D01*
X138496552Y-98322200D02*
X138448933Y-98226961D01*
X138448933Y-98226961D02*
X138448933Y-98179342D01*
X138448933Y-98179342D02*
X138496552Y-98084104D01*
X138496552Y-98084104D02*
X138591790Y-98036485D01*
X138591790Y-98036485D02*
X138734647Y-98036485D01*
X138734647Y-98036485D02*
X138829885Y-97988866D01*
X138829885Y-97988866D02*
X138877504Y-97893628D01*
X138877504Y-97893628D02*
X138877504Y-97846009D01*
X138877504Y-97846009D02*
X138829885Y-97750771D01*
X138829885Y-97750771D02*
X138734647Y-97703152D01*
X138734647Y-97703152D02*
X138591790Y-97703152D01*
X138591790Y-97703152D02*
X138496552Y-97750771D01*
X136782266Y-98369819D02*
X137258456Y-98369819D01*
X137258456Y-98369819D02*
X137258456Y-97369819D01*
X135972742Y-98369819D02*
X136448932Y-98369819D01*
X136448932Y-98369819D02*
X136448932Y-97369819D01*
X135067980Y-98274580D02*
X135115599Y-98322200D01*
X135115599Y-98322200D02*
X135258456Y-98369819D01*
X135258456Y-98369819D02*
X135353694Y-98369819D01*
X135353694Y-98369819D02*
X135496551Y-98322200D01*
X135496551Y-98322200D02*
X135591789Y-98226961D01*
X135591789Y-98226961D02*
X135639408Y-98131723D01*
X135639408Y-98131723D02*
X135687027Y-97941247D01*
X135687027Y-97941247D02*
X135687027Y-97798390D01*
X135687027Y-97798390D02*
X135639408Y-97607914D01*
X135639408Y-97607914D02*
X135591789Y-97512676D01*
X135591789Y-97512676D02*
X135496551Y-97417438D01*
X135496551Y-97417438D02*
X135353694Y-97369819D01*
X135353694Y-97369819D02*
X135258456Y-97369819D01*
X135258456Y-97369819D02*
X135115599Y-97417438D01*
X135115599Y-97417438D02*
X135067980Y-97465057D01*
M02*
