%TF.GenerationSoftware,KiCad,Pcbnew,8.0.2*%
%TF.CreationDate,2024-05-21T13:44:33-04:00*%
%TF.ProjectId,LowerPOGO,4c6f7765-7250-44f4-974f-2e6b69636164,rev?*%
%TF.SameCoordinates,Original*%
%TF.FileFunction,Copper,L1,Top*%
%TF.FilePolarity,Positive*%
%FSLAX46Y46*%
G04 Gerber Fmt 4.6, Leading zero omitted, Abs format (unit mm)*
G04 Created by KiCad (PCBNEW 8.0.2) date 2024-05-21 13:44:33*
%MOMM*%
%LPD*%
G01*
G04 APERTURE LIST*
%TA.AperFunction,ComponentPad*%
%ADD10O,1.700000X1.700000*%
%TD*%
%TA.AperFunction,ComponentPad*%
%ADD11R,1.700000X1.700000*%
%TD*%
%TA.AperFunction,ComponentPad*%
%ADD12C,3.500000*%
%TD*%
%TA.AperFunction,ComponentPad*%
%ADD13C,3.600000*%
%TD*%
%TA.AperFunction,ConnectorPad*%
%ADD14C,5.600000*%
%TD*%
%TA.AperFunction,Conductor*%
%ADD15C,0.400000*%
%TD*%
G04 APERTURE END LIST*
D10*
%TO.P,J25,12,Pin_12*%
%TO.N,Net-(J12-Pin_1)*%
X158150000Y-102710000D03*
%TO.P,J25,11,Pin_11*%
%TO.N,Net-(J11-Pin_1)*%
X155610000Y-102710000D03*
%TO.P,J25,10,Pin_10*%
%TO.N,Net-(J10-Pin_1)*%
X153070000Y-102710000D03*
%TO.P,J25,9,Pin_9*%
%TO.N,Net-(J25-Pin_9)*%
X150530000Y-102710000D03*
%TO.P,J25,8,Pin_8*%
%TO.N,Net-(J25-Pin_8)*%
X147990000Y-102710000D03*
%TO.P,J25,7,Pin_7*%
%TO.N,Net-(J25-Pin_7)*%
X145450000Y-102710000D03*
%TO.P,J25,6,Pin_6*%
%TO.N,Net-(J25-Pin_6)*%
X142910000Y-102710000D03*
%TO.P,J25,5,Pin_5*%
%TO.N,Net-(J25-Pin_5)*%
X140370000Y-102710000D03*
%TO.P,J25,4,Pin_4*%
%TO.N,Net-(J25-Pin_4)*%
X137830000Y-102710000D03*
%TO.P,J25,3,Pin_3*%
%TO.N,Net-(J25-Pin_3)*%
X135290000Y-102710000D03*
%TO.P,J25,2,Pin_2*%
%TO.N,Net-(J2-Pin_1)*%
X132750000Y-102710000D03*
%TO.P,J25,1,Pin_1*%
%TO.N,Net-(J1-Pin_1)*%
X130210000Y-102710000D03*
%TO.P,J25,24,Pin_24*%
%TO.N,Net-(J24-Pin_1)*%
X158150000Y-105250000D03*
%TO.P,J25,23,Pin_23*%
%TO.N,Net-(J23-Pin_1)*%
X155610000Y-105250000D03*
%TO.P,J25,22,Pin_22*%
%TO.N,Net-(J22-Pin_1)*%
X153070000Y-105250000D03*
%TO.P,J25,21,Pin_21*%
%TO.N,Net-(J21-Pin_1)*%
X150530000Y-105250000D03*
%TO.P,J25,20,Pin_20*%
%TO.N,Net-(J20-Pin_1)*%
X147990000Y-105250000D03*
%TO.P,J25,19,Pin_19*%
%TO.N,Net-(J19-Pin_1)*%
X145450000Y-105250000D03*
%TO.P,J25,18,Pin_18*%
%TO.N,Net-(J18-Pin_1)*%
X142910000Y-105250000D03*
%TO.P,J25,17,Pin_17*%
%TO.N,Net-(J17-Pin_1)*%
X140370000Y-105250000D03*
%TO.P,J25,16,Pin_16*%
%TO.N,Net-(J16-Pin_1)*%
X137830000Y-105250000D03*
%TO.P,J25,15,Pin_15*%
%TO.N,Net-(J15-Pin_1)*%
X135290000Y-105250000D03*
%TO.P,J25,14,Pin_14*%
%TO.N,Net-(J14-Pin_1)*%
X132750000Y-105250000D03*
D11*
%TO.P,J25,13,Pin_13*%
%TO.N,Net-(J13-Pin_1)*%
X130210000Y-105250000D03*
%TD*%
D12*
%TO.P,J7,1,Pin_1*%
%TO.N,Net-(J25-Pin_7)*%
X133000000Y-126500000D03*
%TD*%
%TO.P,J8,1,Pin_1*%
%TO.N,Net-(J25-Pin_8)*%
X120500000Y-138500000D03*
%TD*%
%TO.P,J10,1,Pin_1*%
%TO.N,Net-(J10-Pin_1)*%
X120500000Y-147500000D03*
%TD*%
%TO.P,J13,1,Pin_1*%
%TO.N,Net-(J13-Pin_1)*%
X172000000Y-154000000D03*
%TD*%
D13*
%TO.P,H4,1,1*%
%TO.N,Earth*%
X200750000Y-154500000D03*
D14*
X200750000Y-154500000D03*
%TD*%
D12*
%TO.P,J22,1,Pin_1*%
%TO.N,Net-(J22-Pin_1)*%
X196500000Y-138500000D03*
%TD*%
D13*
%TO.P,H1,1,1*%
%TO.N,Earth*%
X93250000Y-109500000D03*
D14*
X93250000Y-109500000D03*
%TD*%
D13*
%TO.P,H2,1,1*%
%TO.N,Earth*%
X200750000Y-109500000D03*
D14*
X200750000Y-109500000D03*
%TD*%
D13*
%TO.P,H3,1,1*%
%TO.N,Earth*%
X123500000Y-154500000D03*
D14*
X123500000Y-154500000D03*
%TD*%
D12*
%TO.P,J11,1,Pin_1*%
%TO.N,Net-(J11-Pin_1)*%
X133000000Y-144500000D03*
%TD*%
%TO.P,J12,1,Pin_1*%
%TO.N,Net-(J12-Pin_1)*%
X134000000Y-154000000D03*
%TD*%
%TO.P,J1,1,Pin_1*%
%TO.N,Net-(J1-Pin_1)*%
X95000000Y-126500000D03*
%TD*%
%TO.P,J21,1,Pin_1*%
%TO.N,Net-(J21-Pin_1)*%
X196500000Y-147500000D03*
%TD*%
%TO.P,J20,1,Pin_1*%
%TO.N,Net-(J20-Pin_1)*%
X171000000Y-126500000D03*
%TD*%
%TO.P,J5,1,Pin_1*%
%TO.N,Net-(J25-Pin_5)*%
X120000000Y-119500000D03*
%TD*%
%TO.P,J18,1,Pin_1*%
%TO.N,Net-(J18-Pin_1)*%
X171000000Y-135500000D03*
%TD*%
%TO.P,J2,1,Pin_1*%
%TO.N,Net-(J2-Pin_1)*%
X95000000Y-135500000D03*
%TD*%
%TO.P,J3,1,Pin_1*%
%TO.N,Net-(J25-Pin_3)*%
X95000000Y-144500000D03*
%TD*%
%TO.P,J6,1,Pin_1*%
%TO.N,Net-(J25-Pin_6)*%
X120500000Y-129500000D03*
%TD*%
%TO.P,J17,1,Pin_1*%
%TO.N,Net-(J17-Pin_1)*%
X158500000Y-129500000D03*
%TD*%
%TO.P,J4,1,Pin_1*%
%TO.N,Net-(J25-Pin_4)*%
X96000000Y-154000000D03*
%TD*%
%TO.P,J24,1,Pin_1*%
%TO.N,Net-(J24-Pin_1)*%
X195500000Y-119500000D03*
%TD*%
%TO.P,J23,1,Pin_1*%
%TO.N,Net-(J23-Pin_1)*%
X196500000Y-129500000D03*
%TD*%
%TO.P,J9,1,Pin_1*%
%TO.N,Net-(J25-Pin_9)*%
X133000000Y-135500000D03*
%TD*%
%TO.P,J14,1,Pin_1*%
%TO.N,Net-(J14-Pin_1)*%
X171000000Y-144500000D03*
%TD*%
%TO.P,J19,1,Pin_1*%
%TO.N,Net-(J19-Pin_1)*%
X158000000Y-119500000D03*
%TD*%
%TO.P,J15,1,Pin_1*%
%TO.N,Net-(J15-Pin_1)*%
X158500000Y-147000000D03*
%TD*%
%TO.P,J16,1,Pin_1*%
%TO.N,Net-(J16-Pin_1)*%
X158500000Y-138500000D03*
%TD*%
D15*
%TO.N,Net-(J15-Pin_1)*%
X158500000Y-147000000D02*
X149750000Y-155750000D01*
X138087000Y-155750000D02*
X136413000Y-154076000D01*
X136413000Y-154076000D02*
X136413000Y-106373000D01*
X149750000Y-155750000D02*
X138087000Y-155750000D01*
X136413000Y-106373000D02*
X135290000Y-105250000D01*
%TO.N,Net-(J13-Pin_1)*%
X127500000Y-154250000D02*
X127500000Y-107960000D01*
X127500000Y-107960000D02*
X130210000Y-105250000D01*
X172000000Y-154000000D02*
X167837000Y-158163000D01*
X167837000Y-158163000D02*
X131413000Y-158163000D01*
X131413000Y-158163000D02*
X127500000Y-154250000D01*
%TO.N,Net-(J14-Pin_1)*%
X171000000Y-144500000D02*
X158500000Y-157000000D01*
X130000000Y-154500000D02*
X130000000Y-108000000D01*
X130000000Y-108000000D02*
X132750000Y-105250000D01*
X132500000Y-157000000D02*
X130000000Y-154500000D01*
X158500000Y-157000000D02*
X132500000Y-157000000D01*
%TO.N,Net-(J16-Pin_1)*%
X137830000Y-153745000D02*
X137830000Y-105250000D01*
X158500000Y-138500000D02*
X152500000Y-144500000D01*
X152500000Y-152151472D02*
X149501472Y-155150000D01*
X149501472Y-155150000D02*
X139235000Y-155150000D01*
X152500000Y-144500000D02*
X152500000Y-152151472D01*
X139235000Y-155150000D02*
X137830000Y-153745000D01*
%TO.N,Net-(J17-Pin_1)*%
X151750000Y-109864112D02*
X150185888Y-108300000D01*
X150185888Y-108300000D02*
X143420000Y-108300000D01*
X143420000Y-108300000D02*
X140370000Y-105250000D01*
X158500000Y-129500000D02*
X151750000Y-122750000D01*
X151750000Y-122750000D02*
X151750000Y-109864112D01*
%TO.N,Net-(J18-Pin_1)*%
X169250000Y-135500000D02*
X153500000Y-119750000D01*
X145360000Y-107700000D02*
X142910000Y-105250000D01*
X153500000Y-119750000D02*
X153500000Y-110765584D01*
X171000000Y-135500000D02*
X169250000Y-135500000D01*
X150434416Y-107700000D02*
X145360000Y-107700000D01*
X153500000Y-110765584D02*
X150434416Y-107700000D01*
%TO.N,Net-(J19-Pin_1)*%
X147300000Y-107100000D02*
X145450000Y-105250000D01*
X155000000Y-111417056D02*
X150682944Y-107100000D01*
X155000000Y-116500000D02*
X155000000Y-111417056D01*
X158000000Y-119500000D02*
X155000000Y-116500000D01*
X150682944Y-107100000D02*
X147300000Y-107100000D01*
%TO.N,Net-(J20-Pin_1)*%
X150931472Y-106500000D02*
X149240000Y-106500000D01*
X160250000Y-115750000D02*
X160181472Y-115750000D01*
X149240000Y-106500000D02*
X147990000Y-105250000D01*
X160181472Y-115750000D02*
X150931472Y-106500000D01*
X171000000Y-126500000D02*
X160250000Y-115750000D01*
%TO.N,Net-(J21-Pin_1)*%
X188938000Y-139938000D02*
X188938000Y-108641000D01*
X196500000Y-147500000D02*
X188938000Y-139938000D01*
X188547000Y-108250000D02*
X153530000Y-108250000D01*
X153530000Y-108250000D02*
X150530000Y-105250000D01*
X188938000Y-108641000D02*
X188547000Y-108250000D01*
%TO.N,Net-(J22-Pin_1)*%
X189538000Y-131538000D02*
X189538000Y-108392472D01*
X189538000Y-108392472D02*
X188756528Y-107611000D01*
X188756528Y-107611000D02*
X155431000Y-107611000D01*
X155431000Y-107611000D02*
X153070000Y-105250000D01*
X196500000Y-138500000D02*
X189538000Y-131538000D01*
%TO.N,Net-(J23-Pin_1)*%
X157371000Y-107011000D02*
X155610000Y-105250000D01*
X189005056Y-107011000D02*
X157371000Y-107011000D01*
X190138000Y-123138000D02*
X190138000Y-108143944D01*
X196500000Y-129500000D02*
X190138000Y-123138000D01*
X190138000Y-108143944D02*
X189005056Y-107011000D01*
%TO.N,Net-(J24-Pin_1)*%
X195500000Y-119500000D02*
X195500000Y-112500000D01*
X189411000Y-106411000D02*
X159311000Y-106411000D01*
X195500000Y-112500000D02*
X189411000Y-106411000D01*
X159311000Y-106411000D02*
X158150000Y-105250000D01*
%TD*%
%TA.AperFunction,Conductor*%
%TO.N,Earth*%
G36*
X159727826Y-92272174D02*
G01*
X159749500Y-92324500D01*
X159749500Y-104678174D01*
X159749357Y-104680357D01*
X159749357Y-104815894D01*
X159783463Y-104943181D01*
X159783464Y-104943184D01*
X159783465Y-104943186D01*
X159849357Y-105057314D01*
X159942543Y-105150500D01*
X160056671Y-105216392D01*
X160183962Y-105250499D01*
X160183963Y-105250500D01*
X160183965Y-105250500D01*
X160184108Y-105250500D01*
X160315892Y-105250500D01*
X204425500Y-105250500D01*
X204477826Y-105272174D01*
X204499500Y-105324500D01*
X204499500Y-158288594D01*
X204477826Y-158340920D01*
X204425500Y-158362594D01*
X168382451Y-158362594D01*
X168330125Y-158340920D01*
X168308451Y-158288594D01*
X168330125Y-158236268D01*
X168941707Y-157624686D01*
X170889742Y-155676649D01*
X170942067Y-155654976D01*
X170977531Y-155664027D01*
X171000647Y-155676650D01*
X171187667Y-155778771D01*
X171449062Y-155876266D01*
X171449067Y-155876267D01*
X171449077Y-155876271D01*
X171721706Y-155935578D01*
X171783549Y-155940001D01*
X171999993Y-155955482D01*
X172000000Y-155955482D01*
X172000007Y-155955482D01*
X172194805Y-155941549D01*
X172278294Y-155935578D01*
X172550923Y-155876271D01*
X172550934Y-155876266D01*
X172550937Y-155876266D01*
X172812333Y-155778771D01*
X173022469Y-155664028D01*
X173057213Y-155645056D01*
X173280568Y-155477855D01*
X173477855Y-155280568D01*
X173645056Y-155057213D01*
X173778769Y-154812337D01*
X173778770Y-154812334D01*
X173778771Y-154812333D01*
X173876266Y-154550937D01*
X173876266Y-154550934D01*
X173876271Y-154550923D01*
X173887349Y-154500000D01*
X197544958Y-154500000D01*
X197565111Y-154858853D01*
X197565113Y-154858865D01*
X197625313Y-155213184D01*
X197724815Y-155558560D01*
X197862352Y-155890607D01*
X197862363Y-155890628D01*
X198036206Y-156205173D01*
X198036210Y-156205180D01*
X198244199Y-156498313D01*
X198350213Y-156616942D01*
X199485502Y-155481652D01*
X199529588Y-155542330D01*
X199707670Y-155720412D01*
X199768346Y-155764495D01*
X198633055Y-156899786D01*
X198751681Y-157005796D01*
X199044819Y-157213789D01*
X199044826Y-157213793D01*
X199359371Y-157387636D01*
X199359392Y-157387647D01*
X199691439Y-157525184D01*
X200036816Y-157624686D01*
X200036814Y-157624686D01*
X200391134Y-157684886D01*
X200391146Y-157684888D01*
X200750000Y-157705041D01*
X201108853Y-157684888D01*
X201108865Y-157684886D01*
X201463184Y-157624686D01*
X201808560Y-157525184D01*
X202140607Y-157387647D01*
X202140628Y-157387636D01*
X202455173Y-157213793D01*
X202455180Y-157213789D01*
X202748318Y-157005796D01*
X202866942Y-156899786D01*
X202866943Y-156899786D01*
X201731653Y-155764496D01*
X201792330Y-155720412D01*
X201970412Y-155542330D01*
X202014496Y-155481653D01*
X203149786Y-156616943D01*
X203149786Y-156616942D01*
X203255796Y-156498318D01*
X203463789Y-156205180D01*
X203463793Y-156205173D01*
X203637636Y-155890628D01*
X203637647Y-155890607D01*
X203775184Y-155558560D01*
X203874686Y-155213184D01*
X203934886Y-154858865D01*
X203934888Y-154858853D01*
X203955041Y-154500000D01*
X203934888Y-154141146D01*
X203934886Y-154141134D01*
X203874686Y-153786815D01*
X203775184Y-153441439D01*
X203637647Y-153109392D01*
X203637636Y-153109371D01*
X203463793Y-152794826D01*
X203463789Y-152794819D01*
X203255796Y-152501681D01*
X203149786Y-152383056D01*
X203149786Y-152383055D01*
X202014495Y-153518345D01*
X201970412Y-153457670D01*
X201792330Y-153279588D01*
X201731652Y-153235502D01*
X202866942Y-152100213D01*
X202748313Y-151994199D01*
X202455180Y-151786210D01*
X202455173Y-151786206D01*
X202140628Y-151612363D01*
X202140607Y-151612352D01*
X201808560Y-151474815D01*
X201463183Y-151375313D01*
X201463185Y-151375313D01*
X201108865Y-151315113D01*
X201108853Y-151315111D01*
X200750000Y-151294958D01*
X200391146Y-151315111D01*
X200391134Y-151315113D01*
X200036815Y-151375313D01*
X199691439Y-151474815D01*
X199359392Y-151612352D01*
X199359371Y-151612363D01*
X199044826Y-151786206D01*
X199044819Y-151786210D01*
X198751686Y-151994199D01*
X198633055Y-152100212D01*
X199768346Y-153235503D01*
X199707670Y-153279588D01*
X199529588Y-153457670D01*
X199485503Y-153518346D01*
X198350212Y-152383055D01*
X198244199Y-152501686D01*
X198036210Y-152794819D01*
X198036206Y-152794826D01*
X197862363Y-153109371D01*
X197862352Y-153109392D01*
X197724815Y-153441439D01*
X197625313Y-153786815D01*
X197565113Y-154141134D01*
X197565111Y-154141146D01*
X197544958Y-154500000D01*
X173887349Y-154500000D01*
X173935578Y-154278294D01*
X173946518Y-154125332D01*
X173955482Y-154000006D01*
X173955482Y-153999993D01*
X173935578Y-153721708D01*
X173924717Y-153671781D01*
X173876271Y-153449077D01*
X173876267Y-153449067D01*
X173876266Y-153449062D01*
X173778771Y-153187666D01*
X173645057Y-152942788D01*
X173534294Y-152794826D01*
X173477855Y-152719432D01*
X173280568Y-152522145D01*
X173168890Y-152438544D01*
X173057211Y-152354942D01*
X172812333Y-152221228D01*
X172550937Y-152123733D01*
X172550925Y-152123730D01*
X172550923Y-152123729D01*
X172442822Y-152100213D01*
X172278291Y-152064421D01*
X172000007Y-152044518D01*
X171999993Y-152044518D01*
X171721708Y-152064421D01*
X171449081Y-152123728D01*
X171449062Y-152123733D01*
X171187666Y-152221228D01*
X170942788Y-152354942D01*
X170719429Y-152522147D01*
X170522147Y-152719429D01*
X170354942Y-152942788D01*
X170221228Y-153187666D01*
X170123733Y-153449062D01*
X170123728Y-153449081D01*
X170064421Y-153721708D01*
X170044518Y-153999993D01*
X170044518Y-154000006D01*
X170064421Y-154278291D01*
X170123728Y-154550918D01*
X170123733Y-154550937D01*
X170221229Y-154812334D01*
X170221230Y-154812338D01*
X170335970Y-155022467D01*
X170342024Y-155078779D01*
X170323348Y-155110257D01*
X167692781Y-157740826D01*
X167640455Y-157762500D01*
X131609544Y-157762500D01*
X131557218Y-157740826D01*
X127922174Y-154105781D01*
X127900500Y-154053455D01*
X127900500Y-108156544D01*
X127922174Y-108104218D01*
X129704218Y-106322174D01*
X129756544Y-106300500D01*
X130954454Y-106300500D01*
X131006780Y-106322174D01*
X131028454Y-106374500D01*
X131006780Y-106426826D01*
X129679517Y-107754090D01*
X129626795Y-107845407D01*
X129626794Y-107845409D01*
X129604257Y-107929521D01*
X129604256Y-107929521D01*
X129599500Y-107947270D01*
X129599500Y-107947273D01*
X129599500Y-154447273D01*
X129599500Y-154552727D01*
X129626793Y-154654588D01*
X129626795Y-154654592D01*
X129679517Y-154745909D01*
X129679518Y-154745910D01*
X129679520Y-154745913D01*
X132254087Y-157320480D01*
X132345412Y-157373207D01*
X132447273Y-157400500D01*
X132447274Y-157400500D01*
X158552726Y-157400500D01*
X158552727Y-157400500D01*
X158654588Y-157373207D01*
X158745913Y-157320480D01*
X169889742Y-146176648D01*
X169942067Y-146154975D01*
X169977527Y-146164025D01*
X170187663Y-146278769D01*
X170187667Y-146278771D01*
X170449062Y-146376266D01*
X170449067Y-146376267D01*
X170449077Y-146376271D01*
X170721706Y-146435578D01*
X170783549Y-146440001D01*
X170999993Y-146455482D01*
X171000000Y-146455482D01*
X171000007Y-146455482D01*
X171194805Y-146441549D01*
X171278294Y-146435578D01*
X171550923Y-146376271D01*
X171550934Y-146376266D01*
X171550937Y-146376266D01*
X171812333Y-146278771D01*
X171921010Y-146219429D01*
X172057213Y-146145056D01*
X172280568Y-145977855D01*
X172477855Y-145780568D01*
X172645056Y-145557213D01*
X172778769Y-145312337D01*
X172778770Y-145312334D01*
X172778771Y-145312333D01*
X172876266Y-145050937D01*
X172876266Y-145050934D01*
X172876271Y-145050923D01*
X172935578Y-144778294D01*
X172955482Y-144500000D01*
X172955482Y-144499993D01*
X172935578Y-144221708D01*
X172935578Y-144221706D01*
X172876271Y-143949077D01*
X172876267Y-143949067D01*
X172876266Y-143949062D01*
X172778771Y-143687666D01*
X172645057Y-143442788D01*
X172603255Y-143386948D01*
X172477855Y-143219432D01*
X172280568Y-143022145D01*
X172168890Y-142938544D01*
X172057211Y-142854942D01*
X171812333Y-142721228D01*
X171550937Y-142623733D01*
X171550925Y-142623730D01*
X171550923Y-142623729D01*
X171495971Y-142611775D01*
X171278291Y-142564421D01*
X171000007Y-142544518D01*
X170999993Y-142544518D01*
X170721708Y-142564421D01*
X170449081Y-142623728D01*
X170449062Y-142623733D01*
X170187666Y-142721228D01*
X169942788Y-142854942D01*
X169719429Y-143022147D01*
X169522147Y-143219429D01*
X169354942Y-143442788D01*
X169221228Y-143687666D01*
X169123733Y-143949062D01*
X169123728Y-143949081D01*
X169064421Y-144221708D01*
X169044518Y-144499993D01*
X169044518Y-144500006D01*
X169064421Y-144778291D01*
X169123728Y-145050918D01*
X169123733Y-145050937D01*
X169221229Y-145312334D01*
X169221230Y-145312338D01*
X169335970Y-145522468D01*
X169342024Y-145578780D01*
X169323348Y-145610258D01*
X158355781Y-156577826D01*
X158303455Y-156599500D01*
X132696545Y-156599500D01*
X132644219Y-156577826D01*
X130422174Y-154355781D01*
X130400500Y-154303455D01*
X130400500Y-153999993D01*
X132044518Y-153999993D01*
X132044518Y-154000006D01*
X132064421Y-154278291D01*
X132123728Y-154550918D01*
X132123733Y-154550937D01*
X132221228Y-154812333D01*
X132354942Y-155057211D01*
X132371088Y-155078779D01*
X132522145Y-155280568D01*
X132719432Y-155477855D01*
X132805561Y-155542330D01*
X132942788Y-155645057D01*
X133187666Y-155778771D01*
X133449062Y-155876266D01*
X133449067Y-155876267D01*
X133449077Y-155876271D01*
X133721706Y-155935578D01*
X133783549Y-155940001D01*
X133999993Y-155955482D01*
X134000000Y-155955482D01*
X134000007Y-155955482D01*
X134194805Y-155941549D01*
X134278294Y-155935578D01*
X134550923Y-155876271D01*
X134550934Y-155876266D01*
X134550937Y-155876266D01*
X134812333Y-155778771D01*
X135022469Y-155664028D01*
X135057213Y-155645056D01*
X135280568Y-155477855D01*
X135477855Y-155280568D01*
X135645056Y-155057213D01*
X135778769Y-154812337D01*
X135778770Y-154812334D01*
X135778771Y-154812333D01*
X135876266Y-154550937D01*
X135876266Y-154550934D01*
X135876271Y-154550923D01*
X135930948Y-154299575D01*
X135963250Y-154253053D01*
X136018987Y-154242997D01*
X136065510Y-154275299D01*
X136067343Y-154278306D01*
X136092517Y-154321909D01*
X136092518Y-154321910D01*
X136092520Y-154321913D01*
X136983792Y-155213184D01*
X137763931Y-155993323D01*
X137763936Y-155993329D01*
X137766520Y-155995913D01*
X137841087Y-156070480D01*
X137932413Y-156123207D01*
X137932414Y-156123207D01*
X137932416Y-156123208D01*
X137983343Y-156136854D01*
X138034271Y-156150500D01*
X138034272Y-156150501D01*
X138034274Y-156150501D01*
X138144257Y-156150501D01*
X138144273Y-156150500D01*
X149802726Y-156150500D01*
X149802727Y-156150500D01*
X149904588Y-156123207D01*
X149995913Y-156070480D01*
X157389742Y-148676648D01*
X157442067Y-148654975D01*
X157477527Y-148664025D01*
X157687663Y-148778769D01*
X157687667Y-148778771D01*
X157949062Y-148876266D01*
X157949067Y-148876267D01*
X157949077Y-148876271D01*
X158221706Y-148935578D01*
X158283549Y-148940001D01*
X158499993Y-148955482D01*
X158500000Y-148955482D01*
X158500007Y-148955482D01*
X158694805Y-148941549D01*
X158778294Y-148935578D01*
X159050923Y-148876271D01*
X159050934Y-148876266D01*
X159050937Y-148876266D01*
X159312333Y-148778771D01*
X159557211Y-148645057D01*
X159557210Y-148645057D01*
X159557213Y-148645056D01*
X159780568Y-148477855D01*
X159977855Y-148280568D01*
X160145056Y-148057213D01*
X160278769Y-147812337D01*
X160278770Y-147812334D01*
X160278771Y-147812333D01*
X160376266Y-147550937D01*
X160376266Y-147550934D01*
X160376271Y-147550923D01*
X160435578Y-147278294D01*
X160455482Y-147000000D01*
X160455482Y-146999993D01*
X160435578Y-146721708D01*
X160428172Y-146687663D01*
X160376271Y-146449077D01*
X160376267Y-146449067D01*
X160376266Y-146449062D01*
X160278771Y-146187666D01*
X160145057Y-145942788D01*
X160023622Y-145780570D01*
X159977855Y-145719432D01*
X159780568Y-145522145D01*
X159668890Y-145438544D01*
X159557211Y-145354942D01*
X159312333Y-145221228D01*
X159050937Y-145123733D01*
X159050925Y-145123730D01*
X159050923Y-145123729D01*
X158995971Y-145111775D01*
X158778291Y-145064421D01*
X158500007Y-145044518D01*
X158499993Y-145044518D01*
X158221708Y-145064421D01*
X157949081Y-145123728D01*
X157949062Y-145123733D01*
X157687666Y-145221228D01*
X157442788Y-145354942D01*
X157219429Y-145522147D01*
X157022147Y-145719429D01*
X156854942Y-145942788D01*
X156721228Y-146187666D01*
X156623733Y-146449062D01*
X156623728Y-146449081D01*
X156564421Y-146721708D01*
X156544518Y-146999993D01*
X156544518Y-147000006D01*
X156564421Y-147278291D01*
X156623728Y-147550918D01*
X156623733Y-147550937D01*
X156721229Y-147812334D01*
X156721230Y-147812338D01*
X156835970Y-148022468D01*
X156842024Y-148078780D01*
X156823348Y-148110258D01*
X153026826Y-151906781D01*
X152974500Y-151928455D01*
X152922174Y-151906781D01*
X152900500Y-151854455D01*
X152900500Y-144696544D01*
X152922173Y-144644219D01*
X157389742Y-140176649D01*
X157442067Y-140154976D01*
X157477531Y-140164027D01*
X157500647Y-140176650D01*
X157687667Y-140278771D01*
X157949062Y-140376266D01*
X157949067Y-140376267D01*
X157949077Y-140376271D01*
X158221706Y-140435578D01*
X158283549Y-140440001D01*
X158499993Y-140455482D01*
X158500000Y-140455482D01*
X158500007Y-140455482D01*
X158694805Y-140441549D01*
X158778294Y-140435578D01*
X159050923Y-140376271D01*
X159050934Y-140376266D01*
X159050937Y-140376266D01*
X159312333Y-140278771D01*
X159522469Y-140164028D01*
X159557213Y-140145056D01*
X159780568Y-139977855D01*
X159977855Y-139780568D01*
X160145056Y-139557213D01*
X160278769Y-139312337D01*
X160278770Y-139312334D01*
X160278771Y-139312333D01*
X160376266Y-139050937D01*
X160376266Y-139050934D01*
X160376271Y-139050923D01*
X160435578Y-138778294D01*
X160455482Y-138500000D01*
X160455482Y-138499993D01*
X160435578Y-138221708D01*
X160435578Y-138221706D01*
X160376271Y-137949077D01*
X160376267Y-137949067D01*
X160376266Y-137949062D01*
X160278771Y-137687666D01*
X160145057Y-137442788D01*
X160022274Y-137278769D01*
X159977855Y-137219432D01*
X159780568Y-137022145D01*
X159569479Y-136864126D01*
X159557211Y-136854942D01*
X159312333Y-136721228D01*
X159050937Y-136623733D01*
X159050925Y-136623730D01*
X159050923Y-136623729D01*
X158995971Y-136611775D01*
X158778291Y-136564421D01*
X158500007Y-136544518D01*
X158499993Y-136544518D01*
X158221708Y-136564421D01*
X157949081Y-136623728D01*
X157949062Y-136623733D01*
X157687666Y-136721228D01*
X157442788Y-136854942D01*
X157219429Y-137022147D01*
X157022147Y-137219429D01*
X156854942Y-137442788D01*
X156721228Y-137687666D01*
X156623733Y-137949062D01*
X156623728Y-137949081D01*
X156564421Y-138221708D01*
X156544518Y-138499993D01*
X156544518Y-138500006D01*
X156564421Y-138778291D01*
X156623728Y-139050918D01*
X156623733Y-139050937D01*
X156721229Y-139312334D01*
X156721230Y-139312338D01*
X156835970Y-139522467D01*
X156842024Y-139578779D01*
X156823348Y-139610257D01*
X152179517Y-144254090D01*
X152126792Y-144345412D01*
X152126793Y-144345413D01*
X152099500Y-144447273D01*
X152099500Y-151954927D01*
X152077826Y-152007253D01*
X149357253Y-154727826D01*
X149304927Y-154749500D01*
X139431545Y-154749500D01*
X139379219Y-154727826D01*
X139028219Y-154376826D01*
X139006545Y-154324500D01*
X139028219Y-154272174D01*
X139080545Y-154250500D01*
X149015894Y-154250500D01*
X149015894Y-154250499D01*
X149143186Y-154216392D01*
X149257314Y-154150500D01*
X149350500Y-154057314D01*
X149416392Y-153943186D01*
X149450499Y-153815894D01*
X149450500Y-153815894D01*
X149450500Y-109434106D01*
X149450499Y-109434105D01*
X149416393Y-109306818D01*
X149416392Y-109306814D01*
X149350500Y-109192686D01*
X149257314Y-109099500D01*
X149143190Y-109033610D01*
X149143181Y-109033606D01*
X149015894Y-108999500D01*
X149015892Y-108999500D01*
X139015892Y-108999500D01*
X138884108Y-108999500D01*
X138884106Y-108999500D01*
X138756818Y-109033606D01*
X138756809Y-109033610D01*
X138642685Y-109099500D01*
X138549500Y-109192685D01*
X138483610Y-109306809D01*
X138483606Y-109306818D01*
X138449500Y-109434105D01*
X138449500Y-153619455D01*
X138427826Y-153671781D01*
X138375500Y-153693455D01*
X138323174Y-153671781D01*
X138252174Y-153600781D01*
X138230500Y-153548455D01*
X138230500Y-106271432D01*
X138252174Y-106219106D01*
X138269616Y-106206170D01*
X138285187Y-106197847D01*
X138416450Y-106127685D01*
X138576410Y-105996410D01*
X138707685Y-105836450D01*
X138805232Y-105653954D01*
X138865300Y-105455934D01*
X138885583Y-105250000D01*
X139314417Y-105250000D01*
X139334700Y-105455934D01*
X139394768Y-105653954D01*
X139492315Y-105836450D01*
X139623590Y-105996410D01*
X139783550Y-106127685D01*
X139966046Y-106225232D01*
X140164066Y-106285300D01*
X140370000Y-106305583D01*
X140575934Y-106285300D01*
X140735260Y-106236969D01*
X140791621Y-106242521D01*
X140809064Y-106255457D01*
X143099519Y-108545912D01*
X143099520Y-108545913D01*
X143174087Y-108620480D01*
X143265413Y-108673207D01*
X143367270Y-108700499D01*
X143367271Y-108700500D01*
X143367273Y-108700500D01*
X143472727Y-108700500D01*
X149989343Y-108700500D01*
X150041669Y-108722174D01*
X151327826Y-110008331D01*
X151349500Y-110060657D01*
X151349500Y-122697273D01*
X151349500Y-122802727D01*
X151376793Y-122904588D01*
X151376795Y-122904592D01*
X151429517Y-122995909D01*
X151429518Y-122995910D01*
X151429520Y-122995913D01*
X154382670Y-125949062D01*
X156823349Y-128389741D01*
X156845023Y-128442067D01*
X156835971Y-128477531D01*
X156721230Y-128687661D01*
X156721229Y-128687665D01*
X156623733Y-128949062D01*
X156623728Y-128949081D01*
X156564421Y-129221708D01*
X156544518Y-129499993D01*
X156544518Y-129500006D01*
X156564421Y-129778291D01*
X156623728Y-130050918D01*
X156623733Y-130050937D01*
X156721228Y-130312333D01*
X156854942Y-130557211D01*
X156938544Y-130668890D01*
X157022145Y-130780568D01*
X157219432Y-130977855D01*
X157386948Y-131103255D01*
X157442788Y-131145057D01*
X157687666Y-131278771D01*
X157949062Y-131376266D01*
X157949067Y-131376267D01*
X157949077Y-131376271D01*
X158221706Y-131435578D01*
X158283549Y-131440001D01*
X158499993Y-131455482D01*
X158500000Y-131455482D01*
X158500007Y-131455482D01*
X158694805Y-131441549D01*
X158778294Y-131435578D01*
X159050923Y-131376271D01*
X159050934Y-131376266D01*
X159050937Y-131376266D01*
X159312333Y-131278771D01*
X159557211Y-131145057D01*
X159557210Y-131145057D01*
X159557213Y-131145056D01*
X159780568Y-130977855D01*
X159977855Y-130780568D01*
X160145056Y-130557213D01*
X160278769Y-130312337D01*
X160278769Y-130312335D01*
X160278771Y-130312333D01*
X160376266Y-130050937D01*
X160376266Y-130050934D01*
X160376271Y-130050923D01*
X160435578Y-129778294D01*
X160455482Y-129500000D01*
X160455482Y-129499993D01*
X160435578Y-129221708D01*
X160435578Y-129221706D01*
X160376271Y-128949077D01*
X160376267Y-128949067D01*
X160376266Y-128949062D01*
X160278771Y-128687666D01*
X160145057Y-128442788D01*
X160022274Y-128278769D01*
X159977855Y-128219432D01*
X159780568Y-128022145D01*
X159668890Y-127938544D01*
X159557211Y-127854942D01*
X159312333Y-127721228D01*
X159050937Y-127623733D01*
X159050925Y-127623730D01*
X159050923Y-127623729D01*
X158995971Y-127611775D01*
X158778291Y-127564421D01*
X158500007Y-127544518D01*
X158499993Y-127544518D01*
X158221708Y-127564421D01*
X157949081Y-127623728D01*
X157949062Y-127623733D01*
X157687665Y-127721229D01*
X157687661Y-127721230D01*
X157477531Y-127835971D01*
X157421219Y-127842025D01*
X157389741Y-127823349D01*
X154785824Y-125219432D01*
X152172174Y-122605781D01*
X152150500Y-122553455D01*
X152150500Y-110161129D01*
X152172174Y-110108803D01*
X152224500Y-110087129D01*
X152276826Y-110108803D01*
X153077826Y-110909803D01*
X153099500Y-110962129D01*
X153099500Y-119697273D01*
X153099500Y-119802727D01*
X153126793Y-119904588D01*
X153126795Y-119904592D01*
X153179517Y-119995909D01*
X153179518Y-119995910D01*
X153179520Y-119995913D01*
X161161460Y-127977852D01*
X168926931Y-135743323D01*
X168926936Y-135743329D01*
X168929520Y-135745913D01*
X169004087Y-135820480D01*
X169055232Y-135850008D01*
X169089710Y-135894941D01*
X169090541Y-135898364D01*
X169123728Y-136050918D01*
X169123733Y-136050937D01*
X169221228Y-136312333D01*
X169354942Y-136557211D01*
X169404736Y-136623728D01*
X169522145Y-136780568D01*
X169719432Y-136977855D01*
X169886948Y-137103255D01*
X169942788Y-137145057D01*
X170187666Y-137278771D01*
X170449062Y-137376266D01*
X170449067Y-137376267D01*
X170449077Y-137376271D01*
X170721706Y-137435578D01*
X170783549Y-137440001D01*
X170999993Y-137455482D01*
X171000000Y-137455482D01*
X171000007Y-137455482D01*
X171194805Y-137441549D01*
X171278294Y-137435578D01*
X171550923Y-137376271D01*
X171550934Y-137376266D01*
X171550937Y-137376266D01*
X171812333Y-137278771D01*
X171921010Y-137219429D01*
X172057213Y-137145056D01*
X172280568Y-136977855D01*
X172477855Y-136780568D01*
X172645056Y-136557213D01*
X172778769Y-136312337D01*
X172778769Y-136312335D01*
X172778771Y-136312333D01*
X172876266Y-136050937D01*
X172876266Y-136050934D01*
X172876271Y-136050923D01*
X172935578Y-135778294D01*
X172955482Y-135500000D01*
X172955482Y-135499993D01*
X172935578Y-135221708D01*
X172935578Y-135221706D01*
X172876271Y-134949077D01*
X172876267Y-134949067D01*
X172876266Y-134949062D01*
X172778771Y-134687666D01*
X172645057Y-134442788D01*
X172603255Y-134386948D01*
X172477855Y-134219432D01*
X172280568Y-134022145D01*
X172168890Y-133938544D01*
X172057211Y-133854942D01*
X171812333Y-133721228D01*
X171550937Y-133623733D01*
X171550925Y-133623730D01*
X171550923Y-133623729D01*
X171495971Y-133611775D01*
X171278291Y-133564421D01*
X171000007Y-133544518D01*
X170999993Y-133544518D01*
X170721708Y-133564421D01*
X170449081Y-133623728D01*
X170449062Y-133623733D01*
X170187666Y-133721228D01*
X169942788Y-133854942D01*
X169719429Y-134022147D01*
X169522147Y-134219429D01*
X169354942Y-134442788D01*
X169221229Y-134687665D01*
X169202472Y-134737955D01*
X169163878Y-134779407D01*
X169107277Y-134781428D01*
X169080812Y-134764420D01*
X153922174Y-119605781D01*
X153900500Y-119553455D01*
X153900500Y-111062601D01*
X153922174Y-111010275D01*
X153974500Y-110988601D01*
X154026826Y-111010275D01*
X154577826Y-111561275D01*
X154599500Y-111613601D01*
X154599500Y-116447273D01*
X154599500Y-116552727D01*
X154626793Y-116654588D01*
X154626795Y-116654592D01*
X154679517Y-116745909D01*
X154679518Y-116745910D01*
X154679520Y-116745913D01*
X155524614Y-117591006D01*
X156323349Y-118389741D01*
X156345023Y-118442067D01*
X156335971Y-118477531D01*
X156221230Y-118687661D01*
X156221229Y-118687665D01*
X156123733Y-118949062D01*
X156123728Y-118949081D01*
X156064421Y-119221708D01*
X156044518Y-119499993D01*
X156044518Y-119500006D01*
X156064421Y-119778291D01*
X156123728Y-120050918D01*
X156123733Y-120050937D01*
X156221228Y-120312333D01*
X156354942Y-120557211D01*
X156438544Y-120668890D01*
X156522145Y-120780568D01*
X156719432Y-120977855D01*
X156886948Y-121103255D01*
X156942788Y-121145057D01*
X157187666Y-121278771D01*
X157449062Y-121376266D01*
X157449067Y-121376267D01*
X157449077Y-121376271D01*
X157721706Y-121435578D01*
X157783549Y-121440001D01*
X157999993Y-121455482D01*
X158000000Y-121455482D01*
X158000007Y-121455482D01*
X158194805Y-121441549D01*
X158278294Y-121435578D01*
X158550923Y-121376271D01*
X158550934Y-121376266D01*
X158550937Y-121376266D01*
X158812333Y-121278771D01*
X159057211Y-121145057D01*
X159057210Y-121145057D01*
X159057213Y-121145056D01*
X159280568Y-120977855D01*
X159477855Y-120780568D01*
X159645056Y-120557213D01*
X159778769Y-120312337D01*
X159778769Y-120312335D01*
X159778771Y-120312333D01*
X159876266Y-120050937D01*
X159876266Y-120050934D01*
X159876271Y-120050923D01*
X159935578Y-119778294D01*
X159942212Y-119685529D01*
X159955482Y-119500006D01*
X159955482Y-119499993D01*
X159935578Y-119221708D01*
X159935578Y-119221706D01*
X159876271Y-118949077D01*
X159876267Y-118949067D01*
X159876266Y-118949062D01*
X159778771Y-118687666D01*
X159645057Y-118442788D01*
X159603255Y-118386948D01*
X159477855Y-118219432D01*
X159280568Y-118022145D01*
X159168890Y-117938544D01*
X159057211Y-117854942D01*
X158812333Y-117721228D01*
X158550937Y-117623733D01*
X158550925Y-117623730D01*
X158550923Y-117623729D01*
X158458769Y-117603682D01*
X158278291Y-117564421D01*
X158000007Y-117544518D01*
X157999993Y-117544518D01*
X157721708Y-117564421D01*
X157449081Y-117623728D01*
X157449062Y-117623733D01*
X157187665Y-117721229D01*
X157187661Y-117721230D01*
X156977531Y-117835971D01*
X156921219Y-117842025D01*
X156889741Y-117823349D01*
X155422174Y-116355781D01*
X155400500Y-116303455D01*
X155400500Y-111714073D01*
X155422174Y-111661747D01*
X155474500Y-111640073D01*
X155526826Y-111661747D01*
X159860991Y-115995912D01*
X159860992Y-115995913D01*
X159935559Y-116070480D01*
X160026885Y-116123207D01*
X160048615Y-116129029D01*
X160081788Y-116148181D01*
X169323349Y-125389742D01*
X169345023Y-125442068D01*
X169335971Y-125477533D01*
X169221228Y-125687666D01*
X169123733Y-125949062D01*
X169123728Y-125949081D01*
X169064421Y-126221708D01*
X169044518Y-126499993D01*
X169044518Y-126500006D01*
X169064421Y-126778291D01*
X169123728Y-127050918D01*
X169123733Y-127050937D01*
X169221228Y-127312333D01*
X169354942Y-127557211D01*
X169404736Y-127623728D01*
X169522145Y-127780568D01*
X169719432Y-127977855D01*
X169886948Y-128103255D01*
X169942788Y-128145057D01*
X170187666Y-128278771D01*
X170449062Y-128376266D01*
X170449067Y-128376267D01*
X170449077Y-128376271D01*
X170721706Y-128435578D01*
X170783549Y-128440001D01*
X170999993Y-128455482D01*
X171000000Y-128455482D01*
X171000007Y-128455482D01*
X171194805Y-128441549D01*
X171278294Y-128435578D01*
X171550923Y-128376271D01*
X171550934Y-128376266D01*
X171550937Y-128376266D01*
X171812333Y-128278771D01*
X171921010Y-128219429D01*
X172057213Y-128145056D01*
X172280568Y-127977855D01*
X172477855Y-127780568D01*
X172645056Y-127557213D01*
X172778769Y-127312337D01*
X172778769Y-127312335D01*
X172778771Y-127312333D01*
X172876266Y-127050937D01*
X172876266Y-127050934D01*
X172876271Y-127050923D01*
X172935578Y-126778294D01*
X172955482Y-126500000D01*
X172955482Y-126499993D01*
X172935578Y-126221708D01*
X172935578Y-126221706D01*
X172876271Y-125949077D01*
X172876267Y-125949067D01*
X172876266Y-125949062D01*
X172778771Y-125687666D01*
X172645057Y-125442788D01*
X172603255Y-125386948D01*
X172477855Y-125219432D01*
X172280568Y-125022145D01*
X172069479Y-124864126D01*
X172057211Y-124854942D01*
X171812333Y-124721228D01*
X171550937Y-124623733D01*
X171550925Y-124623730D01*
X171550923Y-124623729D01*
X171495971Y-124611775D01*
X171278291Y-124564421D01*
X171000007Y-124544518D01*
X170999993Y-124544518D01*
X170721708Y-124564421D01*
X170449081Y-124623728D01*
X170449062Y-124623733D01*
X170187666Y-124721228D01*
X169977533Y-124835971D01*
X169921220Y-124842026D01*
X169889742Y-124823349D01*
X165378726Y-120312333D01*
X160495913Y-115429520D01*
X160495910Y-115429518D01*
X160495909Y-115429517D01*
X160404589Y-115376793D01*
X160404584Y-115376791D01*
X160382855Y-115370969D01*
X160349682Y-115351817D01*
X154431970Y-109434105D01*
X175999500Y-109434105D01*
X175999500Y-153940894D01*
X176033606Y-154068181D01*
X176033610Y-154068190D01*
X176081132Y-154150500D01*
X176099500Y-154182314D01*
X176192686Y-154275500D01*
X176306814Y-154341392D01*
X176434105Y-154375499D01*
X176434106Y-154375500D01*
X176434108Y-154375500D01*
X186565894Y-154375500D01*
X186565894Y-154375499D01*
X186693186Y-154341392D01*
X186807314Y-154275500D01*
X186900500Y-154182314D01*
X186966392Y-154068186D01*
X187000499Y-153940894D01*
X187000500Y-153940894D01*
X187000500Y-109434106D01*
X187000499Y-109434105D01*
X186966393Y-109306818D01*
X186966392Y-109306814D01*
X186900500Y-109192686D01*
X186807314Y-109099500D01*
X186693190Y-109033610D01*
X186693181Y-109033606D01*
X186565894Y-108999500D01*
X186565892Y-108999500D01*
X176565892Y-108999500D01*
X176434108Y-108999500D01*
X176434106Y-108999500D01*
X176306818Y-109033606D01*
X176306809Y-109033610D01*
X176192685Y-109099500D01*
X176099500Y-109192685D01*
X176033610Y-109306809D01*
X176033606Y-109306818D01*
X175999500Y-109434105D01*
X154431970Y-109434105D01*
X153774691Y-108776826D01*
X153753017Y-108724500D01*
X153774691Y-108672174D01*
X153827017Y-108650500D01*
X188350455Y-108650500D01*
X188402781Y-108672174D01*
X188515826Y-108785218D01*
X188537500Y-108837544D01*
X188537500Y-139885273D01*
X188537500Y-139990727D01*
X188564793Y-140092588D01*
X188564795Y-140092592D01*
X188617517Y-140183909D01*
X188617518Y-140183910D01*
X188617520Y-140183913D01*
X191876394Y-143442787D01*
X194823349Y-146389742D01*
X194845023Y-146442068D01*
X194835971Y-146477533D01*
X194721228Y-146687666D01*
X194623733Y-146949062D01*
X194623728Y-146949081D01*
X194564421Y-147221708D01*
X194544518Y-147499993D01*
X194544518Y-147500006D01*
X194564421Y-147778291D01*
X194623728Y-148050918D01*
X194623733Y-148050937D01*
X194721228Y-148312333D01*
X194854942Y-148557211D01*
X194934904Y-148664027D01*
X195022145Y-148780568D01*
X195219432Y-148977855D01*
X195386948Y-149103255D01*
X195442788Y-149145057D01*
X195687666Y-149278771D01*
X195949062Y-149376266D01*
X195949067Y-149376267D01*
X195949077Y-149376271D01*
X196221706Y-149435578D01*
X196283549Y-149440001D01*
X196499993Y-149455482D01*
X196500000Y-149455482D01*
X196500007Y-149455482D01*
X196694805Y-149441549D01*
X196778294Y-149435578D01*
X197050923Y-149376271D01*
X197050934Y-149376266D01*
X197050937Y-149376266D01*
X197312333Y-149278771D01*
X197557211Y-149145057D01*
X197557210Y-149145057D01*
X197557213Y-149145056D01*
X197780568Y-148977855D01*
X197977855Y-148780568D01*
X198145056Y-148557213D01*
X198278769Y-148312337D01*
X198278769Y-148312335D01*
X198278771Y-148312333D01*
X198376266Y-148050937D01*
X198376266Y-148050934D01*
X198376271Y-148050923D01*
X198435578Y-147778294D01*
X198451840Y-147550923D01*
X198455482Y-147500006D01*
X198455482Y-147499993D01*
X198435578Y-147221708D01*
X198435578Y-147221706D01*
X198376271Y-146949077D01*
X198376267Y-146949067D01*
X198376266Y-146949062D01*
X198278771Y-146687666D01*
X198145057Y-146442788D01*
X198022274Y-146278769D01*
X197977855Y-146219432D01*
X197780568Y-146022145D01*
X197569479Y-145864126D01*
X197557211Y-145854942D01*
X197312333Y-145721228D01*
X197050937Y-145623733D01*
X197050925Y-145623730D01*
X197050923Y-145623729D01*
X196988998Y-145610258D01*
X196778291Y-145564421D01*
X196500007Y-145544518D01*
X196499993Y-145544518D01*
X196221708Y-145564421D01*
X195949081Y-145623728D01*
X195949062Y-145623733D01*
X195687666Y-145721228D01*
X195477533Y-145835971D01*
X195421220Y-145842026D01*
X195389742Y-145823349D01*
X189360174Y-139793781D01*
X189338500Y-139741455D01*
X189338500Y-132083545D01*
X189360174Y-132031219D01*
X189412500Y-132009545D01*
X189464826Y-132031219D01*
X194823349Y-137389742D01*
X194845023Y-137442068D01*
X194835971Y-137477533D01*
X194721228Y-137687666D01*
X194623733Y-137949062D01*
X194623728Y-137949081D01*
X194564421Y-138221708D01*
X194544518Y-138499993D01*
X194544518Y-138500006D01*
X194564421Y-138778291D01*
X194623728Y-139050918D01*
X194623733Y-139050937D01*
X194721228Y-139312333D01*
X194854942Y-139557211D01*
X194871088Y-139578779D01*
X195022145Y-139780568D01*
X195219432Y-139977855D01*
X195372698Y-140092588D01*
X195442788Y-140145057D01*
X195687666Y-140278771D01*
X195949062Y-140376266D01*
X195949067Y-140376267D01*
X195949077Y-140376271D01*
X196221706Y-140435578D01*
X196283549Y-140440001D01*
X196499993Y-140455482D01*
X196500000Y-140455482D01*
X196500007Y-140455482D01*
X196694805Y-140441549D01*
X196778294Y-140435578D01*
X197050923Y-140376271D01*
X197050934Y-140376266D01*
X197050937Y-140376266D01*
X197312333Y-140278771D01*
X197522469Y-140164028D01*
X197557213Y-140145056D01*
X197780568Y-139977855D01*
X197977855Y-139780568D01*
X198145056Y-139557213D01*
X198278769Y-139312337D01*
X198278770Y-139312334D01*
X198278771Y-139312333D01*
X198376266Y-139050937D01*
X198376266Y-139050934D01*
X198376271Y-139050923D01*
X198435578Y-138778294D01*
X198455482Y-138500000D01*
X198455482Y-138499993D01*
X198435578Y-138221708D01*
X198435578Y-138221706D01*
X198376271Y-137949077D01*
X198376267Y-137949067D01*
X198376266Y-137949062D01*
X198278771Y-137687666D01*
X198145057Y-137442788D01*
X198022274Y-137278769D01*
X197977855Y-137219432D01*
X197780568Y-137022145D01*
X197569479Y-136864126D01*
X197557211Y-136854942D01*
X197312333Y-136721228D01*
X197050937Y-136623733D01*
X197050925Y-136623730D01*
X197050923Y-136623729D01*
X196995971Y-136611775D01*
X196778291Y-136564421D01*
X196500007Y-136544518D01*
X196499993Y-136544518D01*
X196221708Y-136564421D01*
X195949081Y-136623728D01*
X195949062Y-136623733D01*
X195687666Y-136721228D01*
X195477533Y-136835971D01*
X195421220Y-136842026D01*
X195389742Y-136823349D01*
X189960174Y-131393781D01*
X189938500Y-131341455D01*
X189938500Y-123683544D01*
X189960174Y-123631218D01*
X190012500Y-123609544D01*
X190064826Y-123631218D01*
X194823349Y-128389741D01*
X194845023Y-128442067D01*
X194835971Y-128477531D01*
X194721230Y-128687661D01*
X194721229Y-128687665D01*
X194623733Y-128949062D01*
X194623728Y-128949081D01*
X194564421Y-129221708D01*
X194544518Y-129499993D01*
X194544518Y-129500006D01*
X194564421Y-129778291D01*
X194623728Y-130050918D01*
X194623733Y-130050937D01*
X194721228Y-130312333D01*
X194854942Y-130557211D01*
X194938544Y-130668890D01*
X195022145Y-130780568D01*
X195219432Y-130977855D01*
X195386948Y-131103255D01*
X195442788Y-131145057D01*
X195687666Y-131278771D01*
X195949062Y-131376266D01*
X195949067Y-131376267D01*
X195949077Y-131376271D01*
X196221706Y-131435578D01*
X196283549Y-131440001D01*
X196499993Y-131455482D01*
X196500000Y-131455482D01*
X196500007Y-131455482D01*
X196694805Y-131441549D01*
X196778294Y-131435578D01*
X197050923Y-131376271D01*
X197050934Y-131376266D01*
X197050937Y-131376266D01*
X197312333Y-131278771D01*
X197557211Y-131145057D01*
X197557210Y-131145057D01*
X197557213Y-131145056D01*
X197780568Y-130977855D01*
X197977855Y-130780568D01*
X198145056Y-130557213D01*
X198278769Y-130312337D01*
X198278769Y-130312335D01*
X198278771Y-130312333D01*
X198376266Y-130050937D01*
X198376266Y-130050934D01*
X198376271Y-130050923D01*
X198435578Y-129778294D01*
X198455482Y-129500000D01*
X198455482Y-129499993D01*
X198435578Y-129221708D01*
X198435578Y-129221706D01*
X198376271Y-128949077D01*
X198376267Y-128949067D01*
X198376266Y-128949062D01*
X198278771Y-128687666D01*
X198145057Y-128442788D01*
X198022274Y-128278769D01*
X197977855Y-128219432D01*
X197780568Y-128022145D01*
X197668890Y-127938544D01*
X197557211Y-127854942D01*
X197312333Y-127721228D01*
X197050937Y-127623733D01*
X197050925Y-127623730D01*
X197050923Y-127623729D01*
X196995971Y-127611775D01*
X196778291Y-127564421D01*
X196500007Y-127544518D01*
X196499993Y-127544518D01*
X196221708Y-127564421D01*
X195949081Y-127623728D01*
X195949062Y-127623733D01*
X195687665Y-127721229D01*
X195687661Y-127721230D01*
X195477531Y-127835971D01*
X195421219Y-127842025D01*
X195389741Y-127823349D01*
X190560174Y-122993781D01*
X190538500Y-122941455D01*
X190538500Y-108283545D01*
X190560174Y-108231219D01*
X190612500Y-108209545D01*
X190664826Y-108231219D01*
X195077826Y-112644219D01*
X195099500Y-112696545D01*
X195099500Y-117531373D01*
X195077826Y-117583699D01*
X195041230Y-117603682D01*
X194949081Y-117623728D01*
X194949062Y-117623733D01*
X194687666Y-117721228D01*
X194442788Y-117854942D01*
X194219429Y-118022147D01*
X194022147Y-118219429D01*
X193854942Y-118442788D01*
X193721228Y-118687666D01*
X193623733Y-118949062D01*
X193623728Y-118949081D01*
X193564421Y-119221708D01*
X193544518Y-119499993D01*
X193544518Y-119500006D01*
X193564421Y-119778291D01*
X193623728Y-120050918D01*
X193623733Y-120050937D01*
X193721228Y-120312333D01*
X193854942Y-120557211D01*
X193938544Y-120668890D01*
X194022145Y-120780568D01*
X194219432Y-120977855D01*
X194386948Y-121103255D01*
X194442788Y-121145057D01*
X194687666Y-121278771D01*
X194949062Y-121376266D01*
X194949067Y-121376267D01*
X194949077Y-121376271D01*
X195221706Y-121435578D01*
X195283549Y-121440001D01*
X195499993Y-121455482D01*
X195500000Y-121455482D01*
X195500007Y-121455482D01*
X195694805Y-121441549D01*
X195778294Y-121435578D01*
X196050923Y-121376271D01*
X196050934Y-121376266D01*
X196050937Y-121376266D01*
X196312333Y-121278771D01*
X196557211Y-121145057D01*
X196557210Y-121145057D01*
X196557213Y-121145056D01*
X196780568Y-120977855D01*
X196977855Y-120780568D01*
X197145056Y-120557213D01*
X197278769Y-120312337D01*
X197278769Y-120312335D01*
X197278771Y-120312333D01*
X197376266Y-120050937D01*
X197376266Y-120050934D01*
X197376271Y-120050923D01*
X197435578Y-119778294D01*
X197442212Y-119685529D01*
X197455482Y-119500006D01*
X197455482Y-119499993D01*
X197435578Y-119221708D01*
X197435578Y-119221706D01*
X197376271Y-118949077D01*
X197376267Y-118949067D01*
X197376266Y-118949062D01*
X197278771Y-118687666D01*
X197145057Y-118442788D01*
X197103255Y-118386948D01*
X196977855Y-118219432D01*
X196780568Y-118022145D01*
X196668890Y-117938544D01*
X196557211Y-117854942D01*
X196312333Y-117721228D01*
X196050937Y-117623733D01*
X196050925Y-117623730D01*
X196050923Y-117623729D01*
X195958770Y-117603682D01*
X195912247Y-117571380D01*
X195900500Y-117531373D01*
X195900500Y-112447271D01*
X195900499Y-112447270D01*
X195873208Y-112345417D01*
X195873207Y-112345413D01*
X195820480Y-112254087D01*
X195745913Y-112179520D01*
X193066393Y-109500000D01*
X197544958Y-109500000D01*
X197565111Y-109858853D01*
X197565113Y-109858865D01*
X197625313Y-110213184D01*
X197724815Y-110558560D01*
X197862352Y-110890607D01*
X197862363Y-110890628D01*
X198036206Y-111205173D01*
X198036210Y-111205180D01*
X198244199Y-111498313D01*
X198350213Y-111616942D01*
X199485502Y-110481652D01*
X199529588Y-110542330D01*
X199707670Y-110720412D01*
X199768346Y-110764495D01*
X198633055Y-111899786D01*
X198751681Y-112005796D01*
X199044819Y-112213789D01*
X199044826Y-112213793D01*
X199359371Y-112387636D01*
X199359392Y-112387647D01*
X199691439Y-112525184D01*
X200036816Y-112624686D01*
X200036814Y-112624686D01*
X200391134Y-112684886D01*
X200391146Y-112684888D01*
X200750000Y-112705041D01*
X201108853Y-112684888D01*
X201108865Y-112684886D01*
X201463184Y-112624686D01*
X201808560Y-112525184D01*
X202140607Y-112387647D01*
X202140628Y-112387636D01*
X202455173Y-112213793D01*
X202455180Y-112213789D01*
X202748318Y-112005796D01*
X202866942Y-111899786D01*
X202866943Y-111899786D01*
X201731653Y-110764496D01*
X201792330Y-110720412D01*
X201970412Y-110542330D01*
X202014496Y-110481653D01*
X203149786Y-111616943D01*
X203149786Y-111616942D01*
X203255796Y-111498318D01*
X203463789Y-111205180D01*
X203463793Y-111205173D01*
X203637636Y-110890628D01*
X203637647Y-110890607D01*
X203775184Y-110558560D01*
X203874686Y-110213184D01*
X203934886Y-109858865D01*
X203934888Y-109858853D01*
X203955041Y-109500000D01*
X203934888Y-109141146D01*
X203934886Y-109141134D01*
X203874686Y-108786815D01*
X203775184Y-108441439D01*
X203637647Y-108109392D01*
X203637636Y-108109371D01*
X203463793Y-107794826D01*
X203463789Y-107794819D01*
X203255796Y-107501681D01*
X203149786Y-107383056D01*
X203149786Y-107383055D01*
X202014495Y-108518345D01*
X201970412Y-108457670D01*
X201792330Y-108279588D01*
X201731652Y-108235502D01*
X202866942Y-107100213D01*
X202748313Y-106994199D01*
X202455180Y-106786210D01*
X202455173Y-106786206D01*
X202140628Y-106612363D01*
X202140607Y-106612352D01*
X201808560Y-106474815D01*
X201463183Y-106375313D01*
X201463185Y-106375313D01*
X201108865Y-106315113D01*
X201108853Y-106315111D01*
X200750000Y-106294958D01*
X200391146Y-106315111D01*
X200391134Y-106315113D01*
X200036815Y-106375313D01*
X199691439Y-106474815D01*
X199359392Y-106612352D01*
X199359371Y-106612363D01*
X199044826Y-106786206D01*
X199044819Y-106786210D01*
X198751686Y-106994199D01*
X198633055Y-107100212D01*
X199768346Y-108235503D01*
X199707670Y-108279588D01*
X199529588Y-108457670D01*
X199485503Y-108518346D01*
X198350212Y-107383055D01*
X198244199Y-107501686D01*
X198036210Y-107794819D01*
X198036206Y-107794826D01*
X197862363Y-108109371D01*
X197862352Y-108109392D01*
X197724815Y-108441439D01*
X197625313Y-108786815D01*
X197565113Y-109141134D01*
X197565111Y-109141146D01*
X197544958Y-109500000D01*
X193066393Y-109500000D01*
X189656913Y-106090520D01*
X189656910Y-106090518D01*
X189656909Y-106090517D01*
X189565592Y-106037795D01*
X189565588Y-106037793D01*
X189546778Y-106032753D01*
X189463727Y-106010500D01*
X189463726Y-106010500D01*
X159507545Y-106010500D01*
X159455219Y-105988826D01*
X159155457Y-105689064D01*
X159133783Y-105636738D01*
X159136967Y-105615266D01*
X159185300Y-105455934D01*
X159205583Y-105250000D01*
X159185300Y-105044066D01*
X159125232Y-104846046D01*
X159027685Y-104663550D01*
X158896410Y-104503590D01*
X158736450Y-104372315D01*
X158553954Y-104274768D01*
X158442158Y-104240855D01*
X158355935Y-104214700D01*
X158150000Y-104194417D01*
X157944064Y-104214700D01*
X157746043Y-104274769D01*
X157563549Y-104372315D01*
X157403590Y-104503589D01*
X157403589Y-104503590D01*
X157272315Y-104663549D01*
X157174769Y-104846043D01*
X157114700Y-105044064D01*
X157114700Y-105044066D01*
X157094417Y-105250000D01*
X157114700Y-105455934D01*
X157174768Y-105653954D01*
X157272315Y-105836450D01*
X157403590Y-105996410D01*
X157563550Y-106127685D01*
X157746046Y-106225232D01*
X157944066Y-106285300D01*
X158150000Y-106305583D01*
X158355934Y-106285300D01*
X158515260Y-106236969D01*
X158571621Y-106242521D01*
X158589064Y-106255457D01*
X158817781Y-106484174D01*
X158839455Y-106536500D01*
X158817781Y-106588826D01*
X158765455Y-106610500D01*
X157567545Y-106610500D01*
X157515219Y-106588826D01*
X156615457Y-105689064D01*
X156593783Y-105636738D01*
X156596967Y-105615266D01*
X156645300Y-105455934D01*
X156665583Y-105250000D01*
X156645300Y-105044066D01*
X156585232Y-104846046D01*
X156487685Y-104663550D01*
X156356410Y-104503590D01*
X156196450Y-104372315D01*
X156013954Y-104274768D01*
X155902158Y-104240855D01*
X155815935Y-104214700D01*
X155610000Y-104194417D01*
X155404064Y-104214700D01*
X155206043Y-104274769D01*
X155023549Y-104372315D01*
X154863590Y-104503589D01*
X154863589Y-104503590D01*
X154732315Y-104663549D01*
X154634769Y-104846043D01*
X154574700Y-105044064D01*
X154574700Y-105044066D01*
X154554417Y-105250000D01*
X154574700Y-105455934D01*
X154634768Y-105653954D01*
X154732315Y-105836450D01*
X154863590Y-105996410D01*
X155023550Y-106127685D01*
X155206046Y-106225232D01*
X155404066Y-106285300D01*
X155610000Y-106305583D01*
X155815934Y-106285300D01*
X155975260Y-106236969D01*
X156031621Y-106242521D01*
X156049064Y-106255457D01*
X156877781Y-107084174D01*
X156899455Y-107136500D01*
X156877781Y-107188826D01*
X156825455Y-107210500D01*
X155627545Y-107210500D01*
X155575219Y-107188826D01*
X154075457Y-105689064D01*
X154053783Y-105636738D01*
X154056967Y-105615266D01*
X154105300Y-105455934D01*
X154125583Y-105250000D01*
X154105300Y-105044066D01*
X154045232Y-104846046D01*
X153947685Y-104663550D01*
X153816410Y-104503590D01*
X153656450Y-104372315D01*
X153473954Y-104274768D01*
X153362158Y-104240855D01*
X153275935Y-104214700D01*
X153070000Y-104194417D01*
X152864064Y-104214700D01*
X152666043Y-104274769D01*
X152483549Y-104372315D01*
X152323590Y-104503589D01*
X152323589Y-104503590D01*
X152192315Y-104663549D01*
X152094769Y-104846043D01*
X152034700Y-105044064D01*
X152034700Y-105044066D01*
X152014417Y-105250000D01*
X152034700Y-105455934D01*
X152094768Y-105653954D01*
X152192315Y-105836450D01*
X152323590Y-105996410D01*
X152483550Y-106127685D01*
X152666046Y-106225232D01*
X152864066Y-106285300D01*
X153070000Y-106305583D01*
X153275934Y-106285300D01*
X153435260Y-106236969D01*
X153491621Y-106242521D01*
X153509064Y-106255457D01*
X154976781Y-107723174D01*
X154998455Y-107775500D01*
X154976781Y-107827826D01*
X154924455Y-107849500D01*
X153726544Y-107849500D01*
X153674218Y-107827826D01*
X151535457Y-105689064D01*
X151513783Y-105636738D01*
X151516967Y-105615266D01*
X151565300Y-105455934D01*
X151585583Y-105250000D01*
X151565300Y-105044066D01*
X151505232Y-104846046D01*
X151407685Y-104663550D01*
X151276410Y-104503590D01*
X151116450Y-104372315D01*
X150933954Y-104274768D01*
X150822158Y-104240855D01*
X150735935Y-104214700D01*
X150530000Y-104194417D01*
X150324064Y-104214700D01*
X150126043Y-104274769D01*
X149943549Y-104372315D01*
X149783590Y-104503589D01*
X149783589Y-104503590D01*
X149652315Y-104663549D01*
X149554769Y-104846043D01*
X149494700Y-105044064D01*
X149474417Y-105250000D01*
X149494700Y-105455935D01*
X149554769Y-105653956D01*
X149652315Y-105836450D01*
X149768937Y-105978555D01*
X149785378Y-106032753D01*
X149758679Y-106082703D01*
X149711734Y-106099500D01*
X149436545Y-106099500D01*
X149384219Y-106077826D01*
X148995457Y-105689064D01*
X148973783Y-105636738D01*
X148976967Y-105615266D01*
X149025300Y-105455934D01*
X149045583Y-105250000D01*
X149025300Y-105044066D01*
X148965232Y-104846046D01*
X148867685Y-104663550D01*
X148736410Y-104503590D01*
X148576450Y-104372315D01*
X148393954Y-104274768D01*
X148282158Y-104240855D01*
X148195935Y-104214700D01*
X147990000Y-104194417D01*
X147784064Y-104214700D01*
X147586043Y-104274769D01*
X147403549Y-104372315D01*
X147243590Y-104503589D01*
X147243589Y-104503590D01*
X147112315Y-104663549D01*
X147014769Y-104846043D01*
X146954700Y-105044064D01*
X146954700Y-105044066D01*
X146934417Y-105250000D01*
X146954700Y-105455934D01*
X147014768Y-105653954D01*
X147112315Y-105836450D01*
X147243590Y-105996410D01*
X147403550Y-106127685D01*
X147586046Y-106225232D01*
X147784066Y-106285300D01*
X147990000Y-106305583D01*
X148195934Y-106285300D01*
X148355260Y-106236969D01*
X148411621Y-106242521D01*
X148429064Y-106255457D01*
X148746781Y-106573174D01*
X148768455Y-106625500D01*
X148746781Y-106677826D01*
X148694455Y-106699500D01*
X147496545Y-106699500D01*
X147444219Y-106677826D01*
X146455457Y-105689064D01*
X146433783Y-105636738D01*
X146436967Y-105615266D01*
X146485300Y-105455934D01*
X146505583Y-105250000D01*
X146485300Y-105044066D01*
X146425232Y-104846046D01*
X146327685Y-104663550D01*
X146196410Y-104503590D01*
X146036450Y-104372315D01*
X145853954Y-104274768D01*
X145742158Y-104240855D01*
X145655935Y-104214700D01*
X145450000Y-104194417D01*
X145244064Y-104214700D01*
X145046043Y-104274769D01*
X144863549Y-104372315D01*
X144703590Y-104503589D01*
X144703589Y-104503590D01*
X144572315Y-104663549D01*
X144474769Y-104846043D01*
X144414700Y-105044064D01*
X144414700Y-105044066D01*
X144394417Y-105250000D01*
X144414700Y-105455934D01*
X144474768Y-105653954D01*
X144572315Y-105836450D01*
X144703590Y-105996410D01*
X144863550Y-106127685D01*
X145046046Y-106225232D01*
X145244066Y-106285300D01*
X145450000Y-106305583D01*
X145655934Y-106285300D01*
X145815260Y-106236969D01*
X145871621Y-106242521D01*
X145889064Y-106255457D01*
X146806781Y-107173174D01*
X146828455Y-107225500D01*
X146806781Y-107277826D01*
X146754455Y-107299500D01*
X145556545Y-107299500D01*
X145504219Y-107277826D01*
X143915457Y-105689064D01*
X143893783Y-105636738D01*
X143896967Y-105615266D01*
X143945300Y-105455934D01*
X143965583Y-105250000D01*
X143945300Y-105044066D01*
X143885232Y-104846046D01*
X143787685Y-104663550D01*
X143656410Y-104503590D01*
X143496450Y-104372315D01*
X143313954Y-104274768D01*
X143202158Y-104240855D01*
X143115935Y-104214700D01*
X142910000Y-104194417D01*
X142704064Y-104214700D01*
X142506043Y-104274769D01*
X142323549Y-104372315D01*
X142163590Y-104503589D01*
X142163589Y-104503590D01*
X142032315Y-104663549D01*
X141934769Y-104846043D01*
X141874700Y-105044064D01*
X141874700Y-105044066D01*
X141854417Y-105250000D01*
X141874700Y-105455934D01*
X141934768Y-105653954D01*
X142032315Y-105836450D01*
X142163590Y-105996410D01*
X142323550Y-106127685D01*
X142506046Y-106225232D01*
X142704066Y-106285300D01*
X142910000Y-106305583D01*
X143115934Y-106285300D01*
X143275260Y-106236969D01*
X143331621Y-106242521D01*
X143349064Y-106255457D01*
X144866781Y-107773174D01*
X144888455Y-107825500D01*
X144866781Y-107877826D01*
X144814455Y-107899500D01*
X143616545Y-107899500D01*
X143564219Y-107877826D01*
X141375457Y-105689064D01*
X141353783Y-105636738D01*
X141356967Y-105615266D01*
X141405300Y-105455934D01*
X141425583Y-105250000D01*
X141405300Y-105044066D01*
X141345232Y-104846046D01*
X141247685Y-104663550D01*
X141116410Y-104503590D01*
X140956450Y-104372315D01*
X140773954Y-104274768D01*
X140662158Y-104240855D01*
X140575935Y-104214700D01*
X140370000Y-104194417D01*
X140164064Y-104214700D01*
X139966043Y-104274769D01*
X139783549Y-104372315D01*
X139623590Y-104503589D01*
X139623589Y-104503590D01*
X139492315Y-104663549D01*
X139394769Y-104846043D01*
X139334700Y-105044064D01*
X139334700Y-105044066D01*
X139314417Y-105250000D01*
X138885583Y-105250000D01*
X138865300Y-105044066D01*
X138805232Y-104846046D01*
X138707685Y-104663550D01*
X138576410Y-104503590D01*
X138416450Y-104372315D01*
X138233954Y-104274768D01*
X138122158Y-104240855D01*
X138035935Y-104214700D01*
X137830000Y-104194417D01*
X137624064Y-104214700D01*
X137426043Y-104274769D01*
X137243549Y-104372315D01*
X137083590Y-104503589D01*
X137083589Y-104503590D01*
X136952315Y-104663549D01*
X136854769Y-104846043D01*
X136794700Y-105044064D01*
X136794700Y-105044066D01*
X136774417Y-105250000D01*
X136794700Y-105455934D01*
X136854768Y-105653954D01*
X136952315Y-105836450D01*
X137083590Y-105996410D01*
X137243550Y-106127685D01*
X137374813Y-106197847D01*
X137390384Y-106206170D01*
X137426314Y-106249951D01*
X137429500Y-106271432D01*
X137429500Y-153692273D01*
X137429500Y-153797727D01*
X137453102Y-153885813D01*
X137456793Y-153899588D01*
X137456795Y-153899592D01*
X137509517Y-153990909D01*
X137509518Y-153990910D01*
X137509520Y-153990913D01*
X138144530Y-154625923D01*
X138741781Y-155223174D01*
X138763455Y-155275500D01*
X138741781Y-155327826D01*
X138689455Y-155349500D01*
X138283544Y-155349500D01*
X138231218Y-155327826D01*
X136835174Y-153931781D01*
X136813500Y-153879455D01*
X136813500Y-106320273D01*
X136786207Y-106218413D01*
X136786207Y-106218412D01*
X136733482Y-106127090D01*
X136733481Y-106127089D01*
X136733480Y-106127087D01*
X136295457Y-105689064D01*
X136273783Y-105636738D01*
X136276967Y-105615266D01*
X136325300Y-105455934D01*
X136345583Y-105250000D01*
X136325300Y-105044066D01*
X136265232Y-104846046D01*
X136167685Y-104663550D01*
X136036410Y-104503590D01*
X135876450Y-104372315D01*
X135693954Y-104274768D01*
X135582158Y-104240855D01*
X135495935Y-104214700D01*
X135290000Y-104194417D01*
X135084064Y-104214700D01*
X134886043Y-104274769D01*
X134703549Y-104372315D01*
X134543590Y-104503589D01*
X134543589Y-104503590D01*
X134412315Y-104663549D01*
X134314769Y-104846043D01*
X134254700Y-105044064D01*
X134254700Y-105044066D01*
X134234417Y-105250000D01*
X134254700Y-105455934D01*
X134314768Y-105653954D01*
X134412315Y-105836450D01*
X134543590Y-105996410D01*
X134703550Y-106127685D01*
X134886046Y-106225232D01*
X135084066Y-106285300D01*
X135290000Y-106305583D01*
X135495934Y-106285300D01*
X135655260Y-106236969D01*
X135711621Y-106242521D01*
X135729064Y-106255457D01*
X135990826Y-106517219D01*
X136012500Y-106569545D01*
X136012500Y-153404166D01*
X135990826Y-153456492D01*
X135938500Y-153478166D01*
X135886174Y-153456492D01*
X135869166Y-153430026D01*
X135778771Y-153187666D01*
X135645057Y-152942788D01*
X135534294Y-152794826D01*
X135477855Y-152719432D01*
X135280568Y-152522145D01*
X135168890Y-152438544D01*
X135057211Y-152354942D01*
X134812333Y-152221228D01*
X134550937Y-152123733D01*
X134550925Y-152123730D01*
X134550923Y-152123729D01*
X134442822Y-152100213D01*
X134278291Y-152064421D01*
X134000007Y-152044518D01*
X133999993Y-152044518D01*
X133721708Y-152064421D01*
X133449081Y-152123728D01*
X133449062Y-152123733D01*
X133187666Y-152221228D01*
X132942788Y-152354942D01*
X132719429Y-152522147D01*
X132522147Y-152719429D01*
X132354942Y-152942788D01*
X132221228Y-153187666D01*
X132123733Y-153449062D01*
X132123728Y-153449081D01*
X132064421Y-153721708D01*
X132044518Y-153999993D01*
X130400500Y-153999993D01*
X130400500Y-144499993D01*
X131044518Y-144499993D01*
X131044518Y-144500006D01*
X131064421Y-144778291D01*
X131123728Y-145050918D01*
X131123733Y-145050937D01*
X131221228Y-145312333D01*
X131354942Y-145557211D01*
X131394653Y-145610258D01*
X131522145Y-145780568D01*
X131719432Y-145977855D01*
X131886948Y-146103255D01*
X131942788Y-146145057D01*
X132187666Y-146278771D01*
X132449062Y-146376266D01*
X132449067Y-146376267D01*
X132449077Y-146376271D01*
X132721706Y-146435578D01*
X132783549Y-146440001D01*
X132999993Y-146455482D01*
X133000000Y-146455482D01*
X133000007Y-146455482D01*
X133194805Y-146441549D01*
X133278294Y-146435578D01*
X133550923Y-146376271D01*
X133550934Y-146376266D01*
X133550937Y-146376266D01*
X133812333Y-146278771D01*
X133921010Y-146219429D01*
X134057213Y-146145056D01*
X134280568Y-145977855D01*
X134477855Y-145780568D01*
X134645056Y-145557213D01*
X134778769Y-145312337D01*
X134778770Y-145312334D01*
X134778771Y-145312333D01*
X134876266Y-145050937D01*
X134876266Y-145050934D01*
X134876271Y-145050923D01*
X134935578Y-144778294D01*
X134955482Y-144500000D01*
X134955482Y-144499993D01*
X134935578Y-144221708D01*
X134935578Y-144221706D01*
X134876271Y-143949077D01*
X134876267Y-143949067D01*
X134876266Y-143949062D01*
X134778771Y-143687666D01*
X134645057Y-143442788D01*
X134603255Y-143386948D01*
X134477855Y-143219432D01*
X134280568Y-143022145D01*
X134168890Y-142938544D01*
X134057211Y-142854942D01*
X133812333Y-142721228D01*
X133550937Y-142623733D01*
X133550925Y-142623730D01*
X133550923Y-142623729D01*
X133495971Y-142611775D01*
X133278291Y-142564421D01*
X133000007Y-142544518D01*
X132999993Y-142544518D01*
X132721708Y-142564421D01*
X132449081Y-142623728D01*
X132449062Y-142623733D01*
X132187666Y-142721228D01*
X131942788Y-142854942D01*
X131719429Y-143022147D01*
X131522147Y-143219429D01*
X131354942Y-143442788D01*
X131221228Y-143687666D01*
X131123733Y-143949062D01*
X131123728Y-143949081D01*
X131064421Y-144221708D01*
X131044518Y-144499993D01*
X130400500Y-144499993D01*
X130400500Y-135499993D01*
X131044518Y-135499993D01*
X131044518Y-135500006D01*
X131064421Y-135778291D01*
X131123728Y-136050918D01*
X131123733Y-136050937D01*
X131221228Y-136312333D01*
X131354942Y-136557211D01*
X131404736Y-136623728D01*
X131522145Y-136780568D01*
X131719432Y-136977855D01*
X131886948Y-137103255D01*
X131942788Y-137145057D01*
X132187666Y-137278771D01*
X132449062Y-137376266D01*
X132449067Y-137376267D01*
X132449077Y-137376271D01*
X132721706Y-137435578D01*
X132783549Y-137440001D01*
X132999993Y-137455482D01*
X133000000Y-137455482D01*
X133000007Y-137455482D01*
X133194805Y-137441549D01*
X133278294Y-137435578D01*
X133550923Y-137376271D01*
X133550934Y-137376266D01*
X133550937Y-137376266D01*
X133812333Y-137278771D01*
X133921010Y-137219429D01*
X134057213Y-137145056D01*
X134280568Y-136977855D01*
X134477855Y-136780568D01*
X134645056Y-136557213D01*
X134778769Y-136312337D01*
X134778769Y-136312335D01*
X134778771Y-136312333D01*
X134876266Y-136050937D01*
X134876266Y-136050934D01*
X134876271Y-136050923D01*
X134935578Y-135778294D01*
X134955482Y-135500000D01*
X134955482Y-135499993D01*
X134935578Y-135221708D01*
X134935578Y-135221706D01*
X134876271Y-134949077D01*
X134876267Y-134949067D01*
X134876266Y-134949062D01*
X134778771Y-134687666D01*
X134645057Y-134442788D01*
X134603255Y-134386948D01*
X134477855Y-134219432D01*
X134280568Y-134022145D01*
X134168890Y-133938544D01*
X134057211Y-133854942D01*
X133812333Y-133721228D01*
X133550937Y-133623733D01*
X133550925Y-133623730D01*
X133550923Y-133623729D01*
X133495971Y-133611775D01*
X133278291Y-133564421D01*
X133000007Y-133544518D01*
X132999993Y-133544518D01*
X132721708Y-133564421D01*
X132449081Y-133623728D01*
X132449062Y-133623733D01*
X132187666Y-133721228D01*
X131942788Y-133854942D01*
X131719429Y-134022147D01*
X131522147Y-134219429D01*
X131354942Y-134442788D01*
X131221228Y-134687666D01*
X131123733Y-134949062D01*
X131123728Y-134949081D01*
X131064421Y-135221708D01*
X131044518Y-135499993D01*
X130400500Y-135499993D01*
X130400500Y-126499993D01*
X131044518Y-126499993D01*
X131044518Y-126500006D01*
X131064421Y-126778291D01*
X131123728Y-127050918D01*
X131123733Y-127050937D01*
X131221228Y-127312333D01*
X131354942Y-127557211D01*
X131404736Y-127623728D01*
X131522145Y-127780568D01*
X131719432Y-127977855D01*
X131886948Y-128103255D01*
X131942788Y-128145057D01*
X132187666Y-128278771D01*
X132449062Y-128376266D01*
X132449067Y-128376267D01*
X132449077Y-128376271D01*
X132721706Y-128435578D01*
X132783549Y-128440001D01*
X132999993Y-128455482D01*
X133000000Y-128455482D01*
X133000007Y-128455482D01*
X133194805Y-128441549D01*
X133278294Y-128435578D01*
X133550923Y-128376271D01*
X133550934Y-128376266D01*
X133550937Y-128376266D01*
X133812333Y-128278771D01*
X133921010Y-128219429D01*
X134057213Y-128145056D01*
X134280568Y-127977855D01*
X134477855Y-127780568D01*
X134645056Y-127557213D01*
X134778769Y-127312337D01*
X134778769Y-127312335D01*
X134778771Y-127312333D01*
X134876266Y-127050937D01*
X134876266Y-127050934D01*
X134876271Y-127050923D01*
X134935578Y-126778294D01*
X134955482Y-126500000D01*
X134955482Y-126499993D01*
X134935578Y-126221708D01*
X134935578Y-126221706D01*
X134876271Y-125949077D01*
X134876267Y-125949067D01*
X134876266Y-125949062D01*
X134778771Y-125687666D01*
X134645057Y-125442788D01*
X134603255Y-125386948D01*
X134477855Y-125219432D01*
X134280568Y-125022145D01*
X134069479Y-124864126D01*
X134057211Y-124854942D01*
X133812333Y-124721228D01*
X133550937Y-124623733D01*
X133550925Y-124623730D01*
X133550923Y-124623729D01*
X133495971Y-124611775D01*
X133278291Y-124564421D01*
X133000007Y-124544518D01*
X132999993Y-124544518D01*
X132721708Y-124564421D01*
X132449081Y-124623728D01*
X132449062Y-124623733D01*
X132187666Y-124721228D01*
X131942788Y-124854942D01*
X131719429Y-125022147D01*
X131522147Y-125219429D01*
X131354942Y-125442788D01*
X131221228Y-125687666D01*
X131123733Y-125949062D01*
X131123728Y-125949081D01*
X131064421Y-126221708D01*
X131044518Y-126499993D01*
X130400500Y-126499993D01*
X130400500Y-108196544D01*
X130422173Y-108144219D01*
X132310935Y-106255456D01*
X132363260Y-106233783D01*
X132384735Y-106236968D01*
X132544066Y-106285300D01*
X132750000Y-106305583D01*
X132955934Y-106285300D01*
X133153954Y-106225232D01*
X133336450Y-106127685D01*
X133496410Y-105996410D01*
X133627685Y-105836450D01*
X133725232Y-105653954D01*
X133785300Y-105455934D01*
X133805583Y-105250000D01*
X133785300Y-105044066D01*
X133725232Y-104846046D01*
X133627685Y-104663550D01*
X133496410Y-104503590D01*
X133336450Y-104372315D01*
X133153954Y-104274768D01*
X133042158Y-104240855D01*
X132955935Y-104214700D01*
X132750000Y-104194417D01*
X132544064Y-104214700D01*
X132346043Y-104274769D01*
X132163549Y-104372315D01*
X132003590Y-104503589D01*
X132003589Y-104503590D01*
X131872315Y-104663549D01*
X131774769Y-104846043D01*
X131714700Y-105044064D01*
X131694417Y-105250000D01*
X131714700Y-105455937D01*
X131763029Y-105615258D01*
X131757477Y-105671622D01*
X131744541Y-105689064D01*
X131386826Y-106046780D01*
X131334500Y-106068454D01*
X131282174Y-106046780D01*
X131260500Y-105994454D01*
X131260500Y-104380253D01*
X131254383Y-104349500D01*
X131248867Y-104321769D01*
X131204552Y-104255448D01*
X131182343Y-104240608D01*
X131138232Y-104211133D01*
X131138233Y-104211133D01*
X131108989Y-104205316D01*
X131079748Y-104199500D01*
X129340252Y-104199500D01*
X129311010Y-104205316D01*
X129281767Y-104211133D01*
X129215449Y-104255447D01*
X129215447Y-104255449D01*
X129171133Y-104321767D01*
X129159500Y-104380253D01*
X129159500Y-105703455D01*
X129137826Y-105755781D01*
X127179517Y-107714090D01*
X127126792Y-107805412D01*
X127126793Y-107805413D01*
X127099500Y-107907273D01*
X127099500Y-154197273D01*
X127099500Y-154302727D01*
X127118618Y-154374077D01*
X127126793Y-154404588D01*
X127126795Y-154404592D01*
X127179517Y-154495909D01*
X127179518Y-154495910D01*
X127179520Y-154495913D01*
X129181921Y-156498313D01*
X130919876Y-158236268D01*
X130941550Y-158288594D01*
X130919876Y-158340920D01*
X130867550Y-158362594D01*
X89574500Y-158362594D01*
X89522174Y-158340920D01*
X89500500Y-158288594D01*
X89500500Y-153999993D01*
X94044518Y-153999993D01*
X94044518Y-154000006D01*
X94064421Y-154278291D01*
X94123728Y-154550918D01*
X94123733Y-154550937D01*
X94221228Y-154812333D01*
X94354942Y-155057211D01*
X94371088Y-155078779D01*
X94522145Y-155280568D01*
X94719432Y-155477855D01*
X94805561Y-155542330D01*
X94942788Y-155645057D01*
X95187666Y-155778771D01*
X95449062Y-155876266D01*
X95449067Y-155876267D01*
X95449077Y-155876271D01*
X95721706Y-155935578D01*
X95783549Y-155940001D01*
X95999993Y-155955482D01*
X96000000Y-155955482D01*
X96000007Y-155955482D01*
X96194805Y-155941549D01*
X96278294Y-155935578D01*
X96550923Y-155876271D01*
X96550934Y-155876266D01*
X96550937Y-155876266D01*
X96812333Y-155778771D01*
X97022469Y-155664028D01*
X97057213Y-155645056D01*
X97280568Y-155477855D01*
X97477855Y-155280568D01*
X97645056Y-155057213D01*
X97778769Y-154812337D01*
X97778770Y-154812334D01*
X97778771Y-154812333D01*
X97876266Y-154550937D01*
X97876266Y-154550934D01*
X97876271Y-154550923D01*
X97887349Y-154500000D01*
X120294958Y-154500000D01*
X120315111Y-154858853D01*
X120315113Y-154858865D01*
X120375313Y-155213184D01*
X120474815Y-155558560D01*
X120612352Y-155890607D01*
X120612363Y-155890628D01*
X120786206Y-156205173D01*
X120786210Y-156205180D01*
X120994199Y-156498313D01*
X121100213Y-156616942D01*
X122235502Y-155481652D01*
X122279588Y-155542330D01*
X122457670Y-155720412D01*
X122518346Y-155764495D01*
X121383055Y-156899786D01*
X121501681Y-157005796D01*
X121794819Y-157213789D01*
X121794826Y-157213793D01*
X122109371Y-157387636D01*
X122109392Y-157387647D01*
X122441439Y-157525184D01*
X122786816Y-157624686D01*
X122786814Y-157624686D01*
X123141134Y-157684886D01*
X123141146Y-157684888D01*
X123500000Y-157705041D01*
X123858853Y-157684888D01*
X123858865Y-157684886D01*
X124213184Y-157624686D01*
X124558560Y-157525184D01*
X124890607Y-157387647D01*
X124890628Y-157387636D01*
X125205173Y-157213793D01*
X125205180Y-157213789D01*
X125498318Y-157005796D01*
X125616942Y-156899786D01*
X125616943Y-156899786D01*
X124481653Y-155764496D01*
X124542330Y-155720412D01*
X124720412Y-155542330D01*
X124764496Y-155481653D01*
X125899786Y-156616943D01*
X125899786Y-156616942D01*
X126005796Y-156498318D01*
X126213789Y-156205180D01*
X126213793Y-156205173D01*
X126387636Y-155890628D01*
X126387647Y-155890607D01*
X126525184Y-155558560D01*
X126624686Y-155213184D01*
X126684886Y-154858865D01*
X126684888Y-154858853D01*
X126705041Y-154500000D01*
X126684888Y-154141146D01*
X126684886Y-154141134D01*
X126624686Y-153786815D01*
X126525184Y-153441439D01*
X126387647Y-153109392D01*
X126387636Y-153109371D01*
X126213793Y-152794826D01*
X126213789Y-152794819D01*
X126005796Y-152501681D01*
X125899786Y-152383056D01*
X125899786Y-152383055D01*
X124764495Y-153518345D01*
X124720412Y-153457670D01*
X124542330Y-153279588D01*
X124481652Y-153235502D01*
X125616942Y-152100213D01*
X125498313Y-151994199D01*
X125205180Y-151786210D01*
X125205173Y-151786206D01*
X124890628Y-151612363D01*
X124890607Y-151612352D01*
X124558560Y-151474815D01*
X124213183Y-151375313D01*
X124213185Y-151375313D01*
X123858865Y-151315113D01*
X123858853Y-151315111D01*
X123500000Y-151294958D01*
X123141146Y-151315111D01*
X123141134Y-151315113D01*
X122786815Y-151375313D01*
X122441439Y-151474815D01*
X122109392Y-151612352D01*
X122109371Y-151612363D01*
X121794826Y-151786206D01*
X121794819Y-151786210D01*
X121501686Y-151994199D01*
X121383055Y-152100212D01*
X122518346Y-153235503D01*
X122457670Y-153279588D01*
X122279588Y-153457670D01*
X122235503Y-153518346D01*
X121100212Y-152383055D01*
X120994199Y-152501686D01*
X120786210Y-152794819D01*
X120786206Y-152794826D01*
X120612363Y-153109371D01*
X120612352Y-153109392D01*
X120474815Y-153441439D01*
X120375313Y-153786815D01*
X120315113Y-154141134D01*
X120315111Y-154141146D01*
X120294958Y-154500000D01*
X97887349Y-154500000D01*
X97935578Y-154278294D01*
X97946518Y-154125332D01*
X97955482Y-154000006D01*
X97955482Y-153999993D01*
X97935578Y-153721708D01*
X97924717Y-153671781D01*
X97876271Y-153449077D01*
X97876267Y-153449067D01*
X97876266Y-153449062D01*
X97778771Y-153187666D01*
X97645057Y-152942788D01*
X97534294Y-152794826D01*
X97477855Y-152719432D01*
X97280568Y-152522145D01*
X97168890Y-152438544D01*
X97057211Y-152354942D01*
X96812333Y-152221228D01*
X96550937Y-152123733D01*
X96550925Y-152123730D01*
X96550923Y-152123729D01*
X96442822Y-152100213D01*
X96278291Y-152064421D01*
X96000007Y-152044518D01*
X95999993Y-152044518D01*
X95721708Y-152064421D01*
X95449081Y-152123728D01*
X95449062Y-152123733D01*
X95187666Y-152221228D01*
X94942788Y-152354942D01*
X94719429Y-152522147D01*
X94522147Y-152719429D01*
X94354942Y-152942788D01*
X94221228Y-153187666D01*
X94123733Y-153449062D01*
X94123728Y-153449081D01*
X94064421Y-153721708D01*
X94044518Y-153999993D01*
X89500500Y-153999993D01*
X89500500Y-144499993D01*
X93044518Y-144499993D01*
X93044518Y-144500006D01*
X93064421Y-144778291D01*
X93123728Y-145050918D01*
X93123733Y-145050937D01*
X93221228Y-145312333D01*
X93354942Y-145557211D01*
X93394653Y-145610258D01*
X93522145Y-145780568D01*
X93719432Y-145977855D01*
X93886948Y-146103255D01*
X93942788Y-146145057D01*
X94187666Y-146278771D01*
X94449062Y-146376266D01*
X94449067Y-146376267D01*
X94449077Y-146376271D01*
X94721706Y-146435578D01*
X94783549Y-146440001D01*
X94999993Y-146455482D01*
X95000000Y-146455482D01*
X95000007Y-146455482D01*
X95194805Y-146441549D01*
X95278294Y-146435578D01*
X95550923Y-146376271D01*
X95550934Y-146376266D01*
X95550937Y-146376266D01*
X95812333Y-146278771D01*
X95921010Y-146219429D01*
X96057213Y-146145056D01*
X96280568Y-145977855D01*
X96477855Y-145780568D01*
X96645056Y-145557213D01*
X96778769Y-145312337D01*
X96778770Y-145312334D01*
X96778771Y-145312333D01*
X96876266Y-145050937D01*
X96876266Y-145050934D01*
X96876271Y-145050923D01*
X96935578Y-144778294D01*
X96955482Y-144500000D01*
X96955482Y-144499993D01*
X96935578Y-144221708D01*
X96935578Y-144221706D01*
X96876271Y-143949077D01*
X96876267Y-143949067D01*
X96876266Y-143949062D01*
X96778771Y-143687666D01*
X96645057Y-143442788D01*
X96603255Y-143386948D01*
X96477855Y-143219432D01*
X96280568Y-143022145D01*
X96168890Y-142938544D01*
X96057211Y-142854942D01*
X95812333Y-142721228D01*
X95550937Y-142623733D01*
X95550925Y-142623730D01*
X95550923Y-142623729D01*
X95495971Y-142611775D01*
X95278291Y-142564421D01*
X95000007Y-142544518D01*
X94999993Y-142544518D01*
X94721708Y-142564421D01*
X94449081Y-142623728D01*
X94449062Y-142623733D01*
X94187666Y-142721228D01*
X93942788Y-142854942D01*
X93719429Y-143022147D01*
X93522147Y-143219429D01*
X93354942Y-143442788D01*
X93221228Y-143687666D01*
X93123733Y-143949062D01*
X93123728Y-143949081D01*
X93064421Y-144221708D01*
X93044518Y-144499993D01*
X89500500Y-144499993D01*
X89500500Y-135499993D01*
X93044518Y-135499993D01*
X93044518Y-135500006D01*
X93064421Y-135778291D01*
X93123728Y-136050918D01*
X93123733Y-136050937D01*
X93221228Y-136312333D01*
X93354942Y-136557211D01*
X93404736Y-136623728D01*
X93522145Y-136780568D01*
X93719432Y-136977855D01*
X93886948Y-137103255D01*
X93942788Y-137145057D01*
X94187666Y-137278771D01*
X94449062Y-137376266D01*
X94449067Y-137376267D01*
X94449077Y-137376271D01*
X94721706Y-137435578D01*
X94783549Y-137440001D01*
X94999993Y-137455482D01*
X95000000Y-137455482D01*
X95000007Y-137455482D01*
X95194805Y-137441549D01*
X95278294Y-137435578D01*
X95550923Y-137376271D01*
X95550934Y-137376266D01*
X95550937Y-137376266D01*
X95812333Y-137278771D01*
X95921010Y-137219429D01*
X96057213Y-137145056D01*
X96280568Y-136977855D01*
X96477855Y-136780568D01*
X96645056Y-136557213D01*
X96778769Y-136312337D01*
X96778769Y-136312335D01*
X96778771Y-136312333D01*
X96876266Y-136050937D01*
X96876266Y-136050934D01*
X96876271Y-136050923D01*
X96935578Y-135778294D01*
X96955482Y-135500000D01*
X96955482Y-135499993D01*
X96935578Y-135221708D01*
X96935578Y-135221706D01*
X96876271Y-134949077D01*
X96876267Y-134949067D01*
X96876266Y-134949062D01*
X96778771Y-134687666D01*
X96645057Y-134442788D01*
X96603255Y-134386948D01*
X96477855Y-134219432D01*
X96280568Y-134022145D01*
X96168890Y-133938544D01*
X96057211Y-133854942D01*
X95812333Y-133721228D01*
X95550937Y-133623733D01*
X95550925Y-133623730D01*
X95550923Y-133623729D01*
X95495971Y-133611775D01*
X95278291Y-133564421D01*
X95000007Y-133544518D01*
X94999993Y-133544518D01*
X94721708Y-133564421D01*
X94449081Y-133623728D01*
X94449062Y-133623733D01*
X94187666Y-133721228D01*
X93942788Y-133854942D01*
X93719429Y-134022147D01*
X93522147Y-134219429D01*
X93354942Y-134442788D01*
X93221228Y-134687666D01*
X93123733Y-134949062D01*
X93123728Y-134949081D01*
X93064421Y-135221708D01*
X93044518Y-135499993D01*
X89500500Y-135499993D01*
X89500500Y-126499993D01*
X93044518Y-126499993D01*
X93044518Y-126500006D01*
X93064421Y-126778291D01*
X93123728Y-127050918D01*
X93123733Y-127050937D01*
X93221228Y-127312333D01*
X93354942Y-127557211D01*
X93404736Y-127623728D01*
X93522145Y-127780568D01*
X93719432Y-127977855D01*
X93886948Y-128103255D01*
X93942788Y-128145057D01*
X94187666Y-128278771D01*
X94449062Y-128376266D01*
X94449067Y-128376267D01*
X94449077Y-128376271D01*
X94721706Y-128435578D01*
X94783549Y-128440001D01*
X94999993Y-128455482D01*
X95000000Y-128455482D01*
X95000007Y-128455482D01*
X95194805Y-128441549D01*
X95278294Y-128435578D01*
X95550923Y-128376271D01*
X95550934Y-128376266D01*
X95550937Y-128376266D01*
X95812333Y-128278771D01*
X95921010Y-128219429D01*
X96057213Y-128145056D01*
X96280568Y-127977855D01*
X96477855Y-127780568D01*
X96645056Y-127557213D01*
X96778769Y-127312337D01*
X96778769Y-127312335D01*
X96778771Y-127312333D01*
X96876266Y-127050937D01*
X96876266Y-127050934D01*
X96876271Y-127050923D01*
X96935578Y-126778294D01*
X96955482Y-126500000D01*
X96955482Y-126499993D01*
X96935578Y-126221708D01*
X96935578Y-126221706D01*
X96876271Y-125949077D01*
X96876267Y-125949067D01*
X96876266Y-125949062D01*
X96778771Y-125687666D01*
X96645057Y-125442788D01*
X96603255Y-125386948D01*
X96477855Y-125219432D01*
X96280568Y-125022145D01*
X96069479Y-124864126D01*
X96057211Y-124854942D01*
X95812333Y-124721228D01*
X95550937Y-124623733D01*
X95550925Y-124623730D01*
X95550923Y-124623729D01*
X95495971Y-124611775D01*
X95278291Y-124564421D01*
X95000007Y-124544518D01*
X94999993Y-124544518D01*
X94721708Y-124564421D01*
X94449081Y-124623728D01*
X94449062Y-124623733D01*
X94187666Y-124721228D01*
X93942788Y-124854942D01*
X93719429Y-125022147D01*
X93522147Y-125219429D01*
X93354942Y-125442788D01*
X93221228Y-125687666D01*
X93123733Y-125949062D01*
X93123728Y-125949081D01*
X93064421Y-126221708D01*
X93044518Y-126499993D01*
X89500500Y-126499993D01*
X89500500Y-109500000D01*
X90044958Y-109500000D01*
X90065111Y-109858853D01*
X90065113Y-109858865D01*
X90125313Y-110213184D01*
X90224815Y-110558560D01*
X90362352Y-110890607D01*
X90362363Y-110890628D01*
X90536206Y-111205173D01*
X90536210Y-111205180D01*
X90744199Y-111498313D01*
X90850213Y-111616942D01*
X91985502Y-110481652D01*
X92029588Y-110542330D01*
X92207670Y-110720412D01*
X92268346Y-110764495D01*
X91133055Y-111899786D01*
X91251681Y-112005796D01*
X91544819Y-112213789D01*
X91544826Y-112213793D01*
X91859371Y-112387636D01*
X91859392Y-112387647D01*
X92191439Y-112525184D01*
X92536816Y-112624686D01*
X92536814Y-112624686D01*
X92891134Y-112684886D01*
X92891146Y-112684888D01*
X93250000Y-112705041D01*
X93608853Y-112684888D01*
X93608865Y-112684886D01*
X93963184Y-112624686D01*
X94308560Y-112525184D01*
X94640607Y-112387647D01*
X94640628Y-112387636D01*
X94955173Y-112213793D01*
X94955180Y-112213789D01*
X95248318Y-112005796D01*
X95366942Y-111899786D01*
X95366943Y-111899786D01*
X94231653Y-110764496D01*
X94292330Y-110720412D01*
X94470412Y-110542330D01*
X94514496Y-110481653D01*
X95649786Y-111616943D01*
X95649786Y-111616942D01*
X95755796Y-111498318D01*
X95963789Y-111205180D01*
X95963793Y-111205173D01*
X96137636Y-110890628D01*
X96137647Y-110890607D01*
X96275184Y-110558560D01*
X96374686Y-110213184D01*
X96434886Y-109858865D01*
X96434888Y-109858853D01*
X96455041Y-109500000D01*
X96451340Y-109434105D01*
X99999500Y-109434105D01*
X99999500Y-154040894D01*
X100033606Y-154168181D01*
X100033610Y-154168190D01*
X100081132Y-154250500D01*
X100099500Y-154282314D01*
X100192686Y-154375500D01*
X100306814Y-154441392D01*
X100434105Y-154475499D01*
X100434106Y-154475500D01*
X100434108Y-154475500D01*
X114015894Y-154475500D01*
X114015894Y-154475499D01*
X114143186Y-154441392D01*
X114257314Y-154375500D01*
X114350500Y-154282314D01*
X114416392Y-154168186D01*
X114450499Y-154040894D01*
X114450500Y-154040894D01*
X114450500Y-147499993D01*
X118544518Y-147499993D01*
X118544518Y-147500006D01*
X118564421Y-147778291D01*
X118623728Y-148050918D01*
X118623733Y-148050937D01*
X118721228Y-148312333D01*
X118854942Y-148557211D01*
X118934904Y-148664027D01*
X119022145Y-148780568D01*
X119219432Y-148977855D01*
X119386948Y-149103255D01*
X119442788Y-149145057D01*
X119687666Y-149278771D01*
X119949062Y-149376266D01*
X119949067Y-149376267D01*
X119949077Y-149376271D01*
X120221706Y-149435578D01*
X120283549Y-149440001D01*
X120499993Y-149455482D01*
X120500000Y-149455482D01*
X120500007Y-149455482D01*
X120694805Y-149441549D01*
X120778294Y-149435578D01*
X121050923Y-149376271D01*
X121050934Y-149376266D01*
X121050937Y-149376266D01*
X121312333Y-149278771D01*
X121557211Y-149145057D01*
X121557210Y-149145057D01*
X121557213Y-149145056D01*
X121780568Y-148977855D01*
X121977855Y-148780568D01*
X122145056Y-148557213D01*
X122278769Y-148312337D01*
X122278769Y-148312335D01*
X122278771Y-148312333D01*
X122376266Y-148050937D01*
X122376266Y-148050934D01*
X122376271Y-148050923D01*
X122435578Y-147778294D01*
X122451840Y-147550923D01*
X122455482Y-147500006D01*
X122455482Y-147499993D01*
X122435578Y-147221708D01*
X122435578Y-147221706D01*
X122376271Y-146949077D01*
X122376267Y-146949067D01*
X122376266Y-146949062D01*
X122278771Y-146687666D01*
X122145057Y-146442788D01*
X122022274Y-146278769D01*
X121977855Y-146219432D01*
X121780568Y-146022145D01*
X121569479Y-145864126D01*
X121557211Y-145854942D01*
X121312333Y-145721228D01*
X121050937Y-145623733D01*
X121050925Y-145623730D01*
X121050923Y-145623729D01*
X120988998Y-145610258D01*
X120778291Y-145564421D01*
X120500007Y-145544518D01*
X120499993Y-145544518D01*
X120221708Y-145564421D01*
X119949081Y-145623728D01*
X119949062Y-145623733D01*
X119687666Y-145721228D01*
X119442788Y-145854942D01*
X119219429Y-146022147D01*
X119022147Y-146219429D01*
X118854942Y-146442788D01*
X118721228Y-146687666D01*
X118623733Y-146949062D01*
X118623728Y-146949081D01*
X118564421Y-147221708D01*
X118544518Y-147499993D01*
X114450500Y-147499993D01*
X114450500Y-138499993D01*
X118544518Y-138499993D01*
X118544518Y-138500006D01*
X118564421Y-138778291D01*
X118623728Y-139050918D01*
X118623733Y-139050937D01*
X118721228Y-139312333D01*
X118854942Y-139557211D01*
X118871088Y-139578779D01*
X119022145Y-139780568D01*
X119219432Y-139977855D01*
X119372698Y-140092588D01*
X119442788Y-140145057D01*
X119687666Y-140278771D01*
X119949062Y-140376266D01*
X119949067Y-140376267D01*
X119949077Y-140376271D01*
X120221706Y-140435578D01*
X120283549Y-140440001D01*
X120499993Y-140455482D01*
X120500000Y-140455482D01*
X120500007Y-140455482D01*
X120694805Y-140441549D01*
X120778294Y-140435578D01*
X121050923Y-140376271D01*
X121050934Y-140376266D01*
X121050937Y-140376266D01*
X121312333Y-140278771D01*
X121522469Y-140164028D01*
X121557213Y-140145056D01*
X121780568Y-139977855D01*
X121977855Y-139780568D01*
X122145056Y-139557213D01*
X122278769Y-139312337D01*
X122278770Y-139312334D01*
X122278771Y-139312333D01*
X122376266Y-139050937D01*
X122376266Y-139050934D01*
X122376271Y-139050923D01*
X122435578Y-138778294D01*
X122455482Y-138500000D01*
X122455482Y-138499993D01*
X122435578Y-138221708D01*
X122435578Y-138221706D01*
X122376271Y-137949077D01*
X122376267Y-137949067D01*
X122376266Y-137949062D01*
X122278771Y-137687666D01*
X122145057Y-137442788D01*
X122022274Y-137278769D01*
X121977855Y-137219432D01*
X121780568Y-137022145D01*
X121569479Y-136864126D01*
X121557211Y-136854942D01*
X121312333Y-136721228D01*
X121050937Y-136623733D01*
X121050925Y-136623730D01*
X121050923Y-136623729D01*
X120995971Y-136611775D01*
X120778291Y-136564421D01*
X120500007Y-136544518D01*
X120499993Y-136544518D01*
X120221708Y-136564421D01*
X119949081Y-136623728D01*
X119949062Y-136623733D01*
X119687666Y-136721228D01*
X119442788Y-136854942D01*
X119219429Y-137022147D01*
X119022147Y-137219429D01*
X118854942Y-137442788D01*
X118721228Y-137687666D01*
X118623733Y-137949062D01*
X118623728Y-137949081D01*
X118564421Y-138221708D01*
X118544518Y-138499993D01*
X114450500Y-138499993D01*
X114450500Y-129499993D01*
X118544518Y-129499993D01*
X118544518Y-129500006D01*
X118564421Y-129778291D01*
X118623728Y-130050918D01*
X118623733Y-130050937D01*
X118721228Y-130312333D01*
X118854942Y-130557211D01*
X118938544Y-130668890D01*
X119022145Y-130780568D01*
X119219432Y-130977855D01*
X119386948Y-131103255D01*
X119442788Y-131145057D01*
X119687666Y-131278771D01*
X119949062Y-131376266D01*
X119949067Y-131376267D01*
X119949077Y-131376271D01*
X120221706Y-131435578D01*
X120283549Y-131440001D01*
X120499993Y-131455482D01*
X120500000Y-131455482D01*
X120500007Y-131455482D01*
X120694805Y-131441549D01*
X120778294Y-131435578D01*
X121050923Y-131376271D01*
X121050934Y-131376266D01*
X121050937Y-131376266D01*
X121312333Y-131278771D01*
X121557211Y-131145057D01*
X121557210Y-131145057D01*
X121557213Y-131145056D01*
X121780568Y-130977855D01*
X121977855Y-130780568D01*
X122145056Y-130557213D01*
X122278769Y-130312337D01*
X122278769Y-130312335D01*
X122278771Y-130312333D01*
X122376266Y-130050937D01*
X122376266Y-130050934D01*
X122376271Y-130050923D01*
X122435578Y-129778294D01*
X122455482Y-129500000D01*
X122455482Y-129499993D01*
X122435578Y-129221708D01*
X122435578Y-129221706D01*
X122376271Y-128949077D01*
X122376267Y-128949067D01*
X122376266Y-128949062D01*
X122278771Y-128687666D01*
X122145057Y-128442788D01*
X122022274Y-128278769D01*
X121977855Y-128219432D01*
X121780568Y-128022145D01*
X121668890Y-127938544D01*
X121557211Y-127854942D01*
X121312333Y-127721228D01*
X121050937Y-127623733D01*
X121050925Y-127623730D01*
X121050923Y-127623729D01*
X120995971Y-127611775D01*
X120778291Y-127564421D01*
X120500007Y-127544518D01*
X120499993Y-127544518D01*
X120221708Y-127564421D01*
X119949081Y-127623728D01*
X119949062Y-127623733D01*
X119687666Y-127721228D01*
X119442788Y-127854942D01*
X119219429Y-128022147D01*
X119022147Y-128219429D01*
X118854942Y-128442788D01*
X118721228Y-128687666D01*
X118623733Y-128949062D01*
X118623728Y-128949081D01*
X118564421Y-129221708D01*
X118544518Y-129499993D01*
X114450500Y-129499993D01*
X114450500Y-119499993D01*
X118044518Y-119499993D01*
X118044518Y-119500006D01*
X118064421Y-119778291D01*
X118123728Y-120050918D01*
X118123733Y-120050937D01*
X118221228Y-120312333D01*
X118354942Y-120557211D01*
X118438544Y-120668890D01*
X118522145Y-120780568D01*
X118719432Y-120977855D01*
X118886948Y-121103255D01*
X118942788Y-121145057D01*
X119187666Y-121278771D01*
X119449062Y-121376266D01*
X119449067Y-121376267D01*
X119449077Y-121376271D01*
X119721706Y-121435578D01*
X119783549Y-121440001D01*
X119999993Y-121455482D01*
X120000000Y-121455482D01*
X120000007Y-121455482D01*
X120194805Y-121441549D01*
X120278294Y-121435578D01*
X120550923Y-121376271D01*
X120550934Y-121376266D01*
X120550937Y-121376266D01*
X120812333Y-121278771D01*
X121057211Y-121145057D01*
X121057210Y-121145057D01*
X121057213Y-121145056D01*
X121280568Y-120977855D01*
X121477855Y-120780568D01*
X121645056Y-120557213D01*
X121778769Y-120312337D01*
X121778769Y-120312335D01*
X121778771Y-120312333D01*
X121876266Y-120050937D01*
X121876266Y-120050934D01*
X121876271Y-120050923D01*
X121935578Y-119778294D01*
X121942212Y-119685529D01*
X121955482Y-119500006D01*
X121955482Y-119499993D01*
X121935578Y-119221708D01*
X121935578Y-119221706D01*
X121876271Y-118949077D01*
X121876267Y-118949067D01*
X121876266Y-118949062D01*
X121778771Y-118687666D01*
X121645057Y-118442788D01*
X121603255Y-118386948D01*
X121477855Y-118219432D01*
X121280568Y-118022145D01*
X121168890Y-117938544D01*
X121057211Y-117854942D01*
X120812333Y-117721228D01*
X120550937Y-117623733D01*
X120550925Y-117623730D01*
X120550923Y-117623729D01*
X120458769Y-117603682D01*
X120278291Y-117564421D01*
X120000007Y-117544518D01*
X119999993Y-117544518D01*
X119721708Y-117564421D01*
X119449081Y-117623728D01*
X119449062Y-117623733D01*
X119187666Y-117721228D01*
X118942788Y-117854942D01*
X118719429Y-118022147D01*
X118522147Y-118219429D01*
X118354942Y-118442788D01*
X118221228Y-118687666D01*
X118123733Y-118949062D01*
X118123728Y-118949081D01*
X118064421Y-119221708D01*
X118044518Y-119499993D01*
X114450500Y-119499993D01*
X114450500Y-109434106D01*
X114450499Y-109434105D01*
X114416393Y-109306818D01*
X114416392Y-109306814D01*
X114350500Y-109192686D01*
X114257314Y-109099500D01*
X114143190Y-109033610D01*
X114143181Y-109033606D01*
X114015894Y-108999500D01*
X114015892Y-108999500D01*
X100565892Y-108999500D01*
X100434108Y-108999500D01*
X100434106Y-108999500D01*
X100306818Y-109033606D01*
X100306809Y-109033610D01*
X100192685Y-109099500D01*
X100099500Y-109192685D01*
X100033610Y-109306809D01*
X100033606Y-109306818D01*
X99999500Y-109434105D01*
X96451340Y-109434105D01*
X96434888Y-109141146D01*
X96434886Y-109141134D01*
X96374686Y-108786815D01*
X96275184Y-108441439D01*
X96137647Y-108109392D01*
X96137636Y-108109371D01*
X95963793Y-107794826D01*
X95963789Y-107794819D01*
X95755796Y-107501681D01*
X95649786Y-107383056D01*
X95649786Y-107383055D01*
X94514495Y-108518345D01*
X94470412Y-108457670D01*
X94292330Y-108279588D01*
X94231652Y-108235502D01*
X95366942Y-107100213D01*
X95248313Y-106994199D01*
X94955180Y-106786210D01*
X94955173Y-106786206D01*
X94640628Y-106612363D01*
X94640607Y-106612352D01*
X94308560Y-106474815D01*
X93963183Y-106375313D01*
X93963185Y-106375313D01*
X93608865Y-106315113D01*
X93608853Y-106315111D01*
X93250000Y-106294958D01*
X92891146Y-106315111D01*
X92891134Y-106315113D01*
X92536815Y-106375313D01*
X92191439Y-106474815D01*
X91859392Y-106612352D01*
X91859371Y-106612363D01*
X91544826Y-106786206D01*
X91544819Y-106786210D01*
X91251686Y-106994199D01*
X91133055Y-107100212D01*
X92268346Y-108235503D01*
X92207670Y-108279588D01*
X92029588Y-108457670D01*
X91985503Y-108518346D01*
X90850212Y-107383055D01*
X90744199Y-107501686D01*
X90536210Y-107794819D01*
X90536206Y-107794826D01*
X90362363Y-108109371D01*
X90362352Y-108109392D01*
X90224815Y-108441439D01*
X90125313Y-108786815D01*
X90065113Y-109141134D01*
X90065111Y-109141146D01*
X90044958Y-109500000D01*
X89500500Y-109500000D01*
X89500500Y-105324500D01*
X89522174Y-105272174D01*
X89574500Y-105250500D01*
X128066058Y-105250500D01*
X128066058Y-105250499D01*
X128193350Y-105216392D01*
X128307478Y-105150500D01*
X128400664Y-105057314D01*
X128466556Y-104943186D01*
X128500663Y-104815894D01*
X128500664Y-104815894D01*
X128500664Y-104680523D01*
X128500500Y-104678016D01*
X128500500Y-102710000D01*
X129154417Y-102710000D01*
X129174700Y-102915934D01*
X129234768Y-103113954D01*
X129332315Y-103296450D01*
X129463590Y-103456410D01*
X129623550Y-103587685D01*
X129806046Y-103685232D01*
X130004066Y-103745300D01*
X130210000Y-103765583D01*
X130415934Y-103745300D01*
X130613954Y-103685232D01*
X130796450Y-103587685D01*
X130956410Y-103456410D01*
X131087685Y-103296450D01*
X131185232Y-103113954D01*
X131245300Y-102915934D01*
X131265583Y-102710000D01*
X131694417Y-102710000D01*
X131714700Y-102915934D01*
X131774768Y-103113954D01*
X131872315Y-103296450D01*
X132003590Y-103456410D01*
X132163550Y-103587685D01*
X132346046Y-103685232D01*
X132544066Y-103745300D01*
X132750000Y-103765583D01*
X132955934Y-103745300D01*
X133153954Y-103685232D01*
X133336450Y-103587685D01*
X133496410Y-103456410D01*
X133627685Y-103296450D01*
X133725232Y-103113954D01*
X133785300Y-102915934D01*
X133805583Y-102710000D01*
X134234417Y-102710000D01*
X134254700Y-102915934D01*
X134314768Y-103113954D01*
X134412315Y-103296450D01*
X134543590Y-103456410D01*
X134703550Y-103587685D01*
X134886046Y-103685232D01*
X135084066Y-103745300D01*
X135290000Y-103765583D01*
X135495934Y-103745300D01*
X135693954Y-103685232D01*
X135876450Y-103587685D01*
X136036410Y-103456410D01*
X136167685Y-103296450D01*
X136265232Y-103113954D01*
X136325300Y-102915934D01*
X136345583Y-102710000D01*
X136774417Y-102710000D01*
X136794700Y-102915934D01*
X136854768Y-103113954D01*
X136952315Y-103296450D01*
X137083590Y-103456410D01*
X137243550Y-103587685D01*
X137426046Y-103685232D01*
X137624066Y-103745300D01*
X137830000Y-103765583D01*
X138035934Y-103745300D01*
X138233954Y-103685232D01*
X138416450Y-103587685D01*
X138576410Y-103456410D01*
X138707685Y-103296450D01*
X138805232Y-103113954D01*
X138865300Y-102915934D01*
X138885583Y-102710000D01*
X139314417Y-102710000D01*
X139334700Y-102915934D01*
X139394768Y-103113954D01*
X139492315Y-103296450D01*
X139623590Y-103456410D01*
X139783550Y-103587685D01*
X139966046Y-103685232D01*
X140164066Y-103745300D01*
X140370000Y-103765583D01*
X140575934Y-103745300D01*
X140773954Y-103685232D01*
X140956450Y-103587685D01*
X141116410Y-103456410D01*
X141247685Y-103296450D01*
X141345232Y-103113954D01*
X141405300Y-102915934D01*
X141425583Y-102710000D01*
X141854417Y-102710000D01*
X141874700Y-102915934D01*
X141934768Y-103113954D01*
X142032315Y-103296450D01*
X142163590Y-103456410D01*
X142323550Y-103587685D01*
X142506046Y-103685232D01*
X142704066Y-103745300D01*
X142910000Y-103765583D01*
X143115934Y-103745300D01*
X143313954Y-103685232D01*
X143496450Y-103587685D01*
X143656410Y-103456410D01*
X143787685Y-103296450D01*
X143885232Y-103113954D01*
X143945300Y-102915934D01*
X143965583Y-102710000D01*
X144394417Y-102710000D01*
X144414700Y-102915934D01*
X144474768Y-103113954D01*
X144572315Y-103296450D01*
X144703590Y-103456410D01*
X144863550Y-103587685D01*
X145046046Y-103685232D01*
X145244066Y-103745300D01*
X145450000Y-103765583D01*
X145655934Y-103745300D01*
X145853954Y-103685232D01*
X146036450Y-103587685D01*
X146196410Y-103456410D01*
X146327685Y-103296450D01*
X146425232Y-103113954D01*
X146485300Y-102915934D01*
X146505583Y-102710000D01*
X146934417Y-102710000D01*
X146954700Y-102915934D01*
X147014768Y-103113954D01*
X147112315Y-103296450D01*
X147243590Y-103456410D01*
X147403550Y-103587685D01*
X147586046Y-103685232D01*
X147784066Y-103745300D01*
X147990000Y-103765583D01*
X148195934Y-103745300D01*
X148393954Y-103685232D01*
X148576450Y-103587685D01*
X148736410Y-103456410D01*
X148867685Y-103296450D01*
X148965232Y-103113954D01*
X149025300Y-102915934D01*
X149045583Y-102710000D01*
X149474417Y-102710000D01*
X149494700Y-102915934D01*
X149554768Y-103113954D01*
X149652315Y-103296450D01*
X149783590Y-103456410D01*
X149943550Y-103587685D01*
X150126046Y-103685232D01*
X150324066Y-103745300D01*
X150530000Y-103765583D01*
X150735934Y-103745300D01*
X150933954Y-103685232D01*
X151116450Y-103587685D01*
X151276410Y-103456410D01*
X151407685Y-103296450D01*
X151505232Y-103113954D01*
X151565300Y-102915934D01*
X151585583Y-102710000D01*
X152014417Y-102710000D01*
X152034700Y-102915934D01*
X152094768Y-103113954D01*
X152192315Y-103296450D01*
X152323590Y-103456410D01*
X152483550Y-103587685D01*
X152666046Y-103685232D01*
X152864066Y-103745300D01*
X153070000Y-103765583D01*
X153275934Y-103745300D01*
X153473954Y-103685232D01*
X153656450Y-103587685D01*
X153816410Y-103456410D01*
X153947685Y-103296450D01*
X154045232Y-103113954D01*
X154105300Y-102915934D01*
X154125583Y-102710000D01*
X154554417Y-102710000D01*
X154574700Y-102915934D01*
X154634768Y-103113954D01*
X154732315Y-103296450D01*
X154863590Y-103456410D01*
X155023550Y-103587685D01*
X155206046Y-103685232D01*
X155404066Y-103745300D01*
X155610000Y-103765583D01*
X155815934Y-103745300D01*
X156013954Y-103685232D01*
X156196450Y-103587685D01*
X156356410Y-103456410D01*
X156487685Y-103296450D01*
X156585232Y-103113954D01*
X156645300Y-102915934D01*
X156665583Y-102710000D01*
X157094417Y-102710000D01*
X157114700Y-102915934D01*
X157174768Y-103113954D01*
X157272315Y-103296450D01*
X157403590Y-103456410D01*
X157563550Y-103587685D01*
X157746046Y-103685232D01*
X157944066Y-103745300D01*
X158150000Y-103765583D01*
X158355934Y-103745300D01*
X158553954Y-103685232D01*
X158736450Y-103587685D01*
X158896410Y-103456410D01*
X159027685Y-103296450D01*
X159125232Y-103113954D01*
X159185300Y-102915934D01*
X159205583Y-102710000D01*
X159185300Y-102504066D01*
X159125232Y-102306046D01*
X159027685Y-102123550D01*
X158896410Y-101963590D01*
X158736450Y-101832315D01*
X158553954Y-101734768D01*
X158442158Y-101700855D01*
X158355935Y-101674700D01*
X158150000Y-101654417D01*
X157944064Y-101674700D01*
X157746043Y-101734769D01*
X157563549Y-101832315D01*
X157403590Y-101963589D01*
X157403589Y-101963590D01*
X157272315Y-102123549D01*
X157174769Y-102306043D01*
X157114700Y-102504064D01*
X157114700Y-102504066D01*
X157094417Y-102710000D01*
X156665583Y-102710000D01*
X156645300Y-102504066D01*
X156585232Y-102306046D01*
X156487685Y-102123550D01*
X156356410Y-101963590D01*
X156196450Y-101832315D01*
X156013954Y-101734768D01*
X155902158Y-101700855D01*
X155815935Y-101674700D01*
X155610000Y-101654417D01*
X155404064Y-101674700D01*
X155206043Y-101734769D01*
X155023549Y-101832315D01*
X154863590Y-101963589D01*
X154863589Y-101963590D01*
X154732315Y-102123549D01*
X154634769Y-102306043D01*
X154574700Y-102504064D01*
X154574700Y-102504066D01*
X154554417Y-102710000D01*
X154125583Y-102710000D01*
X154105300Y-102504066D01*
X154045232Y-102306046D01*
X153947685Y-102123550D01*
X153816410Y-101963590D01*
X153656450Y-101832315D01*
X153473954Y-101734768D01*
X153362158Y-101700855D01*
X153275935Y-101674700D01*
X153070000Y-101654417D01*
X152864064Y-101674700D01*
X152666043Y-101734769D01*
X152483549Y-101832315D01*
X152323590Y-101963589D01*
X152323589Y-101963590D01*
X152192315Y-102123549D01*
X152094769Y-102306043D01*
X152034700Y-102504064D01*
X152034700Y-102504066D01*
X152014417Y-102710000D01*
X151585583Y-102710000D01*
X151565300Y-102504066D01*
X151505232Y-102306046D01*
X151407685Y-102123550D01*
X151276410Y-101963590D01*
X151116450Y-101832315D01*
X150933954Y-101734768D01*
X150822158Y-101700855D01*
X150735935Y-101674700D01*
X150530000Y-101654417D01*
X150324064Y-101674700D01*
X150126043Y-101734769D01*
X149943549Y-101832315D01*
X149783590Y-101963589D01*
X149783589Y-101963590D01*
X149652315Y-102123549D01*
X149554769Y-102306043D01*
X149494700Y-102504064D01*
X149494700Y-102504066D01*
X149474417Y-102710000D01*
X149045583Y-102710000D01*
X149025300Y-102504066D01*
X148965232Y-102306046D01*
X148867685Y-102123550D01*
X148736410Y-101963590D01*
X148576450Y-101832315D01*
X148393954Y-101734768D01*
X148282158Y-101700855D01*
X148195935Y-101674700D01*
X147990000Y-101654417D01*
X147784064Y-101674700D01*
X147586043Y-101734769D01*
X147403549Y-101832315D01*
X147243590Y-101963589D01*
X147243589Y-101963590D01*
X147112315Y-102123549D01*
X147014769Y-102306043D01*
X146954700Y-102504064D01*
X146954700Y-102504066D01*
X146934417Y-102710000D01*
X146505583Y-102710000D01*
X146485300Y-102504066D01*
X146425232Y-102306046D01*
X146327685Y-102123550D01*
X146196410Y-101963590D01*
X146036450Y-101832315D01*
X145853954Y-101734768D01*
X145742158Y-101700855D01*
X145655935Y-101674700D01*
X145450000Y-101654417D01*
X145244064Y-101674700D01*
X145046043Y-101734769D01*
X144863549Y-101832315D01*
X144703590Y-101963589D01*
X144703589Y-101963590D01*
X144572315Y-102123549D01*
X144474769Y-102306043D01*
X144414700Y-102504064D01*
X144414700Y-102504066D01*
X144394417Y-102710000D01*
X143965583Y-102710000D01*
X143945300Y-102504066D01*
X143885232Y-102306046D01*
X143787685Y-102123550D01*
X143656410Y-101963590D01*
X143496450Y-101832315D01*
X143313954Y-101734768D01*
X143202158Y-101700855D01*
X143115935Y-101674700D01*
X142910000Y-101654417D01*
X142704064Y-101674700D01*
X142506043Y-101734769D01*
X142323549Y-101832315D01*
X142163590Y-101963589D01*
X142163589Y-101963590D01*
X142032315Y-102123549D01*
X141934769Y-102306043D01*
X141874700Y-102504064D01*
X141874700Y-102504066D01*
X141854417Y-102710000D01*
X141425583Y-102710000D01*
X141405300Y-102504066D01*
X141345232Y-102306046D01*
X141247685Y-102123550D01*
X141116410Y-101963590D01*
X140956450Y-101832315D01*
X140773954Y-101734768D01*
X140662158Y-101700855D01*
X140575935Y-101674700D01*
X140370000Y-101654417D01*
X140164064Y-101674700D01*
X139966043Y-101734769D01*
X139783549Y-101832315D01*
X139623590Y-101963589D01*
X139623589Y-101963590D01*
X139492315Y-102123549D01*
X139394769Y-102306043D01*
X139334700Y-102504064D01*
X139334700Y-102504066D01*
X139314417Y-102710000D01*
X138885583Y-102710000D01*
X138865300Y-102504066D01*
X138805232Y-102306046D01*
X138707685Y-102123550D01*
X138576410Y-101963590D01*
X138416450Y-101832315D01*
X138233954Y-101734768D01*
X138122158Y-101700855D01*
X138035935Y-101674700D01*
X137830000Y-101654417D01*
X137624064Y-101674700D01*
X137426043Y-101734769D01*
X137243549Y-101832315D01*
X137083590Y-101963589D01*
X137083589Y-101963590D01*
X136952315Y-102123549D01*
X136854769Y-102306043D01*
X136794700Y-102504064D01*
X136794700Y-102504066D01*
X136774417Y-102710000D01*
X136345583Y-102710000D01*
X136325300Y-102504066D01*
X136265232Y-102306046D01*
X136167685Y-102123550D01*
X136036410Y-101963590D01*
X135876450Y-101832315D01*
X135693954Y-101734768D01*
X135582158Y-101700855D01*
X135495935Y-101674700D01*
X135290000Y-101654417D01*
X135084064Y-101674700D01*
X134886043Y-101734769D01*
X134703549Y-101832315D01*
X134543590Y-101963589D01*
X134543589Y-101963590D01*
X134412315Y-102123549D01*
X134314769Y-102306043D01*
X134254700Y-102504064D01*
X134254700Y-102504066D01*
X134234417Y-102710000D01*
X133805583Y-102710000D01*
X133785300Y-102504066D01*
X133725232Y-102306046D01*
X133627685Y-102123550D01*
X133496410Y-101963590D01*
X133336450Y-101832315D01*
X133153954Y-101734768D01*
X133042158Y-101700855D01*
X132955935Y-101674700D01*
X132750000Y-101654417D01*
X132544064Y-101674700D01*
X132346043Y-101734769D01*
X132163549Y-101832315D01*
X132003590Y-101963589D01*
X132003589Y-101963590D01*
X131872315Y-102123549D01*
X131774769Y-102306043D01*
X131714700Y-102504064D01*
X131714700Y-102504066D01*
X131694417Y-102710000D01*
X131265583Y-102710000D01*
X131245300Y-102504066D01*
X131185232Y-102306046D01*
X131087685Y-102123550D01*
X130956410Y-101963590D01*
X130796450Y-101832315D01*
X130613954Y-101734768D01*
X130502158Y-101700855D01*
X130415935Y-101674700D01*
X130210000Y-101654417D01*
X130004064Y-101674700D01*
X129806043Y-101734769D01*
X129623549Y-101832315D01*
X129463590Y-101963589D01*
X129463589Y-101963590D01*
X129332315Y-102123549D01*
X129234769Y-102306043D01*
X129174700Y-102504064D01*
X129174700Y-102504066D01*
X129154417Y-102710000D01*
X128500500Y-102710000D01*
X128500500Y-92324500D01*
X128522174Y-92272174D01*
X128574500Y-92250500D01*
X159675500Y-92250500D01*
X159727826Y-92272174D01*
G37*
%TD.AperFunction*%
%TD*%
M02*
