%TF.GenerationSoftware,KiCad,Pcbnew,8.0.4*%
%TF.CreationDate,2024-08-25T20:50:55-04:00*%
%TF.ProjectId,LowerPOGO,4c6f7765-7250-44f4-974f-2e6b69636164,v4*%
%TF.SameCoordinates,Original*%
%TF.FileFunction,Soldermask,Top*%
%TF.FilePolarity,Negative*%
%FSLAX46Y46*%
G04 Gerber Fmt 4.6, Leading zero omitted, Abs format (unit mm)*
G04 Created by KiCad (PCBNEW 8.0.4) date 2024-08-25 20:50:55*
%MOMM*%
%LPD*%
G01*
G04 APERTURE LIST*
%ADD10C,3.250000*%
%ADD11C,3.600000*%
%ADD12C,5.600000*%
%ADD13R,1.700000X1.700000*%
%ADD14O,1.700000X1.700000*%
G04 APERTURE END LIST*
D10*
%TO.C,J13*%
X135250000Y-126500000D03*
%TD*%
%TO.C,J3*%
X124000000Y-138500000D03*
%TD*%
%TO.C,J4*%
X124000000Y-147500000D03*
%TD*%
%TO.C,J9*%
X174000000Y-154000000D03*
%TD*%
D11*
%TO.C,H4*%
X200750000Y-154500000D03*
D12*
X200750000Y-154500000D03*
%TD*%
D10*
%TO.C,J11*%
X199500000Y-138500000D03*
%TD*%
D11*
%TO.C,H1*%
X93250000Y-109500000D03*
D12*
X93250000Y-109500000D03*
%TD*%
D11*
%TO.C,H2*%
X200750000Y-109500000D03*
D12*
X200750000Y-109500000D03*
%TD*%
D11*
%TO.C,H3*%
X93250000Y-154500000D03*
D12*
X93250000Y-154500000D03*
%TD*%
D10*
%TO.C,J6*%
X135250000Y-144500000D03*
%TD*%
%TO.C,J5*%
X136250000Y-154000000D03*
%TD*%
%TO.C,J18*%
X98000000Y-126500000D03*
%TD*%
%TO.C,J12*%
X199500000Y-147500000D03*
%TD*%
%TO.C,J21*%
X173000000Y-126500000D03*
%TD*%
%TO.C,J16*%
X123500000Y-119500000D03*
%TD*%
%TO.C,J22*%
X173000000Y-135500000D03*
%TD*%
%TO.C,J17*%
X98000000Y-135500000D03*
%TD*%
%TO.C,J1*%
X98000000Y-144500000D03*
%TD*%
%TO.C,J15*%
X124000000Y-129500000D03*
%TD*%
%TO.C,J23*%
X161750000Y-129500000D03*
%TD*%
%TO.C,J2*%
X99000000Y-154000000D03*
%TD*%
%TO.C,J19*%
X198500000Y-119500000D03*
%TD*%
%TO.C,J20*%
X199500000Y-129500000D03*
%TD*%
%TO.C,J14*%
X135250000Y-135500000D03*
%TD*%
%TO.C,J10*%
X173000000Y-144500000D03*
%TD*%
%TO.C,J24*%
X161250000Y-119500000D03*
%TD*%
%TO.C,J7*%
X161750000Y-147000000D03*
%TD*%
%TO.C,J8*%
X161750000Y-138500000D03*
%TD*%
D13*
%TO.C,J25*%
X133000000Y-105250000D03*
D14*
X135540000Y-105250000D03*
X138080000Y-105250000D03*
X140620000Y-105250000D03*
X143160000Y-105250000D03*
X145700000Y-105250000D03*
X148240000Y-105250000D03*
X150780000Y-105250000D03*
X153320000Y-105250000D03*
X155860000Y-105250000D03*
X158400000Y-105250000D03*
X160940000Y-105250000D03*
X133000000Y-102710000D03*
X135540000Y-102710000D03*
X138080000Y-102710000D03*
X140620000Y-102710000D03*
X143160000Y-102710000D03*
X145700000Y-102710000D03*
X148240000Y-102710000D03*
X150780000Y-102710000D03*
X153320000Y-102710000D03*
X155860000Y-102710000D03*
X158400000Y-102710000D03*
X160940000Y-102710000D03*
%TD*%
M02*
