%TF.GenerationSoftware,KiCad,Pcbnew,8.0.2*%
%TF.CreationDate,2024-05-21T13:44:33-04:00*%
%TF.ProjectId,LowerPOGO,4c6f7765-7250-44f4-974f-2e6b69636164,rev?*%
%TF.SameCoordinates,Original*%
%TF.FileFunction,Legend,Bot*%
%TF.FilePolarity,Positive*%
%FSLAX46Y46*%
G04 Gerber Fmt 4.6, Leading zero omitted, Abs format (unit mm)*
G04 Created by KiCad (PCBNEW 8.0.2) date 2024-05-21 13:44:33*
%MOMM*%
%LPD*%
G01*
G04 APERTURE LIST*
%ADD10C,0.150000*%
%ADD11C,0.120000*%
G04 APERTURE END LIST*
D10*
X144409523Y-98717319D02*
X144409523Y-99431604D01*
X144409523Y-99431604D02*
X144457142Y-99574461D01*
X144457142Y-99574461D02*
X144552380Y-99669700D01*
X144552380Y-99669700D02*
X144695237Y-99717319D01*
X144695237Y-99717319D02*
X144790475Y-99717319D01*
X143980951Y-98812557D02*
X143933332Y-98764938D01*
X143933332Y-98764938D02*
X143838094Y-98717319D01*
X143838094Y-98717319D02*
X143599999Y-98717319D01*
X143599999Y-98717319D02*
X143504761Y-98764938D01*
X143504761Y-98764938D02*
X143457142Y-98812557D01*
X143457142Y-98812557D02*
X143409523Y-98907795D01*
X143409523Y-98907795D02*
X143409523Y-99003033D01*
X143409523Y-99003033D02*
X143457142Y-99145890D01*
X143457142Y-99145890D02*
X144028570Y-99717319D01*
X144028570Y-99717319D02*
X143409523Y-99717319D01*
X142504761Y-98717319D02*
X142980951Y-98717319D01*
X142980951Y-98717319D02*
X143028570Y-99193509D01*
X143028570Y-99193509D02*
X142980951Y-99145890D01*
X142980951Y-99145890D02*
X142885713Y-99098271D01*
X142885713Y-99098271D02*
X142647618Y-99098271D01*
X142647618Y-99098271D02*
X142552380Y-99145890D01*
X142552380Y-99145890D02*
X142504761Y-99193509D01*
X142504761Y-99193509D02*
X142457142Y-99288747D01*
X142457142Y-99288747D02*
X142457142Y-99526842D01*
X142457142Y-99526842D02*
X142504761Y-99622080D01*
X142504761Y-99622080D02*
X142552380Y-99669700D01*
X142552380Y-99669700D02*
X142647618Y-99717319D01*
X142647618Y-99717319D02*
X142885713Y-99717319D01*
X142885713Y-99717319D02*
X142980951Y-99669700D01*
X142980951Y-99669700D02*
X143028570Y-99622080D01*
D11*
%TO.C,J25*%
X159480000Y-101250000D02*
X159480000Y-92620000D01*
X158510000Y-101660000D02*
X158510000Y-101250000D01*
X158510000Y-104200000D02*
X158510000Y-103760000D01*
X157790000Y-101660000D02*
X157790000Y-101250000D01*
X157790000Y-104200000D02*
X157790000Y-103760000D01*
X156880000Y-101250000D02*
X156880000Y-92620000D01*
X155970000Y-101660000D02*
X155970000Y-101250000D01*
X155970000Y-104200000D02*
X155970000Y-103760000D01*
X155250000Y-101660000D02*
X155250000Y-101250000D01*
X155250000Y-104200000D02*
X155250000Y-103760000D01*
X154340000Y-101250000D02*
X154340000Y-92620000D01*
X153430000Y-101660000D02*
X153430000Y-101250000D01*
X153430000Y-104200000D02*
X153430000Y-103760000D01*
X152710000Y-101660000D02*
X152710000Y-101250000D01*
X152710000Y-104200000D02*
X152710000Y-103760000D01*
X151800000Y-101250000D02*
X151800000Y-92620000D01*
X150890000Y-101660000D02*
X150890000Y-101250000D01*
X150890000Y-104200000D02*
X150890000Y-103760000D01*
X150170000Y-101660000D02*
X150170000Y-101250000D01*
X150170000Y-104200000D02*
X150170000Y-103760000D01*
X149260000Y-101250000D02*
X149260000Y-92620000D01*
X148350000Y-101660000D02*
X148350000Y-101250000D01*
X148350000Y-104200000D02*
X148350000Y-103760000D01*
X147630000Y-101660000D02*
X147630000Y-101250000D01*
X147630000Y-104200000D02*
X147630000Y-103760000D01*
X146720000Y-101250000D02*
X146720000Y-92620000D01*
X145810000Y-101660000D02*
X145810000Y-101250000D01*
X145810000Y-104200000D02*
X145810000Y-103760000D01*
X145090000Y-101660000D02*
X145090000Y-101250000D01*
X145090000Y-104200000D02*
X145090000Y-103760000D01*
X144180000Y-101250000D02*
X144180000Y-92620000D01*
X143270000Y-101660000D02*
X143270000Y-101250000D01*
X143270000Y-104200000D02*
X143270000Y-103760000D01*
X142550000Y-101660000D02*
X142550000Y-101250000D01*
X142550000Y-104200000D02*
X142550000Y-103760000D01*
X141640000Y-101250000D02*
X141640000Y-92620000D01*
X140730000Y-101660000D02*
X140730000Y-101250000D01*
X140730000Y-104200000D02*
X140730000Y-103760000D01*
X140010000Y-101660000D02*
X140010000Y-101250000D01*
X140010000Y-104200000D02*
X140010000Y-103760000D01*
X139100000Y-101250000D02*
X139100000Y-92620000D01*
X138190000Y-101660000D02*
X138190000Y-101250000D01*
X138190000Y-104200000D02*
X138190000Y-103760000D01*
X137470000Y-101660000D02*
X137470000Y-101250000D01*
X137470000Y-104200000D02*
X137470000Y-103760000D01*
X136560000Y-101250000D02*
X136560000Y-92620000D01*
X135650000Y-101660000D02*
X135650000Y-101250000D01*
X135650000Y-104200000D02*
X135650000Y-103760000D01*
X134930000Y-101660000D02*
X134930000Y-101250000D01*
X134930000Y-104200000D02*
X134930000Y-103760000D01*
X134020000Y-101250000D02*
X134020000Y-92620000D01*
X133110000Y-101660000D02*
X133110000Y-101250000D01*
X133110000Y-104200000D02*
X133110000Y-103760000D01*
X132390000Y-101660000D02*
X132390000Y-101250000D01*
X132390000Y-104200000D02*
X132390000Y-103760000D01*
X131480000Y-101250000D02*
X131480000Y-92620000D01*
X131361900Y-101250000D02*
X131361900Y-92620000D01*
X131243805Y-101250000D02*
X131243805Y-92620000D01*
X131125710Y-101250000D02*
X131125710Y-92620000D01*
X131007615Y-101250000D02*
X131007615Y-92620000D01*
X130889520Y-101250000D02*
X130889520Y-92620000D01*
X130771425Y-101250000D02*
X130771425Y-92620000D01*
X130653330Y-101250000D02*
X130653330Y-92620000D01*
X130570000Y-101660000D02*
X130570000Y-101250000D01*
X130570000Y-104140000D02*
X130570000Y-103760000D01*
X130535235Y-101250000D02*
X130535235Y-92620000D01*
X130417140Y-101250000D02*
X130417140Y-92620000D01*
X130299045Y-101250000D02*
X130299045Y-92620000D01*
X130180950Y-101250000D02*
X130180950Y-92620000D01*
X130062855Y-101250000D02*
X130062855Y-92620000D01*
X129944760Y-101250000D02*
X129944760Y-92620000D01*
X129850000Y-101660000D02*
X129850000Y-101250000D01*
X129850000Y-104140000D02*
X129850000Y-103760000D01*
X129826665Y-101250000D02*
X129826665Y-92620000D01*
X129708570Y-101250000D02*
X129708570Y-92620000D01*
X129590475Y-101250000D02*
X129590475Y-92620000D01*
X129472380Y-101250000D02*
X129472380Y-92620000D01*
X129354285Y-101250000D02*
X129354285Y-92620000D01*
X129236190Y-101250000D02*
X129236190Y-92620000D01*
X129118095Y-101250000D02*
X129118095Y-92620000D01*
X129000000Y-101250000D02*
X129000000Y-92620000D01*
X159480000Y-92620000D02*
X128880000Y-92620000D01*
X128880000Y-101250000D02*
X128880000Y-92620000D01*
X159480000Y-101250000D02*
X128880000Y-101250000D01*
X128880000Y-106360000D02*
X128880000Y-105250000D01*
X130210000Y-106360000D02*
X128880000Y-106360000D01*
%TD*%
M02*
