M48
; DRILL file {KiCad 8.0.1} date 2024-05-03T16:32:45-0400
; FORMAT={-:-/ absolute / metric / decimal}
; #@! TF.CreationDate,2024-05-03T16:32:45-04:00
; #@! TF.GenerationSoftware,Kicad,Pcbnew,8.0.1
; #@! TF.FileFunction,Plated,1,2,PTH
FMAT,2
METRIC
; #@! TA.AperFunction,Plated,PTH,ComponentDrill
T1C1.000
; #@! TA.AperFunction,Plated,PTH,ComponentDrill
T2C1.020
%
G90
G05
T1
X95.0Y-126.5
X95.0Y-135.5
X95.0Y-144.5
X96.0Y-154.0
X120.0Y-119.5
X120.5Y-129.5
X120.5Y-138.5
X120.5Y-147.5
X133.0Y-126.5
X133.0Y-135.5
X133.0Y-144.5
X134.0Y-154.0
X158.0Y-119.5
X158.5Y-129.5
X158.5Y-138.5
X158.5Y-147.0
X171.0Y-126.5
X171.0Y-135.5
X171.0Y-144.5
X172.0Y-154.0
X195.5Y-119.5
X196.5Y-129.5
X196.5Y-138.5
X196.5Y-147.5
T2
X127.5Y-107.25
X127.5Y-110.25
X130.5Y-107.25
X130.5Y-110.25
X133.5Y-107.25
X133.5Y-110.25
X136.5Y-107.25
X136.5Y-110.25
X139.5Y-107.25
X139.5Y-110.25
X142.5Y-107.25
X142.5Y-110.25
X145.5Y-107.25
X145.5Y-110.25
X148.5Y-107.25
X148.5Y-110.25
X151.5Y-107.25
X151.5Y-110.25
X154.5Y-107.25
X154.5Y-110.25
X157.5Y-107.25
X157.5Y-110.25
X160.5Y-107.25
X160.5Y-110.25
M30
