%TF.GenerationSoftware,KiCad,Pcbnew,8.0.3*%
%TF.CreationDate,2024-06-21T15:14:05-04:00*%
%TF.ProjectId,LowerPOGO,4c6f7765-7250-44f4-974f-2e6b69636164,v4*%
%TF.SameCoordinates,Original*%
%TF.FileFunction,Copper,L2,Bot*%
%TF.FilePolarity,Positive*%
%FSLAX46Y46*%
G04 Gerber Fmt 4.6, Leading zero omitted, Abs format (unit mm)*
G04 Created by KiCad (PCBNEW 8.0.3) date 2024-06-21 15:14:05*
%MOMM*%
%LPD*%
G01*
G04 APERTURE LIST*
%TA.AperFunction,ComponentPad*%
%ADD10C,3.600000*%
%TD*%
%TA.AperFunction,ConnectorPad*%
%ADD11C,5.600000*%
%TD*%
%TA.AperFunction,ComponentPad*%
%ADD12O,1.700000X1.700000*%
%TD*%
%TA.AperFunction,ComponentPad*%
%ADD13R,1.700000X1.700000*%
%TD*%
%TA.AperFunction,ComponentPad*%
%ADD14C,3.250000*%
%TD*%
%TA.AperFunction,Conductor*%
%ADD15C,0.400000*%
%TD*%
G04 APERTURE END LIST*
D10*
%TO.P,H4,1,1*%
%TO.N,Earth*%
X200750000Y-154500000D03*
D11*
X200750000Y-154500000D03*
%TD*%
D10*
%TO.P,H1,1,1*%
%TO.N,Earth*%
X93250000Y-109500000D03*
D11*
X93250000Y-109500000D03*
%TD*%
D10*
%TO.P,H2,1,1*%
%TO.N,Earth*%
X200750000Y-109500000D03*
D11*
X200750000Y-109500000D03*
%TD*%
D10*
%TO.P,H3,1,1*%
%TO.N,Earth*%
X123500000Y-154500000D03*
D11*
X123500000Y-154500000D03*
%TD*%
D12*
%TO.P,J25,1,Pin_1*%
%TO.N,Net-(J1-Pin_1)*%
X130210000Y-102710000D03*
%TO.P,J25,2,Pin_2*%
%TO.N,Net-(J2-Pin_1)*%
X132750000Y-102710000D03*
%TO.P,J25,3,Pin_3*%
%TO.N,Net-(J25-Pin_3)*%
X135290000Y-102710000D03*
%TO.P,J25,4,Pin_4*%
%TO.N,Net-(J25-Pin_4)*%
X137830000Y-102710000D03*
%TO.P,J25,5,Pin_5*%
%TO.N,Net-(J25-Pin_5)*%
X140370000Y-102710000D03*
%TO.P,J25,6,Pin_6*%
%TO.N,Net-(J25-Pin_6)*%
X142910000Y-102710000D03*
%TO.P,J25,7,Pin_7*%
%TO.N,Net-(J25-Pin_7)*%
X145450000Y-102710000D03*
%TO.P,J25,8,Pin_8*%
%TO.N,Net-(J25-Pin_8)*%
X147990000Y-102710000D03*
%TO.P,J25,9,Pin_9*%
%TO.N,Net-(J25-Pin_9)*%
X150530000Y-102710000D03*
%TO.P,J25,10,Pin_10*%
%TO.N,Net-(J10-Pin_1)*%
X153070000Y-102710000D03*
%TO.P,J25,11,Pin_11*%
%TO.N,Net-(J11-Pin_1)*%
X155610000Y-102710000D03*
%TO.P,J25,12,Pin_12*%
%TO.N,Net-(J12-Pin_1)*%
X158150000Y-102710000D03*
D13*
%TO.P,J25,13,Pin_13*%
%TO.N,Net-(J13-Pin_1)*%
X130210000Y-105250000D03*
D12*
%TO.P,J25,14,Pin_14*%
%TO.N,Net-(J14-Pin_1)*%
X132750000Y-105250000D03*
%TO.P,J25,15,Pin_15*%
%TO.N,Net-(J15-Pin_1)*%
X135290000Y-105250000D03*
%TO.P,J25,16,Pin_16*%
%TO.N,Net-(J16-Pin_1)*%
X137830000Y-105250000D03*
%TO.P,J25,17,Pin_17*%
%TO.N,Net-(J17-Pin_1)*%
X140370000Y-105250000D03*
%TO.P,J25,18,Pin_18*%
%TO.N,Net-(J18-Pin_1)*%
X142910000Y-105250000D03*
%TO.P,J25,19,Pin_19*%
%TO.N,Net-(J19-Pin_1)*%
X145450000Y-105250000D03*
%TO.P,J25,20,Pin_20*%
%TO.N,Net-(J20-Pin_1)*%
X147990000Y-105250000D03*
%TO.P,J25,21,Pin_21*%
%TO.N,Net-(J21-Pin_1)*%
X150530000Y-105250000D03*
%TO.P,J25,22,Pin_22*%
%TO.N,Net-(J22-Pin_1)*%
X153070000Y-105250000D03*
%TO.P,J25,23,Pin_23*%
%TO.N,Net-(J23-Pin_1)*%
X155610000Y-105250000D03*
%TO.P,J25,24,Pin_24*%
%TO.N,Net-(J24-Pin_1)*%
X158150000Y-105250000D03*
%TD*%
D14*
%TO.P,J1,1,Pin_1*%
%TO.N,Net-(J1-Pin_1)*%
X95000000Y-126500000D03*
%TD*%
%TO.P,J2,1,Pin_1*%
%TO.N,Net-(J2-Pin_1)*%
X95000000Y-135500000D03*
%TD*%
%TO.P,J3,1,Pin_1*%
%TO.N,Net-(J25-Pin_3)*%
X95000000Y-144500000D03*
%TD*%
%TO.P,J4,1,Pin_1*%
%TO.N,Net-(J25-Pin_4)*%
X96000000Y-154000000D03*
%TD*%
%TO.P,J5,1,Pin_1*%
%TO.N,Net-(J25-Pin_5)*%
X120000000Y-119500000D03*
%TD*%
%TO.P,J6,1,Pin_1*%
%TO.N,Net-(J25-Pin_6)*%
X120500000Y-129500000D03*
%TD*%
%TO.P,J7,1,Pin_1*%
%TO.N,Net-(J25-Pin_7)*%
X133000000Y-126500000D03*
%TD*%
%TO.P,J8,1,Pin_1*%
%TO.N,Net-(J25-Pin_8)*%
X120500000Y-138500000D03*
%TD*%
%TO.P,J9,1,Pin_1*%
%TO.N,Net-(J25-Pin_9)*%
X133000000Y-135500000D03*
%TD*%
%TO.P,J10,1,Pin_1*%
%TO.N,Net-(J10-Pin_1)*%
X120500000Y-147500000D03*
%TD*%
%TO.P,J11,1,Pin_1*%
%TO.N,Net-(J11-Pin_1)*%
X133000000Y-144500000D03*
%TD*%
%TO.P,J12,1,Pin_1*%
%TO.N,Net-(J12-Pin_1)*%
X134000000Y-154000000D03*
%TD*%
%TO.P,J13,1,Pin_1*%
%TO.N,Net-(J13-Pin_1)*%
X172000000Y-154000000D03*
%TD*%
%TO.P,J14,1,Pin_1*%
%TO.N,Net-(J14-Pin_1)*%
X171000000Y-144500000D03*
%TD*%
%TO.P,J15,1,Pin_1*%
%TO.N,Net-(J15-Pin_1)*%
X158500000Y-147000000D03*
%TD*%
%TO.P,J16,1,Pin_1*%
%TO.N,Net-(J16-Pin_1)*%
X158500000Y-138500000D03*
%TD*%
%TO.P,J17,1,Pin_1*%
%TO.N,Net-(J17-Pin_1)*%
X158500000Y-129500000D03*
%TD*%
%TO.P,J18,1,Pin_1*%
%TO.N,Net-(J18-Pin_1)*%
X171000000Y-135500000D03*
%TD*%
%TO.P,J19,1,Pin_1*%
%TO.N,Net-(J19-Pin_1)*%
X158000000Y-119500000D03*
%TD*%
%TO.P,J20,1,Pin_1*%
%TO.N,Net-(J20-Pin_1)*%
X171000000Y-126500000D03*
%TD*%
%TO.P,J21,1,Pin_1*%
%TO.N,Net-(J21-Pin_1)*%
X196500000Y-147500000D03*
%TD*%
%TO.P,J22,1,Pin_1*%
%TO.N,Net-(J22-Pin_1)*%
X196500000Y-138500000D03*
%TD*%
%TO.P,J23,1,Pin_1*%
%TO.N,Net-(J23-Pin_1)*%
X196500000Y-129500000D03*
%TD*%
%TO.P,J24,1,Pin_1*%
%TO.N,Net-(J24-Pin_1)*%
X195500000Y-119500000D03*
%TD*%
D15*
%TO.N,Net-(J25-Pin_9)*%
X138000000Y-140500000D02*
X138000000Y-153915000D01*
X149280000Y-103960000D02*
X150530000Y-102710000D01*
X138660000Y-154575000D02*
X149240000Y-154575000D01*
X150150000Y-109150000D02*
X149280000Y-108280000D01*
X149280000Y-108280000D02*
X149280000Y-103960000D01*
X133000000Y-135500000D02*
X138000000Y-140500000D01*
X150150000Y-153665000D02*
X150150000Y-109150000D01*
X138000000Y-153915000D02*
X138660000Y-154575000D01*
X149240000Y-154575000D02*
X150150000Y-153665000D01*
%TO.N,Net-(J25-Pin_3)*%
X98200000Y-109497056D02*
X99747056Y-107950000D01*
X134000000Y-104000000D02*
X135290000Y-102710000D01*
X134000000Y-105767767D02*
X134000000Y-104000000D01*
X131817767Y-107950000D02*
X134000000Y-105767767D01*
X95000000Y-144500000D02*
X98200000Y-141300000D01*
X98200000Y-141300000D02*
X98200000Y-109497056D01*
X99747056Y-107950000D02*
X131817767Y-107950000D01*
%TO.N,Net-(J25-Pin_4)*%
X136540000Y-105767767D02*
X136540000Y-104000000D01*
X98800000Y-109745584D02*
X99995584Y-108550000D01*
X136540000Y-104000000D02*
X137830000Y-102710000D01*
X98800000Y-151200000D02*
X98800000Y-109745584D01*
X96000000Y-154000000D02*
X98800000Y-151200000D01*
X134028884Y-108278884D02*
X136540000Y-105767767D01*
X133757768Y-108550000D02*
X134028884Y-108278884D01*
X99995584Y-108550000D02*
X133757768Y-108550000D01*
%TO.N,Net-(J1-Pin_1)*%
X128750000Y-105250000D02*
X128750000Y-104170000D01*
X97000000Y-109000000D02*
X99250000Y-106750000D01*
X97000000Y-124500000D02*
X97000000Y-109000000D01*
X127250000Y-106750000D02*
X128750000Y-105250000D01*
X95000000Y-126500000D02*
X97000000Y-124500000D01*
X99250000Y-106750000D02*
X127250000Y-106750000D01*
X128750000Y-104170000D02*
X130210000Y-102710000D01*
%TO.N,Net-(J2-Pin_1)*%
X97600000Y-132900000D02*
X97600000Y-109248528D01*
X95000000Y-135500000D02*
X97600000Y-132900000D01*
X97600000Y-109248528D02*
X99498528Y-107350000D01*
X131500000Y-106300000D02*
X131500000Y-103960000D01*
X131500000Y-103960000D02*
X132750000Y-102710000D01*
X99498528Y-107350000D02*
X130450000Y-107350000D01*
X130450000Y-107350000D02*
X131500000Y-106300000D01*
%TO.N,Net-(J25-Pin_5)*%
X127156295Y-116000000D02*
X136656295Y-106500000D01*
X139120000Y-103960000D02*
X140370000Y-102710000D01*
X123500000Y-116000000D02*
X127156295Y-116000000D01*
X138347767Y-106500000D02*
X139120000Y-105727767D01*
X120000000Y-119500000D02*
X123500000Y-116000000D01*
X136656295Y-106500000D02*
X138347767Y-106500000D01*
X139120000Y-105727767D02*
X139120000Y-103960000D01*
%TO.N,Net-(J25-Pin_6)*%
X141620000Y-104000000D02*
X142910000Y-102710000D01*
X140287767Y-107100000D02*
X141620000Y-105767767D01*
X136904823Y-107100000D02*
X140287767Y-107100000D01*
X141620000Y-105767767D02*
X141620000Y-104000000D01*
X120500000Y-129500000D02*
X120500000Y-123504823D01*
X120500000Y-123504823D02*
X136904823Y-107100000D01*
%TO.N,Net-(J25-Pin_7)*%
X144160000Y-104000000D02*
X145450000Y-102710000D01*
X142227767Y-107700000D02*
X144160000Y-105767767D01*
X137153351Y-107700000D02*
X142227767Y-107700000D01*
X133000000Y-126500000D02*
X133000000Y-111853351D01*
X144160000Y-105767767D02*
X144160000Y-104000000D01*
X133000000Y-111853351D02*
X137153351Y-107700000D01*
%TO.N,Net-(J25-Pin_8)*%
X137401879Y-108300000D02*
X144167767Y-108300000D01*
X144167767Y-108300000D02*
X146700000Y-105767767D01*
X125750000Y-138500000D02*
X136000000Y-128250000D01*
X146700000Y-105767767D02*
X146700000Y-104000000D01*
X146700000Y-104000000D02*
X147990000Y-102710000D01*
X120500000Y-138500000D02*
X125750000Y-138500000D01*
X136000000Y-128250000D02*
X136000000Y-109701879D01*
X136000000Y-109701879D02*
X137401879Y-108300000D01*
%TO.N,Net-(J10-Pin_1)*%
X137400000Y-140749000D02*
X137400000Y-154163000D01*
X151820000Y-103960000D02*
X153070000Y-102710000D01*
X149413000Y-155250000D02*
X150750000Y-153913000D01*
X137400000Y-154163000D02*
X138487000Y-155250000D01*
X136151000Y-139500000D02*
X137400000Y-140749000D01*
X138487000Y-155250000D02*
X149413000Y-155250000D01*
X150750000Y-112000000D02*
X151820000Y-110930000D01*
X123250000Y-147500000D02*
X131250000Y-139500000D01*
X150750000Y-153913000D02*
X150750000Y-112000000D01*
X120500000Y-147500000D02*
X123250000Y-147500000D01*
X151820000Y-110930000D02*
X151820000Y-103960000D01*
X131250000Y-139500000D02*
X136151000Y-139500000D01*
%TO.N,Net-(J11-Pin_1)*%
X136800000Y-148300000D02*
X136800000Y-154412000D01*
X138238000Y-155850000D02*
X149662000Y-155850000D01*
X154342233Y-109256295D02*
X154342233Y-103977767D01*
X154342233Y-103977767D02*
X155610000Y-102710000D01*
X133000000Y-144500000D02*
X136800000Y-148300000D01*
X151350000Y-112248528D02*
X154342233Y-109256295D01*
X149662000Y-155850000D02*
X151350000Y-154162000D01*
X136800000Y-154412000D02*
X138238000Y-155850000D01*
X151350000Y-154162000D02*
X151350000Y-112248528D01*
%TO.N,Net-(J12-Pin_1)*%
X149911000Y-156450000D02*
X151950000Y-154411000D01*
X134000000Y-154000000D02*
X136450000Y-156450000D01*
X156860000Y-104000000D02*
X158150000Y-102710000D01*
X151950000Y-112550000D02*
X156860000Y-107640000D01*
X136450000Y-156450000D02*
X149911000Y-156450000D01*
X151950000Y-154411000D02*
X151950000Y-112550000D01*
X156860000Y-107640000D02*
X156860000Y-104000000D01*
%TD*%
%TA.AperFunction,Conductor*%
%TO.N,Earth*%
G36*
X159727826Y-92272174D02*
G01*
X159749500Y-92324500D01*
X159749500Y-104678174D01*
X159749357Y-104680357D01*
X159749357Y-104815894D01*
X159783463Y-104943181D01*
X159783464Y-104943184D01*
X159783465Y-104943186D01*
X159849357Y-105057314D01*
X159942543Y-105150500D01*
X160056671Y-105216392D01*
X160183962Y-105250499D01*
X160183963Y-105250500D01*
X160183965Y-105250500D01*
X160184108Y-105250500D01*
X160315892Y-105250500D01*
X204425500Y-105250500D01*
X204477826Y-105272174D01*
X204499500Y-105324500D01*
X204499500Y-158288594D01*
X204477826Y-158340920D01*
X204425500Y-158362594D01*
X89574500Y-158362594D01*
X89522174Y-158340920D01*
X89500500Y-158288594D01*
X89500500Y-109500000D01*
X90044958Y-109500000D01*
X90065111Y-109858853D01*
X90065113Y-109858865D01*
X90125313Y-110213184D01*
X90224815Y-110558560D01*
X90362352Y-110890607D01*
X90362363Y-110890628D01*
X90536206Y-111205173D01*
X90536210Y-111205180D01*
X90744199Y-111498313D01*
X90850213Y-111616942D01*
X91985502Y-110481652D01*
X92029588Y-110542330D01*
X92207670Y-110720412D01*
X92268346Y-110764495D01*
X91133055Y-111899786D01*
X91251681Y-112005796D01*
X91544819Y-112213789D01*
X91544826Y-112213793D01*
X91859371Y-112387636D01*
X91859392Y-112387647D01*
X92191439Y-112525184D01*
X92536816Y-112624686D01*
X92536814Y-112624686D01*
X92891134Y-112684886D01*
X92891146Y-112684888D01*
X93250000Y-112705041D01*
X93608853Y-112684888D01*
X93608865Y-112684886D01*
X93963184Y-112624686D01*
X94308560Y-112525184D01*
X94640607Y-112387647D01*
X94640628Y-112387636D01*
X94955173Y-112213793D01*
X94955180Y-112213789D01*
X95248318Y-112005796D01*
X95366942Y-111899786D01*
X95366943Y-111899786D01*
X94231653Y-110764496D01*
X94292330Y-110720412D01*
X94470412Y-110542330D01*
X94514496Y-110481653D01*
X95649786Y-111616943D01*
X95649786Y-111616942D01*
X95755796Y-111498318D01*
X95963789Y-111205180D01*
X95963793Y-111205173D01*
X96137636Y-110890628D01*
X96137647Y-110890607D01*
X96275184Y-110558560D01*
X96374686Y-110213184D01*
X96434886Y-109858865D01*
X96434888Y-109858853D01*
X96451616Y-109560996D01*
X96476190Y-109509967D01*
X96504376Y-109500104D01*
X96473174Y-109487180D01*
X96451616Y-109439003D01*
X96434888Y-109141146D01*
X96434886Y-109141134D01*
X96374686Y-108786815D01*
X96275184Y-108441439D01*
X96137647Y-108109392D01*
X96137636Y-108109371D01*
X95963793Y-107794826D01*
X95963789Y-107794819D01*
X95755796Y-107501681D01*
X95649786Y-107383056D01*
X95649786Y-107383055D01*
X94514495Y-108518345D01*
X94470412Y-108457670D01*
X94292330Y-108279588D01*
X94231652Y-108235502D01*
X95366942Y-107100213D01*
X95248313Y-106994199D01*
X94955180Y-106786210D01*
X94955173Y-106786206D01*
X94640628Y-106612363D01*
X94640607Y-106612352D01*
X94308560Y-106474815D01*
X93963183Y-106375313D01*
X93963185Y-106375313D01*
X93608865Y-106315113D01*
X93608853Y-106315111D01*
X93250000Y-106294958D01*
X92891146Y-106315111D01*
X92891134Y-106315113D01*
X92536815Y-106375313D01*
X92191439Y-106474815D01*
X91859392Y-106612352D01*
X91859371Y-106612363D01*
X91544826Y-106786206D01*
X91544819Y-106786210D01*
X91251686Y-106994199D01*
X91133055Y-107100212D01*
X92268346Y-108235503D01*
X92207670Y-108279588D01*
X92029588Y-108457670D01*
X91985503Y-108518346D01*
X90850212Y-107383055D01*
X90744199Y-107501686D01*
X90536210Y-107794819D01*
X90536206Y-107794826D01*
X90362363Y-108109371D01*
X90362352Y-108109392D01*
X90224815Y-108441439D01*
X90125313Y-108786815D01*
X90065113Y-109141134D01*
X90065111Y-109141146D01*
X90044958Y-109500000D01*
X89500500Y-109500000D01*
X89500500Y-105324500D01*
X89522174Y-105272174D01*
X89574500Y-105250500D01*
X128004454Y-105250500D01*
X128056780Y-105272174D01*
X128078454Y-105324500D01*
X128056780Y-105376826D01*
X127105781Y-106327826D01*
X127053455Y-106349500D01*
X99307273Y-106349500D01*
X99307257Y-106349499D01*
X99302727Y-106349499D01*
X99197274Y-106349499D01*
X99197272Y-106349499D01*
X99095416Y-106376791D01*
X99095411Y-106376793D01*
X99004086Y-106429520D01*
X98929518Y-106504089D01*
X96679517Y-108754090D01*
X96626793Y-108845410D01*
X96626791Y-108845415D01*
X96605947Y-108923205D01*
X96605948Y-108923206D01*
X96599500Y-108947272D01*
X96599500Y-109434854D01*
X96577826Y-109487180D01*
X96547370Y-109499795D01*
X96580678Y-109515835D01*
X96599500Y-109565145D01*
X96599500Y-124303454D01*
X96577826Y-124355780D01*
X96020299Y-124913306D01*
X95967973Y-124934980D01*
X95926289Y-124922122D01*
X95915310Y-124914637D01*
X95786727Y-124852715D01*
X95668805Y-124795927D01*
X95668801Y-124795925D01*
X95668800Y-124795925D01*
X95668795Y-124795923D01*
X95668791Y-124795922D01*
X95407358Y-124715279D01*
X95378145Y-124710876D01*
X95136802Y-124674500D01*
X94863198Y-124674500D01*
X94661490Y-124704901D01*
X94592641Y-124715279D01*
X94331208Y-124795922D01*
X94331194Y-124795927D01*
X94087455Y-124913306D01*
X94084691Y-124914637D01*
X94023055Y-124956660D01*
X93858627Y-125068765D01*
X93658061Y-125254862D01*
X93487472Y-125468776D01*
X93350668Y-125705725D01*
X93250708Y-125960419D01*
X93189828Y-126227159D01*
X93169381Y-126499998D01*
X93169381Y-126500001D01*
X93189828Y-126772840D01*
X93250708Y-127039580D01*
X93250710Y-127039584D01*
X93350669Y-127294276D01*
X93487472Y-127531224D01*
X93658061Y-127745137D01*
X93858628Y-127931236D01*
X94084691Y-128085363D01*
X94331200Y-128204075D01*
X94461924Y-128244398D01*
X94592641Y-128284720D01*
X94592643Y-128284720D01*
X94592649Y-128284722D01*
X94863198Y-128325500D01*
X94863202Y-128325500D01*
X95136798Y-128325500D01*
X95136802Y-128325500D01*
X95407351Y-128284722D01*
X95407356Y-128284720D01*
X95407358Y-128284720D01*
X95451861Y-128270992D01*
X95668800Y-128204075D01*
X95915310Y-128085363D01*
X96141372Y-127931236D01*
X96341939Y-127745137D01*
X96512528Y-127531224D01*
X96649331Y-127294276D01*
X96749290Y-127039584D01*
X96810172Y-126772840D01*
X96830619Y-126500000D01*
X96810172Y-126227160D01*
X96749290Y-125960416D01*
X96649331Y-125705724D01*
X96572062Y-125571893D01*
X96564670Y-125515742D01*
X96583821Y-125482570D01*
X97073175Y-124993217D01*
X97125500Y-124971544D01*
X97177826Y-124993218D01*
X97199500Y-125045544D01*
X97199500Y-132703454D01*
X97177826Y-132755780D01*
X96020299Y-133913306D01*
X95967973Y-133934980D01*
X95926289Y-133922122D01*
X95915310Y-133914637D01*
X95786727Y-133852715D01*
X95668805Y-133795927D01*
X95668801Y-133795925D01*
X95668800Y-133795925D01*
X95668795Y-133795923D01*
X95668791Y-133795922D01*
X95407358Y-133715279D01*
X95384715Y-133711866D01*
X95136802Y-133674500D01*
X94863198Y-133674500D01*
X94661490Y-133704901D01*
X94592641Y-133715279D01*
X94331208Y-133795922D01*
X94331194Y-133795927D01*
X94087455Y-133913306D01*
X94084691Y-133914637D01*
X94023055Y-133956660D01*
X93858627Y-134068765D01*
X93658061Y-134254862D01*
X93487472Y-134468776D01*
X93350668Y-134705725D01*
X93250708Y-134960419D01*
X93189828Y-135227159D01*
X93169381Y-135499998D01*
X93169381Y-135500001D01*
X93189828Y-135772840D01*
X93250708Y-136039580D01*
X93250710Y-136039584D01*
X93350669Y-136294276D01*
X93487472Y-136531224D01*
X93658061Y-136745137D01*
X93858628Y-136931236D01*
X94084691Y-137085363D01*
X94331200Y-137204075D01*
X94461924Y-137244398D01*
X94592641Y-137284720D01*
X94592643Y-137284720D01*
X94592649Y-137284722D01*
X94863198Y-137325500D01*
X94863202Y-137325500D01*
X95136798Y-137325500D01*
X95136802Y-137325500D01*
X95407351Y-137284722D01*
X95407356Y-137284720D01*
X95407358Y-137284720D01*
X95451861Y-137270992D01*
X95668800Y-137204075D01*
X95915310Y-137085363D01*
X96141372Y-136931236D01*
X96341939Y-136745137D01*
X96512528Y-136531224D01*
X96649331Y-136294276D01*
X96749290Y-136039584D01*
X96810172Y-135772840D01*
X96830619Y-135500000D01*
X96810172Y-135227160D01*
X96749290Y-134960416D01*
X96649331Y-134705724D01*
X96572062Y-134571893D01*
X96564670Y-134515742D01*
X96583821Y-134482570D01*
X97673175Y-133393217D01*
X97725500Y-133371544D01*
X97777826Y-133393218D01*
X97799500Y-133445544D01*
X97799500Y-141103454D01*
X97777826Y-141155780D01*
X96020299Y-142913306D01*
X95967973Y-142934980D01*
X95926289Y-142922122D01*
X95915310Y-142914637D01*
X95786727Y-142852715D01*
X95668805Y-142795927D01*
X95668801Y-142795925D01*
X95668800Y-142795925D01*
X95668795Y-142795923D01*
X95668791Y-142795922D01*
X95407358Y-142715279D01*
X95384715Y-142711866D01*
X95136802Y-142674500D01*
X94863198Y-142674500D01*
X94661490Y-142704901D01*
X94592641Y-142715279D01*
X94331208Y-142795922D01*
X94331194Y-142795927D01*
X94087455Y-142913306D01*
X94084691Y-142914637D01*
X94023055Y-142956660D01*
X93858627Y-143068765D01*
X93658061Y-143254862D01*
X93487472Y-143468776D01*
X93350668Y-143705725D01*
X93250708Y-143960419D01*
X93189828Y-144227159D01*
X93169381Y-144499998D01*
X93169381Y-144500001D01*
X93189828Y-144772840D01*
X93250708Y-145039580D01*
X93319665Y-145215279D01*
X93350669Y-145294276D01*
X93487472Y-145531224D01*
X93658061Y-145745137D01*
X93858628Y-145931236D01*
X94084691Y-146085363D01*
X94331200Y-146204075D01*
X94461924Y-146244398D01*
X94592641Y-146284720D01*
X94592643Y-146284720D01*
X94592649Y-146284722D01*
X94863198Y-146325500D01*
X94863202Y-146325500D01*
X95136798Y-146325500D01*
X95136802Y-146325500D01*
X95407351Y-146284722D01*
X95407356Y-146284720D01*
X95407358Y-146284720D01*
X95451861Y-146270992D01*
X95668800Y-146204075D01*
X95915310Y-146085363D01*
X96141372Y-145931236D01*
X96341939Y-145745137D01*
X96512528Y-145531224D01*
X96649331Y-145294276D01*
X96749290Y-145039584D01*
X96810172Y-144772840D01*
X96830619Y-144500000D01*
X96810172Y-144227160D01*
X96749290Y-143960416D01*
X96649331Y-143705724D01*
X96572062Y-143571893D01*
X96564670Y-143515742D01*
X96583821Y-143482570D01*
X98273175Y-141793217D01*
X98325500Y-141771544D01*
X98377826Y-141793218D01*
X98399500Y-141845544D01*
X98399500Y-151003454D01*
X98377826Y-151055780D01*
X97020299Y-152413306D01*
X96967973Y-152434980D01*
X96926289Y-152422122D01*
X96915310Y-152414637D01*
X96786727Y-152352715D01*
X96668805Y-152295927D01*
X96668801Y-152295925D01*
X96668800Y-152295925D01*
X96668795Y-152295923D01*
X96668791Y-152295922D01*
X96407358Y-152215279D01*
X96384715Y-152211866D01*
X96136802Y-152174500D01*
X95863198Y-152174500D01*
X95661490Y-152204901D01*
X95592641Y-152215279D01*
X95331208Y-152295922D01*
X95331194Y-152295927D01*
X95087455Y-152413306D01*
X95084691Y-152414637D01*
X94858631Y-152568762D01*
X94858627Y-152568765D01*
X94658061Y-152754862D01*
X94487472Y-152968776D01*
X94350668Y-153205725D01*
X94250708Y-153460419D01*
X94189828Y-153727159D01*
X94169381Y-153999998D01*
X94169381Y-154000001D01*
X94189828Y-154272840D01*
X94250708Y-154539580D01*
X94346182Y-154782843D01*
X94350669Y-154794276D01*
X94487472Y-155031224D01*
X94658061Y-155245137D01*
X94858628Y-155431236D01*
X95084691Y-155585363D01*
X95331200Y-155704075D01*
X95461924Y-155744398D01*
X95592641Y-155784720D01*
X95592643Y-155784720D01*
X95592649Y-155784722D01*
X95863198Y-155825500D01*
X95863202Y-155825500D01*
X96136798Y-155825500D01*
X96136802Y-155825500D01*
X96407351Y-155784722D01*
X96407356Y-155784720D01*
X96407358Y-155784720D01*
X96451861Y-155770992D01*
X96668800Y-155704075D01*
X96915310Y-155585363D01*
X97141372Y-155431236D01*
X97341939Y-155245137D01*
X97512528Y-155031224D01*
X97649331Y-154794276D01*
X97749290Y-154539584D01*
X97758325Y-154500000D01*
X120294958Y-154500000D01*
X120315111Y-154858853D01*
X120315113Y-154858865D01*
X120375313Y-155213184D01*
X120474815Y-155558560D01*
X120612352Y-155890607D01*
X120612363Y-155890628D01*
X120786206Y-156205173D01*
X120786210Y-156205180D01*
X120994199Y-156498313D01*
X121100213Y-156616942D01*
X122235502Y-155481652D01*
X122279588Y-155542330D01*
X122457670Y-155720412D01*
X122518346Y-155764495D01*
X121383055Y-156899786D01*
X121501681Y-157005796D01*
X121794819Y-157213789D01*
X121794826Y-157213793D01*
X122109371Y-157387636D01*
X122109392Y-157387647D01*
X122441439Y-157525184D01*
X122786816Y-157624686D01*
X122786814Y-157624686D01*
X123141134Y-157684886D01*
X123141146Y-157684888D01*
X123500000Y-157705041D01*
X123858853Y-157684888D01*
X123858865Y-157684886D01*
X124213184Y-157624686D01*
X124558560Y-157525184D01*
X124890607Y-157387647D01*
X124890628Y-157387636D01*
X125205173Y-157213793D01*
X125205180Y-157213789D01*
X125498318Y-157005796D01*
X125616942Y-156899786D01*
X125616943Y-156899786D01*
X124481653Y-155764496D01*
X124542330Y-155720412D01*
X124720412Y-155542330D01*
X124764496Y-155481653D01*
X125899786Y-156616943D01*
X125899786Y-156616942D01*
X126005796Y-156498318D01*
X126213789Y-156205180D01*
X126213793Y-156205173D01*
X126387636Y-155890628D01*
X126387647Y-155890607D01*
X126525184Y-155558560D01*
X126624686Y-155213184D01*
X126684886Y-154858865D01*
X126684888Y-154858853D01*
X126705041Y-154500000D01*
X126684888Y-154141146D01*
X126684886Y-154141134D01*
X126624686Y-153786815D01*
X126525184Y-153441439D01*
X126387647Y-153109392D01*
X126387636Y-153109371D01*
X126213793Y-152794826D01*
X126213789Y-152794819D01*
X126005796Y-152501681D01*
X125899786Y-152383056D01*
X125899786Y-152383055D01*
X124764495Y-153518345D01*
X124720412Y-153457670D01*
X124542330Y-153279588D01*
X124481652Y-153235502D01*
X125616942Y-152100213D01*
X125498313Y-151994199D01*
X125205180Y-151786210D01*
X125205173Y-151786206D01*
X124890628Y-151612363D01*
X124890607Y-151612352D01*
X124558560Y-151474815D01*
X124213183Y-151375313D01*
X124213185Y-151375313D01*
X123858865Y-151315113D01*
X123858853Y-151315111D01*
X123500000Y-151294958D01*
X123141146Y-151315111D01*
X123141134Y-151315113D01*
X122786815Y-151375313D01*
X122441439Y-151474815D01*
X122109392Y-151612352D01*
X122109371Y-151612363D01*
X121794826Y-151786206D01*
X121794819Y-151786210D01*
X121501686Y-151994199D01*
X121383055Y-152100212D01*
X122518346Y-153235503D01*
X122457670Y-153279588D01*
X122279588Y-153457670D01*
X122235503Y-153518346D01*
X121100212Y-152383055D01*
X120994199Y-152501686D01*
X120786210Y-152794819D01*
X120786206Y-152794826D01*
X120612363Y-153109371D01*
X120612352Y-153109392D01*
X120474815Y-153441439D01*
X120375313Y-153786815D01*
X120315113Y-154141134D01*
X120315111Y-154141146D01*
X120294958Y-154500000D01*
X97758325Y-154500000D01*
X97810172Y-154272840D01*
X97830619Y-154000000D01*
X97810172Y-153727160D01*
X97749290Y-153460416D01*
X97649331Y-153205724D01*
X97572062Y-153071893D01*
X97564670Y-153015742D01*
X97583821Y-152982570D01*
X99120480Y-151445913D01*
X99173207Y-151354588D01*
X99200500Y-151252727D01*
X99200500Y-151147273D01*
X99200500Y-109942129D01*
X99222174Y-109889803D01*
X99550981Y-109560996D01*
X99948215Y-109163761D01*
X100000540Y-109142088D01*
X100052866Y-109163762D01*
X100074540Y-109216088D01*
X100064626Y-109253088D01*
X100033610Y-109306809D01*
X100033606Y-109306818D01*
X99999500Y-109434105D01*
X99999500Y-154040894D01*
X100033606Y-154168181D01*
X100033607Y-154168184D01*
X100033608Y-154168186D01*
X100099500Y-154282314D01*
X100192686Y-154375500D01*
X100306814Y-154441392D01*
X100434105Y-154475499D01*
X100434106Y-154475500D01*
X100434108Y-154475500D01*
X114015894Y-154475500D01*
X114015894Y-154475499D01*
X114143186Y-154441392D01*
X114257314Y-154375500D01*
X114350500Y-154282314D01*
X114416392Y-154168186D01*
X114450499Y-154040894D01*
X114450500Y-154040894D01*
X114450500Y-109434106D01*
X114450499Y-109434105D01*
X114427037Y-109346544D01*
X114416392Y-109306814D01*
X114350500Y-109192686D01*
X114257314Y-109099500D01*
X114238409Y-109088585D01*
X114203932Y-109043653D01*
X114211324Y-108987500D01*
X114256257Y-108953022D01*
X114275410Y-108950500D01*
X133460750Y-108950500D01*
X133513076Y-108972174D01*
X133534750Y-109024500D01*
X133513076Y-109076826D01*
X127012076Y-115577826D01*
X126959750Y-115599500D01*
X123447271Y-115599500D01*
X123345417Y-115626791D01*
X123345408Y-115626795D01*
X123254086Y-115679520D01*
X121020299Y-117913306D01*
X120967973Y-117934980D01*
X120926289Y-117922122D01*
X120915310Y-117914637D01*
X120786727Y-117852715D01*
X120668805Y-117795927D01*
X120668801Y-117795925D01*
X120668800Y-117795925D01*
X120668795Y-117795923D01*
X120668791Y-117795922D01*
X120407358Y-117715279D01*
X120384715Y-117711866D01*
X120136802Y-117674500D01*
X119863198Y-117674500D01*
X119661490Y-117704901D01*
X119592641Y-117715279D01*
X119331208Y-117795922D01*
X119331194Y-117795927D01*
X119087455Y-117913306D01*
X119084691Y-117914637D01*
X119023055Y-117956660D01*
X118858627Y-118068765D01*
X118658061Y-118254862D01*
X118487472Y-118468776D01*
X118350668Y-118705725D01*
X118250708Y-118960419D01*
X118189828Y-119227159D01*
X118169381Y-119499998D01*
X118169381Y-119500001D01*
X118189828Y-119772840D01*
X118250708Y-120039580D01*
X118250710Y-120039584D01*
X118350669Y-120294276D01*
X118487472Y-120531224D01*
X118658061Y-120745137D01*
X118858628Y-120931236D01*
X119084691Y-121085363D01*
X119331200Y-121204075D01*
X119461924Y-121244398D01*
X119592641Y-121284720D01*
X119592643Y-121284720D01*
X119592649Y-121284722D01*
X119863198Y-121325500D01*
X119863202Y-121325500D01*
X120136798Y-121325500D01*
X120136802Y-121325500D01*
X120407351Y-121284722D01*
X120407356Y-121284720D01*
X120407358Y-121284720D01*
X120451861Y-121270992D01*
X120668800Y-121204075D01*
X120915310Y-121085363D01*
X121141372Y-120931236D01*
X121341939Y-120745137D01*
X121512528Y-120531224D01*
X121649331Y-120294276D01*
X121749290Y-120039584D01*
X121810172Y-119772840D01*
X121830619Y-119500000D01*
X121810172Y-119227160D01*
X121749290Y-118960416D01*
X121649331Y-118705724D01*
X121572062Y-118571893D01*
X121564670Y-118515742D01*
X121583821Y-118482570D01*
X123644219Y-116422174D01*
X123696545Y-116400500D01*
X126859278Y-116400500D01*
X126911604Y-116422174D01*
X126933278Y-116474500D01*
X126911604Y-116526826D01*
X120179517Y-123258913D01*
X120126792Y-123350235D01*
X120126793Y-123350236D01*
X120099500Y-123452096D01*
X120099500Y-127658550D01*
X120077826Y-127710876D01*
X120047312Y-127729262D01*
X119831208Y-127795922D01*
X119831194Y-127795927D01*
X119584693Y-127914636D01*
X119584691Y-127914637D01*
X119358631Y-128068762D01*
X119358627Y-128068765D01*
X119158061Y-128254862D01*
X118987472Y-128468776D01*
X118850668Y-128705725D01*
X118750708Y-128960419D01*
X118689828Y-129227159D01*
X118669381Y-129499998D01*
X118669381Y-129500001D01*
X118689828Y-129772840D01*
X118750708Y-130039580D01*
X118750710Y-130039584D01*
X118850669Y-130294276D01*
X118987472Y-130531224D01*
X119158061Y-130745137D01*
X119358628Y-130931236D01*
X119584691Y-131085363D01*
X119831200Y-131204075D01*
X119961924Y-131244398D01*
X120092641Y-131284720D01*
X120092643Y-131284720D01*
X120092649Y-131284722D01*
X120363198Y-131325500D01*
X120363202Y-131325500D01*
X120636798Y-131325500D01*
X120636802Y-131325500D01*
X120907351Y-131284722D01*
X120907356Y-131284720D01*
X120907358Y-131284720D01*
X120951861Y-131270992D01*
X121168800Y-131204075D01*
X121415310Y-131085363D01*
X121641372Y-130931236D01*
X121841939Y-130745137D01*
X122012528Y-130531224D01*
X122149331Y-130294276D01*
X122249290Y-130039584D01*
X122310172Y-129772840D01*
X122330619Y-129500000D01*
X122310172Y-129227160D01*
X122249290Y-128960416D01*
X122149331Y-128705724D01*
X122012528Y-128468776D01*
X121841939Y-128254863D01*
X121641372Y-128068764D01*
X121415310Y-127914637D01*
X121286727Y-127852715D01*
X121168805Y-127795927D01*
X121168801Y-127795925D01*
X121168800Y-127795925D01*
X121168795Y-127795923D01*
X121168791Y-127795922D01*
X120952688Y-127729262D01*
X120909075Y-127693128D01*
X120900500Y-127658550D01*
X120900500Y-123701368D01*
X120922174Y-123649042D01*
X132473174Y-112098042D01*
X132525500Y-112076368D01*
X132577826Y-112098042D01*
X132599500Y-112150368D01*
X132599500Y-124658550D01*
X132577826Y-124710876D01*
X132547312Y-124729262D01*
X132331208Y-124795922D01*
X132331194Y-124795927D01*
X132087455Y-124913306D01*
X132084691Y-124914637D01*
X132023055Y-124956660D01*
X131858627Y-125068765D01*
X131658061Y-125254862D01*
X131487472Y-125468776D01*
X131350668Y-125705725D01*
X131250708Y-125960419D01*
X131189828Y-126227159D01*
X131169381Y-126499998D01*
X131169381Y-126500001D01*
X131189828Y-126772840D01*
X131250708Y-127039580D01*
X131250710Y-127039584D01*
X131350669Y-127294276D01*
X131487472Y-127531224D01*
X131658061Y-127745137D01*
X131858628Y-127931236D01*
X132084691Y-128085363D01*
X132331200Y-128204075D01*
X132461924Y-128244398D01*
X132592641Y-128284720D01*
X132592643Y-128284720D01*
X132592649Y-128284722D01*
X132863198Y-128325500D01*
X132863202Y-128325500D01*
X133136798Y-128325500D01*
X133136802Y-128325500D01*
X133407351Y-128284722D01*
X133407356Y-128284720D01*
X133407358Y-128284720D01*
X133451861Y-128270992D01*
X133668800Y-128204075D01*
X133915310Y-128085363D01*
X134141372Y-127931236D01*
X134341939Y-127745137D01*
X134512528Y-127531224D01*
X134649331Y-127294276D01*
X134749290Y-127039584D01*
X134810172Y-126772840D01*
X134830619Y-126500000D01*
X134810172Y-126227160D01*
X134749290Y-125960416D01*
X134649331Y-125705724D01*
X134512528Y-125468776D01*
X134341939Y-125254863D01*
X134141372Y-125068764D01*
X133915310Y-124914637D01*
X133786727Y-124852715D01*
X133668805Y-124795927D01*
X133668801Y-124795925D01*
X133668800Y-124795925D01*
X133668795Y-124795923D01*
X133668791Y-124795922D01*
X133452688Y-124729262D01*
X133409075Y-124693128D01*
X133400500Y-124658550D01*
X133400500Y-112049896D01*
X133422174Y-111997570D01*
X135473174Y-109946570D01*
X135525500Y-109924896D01*
X135577826Y-109946570D01*
X135599500Y-109998896D01*
X135599500Y-128053455D01*
X135577826Y-128105781D01*
X125605781Y-138077826D01*
X125553455Y-138099500D01*
X122340048Y-138099500D01*
X122287722Y-138077826D01*
X122267903Y-138041966D01*
X122249291Y-137960419D01*
X122149331Y-137705725D01*
X122149331Y-137705724D01*
X122012528Y-137468776D01*
X121841939Y-137254863D01*
X121641372Y-137068764D01*
X121415310Y-136914637D01*
X121286727Y-136852715D01*
X121168805Y-136795927D01*
X121168801Y-136795925D01*
X121168800Y-136795925D01*
X121168795Y-136795923D01*
X121168791Y-136795922D01*
X120907358Y-136715279D01*
X120884715Y-136711866D01*
X120636802Y-136674500D01*
X120363198Y-136674500D01*
X120161490Y-136704901D01*
X120092641Y-136715279D01*
X119831208Y-136795922D01*
X119831194Y-136795927D01*
X119584693Y-136914636D01*
X119584691Y-136914637D01*
X119358631Y-137068762D01*
X119358627Y-137068765D01*
X119158061Y-137254862D01*
X118987472Y-137468776D01*
X118850668Y-137705725D01*
X118750708Y-137960419D01*
X118689828Y-138227159D01*
X118669381Y-138499998D01*
X118669381Y-138500001D01*
X118689828Y-138772840D01*
X118750708Y-139039580D01*
X118850668Y-139294274D01*
X118850669Y-139294276D01*
X118987472Y-139531224D01*
X119158061Y-139745137D01*
X119358628Y-139931236D01*
X119584691Y-140085363D01*
X119831200Y-140204075D01*
X119961924Y-140244398D01*
X120092641Y-140284720D01*
X120092643Y-140284720D01*
X120092649Y-140284722D01*
X120363198Y-140325500D01*
X120363202Y-140325500D01*
X120636798Y-140325500D01*
X120636802Y-140325500D01*
X120907351Y-140284722D01*
X120907356Y-140284720D01*
X120907358Y-140284720D01*
X120951861Y-140270992D01*
X121168800Y-140204075D01*
X121415310Y-140085363D01*
X121641372Y-139931236D01*
X121841939Y-139745137D01*
X122012528Y-139531224D01*
X122149331Y-139294276D01*
X122249290Y-139039584D01*
X122267903Y-138958033D01*
X122300677Y-138911843D01*
X122340048Y-138900500D01*
X125802726Y-138900500D01*
X125802727Y-138900500D01*
X125904588Y-138873207D01*
X125995913Y-138820480D01*
X136320480Y-128495913D01*
X136373207Y-128404588D01*
X136400500Y-128302727D01*
X136400500Y-128197273D01*
X136400500Y-109898424D01*
X136422174Y-109846098D01*
X137546098Y-108722174D01*
X137598424Y-108700500D01*
X144220493Y-108700500D01*
X144220494Y-108700500D01*
X144322355Y-108673207D01*
X144413680Y-108620480D01*
X147020480Y-106013680D01*
X147065013Y-105936547D01*
X147109945Y-105902070D01*
X147166098Y-105909462D01*
X147186301Y-105926603D01*
X147242756Y-105995394D01*
X147243590Y-105996410D01*
X147403550Y-106127685D01*
X147586046Y-106225232D01*
X147784066Y-106285300D01*
X147990000Y-106305583D01*
X148195934Y-106285300D01*
X148393954Y-106225232D01*
X148576450Y-106127685D01*
X148736410Y-105996410D01*
X148748297Y-105981925D01*
X148798245Y-105955226D01*
X148852444Y-105971666D01*
X148879144Y-106021615D01*
X148879500Y-106028870D01*
X148879500Y-108227273D01*
X148879500Y-108332727D01*
X148906793Y-108434588D01*
X148906795Y-108434592D01*
X148959517Y-108525909D01*
X148959518Y-108525910D01*
X148959520Y-108525913D01*
X149727826Y-109294219D01*
X149749500Y-109346544D01*
X149749500Y-153468455D01*
X149727826Y-153520781D01*
X149576826Y-153671781D01*
X149524500Y-153693455D01*
X149472174Y-153671781D01*
X149450500Y-153619455D01*
X149450500Y-109434106D01*
X149450499Y-109434105D01*
X149427037Y-109346544D01*
X149416392Y-109306814D01*
X149350500Y-109192686D01*
X149257314Y-109099500D01*
X149241556Y-109090402D01*
X149143190Y-109033610D01*
X149143181Y-109033606D01*
X149015894Y-108999500D01*
X149015892Y-108999500D01*
X139015892Y-108999500D01*
X138884108Y-108999500D01*
X138884106Y-108999500D01*
X138756818Y-109033606D01*
X138756809Y-109033610D01*
X138642685Y-109099500D01*
X138549500Y-109192685D01*
X138483610Y-109306809D01*
X138483606Y-109306818D01*
X138449500Y-109434105D01*
X138449500Y-140204455D01*
X138427826Y-140256781D01*
X138375500Y-140278455D01*
X138323174Y-140256781D01*
X134583823Y-136517430D01*
X134562149Y-136465104D01*
X134572064Y-136428103D01*
X134649328Y-136294281D01*
X134649327Y-136294281D01*
X134649331Y-136294276D01*
X134749290Y-136039584D01*
X134810172Y-135772840D01*
X134830619Y-135500000D01*
X134810172Y-135227160D01*
X134749290Y-134960416D01*
X134649331Y-134705724D01*
X134512528Y-134468776D01*
X134341939Y-134254863D01*
X134141372Y-134068764D01*
X133915310Y-133914637D01*
X133786727Y-133852715D01*
X133668805Y-133795927D01*
X133668801Y-133795925D01*
X133668800Y-133795925D01*
X133668795Y-133795923D01*
X133668791Y-133795922D01*
X133407358Y-133715279D01*
X133384715Y-133711866D01*
X133136802Y-133674500D01*
X132863198Y-133674500D01*
X132661490Y-133704901D01*
X132592641Y-133715279D01*
X132331208Y-133795922D01*
X132331194Y-133795927D01*
X132087455Y-133913306D01*
X132084691Y-133914637D01*
X132023055Y-133956660D01*
X131858627Y-134068765D01*
X131658061Y-134254862D01*
X131487472Y-134468776D01*
X131350668Y-134705725D01*
X131250708Y-134960419D01*
X131189828Y-135227159D01*
X131169381Y-135499998D01*
X131169381Y-135500001D01*
X131189828Y-135772840D01*
X131250708Y-136039580D01*
X131250710Y-136039584D01*
X131350669Y-136294276D01*
X131487472Y-136531224D01*
X131658061Y-136745137D01*
X131858628Y-136931236D01*
X132084691Y-137085363D01*
X132331200Y-137204075D01*
X132461924Y-137244398D01*
X132592641Y-137284720D01*
X132592643Y-137284720D01*
X132592649Y-137284722D01*
X132863198Y-137325500D01*
X132863202Y-137325500D01*
X133136798Y-137325500D01*
X133136802Y-137325500D01*
X133407351Y-137284722D01*
X133407356Y-137284720D01*
X133407358Y-137284720D01*
X133451861Y-137270992D01*
X133668800Y-137204075D01*
X133915310Y-137085363D01*
X133926285Y-137077879D01*
X133981727Y-137066308D01*
X134020300Y-137086693D01*
X135906781Y-138973174D01*
X135928455Y-139025500D01*
X135906781Y-139077826D01*
X135854455Y-139099500D01*
X131197271Y-139099500D01*
X131095417Y-139126791D01*
X131095408Y-139126795D01*
X131004086Y-139179520D01*
X123105781Y-147077826D01*
X123053455Y-147099500D01*
X122340048Y-147099500D01*
X122287722Y-147077826D01*
X122267903Y-147041966D01*
X122249291Y-146960419D01*
X122157744Y-146727160D01*
X122149331Y-146705724D01*
X122012528Y-146468776D01*
X121841939Y-146254863D01*
X121641372Y-146068764D01*
X121415310Y-145914637D01*
X121286727Y-145852715D01*
X121168805Y-145795927D01*
X121168801Y-145795925D01*
X121168800Y-145795925D01*
X121168795Y-145795923D01*
X121168791Y-145795922D01*
X120907358Y-145715279D01*
X120884715Y-145711866D01*
X120636802Y-145674500D01*
X120363198Y-145674500D01*
X120161490Y-145704901D01*
X120092641Y-145715279D01*
X119831208Y-145795922D01*
X119831194Y-145795927D01*
X119584693Y-145914636D01*
X119584691Y-145914637D01*
X119358631Y-146068762D01*
X119358627Y-146068765D01*
X119158061Y-146254862D01*
X118987472Y-146468776D01*
X118850668Y-146705725D01*
X118750708Y-146960419D01*
X118689828Y-147227159D01*
X118669381Y-147499998D01*
X118669381Y-147500001D01*
X118689828Y-147772840D01*
X118750708Y-148039580D01*
X118750710Y-148039584D01*
X118850669Y-148294276D01*
X118987472Y-148531224D01*
X119158061Y-148745137D01*
X119358628Y-148931236D01*
X119584691Y-149085363D01*
X119831200Y-149204075D01*
X119961924Y-149244398D01*
X120092641Y-149284720D01*
X120092643Y-149284720D01*
X120092649Y-149284722D01*
X120363198Y-149325500D01*
X120363202Y-149325500D01*
X120636798Y-149325500D01*
X120636802Y-149325500D01*
X120907351Y-149284722D01*
X120907356Y-149284720D01*
X120907358Y-149284720D01*
X120951861Y-149270992D01*
X121168800Y-149204075D01*
X121415310Y-149085363D01*
X121641372Y-148931236D01*
X121841939Y-148745137D01*
X122012528Y-148531224D01*
X122149331Y-148294276D01*
X122249290Y-148039584D01*
X122267903Y-147958033D01*
X122300677Y-147911843D01*
X122340048Y-147900500D01*
X123302726Y-147900500D01*
X123302727Y-147900500D01*
X123404588Y-147873207D01*
X123495913Y-147820480D01*
X131394219Y-139922174D01*
X131446545Y-139900500D01*
X135954455Y-139900500D01*
X136006781Y-139922174D01*
X136977826Y-140893218D01*
X136999500Y-140945544D01*
X136999500Y-147754455D01*
X136977826Y-147806781D01*
X136925500Y-147828455D01*
X136873174Y-147806781D01*
X134583823Y-145517431D01*
X134562149Y-145465105D01*
X134572062Y-145428107D01*
X134649331Y-145294276D01*
X134749290Y-145039584D01*
X134810172Y-144772840D01*
X134830619Y-144500000D01*
X134810172Y-144227160D01*
X134749290Y-143960416D01*
X134649331Y-143705724D01*
X134512528Y-143468776D01*
X134341939Y-143254863D01*
X134141372Y-143068764D01*
X133915310Y-142914637D01*
X133786727Y-142852715D01*
X133668805Y-142795927D01*
X133668801Y-142795925D01*
X133668800Y-142795925D01*
X133668795Y-142795923D01*
X133668791Y-142795922D01*
X133407358Y-142715279D01*
X133384715Y-142711866D01*
X133136802Y-142674500D01*
X132863198Y-142674500D01*
X132661490Y-142704901D01*
X132592641Y-142715279D01*
X132331208Y-142795922D01*
X132331194Y-142795927D01*
X132087455Y-142913306D01*
X132084691Y-142914637D01*
X132023055Y-142956660D01*
X131858627Y-143068765D01*
X131658061Y-143254862D01*
X131487472Y-143468776D01*
X131350668Y-143705725D01*
X131250708Y-143960419D01*
X131189828Y-144227159D01*
X131169381Y-144499998D01*
X131169381Y-144500001D01*
X131189828Y-144772840D01*
X131250708Y-145039580D01*
X131319665Y-145215279D01*
X131350669Y-145294276D01*
X131487472Y-145531224D01*
X131658061Y-145745137D01*
X131858628Y-145931236D01*
X132084691Y-146085363D01*
X132331200Y-146204075D01*
X132461924Y-146244398D01*
X132592641Y-146284720D01*
X132592643Y-146284720D01*
X132592649Y-146284722D01*
X132863198Y-146325500D01*
X132863202Y-146325500D01*
X133136798Y-146325500D01*
X133136802Y-146325500D01*
X133407351Y-146284722D01*
X133407356Y-146284720D01*
X133407358Y-146284720D01*
X133451861Y-146270992D01*
X133668800Y-146204075D01*
X133915310Y-146085363D01*
X133926285Y-146077879D01*
X133981727Y-146066308D01*
X134020300Y-146086693D01*
X136377826Y-148444218D01*
X136399500Y-148496544D01*
X136399500Y-154359273D01*
X136399500Y-154464727D01*
X136426523Y-154565582D01*
X136426793Y-154566588D01*
X136426795Y-154566592D01*
X136479517Y-154657909D01*
X136479518Y-154657910D01*
X136479520Y-154657913D01*
X137160190Y-155338583D01*
X137744781Y-155923174D01*
X137766455Y-155975500D01*
X137744781Y-156027826D01*
X137692455Y-156049500D01*
X136646545Y-156049500D01*
X136594219Y-156027826D01*
X135583823Y-155017430D01*
X135562149Y-154965104D01*
X135572064Y-154928103D01*
X135602916Y-154874668D01*
X135649331Y-154794276D01*
X135749290Y-154539584D01*
X135810172Y-154272840D01*
X135830619Y-154000000D01*
X135810172Y-153727160D01*
X135749290Y-153460416D01*
X135649331Y-153205724D01*
X135512528Y-152968776D01*
X135341939Y-152754863D01*
X135141372Y-152568764D01*
X134915310Y-152414637D01*
X134786727Y-152352715D01*
X134668805Y-152295927D01*
X134668801Y-152295925D01*
X134668800Y-152295925D01*
X134668795Y-152295923D01*
X134668791Y-152295922D01*
X134407358Y-152215279D01*
X134384715Y-152211866D01*
X134136802Y-152174500D01*
X133863198Y-152174500D01*
X133661490Y-152204901D01*
X133592641Y-152215279D01*
X133331208Y-152295922D01*
X133331194Y-152295927D01*
X133087455Y-152413306D01*
X133084691Y-152414637D01*
X132858631Y-152568762D01*
X132858627Y-152568765D01*
X132658061Y-152754862D01*
X132487472Y-152968776D01*
X132350668Y-153205725D01*
X132250708Y-153460419D01*
X132189828Y-153727159D01*
X132169381Y-153999998D01*
X132169381Y-154000001D01*
X132189828Y-154272840D01*
X132250708Y-154539580D01*
X132346182Y-154782843D01*
X132350669Y-154794276D01*
X132487472Y-155031224D01*
X132658061Y-155245137D01*
X132858628Y-155431236D01*
X133084691Y-155585363D01*
X133331200Y-155704075D01*
X133461924Y-155744398D01*
X133592641Y-155784720D01*
X133592643Y-155784720D01*
X133592649Y-155784722D01*
X133863198Y-155825500D01*
X133863202Y-155825500D01*
X134136798Y-155825500D01*
X134136802Y-155825500D01*
X134407351Y-155784722D01*
X134407356Y-155784720D01*
X134407358Y-155784720D01*
X134451861Y-155770992D01*
X134668800Y-155704075D01*
X134915310Y-155585363D01*
X134926285Y-155577879D01*
X134981727Y-155566308D01*
X135020300Y-155586693D01*
X136204087Y-156770480D01*
X136295412Y-156823207D01*
X136397273Y-156850500D01*
X136397274Y-156850500D01*
X149963726Y-156850500D01*
X149963727Y-156850500D01*
X150065588Y-156823207D01*
X150156913Y-156770480D01*
X152270480Y-154656913D01*
X152323207Y-154565587D01*
X152350499Y-154463729D01*
X152350500Y-154463729D01*
X152350500Y-153999998D01*
X170169381Y-153999998D01*
X170169381Y-154000001D01*
X170189828Y-154272840D01*
X170250708Y-154539580D01*
X170346182Y-154782843D01*
X170350669Y-154794276D01*
X170487472Y-155031224D01*
X170658061Y-155245137D01*
X170858628Y-155431236D01*
X171084691Y-155585363D01*
X171331200Y-155704075D01*
X171461924Y-155744398D01*
X171592641Y-155784720D01*
X171592643Y-155784720D01*
X171592649Y-155784722D01*
X171863198Y-155825500D01*
X171863202Y-155825500D01*
X172136798Y-155825500D01*
X172136802Y-155825500D01*
X172407351Y-155784722D01*
X172407356Y-155784720D01*
X172407358Y-155784720D01*
X172451861Y-155770992D01*
X172668800Y-155704075D01*
X172915310Y-155585363D01*
X173141372Y-155431236D01*
X173341939Y-155245137D01*
X173512528Y-155031224D01*
X173649331Y-154794276D01*
X173749290Y-154539584D01*
X173758325Y-154500000D01*
X197544958Y-154500000D01*
X197565111Y-154858853D01*
X197565113Y-154858865D01*
X197625313Y-155213184D01*
X197724815Y-155558560D01*
X197862352Y-155890607D01*
X197862363Y-155890628D01*
X198036206Y-156205173D01*
X198036210Y-156205180D01*
X198244199Y-156498313D01*
X198350213Y-156616942D01*
X199485502Y-155481652D01*
X199529588Y-155542330D01*
X199707670Y-155720412D01*
X199768346Y-155764495D01*
X198633055Y-156899786D01*
X198751681Y-157005796D01*
X199044819Y-157213789D01*
X199044826Y-157213793D01*
X199359371Y-157387636D01*
X199359392Y-157387647D01*
X199691439Y-157525184D01*
X200036816Y-157624686D01*
X200036814Y-157624686D01*
X200391134Y-157684886D01*
X200391146Y-157684888D01*
X200750000Y-157705041D01*
X201108853Y-157684888D01*
X201108865Y-157684886D01*
X201463184Y-157624686D01*
X201808560Y-157525184D01*
X202140607Y-157387647D01*
X202140628Y-157387636D01*
X202455173Y-157213793D01*
X202455180Y-157213789D01*
X202748318Y-157005796D01*
X202866942Y-156899786D01*
X202866943Y-156899786D01*
X201731653Y-155764496D01*
X201792330Y-155720412D01*
X201970412Y-155542330D01*
X202014496Y-155481653D01*
X203149786Y-156616943D01*
X203149786Y-156616942D01*
X203255796Y-156498318D01*
X203463789Y-156205180D01*
X203463793Y-156205173D01*
X203637636Y-155890628D01*
X203637647Y-155890607D01*
X203775184Y-155558560D01*
X203874686Y-155213184D01*
X203934886Y-154858865D01*
X203934888Y-154858853D01*
X203955041Y-154500000D01*
X203934888Y-154141146D01*
X203934886Y-154141134D01*
X203874686Y-153786815D01*
X203775184Y-153441439D01*
X203637647Y-153109392D01*
X203637636Y-153109371D01*
X203463793Y-152794826D01*
X203463789Y-152794819D01*
X203255796Y-152501681D01*
X203149786Y-152383056D01*
X203149786Y-152383055D01*
X202014495Y-153518345D01*
X201970412Y-153457670D01*
X201792330Y-153279588D01*
X201731652Y-153235502D01*
X202866942Y-152100213D01*
X202748313Y-151994199D01*
X202455180Y-151786210D01*
X202455173Y-151786206D01*
X202140628Y-151612363D01*
X202140607Y-151612352D01*
X201808560Y-151474815D01*
X201463183Y-151375313D01*
X201463185Y-151375313D01*
X201108865Y-151315113D01*
X201108853Y-151315111D01*
X200750000Y-151294958D01*
X200391146Y-151315111D01*
X200391134Y-151315113D01*
X200036815Y-151375313D01*
X199691439Y-151474815D01*
X199359392Y-151612352D01*
X199359371Y-151612363D01*
X199044826Y-151786206D01*
X199044819Y-151786210D01*
X198751686Y-151994199D01*
X198633055Y-152100212D01*
X199768346Y-153235503D01*
X199707670Y-153279588D01*
X199529588Y-153457670D01*
X199485503Y-153518346D01*
X198350212Y-152383055D01*
X198244199Y-152501686D01*
X198036210Y-152794819D01*
X198036206Y-152794826D01*
X197862363Y-153109371D01*
X197862352Y-153109392D01*
X197724815Y-153441439D01*
X197625313Y-153786815D01*
X197565113Y-154141134D01*
X197565111Y-154141146D01*
X197544958Y-154500000D01*
X173758325Y-154500000D01*
X173810172Y-154272840D01*
X173830619Y-154000000D01*
X173810172Y-153727160D01*
X173749290Y-153460416D01*
X173649331Y-153205724D01*
X173512528Y-152968776D01*
X173341939Y-152754863D01*
X173141372Y-152568764D01*
X172915310Y-152414637D01*
X172786727Y-152352715D01*
X172668805Y-152295927D01*
X172668801Y-152295925D01*
X172668800Y-152295925D01*
X172668795Y-152295923D01*
X172668791Y-152295922D01*
X172407358Y-152215279D01*
X172384715Y-152211866D01*
X172136802Y-152174500D01*
X171863198Y-152174500D01*
X171661490Y-152204901D01*
X171592641Y-152215279D01*
X171331208Y-152295922D01*
X171331194Y-152295927D01*
X171087455Y-152413306D01*
X171084691Y-152414637D01*
X170858631Y-152568762D01*
X170858627Y-152568765D01*
X170658061Y-152754862D01*
X170487472Y-152968776D01*
X170350668Y-153205725D01*
X170250708Y-153460419D01*
X170189828Y-153727159D01*
X170169381Y-153999998D01*
X152350500Y-153999998D01*
X152350500Y-146999998D01*
X156669381Y-146999998D01*
X156669381Y-147000001D01*
X156689828Y-147272840D01*
X156750708Y-147539580D01*
X156750710Y-147539584D01*
X156850669Y-147794276D01*
X156987472Y-148031224D01*
X157158061Y-148245137D01*
X157358628Y-148431236D01*
X157584691Y-148585363D01*
X157831200Y-148704075D01*
X157961924Y-148744398D01*
X158092641Y-148784720D01*
X158092643Y-148784720D01*
X158092649Y-148784722D01*
X158363198Y-148825500D01*
X158363202Y-148825500D01*
X158636798Y-148825500D01*
X158636802Y-148825500D01*
X158907351Y-148784722D01*
X158907356Y-148784720D01*
X158907358Y-148784720D01*
X158951861Y-148770992D01*
X159168800Y-148704075D01*
X159415310Y-148585363D01*
X159641372Y-148431236D01*
X159841939Y-148245137D01*
X160012528Y-148031224D01*
X160149331Y-147794276D01*
X160249290Y-147539584D01*
X160310172Y-147272840D01*
X160330619Y-147000000D01*
X160310172Y-146727160D01*
X160249290Y-146460416D01*
X160149331Y-146205724D01*
X160012528Y-145968776D01*
X159841939Y-145754863D01*
X159641372Y-145568764D01*
X159415310Y-145414637D01*
X159286727Y-145352715D01*
X159168805Y-145295927D01*
X159168801Y-145295925D01*
X159168800Y-145295925D01*
X159168795Y-145295923D01*
X159168791Y-145295922D01*
X158907358Y-145215279D01*
X158884715Y-145211866D01*
X158636802Y-145174500D01*
X158363198Y-145174500D01*
X158161490Y-145204901D01*
X158092641Y-145215279D01*
X157831208Y-145295922D01*
X157831194Y-145295927D01*
X157584693Y-145414636D01*
X157584691Y-145414637D01*
X157358631Y-145568762D01*
X157358627Y-145568765D01*
X157158061Y-145754862D01*
X156987472Y-145968776D01*
X156850668Y-146205725D01*
X156750708Y-146460419D01*
X156689828Y-146727159D01*
X156669381Y-146999998D01*
X152350500Y-146999998D01*
X152350500Y-144499998D01*
X169169381Y-144499998D01*
X169169381Y-144500001D01*
X169189828Y-144772840D01*
X169250708Y-145039580D01*
X169319665Y-145215279D01*
X169350669Y-145294276D01*
X169487472Y-145531224D01*
X169658061Y-145745137D01*
X169858628Y-145931236D01*
X170084691Y-146085363D01*
X170331200Y-146204075D01*
X170461924Y-146244398D01*
X170592641Y-146284720D01*
X170592643Y-146284720D01*
X170592649Y-146284722D01*
X170863198Y-146325500D01*
X170863202Y-146325500D01*
X171136798Y-146325500D01*
X171136802Y-146325500D01*
X171407351Y-146284722D01*
X171407356Y-146284720D01*
X171407358Y-146284720D01*
X171451861Y-146270992D01*
X171668800Y-146204075D01*
X171915310Y-146085363D01*
X172141372Y-145931236D01*
X172341939Y-145745137D01*
X172512528Y-145531224D01*
X172649331Y-145294276D01*
X172749290Y-145039584D01*
X172810172Y-144772840D01*
X172830619Y-144500000D01*
X172810172Y-144227160D01*
X172749290Y-143960416D01*
X172649331Y-143705724D01*
X172512528Y-143468776D01*
X172341939Y-143254863D01*
X172141372Y-143068764D01*
X171915310Y-142914637D01*
X171786727Y-142852715D01*
X171668805Y-142795927D01*
X171668801Y-142795925D01*
X171668800Y-142795925D01*
X171668795Y-142795923D01*
X171668791Y-142795922D01*
X171407358Y-142715279D01*
X171384715Y-142711866D01*
X171136802Y-142674500D01*
X170863198Y-142674500D01*
X170661490Y-142704901D01*
X170592641Y-142715279D01*
X170331208Y-142795922D01*
X170331194Y-142795927D01*
X170087455Y-142913306D01*
X170084691Y-142914637D01*
X170023055Y-142956660D01*
X169858627Y-143068765D01*
X169658061Y-143254862D01*
X169487472Y-143468776D01*
X169350668Y-143705725D01*
X169250708Y-143960419D01*
X169189828Y-144227159D01*
X169169381Y-144499998D01*
X152350500Y-144499998D01*
X152350500Y-138499998D01*
X156669381Y-138499998D01*
X156669381Y-138500001D01*
X156689828Y-138772840D01*
X156750708Y-139039580D01*
X156850668Y-139294274D01*
X156850669Y-139294276D01*
X156987472Y-139531224D01*
X157158061Y-139745137D01*
X157358628Y-139931236D01*
X157584691Y-140085363D01*
X157831200Y-140204075D01*
X157961924Y-140244398D01*
X158092641Y-140284720D01*
X158092643Y-140284720D01*
X158092649Y-140284722D01*
X158363198Y-140325500D01*
X158363202Y-140325500D01*
X158636798Y-140325500D01*
X158636802Y-140325500D01*
X158907351Y-140284722D01*
X158907356Y-140284720D01*
X158907358Y-140284720D01*
X158951861Y-140270992D01*
X159168800Y-140204075D01*
X159415310Y-140085363D01*
X159641372Y-139931236D01*
X159841939Y-139745137D01*
X160012528Y-139531224D01*
X160149331Y-139294276D01*
X160249290Y-139039584D01*
X160310172Y-138772840D01*
X160330619Y-138500000D01*
X160310172Y-138227160D01*
X160249290Y-137960416D01*
X160149331Y-137705724D01*
X160012528Y-137468776D01*
X159841939Y-137254863D01*
X159641372Y-137068764D01*
X159415310Y-136914637D01*
X159286727Y-136852715D01*
X159168805Y-136795927D01*
X159168801Y-136795925D01*
X159168800Y-136795925D01*
X159168795Y-136795923D01*
X159168791Y-136795922D01*
X158907358Y-136715279D01*
X158884715Y-136711866D01*
X158636802Y-136674500D01*
X158363198Y-136674500D01*
X158161490Y-136704901D01*
X158092641Y-136715279D01*
X157831208Y-136795922D01*
X157831194Y-136795927D01*
X157584693Y-136914636D01*
X157584691Y-136914637D01*
X157358631Y-137068762D01*
X157358627Y-137068765D01*
X157158061Y-137254862D01*
X156987472Y-137468776D01*
X156850668Y-137705725D01*
X156750708Y-137960419D01*
X156689828Y-138227159D01*
X156669381Y-138499998D01*
X152350500Y-138499998D01*
X152350500Y-135499998D01*
X169169381Y-135499998D01*
X169169381Y-135500001D01*
X169189828Y-135772840D01*
X169250708Y-136039580D01*
X169250710Y-136039584D01*
X169350669Y-136294276D01*
X169487472Y-136531224D01*
X169658061Y-136745137D01*
X169858628Y-136931236D01*
X170084691Y-137085363D01*
X170331200Y-137204075D01*
X170461924Y-137244398D01*
X170592641Y-137284720D01*
X170592643Y-137284720D01*
X170592649Y-137284722D01*
X170863198Y-137325500D01*
X170863202Y-137325500D01*
X171136798Y-137325500D01*
X171136802Y-137325500D01*
X171407351Y-137284722D01*
X171407356Y-137284720D01*
X171407358Y-137284720D01*
X171451861Y-137270992D01*
X171668800Y-137204075D01*
X171915310Y-137085363D01*
X172141372Y-136931236D01*
X172341939Y-136745137D01*
X172512528Y-136531224D01*
X172649331Y-136294276D01*
X172749290Y-136039584D01*
X172810172Y-135772840D01*
X172830619Y-135500000D01*
X172810172Y-135227160D01*
X172749290Y-134960416D01*
X172649331Y-134705724D01*
X172512528Y-134468776D01*
X172341939Y-134254863D01*
X172141372Y-134068764D01*
X171915310Y-133914637D01*
X171786727Y-133852715D01*
X171668805Y-133795927D01*
X171668801Y-133795925D01*
X171668800Y-133795925D01*
X171668795Y-133795923D01*
X171668791Y-133795922D01*
X171407358Y-133715279D01*
X171384715Y-133711866D01*
X171136802Y-133674500D01*
X170863198Y-133674500D01*
X170661490Y-133704901D01*
X170592641Y-133715279D01*
X170331208Y-133795922D01*
X170331194Y-133795927D01*
X170087455Y-133913306D01*
X170084691Y-133914637D01*
X170023055Y-133956660D01*
X169858627Y-134068765D01*
X169658061Y-134254862D01*
X169487472Y-134468776D01*
X169350668Y-134705725D01*
X169250708Y-134960419D01*
X169189828Y-135227159D01*
X169169381Y-135499998D01*
X152350500Y-135499998D01*
X152350500Y-129499998D01*
X156669381Y-129499998D01*
X156669381Y-129500001D01*
X156689828Y-129772840D01*
X156750708Y-130039580D01*
X156750710Y-130039584D01*
X156850669Y-130294276D01*
X156987472Y-130531224D01*
X157158061Y-130745137D01*
X157358628Y-130931236D01*
X157584691Y-131085363D01*
X157831200Y-131204075D01*
X157961924Y-131244398D01*
X158092641Y-131284720D01*
X158092643Y-131284720D01*
X158092649Y-131284722D01*
X158363198Y-131325500D01*
X158363202Y-131325500D01*
X158636798Y-131325500D01*
X158636802Y-131325500D01*
X158907351Y-131284722D01*
X158907356Y-131284720D01*
X158907358Y-131284720D01*
X158951861Y-131270992D01*
X159168800Y-131204075D01*
X159415310Y-131085363D01*
X159641372Y-130931236D01*
X159841939Y-130745137D01*
X160012528Y-130531224D01*
X160149331Y-130294276D01*
X160249290Y-130039584D01*
X160310172Y-129772840D01*
X160330619Y-129500000D01*
X160310172Y-129227160D01*
X160249290Y-128960416D01*
X160149331Y-128705724D01*
X160012528Y-128468776D01*
X159841939Y-128254863D01*
X159641372Y-128068764D01*
X159415310Y-127914637D01*
X159286727Y-127852715D01*
X159168805Y-127795927D01*
X159168801Y-127795925D01*
X159168800Y-127795925D01*
X159168795Y-127795923D01*
X159168791Y-127795922D01*
X158907358Y-127715279D01*
X158878145Y-127710876D01*
X158636802Y-127674500D01*
X158363198Y-127674500D01*
X158161490Y-127704901D01*
X158092641Y-127715279D01*
X157831208Y-127795922D01*
X157831194Y-127795927D01*
X157584693Y-127914636D01*
X157584691Y-127914637D01*
X157358631Y-128068762D01*
X157358627Y-128068765D01*
X157158061Y-128254862D01*
X156987472Y-128468776D01*
X156850668Y-128705725D01*
X156750708Y-128960419D01*
X156689828Y-129227159D01*
X156669381Y-129499998D01*
X152350500Y-129499998D01*
X152350500Y-126499998D01*
X169169381Y-126499998D01*
X169169381Y-126500001D01*
X169189828Y-126772840D01*
X169250708Y-127039580D01*
X169250710Y-127039584D01*
X169350669Y-127294276D01*
X169487472Y-127531224D01*
X169658061Y-127745137D01*
X169858628Y-127931236D01*
X170084691Y-128085363D01*
X170331200Y-128204075D01*
X170461924Y-128244398D01*
X170592641Y-128284720D01*
X170592643Y-128284720D01*
X170592649Y-128284722D01*
X170863198Y-128325500D01*
X170863202Y-128325500D01*
X171136798Y-128325500D01*
X171136802Y-128325500D01*
X171407351Y-128284722D01*
X171407356Y-128284720D01*
X171407358Y-128284720D01*
X171451861Y-128270992D01*
X171668800Y-128204075D01*
X171915310Y-128085363D01*
X172141372Y-127931236D01*
X172341939Y-127745137D01*
X172512528Y-127531224D01*
X172649331Y-127294276D01*
X172749290Y-127039584D01*
X172810172Y-126772840D01*
X172830619Y-126500000D01*
X172810172Y-126227160D01*
X172749290Y-125960416D01*
X172649331Y-125705724D01*
X172512528Y-125468776D01*
X172341939Y-125254863D01*
X172141372Y-125068764D01*
X171915310Y-124914637D01*
X171786727Y-124852715D01*
X171668805Y-124795927D01*
X171668801Y-124795925D01*
X171668800Y-124795925D01*
X171668795Y-124795923D01*
X171668791Y-124795922D01*
X171407358Y-124715279D01*
X171378145Y-124710876D01*
X171136802Y-124674500D01*
X170863198Y-124674500D01*
X170661490Y-124704901D01*
X170592641Y-124715279D01*
X170331208Y-124795922D01*
X170331194Y-124795927D01*
X170087455Y-124913306D01*
X170084691Y-124914637D01*
X170023055Y-124956660D01*
X169858627Y-125068765D01*
X169658061Y-125254862D01*
X169487472Y-125468776D01*
X169350668Y-125705725D01*
X169250708Y-125960419D01*
X169189828Y-126227159D01*
X169169381Y-126499998D01*
X152350500Y-126499998D01*
X152350500Y-119499998D01*
X156169381Y-119499998D01*
X156169381Y-119500001D01*
X156189828Y-119772840D01*
X156250708Y-120039580D01*
X156250710Y-120039584D01*
X156350669Y-120294276D01*
X156487472Y-120531224D01*
X156658061Y-120745137D01*
X156858628Y-120931236D01*
X157084691Y-121085363D01*
X157331200Y-121204075D01*
X157461924Y-121244398D01*
X157592641Y-121284720D01*
X157592643Y-121284720D01*
X157592649Y-121284722D01*
X157863198Y-121325500D01*
X157863202Y-121325500D01*
X158136798Y-121325500D01*
X158136802Y-121325500D01*
X158407351Y-121284722D01*
X158407356Y-121284720D01*
X158407358Y-121284720D01*
X158451861Y-121270992D01*
X158668800Y-121204075D01*
X158915310Y-121085363D01*
X159141372Y-120931236D01*
X159341939Y-120745137D01*
X159512528Y-120531224D01*
X159649331Y-120294276D01*
X159749290Y-120039584D01*
X159810172Y-119772840D01*
X159830619Y-119500000D01*
X159810172Y-119227160D01*
X159749290Y-118960416D01*
X159649331Y-118705724D01*
X159512528Y-118468776D01*
X159341939Y-118254863D01*
X159141372Y-118068764D01*
X158915310Y-117914637D01*
X158786727Y-117852715D01*
X158668805Y-117795927D01*
X158668801Y-117795925D01*
X158668800Y-117795925D01*
X158668795Y-117795923D01*
X158668791Y-117795922D01*
X158407358Y-117715279D01*
X158384715Y-117711866D01*
X158136802Y-117674500D01*
X157863198Y-117674500D01*
X157661490Y-117704901D01*
X157592641Y-117715279D01*
X157331208Y-117795922D01*
X157331194Y-117795927D01*
X157087455Y-117913306D01*
X157084691Y-117914637D01*
X157023055Y-117956660D01*
X156858627Y-118068765D01*
X156658061Y-118254862D01*
X156487472Y-118468776D01*
X156350668Y-118705725D01*
X156250708Y-118960419D01*
X156189828Y-119227159D01*
X156169381Y-119499998D01*
X152350500Y-119499998D01*
X152350500Y-112746543D01*
X152372173Y-112694218D01*
X155632286Y-109434105D01*
X175999500Y-109434105D01*
X175999500Y-153940894D01*
X176033606Y-154068181D01*
X176033610Y-154068190D01*
X176091340Y-154168181D01*
X176099500Y-154182314D01*
X176192686Y-154275500D01*
X176306814Y-154341392D01*
X176434105Y-154375499D01*
X176434106Y-154375500D01*
X176434108Y-154375500D01*
X186565894Y-154375500D01*
X186565894Y-154375499D01*
X186693186Y-154341392D01*
X186807314Y-154275500D01*
X186900500Y-154182314D01*
X186966392Y-154068186D01*
X187000499Y-153940894D01*
X187000500Y-153940894D01*
X187000500Y-147499998D01*
X194669381Y-147499998D01*
X194669381Y-147500001D01*
X194689828Y-147772840D01*
X194750708Y-148039580D01*
X194750710Y-148039584D01*
X194850669Y-148294276D01*
X194987472Y-148531224D01*
X195158061Y-148745137D01*
X195358628Y-148931236D01*
X195584691Y-149085363D01*
X195831200Y-149204075D01*
X195961924Y-149244398D01*
X196092641Y-149284720D01*
X196092643Y-149284720D01*
X196092649Y-149284722D01*
X196363198Y-149325500D01*
X196363202Y-149325500D01*
X196636798Y-149325500D01*
X196636802Y-149325500D01*
X196907351Y-149284722D01*
X196907356Y-149284720D01*
X196907358Y-149284720D01*
X196951861Y-149270992D01*
X197168800Y-149204075D01*
X197415310Y-149085363D01*
X197641372Y-148931236D01*
X197841939Y-148745137D01*
X198012528Y-148531224D01*
X198149331Y-148294276D01*
X198249290Y-148039584D01*
X198310172Y-147772840D01*
X198330619Y-147500000D01*
X198310172Y-147227160D01*
X198249290Y-146960416D01*
X198149331Y-146705724D01*
X198012528Y-146468776D01*
X197841939Y-146254863D01*
X197641372Y-146068764D01*
X197415310Y-145914637D01*
X197286727Y-145852715D01*
X197168805Y-145795927D01*
X197168801Y-145795925D01*
X197168800Y-145795925D01*
X197168795Y-145795923D01*
X197168791Y-145795922D01*
X196907358Y-145715279D01*
X196884715Y-145711866D01*
X196636802Y-145674500D01*
X196363198Y-145674500D01*
X196161490Y-145704901D01*
X196092641Y-145715279D01*
X195831208Y-145795922D01*
X195831194Y-145795927D01*
X195584693Y-145914636D01*
X195584691Y-145914637D01*
X195358631Y-146068762D01*
X195358627Y-146068765D01*
X195158061Y-146254862D01*
X194987472Y-146468776D01*
X194850668Y-146705725D01*
X194750708Y-146960419D01*
X194689828Y-147227159D01*
X194669381Y-147499998D01*
X187000500Y-147499998D01*
X187000500Y-138499998D01*
X194669381Y-138499998D01*
X194669381Y-138500001D01*
X194689828Y-138772840D01*
X194750708Y-139039580D01*
X194850668Y-139294274D01*
X194850669Y-139294276D01*
X194987472Y-139531224D01*
X195158061Y-139745137D01*
X195358628Y-139931236D01*
X195584691Y-140085363D01*
X195831200Y-140204075D01*
X195961924Y-140244398D01*
X196092641Y-140284720D01*
X196092643Y-140284720D01*
X196092649Y-140284722D01*
X196363198Y-140325500D01*
X196363202Y-140325500D01*
X196636798Y-140325500D01*
X196636802Y-140325500D01*
X196907351Y-140284722D01*
X196907356Y-140284720D01*
X196907358Y-140284720D01*
X196951861Y-140270992D01*
X197168800Y-140204075D01*
X197415310Y-140085363D01*
X197641372Y-139931236D01*
X197841939Y-139745137D01*
X198012528Y-139531224D01*
X198149331Y-139294276D01*
X198249290Y-139039584D01*
X198310172Y-138772840D01*
X198330619Y-138500000D01*
X198310172Y-138227160D01*
X198249290Y-137960416D01*
X198149331Y-137705724D01*
X198012528Y-137468776D01*
X197841939Y-137254863D01*
X197641372Y-137068764D01*
X197415310Y-136914637D01*
X197286727Y-136852715D01*
X197168805Y-136795927D01*
X197168801Y-136795925D01*
X197168800Y-136795925D01*
X197168795Y-136795923D01*
X197168791Y-136795922D01*
X196907358Y-136715279D01*
X196884715Y-136711866D01*
X196636802Y-136674500D01*
X196363198Y-136674500D01*
X196161490Y-136704901D01*
X196092641Y-136715279D01*
X195831208Y-136795922D01*
X195831194Y-136795927D01*
X195584693Y-136914636D01*
X195584691Y-136914637D01*
X195358631Y-137068762D01*
X195358627Y-137068765D01*
X195158061Y-137254862D01*
X194987472Y-137468776D01*
X194850668Y-137705725D01*
X194750708Y-137960419D01*
X194689828Y-138227159D01*
X194669381Y-138499998D01*
X187000500Y-138499998D01*
X187000500Y-129499998D01*
X194669381Y-129499998D01*
X194669381Y-129500001D01*
X194689828Y-129772840D01*
X194750708Y-130039580D01*
X194750710Y-130039584D01*
X194850669Y-130294276D01*
X194987472Y-130531224D01*
X195158061Y-130745137D01*
X195358628Y-130931236D01*
X195584691Y-131085363D01*
X195831200Y-131204075D01*
X195961924Y-131244398D01*
X196092641Y-131284720D01*
X196092643Y-131284720D01*
X196092649Y-131284722D01*
X196363198Y-131325500D01*
X196363202Y-131325500D01*
X196636798Y-131325500D01*
X196636802Y-131325500D01*
X196907351Y-131284722D01*
X196907356Y-131284720D01*
X196907358Y-131284720D01*
X196951861Y-131270992D01*
X197168800Y-131204075D01*
X197415310Y-131085363D01*
X197641372Y-130931236D01*
X197841939Y-130745137D01*
X198012528Y-130531224D01*
X198149331Y-130294276D01*
X198249290Y-130039584D01*
X198310172Y-129772840D01*
X198330619Y-129500000D01*
X198310172Y-129227160D01*
X198249290Y-128960416D01*
X198149331Y-128705724D01*
X198012528Y-128468776D01*
X197841939Y-128254863D01*
X197641372Y-128068764D01*
X197415310Y-127914637D01*
X197286727Y-127852715D01*
X197168805Y-127795927D01*
X197168801Y-127795925D01*
X197168800Y-127795925D01*
X197168795Y-127795923D01*
X197168791Y-127795922D01*
X196907358Y-127715279D01*
X196878145Y-127710876D01*
X196636802Y-127674500D01*
X196363198Y-127674500D01*
X196161490Y-127704901D01*
X196092641Y-127715279D01*
X195831208Y-127795922D01*
X195831194Y-127795927D01*
X195584693Y-127914636D01*
X195584691Y-127914637D01*
X195358631Y-128068762D01*
X195358627Y-128068765D01*
X195158061Y-128254862D01*
X194987472Y-128468776D01*
X194850668Y-128705725D01*
X194750708Y-128960419D01*
X194689828Y-129227159D01*
X194669381Y-129499998D01*
X187000500Y-129499998D01*
X187000500Y-119499998D01*
X193669381Y-119499998D01*
X193669381Y-119500001D01*
X193689828Y-119772840D01*
X193750708Y-120039580D01*
X193750710Y-120039584D01*
X193850669Y-120294276D01*
X193987472Y-120531224D01*
X194158061Y-120745137D01*
X194358628Y-120931236D01*
X194584691Y-121085363D01*
X194831200Y-121204075D01*
X194961924Y-121244398D01*
X195092641Y-121284720D01*
X195092643Y-121284720D01*
X195092649Y-121284722D01*
X195363198Y-121325500D01*
X195363202Y-121325500D01*
X195636798Y-121325500D01*
X195636802Y-121325500D01*
X195907351Y-121284722D01*
X195907356Y-121284720D01*
X195907358Y-121284720D01*
X195951861Y-121270992D01*
X196168800Y-121204075D01*
X196415310Y-121085363D01*
X196641372Y-120931236D01*
X196841939Y-120745137D01*
X197012528Y-120531224D01*
X197149331Y-120294276D01*
X197249290Y-120039584D01*
X197310172Y-119772840D01*
X197330619Y-119500000D01*
X197310172Y-119227160D01*
X197249290Y-118960416D01*
X197149331Y-118705724D01*
X197012528Y-118468776D01*
X196841939Y-118254863D01*
X196641372Y-118068764D01*
X196415310Y-117914637D01*
X196286727Y-117852715D01*
X196168805Y-117795927D01*
X196168801Y-117795925D01*
X196168800Y-117795925D01*
X196168795Y-117795923D01*
X196168791Y-117795922D01*
X195907358Y-117715279D01*
X195884715Y-117711866D01*
X195636802Y-117674500D01*
X195363198Y-117674500D01*
X195161490Y-117704901D01*
X195092641Y-117715279D01*
X194831208Y-117795922D01*
X194831194Y-117795927D01*
X194587455Y-117913306D01*
X194584691Y-117914637D01*
X194523055Y-117956660D01*
X194358627Y-118068765D01*
X194158061Y-118254862D01*
X193987472Y-118468776D01*
X193850668Y-118705725D01*
X193750708Y-118960419D01*
X193689828Y-119227159D01*
X193669381Y-119499998D01*
X187000500Y-119499998D01*
X187000500Y-109500000D01*
X197544958Y-109500000D01*
X197565111Y-109858853D01*
X197565113Y-109858865D01*
X197625313Y-110213184D01*
X197724815Y-110558560D01*
X197862352Y-110890607D01*
X197862363Y-110890628D01*
X198036206Y-111205173D01*
X198036210Y-111205180D01*
X198244199Y-111498313D01*
X198350213Y-111616942D01*
X199485502Y-110481652D01*
X199529588Y-110542330D01*
X199707670Y-110720412D01*
X199768346Y-110764495D01*
X198633055Y-111899786D01*
X198751681Y-112005796D01*
X199044819Y-112213789D01*
X199044826Y-112213793D01*
X199359371Y-112387636D01*
X199359392Y-112387647D01*
X199691439Y-112525184D01*
X200036816Y-112624686D01*
X200036814Y-112624686D01*
X200391134Y-112684886D01*
X200391146Y-112684888D01*
X200750000Y-112705041D01*
X201108853Y-112684888D01*
X201108865Y-112684886D01*
X201463184Y-112624686D01*
X201808560Y-112525184D01*
X202140607Y-112387647D01*
X202140628Y-112387636D01*
X202455173Y-112213793D01*
X202455180Y-112213789D01*
X202748318Y-112005796D01*
X202866942Y-111899786D01*
X202866943Y-111899786D01*
X201731653Y-110764496D01*
X201792330Y-110720412D01*
X201970412Y-110542330D01*
X202014496Y-110481653D01*
X203149786Y-111616943D01*
X203149786Y-111616942D01*
X203255796Y-111498318D01*
X203463789Y-111205180D01*
X203463793Y-111205173D01*
X203637636Y-110890628D01*
X203637647Y-110890607D01*
X203775184Y-110558560D01*
X203874686Y-110213184D01*
X203934886Y-109858865D01*
X203934888Y-109858853D01*
X203955041Y-109500000D01*
X203934888Y-109141146D01*
X203934886Y-109141134D01*
X203874686Y-108786815D01*
X203775184Y-108441439D01*
X203637647Y-108109392D01*
X203637636Y-108109371D01*
X203463793Y-107794826D01*
X203463789Y-107794819D01*
X203255796Y-107501681D01*
X203149786Y-107383056D01*
X203149786Y-107383055D01*
X202014495Y-108518345D01*
X201970412Y-108457670D01*
X201792330Y-108279588D01*
X201731652Y-108235502D01*
X202866942Y-107100213D01*
X202748313Y-106994199D01*
X202455180Y-106786210D01*
X202455173Y-106786206D01*
X202140628Y-106612363D01*
X202140607Y-106612352D01*
X201808560Y-106474815D01*
X201463183Y-106375313D01*
X201463185Y-106375313D01*
X201108865Y-106315113D01*
X201108853Y-106315111D01*
X200750000Y-106294958D01*
X200391146Y-106315111D01*
X200391134Y-106315113D01*
X200036815Y-106375313D01*
X199691439Y-106474815D01*
X199359392Y-106612352D01*
X199359371Y-106612363D01*
X199044826Y-106786206D01*
X199044819Y-106786210D01*
X198751686Y-106994199D01*
X198633055Y-107100212D01*
X199768346Y-108235503D01*
X199707670Y-108279588D01*
X199529588Y-108457670D01*
X199485503Y-108518346D01*
X198350212Y-107383055D01*
X198244199Y-107501686D01*
X198036210Y-107794819D01*
X198036206Y-107794826D01*
X197862363Y-108109371D01*
X197862352Y-108109392D01*
X197724815Y-108441439D01*
X197625313Y-108786815D01*
X197565113Y-109141134D01*
X197565111Y-109141146D01*
X197544958Y-109500000D01*
X187000500Y-109500000D01*
X187000500Y-109434106D01*
X187000499Y-109434105D01*
X186977037Y-109346544D01*
X186966392Y-109306814D01*
X186900500Y-109192686D01*
X186807314Y-109099500D01*
X186791556Y-109090402D01*
X186693190Y-109033610D01*
X186693181Y-109033606D01*
X186565894Y-108999500D01*
X186565892Y-108999500D01*
X176565892Y-108999500D01*
X176434108Y-108999500D01*
X176434106Y-108999500D01*
X176306818Y-109033606D01*
X176306809Y-109033610D01*
X176192685Y-109099500D01*
X176099500Y-109192685D01*
X176033610Y-109306809D01*
X176033606Y-109306818D01*
X175999500Y-109434105D01*
X155632286Y-109434105D01*
X157105910Y-107960481D01*
X157105913Y-107960480D01*
X157180480Y-107885913D01*
X157233207Y-107794587D01*
X157260500Y-107692729D01*
X157260501Y-107692729D01*
X157260501Y-107582744D01*
X157260500Y-107582726D01*
X157260500Y-106028870D01*
X157282174Y-105976544D01*
X157334500Y-105954870D01*
X157386826Y-105976544D01*
X157391697Y-105981918D01*
X157403590Y-105996410D01*
X157563550Y-106127685D01*
X157746046Y-106225232D01*
X157944066Y-106285300D01*
X158150000Y-106305583D01*
X158355934Y-106285300D01*
X158553954Y-106225232D01*
X158736450Y-106127685D01*
X158896410Y-105996410D01*
X159027685Y-105836450D01*
X159125232Y-105653954D01*
X159185300Y-105455934D01*
X159205583Y-105250000D01*
X159185300Y-105044066D01*
X159125232Y-104846046D01*
X159027685Y-104663550D01*
X158896410Y-104503590D01*
X158866054Y-104478678D01*
X158736450Y-104372315D01*
X158553956Y-104274769D01*
X158553955Y-104274768D01*
X158553954Y-104274768D01*
X158387384Y-104224240D01*
X158355935Y-104214700D01*
X158150000Y-104194417D01*
X157944064Y-104214700D01*
X157746043Y-104274769D01*
X157563549Y-104372315D01*
X157403590Y-104503589D01*
X157403583Y-104503596D01*
X157391702Y-104518074D01*
X157341753Y-104544773D01*
X157287555Y-104528331D01*
X157260856Y-104478382D01*
X157260500Y-104471129D01*
X157260500Y-104196544D01*
X157282173Y-104144219D01*
X157710935Y-103715456D01*
X157763260Y-103693783D01*
X157784735Y-103696968D01*
X157944066Y-103745300D01*
X158150000Y-103765583D01*
X158355934Y-103745300D01*
X158553954Y-103685232D01*
X158736450Y-103587685D01*
X158896410Y-103456410D01*
X159027685Y-103296450D01*
X159125232Y-103113954D01*
X159185300Y-102915934D01*
X159205583Y-102710000D01*
X159185300Y-102504066D01*
X159125232Y-102306046D01*
X159027685Y-102123550D01*
X158896410Y-101963590D01*
X158736450Y-101832315D01*
X158553954Y-101734768D01*
X158442158Y-101700855D01*
X158355935Y-101674700D01*
X158150000Y-101654417D01*
X157944064Y-101674700D01*
X157746043Y-101734769D01*
X157563549Y-101832315D01*
X157403590Y-101963589D01*
X157403589Y-101963590D01*
X157272315Y-102123549D01*
X157174769Y-102306043D01*
X157114700Y-102504064D01*
X157094417Y-102710000D01*
X157114700Y-102915937D01*
X157163029Y-103075258D01*
X157157477Y-103131622D01*
X157144541Y-103149064D01*
X156539517Y-103754090D01*
X156486795Y-103845407D01*
X156486791Y-103845416D01*
X156470217Y-103907273D01*
X156465458Y-103925040D01*
X156459500Y-103947274D01*
X156459500Y-104431733D01*
X156437826Y-104484059D01*
X156385500Y-104505733D01*
X156338555Y-104488936D01*
X156196450Y-104372315D01*
X156013956Y-104274769D01*
X156013955Y-104274768D01*
X156013954Y-104274768D01*
X155847384Y-104224240D01*
X155815935Y-104214700D01*
X155610000Y-104194417D01*
X155404064Y-104214700D01*
X155206043Y-104274769D01*
X155023549Y-104372315D01*
X154863678Y-104503517D01*
X154809479Y-104519958D01*
X154759530Y-104493259D01*
X154742733Y-104446314D01*
X154742733Y-104174311D01*
X154764406Y-104121986D01*
X155170935Y-103715456D01*
X155223260Y-103693783D01*
X155244735Y-103696968D01*
X155404066Y-103745300D01*
X155610000Y-103765583D01*
X155815934Y-103745300D01*
X156013954Y-103685232D01*
X156196450Y-103587685D01*
X156356410Y-103456410D01*
X156487685Y-103296450D01*
X156585232Y-103113954D01*
X156645300Y-102915934D01*
X156665583Y-102710000D01*
X156645300Y-102504066D01*
X156585232Y-102306046D01*
X156487685Y-102123550D01*
X156356410Y-101963590D01*
X156196450Y-101832315D01*
X156013954Y-101734768D01*
X155902158Y-101700855D01*
X155815935Y-101674700D01*
X155610000Y-101654417D01*
X155404064Y-101674700D01*
X155206043Y-101734769D01*
X155023549Y-101832315D01*
X154863590Y-101963589D01*
X154863589Y-101963590D01*
X154732315Y-102123549D01*
X154634769Y-102306043D01*
X154574700Y-102504064D01*
X154554417Y-102710000D01*
X154574700Y-102915937D01*
X154623029Y-103075258D01*
X154617477Y-103131622D01*
X154604541Y-103149064D01*
X154021750Y-103731857D01*
X153969025Y-103823179D01*
X153969026Y-103823180D01*
X153941733Y-103925040D01*
X153941733Y-104450261D01*
X153920059Y-104502587D01*
X153867733Y-104524261D01*
X153820279Y-104504605D01*
X153819220Y-104505896D01*
X153656450Y-104372315D01*
X153473956Y-104274769D01*
X153473955Y-104274768D01*
X153473954Y-104274768D01*
X153307384Y-104224240D01*
X153275935Y-104214700D01*
X153070000Y-104194417D01*
X152864064Y-104214700D01*
X152666043Y-104274769D01*
X152483549Y-104372315D01*
X152341445Y-104488936D01*
X152287246Y-104505377D01*
X152237297Y-104478678D01*
X152220500Y-104431733D01*
X152220500Y-104156544D01*
X152242173Y-104104219D01*
X152630935Y-103715456D01*
X152683260Y-103693783D01*
X152704735Y-103696968D01*
X152864066Y-103745300D01*
X153070000Y-103765583D01*
X153275934Y-103745300D01*
X153473954Y-103685232D01*
X153656450Y-103587685D01*
X153816410Y-103456410D01*
X153947685Y-103296450D01*
X154045232Y-103113954D01*
X154105300Y-102915934D01*
X154125583Y-102710000D01*
X154105300Y-102504066D01*
X154045232Y-102306046D01*
X153947685Y-102123550D01*
X153816410Y-101963590D01*
X153656450Y-101832315D01*
X153473954Y-101734768D01*
X153362158Y-101700855D01*
X153275935Y-101674700D01*
X153070000Y-101654417D01*
X152864064Y-101674700D01*
X152666043Y-101734769D01*
X152483549Y-101832315D01*
X152323590Y-101963589D01*
X152323589Y-101963590D01*
X152192315Y-102123549D01*
X152094769Y-102306043D01*
X152034700Y-102504064D01*
X152014417Y-102710000D01*
X152034700Y-102915937D01*
X152083029Y-103075258D01*
X152077477Y-103131622D01*
X152064541Y-103149064D01*
X151499518Y-103714088D01*
X151446793Y-103805410D01*
X151446792Y-103805414D01*
X151442031Y-103823179D01*
X151442032Y-103823180D01*
X151436077Y-103845407D01*
X151419500Y-103907274D01*
X151419500Y-104471129D01*
X151397826Y-104523455D01*
X151345500Y-104545129D01*
X151293174Y-104523455D01*
X151288298Y-104518074D01*
X151276416Y-104503596D01*
X151276409Y-104503589D01*
X151116450Y-104372315D01*
X150933956Y-104274769D01*
X150933955Y-104274768D01*
X150933954Y-104274768D01*
X150767384Y-104224240D01*
X150735935Y-104214700D01*
X150530000Y-104194417D01*
X150324064Y-104214700D01*
X150126043Y-104274769D01*
X149943549Y-104372315D01*
X149801445Y-104488936D01*
X149747246Y-104505377D01*
X149697297Y-104478678D01*
X149680500Y-104431733D01*
X149680500Y-104156544D01*
X149702173Y-104104219D01*
X150090935Y-103715456D01*
X150143260Y-103693783D01*
X150164735Y-103696968D01*
X150324066Y-103745300D01*
X150530000Y-103765583D01*
X150735934Y-103745300D01*
X150933954Y-103685232D01*
X151116450Y-103587685D01*
X151276410Y-103456410D01*
X151407685Y-103296450D01*
X151505232Y-103113954D01*
X151565300Y-102915934D01*
X151585583Y-102710000D01*
X151565300Y-102504066D01*
X151505232Y-102306046D01*
X151407685Y-102123550D01*
X151276410Y-101963590D01*
X151116450Y-101832315D01*
X150933954Y-101734768D01*
X150822158Y-101700855D01*
X150735935Y-101674700D01*
X150530000Y-101654417D01*
X150324064Y-101674700D01*
X150126043Y-101734769D01*
X149943549Y-101832315D01*
X149783590Y-101963589D01*
X149783589Y-101963590D01*
X149652315Y-102123549D01*
X149554769Y-102306043D01*
X149494700Y-102504064D01*
X149474417Y-102710000D01*
X149494700Y-102915937D01*
X149543029Y-103075258D01*
X149537477Y-103131622D01*
X149524541Y-103149064D01*
X148959518Y-103714088D01*
X148906793Y-103805410D01*
X148906792Y-103805414D01*
X148902031Y-103823179D01*
X148902032Y-103823180D01*
X148896077Y-103845407D01*
X148879500Y-103907274D01*
X148879500Y-104471129D01*
X148857826Y-104523455D01*
X148805500Y-104545129D01*
X148753174Y-104523455D01*
X148748298Y-104518074D01*
X148736416Y-104503596D01*
X148736409Y-104503589D01*
X148576450Y-104372315D01*
X148393956Y-104274769D01*
X148393955Y-104274768D01*
X148393954Y-104274768D01*
X148227384Y-104224240D01*
X148195935Y-104214700D01*
X147990000Y-104194417D01*
X147784064Y-104214700D01*
X147586043Y-104274769D01*
X147403549Y-104372315D01*
X147243590Y-104503589D01*
X147243583Y-104503596D01*
X147231702Y-104518074D01*
X147181753Y-104544773D01*
X147127555Y-104528331D01*
X147100856Y-104478382D01*
X147100500Y-104471129D01*
X147100500Y-104196544D01*
X147122173Y-104144219D01*
X147550935Y-103715456D01*
X147603260Y-103693783D01*
X147624735Y-103696968D01*
X147784066Y-103745300D01*
X147990000Y-103765583D01*
X148195934Y-103745300D01*
X148393954Y-103685232D01*
X148576450Y-103587685D01*
X148736410Y-103456410D01*
X148867685Y-103296450D01*
X148965232Y-103113954D01*
X149025300Y-102915934D01*
X149045583Y-102710000D01*
X149025300Y-102504066D01*
X148965232Y-102306046D01*
X148867685Y-102123550D01*
X148736410Y-101963590D01*
X148576450Y-101832315D01*
X148393954Y-101734768D01*
X148282158Y-101700855D01*
X148195935Y-101674700D01*
X147990000Y-101654417D01*
X147784064Y-101674700D01*
X147586043Y-101734769D01*
X147403549Y-101832315D01*
X147243590Y-101963589D01*
X147243589Y-101963590D01*
X147112315Y-102123549D01*
X147014769Y-102306043D01*
X146954700Y-102504064D01*
X146934417Y-102710000D01*
X146954700Y-102915937D01*
X147003029Y-103075258D01*
X146997477Y-103131622D01*
X146984541Y-103149064D01*
X146379517Y-103754090D01*
X146326795Y-103845407D01*
X146326791Y-103845416D01*
X146310217Y-103907273D01*
X146305458Y-103925040D01*
X146299500Y-103947274D01*
X146299500Y-104431733D01*
X146277826Y-104484059D01*
X146225500Y-104505733D01*
X146178555Y-104488936D01*
X146036450Y-104372315D01*
X145853956Y-104274769D01*
X145853955Y-104274768D01*
X145853954Y-104274768D01*
X145687384Y-104224240D01*
X145655935Y-104214700D01*
X145450000Y-104194417D01*
X145244064Y-104214700D01*
X145046043Y-104274769D01*
X144863549Y-104372315D01*
X144703590Y-104503589D01*
X144703583Y-104503596D01*
X144691702Y-104518074D01*
X144641753Y-104544773D01*
X144587555Y-104528331D01*
X144560856Y-104478382D01*
X144560500Y-104471129D01*
X144560500Y-104196544D01*
X144582173Y-104144219D01*
X145010935Y-103715456D01*
X145063260Y-103693783D01*
X145084735Y-103696968D01*
X145244066Y-103745300D01*
X145450000Y-103765583D01*
X145655934Y-103745300D01*
X145853954Y-103685232D01*
X146036450Y-103587685D01*
X146196410Y-103456410D01*
X146327685Y-103296450D01*
X146425232Y-103113954D01*
X146485300Y-102915934D01*
X146505583Y-102710000D01*
X146485300Y-102504066D01*
X146425232Y-102306046D01*
X146327685Y-102123550D01*
X146196410Y-101963590D01*
X146036450Y-101832315D01*
X145853954Y-101734768D01*
X145742158Y-101700855D01*
X145655935Y-101674700D01*
X145450000Y-101654417D01*
X145244064Y-101674700D01*
X145046043Y-101734769D01*
X144863549Y-101832315D01*
X144703590Y-101963589D01*
X144703589Y-101963590D01*
X144572315Y-102123549D01*
X144474769Y-102306043D01*
X144414700Y-102504064D01*
X144394417Y-102710000D01*
X144414700Y-102915937D01*
X144463029Y-103075258D01*
X144457477Y-103131622D01*
X144444541Y-103149064D01*
X143839517Y-103754090D01*
X143786795Y-103845407D01*
X143786791Y-103845416D01*
X143770217Y-103907273D01*
X143765458Y-103925040D01*
X143759500Y-103947274D01*
X143759500Y-104431733D01*
X143737826Y-104484059D01*
X143685500Y-104505733D01*
X143638555Y-104488936D01*
X143496450Y-104372315D01*
X143313956Y-104274769D01*
X143313955Y-104274768D01*
X143313954Y-104274768D01*
X143147384Y-104224240D01*
X143115935Y-104214700D01*
X142910000Y-104194417D01*
X142704064Y-104214700D01*
X142506043Y-104274769D01*
X142323549Y-104372315D01*
X142163590Y-104503589D01*
X142163583Y-104503596D01*
X142151702Y-104518074D01*
X142101753Y-104544773D01*
X142047555Y-104528331D01*
X142020856Y-104478382D01*
X142020500Y-104471129D01*
X142020500Y-104196544D01*
X142042173Y-104144219D01*
X142470935Y-103715456D01*
X142523260Y-103693783D01*
X142544735Y-103696968D01*
X142704066Y-103745300D01*
X142910000Y-103765583D01*
X143115934Y-103745300D01*
X143313954Y-103685232D01*
X143496450Y-103587685D01*
X143656410Y-103456410D01*
X143787685Y-103296450D01*
X143885232Y-103113954D01*
X143945300Y-102915934D01*
X143965583Y-102710000D01*
X143945300Y-102504066D01*
X143885232Y-102306046D01*
X143787685Y-102123550D01*
X143656410Y-101963590D01*
X143496450Y-101832315D01*
X143313954Y-101734768D01*
X143202158Y-101700855D01*
X143115935Y-101674700D01*
X142910000Y-101654417D01*
X142704064Y-101674700D01*
X142506043Y-101734769D01*
X142323549Y-101832315D01*
X142163590Y-101963589D01*
X142163589Y-101963590D01*
X142032315Y-102123549D01*
X141934769Y-102306043D01*
X141874700Y-102504064D01*
X141854417Y-102710000D01*
X141874700Y-102915937D01*
X141923029Y-103075258D01*
X141917477Y-103131622D01*
X141904541Y-103149064D01*
X141299517Y-103754090D01*
X141246795Y-103845407D01*
X141246791Y-103845416D01*
X141230217Y-103907273D01*
X141225458Y-103925040D01*
X141219500Y-103947274D01*
X141219500Y-104431733D01*
X141197826Y-104484059D01*
X141145500Y-104505733D01*
X141098555Y-104488936D01*
X140956450Y-104372315D01*
X140773956Y-104274769D01*
X140773955Y-104274768D01*
X140773954Y-104274768D01*
X140607384Y-104224240D01*
X140575935Y-104214700D01*
X140370000Y-104194417D01*
X140164064Y-104214700D01*
X139966043Y-104274769D01*
X139783549Y-104372315D01*
X139641445Y-104488936D01*
X139587246Y-104505377D01*
X139537297Y-104478678D01*
X139520500Y-104431733D01*
X139520500Y-104156544D01*
X139542173Y-104104219D01*
X139930935Y-103715456D01*
X139983260Y-103693783D01*
X140004735Y-103696968D01*
X140164066Y-103745300D01*
X140370000Y-103765583D01*
X140575934Y-103745300D01*
X140773954Y-103685232D01*
X140956450Y-103587685D01*
X141116410Y-103456410D01*
X141247685Y-103296450D01*
X141345232Y-103113954D01*
X141405300Y-102915934D01*
X141425583Y-102710000D01*
X141405300Y-102504066D01*
X141345232Y-102306046D01*
X141247685Y-102123550D01*
X141116410Y-101963590D01*
X140956450Y-101832315D01*
X140773954Y-101734768D01*
X140662158Y-101700855D01*
X140575935Y-101674700D01*
X140370000Y-101654417D01*
X140164064Y-101674700D01*
X139966043Y-101734769D01*
X139783549Y-101832315D01*
X139623590Y-101963589D01*
X139623589Y-101963590D01*
X139492315Y-102123549D01*
X139394769Y-102306043D01*
X139334700Y-102504064D01*
X139314417Y-102710000D01*
X139334700Y-102915937D01*
X139383029Y-103075258D01*
X139377477Y-103131622D01*
X139364541Y-103149064D01*
X138799518Y-103714088D01*
X138746793Y-103805410D01*
X138746792Y-103805414D01*
X138742031Y-103823179D01*
X138742032Y-103823180D01*
X138736077Y-103845407D01*
X138719500Y-103907274D01*
X138719500Y-104471129D01*
X138697826Y-104523455D01*
X138645500Y-104545129D01*
X138593174Y-104523455D01*
X138588298Y-104518074D01*
X138576416Y-104503596D01*
X138576409Y-104503589D01*
X138416450Y-104372315D01*
X138233956Y-104274769D01*
X138233955Y-104274768D01*
X138233954Y-104274768D01*
X138067384Y-104224240D01*
X138035935Y-104214700D01*
X137830000Y-104194417D01*
X137624064Y-104214700D01*
X137426043Y-104274769D01*
X137243549Y-104372315D01*
X137083590Y-104503589D01*
X137083583Y-104503596D01*
X137071702Y-104518074D01*
X137021753Y-104544773D01*
X136967555Y-104528331D01*
X136940856Y-104478382D01*
X136940500Y-104471129D01*
X136940500Y-104196544D01*
X136962173Y-104144219D01*
X137390935Y-103715456D01*
X137443260Y-103693783D01*
X137464735Y-103696968D01*
X137624066Y-103745300D01*
X137830000Y-103765583D01*
X138035934Y-103745300D01*
X138233954Y-103685232D01*
X138416450Y-103587685D01*
X138576410Y-103456410D01*
X138707685Y-103296450D01*
X138805232Y-103113954D01*
X138865300Y-102915934D01*
X138885583Y-102710000D01*
X138865300Y-102504066D01*
X138805232Y-102306046D01*
X138707685Y-102123550D01*
X138576410Y-101963590D01*
X138416450Y-101832315D01*
X138233954Y-101734768D01*
X138122158Y-101700855D01*
X138035935Y-101674700D01*
X137830000Y-101654417D01*
X137624064Y-101674700D01*
X137426043Y-101734769D01*
X137243549Y-101832315D01*
X137083590Y-101963589D01*
X137083589Y-101963590D01*
X136952315Y-102123549D01*
X136854769Y-102306043D01*
X136794700Y-102504064D01*
X136774417Y-102710000D01*
X136794700Y-102915937D01*
X136843029Y-103075258D01*
X136837477Y-103131622D01*
X136824541Y-103149064D01*
X136219517Y-103754090D01*
X136166795Y-103845407D01*
X136166791Y-103845416D01*
X136150217Y-103907273D01*
X136145458Y-103925040D01*
X136139500Y-103947274D01*
X136139500Y-104431733D01*
X136117826Y-104484059D01*
X136065500Y-104505733D01*
X136018555Y-104488936D01*
X135876450Y-104372315D01*
X135693956Y-104274769D01*
X135693955Y-104274768D01*
X135693954Y-104274768D01*
X135527384Y-104224240D01*
X135495935Y-104214700D01*
X135290000Y-104194417D01*
X135084064Y-104214700D01*
X134886043Y-104274769D01*
X134703549Y-104372315D01*
X134543590Y-104503589D01*
X134543583Y-104503596D01*
X134531702Y-104518074D01*
X134481753Y-104544773D01*
X134427555Y-104528331D01*
X134400856Y-104478382D01*
X134400500Y-104471129D01*
X134400500Y-104196544D01*
X134422173Y-104144219D01*
X134850935Y-103715456D01*
X134903260Y-103693783D01*
X134924735Y-103696968D01*
X135084066Y-103745300D01*
X135290000Y-103765583D01*
X135495934Y-103745300D01*
X135693954Y-103685232D01*
X135876450Y-103587685D01*
X136036410Y-103456410D01*
X136167685Y-103296450D01*
X136265232Y-103113954D01*
X136325300Y-102915934D01*
X136345583Y-102710000D01*
X136325300Y-102504066D01*
X136265232Y-102306046D01*
X136167685Y-102123550D01*
X136036410Y-101963590D01*
X135876450Y-101832315D01*
X135693954Y-101734768D01*
X135582158Y-101700855D01*
X135495935Y-101674700D01*
X135290000Y-101654417D01*
X135084064Y-101674700D01*
X134886043Y-101734769D01*
X134703549Y-101832315D01*
X134543590Y-101963589D01*
X134543589Y-101963590D01*
X134412315Y-102123549D01*
X134314769Y-102306043D01*
X134254700Y-102504064D01*
X134234417Y-102710000D01*
X134254700Y-102915937D01*
X134303029Y-103075258D01*
X134297477Y-103131622D01*
X134284541Y-103149064D01*
X133679517Y-103754090D01*
X133626795Y-103845407D01*
X133626791Y-103845416D01*
X133610217Y-103907273D01*
X133605458Y-103925040D01*
X133599500Y-103947274D01*
X133599500Y-104431733D01*
X133577826Y-104484059D01*
X133525500Y-104505733D01*
X133478555Y-104488936D01*
X133336450Y-104372315D01*
X133153956Y-104274769D01*
X133153955Y-104274768D01*
X133153954Y-104274768D01*
X132987384Y-104224240D01*
X132955935Y-104214700D01*
X132750000Y-104194417D01*
X132544064Y-104214700D01*
X132346043Y-104274769D01*
X132163549Y-104372315D01*
X132021445Y-104488936D01*
X131967246Y-104505377D01*
X131917297Y-104478678D01*
X131900500Y-104431733D01*
X131900500Y-104156544D01*
X131922173Y-104104219D01*
X132310935Y-103715456D01*
X132363260Y-103693783D01*
X132384735Y-103696968D01*
X132544066Y-103745300D01*
X132750000Y-103765583D01*
X132955934Y-103745300D01*
X133153954Y-103685232D01*
X133336450Y-103587685D01*
X133496410Y-103456410D01*
X133627685Y-103296450D01*
X133725232Y-103113954D01*
X133785300Y-102915934D01*
X133805583Y-102710000D01*
X133785300Y-102504066D01*
X133725232Y-102306046D01*
X133627685Y-102123550D01*
X133496410Y-101963590D01*
X133336450Y-101832315D01*
X133153954Y-101734768D01*
X133042158Y-101700855D01*
X132955935Y-101674700D01*
X132750000Y-101654417D01*
X132544064Y-101674700D01*
X132346043Y-101734769D01*
X132163549Y-101832315D01*
X132003590Y-101963589D01*
X132003589Y-101963590D01*
X131872315Y-102123549D01*
X131774769Y-102306043D01*
X131714700Y-102504064D01*
X131694417Y-102710000D01*
X131714700Y-102915937D01*
X131763029Y-103075258D01*
X131757477Y-103131622D01*
X131744541Y-103149064D01*
X131179518Y-103714088D01*
X131126793Y-103805410D01*
X131126792Y-103805414D01*
X131122031Y-103823179D01*
X131122032Y-103823180D01*
X131116077Y-103845407D01*
X131099500Y-103907274D01*
X131099500Y-104125500D01*
X131077826Y-104177826D01*
X131025500Y-104199500D01*
X129465544Y-104199500D01*
X129413218Y-104177826D01*
X129391544Y-104125500D01*
X129413218Y-104073174D01*
X129579119Y-103907273D01*
X129770935Y-103715456D01*
X129823260Y-103693783D01*
X129844735Y-103696968D01*
X130004066Y-103745300D01*
X130210000Y-103765583D01*
X130415934Y-103745300D01*
X130613954Y-103685232D01*
X130796450Y-103587685D01*
X130956410Y-103456410D01*
X131087685Y-103296450D01*
X131185232Y-103113954D01*
X131245300Y-102915934D01*
X131265583Y-102710000D01*
X131245300Y-102504066D01*
X131185232Y-102306046D01*
X131087685Y-102123550D01*
X130956410Y-101963590D01*
X130796450Y-101832315D01*
X130613954Y-101734768D01*
X130502158Y-101700855D01*
X130415935Y-101674700D01*
X130210000Y-101654417D01*
X130004064Y-101674700D01*
X129806043Y-101734769D01*
X129623549Y-101832315D01*
X129463590Y-101963589D01*
X129463589Y-101963590D01*
X129332315Y-102123549D01*
X129234769Y-102306043D01*
X129174700Y-102504064D01*
X129154417Y-102710000D01*
X129174700Y-102915937D01*
X129223029Y-103075258D01*
X129217477Y-103131622D01*
X129204541Y-103149064D01*
X128626826Y-103726780D01*
X128574500Y-103748454D01*
X128522174Y-103726780D01*
X128500500Y-103674454D01*
X128500500Y-92324500D01*
X128522174Y-92272174D01*
X128574500Y-92250500D01*
X159675500Y-92250500D01*
X159727826Y-92272174D01*
G37*
%TD.AperFunction*%
%TD*%
%TA.AperFunction,NonConductor*%
G36*
X139556021Y-105921553D02*
G01*
X139576225Y-105938695D01*
X139622122Y-105994622D01*
X139623590Y-105996410D01*
X139783550Y-106127685D01*
X139966046Y-106225232D01*
X140164066Y-106285300D01*
X140347012Y-106303318D01*
X140396961Y-106330017D01*
X140413402Y-106384215D01*
X140392084Y-106429288D01*
X140143548Y-106677826D01*
X140091222Y-106699500D01*
X138893312Y-106699500D01*
X138840986Y-106677826D01*
X138819312Y-106625500D01*
X138840986Y-106573174D01*
X139128861Y-106285299D01*
X139440480Y-105973680D01*
X139454936Y-105948639D01*
X139499868Y-105914162D01*
X139556021Y-105921553D01*
G37*
%TD.AperFunction*%
%TA.AperFunction,NonConductor*%
G36*
X129137826Y-105533219D02*
G01*
X129159500Y-105585545D01*
X129159500Y-106119746D01*
X129171133Y-106178232D01*
X129200608Y-106222343D01*
X129215448Y-106244552D01*
X129259560Y-106274027D01*
X129281767Y-106288866D01*
X129281768Y-106288866D01*
X129281769Y-106288867D01*
X129340252Y-106300500D01*
X130754455Y-106300500D01*
X130806781Y-106322174D01*
X130828455Y-106374500D01*
X130806781Y-106426826D01*
X130305781Y-106927826D01*
X130253455Y-106949500D01*
X127795545Y-106949500D01*
X127743219Y-106927826D01*
X127721545Y-106875500D01*
X127743219Y-106823174D01*
X129033174Y-105533219D01*
X129085500Y-105511545D01*
X129137826Y-105533219D01*
G37*
%TD.AperFunction*%
%TA.AperFunction,NonConductor*%
G36*
X142086098Y-105909462D02*
G01*
X142106301Y-105926603D01*
X142162756Y-105995394D01*
X142163590Y-105996410D01*
X142323550Y-106127685D01*
X142506046Y-106225232D01*
X142704066Y-106285300D01*
X142887012Y-106303318D01*
X142936961Y-106330017D01*
X142953402Y-106384215D01*
X142932084Y-106429288D01*
X142083548Y-107277826D01*
X142031222Y-107299500D01*
X140833312Y-107299500D01*
X140780986Y-107277826D01*
X140759312Y-107225500D01*
X140780986Y-107173174D01*
X141026334Y-106927826D01*
X141940480Y-106013680D01*
X141985013Y-105936547D01*
X142029945Y-105902070D01*
X142086098Y-105909462D01*
G37*
%TD.AperFunction*%
%TA.AperFunction,NonConductor*%
G36*
X132021444Y-106011062D02*
G01*
X132163550Y-106127685D01*
X132346046Y-106225232D01*
X132544066Y-106285300D01*
X132727012Y-106303318D01*
X132776961Y-106330017D01*
X132793402Y-106384215D01*
X132772084Y-106429288D01*
X131673548Y-107527826D01*
X131621222Y-107549500D01*
X130995545Y-107549500D01*
X130943219Y-107527826D01*
X130921545Y-107475500D01*
X130943219Y-107423174D01*
X131140893Y-107225500D01*
X131820480Y-106545913D01*
X131873207Y-106454588D01*
X131900500Y-106352727D01*
X131900500Y-106247273D01*
X131900500Y-106068266D01*
X131922174Y-106015940D01*
X131974500Y-105994266D01*
X132021444Y-106011062D01*
G37*
%TD.AperFunction*%
%TA.AperFunction,NonConductor*%
G36*
X144626098Y-105909462D02*
G01*
X144646301Y-105926603D01*
X144702756Y-105995394D01*
X144703590Y-105996410D01*
X144863550Y-106127685D01*
X145046046Y-106225232D01*
X145244066Y-106285300D01*
X145427012Y-106303318D01*
X145476961Y-106330017D01*
X145493402Y-106384215D01*
X145472084Y-106429288D01*
X144023548Y-107877826D01*
X143971222Y-107899500D01*
X142773312Y-107899500D01*
X142720986Y-107877826D01*
X142699312Y-107825500D01*
X142720986Y-107773174D01*
X143111105Y-107383055D01*
X144480480Y-106013680D01*
X144525013Y-105936547D01*
X144569945Y-105902070D01*
X144626098Y-105909462D01*
G37*
%TD.AperFunction*%
%TA.AperFunction,NonConductor*%
G36*
X134466098Y-105909461D02*
G01*
X134486299Y-105926600D01*
X134529864Y-105979685D01*
X134542122Y-105994622D01*
X134543590Y-105996410D01*
X134703550Y-106127685D01*
X134886046Y-106225232D01*
X135084066Y-106285300D01*
X135267012Y-106303318D01*
X135316961Y-106330017D01*
X135333402Y-106384215D01*
X135312084Y-106429288D01*
X133782971Y-107958404D01*
X133613549Y-108127826D01*
X133561223Y-108149500D01*
X132363312Y-108149500D01*
X132310986Y-108127826D01*
X132289312Y-108075500D01*
X132310986Y-108023174D01*
X132560986Y-107773174D01*
X134245910Y-106088248D01*
X134245913Y-106088247D01*
X134320480Y-106013680D01*
X134365013Y-105936546D01*
X134409945Y-105902069D01*
X134466098Y-105909461D01*
G37*
%TD.AperFunction*%
%TA.AperFunction,NonConductor*%
G36*
X154863677Y-105996481D02*
G01*
X155023550Y-106127685D01*
X155206046Y-106225232D01*
X155404066Y-106285300D01*
X155610000Y-106305583D01*
X155815934Y-106285300D01*
X156013954Y-106225232D01*
X156196450Y-106127685D01*
X156338555Y-106011062D01*
X156392753Y-105994622D01*
X156442703Y-106021321D01*
X156459500Y-106068266D01*
X156459500Y-107443455D01*
X156437826Y-107495781D01*
X154869059Y-109064548D01*
X154816733Y-109086222D01*
X154764407Y-109064548D01*
X154742733Y-109012222D01*
X154742733Y-106053685D01*
X154764407Y-106001359D01*
X154816733Y-105979685D01*
X154863677Y-105996481D01*
G37*
%TD.AperFunction*%
%TA.AperFunction,NonConductor*%
G36*
X153920059Y-105997413D02*
G01*
X153941733Y-106049739D01*
X153941733Y-109059750D01*
X153920059Y-109112076D01*
X152346826Y-110685309D01*
X152294500Y-110706983D01*
X152242174Y-110685309D01*
X152220500Y-110632983D01*
X152220500Y-106068266D01*
X152242174Y-106015940D01*
X152294500Y-105994266D01*
X152341444Y-106011062D01*
X152483550Y-106127685D01*
X152666046Y-106225232D01*
X152864066Y-106285300D01*
X153070000Y-106305583D01*
X153275934Y-106285300D01*
X153473954Y-106225232D01*
X153656450Y-106127685D01*
X153816410Y-105996410D01*
X153816411Y-105996409D01*
X153819220Y-105994104D01*
X153820279Y-105995394D01*
X153867733Y-105975739D01*
X153920059Y-105997413D01*
G37*
%TD.AperFunction*%
%TA.AperFunction,NonConductor*%
G36*
X151392444Y-105971666D02*
G01*
X151419144Y-106021615D01*
X151419500Y-106028870D01*
X151419500Y-110733455D01*
X151397826Y-110785781D01*
X150676826Y-111506781D01*
X150624500Y-111528455D01*
X150572174Y-111506781D01*
X150550500Y-111454455D01*
X150550500Y-109097273D01*
X150523207Y-108995413D01*
X150523207Y-108995412D01*
X150470482Y-108904090D01*
X150470481Y-108904089D01*
X150470480Y-108904087D01*
X149702174Y-108135781D01*
X149680500Y-108083455D01*
X149680500Y-106068266D01*
X149702174Y-106015940D01*
X149754500Y-105994266D01*
X149801444Y-106011062D01*
X149943550Y-106127685D01*
X150126046Y-106225232D01*
X150324066Y-106285300D01*
X150530000Y-106305583D01*
X150735934Y-106285300D01*
X150933954Y-106225232D01*
X151116450Y-106127685D01*
X151276410Y-105996410D01*
X151288297Y-105981925D01*
X151338245Y-105955226D01*
X151392444Y-105971666D01*
G37*
%TD.AperFunction*%
M02*
