%TF.GenerationSoftware,KiCad,Pcbnew,8.0.1*%
%TF.CreationDate,2024-05-03T16:32:39-04:00*%
%TF.ProjectId,LowerPOGO,4c6f7765-7250-44f4-974f-2e6b69636164,rev?*%
%TF.SameCoordinates,Original*%
%TF.FileFunction,Legend,Top*%
%TF.FilePolarity,Positive*%
%FSLAX46Y46*%
G04 Gerber Fmt 4.6, Leading zero omitted, Abs format (unit mm)*
G04 Created by KiCad (PCBNEW 8.0.1) date 2024-05-03 16:32:39*
%MOMM*%
%LPD*%
G01*
G04 APERTURE LIST*
%ADD10C,0.150000*%
%ADD11C,0.120000*%
G04 APERTURE END LIST*
D10*
X195690476Y-144624819D02*
X195690476Y-145339104D01*
X195690476Y-145339104D02*
X195642857Y-145481961D01*
X195642857Y-145481961D02*
X195547619Y-145577200D01*
X195547619Y-145577200D02*
X195404762Y-145624819D01*
X195404762Y-145624819D02*
X195309524Y-145624819D01*
X196119048Y-144720057D02*
X196166667Y-144672438D01*
X196166667Y-144672438D02*
X196261905Y-144624819D01*
X196261905Y-144624819D02*
X196500000Y-144624819D01*
X196500000Y-144624819D02*
X196595238Y-144672438D01*
X196595238Y-144672438D02*
X196642857Y-144720057D01*
X196642857Y-144720057D02*
X196690476Y-144815295D01*
X196690476Y-144815295D02*
X196690476Y-144910533D01*
X196690476Y-144910533D02*
X196642857Y-145053390D01*
X196642857Y-145053390D02*
X196071429Y-145624819D01*
X196071429Y-145624819D02*
X196690476Y-145624819D01*
X197642857Y-145624819D02*
X197071429Y-145624819D01*
X197357143Y-145624819D02*
X197357143Y-144624819D01*
X197357143Y-144624819D02*
X197261905Y-144767676D01*
X197261905Y-144767676D02*
X197166667Y-144862914D01*
X197166667Y-144862914D02*
X197071429Y-144910533D01*
X132666666Y-123624819D02*
X132666666Y-124339104D01*
X132666666Y-124339104D02*
X132619047Y-124481961D01*
X132619047Y-124481961D02*
X132523809Y-124577200D01*
X132523809Y-124577200D02*
X132380952Y-124624819D01*
X132380952Y-124624819D02*
X132285714Y-124624819D01*
X133047619Y-123624819D02*
X133714285Y-123624819D01*
X133714285Y-123624819D02*
X133285714Y-124624819D01*
X120166666Y-135624819D02*
X120166666Y-136339104D01*
X120166666Y-136339104D02*
X120119047Y-136481961D01*
X120119047Y-136481961D02*
X120023809Y-136577200D01*
X120023809Y-136577200D02*
X119880952Y-136624819D01*
X119880952Y-136624819D02*
X119785714Y-136624819D01*
X120785714Y-136053390D02*
X120690476Y-136005771D01*
X120690476Y-136005771D02*
X120642857Y-135958152D01*
X120642857Y-135958152D02*
X120595238Y-135862914D01*
X120595238Y-135862914D02*
X120595238Y-135815295D01*
X120595238Y-135815295D02*
X120642857Y-135720057D01*
X120642857Y-135720057D02*
X120690476Y-135672438D01*
X120690476Y-135672438D02*
X120785714Y-135624819D01*
X120785714Y-135624819D02*
X120976190Y-135624819D01*
X120976190Y-135624819D02*
X121071428Y-135672438D01*
X121071428Y-135672438D02*
X121119047Y-135720057D01*
X121119047Y-135720057D02*
X121166666Y-135815295D01*
X121166666Y-135815295D02*
X121166666Y-135862914D01*
X121166666Y-135862914D02*
X121119047Y-135958152D01*
X121119047Y-135958152D02*
X121071428Y-136005771D01*
X121071428Y-136005771D02*
X120976190Y-136053390D01*
X120976190Y-136053390D02*
X120785714Y-136053390D01*
X120785714Y-136053390D02*
X120690476Y-136101009D01*
X120690476Y-136101009D02*
X120642857Y-136148628D01*
X120642857Y-136148628D02*
X120595238Y-136243866D01*
X120595238Y-136243866D02*
X120595238Y-136434342D01*
X120595238Y-136434342D02*
X120642857Y-136529580D01*
X120642857Y-136529580D02*
X120690476Y-136577200D01*
X120690476Y-136577200D02*
X120785714Y-136624819D01*
X120785714Y-136624819D02*
X120976190Y-136624819D01*
X120976190Y-136624819D02*
X121071428Y-136577200D01*
X121071428Y-136577200D02*
X121119047Y-136529580D01*
X121119047Y-136529580D02*
X121166666Y-136434342D01*
X121166666Y-136434342D02*
X121166666Y-136243866D01*
X121166666Y-136243866D02*
X121119047Y-136148628D01*
X121119047Y-136148628D02*
X121071428Y-136101009D01*
X121071428Y-136101009D02*
X120976190Y-136053390D01*
X119690476Y-144624819D02*
X119690476Y-145339104D01*
X119690476Y-145339104D02*
X119642857Y-145481961D01*
X119642857Y-145481961D02*
X119547619Y-145577200D01*
X119547619Y-145577200D02*
X119404762Y-145624819D01*
X119404762Y-145624819D02*
X119309524Y-145624819D01*
X120690476Y-145624819D02*
X120119048Y-145624819D01*
X120404762Y-145624819D02*
X120404762Y-144624819D01*
X120404762Y-144624819D02*
X120309524Y-144767676D01*
X120309524Y-144767676D02*
X120214286Y-144862914D01*
X120214286Y-144862914D02*
X120119048Y-144910533D01*
X121309524Y-144624819D02*
X121404762Y-144624819D01*
X121404762Y-144624819D02*
X121500000Y-144672438D01*
X121500000Y-144672438D02*
X121547619Y-144720057D01*
X121547619Y-144720057D02*
X121595238Y-144815295D01*
X121595238Y-144815295D02*
X121642857Y-145005771D01*
X121642857Y-145005771D02*
X121642857Y-145243866D01*
X121642857Y-145243866D02*
X121595238Y-145434342D01*
X121595238Y-145434342D02*
X121547619Y-145529580D01*
X121547619Y-145529580D02*
X121500000Y-145577200D01*
X121500000Y-145577200D02*
X121404762Y-145624819D01*
X121404762Y-145624819D02*
X121309524Y-145624819D01*
X121309524Y-145624819D02*
X121214286Y-145577200D01*
X121214286Y-145577200D02*
X121166667Y-145529580D01*
X121166667Y-145529580D02*
X121119048Y-145434342D01*
X121119048Y-145434342D02*
X121071429Y-145243866D01*
X121071429Y-145243866D02*
X121071429Y-145005771D01*
X121071429Y-145005771D02*
X121119048Y-144815295D01*
X121119048Y-144815295D02*
X121166667Y-144720057D01*
X121166667Y-144720057D02*
X121214286Y-144672438D01*
X121214286Y-144672438D02*
X121309524Y-144624819D01*
X171190476Y-151124819D02*
X171190476Y-151839104D01*
X171190476Y-151839104D02*
X171142857Y-151981961D01*
X171142857Y-151981961D02*
X171047619Y-152077200D01*
X171047619Y-152077200D02*
X170904762Y-152124819D01*
X170904762Y-152124819D02*
X170809524Y-152124819D01*
X172190476Y-152124819D02*
X171619048Y-152124819D01*
X171904762Y-152124819D02*
X171904762Y-151124819D01*
X171904762Y-151124819D02*
X171809524Y-151267676D01*
X171809524Y-151267676D02*
X171714286Y-151362914D01*
X171714286Y-151362914D02*
X171619048Y-151410533D01*
X173047619Y-151458152D02*
X173047619Y-152124819D01*
X172809524Y-151077200D02*
X172571429Y-151791485D01*
X172571429Y-151791485D02*
X173190476Y-151791485D01*
X195690476Y-135624819D02*
X195690476Y-136339104D01*
X195690476Y-136339104D02*
X195642857Y-136481961D01*
X195642857Y-136481961D02*
X195547619Y-136577200D01*
X195547619Y-136577200D02*
X195404762Y-136624819D01*
X195404762Y-136624819D02*
X195309524Y-136624819D01*
X196119048Y-135720057D02*
X196166667Y-135672438D01*
X196166667Y-135672438D02*
X196261905Y-135624819D01*
X196261905Y-135624819D02*
X196500000Y-135624819D01*
X196500000Y-135624819D02*
X196595238Y-135672438D01*
X196595238Y-135672438D02*
X196642857Y-135720057D01*
X196642857Y-135720057D02*
X196690476Y-135815295D01*
X196690476Y-135815295D02*
X196690476Y-135910533D01*
X196690476Y-135910533D02*
X196642857Y-136053390D01*
X196642857Y-136053390D02*
X196071429Y-136624819D01*
X196071429Y-136624819D02*
X196690476Y-136624819D01*
X197071429Y-135720057D02*
X197119048Y-135672438D01*
X197119048Y-135672438D02*
X197214286Y-135624819D01*
X197214286Y-135624819D02*
X197452381Y-135624819D01*
X197452381Y-135624819D02*
X197547619Y-135672438D01*
X197547619Y-135672438D02*
X197595238Y-135720057D01*
X197595238Y-135720057D02*
X197642857Y-135815295D01*
X197642857Y-135815295D02*
X197642857Y-135910533D01*
X197642857Y-135910533D02*
X197595238Y-136053390D01*
X197595238Y-136053390D02*
X197023810Y-136624819D01*
X197023810Y-136624819D02*
X197642857Y-136624819D01*
X143190476Y-96584819D02*
X143190476Y-97299104D01*
X143190476Y-97299104D02*
X143142857Y-97441961D01*
X143142857Y-97441961D02*
X143047619Y-97537200D01*
X143047619Y-97537200D02*
X142904762Y-97584819D01*
X142904762Y-97584819D02*
X142809524Y-97584819D01*
X143619048Y-96680057D02*
X143666667Y-96632438D01*
X143666667Y-96632438D02*
X143761905Y-96584819D01*
X143761905Y-96584819D02*
X144000000Y-96584819D01*
X144000000Y-96584819D02*
X144095238Y-96632438D01*
X144095238Y-96632438D02*
X144142857Y-96680057D01*
X144142857Y-96680057D02*
X144190476Y-96775295D01*
X144190476Y-96775295D02*
X144190476Y-96870533D01*
X144190476Y-96870533D02*
X144142857Y-97013390D01*
X144142857Y-97013390D02*
X143571429Y-97584819D01*
X143571429Y-97584819D02*
X144190476Y-97584819D01*
X145095238Y-96584819D02*
X144619048Y-96584819D01*
X144619048Y-96584819D02*
X144571429Y-97061009D01*
X144571429Y-97061009D02*
X144619048Y-97013390D01*
X144619048Y-97013390D02*
X144714286Y-96965771D01*
X144714286Y-96965771D02*
X144952381Y-96965771D01*
X144952381Y-96965771D02*
X145047619Y-97013390D01*
X145047619Y-97013390D02*
X145095238Y-97061009D01*
X145095238Y-97061009D02*
X145142857Y-97156247D01*
X145142857Y-97156247D02*
X145142857Y-97394342D01*
X145142857Y-97394342D02*
X145095238Y-97489580D01*
X145095238Y-97489580D02*
X145047619Y-97537200D01*
X145047619Y-97537200D02*
X144952381Y-97584819D01*
X144952381Y-97584819D02*
X144714286Y-97584819D01*
X144714286Y-97584819D02*
X144619048Y-97537200D01*
X144619048Y-97537200D02*
X144571429Y-97489580D01*
X132190476Y-141624819D02*
X132190476Y-142339104D01*
X132190476Y-142339104D02*
X132142857Y-142481961D01*
X132142857Y-142481961D02*
X132047619Y-142577200D01*
X132047619Y-142577200D02*
X131904762Y-142624819D01*
X131904762Y-142624819D02*
X131809524Y-142624819D01*
X133190476Y-142624819D02*
X132619048Y-142624819D01*
X132904762Y-142624819D02*
X132904762Y-141624819D01*
X132904762Y-141624819D02*
X132809524Y-141767676D01*
X132809524Y-141767676D02*
X132714286Y-141862914D01*
X132714286Y-141862914D02*
X132619048Y-141910533D01*
X134142857Y-142624819D02*
X133571429Y-142624819D01*
X133857143Y-142624819D02*
X133857143Y-141624819D01*
X133857143Y-141624819D02*
X133761905Y-141767676D01*
X133761905Y-141767676D02*
X133666667Y-141862914D01*
X133666667Y-141862914D02*
X133571429Y-141910533D01*
X133190476Y-151124819D02*
X133190476Y-151839104D01*
X133190476Y-151839104D02*
X133142857Y-151981961D01*
X133142857Y-151981961D02*
X133047619Y-152077200D01*
X133047619Y-152077200D02*
X132904762Y-152124819D01*
X132904762Y-152124819D02*
X132809524Y-152124819D01*
X134190476Y-152124819D02*
X133619048Y-152124819D01*
X133904762Y-152124819D02*
X133904762Y-151124819D01*
X133904762Y-151124819D02*
X133809524Y-151267676D01*
X133809524Y-151267676D02*
X133714286Y-151362914D01*
X133714286Y-151362914D02*
X133619048Y-151410533D01*
X134571429Y-151220057D02*
X134619048Y-151172438D01*
X134619048Y-151172438D02*
X134714286Y-151124819D01*
X134714286Y-151124819D02*
X134952381Y-151124819D01*
X134952381Y-151124819D02*
X135047619Y-151172438D01*
X135047619Y-151172438D02*
X135095238Y-151220057D01*
X135095238Y-151220057D02*
X135142857Y-151315295D01*
X135142857Y-151315295D02*
X135142857Y-151410533D01*
X135142857Y-151410533D02*
X135095238Y-151553390D01*
X135095238Y-151553390D02*
X134523810Y-152124819D01*
X134523810Y-152124819D02*
X135142857Y-152124819D01*
X94666666Y-123624819D02*
X94666666Y-124339104D01*
X94666666Y-124339104D02*
X94619047Y-124481961D01*
X94619047Y-124481961D02*
X94523809Y-124577200D01*
X94523809Y-124577200D02*
X94380952Y-124624819D01*
X94380952Y-124624819D02*
X94285714Y-124624819D01*
X95666666Y-124624819D02*
X95095238Y-124624819D01*
X95380952Y-124624819D02*
X95380952Y-123624819D01*
X95380952Y-123624819D02*
X95285714Y-123767676D01*
X95285714Y-123767676D02*
X95190476Y-123862914D01*
X95190476Y-123862914D02*
X95095238Y-123910533D01*
X170190476Y-123624819D02*
X170190476Y-124339104D01*
X170190476Y-124339104D02*
X170142857Y-124481961D01*
X170142857Y-124481961D02*
X170047619Y-124577200D01*
X170047619Y-124577200D02*
X169904762Y-124624819D01*
X169904762Y-124624819D02*
X169809524Y-124624819D01*
X170619048Y-123720057D02*
X170666667Y-123672438D01*
X170666667Y-123672438D02*
X170761905Y-123624819D01*
X170761905Y-123624819D02*
X171000000Y-123624819D01*
X171000000Y-123624819D02*
X171095238Y-123672438D01*
X171095238Y-123672438D02*
X171142857Y-123720057D01*
X171142857Y-123720057D02*
X171190476Y-123815295D01*
X171190476Y-123815295D02*
X171190476Y-123910533D01*
X171190476Y-123910533D02*
X171142857Y-124053390D01*
X171142857Y-124053390D02*
X170571429Y-124624819D01*
X170571429Y-124624819D02*
X171190476Y-124624819D01*
X171809524Y-123624819D02*
X171904762Y-123624819D01*
X171904762Y-123624819D02*
X172000000Y-123672438D01*
X172000000Y-123672438D02*
X172047619Y-123720057D01*
X172047619Y-123720057D02*
X172095238Y-123815295D01*
X172095238Y-123815295D02*
X172142857Y-124005771D01*
X172142857Y-124005771D02*
X172142857Y-124243866D01*
X172142857Y-124243866D02*
X172095238Y-124434342D01*
X172095238Y-124434342D02*
X172047619Y-124529580D01*
X172047619Y-124529580D02*
X172000000Y-124577200D01*
X172000000Y-124577200D02*
X171904762Y-124624819D01*
X171904762Y-124624819D02*
X171809524Y-124624819D01*
X171809524Y-124624819D02*
X171714286Y-124577200D01*
X171714286Y-124577200D02*
X171666667Y-124529580D01*
X171666667Y-124529580D02*
X171619048Y-124434342D01*
X171619048Y-124434342D02*
X171571429Y-124243866D01*
X171571429Y-124243866D02*
X171571429Y-124005771D01*
X171571429Y-124005771D02*
X171619048Y-123815295D01*
X171619048Y-123815295D02*
X171666667Y-123720057D01*
X171666667Y-123720057D02*
X171714286Y-123672438D01*
X171714286Y-123672438D02*
X171809524Y-123624819D01*
X119666666Y-116624819D02*
X119666666Y-117339104D01*
X119666666Y-117339104D02*
X119619047Y-117481961D01*
X119619047Y-117481961D02*
X119523809Y-117577200D01*
X119523809Y-117577200D02*
X119380952Y-117624819D01*
X119380952Y-117624819D02*
X119285714Y-117624819D01*
X120619047Y-116624819D02*
X120142857Y-116624819D01*
X120142857Y-116624819D02*
X120095238Y-117101009D01*
X120095238Y-117101009D02*
X120142857Y-117053390D01*
X120142857Y-117053390D02*
X120238095Y-117005771D01*
X120238095Y-117005771D02*
X120476190Y-117005771D01*
X120476190Y-117005771D02*
X120571428Y-117053390D01*
X120571428Y-117053390D02*
X120619047Y-117101009D01*
X120619047Y-117101009D02*
X120666666Y-117196247D01*
X120666666Y-117196247D02*
X120666666Y-117434342D01*
X120666666Y-117434342D02*
X120619047Y-117529580D01*
X120619047Y-117529580D02*
X120571428Y-117577200D01*
X120571428Y-117577200D02*
X120476190Y-117624819D01*
X120476190Y-117624819D02*
X120238095Y-117624819D01*
X120238095Y-117624819D02*
X120142857Y-117577200D01*
X120142857Y-117577200D02*
X120095238Y-117529580D01*
X170190476Y-132624819D02*
X170190476Y-133339104D01*
X170190476Y-133339104D02*
X170142857Y-133481961D01*
X170142857Y-133481961D02*
X170047619Y-133577200D01*
X170047619Y-133577200D02*
X169904762Y-133624819D01*
X169904762Y-133624819D02*
X169809524Y-133624819D01*
X171190476Y-133624819D02*
X170619048Y-133624819D01*
X170904762Y-133624819D02*
X170904762Y-132624819D01*
X170904762Y-132624819D02*
X170809524Y-132767676D01*
X170809524Y-132767676D02*
X170714286Y-132862914D01*
X170714286Y-132862914D02*
X170619048Y-132910533D01*
X171761905Y-133053390D02*
X171666667Y-133005771D01*
X171666667Y-133005771D02*
X171619048Y-132958152D01*
X171619048Y-132958152D02*
X171571429Y-132862914D01*
X171571429Y-132862914D02*
X171571429Y-132815295D01*
X171571429Y-132815295D02*
X171619048Y-132720057D01*
X171619048Y-132720057D02*
X171666667Y-132672438D01*
X171666667Y-132672438D02*
X171761905Y-132624819D01*
X171761905Y-132624819D02*
X171952381Y-132624819D01*
X171952381Y-132624819D02*
X172047619Y-132672438D01*
X172047619Y-132672438D02*
X172095238Y-132720057D01*
X172095238Y-132720057D02*
X172142857Y-132815295D01*
X172142857Y-132815295D02*
X172142857Y-132862914D01*
X172142857Y-132862914D02*
X172095238Y-132958152D01*
X172095238Y-132958152D02*
X172047619Y-133005771D01*
X172047619Y-133005771D02*
X171952381Y-133053390D01*
X171952381Y-133053390D02*
X171761905Y-133053390D01*
X171761905Y-133053390D02*
X171666667Y-133101009D01*
X171666667Y-133101009D02*
X171619048Y-133148628D01*
X171619048Y-133148628D02*
X171571429Y-133243866D01*
X171571429Y-133243866D02*
X171571429Y-133434342D01*
X171571429Y-133434342D02*
X171619048Y-133529580D01*
X171619048Y-133529580D02*
X171666667Y-133577200D01*
X171666667Y-133577200D02*
X171761905Y-133624819D01*
X171761905Y-133624819D02*
X171952381Y-133624819D01*
X171952381Y-133624819D02*
X172047619Y-133577200D01*
X172047619Y-133577200D02*
X172095238Y-133529580D01*
X172095238Y-133529580D02*
X172142857Y-133434342D01*
X172142857Y-133434342D02*
X172142857Y-133243866D01*
X172142857Y-133243866D02*
X172095238Y-133148628D01*
X172095238Y-133148628D02*
X172047619Y-133101009D01*
X172047619Y-133101009D02*
X171952381Y-133053390D01*
X94666666Y-132624819D02*
X94666666Y-133339104D01*
X94666666Y-133339104D02*
X94619047Y-133481961D01*
X94619047Y-133481961D02*
X94523809Y-133577200D01*
X94523809Y-133577200D02*
X94380952Y-133624819D01*
X94380952Y-133624819D02*
X94285714Y-133624819D01*
X95095238Y-132720057D02*
X95142857Y-132672438D01*
X95142857Y-132672438D02*
X95238095Y-132624819D01*
X95238095Y-132624819D02*
X95476190Y-132624819D01*
X95476190Y-132624819D02*
X95571428Y-132672438D01*
X95571428Y-132672438D02*
X95619047Y-132720057D01*
X95619047Y-132720057D02*
X95666666Y-132815295D01*
X95666666Y-132815295D02*
X95666666Y-132910533D01*
X95666666Y-132910533D02*
X95619047Y-133053390D01*
X95619047Y-133053390D02*
X95047619Y-133624819D01*
X95047619Y-133624819D02*
X95666666Y-133624819D01*
X94666666Y-141624819D02*
X94666666Y-142339104D01*
X94666666Y-142339104D02*
X94619047Y-142481961D01*
X94619047Y-142481961D02*
X94523809Y-142577200D01*
X94523809Y-142577200D02*
X94380952Y-142624819D01*
X94380952Y-142624819D02*
X94285714Y-142624819D01*
X95047619Y-141624819D02*
X95666666Y-141624819D01*
X95666666Y-141624819D02*
X95333333Y-142005771D01*
X95333333Y-142005771D02*
X95476190Y-142005771D01*
X95476190Y-142005771D02*
X95571428Y-142053390D01*
X95571428Y-142053390D02*
X95619047Y-142101009D01*
X95619047Y-142101009D02*
X95666666Y-142196247D01*
X95666666Y-142196247D02*
X95666666Y-142434342D01*
X95666666Y-142434342D02*
X95619047Y-142529580D01*
X95619047Y-142529580D02*
X95571428Y-142577200D01*
X95571428Y-142577200D02*
X95476190Y-142624819D01*
X95476190Y-142624819D02*
X95190476Y-142624819D01*
X95190476Y-142624819D02*
X95095238Y-142577200D01*
X95095238Y-142577200D02*
X95047619Y-142529580D01*
X120166666Y-126624819D02*
X120166666Y-127339104D01*
X120166666Y-127339104D02*
X120119047Y-127481961D01*
X120119047Y-127481961D02*
X120023809Y-127577200D01*
X120023809Y-127577200D02*
X119880952Y-127624819D01*
X119880952Y-127624819D02*
X119785714Y-127624819D01*
X121071428Y-126624819D02*
X120880952Y-126624819D01*
X120880952Y-126624819D02*
X120785714Y-126672438D01*
X120785714Y-126672438D02*
X120738095Y-126720057D01*
X120738095Y-126720057D02*
X120642857Y-126862914D01*
X120642857Y-126862914D02*
X120595238Y-127053390D01*
X120595238Y-127053390D02*
X120595238Y-127434342D01*
X120595238Y-127434342D02*
X120642857Y-127529580D01*
X120642857Y-127529580D02*
X120690476Y-127577200D01*
X120690476Y-127577200D02*
X120785714Y-127624819D01*
X120785714Y-127624819D02*
X120976190Y-127624819D01*
X120976190Y-127624819D02*
X121071428Y-127577200D01*
X121071428Y-127577200D02*
X121119047Y-127529580D01*
X121119047Y-127529580D02*
X121166666Y-127434342D01*
X121166666Y-127434342D02*
X121166666Y-127196247D01*
X121166666Y-127196247D02*
X121119047Y-127101009D01*
X121119047Y-127101009D02*
X121071428Y-127053390D01*
X121071428Y-127053390D02*
X120976190Y-127005771D01*
X120976190Y-127005771D02*
X120785714Y-127005771D01*
X120785714Y-127005771D02*
X120690476Y-127053390D01*
X120690476Y-127053390D02*
X120642857Y-127101009D01*
X120642857Y-127101009D02*
X120595238Y-127196247D01*
X157690476Y-126624819D02*
X157690476Y-127339104D01*
X157690476Y-127339104D02*
X157642857Y-127481961D01*
X157642857Y-127481961D02*
X157547619Y-127577200D01*
X157547619Y-127577200D02*
X157404762Y-127624819D01*
X157404762Y-127624819D02*
X157309524Y-127624819D01*
X158690476Y-127624819D02*
X158119048Y-127624819D01*
X158404762Y-127624819D02*
X158404762Y-126624819D01*
X158404762Y-126624819D02*
X158309524Y-126767676D01*
X158309524Y-126767676D02*
X158214286Y-126862914D01*
X158214286Y-126862914D02*
X158119048Y-126910533D01*
X159023810Y-126624819D02*
X159690476Y-126624819D01*
X159690476Y-126624819D02*
X159261905Y-127624819D01*
X95666666Y-151124819D02*
X95666666Y-151839104D01*
X95666666Y-151839104D02*
X95619047Y-151981961D01*
X95619047Y-151981961D02*
X95523809Y-152077200D01*
X95523809Y-152077200D02*
X95380952Y-152124819D01*
X95380952Y-152124819D02*
X95285714Y-152124819D01*
X96571428Y-151458152D02*
X96571428Y-152124819D01*
X96333333Y-151077200D02*
X96095238Y-151791485D01*
X96095238Y-151791485D02*
X96714285Y-151791485D01*
X194690476Y-116624819D02*
X194690476Y-117339104D01*
X194690476Y-117339104D02*
X194642857Y-117481961D01*
X194642857Y-117481961D02*
X194547619Y-117577200D01*
X194547619Y-117577200D02*
X194404762Y-117624819D01*
X194404762Y-117624819D02*
X194309524Y-117624819D01*
X195119048Y-116720057D02*
X195166667Y-116672438D01*
X195166667Y-116672438D02*
X195261905Y-116624819D01*
X195261905Y-116624819D02*
X195500000Y-116624819D01*
X195500000Y-116624819D02*
X195595238Y-116672438D01*
X195595238Y-116672438D02*
X195642857Y-116720057D01*
X195642857Y-116720057D02*
X195690476Y-116815295D01*
X195690476Y-116815295D02*
X195690476Y-116910533D01*
X195690476Y-116910533D02*
X195642857Y-117053390D01*
X195642857Y-117053390D02*
X195071429Y-117624819D01*
X195071429Y-117624819D02*
X195690476Y-117624819D01*
X196547619Y-116958152D02*
X196547619Y-117624819D01*
X196309524Y-116577200D02*
X196071429Y-117291485D01*
X196071429Y-117291485D02*
X196690476Y-117291485D01*
X195690476Y-126624819D02*
X195690476Y-127339104D01*
X195690476Y-127339104D02*
X195642857Y-127481961D01*
X195642857Y-127481961D02*
X195547619Y-127577200D01*
X195547619Y-127577200D02*
X195404762Y-127624819D01*
X195404762Y-127624819D02*
X195309524Y-127624819D01*
X196119048Y-126720057D02*
X196166667Y-126672438D01*
X196166667Y-126672438D02*
X196261905Y-126624819D01*
X196261905Y-126624819D02*
X196500000Y-126624819D01*
X196500000Y-126624819D02*
X196595238Y-126672438D01*
X196595238Y-126672438D02*
X196642857Y-126720057D01*
X196642857Y-126720057D02*
X196690476Y-126815295D01*
X196690476Y-126815295D02*
X196690476Y-126910533D01*
X196690476Y-126910533D02*
X196642857Y-127053390D01*
X196642857Y-127053390D02*
X196071429Y-127624819D01*
X196071429Y-127624819D02*
X196690476Y-127624819D01*
X197023810Y-126624819D02*
X197642857Y-126624819D01*
X197642857Y-126624819D02*
X197309524Y-127005771D01*
X197309524Y-127005771D02*
X197452381Y-127005771D01*
X197452381Y-127005771D02*
X197547619Y-127053390D01*
X197547619Y-127053390D02*
X197595238Y-127101009D01*
X197595238Y-127101009D02*
X197642857Y-127196247D01*
X197642857Y-127196247D02*
X197642857Y-127434342D01*
X197642857Y-127434342D02*
X197595238Y-127529580D01*
X197595238Y-127529580D02*
X197547619Y-127577200D01*
X197547619Y-127577200D02*
X197452381Y-127624819D01*
X197452381Y-127624819D02*
X197166667Y-127624819D01*
X197166667Y-127624819D02*
X197071429Y-127577200D01*
X197071429Y-127577200D02*
X197023810Y-127529580D01*
X132666666Y-132624819D02*
X132666666Y-133339104D01*
X132666666Y-133339104D02*
X132619047Y-133481961D01*
X132619047Y-133481961D02*
X132523809Y-133577200D01*
X132523809Y-133577200D02*
X132380952Y-133624819D01*
X132380952Y-133624819D02*
X132285714Y-133624819D01*
X133190476Y-133624819D02*
X133380952Y-133624819D01*
X133380952Y-133624819D02*
X133476190Y-133577200D01*
X133476190Y-133577200D02*
X133523809Y-133529580D01*
X133523809Y-133529580D02*
X133619047Y-133386723D01*
X133619047Y-133386723D02*
X133666666Y-133196247D01*
X133666666Y-133196247D02*
X133666666Y-132815295D01*
X133666666Y-132815295D02*
X133619047Y-132720057D01*
X133619047Y-132720057D02*
X133571428Y-132672438D01*
X133571428Y-132672438D02*
X133476190Y-132624819D01*
X133476190Y-132624819D02*
X133285714Y-132624819D01*
X133285714Y-132624819D02*
X133190476Y-132672438D01*
X133190476Y-132672438D02*
X133142857Y-132720057D01*
X133142857Y-132720057D02*
X133095238Y-132815295D01*
X133095238Y-132815295D02*
X133095238Y-133053390D01*
X133095238Y-133053390D02*
X133142857Y-133148628D01*
X133142857Y-133148628D02*
X133190476Y-133196247D01*
X133190476Y-133196247D02*
X133285714Y-133243866D01*
X133285714Y-133243866D02*
X133476190Y-133243866D01*
X133476190Y-133243866D02*
X133571428Y-133196247D01*
X133571428Y-133196247D02*
X133619047Y-133148628D01*
X133619047Y-133148628D02*
X133666666Y-133053390D01*
X170190476Y-141624819D02*
X170190476Y-142339104D01*
X170190476Y-142339104D02*
X170142857Y-142481961D01*
X170142857Y-142481961D02*
X170047619Y-142577200D01*
X170047619Y-142577200D02*
X169904762Y-142624819D01*
X169904762Y-142624819D02*
X169809524Y-142624819D01*
X171190476Y-142624819D02*
X170619048Y-142624819D01*
X170904762Y-142624819D02*
X170904762Y-141624819D01*
X170904762Y-141624819D02*
X170809524Y-141767676D01*
X170809524Y-141767676D02*
X170714286Y-141862914D01*
X170714286Y-141862914D02*
X170619048Y-141910533D01*
X172047619Y-141624819D02*
X171857143Y-141624819D01*
X171857143Y-141624819D02*
X171761905Y-141672438D01*
X171761905Y-141672438D02*
X171714286Y-141720057D01*
X171714286Y-141720057D02*
X171619048Y-141862914D01*
X171619048Y-141862914D02*
X171571429Y-142053390D01*
X171571429Y-142053390D02*
X171571429Y-142434342D01*
X171571429Y-142434342D02*
X171619048Y-142529580D01*
X171619048Y-142529580D02*
X171666667Y-142577200D01*
X171666667Y-142577200D02*
X171761905Y-142624819D01*
X171761905Y-142624819D02*
X171952381Y-142624819D01*
X171952381Y-142624819D02*
X172047619Y-142577200D01*
X172047619Y-142577200D02*
X172095238Y-142529580D01*
X172095238Y-142529580D02*
X172142857Y-142434342D01*
X172142857Y-142434342D02*
X172142857Y-142196247D01*
X172142857Y-142196247D02*
X172095238Y-142101009D01*
X172095238Y-142101009D02*
X172047619Y-142053390D01*
X172047619Y-142053390D02*
X171952381Y-142005771D01*
X171952381Y-142005771D02*
X171761905Y-142005771D01*
X171761905Y-142005771D02*
X171666667Y-142053390D01*
X171666667Y-142053390D02*
X171619048Y-142101009D01*
X171619048Y-142101009D02*
X171571429Y-142196247D01*
X157190476Y-116624819D02*
X157190476Y-117339104D01*
X157190476Y-117339104D02*
X157142857Y-117481961D01*
X157142857Y-117481961D02*
X157047619Y-117577200D01*
X157047619Y-117577200D02*
X156904762Y-117624819D01*
X156904762Y-117624819D02*
X156809524Y-117624819D01*
X158190476Y-117624819D02*
X157619048Y-117624819D01*
X157904762Y-117624819D02*
X157904762Y-116624819D01*
X157904762Y-116624819D02*
X157809524Y-116767676D01*
X157809524Y-116767676D02*
X157714286Y-116862914D01*
X157714286Y-116862914D02*
X157619048Y-116910533D01*
X158666667Y-117624819D02*
X158857143Y-117624819D01*
X158857143Y-117624819D02*
X158952381Y-117577200D01*
X158952381Y-117577200D02*
X159000000Y-117529580D01*
X159000000Y-117529580D02*
X159095238Y-117386723D01*
X159095238Y-117386723D02*
X159142857Y-117196247D01*
X159142857Y-117196247D02*
X159142857Y-116815295D01*
X159142857Y-116815295D02*
X159095238Y-116720057D01*
X159095238Y-116720057D02*
X159047619Y-116672438D01*
X159047619Y-116672438D02*
X158952381Y-116624819D01*
X158952381Y-116624819D02*
X158761905Y-116624819D01*
X158761905Y-116624819D02*
X158666667Y-116672438D01*
X158666667Y-116672438D02*
X158619048Y-116720057D01*
X158619048Y-116720057D02*
X158571429Y-116815295D01*
X158571429Y-116815295D02*
X158571429Y-117053390D01*
X158571429Y-117053390D02*
X158619048Y-117148628D01*
X158619048Y-117148628D02*
X158666667Y-117196247D01*
X158666667Y-117196247D02*
X158761905Y-117243866D01*
X158761905Y-117243866D02*
X158952381Y-117243866D01*
X158952381Y-117243866D02*
X159047619Y-117196247D01*
X159047619Y-117196247D02*
X159095238Y-117148628D01*
X159095238Y-117148628D02*
X159142857Y-117053390D01*
X157690476Y-144124819D02*
X157690476Y-144839104D01*
X157690476Y-144839104D02*
X157642857Y-144981961D01*
X157642857Y-144981961D02*
X157547619Y-145077200D01*
X157547619Y-145077200D02*
X157404762Y-145124819D01*
X157404762Y-145124819D02*
X157309524Y-145124819D01*
X158690476Y-145124819D02*
X158119048Y-145124819D01*
X158404762Y-145124819D02*
X158404762Y-144124819D01*
X158404762Y-144124819D02*
X158309524Y-144267676D01*
X158309524Y-144267676D02*
X158214286Y-144362914D01*
X158214286Y-144362914D02*
X158119048Y-144410533D01*
X159023810Y-144124819D02*
X159642857Y-144124819D01*
X159642857Y-144124819D02*
X159309524Y-144505771D01*
X159309524Y-144505771D02*
X159452381Y-144505771D01*
X159452381Y-144505771D02*
X159547619Y-144553390D01*
X159547619Y-144553390D02*
X159595238Y-144601009D01*
X159595238Y-144601009D02*
X159642857Y-144696247D01*
X159642857Y-144696247D02*
X159642857Y-144934342D01*
X159642857Y-144934342D02*
X159595238Y-145029580D01*
X159595238Y-145029580D02*
X159547619Y-145077200D01*
X159547619Y-145077200D02*
X159452381Y-145124819D01*
X159452381Y-145124819D02*
X159166667Y-145124819D01*
X159166667Y-145124819D02*
X159071429Y-145077200D01*
X159071429Y-145077200D02*
X159023810Y-145029580D01*
X157690476Y-135624819D02*
X157690476Y-136339104D01*
X157690476Y-136339104D02*
X157642857Y-136481961D01*
X157642857Y-136481961D02*
X157547619Y-136577200D01*
X157547619Y-136577200D02*
X157404762Y-136624819D01*
X157404762Y-136624819D02*
X157309524Y-136624819D01*
X158690476Y-136624819D02*
X158119048Y-136624819D01*
X158404762Y-136624819D02*
X158404762Y-135624819D01*
X158404762Y-135624819D02*
X158309524Y-135767676D01*
X158309524Y-135767676D02*
X158214286Y-135862914D01*
X158214286Y-135862914D02*
X158119048Y-135910533D01*
X159595238Y-135624819D02*
X159119048Y-135624819D01*
X159119048Y-135624819D02*
X159071429Y-136101009D01*
X159071429Y-136101009D02*
X159119048Y-136053390D01*
X159119048Y-136053390D02*
X159214286Y-136005771D01*
X159214286Y-136005771D02*
X159452381Y-136005771D01*
X159452381Y-136005771D02*
X159547619Y-136053390D01*
X159547619Y-136053390D02*
X159595238Y-136101009D01*
X159595238Y-136101009D02*
X159642857Y-136196247D01*
X159642857Y-136196247D02*
X159642857Y-136434342D01*
X159642857Y-136434342D02*
X159595238Y-136529580D01*
X159595238Y-136529580D02*
X159547619Y-136577200D01*
X159547619Y-136577200D02*
X159452381Y-136624819D01*
X159452381Y-136624819D02*
X159214286Y-136624819D01*
X159214286Y-136624819D02*
X159119048Y-136577200D01*
X159119048Y-136577200D02*
X159071429Y-136529580D01*
D11*
%TO.C,J21*%
X195170000Y-146170000D02*
X196500000Y-146170000D01*
X195170000Y-147500000D02*
X195170000Y-146170000D01*
X195170000Y-148770000D02*
X195170000Y-148830000D01*
X195170000Y-148770000D02*
X197830000Y-148770000D01*
X195170000Y-148830000D02*
X197830000Y-148830000D01*
X197830000Y-148770000D02*
X197830000Y-148830000D01*
%TO.C,J7*%
X131670000Y-125170000D02*
X133000000Y-125170000D01*
X131670000Y-126500000D02*
X131670000Y-125170000D01*
X131670000Y-127770000D02*
X131670000Y-127830000D01*
X131670000Y-127770000D02*
X134330000Y-127770000D01*
X131670000Y-127830000D02*
X134330000Y-127830000D01*
X134330000Y-127770000D02*
X134330000Y-127830000D01*
%TO.C,J8*%
X119170000Y-137170000D02*
X120500000Y-137170000D01*
X119170000Y-138500000D02*
X119170000Y-137170000D01*
X119170000Y-139770000D02*
X119170000Y-139830000D01*
X119170000Y-139770000D02*
X121830000Y-139770000D01*
X119170000Y-139830000D02*
X121830000Y-139830000D01*
X121830000Y-139770000D02*
X121830000Y-139830000D01*
%TO.C,J10*%
X119170000Y-146170000D02*
X120500000Y-146170000D01*
X119170000Y-147500000D02*
X119170000Y-146170000D01*
X119170000Y-148770000D02*
X119170000Y-148830000D01*
X119170000Y-148770000D02*
X121830000Y-148770000D01*
X119170000Y-148830000D02*
X121830000Y-148830000D01*
X121830000Y-148770000D02*
X121830000Y-148830000D01*
%TO.C,J14*%
X170670000Y-152670000D02*
X172000000Y-152670000D01*
X170670000Y-154000000D02*
X170670000Y-152670000D01*
X170670000Y-155270000D02*
X170670000Y-155330000D01*
X170670000Y-155270000D02*
X173330000Y-155270000D01*
X170670000Y-155330000D02*
X173330000Y-155330000D01*
X173330000Y-155270000D02*
X173330000Y-155330000D01*
%TO.C,J22*%
X195170000Y-137170000D02*
X196500000Y-137170000D01*
X195170000Y-138500000D02*
X195170000Y-137170000D01*
X195170000Y-139770000D02*
X195170000Y-139830000D01*
X195170000Y-139770000D02*
X197830000Y-139770000D01*
X195170000Y-139830000D02*
X197830000Y-139830000D01*
X197830000Y-139770000D02*
X197830000Y-139830000D01*
%TO.C,J25*%
X123815000Y-99220000D02*
X124815000Y-98220000D01*
X123815000Y-108350000D02*
X123815000Y-99220000D01*
X124815000Y-98220000D02*
X163185000Y-98220000D01*
X163185000Y-98220000D02*
X164185000Y-99220000D01*
X164185000Y-99220000D02*
X164185000Y-108350000D01*
X164185000Y-108350000D02*
X123815000Y-108350000D01*
%TO.C,J11*%
X131670000Y-143170000D02*
X133000000Y-143170000D01*
X131670000Y-144500000D02*
X131670000Y-143170000D01*
X131670000Y-145770000D02*
X131670000Y-145830000D01*
X131670000Y-145770000D02*
X134330000Y-145770000D01*
X131670000Y-145830000D02*
X134330000Y-145830000D01*
X134330000Y-145770000D02*
X134330000Y-145830000D01*
%TO.C,J12*%
X132670000Y-152670000D02*
X134000000Y-152670000D01*
X132670000Y-154000000D02*
X132670000Y-152670000D01*
X132670000Y-155270000D02*
X132670000Y-155330000D01*
X132670000Y-155270000D02*
X135330000Y-155270000D01*
X132670000Y-155330000D02*
X135330000Y-155330000D01*
X135330000Y-155270000D02*
X135330000Y-155330000D01*
%TO.C,J1*%
X93670000Y-125170000D02*
X95000000Y-125170000D01*
X93670000Y-126500000D02*
X93670000Y-125170000D01*
X93670000Y-127770000D02*
X93670000Y-127830000D01*
X93670000Y-127770000D02*
X96330000Y-127770000D01*
X93670000Y-127830000D02*
X96330000Y-127830000D01*
X96330000Y-127770000D02*
X96330000Y-127830000D01*
%TO.C,J20*%
X169670000Y-125170000D02*
X171000000Y-125170000D01*
X169670000Y-126500000D02*
X169670000Y-125170000D01*
X169670000Y-127770000D02*
X169670000Y-127830000D01*
X169670000Y-127770000D02*
X172330000Y-127770000D01*
X169670000Y-127830000D02*
X172330000Y-127830000D01*
X172330000Y-127770000D02*
X172330000Y-127830000D01*
%TO.C,J5*%
X118670000Y-118170000D02*
X120000000Y-118170000D01*
X118670000Y-119500000D02*
X118670000Y-118170000D01*
X118670000Y-120770000D02*
X118670000Y-120830000D01*
X118670000Y-120770000D02*
X121330000Y-120770000D01*
X118670000Y-120830000D02*
X121330000Y-120830000D01*
X121330000Y-120770000D02*
X121330000Y-120830000D01*
%TO.C,J18*%
X172330000Y-136770000D02*
X172330000Y-136830000D01*
X169670000Y-136830000D02*
X172330000Y-136830000D01*
X169670000Y-136770000D02*
X172330000Y-136770000D01*
X169670000Y-136770000D02*
X169670000Y-136830000D01*
X169670000Y-135500000D02*
X169670000Y-134170000D01*
X169670000Y-134170000D02*
X171000000Y-134170000D01*
%TO.C,J2*%
X93670000Y-134170000D02*
X95000000Y-134170000D01*
X93670000Y-135500000D02*
X93670000Y-134170000D01*
X93670000Y-136770000D02*
X93670000Y-136830000D01*
X93670000Y-136770000D02*
X96330000Y-136770000D01*
X93670000Y-136830000D02*
X96330000Y-136830000D01*
X96330000Y-136770000D02*
X96330000Y-136830000D01*
%TO.C,J3*%
X93670000Y-143170000D02*
X95000000Y-143170000D01*
X93670000Y-144500000D02*
X93670000Y-143170000D01*
X93670000Y-145770000D02*
X93670000Y-145830000D01*
X93670000Y-145770000D02*
X96330000Y-145770000D01*
X93670000Y-145830000D02*
X96330000Y-145830000D01*
X96330000Y-145770000D02*
X96330000Y-145830000D01*
%TO.C,J6*%
X119170000Y-128170000D02*
X120500000Y-128170000D01*
X119170000Y-129500000D02*
X119170000Y-128170000D01*
X119170000Y-130770000D02*
X119170000Y-130830000D01*
X119170000Y-130770000D02*
X121830000Y-130770000D01*
X119170000Y-130830000D02*
X121830000Y-130830000D01*
X121830000Y-130770000D02*
X121830000Y-130830000D01*
%TO.C,J17*%
X157170000Y-128170000D02*
X158500000Y-128170000D01*
X157170000Y-129500000D02*
X157170000Y-128170000D01*
X157170000Y-130770000D02*
X157170000Y-130830000D01*
X157170000Y-130770000D02*
X159830000Y-130770000D01*
X157170000Y-130830000D02*
X159830000Y-130830000D01*
X159830000Y-130770000D02*
X159830000Y-130830000D01*
%TO.C,J4*%
X94670000Y-152670000D02*
X96000000Y-152670000D01*
X94670000Y-154000000D02*
X94670000Y-152670000D01*
X94670000Y-155270000D02*
X94670000Y-155330000D01*
X94670000Y-155270000D02*
X97330000Y-155270000D01*
X94670000Y-155330000D02*
X97330000Y-155330000D01*
X97330000Y-155270000D02*
X97330000Y-155330000D01*
%TO.C,J24*%
X194170000Y-118170000D02*
X195500000Y-118170000D01*
X194170000Y-119500000D02*
X194170000Y-118170000D01*
X194170000Y-120770000D02*
X194170000Y-120830000D01*
X194170000Y-120770000D02*
X196830000Y-120770000D01*
X194170000Y-120830000D02*
X196830000Y-120830000D01*
X196830000Y-120770000D02*
X196830000Y-120830000D01*
%TO.C,J23*%
X195170000Y-128170000D02*
X196500000Y-128170000D01*
X195170000Y-129500000D02*
X195170000Y-128170000D01*
X195170000Y-130770000D02*
X195170000Y-130830000D01*
X195170000Y-130770000D02*
X197830000Y-130770000D01*
X195170000Y-130830000D02*
X197830000Y-130830000D01*
X197830000Y-130770000D02*
X197830000Y-130830000D01*
%TO.C,J9*%
X131670000Y-134170000D02*
X133000000Y-134170000D01*
X131670000Y-135500000D02*
X131670000Y-134170000D01*
X131670000Y-136770000D02*
X131670000Y-136830000D01*
X131670000Y-136770000D02*
X134330000Y-136770000D01*
X131670000Y-136830000D02*
X134330000Y-136830000D01*
X134330000Y-136770000D02*
X134330000Y-136830000D01*
%TO.C,J16*%
X169670000Y-143170000D02*
X171000000Y-143170000D01*
X169670000Y-144500000D02*
X169670000Y-143170000D01*
X169670000Y-145770000D02*
X169670000Y-145830000D01*
X169670000Y-145770000D02*
X172330000Y-145770000D01*
X169670000Y-145830000D02*
X172330000Y-145830000D01*
X172330000Y-145770000D02*
X172330000Y-145830000D01*
%TO.C,J19*%
X156670000Y-118170000D02*
X158000000Y-118170000D01*
X156670000Y-119500000D02*
X156670000Y-118170000D01*
X156670000Y-120770000D02*
X156670000Y-120830000D01*
X156670000Y-120770000D02*
X159330000Y-120770000D01*
X156670000Y-120830000D02*
X159330000Y-120830000D01*
X159330000Y-120770000D02*
X159330000Y-120830000D01*
%TO.C,J13*%
X157170000Y-145670000D02*
X158500000Y-145670000D01*
X157170000Y-147000000D02*
X157170000Y-145670000D01*
X157170000Y-148270000D02*
X157170000Y-148330000D01*
X157170000Y-148270000D02*
X159830000Y-148270000D01*
X157170000Y-148330000D02*
X159830000Y-148330000D01*
X159830000Y-148270000D02*
X159830000Y-148330000D01*
%TO.C,J15*%
X157170000Y-137170000D02*
X158500000Y-137170000D01*
X157170000Y-138500000D02*
X157170000Y-137170000D01*
X157170000Y-139770000D02*
X157170000Y-139830000D01*
X157170000Y-139770000D02*
X159830000Y-139770000D01*
X157170000Y-139830000D02*
X159830000Y-139830000D01*
X159830000Y-139770000D02*
X159830000Y-139830000D01*
%TD*%
M02*
