%TF.GenerationSoftware,KiCad,Pcbnew,8.0.4*%
%TF.CreationDate,2024-08-25T20:50:55-04:00*%
%TF.ProjectId,LowerPOGO,4c6f7765-7250-44f4-974f-2e6b69636164,v4*%
%TF.SameCoordinates,Original*%
%TF.FileFunction,Copper,L1,Top*%
%TF.FilePolarity,Positive*%
%FSLAX46Y46*%
G04 Gerber Fmt 4.6, Leading zero omitted, Abs format (unit mm)*
G04 Created by KiCad (PCBNEW 8.0.4) date 2024-08-25 20:50:55*
%MOMM*%
%LPD*%
G01*
G04 APERTURE LIST*
%ADD10C,0.200000*%
%TA.AperFunction,ComponentPad*%
%ADD11C,3.250000*%
%TD*%
%TA.AperFunction,ComponentPad*%
%ADD12C,3.600000*%
%TD*%
%TA.AperFunction,ConnectorPad*%
%ADD13C,5.600000*%
%TD*%
%TA.AperFunction,ComponentPad*%
%ADD14R,1.700000X1.700000*%
%TD*%
%TA.AperFunction,ComponentPad*%
%ADD15O,1.700000X1.700000*%
%TD*%
%TA.AperFunction,Conductor*%
%ADD16C,0.400000*%
%TD*%
G04 APERTURE END LIST*
D10*
G36*
X150983959Y-111124617D02*
G01*
X150983959Y-111715296D01*
X150941304Y-111736623D01*
X150750423Y-111736623D01*
X150667003Y-111694913D01*
X150630431Y-111658341D01*
X150588721Y-111574921D01*
X150588721Y-111264993D01*
X150630431Y-111181572D01*
X150667003Y-111144999D01*
X150750424Y-111103290D01*
X150941304Y-111103290D01*
X150983959Y-111124617D01*
G37*
G36*
X135965199Y-110728332D02*
G01*
X136053185Y-110816320D01*
X136103006Y-111015600D01*
X136103006Y-111407646D01*
X136053185Y-111606926D01*
X136024434Y-111635677D01*
X135916574Y-111527817D01*
X135908907Y-111521525D01*
X135907175Y-111519528D01*
X135904163Y-111517632D01*
X135901420Y-111515381D01*
X135898981Y-111514370D01*
X135890585Y-111509086D01*
X135771538Y-111449561D01*
X135753229Y-111442555D01*
X135749645Y-111442300D01*
X135746325Y-111440925D01*
X135726816Y-111439004D01*
X135607768Y-111439004D01*
X135588259Y-111440925D01*
X135552211Y-111455857D01*
X135524621Y-111483447D01*
X135509689Y-111519495D01*
X135509689Y-111558513D01*
X135524621Y-111594561D01*
X135552211Y-111622151D01*
X135588259Y-111637083D01*
X135607768Y-111639004D01*
X135703208Y-111639004D01*
X135786626Y-111680713D01*
X135842536Y-111736623D01*
X135690899Y-111736623D01*
X135607478Y-111694913D01*
X135519493Y-111606927D01*
X135469673Y-111407647D01*
X135469673Y-111015600D01*
X135519493Y-110816319D01*
X135607479Y-110728333D01*
X135690900Y-110686623D01*
X135881780Y-110686623D01*
X135965199Y-110728332D01*
G37*
G36*
X143628471Y-111137349D02*
G01*
X143662531Y-111205467D01*
X143662531Y-111218928D01*
X143267293Y-111297976D01*
X143267293Y-111205469D01*
X143301352Y-111137349D01*
X143369471Y-111103290D01*
X143560352Y-111103290D01*
X143628471Y-111137349D01*
G37*
G36*
X148048532Y-111144999D02*
G01*
X148085106Y-111181572D01*
X148126817Y-111264991D01*
X148126817Y-111574920D01*
X148085107Y-111658340D01*
X148048532Y-111694914D01*
X147965114Y-111736623D01*
X147833757Y-111736623D01*
X147750337Y-111694913D01*
X147713765Y-111658341D01*
X147672055Y-111574921D01*
X147672055Y-111264993D01*
X147713765Y-111181572D01*
X147750337Y-111144999D01*
X147833758Y-111103290D01*
X147965114Y-111103290D01*
X148048532Y-111144999D01*
G37*
G36*
X149834246Y-111144999D02*
G01*
X149870820Y-111181572D01*
X149912531Y-111264991D01*
X149912531Y-111574920D01*
X149870821Y-111658340D01*
X149834246Y-111694914D01*
X149750828Y-111736623D01*
X149619471Y-111736623D01*
X149536051Y-111694913D01*
X149499479Y-111658341D01*
X149457769Y-111574921D01*
X149457769Y-111264993D01*
X149499479Y-111181572D01*
X149536051Y-111144999D01*
X149619472Y-111103290D01*
X149750828Y-111103290D01*
X149834246Y-111144999D01*
G37*
G36*
X152676089Y-111137349D02*
G01*
X152710149Y-111205467D01*
X152710149Y-111218928D01*
X152314911Y-111297976D01*
X152314911Y-111205469D01*
X152348970Y-111137349D01*
X152417089Y-111103290D01*
X152607970Y-111103290D01*
X152676089Y-111137349D01*
G37*
G36*
X137135692Y-111379480D02*
G01*
X136817939Y-111379480D01*
X136976815Y-110902850D01*
X137135692Y-111379480D01*
G37*
G36*
X152114913Y-109112187D02*
G01*
X152114913Y-109702866D01*
X152072258Y-109724193D01*
X151881377Y-109724193D01*
X151797957Y-109682483D01*
X151761385Y-109645911D01*
X151719675Y-109562491D01*
X151719675Y-109252563D01*
X151761385Y-109169142D01*
X151797957Y-109132569D01*
X151881378Y-109090860D01*
X152072258Y-109090860D01*
X152114913Y-109112187D01*
G37*
G36*
X136858055Y-109132569D02*
G01*
X136894629Y-109169142D01*
X136936340Y-109252561D01*
X136936340Y-109562490D01*
X136894630Y-109645910D01*
X136858055Y-109682484D01*
X136774637Y-109724193D01*
X136643280Y-109724193D01*
X136559860Y-109682483D01*
X136523288Y-109645911D01*
X136481578Y-109562491D01*
X136481578Y-109252563D01*
X136523288Y-109169142D01*
X136559860Y-109132569D01*
X136643281Y-109090860D01*
X136774637Y-109090860D01*
X136858055Y-109132569D01*
G37*
G36*
X139283232Y-109124919D02*
G01*
X139317292Y-109193037D01*
X139317292Y-109206498D01*
X138922054Y-109285546D01*
X138922054Y-109193039D01*
X138956113Y-109124919D01*
X139024232Y-109090860D01*
X139215113Y-109090860D01*
X139283232Y-109124919D01*
G37*
G36*
X143465200Y-108715902D02*
G01*
X143553186Y-108803890D01*
X143603007Y-109003170D01*
X143603007Y-109395216D01*
X143553186Y-109594496D01*
X143465200Y-109682483D01*
X143381781Y-109724193D01*
X143190900Y-109724193D01*
X143107479Y-109682483D01*
X143019494Y-109594497D01*
X142969674Y-109395217D01*
X142969674Y-109003170D01*
X143019494Y-108803889D01*
X143107480Y-108715903D01*
X143190901Y-108674193D01*
X143381781Y-108674193D01*
X143465200Y-108715902D01*
G37*
G36*
X146024724Y-108715902D02*
G01*
X146112710Y-108803890D01*
X146162531Y-109003170D01*
X146162531Y-109395216D01*
X146112710Y-109594496D01*
X146024724Y-109682483D01*
X145941305Y-109724193D01*
X145750424Y-109724193D01*
X145667003Y-109682483D01*
X145579018Y-109594497D01*
X145529198Y-109395217D01*
X145529198Y-109003170D01*
X145579018Y-108803889D01*
X145667004Y-108715903D01*
X145750425Y-108674193D01*
X145941305Y-108674193D01*
X146024724Y-108715902D01*
G37*
G36*
X148172797Y-108721119D02*
G01*
X148263678Y-108812000D01*
X148311036Y-108906715D01*
X148364912Y-109122218D01*
X148364912Y-109276168D01*
X148311036Y-109491670D01*
X148263678Y-109586387D01*
X148172797Y-109677267D01*
X148032020Y-109724193D01*
X147850627Y-109724193D01*
X147850627Y-108674193D01*
X148032019Y-108674193D01*
X148172797Y-108721119D01*
G37*
G36*
X149402281Y-109124919D02*
G01*
X149436341Y-109193037D01*
X149436341Y-109206498D01*
X149041103Y-109285546D01*
X149041103Y-109193039D01*
X149075162Y-109124919D01*
X149143281Y-109090860D01*
X149334162Y-109090860D01*
X149402281Y-109124919D01*
G37*
G36*
X142215200Y-108715902D02*
G01*
X142251772Y-108752475D01*
X142293483Y-108835896D01*
X142293483Y-108967252D01*
X142251773Y-109050671D01*
X142215199Y-109087246D01*
X142131781Y-109128955D01*
X141779198Y-109128955D01*
X141779198Y-108674193D01*
X142131781Y-108674193D01*
X142215200Y-108715902D01*
G37*
G36*
X158285213Y-112492179D02*
G01*
X135130784Y-112492179D01*
X135130784Y-111003290D01*
X135269673Y-111003290D01*
X135269673Y-111419957D01*
X135270008Y-111423359D01*
X135269791Y-111424818D01*
X135270870Y-111432115D01*
X135271594Y-111439466D01*
X135272158Y-111440829D01*
X135272659Y-111444211D01*
X135332183Y-111682306D01*
X135338778Y-111700766D01*
X135343203Y-111706738D01*
X135346049Y-111713609D01*
X135358486Y-111728762D01*
X135477533Y-111847811D01*
X135485202Y-111854105D01*
X135486933Y-111856100D01*
X135489940Y-111857993D01*
X135492687Y-111860247D01*
X135495126Y-111861257D01*
X135503523Y-111866543D01*
X135622571Y-111926066D01*
X135640880Y-111933072D01*
X135644462Y-111933326D01*
X135647783Y-111934702D01*
X135667292Y-111936623D01*
X135905387Y-111936623D01*
X135924896Y-111934702D01*
X135928216Y-111933326D01*
X135931799Y-111933072D01*
X135950108Y-111926066D01*
X136004688Y-111898775D01*
X136072771Y-111966858D01*
X136080437Y-111973149D01*
X136082170Y-111975147D01*
X136085181Y-111977042D01*
X136087925Y-111979294D01*
X136090362Y-111980303D01*
X136098761Y-111985590D01*
X136217809Y-112045114D01*
X136236117Y-112052120D01*
X136275037Y-112054886D01*
X136312053Y-112042547D01*
X136341530Y-112016983D01*
X136358979Y-111982084D01*
X136361745Y-111943164D01*
X136349406Y-111906148D01*
X136323842Y-111876671D01*
X136307252Y-111866228D01*
X136223028Y-111824116D01*
X136460934Y-111824116D01*
X136463700Y-111863036D01*
X136481150Y-111897934D01*
X136510626Y-111923500D01*
X136547642Y-111935838D01*
X136586562Y-111933072D01*
X136621460Y-111915622D01*
X136647026Y-111886146D01*
X136655017Y-111868246D01*
X136751272Y-111579480D01*
X137202359Y-111579480D01*
X137298614Y-111868245D01*
X137306605Y-111886146D01*
X137332170Y-111915622D01*
X137367069Y-111933071D01*
X137405989Y-111935838D01*
X137443005Y-111923499D01*
X137472481Y-111897934D01*
X137489931Y-111863035D01*
X137492697Y-111824115D01*
X137488350Y-111805000D01*
X137075722Y-110567114D01*
X137533499Y-110567114D01*
X137533499Y-110606132D01*
X137548431Y-110642180D01*
X137576021Y-110669770D01*
X137612069Y-110684702D01*
X137631578Y-110686623D01*
X137888721Y-110686623D01*
X137888721Y-111836623D01*
X137890642Y-111856132D01*
X137905574Y-111892180D01*
X137933164Y-111919770D01*
X137969212Y-111934702D01*
X138008230Y-111934702D01*
X138044278Y-111919770D01*
X138071868Y-111892180D01*
X138086800Y-111856132D01*
X138088721Y-111836623D01*
X138088721Y-111122338D01*
X138603007Y-111122338D01*
X138603007Y-111300909D01*
X138603342Y-111304311D01*
X138603125Y-111305770D01*
X138604204Y-111313067D01*
X138604928Y-111320418D01*
X138605492Y-111321781D01*
X138605993Y-111325163D01*
X138665517Y-111563258D01*
X138666030Y-111564696D01*
X138666082Y-111565416D01*
X138669185Y-111573526D01*
X138672112Y-111581718D01*
X138672542Y-111582298D01*
X138673088Y-111583725D01*
X138732611Y-111702773D01*
X138737896Y-111711169D01*
X138738907Y-111713609D01*
X138741160Y-111716355D01*
X138743054Y-111719363D01*
X138745048Y-111721093D01*
X138751343Y-111728763D01*
X138870391Y-111847810D01*
X138885544Y-111860247D01*
X138888863Y-111861621D01*
X138891579Y-111863977D01*
X138909480Y-111871968D01*
X139088050Y-111931491D01*
X139097721Y-111933690D01*
X139100164Y-111934702D01*
X139103702Y-111935050D01*
X139107166Y-111935838D01*
X139109799Y-111935650D01*
X139119673Y-111936623D01*
X139238721Y-111936623D01*
X139248594Y-111935650D01*
X139251228Y-111935838D01*
X139254690Y-111935050D01*
X139258230Y-111934702D01*
X139260672Y-111933690D01*
X139270343Y-111931491D01*
X139448914Y-111871968D01*
X139466815Y-111863977D01*
X139469530Y-111861621D01*
X139472849Y-111860247D01*
X139488003Y-111847811D01*
X139547527Y-111788286D01*
X139559964Y-111773133D01*
X139574895Y-111737085D01*
X139574895Y-111698067D01*
X139559964Y-111662018D01*
X139532374Y-111634428D01*
X139496325Y-111619497D01*
X139457307Y-111619497D01*
X139421259Y-111634428D01*
X139406106Y-111646865D01*
X139363272Y-111689697D01*
X139222495Y-111736623D01*
X139135899Y-111736623D01*
X138995120Y-111689697D01*
X138904239Y-111598815D01*
X138856882Y-111504099D01*
X138803007Y-111288599D01*
X138803007Y-111134647D01*
X138856882Y-110919146D01*
X138904239Y-110824431D01*
X138995120Y-110733549D01*
X139135899Y-110686623D01*
X139222494Y-110686623D01*
X139363272Y-110733549D01*
X139406106Y-110776382D01*
X139421259Y-110788819D01*
X139457307Y-110803750D01*
X139496325Y-110803750D01*
X139532374Y-110788819D01*
X139559964Y-110761229D01*
X139574895Y-110725180D01*
X139574895Y-110686162D01*
X139559964Y-110650114D01*
X139547527Y-110634961D01*
X139499190Y-110586623D01*
X139912531Y-110586623D01*
X139912531Y-111836623D01*
X139914452Y-111856132D01*
X139929384Y-111892180D01*
X139956974Y-111919770D01*
X139993022Y-111934702D01*
X140032040Y-111934702D01*
X140068088Y-111919770D01*
X140095678Y-111892180D01*
X140110610Y-111856132D01*
X140112531Y-111836623D01*
X140112531Y-111281861D01*
X140626816Y-111281861D01*
X140626816Y-111836623D01*
X140628737Y-111856132D01*
X140643669Y-111892180D01*
X140671259Y-111919770D01*
X140707307Y-111934702D01*
X140746325Y-111934702D01*
X140782373Y-111919770D01*
X140809963Y-111892180D01*
X140824895Y-111856132D01*
X140826816Y-111836623D01*
X140826816Y-110586623D01*
X140824895Y-110567114D01*
X141997785Y-110567114D01*
X141997785Y-110606132D01*
X142012717Y-110642180D01*
X142040307Y-110669770D01*
X142076355Y-110684702D01*
X142095864Y-110686623D01*
X142353007Y-110686623D01*
X142353007Y-111836623D01*
X142354928Y-111856132D01*
X142369860Y-111892180D01*
X142397450Y-111919770D01*
X142433498Y-111934702D01*
X142472516Y-111934702D01*
X142508564Y-111919770D01*
X142536154Y-111892180D01*
X142551086Y-111856132D01*
X142553007Y-111836623D01*
X142553007Y-111181861D01*
X143067293Y-111181861D01*
X143067293Y-111658052D01*
X143069214Y-111677561D01*
X143070589Y-111680881D01*
X143070844Y-111684465D01*
X143077850Y-111702773D01*
X143137374Y-111821822D01*
X143139428Y-111825086D01*
X143139941Y-111826623D01*
X143141600Y-111828536D01*
X143147817Y-111838412D01*
X143157292Y-111846629D01*
X143165506Y-111856100D01*
X143175377Y-111862313D01*
X143177294Y-111863976D01*
X143178832Y-111864489D01*
X143182096Y-111866543D01*
X143301143Y-111926066D01*
X143319451Y-111933072D01*
X143323034Y-111933326D01*
X143326355Y-111934702D01*
X143345864Y-111936623D01*
X143583959Y-111936623D01*
X143603468Y-111934702D01*
X143606788Y-111933326D01*
X143610371Y-111933072D01*
X143628680Y-111926066D01*
X143747728Y-111866543D01*
X143764318Y-111856100D01*
X143789883Y-111826624D01*
X143802221Y-111789608D01*
X143799456Y-111750688D01*
X143782007Y-111715789D01*
X143752530Y-111690224D01*
X143715515Y-111677885D01*
X143676595Y-111680651D01*
X143658286Y-111687657D01*
X143560352Y-111736623D01*
X143369471Y-111736623D01*
X143301352Y-111702564D01*
X143267293Y-111634445D01*
X143267293Y-111501937D01*
X143782038Y-111398988D01*
X143782040Y-111398988D01*
X143782041Y-111398987D01*
X143782143Y-111398967D01*
X143800896Y-111393257D01*
X143809036Y-111387805D01*
X143818088Y-111384056D01*
X143825087Y-111377056D01*
X143833316Y-111371546D01*
X143838751Y-111363392D01*
X143845678Y-111356466D01*
X143849466Y-111347319D01*
X143854959Y-111339081D01*
X143856860Y-111329470D01*
X143860610Y-111320418D01*
X143862531Y-111300909D01*
X143862531Y-111241385D01*
X144138722Y-111241385D01*
X144138722Y-111598528D01*
X144140643Y-111618037D01*
X144142018Y-111621357D01*
X144142273Y-111624941D01*
X144149279Y-111643249D01*
X144208803Y-111762298D01*
X144214087Y-111770692D01*
X144215098Y-111773133D01*
X144217352Y-111775879D01*
X144219246Y-111778888D01*
X144221242Y-111780619D01*
X144227535Y-111788286D01*
X144287058Y-111847810D01*
X144294727Y-111854104D01*
X144296458Y-111856100D01*
X144299463Y-111857991D01*
X144302211Y-111860247D01*
X144304652Y-111861258D01*
X144313048Y-111866543D01*
X144432096Y-111926066D01*
X144450405Y-111933072D01*
X144453987Y-111933326D01*
X144457308Y-111934702D01*
X144476817Y-111936623D01*
X144714912Y-111936623D01*
X144734421Y-111934702D01*
X144737741Y-111933326D01*
X144741324Y-111933072D01*
X144759633Y-111926066D01*
X144878681Y-111866543D01*
X144895271Y-111856100D01*
X144920836Y-111826624D01*
X144933174Y-111789608D01*
X144930409Y-111750688D01*
X144912960Y-111715789D01*
X144883483Y-111690224D01*
X144846468Y-111677885D01*
X144807548Y-111680651D01*
X144789239Y-111687657D01*
X144691305Y-111736623D01*
X144500424Y-111736623D01*
X144417004Y-111694913D01*
X144380432Y-111658341D01*
X144338722Y-111574921D01*
X144338722Y-111264993D01*
X144380432Y-111181572D01*
X144417004Y-111144999D01*
X144500425Y-111103290D01*
X144691305Y-111103290D01*
X144789239Y-111152257D01*
X144807547Y-111159263D01*
X144846467Y-111162029D01*
X144883483Y-111149690D01*
X144912960Y-111124126D01*
X144930409Y-111089227D01*
X144933175Y-111050307D01*
X144920836Y-111013291D01*
X144895272Y-110983814D01*
X144878682Y-110973371D01*
X144759633Y-110913847D01*
X144741325Y-110906841D01*
X144737741Y-110906586D01*
X144734421Y-110905211D01*
X144714912Y-110903290D01*
X144476817Y-110903290D01*
X144457308Y-110905211D01*
X144453987Y-110906586D01*
X144450404Y-110906841D01*
X144432096Y-110913847D01*
X144313048Y-110973371D01*
X144304651Y-110978656D01*
X144302211Y-110979667D01*
X144299465Y-110981920D01*
X144296457Y-110983814D01*
X144294724Y-110985811D01*
X144287058Y-110992104D01*
X144227535Y-111051628D01*
X144221242Y-111059294D01*
X144219246Y-111061026D01*
X144217353Y-111064033D01*
X144215098Y-111066781D01*
X144214086Y-111069223D01*
X144208804Y-111077616D01*
X144149279Y-111196663D01*
X144142273Y-111214972D01*
X144142018Y-111218555D01*
X144140643Y-111221876D01*
X144138722Y-111241385D01*
X143862531Y-111241385D01*
X143862531Y-111181861D01*
X143860610Y-111162352D01*
X143859234Y-111159031D01*
X143858980Y-111155448D01*
X143851974Y-111137140D01*
X143792450Y-111018092D01*
X143790395Y-111014827D01*
X143789883Y-111013291D01*
X143788223Y-111011376D01*
X143782007Y-111001502D01*
X143772534Y-110993286D01*
X143764319Y-110983814D01*
X143754444Y-110977597D01*
X143752530Y-110975938D01*
X143750993Y-110975425D01*
X143747729Y-110973371D01*
X143628680Y-110913847D01*
X143610372Y-110906841D01*
X143606788Y-110906586D01*
X143603468Y-110905211D01*
X143583959Y-110903290D01*
X143345864Y-110903290D01*
X143326355Y-110905211D01*
X143323034Y-110906586D01*
X143319451Y-110906841D01*
X143301143Y-110913847D01*
X143182095Y-110973371D01*
X143178830Y-110975425D01*
X143177294Y-110975938D01*
X143175379Y-110977597D01*
X143165505Y-110983814D01*
X143157289Y-110993286D01*
X143147817Y-111001502D01*
X143141603Y-111011374D01*
X143139941Y-111013291D01*
X143139427Y-111014830D01*
X143137375Y-111018092D01*
X143077850Y-111137139D01*
X143070844Y-111155448D01*
X143070589Y-111159031D01*
X143069214Y-111162352D01*
X143067293Y-111181861D01*
X142553007Y-111181861D01*
X142553007Y-110686623D01*
X142810150Y-110686623D01*
X142829659Y-110684702D01*
X142865707Y-110669770D01*
X142893297Y-110642180D01*
X142908229Y-110606132D01*
X142908229Y-110586623D01*
X145269675Y-110586623D01*
X145269675Y-111836623D01*
X145271596Y-111856132D01*
X145286528Y-111892180D01*
X145314118Y-111919770D01*
X145350166Y-111934702D01*
X145389184Y-111934702D01*
X145425232Y-111919770D01*
X145452822Y-111892180D01*
X145467754Y-111856132D01*
X145469675Y-111836623D01*
X145469675Y-111163758D01*
X145488433Y-111144999D01*
X145571854Y-111103290D01*
X145703210Y-111103290D01*
X145771329Y-111137349D01*
X145805389Y-111205467D01*
X145805389Y-111836623D01*
X145807310Y-111856132D01*
X145822242Y-111892180D01*
X145849832Y-111919770D01*
X145885880Y-111934702D01*
X145924898Y-111934702D01*
X145960946Y-111919770D01*
X145988536Y-111892180D01*
X146003468Y-111856132D01*
X146005389Y-111836623D01*
X146005389Y-111181861D01*
X146003468Y-111162352D01*
X146002092Y-111159031D01*
X146001838Y-111155448D01*
X145994832Y-111137140D01*
X145935308Y-111018092D01*
X145933253Y-111014827D01*
X145932741Y-111013291D01*
X145931081Y-111011376D01*
X145925991Y-111003290D01*
X146400627Y-111003290D01*
X146400627Y-111836623D01*
X146402548Y-111856132D01*
X146417480Y-111892180D01*
X146445070Y-111919770D01*
X146481118Y-111934702D01*
X146520136Y-111934702D01*
X146556184Y-111919770D01*
X146583774Y-111892180D01*
X146598706Y-111856132D01*
X146600627Y-111836623D01*
X146600627Y-111163758D01*
X146619385Y-111144999D01*
X146702806Y-111103290D01*
X146834162Y-111103290D01*
X146902281Y-111137349D01*
X146936341Y-111205467D01*
X146936341Y-111836623D01*
X146938262Y-111856132D01*
X146953194Y-111892180D01*
X146980784Y-111919770D01*
X147016832Y-111934702D01*
X147055850Y-111934702D01*
X147091898Y-111919770D01*
X147119488Y-111892180D01*
X147134420Y-111856132D01*
X147136341Y-111836623D01*
X147136341Y-111241385D01*
X147472055Y-111241385D01*
X147472055Y-111598528D01*
X147473976Y-111618037D01*
X147475351Y-111621357D01*
X147475606Y-111624941D01*
X147482612Y-111643249D01*
X147542136Y-111762298D01*
X147547420Y-111770692D01*
X147548431Y-111773133D01*
X147550685Y-111775879D01*
X147552579Y-111778888D01*
X147554575Y-111780619D01*
X147560868Y-111788286D01*
X147620391Y-111847810D01*
X147628060Y-111854104D01*
X147629791Y-111856100D01*
X147632796Y-111857991D01*
X147635544Y-111860247D01*
X147637985Y-111861258D01*
X147646381Y-111866543D01*
X147765429Y-111926066D01*
X147783738Y-111933072D01*
X147787320Y-111933326D01*
X147790641Y-111934702D01*
X147810150Y-111936623D01*
X147988721Y-111936623D01*
X148008230Y-111934702D01*
X148011550Y-111933326D01*
X148015133Y-111933072D01*
X148033442Y-111926066D01*
X148152490Y-111866543D01*
X148160886Y-111861257D01*
X148163326Y-111860247D01*
X148166072Y-111857993D01*
X148169080Y-111856100D01*
X148170810Y-111854105D01*
X148178480Y-111847811D01*
X148238004Y-111788286D01*
X148244296Y-111780619D01*
X148246293Y-111778888D01*
X148248186Y-111775880D01*
X148250441Y-111773133D01*
X148251452Y-111770691D01*
X148256736Y-111762297D01*
X148316260Y-111643249D01*
X148323266Y-111624941D01*
X148323520Y-111621357D01*
X148324896Y-111618037D01*
X148326817Y-111598528D01*
X148326817Y-111241385D01*
X148324896Y-111221876D01*
X148323520Y-111218555D01*
X148323266Y-111214972D01*
X148316260Y-111196664D01*
X148256736Y-111077616D01*
X148251451Y-111069221D01*
X148250441Y-111066781D01*
X148248186Y-111064034D01*
X148246293Y-111061026D01*
X148244296Y-111059294D01*
X148238004Y-111051628D01*
X148178480Y-110992103D01*
X148170813Y-110985811D01*
X148169081Y-110983814D01*
X148166069Y-110981918D01*
X148163326Y-110979667D01*
X148160889Y-110978657D01*
X148152491Y-110973371D01*
X148033442Y-110913847D01*
X148015134Y-110906841D01*
X148011550Y-110906586D01*
X148008230Y-110905211D01*
X147988721Y-110903290D01*
X147810150Y-110903290D01*
X147790641Y-110905211D01*
X147787320Y-110906586D01*
X147783737Y-110906841D01*
X147765429Y-110913847D01*
X147646381Y-110973371D01*
X147637984Y-110978656D01*
X147635544Y-110979667D01*
X147632798Y-110981920D01*
X147629790Y-110983814D01*
X147628057Y-110985811D01*
X147620391Y-110992104D01*
X147560868Y-111051628D01*
X147554575Y-111059294D01*
X147552579Y-111061026D01*
X147550686Y-111064033D01*
X147548431Y-111066781D01*
X147547419Y-111069223D01*
X147542137Y-111077616D01*
X147482612Y-111196663D01*
X147475606Y-111214972D01*
X147475351Y-111218555D01*
X147473976Y-111221876D01*
X147472055Y-111241385D01*
X147136341Y-111241385D01*
X147136341Y-111181861D01*
X147134420Y-111162352D01*
X147133044Y-111159031D01*
X147132790Y-111155448D01*
X147125784Y-111137140D01*
X147066260Y-111018092D01*
X147064205Y-111014827D01*
X147063693Y-111013291D01*
X147062033Y-111011376D01*
X147055817Y-111001502D01*
X147046344Y-110993286D01*
X147038129Y-110983814D01*
X147028254Y-110977597D01*
X147026340Y-110975938D01*
X147024803Y-110975425D01*
X147021539Y-110973371D01*
X146902490Y-110913847D01*
X146884182Y-110906841D01*
X146880598Y-110906586D01*
X146877278Y-110905211D01*
X146857769Y-110903290D01*
X146679198Y-110903290D01*
X146659689Y-110905211D01*
X146656368Y-110906586D01*
X146652785Y-110906841D01*
X146634477Y-110913847D01*
X146578084Y-110942043D01*
X146556184Y-110920143D01*
X146520136Y-110905211D01*
X146481118Y-110905211D01*
X146445070Y-110920143D01*
X146417480Y-110947733D01*
X146402548Y-110983781D01*
X146400627Y-111003290D01*
X145925991Y-111003290D01*
X145924865Y-111001502D01*
X145915392Y-110993286D01*
X145907177Y-110983814D01*
X145897302Y-110977597D01*
X145895388Y-110975938D01*
X145893851Y-110975425D01*
X145890587Y-110973371D01*
X145771538Y-110913847D01*
X145753230Y-110906841D01*
X145749646Y-110906586D01*
X145746326Y-110905211D01*
X145726817Y-110903290D01*
X145548246Y-110903290D01*
X145528737Y-110905211D01*
X145525416Y-110906586D01*
X145521833Y-110906841D01*
X145503525Y-110913847D01*
X145469675Y-110930772D01*
X145469675Y-110586623D01*
X148662531Y-110586623D01*
X148662531Y-111658052D01*
X148664452Y-111677561D01*
X148665827Y-111680881D01*
X148666082Y-111684464D01*
X148673088Y-111702773D01*
X148732611Y-111821821D01*
X148734664Y-111825082D01*
X148735178Y-111826624D01*
X148736842Y-111828542D01*
X148743054Y-111838411D01*
X148752526Y-111846627D01*
X148760743Y-111856100D01*
X148770611Y-111862311D01*
X148772530Y-111863976D01*
X148774070Y-111864489D01*
X148777333Y-111866543D01*
X148896381Y-111926066D01*
X148914690Y-111933072D01*
X148953610Y-111935838D01*
X148990625Y-111923499D01*
X149020102Y-111897934D01*
X149037551Y-111863035D01*
X149040316Y-111824115D01*
X149027978Y-111787099D01*
X149002413Y-111757623D01*
X148985823Y-111747180D01*
X148896589Y-111702564D01*
X148862531Y-111634445D01*
X148862531Y-111241385D01*
X149257769Y-111241385D01*
X149257769Y-111598528D01*
X149259690Y-111618037D01*
X149261065Y-111621357D01*
X149261320Y-111624941D01*
X149268326Y-111643249D01*
X149327850Y-111762298D01*
X149333134Y-111770692D01*
X149334145Y-111773133D01*
X149336399Y-111775879D01*
X149338293Y-111778888D01*
X149340289Y-111780619D01*
X149346582Y-111788286D01*
X149406105Y-111847810D01*
X149413774Y-111854104D01*
X149415505Y-111856100D01*
X149418510Y-111857991D01*
X149421258Y-111860247D01*
X149423699Y-111861258D01*
X149432095Y-111866543D01*
X149551143Y-111926066D01*
X149569452Y-111933072D01*
X149573034Y-111933326D01*
X149576355Y-111934702D01*
X149595864Y-111936623D01*
X149774435Y-111936623D01*
X149793944Y-111934702D01*
X149797264Y-111933326D01*
X149800847Y-111933072D01*
X149819156Y-111926066D01*
X149938204Y-111866543D01*
X149946600Y-111861257D01*
X149949040Y-111860247D01*
X149951786Y-111857993D01*
X149954794Y-111856100D01*
X149956524Y-111854105D01*
X149964194Y-111847811D01*
X150023718Y-111788286D01*
X150030010Y-111780619D01*
X150032007Y-111778888D01*
X150033900Y-111775880D01*
X150036155Y-111773133D01*
X150037166Y-111770691D01*
X150042450Y-111762297D01*
X150101974Y-111643249D01*
X150108980Y-111624941D01*
X150109234Y-111621357D01*
X150110610Y-111618037D01*
X150112531Y-111598528D01*
X150112531Y-111241385D01*
X150388721Y-111241385D01*
X150388721Y-111598528D01*
X150390642Y-111618037D01*
X150392017Y-111621357D01*
X150392272Y-111624941D01*
X150399278Y-111643249D01*
X150458802Y-111762298D01*
X150464086Y-111770692D01*
X150465097Y-111773133D01*
X150467351Y-111775879D01*
X150469245Y-111778888D01*
X150471241Y-111780619D01*
X150477534Y-111788286D01*
X150537057Y-111847810D01*
X150544726Y-111854104D01*
X150546457Y-111856100D01*
X150549462Y-111857991D01*
X150552210Y-111860247D01*
X150554651Y-111861258D01*
X150563047Y-111866543D01*
X150682095Y-111926066D01*
X150700404Y-111933072D01*
X150703986Y-111933326D01*
X150707307Y-111934702D01*
X150726816Y-111936623D01*
X150964911Y-111936623D01*
X150983959Y-111934747D01*
X150983959Y-111991588D01*
X150942248Y-112075007D01*
X150905674Y-112111580D01*
X150822256Y-112153290D01*
X150690899Y-112153290D01*
X150592967Y-112104323D01*
X150574658Y-112097317D01*
X150535738Y-112094551D01*
X150498722Y-112106890D01*
X150469245Y-112132454D01*
X150451796Y-112167353D01*
X150449030Y-112206273D01*
X150461369Y-112243289D01*
X150486933Y-112272766D01*
X150503523Y-112283209D01*
X150622571Y-112342733D01*
X150640879Y-112349739D01*
X150644462Y-112349993D01*
X150647783Y-112351369D01*
X150667292Y-112353290D01*
X150845864Y-112353290D01*
X150865373Y-112351369D01*
X150868693Y-112349993D01*
X150872277Y-112349739D01*
X150890586Y-112342733D01*
X151009633Y-112283208D01*
X151018029Y-112277923D01*
X151020468Y-112276913D01*
X151023211Y-112274661D01*
X151026223Y-112272766D01*
X151027955Y-112270768D01*
X151035622Y-112264477D01*
X151095146Y-112204952D01*
X151101438Y-112197285D01*
X151103435Y-112195554D01*
X151105328Y-112192545D01*
X151107583Y-112189799D01*
X151108593Y-112187358D01*
X151113878Y-112178964D01*
X151173402Y-112059916D01*
X151180408Y-112041608D01*
X151180662Y-112038024D01*
X151182038Y-112034704D01*
X151183959Y-112015195D01*
X151183959Y-111003290D01*
X151579197Y-111003290D01*
X151579197Y-111836623D01*
X151581118Y-111856132D01*
X151596050Y-111892180D01*
X151623640Y-111919770D01*
X151659688Y-111934702D01*
X151698706Y-111934702D01*
X151734754Y-111919770D01*
X151762344Y-111892180D01*
X151777276Y-111856132D01*
X151779197Y-111836623D01*
X151779197Y-111181861D01*
X152114911Y-111181861D01*
X152114911Y-111658052D01*
X152116832Y-111677561D01*
X152118207Y-111680881D01*
X152118462Y-111684465D01*
X152125468Y-111702773D01*
X152184992Y-111821822D01*
X152187046Y-111825086D01*
X152187559Y-111826623D01*
X152189218Y-111828536D01*
X152195435Y-111838412D01*
X152204910Y-111846629D01*
X152213124Y-111856100D01*
X152222995Y-111862313D01*
X152224912Y-111863976D01*
X152226450Y-111864489D01*
X152229714Y-111866543D01*
X152348761Y-111926066D01*
X152367069Y-111933072D01*
X152370652Y-111933326D01*
X152373973Y-111934702D01*
X152393482Y-111936623D01*
X152631577Y-111936623D01*
X152651086Y-111934702D01*
X152654406Y-111933326D01*
X152657989Y-111933072D01*
X152676298Y-111926066D01*
X152795346Y-111866543D01*
X152811936Y-111856100D01*
X152837501Y-111826624D01*
X152849839Y-111789608D01*
X152847074Y-111750688D01*
X152829625Y-111715789D01*
X152800148Y-111690224D01*
X152763133Y-111677885D01*
X152724213Y-111680651D01*
X152705904Y-111687657D01*
X152607970Y-111736623D01*
X152417089Y-111736623D01*
X152348970Y-111702564D01*
X152314911Y-111634445D01*
X152314911Y-111501937D01*
X152829656Y-111398988D01*
X152829658Y-111398988D01*
X152829659Y-111398987D01*
X152829761Y-111398967D01*
X152848514Y-111393257D01*
X152856654Y-111387805D01*
X152865706Y-111384056D01*
X152872705Y-111377056D01*
X152880934Y-111371546D01*
X152886369Y-111363392D01*
X152893296Y-111356466D01*
X152897084Y-111347319D01*
X152902577Y-111339081D01*
X152904478Y-111329470D01*
X152908228Y-111320418D01*
X152910149Y-111300909D01*
X152910149Y-111181861D01*
X153186340Y-111181861D01*
X153186340Y-111241385D01*
X153188261Y-111260894D01*
X153189636Y-111264214D01*
X153189891Y-111267798D01*
X153196897Y-111286106D01*
X153256421Y-111405155D01*
X153258475Y-111408419D01*
X153258988Y-111409956D01*
X153260647Y-111411870D01*
X153266864Y-111421745D01*
X153276336Y-111429960D01*
X153284552Y-111439433D01*
X153294426Y-111445649D01*
X153296341Y-111447309D01*
X153297877Y-111447821D01*
X153301142Y-111449876D01*
X153420190Y-111509400D01*
X153438498Y-111516406D01*
X153442081Y-111516660D01*
X153445402Y-111518036D01*
X153464911Y-111519957D01*
X153619876Y-111519957D01*
X153687994Y-111554015D01*
X153722054Y-111622135D01*
X153722054Y-111634444D01*
X153687994Y-111702564D01*
X153619876Y-111736623D01*
X153428994Y-111736623D01*
X153331061Y-111687657D01*
X153312753Y-111680651D01*
X153273832Y-111677885D01*
X153236817Y-111690224D01*
X153207340Y-111715789D01*
X153189891Y-111750687D01*
X153187125Y-111789608D01*
X153199464Y-111826623D01*
X153225029Y-111856100D01*
X153241619Y-111866543D01*
X153360666Y-111926066D01*
X153378974Y-111933072D01*
X153382557Y-111933326D01*
X153385878Y-111934702D01*
X153405387Y-111936623D01*
X153643483Y-111936623D01*
X153662992Y-111934702D01*
X153666312Y-111933326D01*
X153669896Y-111933072D01*
X153688204Y-111926066D01*
X153807251Y-111866543D01*
X153810514Y-111864489D01*
X153812053Y-111863976D01*
X153813969Y-111862313D01*
X153823841Y-111856100D01*
X153832055Y-111846628D01*
X153841530Y-111838412D01*
X153847742Y-111828541D01*
X153849406Y-111826624D01*
X153849919Y-111825083D01*
X153851973Y-111821821D01*
X153911497Y-111702773D01*
X153918503Y-111684465D01*
X153918757Y-111680881D01*
X153920133Y-111677561D01*
X153922054Y-111658052D01*
X153922054Y-111598528D01*
X153920133Y-111579019D01*
X153918757Y-111575698D01*
X153918503Y-111572115D01*
X153911497Y-111553807D01*
X153851973Y-111434759D01*
X153849919Y-111431496D01*
X153849406Y-111429956D01*
X153847742Y-111428038D01*
X153841530Y-111418168D01*
X153832055Y-111409951D01*
X153823841Y-111400480D01*
X153813969Y-111394266D01*
X153812053Y-111392604D01*
X153810514Y-111392090D01*
X153807251Y-111390037D01*
X153688204Y-111330514D01*
X153669896Y-111323508D01*
X153666312Y-111323253D01*
X153662992Y-111321878D01*
X153643483Y-111319957D01*
X153488518Y-111319957D01*
X153420399Y-111285897D01*
X153386340Y-111217778D01*
X153386340Y-111205469D01*
X153420399Y-111137349D01*
X153488518Y-111103290D01*
X153619875Y-111103290D01*
X153717809Y-111152257D01*
X153736117Y-111159263D01*
X153775037Y-111162029D01*
X153812053Y-111149690D01*
X153841530Y-111124126D01*
X153858979Y-111089227D01*
X153861745Y-111050307D01*
X153849406Y-111013291D01*
X153823842Y-110983814D01*
X153807252Y-110973372D01*
X153688205Y-110913847D01*
X153669896Y-110906841D01*
X153666312Y-110906586D01*
X153662992Y-110905211D01*
X153643483Y-110903290D01*
X153464911Y-110903290D01*
X153445402Y-110905211D01*
X153442081Y-110906586D01*
X153438498Y-110906841D01*
X153420190Y-110913847D01*
X153301142Y-110973371D01*
X153297877Y-110975425D01*
X153296341Y-110975938D01*
X153294426Y-110977597D01*
X153284552Y-110983814D01*
X153276336Y-110993286D01*
X153266864Y-111001502D01*
X153260650Y-111011374D01*
X153258988Y-111013291D01*
X153258474Y-111014830D01*
X153256422Y-111018092D01*
X153196897Y-111137139D01*
X153189891Y-111155448D01*
X153189636Y-111159031D01*
X153188261Y-111162352D01*
X153186340Y-111181861D01*
X152910149Y-111181861D01*
X152908228Y-111162352D01*
X152906852Y-111159031D01*
X152906598Y-111155448D01*
X152899592Y-111137140D01*
X152840068Y-111018092D01*
X152838013Y-111014827D01*
X152837501Y-111013291D01*
X152835841Y-111011376D01*
X152829625Y-111001502D01*
X152820152Y-110993286D01*
X152811937Y-110983814D01*
X152802062Y-110977597D01*
X152800148Y-110975938D01*
X152798611Y-110975425D01*
X152795347Y-110973371D01*
X152676298Y-110913847D01*
X152657990Y-110906841D01*
X152654406Y-110906586D01*
X152651086Y-110905211D01*
X152631577Y-110903290D01*
X152393482Y-110903290D01*
X152373973Y-110905211D01*
X152370652Y-110906586D01*
X152367069Y-110906841D01*
X152348761Y-110913847D01*
X152229713Y-110973371D01*
X152226448Y-110975425D01*
X152224912Y-110975938D01*
X152222997Y-110977597D01*
X152213123Y-110983814D01*
X152204907Y-110993286D01*
X152195435Y-111001502D01*
X152189221Y-111011374D01*
X152187559Y-111013291D01*
X152187045Y-111014830D01*
X152184993Y-111018092D01*
X152125468Y-111137139D01*
X152118462Y-111155448D01*
X152118207Y-111159031D01*
X152116832Y-111162352D01*
X152114911Y-111181861D01*
X151779197Y-111181861D01*
X151779197Y-111003290D01*
X151777276Y-110983781D01*
X151762344Y-110947733D01*
X151734754Y-110920143D01*
X151698706Y-110905211D01*
X151659688Y-110905211D01*
X151623640Y-110920143D01*
X151596050Y-110947733D01*
X151581118Y-110983781D01*
X151579197Y-111003290D01*
X151183959Y-111003290D01*
X151182038Y-110983781D01*
X151167106Y-110947733D01*
X151139516Y-110920143D01*
X151103468Y-110905211D01*
X151064450Y-110905211D01*
X151028402Y-110920143D01*
X151026342Y-110922202D01*
X151009632Y-110913847D01*
X150991324Y-110906841D01*
X150987740Y-110906586D01*
X150984420Y-110905211D01*
X150964911Y-110903290D01*
X150726816Y-110903290D01*
X150707307Y-110905211D01*
X150703986Y-110906586D01*
X150700403Y-110906841D01*
X150682095Y-110913847D01*
X150563047Y-110973371D01*
X150554650Y-110978656D01*
X150552210Y-110979667D01*
X150549464Y-110981920D01*
X150546456Y-110983814D01*
X150544723Y-110985811D01*
X150537057Y-110992104D01*
X150477534Y-111051628D01*
X150471241Y-111059294D01*
X150469245Y-111061026D01*
X150467352Y-111064033D01*
X150465097Y-111066781D01*
X150464085Y-111069223D01*
X150458803Y-111077616D01*
X150399278Y-111196663D01*
X150392272Y-111214972D01*
X150392017Y-111218555D01*
X150390642Y-111221876D01*
X150388721Y-111241385D01*
X150112531Y-111241385D01*
X150110610Y-111221876D01*
X150109234Y-111218555D01*
X150108980Y-111214972D01*
X150101974Y-111196664D01*
X150042450Y-111077616D01*
X150037165Y-111069221D01*
X150036155Y-111066781D01*
X150033900Y-111064034D01*
X150032007Y-111061026D01*
X150030010Y-111059294D01*
X150023718Y-111051628D01*
X149964194Y-110992103D01*
X149956527Y-110985811D01*
X149954795Y-110983814D01*
X149951783Y-110981918D01*
X149949040Y-110979667D01*
X149946603Y-110978657D01*
X149938205Y-110973371D01*
X149819156Y-110913847D01*
X149800848Y-110906841D01*
X149797264Y-110906586D01*
X149793944Y-110905211D01*
X149774435Y-110903290D01*
X149595864Y-110903290D01*
X149576355Y-110905211D01*
X149573034Y-110906586D01*
X149569451Y-110906841D01*
X149551143Y-110913847D01*
X149432095Y-110973371D01*
X149423698Y-110978656D01*
X149421258Y-110979667D01*
X149418512Y-110981920D01*
X149415504Y-110983814D01*
X149413771Y-110985811D01*
X149406105Y-110992104D01*
X149346582Y-111051628D01*
X149340289Y-111059294D01*
X149338293Y-111061026D01*
X149336400Y-111064033D01*
X149334145Y-111066781D01*
X149333133Y-111069223D01*
X149327851Y-111077616D01*
X149268326Y-111196663D01*
X149261320Y-111214972D01*
X149261065Y-111218555D01*
X149259690Y-111221876D01*
X149257769Y-111241385D01*
X148862531Y-111241385D01*
X148862531Y-110626638D01*
X151521594Y-110626638D01*
X151521594Y-110665656D01*
X151536526Y-110701704D01*
X151548962Y-110716858D01*
X151608487Y-110776382D01*
X151623640Y-110788819D01*
X151659688Y-110803750D01*
X151659689Y-110803750D01*
X151698706Y-110803750D01*
X151734755Y-110788819D01*
X151734760Y-110788813D01*
X151749908Y-110776381D01*
X151809431Y-110716857D01*
X151821868Y-110701704D01*
X151836799Y-110665655D01*
X151836798Y-110646147D01*
X151836799Y-110626639D01*
X151821868Y-110590590D01*
X151818612Y-110586623D01*
X155210150Y-110586623D01*
X155210150Y-111836623D01*
X155212071Y-111856132D01*
X155227003Y-111892180D01*
X155254593Y-111919770D01*
X155290641Y-111934702D01*
X155310150Y-111936623D01*
X155905388Y-111936623D01*
X155924897Y-111934702D01*
X155960945Y-111919770D01*
X155988535Y-111892180D01*
X156003467Y-111856132D01*
X156003467Y-111817114D01*
X155988535Y-111781066D01*
X155960945Y-111753476D01*
X155924897Y-111738544D01*
X155905388Y-111736623D01*
X155410150Y-111736623D01*
X155410150Y-110586623D01*
X156222055Y-110586623D01*
X156222055Y-111836623D01*
X156223976Y-111856132D01*
X156238908Y-111892180D01*
X156266498Y-111919770D01*
X156302546Y-111934702D01*
X156322055Y-111936623D01*
X156917293Y-111936623D01*
X156936802Y-111934702D01*
X156972850Y-111919770D01*
X157000440Y-111892180D01*
X157015372Y-111856132D01*
X157015372Y-111817114D01*
X157000440Y-111781066D01*
X156972850Y-111753476D01*
X156936802Y-111738544D01*
X156917293Y-111736623D01*
X156422055Y-111736623D01*
X156422055Y-111122338D01*
X157174436Y-111122338D01*
X157174436Y-111300909D01*
X157174771Y-111304311D01*
X157174554Y-111305770D01*
X157175633Y-111313067D01*
X157176357Y-111320418D01*
X157176921Y-111321781D01*
X157177422Y-111325163D01*
X157236946Y-111563258D01*
X157237459Y-111564696D01*
X157237511Y-111565416D01*
X157240614Y-111573526D01*
X157243541Y-111581718D01*
X157243971Y-111582298D01*
X157244517Y-111583725D01*
X157304040Y-111702773D01*
X157309325Y-111711169D01*
X157310336Y-111713609D01*
X157312589Y-111716355D01*
X157314483Y-111719363D01*
X157316477Y-111721093D01*
X157322772Y-111728763D01*
X157441820Y-111847810D01*
X157456973Y-111860247D01*
X157460292Y-111861621D01*
X157463008Y-111863977D01*
X157480909Y-111871968D01*
X157659479Y-111931491D01*
X157669150Y-111933690D01*
X157671593Y-111934702D01*
X157675131Y-111935050D01*
X157678595Y-111935838D01*
X157681228Y-111935650D01*
X157691102Y-111936623D01*
X157810150Y-111936623D01*
X157820023Y-111935650D01*
X157822657Y-111935838D01*
X157826119Y-111935050D01*
X157829659Y-111934702D01*
X157832101Y-111933690D01*
X157841772Y-111931491D01*
X158020343Y-111871968D01*
X158038244Y-111863977D01*
X158040959Y-111861621D01*
X158044278Y-111860247D01*
X158059432Y-111847811D01*
X158118956Y-111788286D01*
X158131393Y-111773133D01*
X158146324Y-111737085D01*
X158146324Y-111698067D01*
X158131393Y-111662018D01*
X158103803Y-111634428D01*
X158067754Y-111619497D01*
X158028736Y-111619497D01*
X157992688Y-111634428D01*
X157977535Y-111646865D01*
X157934701Y-111689697D01*
X157793924Y-111736623D01*
X157707328Y-111736623D01*
X157566549Y-111689697D01*
X157475668Y-111598815D01*
X157428311Y-111504099D01*
X157374436Y-111288599D01*
X157374436Y-111134647D01*
X157428311Y-110919146D01*
X157475668Y-110824431D01*
X157566549Y-110733549D01*
X157707328Y-110686623D01*
X157793923Y-110686623D01*
X157934701Y-110733549D01*
X157977535Y-110776382D01*
X157992688Y-110788819D01*
X158028736Y-110803750D01*
X158067754Y-110803750D01*
X158103803Y-110788819D01*
X158131393Y-110761229D01*
X158146324Y-110725180D01*
X158146324Y-110686162D01*
X158131393Y-110650114D01*
X158118956Y-110634961D01*
X158059432Y-110575436D01*
X158044278Y-110563000D01*
X158040959Y-110561625D01*
X158038244Y-110559270D01*
X158020343Y-110551279D01*
X157841773Y-110491755D01*
X157832100Y-110489555D01*
X157829659Y-110488544D01*
X157826121Y-110488195D01*
X157822658Y-110487408D01*
X157820023Y-110487595D01*
X157810150Y-110486623D01*
X157691102Y-110486623D01*
X157681228Y-110487595D01*
X157678594Y-110487408D01*
X157675130Y-110488195D01*
X157671593Y-110488544D01*
X157669151Y-110489555D01*
X157659479Y-110491755D01*
X157480908Y-110551279D01*
X157463008Y-110559270D01*
X157460292Y-110561624D01*
X157456973Y-110563000D01*
X157441820Y-110575437D01*
X157322772Y-110694484D01*
X157316477Y-110702153D01*
X157314483Y-110703884D01*
X157312589Y-110706891D01*
X157310336Y-110709638D01*
X157309325Y-110712077D01*
X157304040Y-110720474D01*
X157244517Y-110839521D01*
X157243971Y-110840947D01*
X157243541Y-110841528D01*
X157240617Y-110849710D01*
X157237511Y-110857829D01*
X157237459Y-110858549D01*
X157236946Y-110859988D01*
X157177422Y-111098084D01*
X157176921Y-111101465D01*
X157176357Y-111102829D01*
X157175633Y-111110179D01*
X157174554Y-111117477D01*
X157174771Y-111118935D01*
X157174436Y-111122338D01*
X156422055Y-111122338D01*
X156422055Y-110586623D01*
X156420134Y-110567114D01*
X156405202Y-110531066D01*
X156377612Y-110503476D01*
X156341564Y-110488544D01*
X156302546Y-110488544D01*
X156266498Y-110503476D01*
X156238908Y-110531066D01*
X156223976Y-110567114D01*
X156222055Y-110586623D01*
X155410150Y-110586623D01*
X155408229Y-110567114D01*
X155393297Y-110531066D01*
X155365707Y-110503476D01*
X155329659Y-110488544D01*
X155290641Y-110488544D01*
X155254593Y-110503476D01*
X155227003Y-110531066D01*
X155212071Y-110567114D01*
X155210150Y-110586623D01*
X151818612Y-110586623D01*
X151809431Y-110575437D01*
X151749908Y-110515913D01*
X151734760Y-110503480D01*
X151734755Y-110503475D01*
X151698706Y-110488544D01*
X151659688Y-110488544D01*
X151623640Y-110503475D01*
X151608487Y-110515912D01*
X151548962Y-110575436D01*
X151536527Y-110590589D01*
X151536526Y-110590590D01*
X151521594Y-110626638D01*
X148862531Y-110626638D01*
X148862531Y-110586623D01*
X148860610Y-110567114D01*
X148845678Y-110531066D01*
X148818088Y-110503476D01*
X148782040Y-110488544D01*
X148743022Y-110488544D01*
X148706974Y-110503476D01*
X148679384Y-110531066D01*
X148664452Y-110567114D01*
X148662531Y-110586623D01*
X145469675Y-110586623D01*
X145467754Y-110567114D01*
X145452822Y-110531066D01*
X145425232Y-110503476D01*
X145389184Y-110488544D01*
X145350166Y-110488544D01*
X145314118Y-110503476D01*
X145286528Y-110531066D01*
X145271596Y-110567114D01*
X145269675Y-110586623D01*
X142908229Y-110586623D01*
X142908229Y-110567114D01*
X142893297Y-110531066D01*
X142865707Y-110503476D01*
X142829659Y-110488544D01*
X142810150Y-110486623D01*
X142095864Y-110486623D01*
X142076355Y-110488544D01*
X142040307Y-110503476D01*
X142012717Y-110531066D01*
X141997785Y-110567114D01*
X140824895Y-110567114D01*
X140809963Y-110531066D01*
X140782373Y-110503476D01*
X140746325Y-110488544D01*
X140707307Y-110488544D01*
X140671259Y-110503476D01*
X140643669Y-110531066D01*
X140628737Y-110567114D01*
X140626816Y-110586623D01*
X140626816Y-111081861D01*
X140112531Y-111081861D01*
X140112531Y-110586623D01*
X140110610Y-110567114D01*
X140095678Y-110531066D01*
X140068088Y-110503476D01*
X140032040Y-110488544D01*
X139993022Y-110488544D01*
X139956974Y-110503476D01*
X139929384Y-110531066D01*
X139914452Y-110567114D01*
X139912531Y-110586623D01*
X139499190Y-110586623D01*
X139488003Y-110575436D01*
X139472849Y-110563000D01*
X139469530Y-110561625D01*
X139466815Y-110559270D01*
X139448914Y-110551279D01*
X139270344Y-110491755D01*
X139260671Y-110489555D01*
X139258230Y-110488544D01*
X139254692Y-110488195D01*
X139251229Y-110487408D01*
X139248594Y-110487595D01*
X139238721Y-110486623D01*
X139119673Y-110486623D01*
X139109799Y-110487595D01*
X139107165Y-110487408D01*
X139103701Y-110488195D01*
X139100164Y-110488544D01*
X139097722Y-110489555D01*
X139088050Y-110491755D01*
X138909479Y-110551279D01*
X138891579Y-110559270D01*
X138888863Y-110561624D01*
X138885544Y-110563000D01*
X138870391Y-110575437D01*
X138751343Y-110694484D01*
X138745048Y-110702153D01*
X138743054Y-110703884D01*
X138741160Y-110706891D01*
X138738907Y-110709638D01*
X138737896Y-110712077D01*
X138732611Y-110720474D01*
X138673088Y-110839521D01*
X138672542Y-110840947D01*
X138672112Y-110841528D01*
X138669188Y-110849710D01*
X138666082Y-110857829D01*
X138666030Y-110858549D01*
X138665517Y-110859988D01*
X138605993Y-111098084D01*
X138605492Y-111101465D01*
X138604928Y-111102829D01*
X138604204Y-111110179D01*
X138603125Y-111117477D01*
X138603342Y-111118935D01*
X138603007Y-111122338D01*
X138088721Y-111122338D01*
X138088721Y-110686623D01*
X138345864Y-110686623D01*
X138365373Y-110684702D01*
X138401421Y-110669770D01*
X138429011Y-110642180D01*
X138443943Y-110606132D01*
X138443943Y-110567114D01*
X138429011Y-110531066D01*
X138401421Y-110503476D01*
X138365373Y-110488544D01*
X138345864Y-110486623D01*
X137631578Y-110486623D01*
X137612069Y-110488544D01*
X137576021Y-110503476D01*
X137548431Y-110531066D01*
X137533499Y-110567114D01*
X137075722Y-110567114D01*
X137071684Y-110555000D01*
X137063693Y-110537100D01*
X137059009Y-110531700D01*
X137055815Y-110525311D01*
X137046343Y-110517095D01*
X137038128Y-110507624D01*
X137031738Y-110504429D01*
X137026339Y-110499746D01*
X137014440Y-110495780D01*
X137003229Y-110490174D01*
X136996102Y-110489667D01*
X136989324Y-110487408D01*
X136976816Y-110488296D01*
X136964309Y-110487408D01*
X136957530Y-110489667D01*
X136950403Y-110490174D01*
X136939189Y-110495780D01*
X136927293Y-110499746D01*
X136921894Y-110504428D01*
X136915505Y-110507623D01*
X136907289Y-110517095D01*
X136897817Y-110525311D01*
X136894622Y-110531700D01*
X136889939Y-110537100D01*
X136881948Y-110555000D01*
X136465281Y-111805000D01*
X136460934Y-111824116D01*
X136223028Y-111824116D01*
X136202718Y-111813961D01*
X136165856Y-111777099D01*
X136214193Y-111728762D01*
X136226630Y-111713609D01*
X136229475Y-111706738D01*
X136233901Y-111700766D01*
X136240496Y-111682306D01*
X136300020Y-111444210D01*
X136300519Y-111440830D01*
X136301085Y-111439466D01*
X136301808Y-111432114D01*
X136302888Y-111424818D01*
X136302670Y-111423359D01*
X136303006Y-111419957D01*
X136303006Y-111003290D01*
X136302670Y-110999887D01*
X136302888Y-110998429D01*
X136301808Y-110991132D01*
X136301085Y-110983781D01*
X136300519Y-110982416D01*
X136300020Y-110979037D01*
X136240496Y-110740941D01*
X136233901Y-110722481D01*
X136229475Y-110716508D01*
X136226630Y-110709638D01*
X136214193Y-110694485D01*
X136095146Y-110575437D01*
X136087479Y-110569144D01*
X136085747Y-110567147D01*
X136082737Y-110565252D01*
X136079993Y-110563000D01*
X136077554Y-110561989D01*
X136069157Y-110556704D01*
X135950108Y-110497180D01*
X135931800Y-110490174D01*
X135928216Y-110489919D01*
X135924896Y-110488544D01*
X135905387Y-110486623D01*
X135667292Y-110486623D01*
X135647783Y-110488544D01*
X135644462Y-110489919D01*
X135640879Y-110490174D01*
X135622571Y-110497180D01*
X135503523Y-110556704D01*
X135495124Y-110561990D01*
X135492687Y-110563000D01*
X135489943Y-110565251D01*
X135486932Y-110567147D01*
X135485199Y-110569144D01*
X135477533Y-110575436D01*
X135358486Y-110694485D01*
X135346049Y-110709638D01*
X135343203Y-110716508D01*
X135338778Y-110722481D01*
X135332183Y-110740941D01*
X135272659Y-110979036D01*
X135272158Y-110982417D01*
X135271594Y-110983781D01*
X135270870Y-110991131D01*
X135269791Y-110998429D01*
X135270008Y-110999887D01*
X135269673Y-111003290D01*
X135130784Y-111003290D01*
X135130784Y-108574193D01*
X135329197Y-108574193D01*
X135329197Y-109824193D01*
X135331118Y-109843702D01*
X135346050Y-109879750D01*
X135373640Y-109907340D01*
X135409688Y-109922272D01*
X135429197Y-109924193D01*
X136024435Y-109924193D01*
X136043944Y-109922272D01*
X136079992Y-109907340D01*
X136107582Y-109879750D01*
X136122514Y-109843702D01*
X136122514Y-109804684D01*
X136107582Y-109768636D01*
X136079992Y-109741046D01*
X136043944Y-109726114D01*
X136024435Y-109724193D01*
X135529197Y-109724193D01*
X135529197Y-109228955D01*
X136281578Y-109228955D01*
X136281578Y-109586098D01*
X136283499Y-109605607D01*
X136284874Y-109608927D01*
X136285129Y-109612511D01*
X136292135Y-109630819D01*
X136351659Y-109749868D01*
X136356943Y-109758262D01*
X136357954Y-109760703D01*
X136360208Y-109763449D01*
X136362102Y-109766458D01*
X136364098Y-109768189D01*
X136370391Y-109775856D01*
X136429914Y-109835380D01*
X136437583Y-109841674D01*
X136439314Y-109843670D01*
X136442319Y-109845561D01*
X136445067Y-109847817D01*
X136447508Y-109848828D01*
X136455904Y-109854113D01*
X136574952Y-109913636D01*
X136593261Y-109920642D01*
X136596843Y-109920896D01*
X136600164Y-109922272D01*
X136619673Y-109924193D01*
X136798244Y-109924193D01*
X136817753Y-109922272D01*
X136821073Y-109920896D01*
X136824656Y-109920642D01*
X136842965Y-109913636D01*
X136962013Y-109854113D01*
X136970409Y-109848827D01*
X136972849Y-109847817D01*
X136975595Y-109845563D01*
X136978603Y-109843670D01*
X136980333Y-109841675D01*
X136988003Y-109835381D01*
X137047527Y-109775856D01*
X137053819Y-109768189D01*
X137055816Y-109766458D01*
X137057709Y-109763450D01*
X137059964Y-109760703D01*
X137060975Y-109758261D01*
X137066259Y-109749867D01*
X137125783Y-109630819D01*
X137132789Y-109612511D01*
X137133043Y-109608927D01*
X137134419Y-109605607D01*
X137136340Y-109586098D01*
X137136340Y-109228955D01*
X137134419Y-109209446D01*
X137133043Y-109206125D01*
X137132789Y-109202542D01*
X137125783Y-109184234D01*
X137066259Y-109065186D01*
X137060974Y-109056791D01*
X137059964Y-109054351D01*
X137057709Y-109051604D01*
X137055816Y-109048596D01*
X137053819Y-109046864D01*
X137047527Y-109039198D01*
X137007376Y-108999046D01*
X137353341Y-108999046D01*
X137356854Y-109018332D01*
X137594949Y-109851665D01*
X137602155Y-109869895D01*
X137606124Y-109874894D01*
X137608638Y-109880760D01*
X137618153Y-109890046D01*
X137626416Y-109900454D01*
X137631991Y-109903551D01*
X137636562Y-109908012D01*
X137648913Y-109912952D01*
X137660524Y-109919403D01*
X137666858Y-109920130D01*
X137672789Y-109922503D01*
X137686088Y-109922340D01*
X137699287Y-109923857D01*
X137705422Y-109922104D01*
X137711804Y-109922026D01*
X137724021Y-109916790D01*
X137736804Y-109913138D01*
X137741802Y-109909169D01*
X137747668Y-109906656D01*
X137756952Y-109897142D01*
X137767363Y-109888878D01*
X137770461Y-109883300D01*
X137774920Y-109878732D01*
X137783949Y-109861332D01*
X137929196Y-109498213D01*
X138074444Y-109861332D01*
X138083473Y-109878732D01*
X138087931Y-109883300D01*
X138091030Y-109888878D01*
X138101442Y-109897144D01*
X138110725Y-109906656D01*
X138116587Y-109909168D01*
X138121589Y-109913139D01*
X138134378Y-109916793D01*
X138146589Y-109922026D01*
X138152966Y-109922103D01*
X138159106Y-109923858D01*
X138172317Y-109922339D01*
X138185604Y-109922502D01*
X138191527Y-109920132D01*
X138197869Y-109919404D01*
X138209492Y-109912946D01*
X138221831Y-109908011D01*
X138226396Y-109903555D01*
X138231977Y-109900455D01*
X138240246Y-109890038D01*
X138249755Y-109880759D01*
X138252266Y-109874897D01*
X138256238Y-109869896D01*
X138263444Y-109851665D01*
X138458368Y-109169431D01*
X138722054Y-109169431D01*
X138722054Y-109645622D01*
X138723975Y-109665131D01*
X138725350Y-109668451D01*
X138725605Y-109672035D01*
X138732611Y-109690343D01*
X138792135Y-109809392D01*
X138794189Y-109812656D01*
X138794702Y-109814193D01*
X138796361Y-109816106D01*
X138802578Y-109825982D01*
X138812053Y-109834199D01*
X138820267Y-109843670D01*
X138830138Y-109849883D01*
X138832055Y-109851546D01*
X138833593Y-109852059D01*
X138836857Y-109854113D01*
X138955904Y-109913636D01*
X138974212Y-109920642D01*
X138977795Y-109920896D01*
X138981116Y-109922272D01*
X139000625Y-109924193D01*
X139238720Y-109924193D01*
X139258229Y-109922272D01*
X139261549Y-109920896D01*
X139265132Y-109920642D01*
X139283441Y-109913636D01*
X139402489Y-109854113D01*
X139419079Y-109843670D01*
X139444644Y-109814194D01*
X139456982Y-109777178D01*
X139454217Y-109738258D01*
X139436768Y-109703359D01*
X139407291Y-109677794D01*
X139370276Y-109665455D01*
X139331356Y-109668221D01*
X139313047Y-109675227D01*
X139215113Y-109724193D01*
X139024232Y-109724193D01*
X138956113Y-109690134D01*
X138922054Y-109622015D01*
X138922054Y-109489507D01*
X139436799Y-109386558D01*
X139436801Y-109386558D01*
X139436802Y-109386557D01*
X139436904Y-109386537D01*
X139455657Y-109380827D01*
X139463797Y-109375375D01*
X139472849Y-109371626D01*
X139479848Y-109364626D01*
X139488077Y-109359116D01*
X139493512Y-109350962D01*
X139500439Y-109344036D01*
X139504227Y-109334889D01*
X139509720Y-109326651D01*
X139511621Y-109317040D01*
X139515371Y-109307988D01*
X139517292Y-109288479D01*
X139517292Y-109169431D01*
X139515371Y-109149922D01*
X139513995Y-109146601D01*
X139513741Y-109143018D01*
X139506735Y-109124710D01*
X139447211Y-109005662D01*
X139445156Y-109002397D01*
X139444644Y-109000861D01*
X139442984Y-108998946D01*
X139437894Y-108990860D01*
X139853007Y-108990860D01*
X139853007Y-109824193D01*
X139854928Y-109843702D01*
X139869860Y-109879750D01*
X139897450Y-109907340D01*
X139933498Y-109922272D01*
X139972516Y-109922272D01*
X140008564Y-109907340D01*
X140036154Y-109879750D01*
X140051086Y-109843702D01*
X140053007Y-109824193D01*
X140053007Y-109252561D01*
X140094715Y-109169144D01*
X140131289Y-109132569D01*
X140214710Y-109090860D01*
X140310149Y-109090860D01*
X140329658Y-109088939D01*
X140365706Y-109074007D01*
X140393296Y-109046417D01*
X140408228Y-109010369D01*
X140408228Y-108971351D01*
X140393296Y-108935303D01*
X140365706Y-108907713D01*
X140329658Y-108892781D01*
X140310149Y-108890860D01*
X140191102Y-108890860D01*
X140171593Y-108892781D01*
X140168272Y-108894156D01*
X140164689Y-108894411D01*
X140146381Y-108901417D01*
X140043438Y-108952888D01*
X140036154Y-108935303D01*
X140008564Y-108907713D01*
X139972516Y-108892781D01*
X139933498Y-108892781D01*
X139897450Y-108907713D01*
X139869860Y-108935303D01*
X139854928Y-108971351D01*
X139853007Y-108990860D01*
X139437894Y-108990860D01*
X139436768Y-108989072D01*
X139427295Y-108980856D01*
X139419080Y-108971384D01*
X139409205Y-108965167D01*
X139407291Y-108963508D01*
X139405754Y-108962995D01*
X139402490Y-108960941D01*
X139283441Y-108901417D01*
X139265133Y-108894411D01*
X139261549Y-108894156D01*
X139258229Y-108892781D01*
X139238720Y-108890860D01*
X139000625Y-108890860D01*
X138981116Y-108892781D01*
X138977795Y-108894156D01*
X138974212Y-108894411D01*
X138955904Y-108901417D01*
X138836856Y-108960941D01*
X138833591Y-108962995D01*
X138832055Y-108963508D01*
X138830140Y-108965167D01*
X138820266Y-108971384D01*
X138812050Y-108980856D01*
X138802578Y-108989072D01*
X138796364Y-108998944D01*
X138794702Y-109000861D01*
X138794188Y-109002400D01*
X138792136Y-109005662D01*
X138732611Y-109124709D01*
X138725605Y-109143018D01*
X138725350Y-109146601D01*
X138723975Y-109149922D01*
X138722054Y-109169431D01*
X138458368Y-109169431D01*
X138501539Y-109018332D01*
X138505052Y-108999046D01*
X138500597Y-108960283D01*
X138481649Y-108926175D01*
X138451090Y-108901915D01*
X138413573Y-108891196D01*
X138374810Y-108895650D01*
X138340702Y-108914599D01*
X138316441Y-108945158D01*
X138309235Y-108963388D01*
X138151500Y-109515457D01*
X138022044Y-109191816D01*
X138013015Y-109174416D01*
X138012146Y-109173526D01*
X138011659Y-109172388D01*
X137998553Y-109159597D01*
X137985763Y-109146492D01*
X137984624Y-109146004D01*
X137983735Y-109145136D01*
X137966686Y-109138316D01*
X137949899Y-109131122D01*
X137948662Y-109131106D01*
X137947508Y-109130645D01*
X137929176Y-109130868D01*
X137910884Y-109130645D01*
X137909731Y-109131105D01*
X137908493Y-109131121D01*
X137891670Y-109138330D01*
X137874657Y-109145136D01*
X137873769Y-109146002D01*
X137872629Y-109146491D01*
X137859827Y-109159608D01*
X137846733Y-109172388D01*
X137846245Y-109173526D01*
X137845377Y-109174416D01*
X137836348Y-109191816D01*
X137706891Y-109515456D01*
X137549158Y-108963388D01*
X137541952Y-108945157D01*
X137517691Y-108914598D01*
X137483583Y-108895649D01*
X137444820Y-108891195D01*
X137407303Y-108901914D01*
X137376744Y-108926175D01*
X137357795Y-108960283D01*
X137353341Y-108999046D01*
X137007376Y-108999046D01*
X136988003Y-108979673D01*
X136980336Y-108973381D01*
X136978604Y-108971384D01*
X136975592Y-108969488D01*
X136972849Y-108967237D01*
X136970412Y-108966227D01*
X136962014Y-108960941D01*
X136842965Y-108901417D01*
X136824657Y-108894411D01*
X136821073Y-108894156D01*
X136817753Y-108892781D01*
X136798244Y-108890860D01*
X136619673Y-108890860D01*
X136600164Y-108892781D01*
X136596843Y-108894156D01*
X136593260Y-108894411D01*
X136574952Y-108901417D01*
X136455904Y-108960941D01*
X136447507Y-108966226D01*
X136445067Y-108967237D01*
X136442321Y-108969490D01*
X136439313Y-108971384D01*
X136437580Y-108973381D01*
X136429914Y-108979674D01*
X136370391Y-109039198D01*
X136364098Y-109046864D01*
X136362102Y-109048596D01*
X136360209Y-109051603D01*
X136357954Y-109054351D01*
X136356942Y-109056793D01*
X136351660Y-109065186D01*
X136292135Y-109184233D01*
X136285129Y-109202542D01*
X136284874Y-109206125D01*
X136283499Y-109209446D01*
X136281578Y-109228955D01*
X135529197Y-109228955D01*
X135529197Y-108574193D01*
X141579198Y-108574193D01*
X141579198Y-109824193D01*
X141581119Y-109843702D01*
X141596051Y-109879750D01*
X141623641Y-109907340D01*
X141659689Y-109922272D01*
X141698707Y-109922272D01*
X141734755Y-109907340D01*
X141762345Y-109879750D01*
X141777277Y-109843702D01*
X141779198Y-109824193D01*
X141779198Y-109328955D01*
X142155388Y-109328955D01*
X142174897Y-109327034D01*
X142178217Y-109325658D01*
X142181801Y-109325404D01*
X142200109Y-109318398D01*
X142319158Y-109258874D01*
X142327556Y-109253587D01*
X142329993Y-109252578D01*
X142332736Y-109250326D01*
X142335748Y-109248431D01*
X142337480Y-109246433D01*
X142345147Y-109240142D01*
X142404670Y-109180619D01*
X142410963Y-109172950D01*
X142412959Y-109171220D01*
X142414852Y-109168212D01*
X142417106Y-109165466D01*
X142418116Y-109163025D01*
X142423402Y-109154629D01*
X142482926Y-109035581D01*
X142489932Y-109017273D01*
X142490186Y-109013689D01*
X142491562Y-109010369D01*
X142493483Y-108990860D01*
X142769674Y-108990860D01*
X142769674Y-109407527D01*
X142770009Y-109410929D01*
X142769792Y-109412388D01*
X142770871Y-109419685D01*
X142771595Y-109427036D01*
X142772159Y-109428399D01*
X142772660Y-109431781D01*
X142832184Y-109669876D01*
X142838779Y-109688336D01*
X142843204Y-109694308D01*
X142846050Y-109701179D01*
X142858487Y-109716332D01*
X142977534Y-109835381D01*
X142985203Y-109841675D01*
X142986934Y-109843670D01*
X142989941Y-109845563D01*
X142992688Y-109847817D01*
X142995127Y-109848827D01*
X143003524Y-109854113D01*
X143122572Y-109913636D01*
X143140881Y-109920642D01*
X143144463Y-109920896D01*
X143147784Y-109922272D01*
X143167293Y-109924193D01*
X143405388Y-109924193D01*
X143424897Y-109922272D01*
X143428217Y-109920896D01*
X143431800Y-109920642D01*
X143450109Y-109913636D01*
X143569157Y-109854113D01*
X143577552Y-109848828D01*
X143579994Y-109847817D01*
X143582741Y-109845561D01*
X143585747Y-109843670D01*
X143587477Y-109841674D01*
X143595147Y-109835380D01*
X143714194Y-109716332D01*
X143726631Y-109701179D01*
X143729476Y-109694308D01*
X143733902Y-109688336D01*
X143740497Y-109669876D01*
X143800021Y-109431780D01*
X143800520Y-109428400D01*
X143801086Y-109427036D01*
X143801809Y-109419684D01*
X143802889Y-109412388D01*
X143802671Y-109410929D01*
X143803007Y-109407527D01*
X143803007Y-109109908D01*
X144079198Y-109109908D01*
X144079198Y-109288479D01*
X144079533Y-109291881D01*
X144079316Y-109293340D01*
X144080395Y-109300637D01*
X144081119Y-109307988D01*
X144081683Y-109309351D01*
X144082184Y-109312733D01*
X144141708Y-109550828D01*
X144142221Y-109552266D01*
X144142273Y-109552986D01*
X144145376Y-109561096D01*
X144148303Y-109569288D01*
X144148733Y-109569868D01*
X144149279Y-109571295D01*
X144208802Y-109690343D01*
X144214087Y-109698739D01*
X144215098Y-109701179D01*
X144217351Y-109703925D01*
X144219245Y-109706933D01*
X144221239Y-109708663D01*
X144227534Y-109716333D01*
X144346582Y-109835380D01*
X144361735Y-109847817D01*
X144365054Y-109849191D01*
X144367770Y-109851547D01*
X144385671Y-109859538D01*
X144564241Y-109919061D01*
X144573912Y-109921260D01*
X144576355Y-109922272D01*
X144579893Y-109922620D01*
X144583357Y-109923408D01*
X144585990Y-109923220D01*
X144595864Y-109924193D01*
X144714912Y-109924193D01*
X144724785Y-109923220D01*
X144727419Y-109923408D01*
X144730881Y-109922620D01*
X144734421Y-109922272D01*
X144736863Y-109921260D01*
X144746534Y-109919061D01*
X144925105Y-109859538D01*
X144943006Y-109851547D01*
X144945721Y-109849191D01*
X144949040Y-109847817D01*
X144964194Y-109835381D01*
X145023718Y-109775856D01*
X145036155Y-109760703D01*
X145051086Y-109724655D01*
X145051086Y-109724654D01*
X145053007Y-109705146D01*
X145053007Y-109288479D01*
X145051086Y-109268970D01*
X145036154Y-109232922D01*
X145008564Y-109205332D01*
X144972516Y-109190400D01*
X144953007Y-109188479D01*
X144714912Y-109188479D01*
X144695403Y-109190400D01*
X144659355Y-109205332D01*
X144631765Y-109232922D01*
X144616833Y-109268970D01*
X144616833Y-109307988D01*
X144631765Y-109344036D01*
X144659355Y-109371626D01*
X144695403Y-109386558D01*
X144714912Y-109388479D01*
X144853007Y-109388479D01*
X144853007Y-109663724D01*
X144839463Y-109677267D01*
X144698686Y-109724193D01*
X144612090Y-109724193D01*
X144471311Y-109677267D01*
X144380430Y-109586385D01*
X144333073Y-109491669D01*
X144279198Y-109276169D01*
X144279198Y-109122217D01*
X144312037Y-108990860D01*
X145329198Y-108990860D01*
X145329198Y-109407527D01*
X145329533Y-109410929D01*
X145329316Y-109412388D01*
X145330395Y-109419685D01*
X145331119Y-109427036D01*
X145331683Y-109428399D01*
X145332184Y-109431781D01*
X145391708Y-109669876D01*
X145398303Y-109688336D01*
X145402728Y-109694308D01*
X145405574Y-109701179D01*
X145418011Y-109716332D01*
X145537058Y-109835381D01*
X145544727Y-109841675D01*
X145546458Y-109843670D01*
X145549465Y-109845563D01*
X145552212Y-109847817D01*
X145554651Y-109848827D01*
X145563048Y-109854113D01*
X145682096Y-109913636D01*
X145700405Y-109920642D01*
X145703987Y-109920896D01*
X145707308Y-109922272D01*
X145726817Y-109924193D01*
X145964912Y-109924193D01*
X145984421Y-109922272D01*
X145987741Y-109920896D01*
X145991324Y-109920642D01*
X146009633Y-109913636D01*
X146128681Y-109854113D01*
X146137076Y-109848828D01*
X146139518Y-109847817D01*
X146142265Y-109845561D01*
X146145271Y-109843670D01*
X146147001Y-109841674D01*
X146154671Y-109835380D01*
X146273718Y-109716332D01*
X146286155Y-109701179D01*
X146289000Y-109694308D01*
X146293426Y-109688336D01*
X146300021Y-109669876D01*
X146359545Y-109431780D01*
X146360044Y-109428400D01*
X146360610Y-109427036D01*
X146361333Y-109419684D01*
X146362413Y-109412388D01*
X146362195Y-109410929D01*
X146362531Y-109407527D01*
X146362531Y-108990860D01*
X146362195Y-108987457D01*
X146362413Y-108985999D01*
X146361333Y-108978702D01*
X146360610Y-108971351D01*
X146360044Y-108969986D01*
X146359545Y-108966607D01*
X146300021Y-108728511D01*
X146293426Y-108710051D01*
X146289000Y-108704078D01*
X146286155Y-108697208D01*
X146273718Y-108682055D01*
X146165857Y-108574193D01*
X147650627Y-108574193D01*
X147650627Y-109824193D01*
X147652548Y-109843702D01*
X147667480Y-109879750D01*
X147695070Y-109907340D01*
X147731118Y-109922272D01*
X147750627Y-109924193D01*
X148048246Y-109924193D01*
X148058119Y-109923220D01*
X148060753Y-109923408D01*
X148064215Y-109922620D01*
X148067755Y-109922272D01*
X148070197Y-109921260D01*
X148079868Y-109919061D01*
X148258439Y-109859538D01*
X148276340Y-109851547D01*
X148279055Y-109849191D01*
X148282374Y-109847817D01*
X148297528Y-109835381D01*
X148416575Y-109716333D01*
X148422869Y-109708663D01*
X148424865Y-109706933D01*
X148426756Y-109703927D01*
X148429012Y-109701180D01*
X148430023Y-109698738D01*
X148435308Y-109690343D01*
X148494831Y-109571295D01*
X148495376Y-109569868D01*
X148495807Y-109569288D01*
X148498733Y-109561096D01*
X148501837Y-109552986D01*
X148501888Y-109552266D01*
X148502402Y-109550828D01*
X148561926Y-109312732D01*
X148562425Y-109309352D01*
X148562991Y-109307988D01*
X148563714Y-109300636D01*
X148564794Y-109293340D01*
X148564576Y-109291881D01*
X148564912Y-109288479D01*
X148564912Y-109169431D01*
X148841103Y-109169431D01*
X148841103Y-109645622D01*
X148843024Y-109665131D01*
X148844399Y-109668451D01*
X148844654Y-109672035D01*
X148851660Y-109690343D01*
X148911184Y-109809392D01*
X148913238Y-109812656D01*
X148913751Y-109814193D01*
X148915410Y-109816106D01*
X148921627Y-109825982D01*
X148931102Y-109834199D01*
X148939316Y-109843670D01*
X148949187Y-109849883D01*
X148951104Y-109851546D01*
X148952642Y-109852059D01*
X148955906Y-109854113D01*
X149074953Y-109913636D01*
X149093261Y-109920642D01*
X149096844Y-109920896D01*
X149100165Y-109922272D01*
X149119674Y-109924193D01*
X149357769Y-109924193D01*
X149377278Y-109922272D01*
X149380598Y-109920896D01*
X149384181Y-109920642D01*
X149402490Y-109913636D01*
X149521538Y-109854113D01*
X149538128Y-109843670D01*
X149563693Y-109814194D01*
X149576031Y-109777178D01*
X149573266Y-109738258D01*
X149555817Y-109703359D01*
X149526340Y-109677794D01*
X149489325Y-109665455D01*
X149450405Y-109668221D01*
X149432096Y-109675227D01*
X149334162Y-109724193D01*
X149143281Y-109724193D01*
X149075162Y-109690134D01*
X149041103Y-109622015D01*
X149041103Y-109489507D01*
X149555848Y-109386558D01*
X149555850Y-109386558D01*
X149555851Y-109386557D01*
X149555953Y-109386537D01*
X149574706Y-109380827D01*
X149582846Y-109375375D01*
X149591898Y-109371626D01*
X149598897Y-109364626D01*
X149607126Y-109359116D01*
X149612561Y-109350962D01*
X149619488Y-109344036D01*
X149623276Y-109334889D01*
X149628769Y-109326651D01*
X149630670Y-109317040D01*
X149634420Y-109307988D01*
X149636341Y-109288479D01*
X149636341Y-109169431D01*
X149912532Y-109169431D01*
X149912532Y-109228955D01*
X149914453Y-109248464D01*
X149915828Y-109251784D01*
X149916083Y-109255368D01*
X149923089Y-109273676D01*
X149982613Y-109392725D01*
X149984667Y-109395989D01*
X149985180Y-109397526D01*
X149986839Y-109399440D01*
X149993056Y-109409315D01*
X150002528Y-109417530D01*
X150010744Y-109427003D01*
X150020618Y-109433219D01*
X150022533Y-109434879D01*
X150024069Y-109435391D01*
X150027334Y-109437446D01*
X150146382Y-109496970D01*
X150164690Y-109503976D01*
X150168273Y-109504230D01*
X150171594Y-109505606D01*
X150191103Y-109507527D01*
X150346068Y-109507527D01*
X150414186Y-109541585D01*
X150448246Y-109609705D01*
X150448246Y-109622014D01*
X150414186Y-109690134D01*
X150346068Y-109724193D01*
X150155186Y-109724193D01*
X150057253Y-109675227D01*
X150038945Y-109668221D01*
X150000024Y-109665455D01*
X149963009Y-109677794D01*
X149933532Y-109703359D01*
X149916083Y-109738257D01*
X149913317Y-109777178D01*
X149925656Y-109814193D01*
X149951221Y-109843670D01*
X149967811Y-109854113D01*
X150086858Y-109913636D01*
X150105166Y-109920642D01*
X150108749Y-109920896D01*
X150112070Y-109922272D01*
X150131579Y-109924193D01*
X150369675Y-109924193D01*
X150389184Y-109922272D01*
X150392504Y-109920896D01*
X150396088Y-109920642D01*
X150414396Y-109913636D01*
X150533443Y-109854113D01*
X150536706Y-109852059D01*
X150538245Y-109851546D01*
X150540161Y-109849883D01*
X150550033Y-109843670D01*
X150558247Y-109834198D01*
X150567722Y-109825982D01*
X150573934Y-109816111D01*
X150575598Y-109814194D01*
X150576111Y-109812653D01*
X150578165Y-109809391D01*
X150637689Y-109690343D01*
X150644695Y-109672035D01*
X150644949Y-109668451D01*
X150646325Y-109665131D01*
X150648246Y-109645622D01*
X150648246Y-109586098D01*
X150646325Y-109566589D01*
X150644949Y-109563268D01*
X150644695Y-109559685D01*
X150637689Y-109541377D01*
X150578165Y-109422329D01*
X150576111Y-109419066D01*
X150575598Y-109417526D01*
X150573934Y-109415608D01*
X150567722Y-109405738D01*
X150558247Y-109397521D01*
X150550033Y-109388050D01*
X150540161Y-109381836D01*
X150538245Y-109380174D01*
X150536706Y-109379660D01*
X150533443Y-109377607D01*
X150414396Y-109318084D01*
X150396088Y-109311078D01*
X150392504Y-109310823D01*
X150389184Y-109309448D01*
X150369675Y-109307527D01*
X150214710Y-109307527D01*
X150146591Y-109273467D01*
X150112532Y-109205348D01*
X150112532Y-109193039D01*
X150146591Y-109124919D01*
X150214710Y-109090860D01*
X150346067Y-109090860D01*
X150444001Y-109139827D01*
X150462309Y-109146833D01*
X150501229Y-109149599D01*
X150538245Y-109137260D01*
X150567722Y-109111696D01*
X150585171Y-109076797D01*
X150587937Y-109037877D01*
X150575598Y-109000861D01*
X150566925Y-108990860D01*
X150983961Y-108990860D01*
X150983961Y-109824193D01*
X150985882Y-109843702D01*
X151000814Y-109879750D01*
X151028404Y-109907340D01*
X151064452Y-109922272D01*
X151103470Y-109922272D01*
X151139518Y-109907340D01*
X151167108Y-109879750D01*
X151182040Y-109843702D01*
X151183961Y-109824193D01*
X151183961Y-109228955D01*
X151519675Y-109228955D01*
X151519675Y-109586098D01*
X151521596Y-109605607D01*
X151522971Y-109608927D01*
X151523226Y-109612511D01*
X151530232Y-109630819D01*
X151589756Y-109749868D01*
X151595040Y-109758262D01*
X151596051Y-109760703D01*
X151598305Y-109763449D01*
X151600199Y-109766458D01*
X151602195Y-109768189D01*
X151608488Y-109775856D01*
X151668011Y-109835380D01*
X151675680Y-109841674D01*
X151677411Y-109843670D01*
X151680416Y-109845561D01*
X151683164Y-109847817D01*
X151685605Y-109848828D01*
X151694001Y-109854113D01*
X151813049Y-109913636D01*
X151831358Y-109920642D01*
X151834940Y-109920896D01*
X151838261Y-109922272D01*
X151857770Y-109924193D01*
X152095865Y-109924193D01*
X152114913Y-109922317D01*
X152114913Y-109979158D01*
X152073202Y-110062577D01*
X152036628Y-110099150D01*
X151953210Y-110140860D01*
X151821853Y-110140860D01*
X151723921Y-110091893D01*
X151705612Y-110084887D01*
X151666692Y-110082121D01*
X151629676Y-110094460D01*
X151600199Y-110120024D01*
X151582750Y-110154923D01*
X151579984Y-110193843D01*
X151592323Y-110230859D01*
X151617887Y-110260336D01*
X151634477Y-110270779D01*
X151753525Y-110330303D01*
X151771833Y-110337309D01*
X151775416Y-110337563D01*
X151778737Y-110338939D01*
X151798246Y-110340860D01*
X151976818Y-110340860D01*
X151996327Y-110338939D01*
X151999647Y-110337563D01*
X152003231Y-110337309D01*
X152021540Y-110330303D01*
X152140587Y-110270778D01*
X152148983Y-110265493D01*
X152151422Y-110264483D01*
X152154165Y-110262231D01*
X152157177Y-110260336D01*
X152158909Y-110258338D01*
X152166576Y-110252047D01*
X152226100Y-110192522D01*
X152232392Y-110184855D01*
X152234389Y-110183124D01*
X152236282Y-110180115D01*
X152238537Y-110177369D01*
X152239547Y-110174928D01*
X152244832Y-110166534D01*
X152304356Y-110047486D01*
X152311362Y-110029178D01*
X152311616Y-110025594D01*
X152312992Y-110022274D01*
X152314913Y-110002765D01*
X152314913Y-108990860D01*
X152710151Y-108990860D01*
X152710151Y-109824193D01*
X152712072Y-109843702D01*
X152727004Y-109879750D01*
X152754594Y-109907340D01*
X152790642Y-109922272D01*
X152829660Y-109922272D01*
X152865708Y-109907340D01*
X152893298Y-109879750D01*
X152908230Y-109843702D01*
X152910151Y-109824193D01*
X152910151Y-109151328D01*
X152928909Y-109132569D01*
X153012330Y-109090860D01*
X153143686Y-109090860D01*
X153211805Y-109124919D01*
X153245865Y-109193037D01*
X153245865Y-109824193D01*
X153247786Y-109843702D01*
X153262718Y-109879750D01*
X153290308Y-109907340D01*
X153326356Y-109922272D01*
X153365374Y-109922272D01*
X153401422Y-109907340D01*
X153429012Y-109879750D01*
X153443944Y-109843702D01*
X153445865Y-109824193D01*
X153445865Y-109169431D01*
X153443944Y-109149922D01*
X153442568Y-109146601D01*
X153442314Y-109143018D01*
X153435308Y-109124710D01*
X153375784Y-109005662D01*
X153375666Y-109005475D01*
X154675509Y-109005475D01*
X154680262Y-109024494D01*
X154977881Y-109857827D01*
X154986252Y-109875553D01*
X154989620Y-109879273D01*
X154991769Y-109883810D01*
X155002619Y-109893632D01*
X155012438Y-109904479D01*
X155016972Y-109906626D01*
X155020695Y-109909997D01*
X155034481Y-109914920D01*
X155047700Y-109921182D01*
X155052711Y-109921431D01*
X155057440Y-109923120D01*
X155072055Y-109922393D01*
X155086670Y-109923120D01*
X155091398Y-109921431D01*
X155096410Y-109921182D01*
X155109628Y-109914920D01*
X155123415Y-109909997D01*
X155127137Y-109906626D01*
X155131672Y-109904479D01*
X155141492Y-109893630D01*
X155152341Y-109883810D01*
X155154488Y-109879275D01*
X155157859Y-109875553D01*
X155166229Y-109857827D01*
X155408637Y-109179084D01*
X155686808Y-109179084D01*
X155688262Y-109183903D01*
X155688262Y-109188939D01*
X155693856Y-109202445D01*
X155698078Y-109216439D01*
X155701265Y-109220335D01*
X155703193Y-109224988D01*
X155713532Y-109235327D01*
X155722786Y-109246637D01*
X155727221Y-109249016D01*
X155730783Y-109252578D01*
X155744289Y-109258172D01*
X155757170Y-109265082D01*
X155762181Y-109265583D01*
X155766831Y-109267509D01*
X155781446Y-109267509D01*
X155795994Y-109268964D01*
X155800813Y-109267509D01*
X155805849Y-109267510D01*
X155819355Y-109261915D01*
X155833349Y-109257694D01*
X155837245Y-109254506D01*
X155841898Y-109252579D01*
X155857051Y-109240142D01*
X155905098Y-109192094D01*
X155988519Y-109150384D01*
X156238924Y-109150384D01*
X156322344Y-109192094D01*
X156358916Y-109228666D01*
X156400626Y-109312085D01*
X156400626Y-109562491D01*
X156358916Y-109645910D01*
X156322342Y-109682484D01*
X156238924Y-109724193D01*
X155988519Y-109724193D01*
X155905100Y-109682484D01*
X155857052Y-109634435D01*
X155841898Y-109621999D01*
X155805850Y-109607067D01*
X155766832Y-109607067D01*
X155730784Y-109621999D01*
X155703194Y-109649589D01*
X155688262Y-109685637D01*
X155688262Y-109724655D01*
X155703194Y-109760703D01*
X155715630Y-109775857D01*
X155775155Y-109835381D01*
X155782824Y-109841675D01*
X155784554Y-109843670D01*
X155787558Y-109845561D01*
X155790308Y-109847818D01*
X155792751Y-109848830D01*
X155801144Y-109854113D01*
X155920191Y-109913636D01*
X155938499Y-109920642D01*
X155942082Y-109920896D01*
X155945403Y-109922272D01*
X155964912Y-109924193D01*
X156262531Y-109924193D01*
X156282040Y-109922272D01*
X156285360Y-109920896D01*
X156288943Y-109920642D01*
X156307252Y-109913636D01*
X156426300Y-109854113D01*
X156434696Y-109848827D01*
X156437136Y-109847817D01*
X156439882Y-109845563D01*
X156442890Y-109843670D01*
X156444620Y-109841675D01*
X156452290Y-109835381D01*
X156511814Y-109775856D01*
X156518108Y-109768186D01*
X156520103Y-109766457D01*
X156521994Y-109763452D01*
X156524251Y-109760703D01*
X156525263Y-109758259D01*
X156530546Y-109749867D01*
X156590069Y-109630819D01*
X156597075Y-109612510D01*
X156597329Y-109608927D01*
X156598705Y-109605607D01*
X156600626Y-109586098D01*
X156600626Y-109288479D01*
X156598705Y-109268970D01*
X156597329Y-109265649D01*
X156597075Y-109262067D01*
X156590069Y-109243758D01*
X156530546Y-109124710D01*
X156525261Y-109116314D01*
X156524250Y-109113873D01*
X156521994Y-109111125D01*
X156520103Y-109108120D01*
X156518107Y-109106389D01*
X156511813Y-109098720D01*
X156452289Y-109039197D01*
X156444622Y-109032904D01*
X156442891Y-109030908D01*
X156439882Y-109029014D01*
X156437136Y-109026760D01*
X156434695Y-109025749D01*
X156426301Y-109020465D01*
X156307252Y-108960941D01*
X156288944Y-108953935D01*
X156285360Y-108953680D01*
X156282040Y-108952305D01*
X156262531Y-108950384D01*
X155964912Y-108950384D01*
X155945403Y-108952305D01*
X155942082Y-108953680D01*
X155938499Y-108953935D01*
X155920191Y-108960941D01*
X155907031Y-108967520D01*
X155936364Y-108674193D01*
X156441103Y-108674193D01*
X156460612Y-108672272D01*
X156496660Y-108657340D01*
X156524250Y-108629750D01*
X156539182Y-108593702D01*
X156539182Y-108554684D01*
X156524250Y-108518636D01*
X156496660Y-108491046D01*
X156460612Y-108476114D01*
X156441103Y-108474193D01*
X155845865Y-108474193D01*
X155838653Y-108474903D01*
X155836212Y-108474659D01*
X155833828Y-108475378D01*
X155826356Y-108476114D01*
X155812855Y-108481706D01*
X155798857Y-108485930D01*
X155794958Y-108489119D01*
X155790308Y-108491046D01*
X155779973Y-108501380D01*
X155768659Y-108510638D01*
X155766278Y-108515075D01*
X155762718Y-108518636D01*
X155757124Y-108532138D01*
X155750214Y-108545021D01*
X155748737Y-108552387D01*
X155747786Y-108554684D01*
X155747786Y-108557133D01*
X155746361Y-108564242D01*
X155686837Y-109159481D01*
X155686808Y-109179084D01*
X155408637Y-109179084D01*
X155463848Y-109024493D01*
X155468601Y-109005475D01*
X155466663Y-108966505D01*
X155449960Y-108931243D01*
X155421034Y-108905056D01*
X155384289Y-108891933D01*
X155345319Y-108893871D01*
X155310057Y-108910574D01*
X155283871Y-108939500D01*
X155275500Y-108957226D01*
X155072054Y-109526872D01*
X154868610Y-108957226D01*
X154860240Y-108939500D01*
X154834053Y-108910574D01*
X154798791Y-108893871D01*
X154759821Y-108891933D01*
X154723076Y-108905056D01*
X154694150Y-108931243D01*
X154677447Y-108966505D01*
X154675509Y-109005475D01*
X153375666Y-109005475D01*
X153373729Y-109002397D01*
X153373217Y-109000861D01*
X153371557Y-108998946D01*
X153365341Y-108989072D01*
X153355868Y-108980856D01*
X153347653Y-108971384D01*
X153337778Y-108965167D01*
X153335864Y-108963508D01*
X153334327Y-108962995D01*
X153331063Y-108960941D01*
X153212014Y-108901417D01*
X153193706Y-108894411D01*
X153190122Y-108894156D01*
X153186802Y-108892781D01*
X153167293Y-108890860D01*
X152988722Y-108890860D01*
X152969213Y-108892781D01*
X152965892Y-108894156D01*
X152962309Y-108894411D01*
X152944001Y-108901417D01*
X152887608Y-108929613D01*
X152865708Y-108907713D01*
X152829660Y-108892781D01*
X152790642Y-108892781D01*
X152754594Y-108907713D01*
X152727004Y-108935303D01*
X152712072Y-108971351D01*
X152710151Y-108990860D01*
X152314913Y-108990860D01*
X152312992Y-108971351D01*
X152298060Y-108935303D01*
X152270470Y-108907713D01*
X152234422Y-108892781D01*
X152195404Y-108892781D01*
X152159356Y-108907713D01*
X152157296Y-108909772D01*
X152140586Y-108901417D01*
X152122278Y-108894411D01*
X152118694Y-108894156D01*
X152115374Y-108892781D01*
X152095865Y-108890860D01*
X151857770Y-108890860D01*
X151838261Y-108892781D01*
X151834940Y-108894156D01*
X151831357Y-108894411D01*
X151813049Y-108901417D01*
X151694001Y-108960941D01*
X151685604Y-108966226D01*
X151683164Y-108967237D01*
X151680418Y-108969490D01*
X151677410Y-108971384D01*
X151675677Y-108973381D01*
X151668011Y-108979674D01*
X151608488Y-109039198D01*
X151602195Y-109046864D01*
X151600199Y-109048596D01*
X151598306Y-109051603D01*
X151596051Y-109054351D01*
X151595039Y-109056793D01*
X151589757Y-109065186D01*
X151530232Y-109184233D01*
X151523226Y-109202542D01*
X151522971Y-109206125D01*
X151521596Y-109209446D01*
X151519675Y-109228955D01*
X151183961Y-109228955D01*
X151183961Y-108990860D01*
X151182040Y-108971351D01*
X151167108Y-108935303D01*
X151139518Y-108907713D01*
X151103470Y-108892781D01*
X151064452Y-108892781D01*
X151028404Y-108907713D01*
X151000814Y-108935303D01*
X150985882Y-108971351D01*
X150983961Y-108990860D01*
X150566925Y-108990860D01*
X150550034Y-108971384D01*
X150533444Y-108960942D01*
X150414397Y-108901417D01*
X150396088Y-108894411D01*
X150392504Y-108894156D01*
X150389184Y-108892781D01*
X150369675Y-108890860D01*
X150191103Y-108890860D01*
X150171594Y-108892781D01*
X150168273Y-108894156D01*
X150164690Y-108894411D01*
X150146382Y-108901417D01*
X150027334Y-108960941D01*
X150024069Y-108962995D01*
X150022533Y-108963508D01*
X150020618Y-108965167D01*
X150010744Y-108971384D01*
X150002528Y-108980856D01*
X149993056Y-108989072D01*
X149986842Y-108998944D01*
X149985180Y-109000861D01*
X149984666Y-109002400D01*
X149982614Y-109005662D01*
X149923089Y-109124709D01*
X149916083Y-109143018D01*
X149915828Y-109146601D01*
X149914453Y-109149922D01*
X149912532Y-109169431D01*
X149636341Y-109169431D01*
X149634420Y-109149922D01*
X149633044Y-109146601D01*
X149632790Y-109143018D01*
X149625784Y-109124710D01*
X149566260Y-109005662D01*
X149564205Y-109002397D01*
X149563693Y-109000861D01*
X149562033Y-108998946D01*
X149555817Y-108989072D01*
X149546344Y-108980856D01*
X149538129Y-108971384D01*
X149528254Y-108965167D01*
X149526340Y-108963508D01*
X149524803Y-108962995D01*
X149521539Y-108960941D01*
X149402490Y-108901417D01*
X149384182Y-108894411D01*
X149380598Y-108894156D01*
X149377278Y-108892781D01*
X149357769Y-108890860D01*
X149119674Y-108890860D01*
X149100165Y-108892781D01*
X149096844Y-108894156D01*
X149093261Y-108894411D01*
X149074953Y-108901417D01*
X148955905Y-108960941D01*
X148952640Y-108962995D01*
X148951104Y-108963508D01*
X148949189Y-108965167D01*
X148939315Y-108971384D01*
X148931099Y-108980856D01*
X148921627Y-108989072D01*
X148915413Y-108998944D01*
X148913751Y-109000861D01*
X148913237Y-109002400D01*
X148911185Y-109005662D01*
X148851660Y-109124709D01*
X148844654Y-109143018D01*
X148844399Y-109146601D01*
X148843024Y-109149922D01*
X148841103Y-109169431D01*
X148564912Y-109169431D01*
X148564912Y-109109908D01*
X148564576Y-109106505D01*
X148564794Y-109105047D01*
X148563714Y-109097750D01*
X148562991Y-109090399D01*
X148562425Y-109089034D01*
X148561926Y-109085655D01*
X148502402Y-108847558D01*
X148501888Y-108846119D01*
X148501837Y-108845399D01*
X148498730Y-108837280D01*
X148495807Y-108829098D01*
X148495376Y-108828517D01*
X148494831Y-108827091D01*
X148435308Y-108708044D01*
X148430023Y-108699648D01*
X148429012Y-108697207D01*
X148426756Y-108694459D01*
X148424865Y-108691454D01*
X148422870Y-108689723D01*
X148416575Y-108682054D01*
X148348730Y-108614208D01*
X150926358Y-108614208D01*
X150926358Y-108653226D01*
X150941290Y-108689274D01*
X150953726Y-108704428D01*
X151013251Y-108763952D01*
X151028404Y-108776389D01*
X151064452Y-108791320D01*
X151064453Y-108791320D01*
X151103470Y-108791320D01*
X151139519Y-108776389D01*
X151139524Y-108776383D01*
X151154672Y-108763951D01*
X151214195Y-108704427D01*
X151226632Y-108689274D01*
X151241563Y-108653225D01*
X151241562Y-108633717D01*
X151241563Y-108614209D01*
X151226632Y-108578160D01*
X151214195Y-108563007D01*
X151154672Y-108503483D01*
X151139524Y-108491050D01*
X151139519Y-108491045D01*
X151103470Y-108476114D01*
X151064452Y-108476114D01*
X151028404Y-108491045D01*
X151013251Y-108503482D01*
X150953726Y-108563006D01*
X150941291Y-108578159D01*
X150941290Y-108578160D01*
X150926358Y-108614208D01*
X148348730Y-108614208D01*
X148297528Y-108563006D01*
X148282374Y-108550570D01*
X148279055Y-108549195D01*
X148276340Y-108546840D01*
X148258439Y-108538849D01*
X148079869Y-108479325D01*
X148070196Y-108477125D01*
X148067755Y-108476114D01*
X148064217Y-108475765D01*
X148060754Y-108474978D01*
X148058119Y-108475165D01*
X148048246Y-108474193D01*
X147750627Y-108474193D01*
X147731118Y-108476114D01*
X147695070Y-108491046D01*
X147667480Y-108518636D01*
X147652548Y-108554684D01*
X147650627Y-108574193D01*
X146165857Y-108574193D01*
X146154671Y-108563007D01*
X146147004Y-108556714D01*
X146145272Y-108554717D01*
X146142262Y-108552822D01*
X146139518Y-108550570D01*
X146137079Y-108549559D01*
X146128682Y-108544274D01*
X146009633Y-108484750D01*
X145991325Y-108477744D01*
X145987741Y-108477489D01*
X145984421Y-108476114D01*
X145964912Y-108474193D01*
X145726817Y-108474193D01*
X145707308Y-108476114D01*
X145703987Y-108477489D01*
X145700404Y-108477744D01*
X145682096Y-108484750D01*
X145563048Y-108544274D01*
X145554649Y-108549560D01*
X145552212Y-108550570D01*
X145549468Y-108552821D01*
X145546457Y-108554717D01*
X145544724Y-108556714D01*
X145537058Y-108563006D01*
X145418011Y-108682055D01*
X145405574Y-108697208D01*
X145402728Y-108704078D01*
X145398303Y-108710051D01*
X145391708Y-108728511D01*
X145332184Y-108966606D01*
X145331683Y-108969987D01*
X145331119Y-108971351D01*
X145330395Y-108978701D01*
X145329316Y-108985999D01*
X145329533Y-108987457D01*
X145329198Y-108990860D01*
X144312037Y-108990860D01*
X144333073Y-108906716D01*
X144380430Y-108812001D01*
X144471311Y-108721119D01*
X144612090Y-108674193D01*
X144750828Y-108674193D01*
X144848762Y-108723160D01*
X144867070Y-108730166D01*
X144905990Y-108732932D01*
X144943006Y-108720593D01*
X144972483Y-108695029D01*
X144989932Y-108660130D01*
X144992698Y-108621210D01*
X144980359Y-108584194D01*
X144954795Y-108554717D01*
X144938205Y-108544275D01*
X144819158Y-108484750D01*
X144800849Y-108477744D01*
X144797265Y-108477489D01*
X144793945Y-108476114D01*
X144774436Y-108474193D01*
X144595864Y-108474193D01*
X144585990Y-108475165D01*
X144583356Y-108474978D01*
X144579892Y-108475765D01*
X144576355Y-108476114D01*
X144573913Y-108477125D01*
X144564241Y-108479325D01*
X144385670Y-108538849D01*
X144367770Y-108546840D01*
X144365054Y-108549194D01*
X144361735Y-108550570D01*
X144346582Y-108563007D01*
X144227534Y-108682054D01*
X144221239Y-108689723D01*
X144219245Y-108691454D01*
X144217351Y-108694461D01*
X144215098Y-108697208D01*
X144214087Y-108699647D01*
X144208802Y-108708044D01*
X144149279Y-108827091D01*
X144148733Y-108828517D01*
X144148303Y-108829098D01*
X144145379Y-108837280D01*
X144142273Y-108845399D01*
X144142221Y-108846119D01*
X144141708Y-108847558D01*
X144082184Y-109085654D01*
X144081683Y-109089035D01*
X144081119Y-109090399D01*
X144080395Y-109097749D01*
X144079316Y-109105047D01*
X144079533Y-109106505D01*
X144079198Y-109109908D01*
X143803007Y-109109908D01*
X143803007Y-108990860D01*
X143802671Y-108987457D01*
X143802889Y-108985999D01*
X143801809Y-108978702D01*
X143801086Y-108971351D01*
X143800520Y-108969986D01*
X143800021Y-108966607D01*
X143740497Y-108728511D01*
X143733902Y-108710051D01*
X143729476Y-108704078D01*
X143726631Y-108697208D01*
X143714194Y-108682055D01*
X143595147Y-108563007D01*
X143587480Y-108556714D01*
X143585748Y-108554717D01*
X143582738Y-108552822D01*
X143579994Y-108550570D01*
X143577555Y-108549559D01*
X143569158Y-108544274D01*
X143450109Y-108484750D01*
X143431801Y-108477744D01*
X143428217Y-108477489D01*
X143424897Y-108476114D01*
X143405388Y-108474193D01*
X143167293Y-108474193D01*
X143147784Y-108476114D01*
X143144463Y-108477489D01*
X143140880Y-108477744D01*
X143122572Y-108484750D01*
X143003524Y-108544274D01*
X142995125Y-108549560D01*
X142992688Y-108550570D01*
X142989944Y-108552821D01*
X142986933Y-108554717D01*
X142985200Y-108556714D01*
X142977534Y-108563006D01*
X142858487Y-108682055D01*
X142846050Y-108697208D01*
X142843204Y-108704078D01*
X142838779Y-108710051D01*
X142832184Y-108728511D01*
X142772660Y-108966606D01*
X142772159Y-108969987D01*
X142771595Y-108971351D01*
X142770871Y-108978701D01*
X142769792Y-108985999D01*
X142770009Y-108987457D01*
X142769674Y-108990860D01*
X142493483Y-108990860D01*
X142493483Y-108812289D01*
X142491562Y-108792780D01*
X142490186Y-108789459D01*
X142489932Y-108785876D01*
X142482926Y-108767568D01*
X142423402Y-108648520D01*
X142418118Y-108640125D01*
X142417107Y-108637684D01*
X142414852Y-108634936D01*
X142412959Y-108631929D01*
X142410962Y-108630197D01*
X142404670Y-108622531D01*
X142345147Y-108563007D01*
X142337480Y-108556714D01*
X142335748Y-108554717D01*
X142332738Y-108552822D01*
X142329994Y-108550570D01*
X142327555Y-108549559D01*
X142319158Y-108544274D01*
X142200109Y-108484750D01*
X142181801Y-108477744D01*
X142178217Y-108477489D01*
X142174897Y-108476114D01*
X142155388Y-108474193D01*
X141679198Y-108474193D01*
X141659689Y-108476114D01*
X141623641Y-108491046D01*
X141596051Y-108518636D01*
X141581119Y-108554684D01*
X141579198Y-108574193D01*
X135529197Y-108574193D01*
X135527276Y-108554684D01*
X135512344Y-108518636D01*
X135484754Y-108491046D01*
X135448706Y-108476114D01*
X135409688Y-108476114D01*
X135373640Y-108491046D01*
X135346050Y-108518636D01*
X135331118Y-108554684D01*
X135329197Y-108574193D01*
X135130784Y-108574193D01*
X135130784Y-108335304D01*
X158285213Y-108335304D01*
X158285213Y-112492179D01*
G37*
D11*
%TO.P,J13,1,Pin_1*%
%TO.N,Net-(J13-Pin_1)*%
X135250000Y-126500000D03*
%TD*%
%TO.P,J3,1,Pin_1*%
%TO.N,Net-(J25-Pin_3)*%
X124000000Y-138500000D03*
%TD*%
%TO.P,J4,1,Pin_1*%
%TO.N,Net-(J25-Pin_4)*%
X124000000Y-147500000D03*
%TD*%
%TO.P,J9,1,Pin_1*%
%TO.N,Net-(J25-Pin_9)*%
X174000000Y-154000000D03*
%TD*%
D12*
%TO.P,H4,1,1*%
%TO.N,Earth*%
X200750000Y-154500000D03*
D13*
X200750000Y-154500000D03*
%TD*%
D11*
%TO.P,J11,1,Pin_1*%
%TO.N,Net-(J11-Pin_1)*%
X199500000Y-138500000D03*
%TD*%
D12*
%TO.P,H1,1,1*%
%TO.N,Earth*%
X93250000Y-109500000D03*
D13*
X93250000Y-109500000D03*
%TD*%
D12*
%TO.P,H2,1,1*%
%TO.N,Earth*%
X200750000Y-109500000D03*
D13*
X200750000Y-109500000D03*
%TD*%
D12*
%TO.P,H3,1,1*%
%TO.N,Earth*%
X93250000Y-154500000D03*
D13*
X93250000Y-154500000D03*
%TD*%
D11*
%TO.P,J6,1,Pin_1*%
%TO.N,Net-(J25-Pin_6)*%
X135250000Y-144500000D03*
%TD*%
%TO.P,J5,1,Pin_1*%
%TO.N,Net-(J25-Pin_5)*%
X136250000Y-154000000D03*
%TD*%
%TO.P,J18,1,Pin_1*%
%TO.N,Net-(J18-Pin_1)*%
X98000000Y-126500000D03*
%TD*%
%TO.P,J12,1,Pin_1*%
%TO.N,Net-(J12-Pin_1)*%
X199500000Y-147500000D03*
%TD*%
%TO.P,J21,1,Pin_1*%
%TO.N,Net-(J21-Pin_1)*%
X173000000Y-126500000D03*
%TD*%
%TO.P,J16,1,Pin_1*%
%TO.N,Net-(J16-Pin_1)*%
X123500000Y-119500000D03*
%TD*%
%TO.P,J22,1,Pin_1*%
%TO.N,Net-(J22-Pin_1)*%
X173000000Y-135500000D03*
%TD*%
%TO.P,J17,1,Pin_1*%
%TO.N,Net-(J17-Pin_1)*%
X98000000Y-135500000D03*
%TD*%
%TO.P,J1,1,Pin_1*%
%TO.N,Net-(J1-Pin_1)*%
X98000000Y-144500000D03*
%TD*%
%TO.P,J15,1,Pin_1*%
%TO.N,Net-(J15-Pin_1)*%
X124000000Y-129500000D03*
%TD*%
%TO.P,J23,1,Pin_1*%
%TO.N,Net-(J23-Pin_1)*%
X161750000Y-129500000D03*
%TD*%
%TO.P,J2,1,Pin_1*%
%TO.N,Net-(J2-Pin_1)*%
X99000000Y-154000000D03*
%TD*%
%TO.P,J19,1,Pin_1*%
%TO.N,Net-(J19-Pin_1)*%
X198500000Y-119500000D03*
%TD*%
%TO.P,J20,1,Pin_1*%
%TO.N,Net-(J20-Pin_1)*%
X199500000Y-129500000D03*
%TD*%
%TO.P,J14,1,Pin_1*%
%TO.N,Net-(J14-Pin_1)*%
X135250000Y-135500000D03*
%TD*%
%TO.P,J10,1,Pin_1*%
%TO.N,Net-(J10-Pin_1)*%
X173000000Y-144500000D03*
%TD*%
%TO.P,J24,1,Pin_1*%
%TO.N,Net-(J24-Pin_1)*%
X161250000Y-119500000D03*
%TD*%
%TO.P,J7,1,Pin_1*%
%TO.N,Net-(J25-Pin_7)*%
X161750000Y-147000000D03*
%TD*%
%TO.P,J8,1,Pin_1*%
%TO.N,Net-(J25-Pin_8)*%
X161750000Y-138500000D03*
%TD*%
D14*
%TO.P,J25,1,Pin_1*%
%TO.N,Net-(J1-Pin_1)*%
X133000000Y-105250000D03*
D15*
%TO.P,J25,2,Pin_2*%
%TO.N,Net-(J2-Pin_1)*%
X135540000Y-105250000D03*
%TO.P,J25,3,Pin_3*%
%TO.N,Net-(J25-Pin_3)*%
X138080000Y-105250000D03*
%TO.P,J25,4,Pin_4*%
%TO.N,Net-(J25-Pin_4)*%
X140620000Y-105250000D03*
%TO.P,J25,5,Pin_5*%
%TO.N,Net-(J25-Pin_5)*%
X143160000Y-105250000D03*
%TO.P,J25,6,Pin_6*%
%TO.N,Net-(J25-Pin_6)*%
X145700000Y-105250000D03*
%TO.P,J25,7,Pin_7*%
%TO.N,Net-(J25-Pin_7)*%
X148240000Y-105250000D03*
%TO.P,J25,8,Pin_8*%
%TO.N,Net-(J25-Pin_8)*%
X150780000Y-105250000D03*
%TO.P,J25,9,Pin_9*%
%TO.N,Net-(J25-Pin_9)*%
X153320000Y-105250000D03*
%TO.P,J25,10,Pin_10*%
%TO.N,Net-(J10-Pin_1)*%
X155860000Y-105250000D03*
%TO.P,J25,11,Pin_11*%
%TO.N,Net-(J11-Pin_1)*%
X158400000Y-105250000D03*
%TO.P,J25,12,Pin_12*%
%TO.N,Net-(J12-Pin_1)*%
X160940000Y-105250000D03*
%TO.P,J25,13,Pin_13*%
%TO.N,Net-(J13-Pin_1)*%
X133000000Y-102710000D03*
%TO.P,J25,14,Pin_14*%
%TO.N,Net-(J14-Pin_1)*%
X135540000Y-102710000D03*
%TO.P,J25,15,Pin_15*%
%TO.N,Net-(J15-Pin_1)*%
X138080000Y-102710000D03*
%TO.P,J25,16,Pin_16*%
%TO.N,Net-(J16-Pin_1)*%
X140620000Y-102710000D03*
%TO.P,J25,17,Pin_17*%
%TO.N,Net-(J17-Pin_1)*%
X143160000Y-102710000D03*
%TO.P,J25,18,Pin_18*%
%TO.N,Net-(J18-Pin_1)*%
X145700000Y-102710000D03*
%TO.P,J25,19,Pin_19*%
%TO.N,Net-(J19-Pin_1)*%
X148240000Y-102710000D03*
%TO.P,J25,20,Pin_20*%
%TO.N,Net-(J20-Pin_1)*%
X150780000Y-102710000D03*
%TO.P,J25,21,Pin_21*%
%TO.N,Net-(J21-Pin_1)*%
X153320000Y-102710000D03*
%TO.P,J25,22,Pin_22*%
%TO.N,Net-(J22-Pin_1)*%
X155860000Y-102710000D03*
%TO.P,J25,23,Pin_23*%
%TO.N,Net-(J23-Pin_1)*%
X158400000Y-102710000D03*
%TO.P,J25,24,Pin_24*%
%TO.N,Net-(J24-Pin_1)*%
X160940000Y-102710000D03*
%TD*%
D16*
%TO.N,Net-(J15-Pin_1)*%
X127750000Y-125750000D02*
X124000000Y-129500000D01*
X127750000Y-102440202D02*
X127750000Y-125750000D01*
X135271979Y-99260000D02*
X130930202Y-99260000D01*
X138080000Y-102710000D02*
X138080000Y-102068021D01*
X130930202Y-99260000D02*
X127750000Y-102440202D01*
X138080000Y-102068021D02*
X135271979Y-99260000D01*
%TO.N,Net-(J13-Pin_1)*%
X131440000Y-102710000D02*
X130750000Y-103400000D01*
X133000000Y-102750000D02*
X133050000Y-102800000D01*
X133000000Y-102710000D02*
X133000000Y-102750000D01*
X130750000Y-122000000D02*
X135250000Y-126500000D01*
X130750000Y-103400000D02*
X130750000Y-122000000D01*
X133000000Y-102710000D02*
X131440000Y-102710000D01*
%TO.N,Net-(J14-Pin_1)*%
X131510101Y-100660000D02*
X129250000Y-102920101D01*
X135540000Y-101507919D02*
X134692081Y-100660000D01*
X129250000Y-129500000D02*
X135250000Y-135500000D01*
X135540000Y-102710000D02*
X135540000Y-101507919D01*
X134692081Y-100660000D02*
X131510101Y-100660000D01*
X129250000Y-102920101D02*
X129250000Y-129500000D01*
%TO.N,Net-(J16-Pin_1)*%
X130350304Y-97860000D02*
X128467651Y-99742652D01*
X126250000Y-116750000D02*
X123500000Y-119500000D01*
X140620000Y-102710000D02*
X140620000Y-101507919D01*
X136972081Y-97860000D02*
X130350304Y-97860000D01*
X126250000Y-101960303D02*
X126250000Y-116750000D01*
X128467651Y-99742652D02*
X126250000Y-101960303D01*
X140620000Y-101507919D02*
X136972081Y-97860000D01*
%TO.N,Net-(J17-Pin_1)*%
X129770405Y-96460000D02*
X126170101Y-100060303D01*
X137551980Y-96460000D02*
X129770405Y-96460000D01*
X124850000Y-106900000D02*
X122950000Y-108800000D01*
X101350000Y-112900000D02*
X101350000Y-132150000D01*
X122950000Y-108800000D02*
X105450000Y-108800000D01*
X126170101Y-100060303D02*
X124850000Y-101380404D01*
X138372081Y-97280101D02*
X137551980Y-96460000D01*
X143160000Y-102068021D02*
X138372081Y-97280101D01*
X101350000Y-132150000D02*
X98000000Y-135500000D01*
X143160000Y-102710000D02*
X143160000Y-102068021D01*
X105450000Y-108800000D02*
X101350000Y-112900000D01*
X124850000Y-101380404D02*
X124850000Y-106900000D01*
%TO.N,Net-(J18-Pin_1)*%
X99950000Y-124550000D02*
X98000000Y-126500000D01*
X104600000Y-107400000D02*
X99950000Y-112050000D01*
X123450000Y-100800505D02*
X123450000Y-105550000D01*
X129190505Y-95060000D02*
X123450000Y-100800505D01*
X145700000Y-101507919D02*
X139252081Y-95060000D01*
X139252081Y-95060000D02*
X129190505Y-95060000D01*
X99950000Y-112050000D02*
X99950000Y-124550000D01*
X123450000Y-105550000D02*
X121600000Y-107400000D01*
X121600000Y-107400000D02*
X104600000Y-107400000D01*
X145700000Y-102710000D02*
X145700000Y-101507919D01*
%TO.N,Net-(J19-Pin_1)*%
X164489899Y-95060000D02*
X170000000Y-100570101D01*
X154687919Y-95060000D02*
X164489899Y-95060000D01*
X148240000Y-101507919D02*
X154687919Y-95060000D01*
X172179898Y-107400000D02*
X189900000Y-107400000D01*
X170000000Y-105220102D02*
X172179898Y-107400000D01*
X189900000Y-107400000D02*
X198500000Y-116000000D01*
X198500000Y-116000000D02*
X198500000Y-119500000D01*
X170000000Y-100570101D02*
X170000000Y-105220102D01*
X148240000Y-102710000D02*
X148240000Y-101507919D01*
%TO.N,Net-(J20-Pin_1)*%
X168600000Y-101150000D02*
X168600000Y-105800000D01*
X150780000Y-102350862D02*
X156670862Y-96460000D01*
X194750000Y-124750000D02*
X199500000Y-129500000D01*
X163910000Y-96460000D02*
X168600000Y-101150000D01*
X171600000Y-108800000D02*
X189320102Y-108800000D01*
X189320102Y-108800000D02*
X194750000Y-114229898D01*
X156670862Y-96460000D02*
X163910000Y-96460000D01*
X194750000Y-114229898D02*
X194750000Y-124750000D01*
X168600000Y-105800000D02*
X171600000Y-108800000D01*
X150780000Y-102710000D02*
X150780000Y-102350862D01*
%TO.N,Net-(J21-Pin_1)*%
X163231777Y-97860000D02*
X167200000Y-101828223D01*
X157528020Y-97860000D02*
X163231777Y-97860000D01*
X167200000Y-120700000D02*
X173000000Y-126500000D01*
X153320000Y-102068020D02*
X157528020Y-97860000D01*
X153320000Y-102710000D02*
X153320000Y-102068020D01*
X167200000Y-101828223D02*
X167200000Y-120700000D01*
%TO.N,Net-(J22-Pin_1)*%
X165800000Y-102408122D02*
X165800000Y-128300000D01*
X165800000Y-128300000D02*
X173000000Y-135500000D01*
X158107919Y-99260000D02*
X162651878Y-99260000D01*
X155860000Y-102710000D02*
X155860000Y-101507919D01*
X155860000Y-101507919D02*
X158107919Y-99260000D01*
X162651878Y-99260000D02*
X165800000Y-102408122D01*
%TO.N,Net-(J23-Pin_1)*%
X164400000Y-126850000D02*
X161750000Y-129500000D01*
X160090862Y-100660000D02*
X162071980Y-100660000D01*
X158400000Y-102710000D02*
X158400000Y-102350862D01*
X164400000Y-102988020D02*
X164400000Y-126850000D01*
X158400000Y-102350862D02*
X160090862Y-100660000D01*
X162071980Y-100660000D02*
X164400000Y-102988020D01*
%TO.N,Net-(J24-Pin_1)*%
X162142081Y-102710000D02*
X163000000Y-103567919D01*
X163000000Y-117750000D02*
X161250000Y-119500000D01*
X160940000Y-102710000D02*
X162142081Y-102710000D01*
X163000000Y-103567919D02*
X163000000Y-117750000D01*
%TD*%
%TA.AperFunction,Conductor*%
%TO.N,Earth*%
G36*
X171477826Y-92272174D02*
G01*
X171499500Y-92324500D01*
X171499500Y-104815894D01*
X171533606Y-104943181D01*
X171533607Y-104943184D01*
X171533608Y-104943186D01*
X171599500Y-105057314D01*
X171692686Y-105150500D01*
X171806814Y-105216392D01*
X171934105Y-105250499D01*
X171934106Y-105250500D01*
X171934108Y-105250500D01*
X172065892Y-105250500D01*
X204425500Y-105250500D01*
X204477826Y-105272174D01*
X204499500Y-105324500D01*
X204499500Y-158288594D01*
X204477826Y-158340920D01*
X204425500Y-158362594D01*
X89574500Y-158362594D01*
X89522174Y-158340920D01*
X89500500Y-158288594D01*
X89500500Y-154500000D01*
X90044958Y-154500000D01*
X90065111Y-154858853D01*
X90065113Y-154858865D01*
X90125313Y-155213184D01*
X90224815Y-155558560D01*
X90362352Y-155890607D01*
X90362363Y-155890628D01*
X90536206Y-156205173D01*
X90536210Y-156205180D01*
X90744199Y-156498313D01*
X90850213Y-156616942D01*
X91985502Y-155481652D01*
X92029588Y-155542330D01*
X92207670Y-155720412D01*
X92268346Y-155764495D01*
X91133055Y-156899786D01*
X91251681Y-157005796D01*
X91544819Y-157213789D01*
X91544826Y-157213793D01*
X91859371Y-157387636D01*
X91859392Y-157387647D01*
X92191439Y-157525184D01*
X92536816Y-157624686D01*
X92536814Y-157624686D01*
X92891134Y-157684886D01*
X92891146Y-157684888D01*
X93250000Y-157705041D01*
X93608853Y-157684888D01*
X93608865Y-157684886D01*
X93963184Y-157624686D01*
X94308560Y-157525184D01*
X94640607Y-157387647D01*
X94640628Y-157387636D01*
X94955173Y-157213793D01*
X94955180Y-157213789D01*
X95248318Y-157005796D01*
X95366942Y-156899786D01*
X95366943Y-156899786D01*
X94231653Y-155764496D01*
X94292330Y-155720412D01*
X94470412Y-155542330D01*
X94514496Y-155481653D01*
X95649786Y-156616943D01*
X95649786Y-156616942D01*
X95755796Y-156498318D01*
X95963789Y-156205180D01*
X95963793Y-156205173D01*
X96137636Y-155890628D01*
X96137647Y-155890607D01*
X96275184Y-155558560D01*
X96374684Y-155213192D01*
X96414051Y-154981486D01*
X96444184Y-154933530D01*
X96499401Y-154920926D01*
X96547357Y-154951059D01*
X96554485Y-154963508D01*
X96670986Y-155222361D01*
X96835306Y-155494180D01*
X97031193Y-155744211D01*
X97255789Y-155968807D01*
X97505820Y-156164694D01*
X97777639Y-156329014D01*
X98067283Y-156459372D01*
X98370528Y-156553867D01*
X98682952Y-156611121D01*
X99000000Y-156630299D01*
X99317048Y-156611121D01*
X99629472Y-156553867D01*
X99932717Y-156459372D01*
X100222361Y-156329014D01*
X100494180Y-156164694D01*
X100744211Y-155968807D01*
X100968807Y-155744211D01*
X101164694Y-155494180D01*
X101329014Y-155222361D01*
X101459372Y-154932717D01*
X101553867Y-154629472D01*
X101611121Y-154317048D01*
X101630299Y-154000000D01*
X101611121Y-153682952D01*
X101553867Y-153370528D01*
X101459372Y-153067283D01*
X101329014Y-152777639D01*
X101164694Y-152505820D01*
X100968807Y-152255789D01*
X100744211Y-152031193D01*
X100494180Y-151835306D01*
X100222361Y-151670986D01*
X100222357Y-151670984D01*
X100222355Y-151670983D01*
X99932710Y-151540625D01*
X99629477Y-151446134D01*
X99317046Y-151388878D01*
X99000000Y-151369701D01*
X98682953Y-151388878D01*
X98370522Y-151446134D01*
X98067289Y-151540625D01*
X97777644Y-151670983D01*
X97777635Y-151670988D01*
X97505819Y-151835306D01*
X97255788Y-152031193D01*
X97031193Y-152255788D01*
X96835306Y-152505819D01*
X96670988Y-152777635D01*
X96670983Y-152777644D01*
X96540625Y-153067289D01*
X96446134Y-153370522D01*
X96428473Y-153466893D01*
X96397722Y-153514455D01*
X96342346Y-153526342D01*
X96294784Y-153495591D01*
X96284577Y-153474040D01*
X96275184Y-153441438D01*
X96137647Y-153109392D01*
X96137636Y-153109371D01*
X95963793Y-152794826D01*
X95963789Y-152794819D01*
X95755796Y-152501681D01*
X95649786Y-152383056D01*
X95649786Y-152383055D01*
X94514495Y-153518345D01*
X94470412Y-153457670D01*
X94292330Y-153279588D01*
X94231652Y-153235502D01*
X95366942Y-152100213D01*
X95248313Y-151994199D01*
X94955180Y-151786210D01*
X94955173Y-151786206D01*
X94640628Y-151612363D01*
X94640607Y-151612352D01*
X94308560Y-151474815D01*
X93963183Y-151375313D01*
X93963185Y-151375313D01*
X93608865Y-151315113D01*
X93608853Y-151315111D01*
X93250000Y-151294958D01*
X92891146Y-151315111D01*
X92891134Y-151315113D01*
X92536815Y-151375313D01*
X92191439Y-151474815D01*
X91859392Y-151612352D01*
X91859371Y-151612363D01*
X91544826Y-151786206D01*
X91544819Y-151786210D01*
X91251686Y-151994199D01*
X91133055Y-152100212D01*
X92268346Y-153235503D01*
X92207670Y-153279588D01*
X92029588Y-153457670D01*
X91985503Y-153518346D01*
X90850212Y-152383055D01*
X90744199Y-152501686D01*
X90536210Y-152794819D01*
X90536206Y-152794826D01*
X90362363Y-153109371D01*
X90362352Y-153109392D01*
X90224815Y-153441439D01*
X90125313Y-153786815D01*
X90065113Y-154141134D01*
X90065111Y-154141146D01*
X90044958Y-154500000D01*
X89500500Y-154500000D01*
X89500500Y-144500000D01*
X95369701Y-144500000D01*
X95388878Y-144817046D01*
X95446134Y-145129477D01*
X95540625Y-145432710D01*
X95540627Y-145432715D01*
X95540628Y-145432717D01*
X95670986Y-145722361D01*
X95835306Y-145994180D01*
X96031193Y-146244211D01*
X96255789Y-146468807D01*
X96505820Y-146664694D01*
X96777639Y-146829014D01*
X97067283Y-146959372D01*
X97370528Y-147053867D01*
X97682952Y-147111121D01*
X98000000Y-147130299D01*
X98317048Y-147111121D01*
X98629472Y-147053867D01*
X98932717Y-146959372D01*
X99222361Y-146829014D01*
X99494180Y-146664694D01*
X99744211Y-146468807D01*
X99968807Y-146244211D01*
X100164694Y-145994180D01*
X100329014Y-145722361D01*
X100459372Y-145432717D01*
X100553867Y-145129472D01*
X100611121Y-144817048D01*
X100630299Y-144500000D01*
X100611121Y-144182952D01*
X100553867Y-143870528D01*
X100459372Y-143567283D01*
X100329014Y-143277639D01*
X100164694Y-143005820D01*
X99968807Y-142755789D01*
X99744211Y-142531193D01*
X99494180Y-142335306D01*
X99222361Y-142170986D01*
X99222357Y-142170984D01*
X99222355Y-142170983D01*
X98932710Y-142040625D01*
X98629477Y-141946134D01*
X98317046Y-141888878D01*
X98000000Y-141869701D01*
X97682953Y-141888878D01*
X97370522Y-141946134D01*
X97067289Y-142040625D01*
X96777644Y-142170983D01*
X96777635Y-142170988D01*
X96505819Y-142335306D01*
X96255788Y-142531193D01*
X96031193Y-142755788D01*
X95835306Y-143005819D01*
X95670988Y-143277635D01*
X95670983Y-143277644D01*
X95540625Y-143567289D01*
X95446134Y-143870522D01*
X95388878Y-144182953D01*
X95369701Y-144500000D01*
X89500500Y-144500000D01*
X89500500Y-126500000D01*
X95369701Y-126500000D01*
X95388878Y-126817046D01*
X95446134Y-127129477D01*
X95540625Y-127432710D01*
X95540627Y-127432715D01*
X95540628Y-127432717D01*
X95670986Y-127722361D01*
X95835306Y-127994180D01*
X96031193Y-128244211D01*
X96255789Y-128468807D01*
X96505820Y-128664694D01*
X96777639Y-128829014D01*
X97067283Y-128959372D01*
X97370528Y-129053867D01*
X97682952Y-129111121D01*
X98000000Y-129130299D01*
X98317048Y-129111121D01*
X98629472Y-129053867D01*
X98932717Y-128959372D01*
X99222361Y-128829014D01*
X99494180Y-128664694D01*
X99744211Y-128468807D01*
X99968807Y-128244211D01*
X100164694Y-127994180D01*
X100329014Y-127722361D01*
X100459372Y-127432717D01*
X100553867Y-127129472D01*
X100611121Y-126817048D01*
X100630299Y-126500000D01*
X100611121Y-126182952D01*
X100553867Y-125870528D01*
X100459372Y-125567283D01*
X100329014Y-125277639D01*
X100164694Y-125005820D01*
X100159385Y-124999044D01*
X100144175Y-124944490D01*
X100165308Y-124901083D01*
X100270480Y-124795913D01*
X100323207Y-124704587D01*
X100350499Y-124602729D01*
X100350500Y-124602729D01*
X100350500Y-112246545D01*
X100372174Y-112194219D01*
X104744219Y-107822174D01*
X104796545Y-107800500D01*
X121652726Y-107800500D01*
X121652727Y-107800500D01*
X121754588Y-107773207D01*
X121845913Y-107720480D01*
X123770480Y-105795913D01*
X123823207Y-105704588D01*
X123850500Y-105602727D01*
X123850500Y-105497273D01*
X123850500Y-100997050D01*
X123872174Y-100944724D01*
X129334724Y-95482174D01*
X129387050Y-95460500D01*
X139055536Y-95460500D01*
X139107862Y-95482174D01*
X144798255Y-101172567D01*
X144819929Y-101224893D01*
X144798255Y-101277219D01*
X144787614Y-101286035D01*
X144726538Y-101327677D01*
X144643034Y-101384609D01*
X144480333Y-101535573D01*
X144427233Y-101555275D01*
X144379667Y-101535573D01*
X144331303Y-101490698D01*
X144216965Y-101384608D01*
X144007620Y-101241879D01*
X143835397Y-101158941D01*
X143779346Y-101131948D01*
X143779342Y-101131946D01*
X143779341Y-101131946D01*
X143779336Y-101131944D01*
X143779332Y-101131943D01*
X143537226Y-101057262D01*
X143537227Y-101057262D01*
X143286691Y-101019500D01*
X143286685Y-101019500D01*
X143033315Y-101019500D01*
X143033308Y-101019500D01*
X142782782Y-101057260D01*
X142782770Y-101057263D01*
X142774062Y-101059949D01*
X142717673Y-101054655D01*
X142699932Y-101041560D01*
X140672461Y-99014089D01*
X138617994Y-96959621D01*
X137797893Y-96139520D01*
X137797890Y-96139518D01*
X137797889Y-96139517D01*
X137706572Y-96086795D01*
X137706568Y-96086793D01*
X137604707Y-96059500D01*
X129823132Y-96059500D01*
X129717678Y-96059500D01*
X129666747Y-96073146D01*
X129615816Y-96086793D01*
X129615812Y-96086795D01*
X129524495Y-96139517D01*
X125849621Y-99814390D01*
X124529517Y-101134494D01*
X124476792Y-101225816D01*
X124476793Y-101225817D01*
X124449500Y-101327677D01*
X124449500Y-106703455D01*
X124427826Y-106755781D01*
X122805781Y-108377826D01*
X122753455Y-108399500D01*
X105507273Y-108399500D01*
X105507257Y-108399499D01*
X105502727Y-108399499D01*
X105397273Y-108399499D01*
X105397271Y-108399499D01*
X105295416Y-108426791D01*
X105295411Y-108426793D01*
X105204086Y-108479520D01*
X105129518Y-108554089D01*
X101029517Y-112654090D01*
X100976792Y-112745412D01*
X100976793Y-112745413D01*
X100949500Y-112847273D01*
X100949500Y-131953454D01*
X100927826Y-132005780D01*
X99598917Y-133334688D01*
X99546591Y-133356362D01*
X99500954Y-133340613D01*
X99494185Y-133335310D01*
X99494184Y-133335309D01*
X99494180Y-133335306D01*
X99494177Y-133335304D01*
X99494174Y-133335302D01*
X99222364Y-133170988D01*
X99222361Y-133170986D01*
X99222357Y-133170984D01*
X99222355Y-133170983D01*
X98932710Y-133040625D01*
X98629477Y-132946134D01*
X98317046Y-132888878D01*
X98000000Y-132869701D01*
X97682953Y-132888878D01*
X97370522Y-132946134D01*
X97067289Y-133040625D01*
X96777644Y-133170983D01*
X96777635Y-133170988D01*
X96505819Y-133335306D01*
X96255788Y-133531193D01*
X96031193Y-133755788D01*
X95835306Y-134005819D01*
X95670988Y-134277635D01*
X95670983Y-134277644D01*
X95540625Y-134567289D01*
X95446134Y-134870522D01*
X95388878Y-135182953D01*
X95369701Y-135500000D01*
X95388878Y-135817046D01*
X95446134Y-136129477D01*
X95540625Y-136432710D01*
X95540627Y-136432715D01*
X95540628Y-136432717D01*
X95670986Y-136722361D01*
X95835306Y-136994180D01*
X96031193Y-137244211D01*
X96255789Y-137468807D01*
X96505820Y-137664694D01*
X96777639Y-137829014D01*
X97067283Y-137959372D01*
X97370528Y-138053867D01*
X97682952Y-138111121D01*
X98000000Y-138130299D01*
X98317048Y-138111121D01*
X98629472Y-138053867D01*
X98932717Y-137959372D01*
X99222361Y-137829014D01*
X99494180Y-137664694D01*
X99744211Y-137468807D01*
X99968807Y-137244211D01*
X100164694Y-136994180D01*
X100329014Y-136722361D01*
X100459372Y-136432717D01*
X100553867Y-136129472D01*
X100611121Y-135817048D01*
X100630299Y-135500000D01*
X100611121Y-135182952D01*
X100553867Y-134870528D01*
X100459372Y-134567283D01*
X100329014Y-134277639D01*
X100164694Y-134005820D01*
X100159385Y-133999044D01*
X100144175Y-133944490D01*
X100165309Y-133901083D01*
X101670480Y-132395913D01*
X101723206Y-132304588D01*
X101723207Y-132304587D01*
X101750500Y-132202727D01*
X101750500Y-114434105D01*
X102799500Y-114434105D01*
X102799500Y-154040894D01*
X102833606Y-154168181D01*
X102833607Y-154168184D01*
X102833608Y-154168186D01*
X102899500Y-154282314D01*
X102992686Y-154375500D01*
X103106814Y-154441392D01*
X103234105Y-154475499D01*
X103234106Y-154475500D01*
X103234108Y-154475500D01*
X116865894Y-154475500D01*
X116865894Y-154475499D01*
X116993186Y-154441392D01*
X117107314Y-154375500D01*
X117200500Y-154282314D01*
X117266392Y-154168186D01*
X117300499Y-154040894D01*
X117300500Y-154040894D01*
X117300500Y-154000000D01*
X133619701Y-154000000D01*
X133638878Y-154317046D01*
X133696134Y-154629477D01*
X133790625Y-154932710D01*
X133916855Y-155213184D01*
X133920986Y-155222361D01*
X134085306Y-155494180D01*
X134281193Y-155744211D01*
X134505789Y-155968807D01*
X134755820Y-156164694D01*
X135027639Y-156329014D01*
X135317283Y-156459372D01*
X135620528Y-156553867D01*
X135932952Y-156611121D01*
X136250000Y-156630299D01*
X136567048Y-156611121D01*
X136879472Y-156553867D01*
X137182717Y-156459372D01*
X137472361Y-156329014D01*
X137744180Y-156164694D01*
X137994211Y-155968807D01*
X138218807Y-155744211D01*
X138414694Y-155494180D01*
X138579014Y-155222361D01*
X138709372Y-154932717D01*
X138803867Y-154629472D01*
X138861121Y-154317048D01*
X138880299Y-154000000D01*
X138861121Y-153682952D01*
X138803867Y-153370528D01*
X138709372Y-153067283D01*
X138579014Y-152777639D01*
X138414694Y-152505820D01*
X138218807Y-152255789D01*
X137994211Y-152031193D01*
X137744180Y-151835306D01*
X137472361Y-151670986D01*
X137472357Y-151670984D01*
X137472355Y-151670983D01*
X137182710Y-151540625D01*
X136879477Y-151446134D01*
X136567046Y-151388878D01*
X136250000Y-151369701D01*
X135932953Y-151388878D01*
X135620522Y-151446134D01*
X135317289Y-151540625D01*
X135027644Y-151670983D01*
X135027635Y-151670988D01*
X134755819Y-151835306D01*
X134505788Y-152031193D01*
X134281193Y-152255788D01*
X134085306Y-152505819D01*
X133920988Y-152777635D01*
X133920983Y-152777644D01*
X133790625Y-153067289D01*
X133696134Y-153370522D01*
X133638878Y-153682953D01*
X133619701Y-154000000D01*
X117300500Y-154000000D01*
X117300500Y-147500000D01*
X121369701Y-147500000D01*
X121388878Y-147817046D01*
X121446134Y-148129477D01*
X121540625Y-148432710D01*
X121540627Y-148432715D01*
X121540628Y-148432717D01*
X121670986Y-148722361D01*
X121835306Y-148994180D01*
X122031193Y-149244211D01*
X122255789Y-149468807D01*
X122505820Y-149664694D01*
X122777639Y-149829014D01*
X123067283Y-149959372D01*
X123370528Y-150053867D01*
X123682952Y-150111121D01*
X124000000Y-150130299D01*
X124317048Y-150111121D01*
X124629472Y-150053867D01*
X124932717Y-149959372D01*
X125222361Y-149829014D01*
X125494180Y-149664694D01*
X125744211Y-149468807D01*
X125968807Y-149244211D01*
X126164694Y-148994180D01*
X126329014Y-148722361D01*
X126459372Y-148432717D01*
X126553867Y-148129472D01*
X126611121Y-147817048D01*
X126630299Y-147500000D01*
X126611121Y-147182952D01*
X126553867Y-146870528D01*
X126459372Y-146567283D01*
X126329014Y-146277639D01*
X126164694Y-146005820D01*
X125968807Y-145755789D01*
X125744211Y-145531193D01*
X125494180Y-145335306D01*
X125222361Y-145170986D01*
X125222357Y-145170984D01*
X125222355Y-145170983D01*
X124932710Y-145040625D01*
X124629477Y-144946134D01*
X124317046Y-144888878D01*
X124000000Y-144869701D01*
X123682953Y-144888878D01*
X123370522Y-144946134D01*
X123067289Y-145040625D01*
X122777644Y-145170983D01*
X122777635Y-145170988D01*
X122505819Y-145335306D01*
X122255788Y-145531193D01*
X122031193Y-145755788D01*
X121835306Y-146005819D01*
X121670988Y-146277635D01*
X121670983Y-146277644D01*
X121540625Y-146567289D01*
X121446134Y-146870522D01*
X121388878Y-147182953D01*
X121369701Y-147500000D01*
X117300500Y-147500000D01*
X117300500Y-144500000D01*
X132619701Y-144500000D01*
X132638878Y-144817046D01*
X132696134Y-145129477D01*
X132790625Y-145432710D01*
X132790627Y-145432715D01*
X132790628Y-145432717D01*
X132920986Y-145722361D01*
X133085306Y-145994180D01*
X133281193Y-146244211D01*
X133505789Y-146468807D01*
X133755820Y-146664694D01*
X134027639Y-146829014D01*
X134317283Y-146959372D01*
X134620528Y-147053867D01*
X134932952Y-147111121D01*
X135250000Y-147130299D01*
X135567048Y-147111121D01*
X135879472Y-147053867D01*
X136182717Y-146959372D01*
X136472361Y-146829014D01*
X136744180Y-146664694D01*
X136994211Y-146468807D01*
X137218807Y-146244211D01*
X137414694Y-145994180D01*
X137579014Y-145722361D01*
X137709372Y-145432717D01*
X137803867Y-145129472D01*
X137861121Y-144817048D01*
X137880299Y-144500000D01*
X137861121Y-144182952D01*
X137803867Y-143870528D01*
X137709372Y-143567283D01*
X137579014Y-143277639D01*
X137414694Y-143005820D01*
X137218807Y-142755789D01*
X136994211Y-142531193D01*
X136744180Y-142335306D01*
X136472361Y-142170986D01*
X136472357Y-142170984D01*
X136472355Y-142170983D01*
X136182710Y-142040625D01*
X135879477Y-141946134D01*
X135567046Y-141888878D01*
X135250000Y-141869701D01*
X134932953Y-141888878D01*
X134620522Y-141946134D01*
X134317289Y-142040625D01*
X134027644Y-142170983D01*
X134027635Y-142170988D01*
X133755819Y-142335306D01*
X133505788Y-142531193D01*
X133281193Y-142755788D01*
X133085306Y-143005819D01*
X132920988Y-143277635D01*
X132920983Y-143277644D01*
X132790625Y-143567289D01*
X132696134Y-143870522D01*
X132638878Y-144182953D01*
X132619701Y-144500000D01*
X117300500Y-144500000D01*
X117300500Y-138500000D01*
X121369701Y-138500000D01*
X121388878Y-138817046D01*
X121446134Y-139129477D01*
X121540625Y-139432710D01*
X121540627Y-139432715D01*
X121540628Y-139432717D01*
X121670986Y-139722361D01*
X121835306Y-139994180D01*
X122031193Y-140244211D01*
X122255789Y-140468807D01*
X122505820Y-140664694D01*
X122777639Y-140829014D01*
X123067283Y-140959372D01*
X123370528Y-141053867D01*
X123682952Y-141111121D01*
X124000000Y-141130299D01*
X124317048Y-141111121D01*
X124629472Y-141053867D01*
X124932717Y-140959372D01*
X125222361Y-140829014D01*
X125494180Y-140664694D01*
X125744211Y-140468807D01*
X125968807Y-140244211D01*
X126164694Y-139994180D01*
X126329014Y-139722361D01*
X126459372Y-139432717D01*
X126553867Y-139129472D01*
X126611121Y-138817048D01*
X126630299Y-138500000D01*
X126611121Y-138182952D01*
X126553867Y-137870528D01*
X126459372Y-137567283D01*
X126329014Y-137277639D01*
X126164694Y-137005820D01*
X125968807Y-136755789D01*
X125744211Y-136531193D01*
X125494180Y-136335306D01*
X125222361Y-136170986D01*
X125222357Y-136170984D01*
X125222355Y-136170983D01*
X124932710Y-136040625D01*
X124629477Y-135946134D01*
X124317046Y-135888878D01*
X124000000Y-135869701D01*
X123682953Y-135888878D01*
X123370522Y-135946134D01*
X123067289Y-136040625D01*
X122777644Y-136170983D01*
X122777635Y-136170988D01*
X122505819Y-136335306D01*
X122255788Y-136531193D01*
X122031193Y-136755788D01*
X121835306Y-137005819D01*
X121670988Y-137277635D01*
X121670983Y-137277644D01*
X121540625Y-137567289D01*
X121446134Y-137870522D01*
X121388878Y-138182953D01*
X121369701Y-138500000D01*
X117300500Y-138500000D01*
X117300500Y-114434106D01*
X117300499Y-114434105D01*
X117284425Y-114374117D01*
X117266392Y-114306814D01*
X117200500Y-114192686D01*
X117107314Y-114099500D01*
X116993190Y-114033610D01*
X116993181Y-114033606D01*
X116865894Y-113999500D01*
X116865892Y-113999500D01*
X103365892Y-113999500D01*
X103234108Y-113999500D01*
X103234106Y-113999500D01*
X103106818Y-114033606D01*
X103106809Y-114033610D01*
X102992685Y-114099500D01*
X102899500Y-114192685D01*
X102833610Y-114306809D01*
X102833606Y-114306818D01*
X102799500Y-114434105D01*
X101750500Y-114434105D01*
X101750500Y-113096544D01*
X101772174Y-113044218D01*
X105594218Y-109222174D01*
X105646544Y-109200500D01*
X123002726Y-109200500D01*
X123002727Y-109200500D01*
X123104588Y-109173207D01*
X123195913Y-109120480D01*
X125095910Y-107220481D01*
X125095913Y-107220480D01*
X125170480Y-107145913D01*
X125208812Y-107079520D01*
X125223207Y-107054588D01*
X125250500Y-106952727D01*
X125250500Y-106847273D01*
X125250500Y-101576947D01*
X125272173Y-101524622D01*
X126416011Y-100380784D01*
X126416014Y-100380783D01*
X129914624Y-96882174D01*
X129966950Y-96860500D01*
X137355435Y-96860500D01*
X137407761Y-96882174D01*
X141948686Y-101423099D01*
X141970360Y-101475425D01*
X141948686Y-101527751D01*
X141946692Y-101529671D01*
X141940331Y-101535573D01*
X141887231Y-101555275D01*
X141839666Y-101535573D01*
X141676965Y-101384608D01*
X141467620Y-101241879D01*
X141295397Y-101158941D01*
X141239346Y-101131948D01*
X141239342Y-101131946D01*
X141239341Y-101131946D01*
X141239336Y-101131944D01*
X141239332Y-101131943D01*
X140997226Y-101057262D01*
X140997227Y-101057262D01*
X140746691Y-101019500D01*
X140746685Y-101019500D01*
X140728625Y-101019500D01*
X140676299Y-100997826D01*
X139100644Y-99422171D01*
X137217994Y-97539520D01*
X137217991Y-97539518D01*
X137217990Y-97539517D01*
X137126673Y-97486795D01*
X137126669Y-97486793D01*
X137126662Y-97486791D01*
X137024808Y-97459500D01*
X137024807Y-97459500D01*
X130407577Y-97459500D01*
X130407561Y-97459499D01*
X130403031Y-97459499D01*
X130297577Y-97459499D01*
X130297575Y-97459499D01*
X130195720Y-97486791D01*
X130195715Y-97486793D01*
X130104390Y-97539520D01*
X130029822Y-97614089D01*
X128211330Y-99432579D01*
X128211329Y-99432580D01*
X125929517Y-101714393D01*
X125876795Y-101805710D01*
X125876792Y-101805718D01*
X125870714Y-101828398D01*
X125870715Y-101828399D01*
X125849500Y-101907577D01*
X125849500Y-116553454D01*
X125827826Y-116605780D01*
X125098917Y-117334688D01*
X125046591Y-117356362D01*
X125000954Y-117340613D01*
X124994185Y-117335310D01*
X124994180Y-117335306D01*
X124994177Y-117335304D01*
X124994174Y-117335302D01*
X124722364Y-117170988D01*
X124722361Y-117170986D01*
X124722357Y-117170984D01*
X124722355Y-117170983D01*
X124529527Y-117084199D01*
X124432717Y-117040628D01*
X124432715Y-117040627D01*
X124432710Y-117040625D01*
X124129477Y-116946134D01*
X123817046Y-116888878D01*
X123500000Y-116869701D01*
X123182953Y-116888878D01*
X122870522Y-116946134D01*
X122567289Y-117040625D01*
X122277644Y-117170983D01*
X122277635Y-117170988D01*
X122005819Y-117335306D01*
X121755788Y-117531193D01*
X121531193Y-117755788D01*
X121335306Y-118005819D01*
X121170988Y-118277635D01*
X121170983Y-118277644D01*
X121040625Y-118567289D01*
X120946134Y-118870522D01*
X120888878Y-119182953D01*
X120869701Y-119500000D01*
X120888878Y-119817046D01*
X120946134Y-120129477D01*
X121040625Y-120432710D01*
X121137191Y-120647273D01*
X121170986Y-120722361D01*
X121335306Y-120994180D01*
X121531193Y-121244211D01*
X121755789Y-121468807D01*
X122005820Y-121664694D01*
X122277639Y-121829014D01*
X122567283Y-121959372D01*
X122870528Y-122053867D01*
X123182952Y-122111121D01*
X123500000Y-122130299D01*
X123817048Y-122111121D01*
X124129472Y-122053867D01*
X124432717Y-121959372D01*
X124722361Y-121829014D01*
X124994180Y-121664694D01*
X125244211Y-121468807D01*
X125468807Y-121244211D01*
X125664694Y-120994180D01*
X125829014Y-120722361D01*
X125959372Y-120432717D01*
X126053867Y-120129472D01*
X126111121Y-119817048D01*
X126130299Y-119500000D01*
X126111121Y-119182952D01*
X126053867Y-118870528D01*
X126006619Y-118718905D01*
X125959374Y-118567289D01*
X125959373Y-118567288D01*
X125959372Y-118567283D01*
X125829014Y-118277639D01*
X125664694Y-118005820D01*
X125659385Y-117999044D01*
X125644175Y-117944490D01*
X125665309Y-117901083D01*
X126570480Y-116995913D01*
X126623207Y-116904588D01*
X126650500Y-116802727D01*
X126650500Y-116697273D01*
X126650500Y-102156848D01*
X126672174Y-102104522D01*
X127735136Y-101041560D01*
X128788131Y-99988565D01*
X128788130Y-99988565D01*
X130494523Y-98282174D01*
X130546849Y-98260500D01*
X136775536Y-98260500D01*
X136827862Y-98282174D01*
X139718256Y-101172567D01*
X139739930Y-101224893D01*
X139718256Y-101277219D01*
X139707620Y-101286031D01*
X139618865Y-101346544D01*
X139563034Y-101384609D01*
X139400333Y-101535573D01*
X139347233Y-101555275D01*
X139299667Y-101535573D01*
X139251303Y-101490698D01*
X139136965Y-101384608D01*
X138927620Y-101241879D01*
X138755397Y-101158941D01*
X138699346Y-101131948D01*
X138699342Y-101131946D01*
X138699341Y-101131946D01*
X138699336Y-101131944D01*
X138699332Y-101131943D01*
X138457226Y-101057262D01*
X138457227Y-101057262D01*
X138206691Y-101019500D01*
X138206685Y-101019500D01*
X137953315Y-101019500D01*
X137953308Y-101019500D01*
X137702782Y-101057260D01*
X137702770Y-101057263D01*
X137694062Y-101059949D01*
X137637673Y-101054655D01*
X137619932Y-101041560D01*
X136825404Y-100247032D01*
X135517892Y-98939520D01*
X135517889Y-98939518D01*
X135517888Y-98939517D01*
X135426571Y-98886795D01*
X135426567Y-98886793D01*
X135426560Y-98886791D01*
X135324706Y-98859500D01*
X130982929Y-98859500D01*
X130877475Y-98859500D01*
X130826544Y-98873146D01*
X130775613Y-98886793D01*
X130775609Y-98886795D01*
X130684292Y-98939517D01*
X127429517Y-102194292D01*
X127376792Y-102285614D01*
X127376793Y-102285615D01*
X127349500Y-102387475D01*
X127349500Y-125553454D01*
X127327826Y-125605780D01*
X125598917Y-127334688D01*
X125546591Y-127356362D01*
X125500954Y-127340613D01*
X125494185Y-127335310D01*
X125494184Y-127335309D01*
X125494180Y-127335306D01*
X125494177Y-127335304D01*
X125494174Y-127335302D01*
X125222364Y-127170988D01*
X125222361Y-127170986D01*
X125222357Y-127170984D01*
X125222355Y-127170983D01*
X124932710Y-127040625D01*
X124629477Y-126946134D01*
X124317046Y-126888878D01*
X124000000Y-126869701D01*
X123682953Y-126888878D01*
X123370522Y-126946134D01*
X123067289Y-127040625D01*
X122777644Y-127170983D01*
X122777635Y-127170988D01*
X122505819Y-127335306D01*
X122255788Y-127531193D01*
X122031193Y-127755788D01*
X121835306Y-128005819D01*
X121670988Y-128277635D01*
X121670983Y-128277644D01*
X121540625Y-128567289D01*
X121446134Y-128870522D01*
X121388878Y-129182953D01*
X121369701Y-129500000D01*
X121388878Y-129817046D01*
X121446134Y-130129477D01*
X121540625Y-130432710D01*
X121540627Y-130432715D01*
X121540628Y-130432717D01*
X121670986Y-130722361D01*
X121835306Y-130994180D01*
X122031193Y-131244211D01*
X122255789Y-131468807D01*
X122505820Y-131664694D01*
X122777639Y-131829014D01*
X123067283Y-131959372D01*
X123370528Y-132053867D01*
X123682952Y-132111121D01*
X124000000Y-132130299D01*
X124317048Y-132111121D01*
X124629472Y-132053867D01*
X124932717Y-131959372D01*
X125222361Y-131829014D01*
X125494180Y-131664694D01*
X125744211Y-131468807D01*
X125968807Y-131244211D01*
X126164694Y-130994180D01*
X126329014Y-130722361D01*
X126459372Y-130432717D01*
X126553867Y-130129472D01*
X126611121Y-129817048D01*
X126630299Y-129500000D01*
X126611121Y-129182952D01*
X126553867Y-128870528D01*
X126459372Y-128567283D01*
X126329014Y-128277639D01*
X126164694Y-128005820D01*
X126159385Y-127999044D01*
X126144175Y-127944490D01*
X126165309Y-127901082D01*
X128070480Y-125995913D01*
X128123207Y-125904588D01*
X128150500Y-125802727D01*
X128150500Y-125697273D01*
X128150500Y-102636747D01*
X128172174Y-102584421D01*
X131074421Y-99682174D01*
X131126747Y-99660500D01*
X135075434Y-99660500D01*
X135127760Y-99682174D01*
X136868686Y-101423100D01*
X136890360Y-101475426D01*
X136868686Y-101527752D01*
X136866705Y-101529660D01*
X136863503Y-101532631D01*
X136860327Y-101535578D01*
X136807225Y-101555275D01*
X136759666Y-101535573D01*
X136596965Y-101384608D01*
X136387620Y-101241879D01*
X136215397Y-101158941D01*
X136159346Y-101131948D01*
X136159342Y-101131946D01*
X136159341Y-101131946D01*
X136159336Y-101131944D01*
X136159332Y-101131943D01*
X135917226Y-101057262D01*
X135917227Y-101057262D01*
X135666691Y-101019500D01*
X135666685Y-101019500D01*
X135648625Y-101019500D01*
X135596299Y-100997826D01*
X135312792Y-100714319D01*
X134937994Y-100339520D01*
X134937991Y-100339518D01*
X134937990Y-100339517D01*
X134846673Y-100286795D01*
X134846669Y-100286793D01*
X134846662Y-100286791D01*
X134744808Y-100259500D01*
X131457374Y-100259500D01*
X131457372Y-100259500D01*
X131355518Y-100286791D01*
X131355509Y-100286795D01*
X131290744Y-100324188D01*
X131264187Y-100339520D01*
X128929517Y-102674191D01*
X128876792Y-102765513D01*
X128876793Y-102765514D01*
X128849500Y-102867374D01*
X128849500Y-129447273D01*
X128849500Y-129552727D01*
X128876793Y-129654588D01*
X128876795Y-129654592D01*
X128929517Y-129745909D01*
X128929518Y-129745910D01*
X128929520Y-129745913D01*
X131012618Y-131829011D01*
X133084688Y-133901081D01*
X133106362Y-133953407D01*
X133090615Y-133999042D01*
X133085313Y-134005809D01*
X133085309Y-134005815D01*
X132920988Y-134277635D01*
X132920983Y-134277644D01*
X132790625Y-134567289D01*
X132696134Y-134870522D01*
X132638878Y-135182953D01*
X132619701Y-135500000D01*
X132638878Y-135817046D01*
X132696134Y-136129477D01*
X132790625Y-136432710D01*
X132790627Y-136432715D01*
X132790628Y-136432717D01*
X132920986Y-136722361D01*
X133085306Y-136994180D01*
X133281193Y-137244211D01*
X133505789Y-137468807D01*
X133755820Y-137664694D01*
X134027639Y-137829014D01*
X134317283Y-137959372D01*
X134620528Y-138053867D01*
X134932952Y-138111121D01*
X135250000Y-138130299D01*
X135567048Y-138111121D01*
X135879472Y-138053867D01*
X136182717Y-137959372D01*
X136472361Y-137829014D01*
X136744180Y-137664694D01*
X136994211Y-137468807D01*
X137218807Y-137244211D01*
X137414694Y-136994180D01*
X137579014Y-136722361D01*
X137709372Y-136432717D01*
X137803867Y-136129472D01*
X137861121Y-135817048D01*
X137880299Y-135500000D01*
X137861121Y-135182952D01*
X137803867Y-134870528D01*
X137709372Y-134567283D01*
X137579014Y-134277639D01*
X137414694Y-134005820D01*
X137218807Y-133755789D01*
X136994211Y-133531193D01*
X136744180Y-133335306D01*
X136472361Y-133170986D01*
X136472357Y-133170984D01*
X136472355Y-133170983D01*
X136182710Y-133040625D01*
X135879477Y-132946134D01*
X135567046Y-132888878D01*
X135250000Y-132869701D01*
X134932953Y-132888878D01*
X134620522Y-132946134D01*
X134317289Y-133040625D01*
X134027644Y-133170983D01*
X134027635Y-133170988D01*
X133755815Y-133335309D01*
X133755809Y-133335313D01*
X133749042Y-133340615D01*
X133694484Y-133355822D01*
X133651081Y-133334688D01*
X129672174Y-129355781D01*
X129650500Y-129303455D01*
X129650500Y-103116646D01*
X129672174Y-103064320D01*
X131654320Y-101082174D01*
X131706646Y-101060500D01*
X132204803Y-101060500D01*
X132257129Y-101082174D01*
X132278803Y-101134500D01*
X132257129Y-101186826D01*
X132236911Y-101201170D01*
X132152380Y-101241879D01*
X131998865Y-101346544D01*
X131943034Y-101384609D01*
X131757304Y-101556940D01*
X131599324Y-101755040D01*
X131599323Y-101755042D01*
X131472641Y-101974464D01*
X131380076Y-102210317D01*
X131380073Y-102210326D01*
X131365414Y-102274545D01*
X131332639Y-102320736D01*
X131312423Y-102329555D01*
X131285416Y-102336791D01*
X131285411Y-102336793D01*
X131216131Y-102376793D01*
X131194086Y-102389520D01*
X130429517Y-103154090D01*
X130376792Y-103245412D01*
X130376793Y-103245413D01*
X130349500Y-103347273D01*
X130349500Y-121947273D01*
X130349500Y-122052727D01*
X130370285Y-122130298D01*
X130376793Y-122154588D01*
X130376795Y-122154592D01*
X130429517Y-122245909D01*
X130429518Y-122245910D01*
X130429520Y-122245913D01*
X132053308Y-123869701D01*
X133084688Y-124901081D01*
X133106362Y-124953407D01*
X133090615Y-124999042D01*
X133085313Y-125005809D01*
X133085309Y-125005815D01*
X132920988Y-125277635D01*
X132920983Y-125277644D01*
X132790625Y-125567289D01*
X132696134Y-125870522D01*
X132638878Y-126182953D01*
X132619701Y-126500000D01*
X132638878Y-126817046D01*
X132696134Y-127129477D01*
X132790625Y-127432710D01*
X132790627Y-127432715D01*
X132790628Y-127432717D01*
X132920986Y-127722361D01*
X133085306Y-127994180D01*
X133281193Y-128244211D01*
X133505789Y-128468807D01*
X133755820Y-128664694D01*
X134027639Y-128829014D01*
X134317283Y-128959372D01*
X134620528Y-129053867D01*
X134932952Y-129111121D01*
X135250000Y-129130299D01*
X135567048Y-129111121D01*
X135879472Y-129053867D01*
X136182717Y-128959372D01*
X136472361Y-128829014D01*
X136744180Y-128664694D01*
X136994211Y-128468807D01*
X137218807Y-128244211D01*
X137414694Y-127994180D01*
X137579014Y-127722361D01*
X137709372Y-127432717D01*
X137803867Y-127129472D01*
X137861121Y-126817048D01*
X137880299Y-126500000D01*
X137861121Y-126182952D01*
X137803867Y-125870528D01*
X137709372Y-125567283D01*
X137579014Y-125277639D01*
X137414694Y-125005820D01*
X137218807Y-124755789D01*
X136994211Y-124531193D01*
X136744180Y-124335306D01*
X136472361Y-124170986D01*
X136472357Y-124170984D01*
X136472355Y-124170983D01*
X136182710Y-124040625D01*
X135879477Y-123946134D01*
X135567046Y-123888878D01*
X135250000Y-123869701D01*
X134932953Y-123888878D01*
X134620522Y-123946134D01*
X134317289Y-124040625D01*
X134027644Y-124170983D01*
X134027635Y-124170988D01*
X133755815Y-124335309D01*
X133755809Y-124335313D01*
X133749042Y-124340615D01*
X133694484Y-124355822D01*
X133651081Y-124334688D01*
X131172174Y-121855781D01*
X131150500Y-121803455D01*
X131150500Y-114309105D01*
X140499500Y-114309105D01*
X140499500Y-153690894D01*
X140533606Y-153818181D01*
X140533610Y-153818190D01*
X140599500Y-153932314D01*
X140692686Y-154025500D01*
X140806814Y-154091392D01*
X140934105Y-154125499D01*
X140934106Y-154125500D01*
X140934108Y-154125500D01*
X154565894Y-154125500D01*
X154565894Y-154125499D01*
X154693186Y-154091392D01*
X154807314Y-154025500D01*
X154832814Y-154000000D01*
X171369701Y-154000000D01*
X171388878Y-154317046D01*
X171446134Y-154629477D01*
X171540625Y-154932710D01*
X171666855Y-155213184D01*
X171670986Y-155222361D01*
X171835306Y-155494180D01*
X172031193Y-155744211D01*
X172255789Y-155968807D01*
X172505820Y-156164694D01*
X172777639Y-156329014D01*
X173067283Y-156459372D01*
X173370528Y-156553867D01*
X173682952Y-156611121D01*
X174000000Y-156630299D01*
X174317048Y-156611121D01*
X174629472Y-156553867D01*
X174932717Y-156459372D01*
X175222361Y-156329014D01*
X175494180Y-156164694D01*
X175744211Y-155968807D01*
X175968807Y-155744211D01*
X176164694Y-155494180D01*
X176329014Y-155222361D01*
X176459372Y-154932717D01*
X176553867Y-154629472D01*
X176577594Y-154500000D01*
X197544958Y-154500000D01*
X197565111Y-154858853D01*
X197565113Y-154858865D01*
X197625313Y-155213184D01*
X197724815Y-155558560D01*
X197862352Y-155890607D01*
X197862363Y-155890628D01*
X198036206Y-156205173D01*
X198036210Y-156205180D01*
X198244199Y-156498313D01*
X198350213Y-156616942D01*
X199485502Y-155481652D01*
X199529588Y-155542330D01*
X199707670Y-155720412D01*
X199768346Y-155764495D01*
X198633055Y-156899786D01*
X198751681Y-157005796D01*
X199044819Y-157213789D01*
X199044826Y-157213793D01*
X199359371Y-157387636D01*
X199359392Y-157387647D01*
X199691439Y-157525184D01*
X200036816Y-157624686D01*
X200036814Y-157624686D01*
X200391134Y-157684886D01*
X200391146Y-157684888D01*
X200750000Y-157705041D01*
X201108853Y-157684888D01*
X201108865Y-157684886D01*
X201463184Y-157624686D01*
X201808560Y-157525184D01*
X202140607Y-157387647D01*
X202140628Y-157387636D01*
X202455173Y-157213793D01*
X202455180Y-157213789D01*
X202748318Y-157005796D01*
X202866942Y-156899786D01*
X202866943Y-156899786D01*
X201731653Y-155764496D01*
X201792330Y-155720412D01*
X201970412Y-155542330D01*
X202014496Y-155481653D01*
X203149786Y-156616943D01*
X203149786Y-156616942D01*
X203255796Y-156498318D01*
X203463789Y-156205180D01*
X203463793Y-156205173D01*
X203637636Y-155890628D01*
X203637647Y-155890607D01*
X203775184Y-155558560D01*
X203874686Y-155213184D01*
X203934886Y-154858865D01*
X203934888Y-154858853D01*
X203955041Y-154500000D01*
X203934888Y-154141146D01*
X203934886Y-154141134D01*
X203874686Y-153786815D01*
X203775184Y-153441439D01*
X203637647Y-153109392D01*
X203637636Y-153109371D01*
X203463793Y-152794826D01*
X203463789Y-152794819D01*
X203255796Y-152501681D01*
X203149786Y-152383056D01*
X203149786Y-152383055D01*
X202014495Y-153518345D01*
X201970412Y-153457670D01*
X201792330Y-153279588D01*
X201731652Y-153235502D01*
X202866942Y-152100213D01*
X202748313Y-151994199D01*
X202455180Y-151786210D01*
X202455173Y-151786206D01*
X202140628Y-151612363D01*
X202140607Y-151612352D01*
X201808560Y-151474815D01*
X201463183Y-151375313D01*
X201463185Y-151375313D01*
X201108865Y-151315113D01*
X201108853Y-151315111D01*
X200750000Y-151294958D01*
X200391146Y-151315111D01*
X200391134Y-151315113D01*
X200036815Y-151375313D01*
X199691439Y-151474815D01*
X199359392Y-151612352D01*
X199359371Y-151612363D01*
X199044826Y-151786206D01*
X199044819Y-151786210D01*
X198751686Y-151994199D01*
X198633055Y-152100212D01*
X199768346Y-153235503D01*
X199707670Y-153279588D01*
X199529588Y-153457670D01*
X199485503Y-153518346D01*
X198350212Y-152383055D01*
X198244199Y-152501686D01*
X198036210Y-152794819D01*
X198036206Y-152794826D01*
X197862363Y-153109371D01*
X197862352Y-153109392D01*
X197724815Y-153441439D01*
X197625313Y-153786815D01*
X197565113Y-154141134D01*
X197565111Y-154141146D01*
X197544958Y-154500000D01*
X176577594Y-154500000D01*
X176611121Y-154317048D01*
X176630299Y-154000000D01*
X176611121Y-153682952D01*
X176553867Y-153370528D01*
X176459372Y-153067283D01*
X176329014Y-152777639D01*
X176164694Y-152505820D01*
X175968807Y-152255789D01*
X175744211Y-152031193D01*
X175494180Y-151835306D01*
X175222361Y-151670986D01*
X175222357Y-151670984D01*
X175222355Y-151670983D01*
X174932710Y-151540625D01*
X174629477Y-151446134D01*
X174317046Y-151388878D01*
X174000000Y-151369701D01*
X173682953Y-151388878D01*
X173370522Y-151446134D01*
X173067289Y-151540625D01*
X172777644Y-151670983D01*
X172777635Y-151670988D01*
X172505819Y-151835306D01*
X172255788Y-152031193D01*
X172031193Y-152255788D01*
X171835306Y-152505819D01*
X171670988Y-152777635D01*
X171670983Y-152777644D01*
X171540625Y-153067289D01*
X171446134Y-153370522D01*
X171388878Y-153682953D01*
X171369701Y-154000000D01*
X154832814Y-154000000D01*
X154900500Y-153932314D01*
X154966392Y-153818186D01*
X155000499Y-153690894D01*
X155000500Y-153690894D01*
X155000500Y-147000000D01*
X159119701Y-147000000D01*
X159138878Y-147317046D01*
X159196134Y-147629477D01*
X159290625Y-147932710D01*
X159290627Y-147932715D01*
X159290628Y-147932717D01*
X159420986Y-148222361D01*
X159585306Y-148494180D01*
X159781193Y-148744211D01*
X160005789Y-148968807D01*
X160255820Y-149164694D01*
X160527639Y-149329014D01*
X160817283Y-149459372D01*
X160817288Y-149459373D01*
X160817289Y-149459374D01*
X160847561Y-149468807D01*
X161120528Y-149553867D01*
X161432952Y-149611121D01*
X161750000Y-149630299D01*
X162067048Y-149611121D01*
X162379472Y-149553867D01*
X162682717Y-149459372D01*
X162972361Y-149329014D01*
X163244180Y-149164694D01*
X163494211Y-148968807D01*
X163718807Y-148744211D01*
X163914694Y-148494180D01*
X164079014Y-148222361D01*
X164209372Y-147932717D01*
X164303867Y-147629472D01*
X164361121Y-147317048D01*
X164380299Y-147000000D01*
X164361121Y-146682952D01*
X164303867Y-146370528D01*
X164209372Y-146067283D01*
X164079014Y-145777639D01*
X163914694Y-145505820D01*
X163718807Y-145255789D01*
X163494211Y-145031193D01*
X163244180Y-144835306D01*
X162972361Y-144670986D01*
X162972357Y-144670984D01*
X162972355Y-144670983D01*
X162682710Y-144540625D01*
X162552339Y-144500000D01*
X170369701Y-144500000D01*
X170388878Y-144817046D01*
X170446134Y-145129477D01*
X170540625Y-145432710D01*
X170540627Y-145432715D01*
X170540628Y-145432717D01*
X170670986Y-145722361D01*
X170835306Y-145994180D01*
X171031193Y-146244211D01*
X171255789Y-146468807D01*
X171505820Y-146664694D01*
X171777639Y-146829014D01*
X172067283Y-146959372D01*
X172370528Y-147053867D01*
X172682952Y-147111121D01*
X173000000Y-147130299D01*
X173317048Y-147111121D01*
X173629472Y-147053867D01*
X173932717Y-146959372D01*
X174222361Y-146829014D01*
X174494180Y-146664694D01*
X174744211Y-146468807D01*
X174968807Y-146244211D01*
X175164694Y-145994180D01*
X175329014Y-145722361D01*
X175459372Y-145432717D01*
X175553867Y-145129472D01*
X175611121Y-144817048D01*
X175630299Y-144500000D01*
X175611121Y-144182952D01*
X175553867Y-143870528D01*
X175459372Y-143567283D01*
X175329014Y-143277639D01*
X175164694Y-143005820D01*
X174968807Y-142755789D01*
X174744211Y-142531193D01*
X174494180Y-142335306D01*
X174222361Y-142170986D01*
X174222357Y-142170984D01*
X174222355Y-142170983D01*
X173932710Y-142040625D01*
X173629477Y-141946134D01*
X173317046Y-141888878D01*
X173000000Y-141869701D01*
X172682953Y-141888878D01*
X172370522Y-141946134D01*
X172067289Y-142040625D01*
X171777644Y-142170983D01*
X171777635Y-142170988D01*
X171505819Y-142335306D01*
X171255788Y-142531193D01*
X171031193Y-142755788D01*
X170835306Y-143005819D01*
X170670988Y-143277635D01*
X170670983Y-143277644D01*
X170540625Y-143567289D01*
X170446134Y-143870522D01*
X170388878Y-144182953D01*
X170369701Y-144500000D01*
X162552339Y-144500000D01*
X162379477Y-144446134D01*
X162067046Y-144388878D01*
X161750000Y-144369701D01*
X161432953Y-144388878D01*
X161120522Y-144446134D01*
X160817289Y-144540625D01*
X160527644Y-144670983D01*
X160527635Y-144670988D01*
X160255819Y-144835306D01*
X160005788Y-145031193D01*
X159781193Y-145255788D01*
X159585306Y-145505819D01*
X159420988Y-145777635D01*
X159420983Y-145777644D01*
X159290625Y-146067289D01*
X159196134Y-146370522D01*
X159138878Y-146682953D01*
X159119701Y-147000000D01*
X155000500Y-147000000D01*
X155000500Y-138500000D01*
X159119701Y-138500000D01*
X159138878Y-138817046D01*
X159196134Y-139129477D01*
X159290625Y-139432710D01*
X159290627Y-139432715D01*
X159290628Y-139432717D01*
X159420986Y-139722361D01*
X159585306Y-139994180D01*
X159781193Y-140244211D01*
X160005789Y-140468807D01*
X160255820Y-140664694D01*
X160527639Y-140829014D01*
X160817283Y-140959372D01*
X161120528Y-141053867D01*
X161432952Y-141111121D01*
X161750000Y-141130299D01*
X162067048Y-141111121D01*
X162379472Y-141053867D01*
X162682717Y-140959372D01*
X162972361Y-140829014D01*
X163244180Y-140664694D01*
X163494211Y-140468807D01*
X163718807Y-140244211D01*
X163914694Y-139994180D01*
X164079014Y-139722361D01*
X164209372Y-139432717D01*
X164303867Y-139129472D01*
X164361121Y-138817048D01*
X164380299Y-138500000D01*
X164361121Y-138182952D01*
X164303867Y-137870528D01*
X164209372Y-137567283D01*
X164079014Y-137277639D01*
X163914694Y-137005820D01*
X163718807Y-136755789D01*
X163494211Y-136531193D01*
X163244180Y-136335306D01*
X162972361Y-136170986D01*
X162972357Y-136170984D01*
X162972355Y-136170983D01*
X162682710Y-136040625D01*
X162379477Y-135946134D01*
X162067046Y-135888878D01*
X161750000Y-135869701D01*
X161432953Y-135888878D01*
X161120522Y-135946134D01*
X160817289Y-136040625D01*
X160527644Y-136170983D01*
X160527635Y-136170988D01*
X160255819Y-136335306D01*
X160005788Y-136531193D01*
X159781193Y-136755788D01*
X159585306Y-137005819D01*
X159420988Y-137277635D01*
X159420983Y-137277644D01*
X159290625Y-137567289D01*
X159196134Y-137870522D01*
X159138878Y-138182953D01*
X159119701Y-138500000D01*
X155000500Y-138500000D01*
X155000500Y-114309106D01*
X155000499Y-114309105D01*
X154966393Y-114181818D01*
X154966392Y-114181814D01*
X154900500Y-114067686D01*
X154807314Y-113974500D01*
X154694589Y-113909418D01*
X154693190Y-113908610D01*
X154693181Y-113908606D01*
X154565894Y-113874500D01*
X154565892Y-113874500D01*
X141065892Y-113874500D01*
X140934108Y-113874500D01*
X140934106Y-113874500D01*
X140806818Y-113908606D01*
X140806809Y-113908610D01*
X140692685Y-113974500D01*
X140599500Y-114067685D01*
X140533610Y-114181809D01*
X140533606Y-114181818D01*
X140499500Y-114309105D01*
X131150500Y-114309105D01*
X131150500Y-112359435D01*
X135262888Y-112359435D01*
X158153245Y-112359435D01*
X158153245Y-108467735D01*
X135262888Y-108467735D01*
X135262888Y-112359435D01*
X131150500Y-112359435D01*
X131150500Y-103596544D01*
X131172173Y-103544219D01*
X131335849Y-103380542D01*
X131388175Y-103358869D01*
X131440501Y-103380543D01*
X131457059Y-103405833D01*
X131472642Y-103445537D01*
X131599327Y-103664963D01*
X131599329Y-103664966D01*
X131599330Y-103664967D01*
X131599332Y-103664971D01*
X131601620Y-103667839D01*
X131617304Y-103722261D01*
X131590132Y-103771658D01*
X131552172Y-103802171D01*
X131437634Y-103944663D01*
X131356405Y-104108447D01*
X131312283Y-104285867D01*
X131309500Y-104326912D01*
X131309500Y-106173072D01*
X131309501Y-106173082D01*
X131312284Y-106214137D01*
X131356405Y-106391552D01*
X131437634Y-106555336D01*
X131552172Y-106697828D01*
X131694664Y-106812366D01*
X131858448Y-106893595D01*
X132035863Y-106937716D01*
X132076917Y-106940500D01*
X133923082Y-106940499D01*
X133964137Y-106937716D01*
X134141552Y-106893595D01*
X134305336Y-106812366D01*
X134447828Y-106697828D01*
X134481015Y-106656540D01*
X134530690Y-106629335D01*
X134580377Y-106641759D01*
X134670869Y-106703455D01*
X134692380Y-106718121D01*
X134920659Y-106828054D01*
X135066553Y-106873056D01*
X135162773Y-106902737D01*
X135162772Y-106902737D01*
X135394844Y-106937716D01*
X135413315Y-106940500D01*
X135413317Y-106940500D01*
X135666683Y-106940500D01*
X135666685Y-106940500D01*
X135917226Y-106902737D01*
X136159341Y-106828054D01*
X136387620Y-106718121D01*
X136596965Y-106575392D01*
X136759668Y-106424425D01*
X136812767Y-106404724D01*
X136860331Y-106424425D01*
X137023035Y-106575392D01*
X137232380Y-106718121D01*
X137460659Y-106828054D01*
X137606553Y-106873056D01*
X137702773Y-106902737D01*
X137702772Y-106902737D01*
X137934844Y-106937716D01*
X137953315Y-106940500D01*
X137953317Y-106940500D01*
X138206683Y-106940500D01*
X138206685Y-106940500D01*
X138457226Y-106902737D01*
X138699341Y-106828054D01*
X138927620Y-106718121D01*
X139136965Y-106575392D01*
X139299668Y-106424425D01*
X139352767Y-106404724D01*
X139400331Y-106424425D01*
X139563035Y-106575392D01*
X139772380Y-106718121D01*
X140000659Y-106828054D01*
X140146553Y-106873056D01*
X140242773Y-106902737D01*
X140242772Y-106902737D01*
X140474844Y-106937716D01*
X140493315Y-106940500D01*
X140493317Y-106940500D01*
X140746683Y-106940500D01*
X140746685Y-106940500D01*
X140997226Y-106902737D01*
X141239341Y-106828054D01*
X141467620Y-106718121D01*
X141676965Y-106575392D01*
X141839668Y-106424425D01*
X141892767Y-106404724D01*
X141940331Y-106424425D01*
X142103035Y-106575392D01*
X142312380Y-106718121D01*
X142540659Y-106828054D01*
X142686553Y-106873056D01*
X142782773Y-106902737D01*
X142782772Y-106902737D01*
X143014844Y-106937716D01*
X143033315Y-106940500D01*
X143033317Y-106940500D01*
X143286683Y-106940500D01*
X143286685Y-106940500D01*
X143537226Y-106902737D01*
X143779341Y-106828054D01*
X144007620Y-106718121D01*
X144216965Y-106575392D01*
X144379668Y-106424425D01*
X144432767Y-106404724D01*
X144480331Y-106424425D01*
X144643035Y-106575392D01*
X144852380Y-106718121D01*
X145080659Y-106828054D01*
X145226553Y-106873056D01*
X145322773Y-106902737D01*
X145322772Y-106902737D01*
X145554844Y-106937716D01*
X145573315Y-106940500D01*
X145573317Y-106940500D01*
X145826683Y-106940500D01*
X145826685Y-106940500D01*
X146077226Y-106902737D01*
X146319341Y-106828054D01*
X146547620Y-106718121D01*
X146756965Y-106575392D01*
X146919668Y-106424425D01*
X146972767Y-106404724D01*
X147020331Y-106424425D01*
X147183035Y-106575392D01*
X147392380Y-106718121D01*
X147620659Y-106828054D01*
X147766553Y-106873056D01*
X147862773Y-106902737D01*
X147862772Y-106902737D01*
X148094844Y-106937716D01*
X148113315Y-106940500D01*
X148113317Y-106940500D01*
X148366683Y-106940500D01*
X148366685Y-106940500D01*
X148617226Y-106902737D01*
X148859341Y-106828054D01*
X149087620Y-106718121D01*
X149296965Y-106575392D01*
X149459668Y-106424425D01*
X149512767Y-106404724D01*
X149560331Y-106424425D01*
X149723035Y-106575392D01*
X149932380Y-106718121D01*
X150160659Y-106828054D01*
X150306553Y-106873056D01*
X150402773Y-106902737D01*
X150402772Y-106902737D01*
X150634844Y-106937716D01*
X150653315Y-106940500D01*
X150653317Y-106940500D01*
X150906683Y-106940500D01*
X150906685Y-106940500D01*
X151157226Y-106902737D01*
X151399341Y-106828054D01*
X151627620Y-106718121D01*
X151836965Y-106575392D01*
X151999668Y-106424425D01*
X152052767Y-106404724D01*
X152100331Y-106424425D01*
X152263035Y-106575392D01*
X152472380Y-106718121D01*
X152700659Y-106828054D01*
X152846553Y-106873056D01*
X152942773Y-106902737D01*
X152942772Y-106902737D01*
X153174844Y-106937716D01*
X153193315Y-106940500D01*
X153193317Y-106940500D01*
X153446683Y-106940500D01*
X153446685Y-106940500D01*
X153697226Y-106902737D01*
X153939341Y-106828054D01*
X154167620Y-106718121D01*
X154376965Y-106575392D01*
X154539668Y-106424425D01*
X154592767Y-106404724D01*
X154640331Y-106424425D01*
X154803035Y-106575392D01*
X155012380Y-106718121D01*
X155240659Y-106828054D01*
X155386553Y-106873056D01*
X155482773Y-106902737D01*
X155482772Y-106902737D01*
X155714844Y-106937716D01*
X155733315Y-106940500D01*
X155733317Y-106940500D01*
X155986683Y-106940500D01*
X155986685Y-106940500D01*
X156237226Y-106902737D01*
X156479341Y-106828054D01*
X156707620Y-106718121D01*
X156916965Y-106575392D01*
X157079668Y-106424425D01*
X157132767Y-106404724D01*
X157180331Y-106424425D01*
X157343035Y-106575392D01*
X157552380Y-106718121D01*
X157780659Y-106828054D01*
X157926553Y-106873056D01*
X158022773Y-106902737D01*
X158022772Y-106902737D01*
X158254844Y-106937716D01*
X158273315Y-106940500D01*
X158273317Y-106940500D01*
X158526683Y-106940500D01*
X158526685Y-106940500D01*
X158777226Y-106902737D01*
X159019341Y-106828054D01*
X159247620Y-106718121D01*
X159456965Y-106575392D01*
X159619668Y-106424425D01*
X159672767Y-106404724D01*
X159720331Y-106424425D01*
X159883035Y-106575392D01*
X160092380Y-106718121D01*
X160320659Y-106828054D01*
X160466553Y-106873056D01*
X160562773Y-106902737D01*
X160562772Y-106902737D01*
X160794844Y-106937716D01*
X160813315Y-106940500D01*
X160813317Y-106940500D01*
X161066683Y-106940500D01*
X161066685Y-106940500D01*
X161317226Y-106902737D01*
X161559341Y-106828054D01*
X161787620Y-106718121D01*
X161996965Y-106575392D01*
X162182699Y-106403056D01*
X162340673Y-106204963D01*
X162461415Y-105995829D01*
X162506347Y-105961353D01*
X162562500Y-105968745D01*
X162596978Y-106013678D01*
X162599500Y-106032831D01*
X162599500Y-117303253D01*
X162577826Y-117355579D01*
X162525500Y-117377253D01*
X162489850Y-117368100D01*
X162301835Y-117264738D01*
X162301828Y-117264735D01*
X162013402Y-117150538D01*
X162013380Y-117150531D01*
X161712904Y-117073382D01*
X161610306Y-117060421D01*
X161405116Y-117034500D01*
X161094884Y-117034500D01*
X160919006Y-117056718D01*
X160787095Y-117073382D01*
X160486619Y-117150531D01*
X160486597Y-117150538D01*
X160198171Y-117264735D01*
X160198164Y-117264738D01*
X159926301Y-117414196D01*
X159675325Y-117596541D01*
X159675323Y-117596543D01*
X159449176Y-117808908D01*
X159449172Y-117808913D01*
X159251428Y-118047946D01*
X159251416Y-118047963D01*
X159085194Y-118309886D01*
X158953101Y-118590596D01*
X158953099Y-118590602D01*
X158857236Y-118885640D01*
X158857233Y-118885652D01*
X158799107Y-119190366D01*
X158799104Y-119190388D01*
X158779625Y-119500000D01*
X158799104Y-119809611D01*
X158799107Y-119809633D01*
X158857233Y-120114347D01*
X158857236Y-120114359D01*
X158953099Y-120409397D01*
X158953101Y-120409403D01*
X159085194Y-120690113D01*
X159189576Y-120854592D01*
X159251425Y-120952050D01*
X159286278Y-120994180D01*
X159449172Y-121191086D01*
X159449176Y-121191091D01*
X159663672Y-121392515D01*
X159675324Y-121403457D01*
X159926307Y-121585807D01*
X160198165Y-121735262D01*
X160280578Y-121767891D01*
X160486597Y-121849461D01*
X160486609Y-121849464D01*
X160486612Y-121849466D01*
X160486615Y-121849466D01*
X160486619Y-121849468D01*
X160511207Y-121855781D01*
X160787098Y-121926618D01*
X161094884Y-121965500D01*
X161094888Y-121965500D01*
X161405112Y-121965500D01*
X161405116Y-121965500D01*
X161712902Y-121926618D01*
X162013388Y-121849466D01*
X162013395Y-121849463D01*
X162013402Y-121849461D01*
X162132544Y-121802288D01*
X162301835Y-121735262D01*
X162573693Y-121585807D01*
X162824676Y-121403457D01*
X163050826Y-121191088D01*
X163248575Y-120952050D01*
X163414806Y-120690112D01*
X163546897Y-120409406D01*
X163642764Y-120114357D01*
X163700895Y-119809620D01*
X163720375Y-119500000D01*
X163700895Y-119190380D01*
X163642764Y-118885643D01*
X163546897Y-118590594D01*
X163414806Y-118309888D01*
X163288053Y-118110158D01*
X163278316Y-118054367D01*
X163298207Y-118018184D01*
X163320480Y-117995913D01*
X163373207Y-117904587D01*
X163400500Y-117802729D01*
X163400501Y-117802729D01*
X163400501Y-117692744D01*
X163400500Y-117692726D01*
X163400500Y-103626617D01*
X163400501Y-103626604D01*
X163400501Y-103515190D01*
X163400500Y-103515189D01*
X163373208Y-103413335D01*
X163373207Y-103413334D01*
X163373207Y-103413332D01*
X163358882Y-103388520D01*
X163354276Y-103380543D01*
X163320479Y-103322005D01*
X163243334Y-103244860D01*
X163243323Y-103244850D01*
X162648722Y-102650248D01*
X162627255Y-102603452D01*
X162623425Y-102552341D01*
X162616306Y-102457338D01*
X162559925Y-102210319D01*
X162467358Y-101974463D01*
X162340673Y-101755037D01*
X162182699Y-101556944D01*
X162180900Y-101555275D01*
X162126883Y-101505154D01*
X161996965Y-101384608D01*
X161787620Y-101241879D01*
X161703089Y-101201171D01*
X161665350Y-101158941D01*
X161668525Y-101102393D01*
X161710756Y-101064653D01*
X161735197Y-101060500D01*
X161875435Y-101060500D01*
X161927761Y-101082174D01*
X163977826Y-103132239D01*
X163999500Y-103184565D01*
X163999500Y-126653454D01*
X163977826Y-126705780D01*
X163348917Y-127334688D01*
X163296591Y-127356362D01*
X163250954Y-127340613D01*
X163244185Y-127335310D01*
X163244184Y-127335309D01*
X163244180Y-127335306D01*
X163244177Y-127335304D01*
X163244174Y-127335302D01*
X162972364Y-127170988D01*
X162972361Y-127170986D01*
X162972357Y-127170984D01*
X162972355Y-127170983D01*
X162682710Y-127040625D01*
X162379477Y-126946134D01*
X162067046Y-126888878D01*
X161750000Y-126869701D01*
X161432953Y-126888878D01*
X161120522Y-126946134D01*
X160817289Y-127040625D01*
X160527644Y-127170983D01*
X160527635Y-127170988D01*
X160255819Y-127335306D01*
X160005788Y-127531193D01*
X159781193Y-127755788D01*
X159585306Y-128005819D01*
X159420988Y-128277635D01*
X159420983Y-128277644D01*
X159290625Y-128567289D01*
X159196134Y-128870522D01*
X159138878Y-129182953D01*
X159119701Y-129500000D01*
X159138878Y-129817046D01*
X159196134Y-130129477D01*
X159290625Y-130432710D01*
X159290627Y-130432715D01*
X159290628Y-130432717D01*
X159420986Y-130722361D01*
X159585306Y-130994180D01*
X159781193Y-131244211D01*
X160005789Y-131468807D01*
X160255820Y-131664694D01*
X160527639Y-131829014D01*
X160817283Y-131959372D01*
X161120528Y-132053867D01*
X161432952Y-132111121D01*
X161750000Y-132130299D01*
X162067048Y-132111121D01*
X162379472Y-132053867D01*
X162682717Y-131959372D01*
X162972361Y-131829014D01*
X163244180Y-131664694D01*
X163494211Y-131468807D01*
X163718807Y-131244211D01*
X163914694Y-130994180D01*
X164079014Y-130722361D01*
X164209372Y-130432717D01*
X164303867Y-130129472D01*
X164361121Y-129817048D01*
X164380299Y-129500000D01*
X164361121Y-129182952D01*
X164303867Y-128870528D01*
X164209372Y-128567283D01*
X164079014Y-128277639D01*
X163914694Y-128005820D01*
X163909385Y-127999044D01*
X163894175Y-127944490D01*
X163915308Y-127901083D01*
X164720480Y-127095913D01*
X164773207Y-127004588D01*
X164800500Y-126902727D01*
X164800500Y-126797273D01*
X164800500Y-102935293D01*
X164800500Y-102935291D01*
X164800499Y-102935290D01*
X164773208Y-102833437D01*
X164773207Y-102833433D01*
X164720480Y-102742107D01*
X164645913Y-102667540D01*
X162317893Y-100339520D01*
X162317890Y-100339518D01*
X162317889Y-100339517D01*
X162226572Y-100286795D01*
X162226568Y-100286793D01*
X162226561Y-100286791D01*
X162124707Y-100259500D01*
X160143589Y-100259500D01*
X160038135Y-100259500D01*
X159987204Y-100273146D01*
X159936273Y-100286793D01*
X159936269Y-100286795D01*
X159844952Y-100339517D01*
X159076229Y-101108238D01*
X159023903Y-101129912D01*
X159002091Y-101126624D01*
X158777226Y-101057262D01*
X158777227Y-101057262D01*
X158526691Y-101019500D01*
X158526685Y-101019500D01*
X158273315Y-101019500D01*
X158273308Y-101019500D01*
X158022773Y-101057262D01*
X157780667Y-101131943D01*
X157780653Y-101131948D01*
X157621308Y-101208685D01*
X157552380Y-101241879D01*
X157398865Y-101346544D01*
X157343034Y-101384609D01*
X157180333Y-101535573D01*
X157127233Y-101555275D01*
X157079667Y-101535573D01*
X157031303Y-101490698D01*
X156916965Y-101384608D01*
X156772381Y-101286032D01*
X156741359Y-101238651D01*
X156752927Y-101183207D01*
X156761738Y-101172572D01*
X158252137Y-99682174D01*
X158304463Y-99660500D01*
X162455333Y-99660500D01*
X162507659Y-99682174D01*
X165377826Y-102552341D01*
X165399500Y-102604667D01*
X165399500Y-128247273D01*
X165399500Y-128352727D01*
X165426793Y-128454588D01*
X165426795Y-128454592D01*
X165479517Y-128545909D01*
X165479518Y-128545910D01*
X165479520Y-128545913D01*
X168402414Y-131468806D01*
X170834689Y-133901081D01*
X170856363Y-133953407D01*
X170840616Y-133999041D01*
X170836567Y-134004209D01*
X170835305Y-134005821D01*
X170670988Y-134277635D01*
X170670983Y-134277644D01*
X170540625Y-134567289D01*
X170446134Y-134870522D01*
X170388878Y-135182953D01*
X170369701Y-135500000D01*
X170388878Y-135817046D01*
X170446134Y-136129477D01*
X170540625Y-136432710D01*
X170540627Y-136432715D01*
X170540628Y-136432717D01*
X170670986Y-136722361D01*
X170835306Y-136994180D01*
X171031193Y-137244211D01*
X171255789Y-137468807D01*
X171505820Y-137664694D01*
X171777639Y-137829014D01*
X172067283Y-137959372D01*
X172370528Y-138053867D01*
X172682952Y-138111121D01*
X173000000Y-138130299D01*
X173317048Y-138111121D01*
X173629472Y-138053867D01*
X173932717Y-137959372D01*
X174222361Y-137829014D01*
X174494180Y-137664694D01*
X174744211Y-137468807D01*
X174968807Y-137244211D01*
X175164694Y-136994180D01*
X175329014Y-136722361D01*
X175459372Y-136432717D01*
X175553867Y-136129472D01*
X175611121Y-135817048D01*
X175630299Y-135500000D01*
X175611121Y-135182952D01*
X175553867Y-134870528D01*
X175459372Y-134567283D01*
X175329014Y-134277639D01*
X175164694Y-134005820D01*
X174968807Y-133755789D01*
X174744211Y-133531193D01*
X174494180Y-133335306D01*
X174222361Y-133170986D01*
X174222357Y-133170984D01*
X174222355Y-133170983D01*
X173932710Y-133040625D01*
X173629477Y-132946134D01*
X173317046Y-132888878D01*
X173000000Y-132869701D01*
X172682953Y-132888878D01*
X172370522Y-132946134D01*
X172067289Y-133040625D01*
X171777644Y-133170983D01*
X171777635Y-133170988D01*
X171505821Y-133335305D01*
X171505820Y-133335306D01*
X171499041Y-133340616D01*
X171444486Y-133355823D01*
X171401081Y-133334689D01*
X166222174Y-128155781D01*
X166200500Y-128103455D01*
X166200500Y-102355394D01*
X166189391Y-102313933D01*
X166189391Y-102313932D01*
X166173208Y-102253537D01*
X166173206Y-102253532D01*
X166120482Y-102162212D01*
X166120481Y-102162211D01*
X166120480Y-102162209D01*
X162897791Y-98939520D01*
X162897788Y-98939518D01*
X162897787Y-98939517D01*
X162806470Y-98886795D01*
X162806466Y-98886793D01*
X162806459Y-98886791D01*
X162704605Y-98859500D01*
X162704604Y-98859500D01*
X158165192Y-98859500D01*
X158165176Y-98859499D01*
X158160646Y-98859499D01*
X158055192Y-98859499D01*
X158055190Y-98859499D01*
X157953335Y-98886791D01*
X157953330Y-98886793D01*
X157862005Y-98939520D01*
X155803700Y-100997826D01*
X155751374Y-101019500D01*
X155733308Y-101019500D01*
X155482773Y-101057262D01*
X155240667Y-101131943D01*
X155240653Y-101131948D01*
X155081308Y-101208685D01*
X155012380Y-101241879D01*
X154858865Y-101346544D01*
X154803032Y-101384610D01*
X154803028Y-101384613D01*
X154640331Y-101535573D01*
X154587232Y-101555275D01*
X154539667Y-101535573D01*
X154533306Y-101529671D01*
X154509690Y-101478193D01*
X154529392Y-101425093D01*
X154531285Y-101423126D01*
X157672239Y-98282174D01*
X157724565Y-98260500D01*
X163035232Y-98260500D01*
X163087558Y-98282174D01*
X166777826Y-101972441D01*
X166799500Y-102024767D01*
X166799500Y-120647273D01*
X166799500Y-120752727D01*
X166826793Y-120854588D01*
X166826795Y-120854592D01*
X166879517Y-120945909D01*
X166879518Y-120945910D01*
X166879520Y-120945913D01*
X169803309Y-123869701D01*
X170834689Y-124901081D01*
X170856363Y-124953407D01*
X170840616Y-124999041D01*
X170836567Y-125004209D01*
X170835305Y-125005821D01*
X170670988Y-125277635D01*
X170670983Y-125277644D01*
X170540625Y-125567289D01*
X170446134Y-125870522D01*
X170388878Y-126182953D01*
X170369701Y-126500000D01*
X170388878Y-126817046D01*
X170446134Y-127129477D01*
X170540625Y-127432710D01*
X170540627Y-127432715D01*
X170540628Y-127432717D01*
X170670986Y-127722361D01*
X170835306Y-127994180D01*
X171031193Y-128244211D01*
X171255789Y-128468807D01*
X171505820Y-128664694D01*
X171777639Y-128829014D01*
X172067283Y-128959372D01*
X172370528Y-129053867D01*
X172682952Y-129111121D01*
X173000000Y-129130299D01*
X173317048Y-129111121D01*
X173629472Y-129053867D01*
X173932717Y-128959372D01*
X174222361Y-128829014D01*
X174494180Y-128664694D01*
X174744211Y-128468807D01*
X174968807Y-128244211D01*
X175164694Y-127994180D01*
X175329014Y-127722361D01*
X175459372Y-127432717D01*
X175553867Y-127129472D01*
X175611121Y-126817048D01*
X175630299Y-126500000D01*
X175611121Y-126182952D01*
X175553867Y-125870528D01*
X175459372Y-125567283D01*
X175329014Y-125277639D01*
X175164694Y-125005820D01*
X174968807Y-124755789D01*
X174744211Y-124531193D01*
X174494180Y-124335306D01*
X174222361Y-124170986D01*
X174222357Y-124170984D01*
X174222355Y-124170983D01*
X173932710Y-124040625D01*
X173629477Y-123946134D01*
X173317046Y-123888878D01*
X173000000Y-123869701D01*
X172682953Y-123888878D01*
X172370522Y-123946134D01*
X172067289Y-124040625D01*
X171777644Y-124170983D01*
X171777635Y-124170988D01*
X171505821Y-124335305D01*
X171505820Y-124335306D01*
X171499041Y-124340616D01*
X171444486Y-124355823D01*
X171401081Y-124334689D01*
X167622174Y-120555781D01*
X167600500Y-120503455D01*
X167600500Y-114434105D01*
X178249500Y-114434105D01*
X178249500Y-153940894D01*
X178283606Y-154068181D01*
X178283610Y-154068190D01*
X178341340Y-154168181D01*
X178349500Y-154182314D01*
X178442686Y-154275500D01*
X178556814Y-154341392D01*
X178684105Y-154375499D01*
X178684106Y-154375500D01*
X178684108Y-154375500D01*
X192315894Y-154375500D01*
X192315894Y-154375499D01*
X192443186Y-154341392D01*
X192557314Y-154275500D01*
X192650500Y-154182314D01*
X192716392Y-154068186D01*
X192750499Y-153940894D01*
X192750500Y-153940894D01*
X192750500Y-147500000D01*
X196869701Y-147500000D01*
X196888878Y-147817046D01*
X196946134Y-148129477D01*
X197040625Y-148432710D01*
X197040627Y-148432715D01*
X197040628Y-148432717D01*
X197170986Y-148722361D01*
X197335306Y-148994180D01*
X197531193Y-149244211D01*
X197755789Y-149468807D01*
X198005820Y-149664694D01*
X198277639Y-149829014D01*
X198567283Y-149959372D01*
X198870528Y-150053867D01*
X199182952Y-150111121D01*
X199500000Y-150130299D01*
X199817048Y-150111121D01*
X200129472Y-150053867D01*
X200432717Y-149959372D01*
X200722361Y-149829014D01*
X200994180Y-149664694D01*
X201244211Y-149468807D01*
X201468807Y-149244211D01*
X201664694Y-148994180D01*
X201829014Y-148722361D01*
X201959372Y-148432717D01*
X202053867Y-148129472D01*
X202111121Y-147817048D01*
X202130299Y-147500000D01*
X202111121Y-147182952D01*
X202053867Y-146870528D01*
X201959372Y-146567283D01*
X201829014Y-146277639D01*
X201664694Y-146005820D01*
X201468807Y-145755789D01*
X201244211Y-145531193D01*
X200994180Y-145335306D01*
X200722361Y-145170986D01*
X200722357Y-145170984D01*
X200722355Y-145170983D01*
X200432710Y-145040625D01*
X200129477Y-144946134D01*
X199817046Y-144888878D01*
X199500000Y-144869701D01*
X199182953Y-144888878D01*
X198870522Y-144946134D01*
X198567289Y-145040625D01*
X198277644Y-145170983D01*
X198277635Y-145170988D01*
X198005819Y-145335306D01*
X197755788Y-145531193D01*
X197531193Y-145755788D01*
X197335306Y-146005819D01*
X197170988Y-146277635D01*
X197170983Y-146277644D01*
X197040625Y-146567289D01*
X196946134Y-146870522D01*
X196888878Y-147182953D01*
X196869701Y-147500000D01*
X192750500Y-147500000D01*
X192750500Y-138500000D01*
X196869701Y-138500000D01*
X196888878Y-138817046D01*
X196946134Y-139129477D01*
X197040625Y-139432710D01*
X197040627Y-139432715D01*
X197040628Y-139432717D01*
X197170986Y-139722361D01*
X197335306Y-139994180D01*
X197531193Y-140244211D01*
X197755789Y-140468807D01*
X198005820Y-140664694D01*
X198277639Y-140829014D01*
X198567283Y-140959372D01*
X198870528Y-141053867D01*
X199182952Y-141111121D01*
X199500000Y-141130299D01*
X199817048Y-141111121D01*
X200129472Y-141053867D01*
X200432717Y-140959372D01*
X200722361Y-140829014D01*
X200994180Y-140664694D01*
X201244211Y-140468807D01*
X201468807Y-140244211D01*
X201664694Y-139994180D01*
X201829014Y-139722361D01*
X201959372Y-139432717D01*
X202053867Y-139129472D01*
X202111121Y-138817048D01*
X202130299Y-138500000D01*
X202111121Y-138182952D01*
X202053867Y-137870528D01*
X201959372Y-137567283D01*
X201829014Y-137277639D01*
X201664694Y-137005820D01*
X201468807Y-136755789D01*
X201244211Y-136531193D01*
X200994180Y-136335306D01*
X200722361Y-136170986D01*
X200722357Y-136170984D01*
X200722355Y-136170983D01*
X200432710Y-136040625D01*
X200129477Y-135946134D01*
X199817046Y-135888878D01*
X199500000Y-135869701D01*
X199182953Y-135888878D01*
X198870522Y-135946134D01*
X198567289Y-136040625D01*
X198277644Y-136170983D01*
X198277635Y-136170988D01*
X198005819Y-136335306D01*
X197755788Y-136531193D01*
X197531193Y-136755788D01*
X197335306Y-137005819D01*
X197170988Y-137277635D01*
X197170983Y-137277644D01*
X197040625Y-137567289D01*
X196946134Y-137870522D01*
X196888878Y-138182953D01*
X196869701Y-138500000D01*
X192750500Y-138500000D01*
X192750500Y-114434106D01*
X192750499Y-114434105D01*
X192734425Y-114374117D01*
X192716392Y-114306814D01*
X192650500Y-114192686D01*
X192557314Y-114099500D01*
X192443190Y-114033610D01*
X192443181Y-114033606D01*
X192315894Y-113999500D01*
X192315892Y-113999500D01*
X178815892Y-113999500D01*
X178684108Y-113999500D01*
X178684106Y-113999500D01*
X178556818Y-114033606D01*
X178556809Y-114033610D01*
X178442685Y-114099500D01*
X178349500Y-114192685D01*
X178283610Y-114306809D01*
X178283606Y-114306818D01*
X178249500Y-114434105D01*
X167600500Y-114434105D01*
X167600500Y-101775497D01*
X167595019Y-101755042D01*
X167578882Y-101694814D01*
X167573207Y-101673635D01*
X167523243Y-101587096D01*
X167523242Y-101587093D01*
X167520484Y-101582316D01*
X167520478Y-101582308D01*
X167443334Y-101505164D01*
X167443323Y-101505154D01*
X165598669Y-99660500D01*
X163477690Y-97539520D01*
X163477687Y-97539518D01*
X163477686Y-97539517D01*
X163386369Y-97486795D01*
X163386365Y-97486793D01*
X163386358Y-97486791D01*
X163284504Y-97459500D01*
X157580747Y-97459500D01*
X157475293Y-97459500D01*
X157424362Y-97473146D01*
X157373431Y-97486793D01*
X157373427Y-97486795D01*
X157282110Y-97539517D01*
X153780065Y-101041560D01*
X153727739Y-101063234D01*
X153705928Y-101059947D01*
X153697222Y-101057261D01*
X153446691Y-101019500D01*
X153446685Y-101019500D01*
X153193315Y-101019500D01*
X153193308Y-101019500D01*
X152942773Y-101057262D01*
X152790061Y-101104368D01*
X152733671Y-101099081D01*
X152697537Y-101055468D01*
X152702824Y-100999078D01*
X152715919Y-100981334D01*
X156815081Y-96882174D01*
X156867407Y-96860500D01*
X163713455Y-96860500D01*
X163765781Y-96882174D01*
X168177826Y-101294218D01*
X168199500Y-101346544D01*
X168199500Y-105747273D01*
X168199500Y-105852727D01*
X168226793Y-105954588D01*
X168226795Y-105954592D01*
X168279517Y-106045909D01*
X168279518Y-106045910D01*
X168279520Y-106045913D01*
X169879520Y-107645912D01*
X171276931Y-109043323D01*
X171276936Y-109043329D01*
X171279520Y-109045913D01*
X171354087Y-109120480D01*
X171445413Y-109173207D01*
X171445414Y-109173207D01*
X171445416Y-109173208D01*
X171496343Y-109186854D01*
X171547270Y-109200500D01*
X171547271Y-109200501D01*
X171547273Y-109200501D01*
X171657257Y-109200501D01*
X171657273Y-109200500D01*
X189123557Y-109200500D01*
X189175883Y-109222174D01*
X194327826Y-114374117D01*
X194349500Y-114426443D01*
X194349500Y-124697273D01*
X194349500Y-124802727D01*
X194375853Y-124901081D01*
X194376793Y-124904588D01*
X194376795Y-124904592D01*
X194429517Y-124995909D01*
X194429518Y-124995910D01*
X194429520Y-124995913D01*
X195933607Y-126500000D01*
X197334688Y-127901081D01*
X197356362Y-127953407D01*
X197340615Y-127999042D01*
X197335313Y-128005809D01*
X197335309Y-128005815D01*
X197170988Y-128277635D01*
X197170983Y-128277644D01*
X197040625Y-128567289D01*
X196946134Y-128870522D01*
X196888878Y-129182953D01*
X196869701Y-129500000D01*
X196888878Y-129817046D01*
X196946134Y-130129477D01*
X197040625Y-130432710D01*
X197040627Y-130432715D01*
X197040628Y-130432717D01*
X197170986Y-130722361D01*
X197335306Y-130994180D01*
X197531193Y-131244211D01*
X197755789Y-131468807D01*
X198005820Y-131664694D01*
X198277639Y-131829014D01*
X198567283Y-131959372D01*
X198870528Y-132053867D01*
X199182952Y-132111121D01*
X199500000Y-132130299D01*
X199817048Y-132111121D01*
X200129472Y-132053867D01*
X200432717Y-131959372D01*
X200722361Y-131829014D01*
X200994180Y-131664694D01*
X201244211Y-131468807D01*
X201468807Y-131244211D01*
X201664694Y-130994180D01*
X201829014Y-130722361D01*
X201959372Y-130432717D01*
X202053867Y-130129472D01*
X202111121Y-129817048D01*
X202130299Y-129500000D01*
X202111121Y-129182952D01*
X202053867Y-128870528D01*
X201959372Y-128567283D01*
X201829014Y-128277639D01*
X201664694Y-128005820D01*
X201468807Y-127755789D01*
X201244211Y-127531193D01*
X200994180Y-127335306D01*
X200722361Y-127170986D01*
X200722357Y-127170984D01*
X200722355Y-127170983D01*
X200432710Y-127040625D01*
X200129477Y-126946134D01*
X199817046Y-126888878D01*
X199500000Y-126869701D01*
X199182953Y-126888878D01*
X198870522Y-126946134D01*
X198567289Y-127040625D01*
X198277644Y-127170983D01*
X198277635Y-127170988D01*
X198005815Y-127335309D01*
X198005809Y-127335313D01*
X197999042Y-127340615D01*
X197944484Y-127355822D01*
X197901081Y-127334688D01*
X195172174Y-124605781D01*
X195150500Y-124553455D01*
X195150500Y-114177169D01*
X195150499Y-114177168D01*
X195123208Y-114075315D01*
X195123207Y-114075311D01*
X195070480Y-113983985D01*
X194995913Y-113909418D01*
X189566015Y-108479520D01*
X189566012Y-108479518D01*
X189566011Y-108479517D01*
X189474694Y-108426795D01*
X189474690Y-108426793D01*
X189474683Y-108426791D01*
X189372829Y-108399500D01*
X189372828Y-108399500D01*
X171796544Y-108399500D01*
X171744218Y-108377826D01*
X169022174Y-105655781D01*
X169000500Y-105603455D01*
X169000500Y-101208698D01*
X169000501Y-101208685D01*
X169000501Y-101097271D01*
X169000500Y-101097270D01*
X168973208Y-100995416D01*
X168973206Y-100995411D01*
X168956455Y-100966398D01*
X168921537Y-100905918D01*
X168921537Y-100905917D01*
X168920482Y-100904090D01*
X168920479Y-100904086D01*
X168843334Y-100826941D01*
X168843323Y-100826931D01*
X166875891Y-98859499D01*
X164155913Y-96139520D01*
X164155910Y-96139518D01*
X164155909Y-96139517D01*
X164064592Y-96086795D01*
X164064588Y-96086793D01*
X163962727Y-96059500D01*
X156723589Y-96059500D01*
X156618135Y-96059500D01*
X156567204Y-96073146D01*
X156516273Y-96086793D01*
X156516269Y-96086795D01*
X156424952Y-96139517D01*
X151456229Y-101108238D01*
X151403903Y-101129912D01*
X151382091Y-101126624D01*
X151157226Y-101057262D01*
X151157227Y-101057262D01*
X150906691Y-101019500D01*
X150906685Y-101019500D01*
X150653315Y-101019500D01*
X150653308Y-101019500D01*
X150402773Y-101057262D01*
X150160667Y-101131943D01*
X150160653Y-101131948D01*
X150001308Y-101208685D01*
X149932380Y-101241879D01*
X149778865Y-101346544D01*
X149723034Y-101384609D01*
X149560333Y-101535573D01*
X149507233Y-101555275D01*
X149459667Y-101535573D01*
X149411303Y-101490698D01*
X149296965Y-101384608D01*
X149152381Y-101286032D01*
X149121359Y-101238651D01*
X149132927Y-101183207D01*
X149141738Y-101172572D01*
X154832138Y-95482174D01*
X154884464Y-95460500D01*
X164293354Y-95460500D01*
X164345680Y-95482174D01*
X169577826Y-100714319D01*
X169599500Y-100766645D01*
X169599500Y-105167375D01*
X169599500Y-105272829D01*
X169613345Y-105324500D01*
X169626793Y-105374690D01*
X169626795Y-105374694D01*
X169679517Y-105466011D01*
X169679518Y-105466012D01*
X169679520Y-105466015D01*
X171859417Y-107645912D01*
X171859418Y-107645913D01*
X171933985Y-107720480D01*
X172025311Y-107773207D01*
X172127168Y-107800499D01*
X172127169Y-107800500D01*
X172127171Y-107800500D01*
X172232625Y-107800500D01*
X189703455Y-107800500D01*
X189755781Y-107822174D01*
X198077826Y-116144218D01*
X198099500Y-116196544D01*
X198099500Y-116842500D01*
X198077826Y-116894826D01*
X198038839Y-116915288D01*
X197870522Y-116946134D01*
X197567289Y-117040625D01*
X197277644Y-117170983D01*
X197277635Y-117170988D01*
X197005819Y-117335306D01*
X196755788Y-117531193D01*
X196531193Y-117755788D01*
X196335306Y-118005819D01*
X196170988Y-118277635D01*
X196170983Y-118277644D01*
X196040625Y-118567289D01*
X195946134Y-118870522D01*
X195888878Y-119182953D01*
X195869701Y-119500000D01*
X195888878Y-119817046D01*
X195946134Y-120129477D01*
X196040625Y-120432710D01*
X196137191Y-120647273D01*
X196170986Y-120722361D01*
X196335306Y-120994180D01*
X196531193Y-121244211D01*
X196755789Y-121468807D01*
X197005820Y-121664694D01*
X197277639Y-121829014D01*
X197567283Y-121959372D01*
X197870528Y-122053867D01*
X198182952Y-122111121D01*
X198500000Y-122130299D01*
X198817048Y-122111121D01*
X199129472Y-122053867D01*
X199432717Y-121959372D01*
X199722361Y-121829014D01*
X199994180Y-121664694D01*
X200244211Y-121468807D01*
X200468807Y-121244211D01*
X200664694Y-120994180D01*
X200829014Y-120722361D01*
X200959372Y-120432717D01*
X201053867Y-120129472D01*
X201111121Y-119817048D01*
X201130299Y-119500000D01*
X201111121Y-119182952D01*
X201053867Y-118870528D01*
X201006619Y-118718905D01*
X200959374Y-118567289D01*
X200959373Y-118567288D01*
X200959372Y-118567283D01*
X200829014Y-118277639D01*
X200664694Y-118005820D01*
X200468807Y-117755789D01*
X200244211Y-117531193D01*
X199994180Y-117335306D01*
X199722361Y-117170986D01*
X199722357Y-117170984D01*
X199722355Y-117170983D01*
X199529527Y-117084199D01*
X199432717Y-117040628D01*
X199432715Y-117040627D01*
X199432710Y-117040625D01*
X199129477Y-116946134D01*
X198961161Y-116915288D01*
X198913599Y-116884536D01*
X198900500Y-116842500D01*
X198900500Y-116058698D01*
X198900501Y-116058685D01*
X198900501Y-115947271D01*
X198900500Y-115947270D01*
X198873208Y-115845416D01*
X198873206Y-115845411D01*
X198820479Y-115754086D01*
X198743334Y-115676941D01*
X198743323Y-115676931D01*
X194564705Y-111498313D01*
X192566392Y-109500000D01*
X197544958Y-109500000D01*
X197565111Y-109858853D01*
X197565113Y-109858865D01*
X197625313Y-110213184D01*
X197724815Y-110558560D01*
X197862352Y-110890607D01*
X197862363Y-110890628D01*
X198036206Y-111205173D01*
X198036210Y-111205180D01*
X198244199Y-111498313D01*
X198350213Y-111616942D01*
X199485502Y-110481652D01*
X199529588Y-110542330D01*
X199707670Y-110720412D01*
X199768346Y-110764495D01*
X198633055Y-111899786D01*
X198751681Y-112005796D01*
X199044819Y-112213789D01*
X199044826Y-112213793D01*
X199359371Y-112387636D01*
X199359392Y-112387647D01*
X199691439Y-112525184D01*
X200036816Y-112624686D01*
X200036814Y-112624686D01*
X200391134Y-112684886D01*
X200391146Y-112684888D01*
X200750000Y-112705041D01*
X201108853Y-112684888D01*
X201108865Y-112684886D01*
X201463184Y-112624686D01*
X201808560Y-112525184D01*
X202140607Y-112387647D01*
X202140628Y-112387636D01*
X202455173Y-112213793D01*
X202455180Y-112213789D01*
X202748318Y-112005796D01*
X202866942Y-111899786D01*
X202866943Y-111899786D01*
X201731653Y-110764496D01*
X201792330Y-110720412D01*
X201970412Y-110542330D01*
X202014496Y-110481653D01*
X203149786Y-111616943D01*
X203149786Y-111616942D01*
X203255796Y-111498318D01*
X203463789Y-111205180D01*
X203463793Y-111205173D01*
X203637636Y-110890628D01*
X203637647Y-110890607D01*
X203775184Y-110558560D01*
X203874686Y-110213184D01*
X203934886Y-109858865D01*
X203934888Y-109858853D01*
X203955041Y-109500000D01*
X203934888Y-109141146D01*
X203934886Y-109141134D01*
X203874686Y-108786815D01*
X203775184Y-108441439D01*
X203637647Y-108109392D01*
X203637636Y-108109371D01*
X203463793Y-107794826D01*
X203463789Y-107794819D01*
X203255796Y-107501681D01*
X203149786Y-107383056D01*
X203149786Y-107383055D01*
X202014495Y-108518345D01*
X201970412Y-108457670D01*
X201792330Y-108279588D01*
X201731652Y-108235502D01*
X202866942Y-107100213D01*
X202748313Y-106994199D01*
X202455180Y-106786210D01*
X202455173Y-106786206D01*
X202140628Y-106612363D01*
X202140607Y-106612352D01*
X201808560Y-106474815D01*
X201463183Y-106375313D01*
X201463185Y-106375313D01*
X201108865Y-106315113D01*
X201108853Y-106315111D01*
X200750000Y-106294958D01*
X200391146Y-106315111D01*
X200391134Y-106315113D01*
X200036815Y-106375313D01*
X199691439Y-106474815D01*
X199359392Y-106612352D01*
X199359371Y-106612363D01*
X199044826Y-106786206D01*
X199044819Y-106786210D01*
X198751686Y-106994199D01*
X198633055Y-107100212D01*
X199768346Y-108235503D01*
X199707670Y-108279588D01*
X199529588Y-108457670D01*
X199485503Y-108518346D01*
X198350212Y-107383055D01*
X198244199Y-107501686D01*
X198036210Y-107794819D01*
X198036206Y-107794826D01*
X197862363Y-108109371D01*
X197862352Y-108109392D01*
X197724815Y-108441439D01*
X197625313Y-108786815D01*
X197565113Y-109141134D01*
X197565111Y-109141146D01*
X197544958Y-109500000D01*
X192566392Y-109500000D01*
X190145913Y-107079520D01*
X190145910Y-107079518D01*
X190145909Y-107079517D01*
X190054592Y-107026795D01*
X190054588Y-107026793D01*
X189952727Y-106999500D01*
X189952726Y-106999500D01*
X172376443Y-106999500D01*
X172324117Y-106977826D01*
X170422174Y-105075883D01*
X170400500Y-105023557D01*
X170400500Y-100628799D01*
X170400501Y-100628786D01*
X170400501Y-100517372D01*
X170400500Y-100517371D01*
X170373208Y-100415517D01*
X170373206Y-100415512D01*
X170353155Y-100380783D01*
X170320479Y-100324187D01*
X170243334Y-100247042D01*
X170243323Y-100247032D01*
X167522305Y-97526014D01*
X164735812Y-94739520D01*
X164735809Y-94739518D01*
X164735808Y-94739517D01*
X164644491Y-94686795D01*
X164644487Y-94686793D01*
X164644480Y-94686791D01*
X164542626Y-94659500D01*
X154635192Y-94659500D01*
X154635190Y-94659500D01*
X154533336Y-94686791D01*
X154533327Y-94686795D01*
X154442005Y-94739520D01*
X148183700Y-100997826D01*
X148131374Y-101019500D01*
X148113308Y-101019500D01*
X147862773Y-101057262D01*
X147620667Y-101131943D01*
X147620653Y-101131948D01*
X147461308Y-101208685D01*
X147392380Y-101241879D01*
X147238865Y-101346544D01*
X147183034Y-101384609D01*
X147020333Y-101535573D01*
X146967233Y-101555275D01*
X146919667Y-101535573D01*
X146871303Y-101490698D01*
X146756965Y-101384608D01*
X146547620Y-101241879D01*
X146375397Y-101158941D01*
X146319346Y-101131948D01*
X146319342Y-101131946D01*
X146319341Y-101131946D01*
X146319336Y-101131944D01*
X146319332Y-101131943D01*
X146077226Y-101057262D01*
X146077227Y-101057262D01*
X145826691Y-101019500D01*
X145826685Y-101019500D01*
X145808626Y-101019500D01*
X145756300Y-100997826D01*
X143018974Y-98260500D01*
X139497994Y-94739520D01*
X139497991Y-94739518D01*
X139497990Y-94739517D01*
X139406673Y-94686795D01*
X139406669Y-94686793D01*
X139406662Y-94686791D01*
X139304808Y-94659500D01*
X129243232Y-94659500D01*
X129137778Y-94659500D01*
X129086847Y-94673146D01*
X129035916Y-94686793D01*
X129035912Y-94686795D01*
X128944595Y-94739517D01*
X123129517Y-100554595D01*
X123076792Y-100645917D01*
X123076793Y-100645918D01*
X123049500Y-100747778D01*
X123049500Y-105353455D01*
X123027826Y-105405781D01*
X121455781Y-106977826D01*
X121403455Y-106999500D01*
X104652727Y-106999500D01*
X104547273Y-106999500D01*
X104496342Y-107013146D01*
X104445411Y-107026793D01*
X104445407Y-107026795D01*
X104354090Y-107079517D01*
X99629517Y-111804090D01*
X99576792Y-111895412D01*
X99576793Y-111895413D01*
X99549500Y-111997273D01*
X99549500Y-124237543D01*
X99527826Y-124289869D01*
X99475500Y-124311543D01*
X99437217Y-124300871D01*
X99419017Y-124289869D01*
X99222361Y-124170986D01*
X99222357Y-124170984D01*
X99222355Y-124170983D01*
X98932710Y-124040625D01*
X98629477Y-123946134D01*
X98317046Y-123888878D01*
X98000000Y-123869701D01*
X97682953Y-123888878D01*
X97370522Y-123946134D01*
X97067289Y-124040625D01*
X96777644Y-124170983D01*
X96777635Y-124170988D01*
X96505819Y-124335306D01*
X96255788Y-124531193D01*
X96031193Y-124755788D01*
X95835306Y-125005819D01*
X95670988Y-125277635D01*
X95670983Y-125277644D01*
X95540625Y-125567289D01*
X95446134Y-125870522D01*
X95388878Y-126182953D01*
X95369701Y-126500000D01*
X89500500Y-126500000D01*
X89500500Y-109500000D01*
X90044958Y-109500000D01*
X90065111Y-109858853D01*
X90065113Y-109858865D01*
X90125313Y-110213184D01*
X90224815Y-110558560D01*
X90362352Y-110890607D01*
X90362363Y-110890628D01*
X90536206Y-111205173D01*
X90536210Y-111205180D01*
X90744199Y-111498313D01*
X90850213Y-111616942D01*
X91985502Y-110481652D01*
X92029588Y-110542330D01*
X92207670Y-110720412D01*
X92268346Y-110764495D01*
X91133055Y-111899786D01*
X91251681Y-112005796D01*
X91544819Y-112213789D01*
X91544826Y-112213793D01*
X91859371Y-112387636D01*
X91859392Y-112387647D01*
X92191439Y-112525184D01*
X92536816Y-112624686D01*
X92536814Y-112624686D01*
X92891134Y-112684886D01*
X92891146Y-112684888D01*
X93250000Y-112705041D01*
X93608853Y-112684888D01*
X93608865Y-112684886D01*
X93963184Y-112624686D01*
X94308560Y-112525184D01*
X94640607Y-112387647D01*
X94640628Y-112387636D01*
X94955173Y-112213793D01*
X94955180Y-112213789D01*
X95248318Y-112005796D01*
X95366942Y-111899786D01*
X95366943Y-111899786D01*
X94231653Y-110764496D01*
X94292330Y-110720412D01*
X94470412Y-110542330D01*
X94514496Y-110481653D01*
X95649786Y-111616943D01*
X95649786Y-111616942D01*
X95755796Y-111498318D01*
X95963789Y-111205180D01*
X95963793Y-111205173D01*
X96137636Y-110890628D01*
X96137647Y-110890607D01*
X96275184Y-110558560D01*
X96374686Y-110213184D01*
X96434886Y-109858865D01*
X96434888Y-109858853D01*
X96455041Y-109500000D01*
X96434888Y-109141146D01*
X96434886Y-109141134D01*
X96374686Y-108786815D01*
X96275184Y-108441439D01*
X96137647Y-108109392D01*
X96137636Y-108109371D01*
X95963793Y-107794826D01*
X95963789Y-107794819D01*
X95755796Y-107501681D01*
X95649786Y-107383056D01*
X95649786Y-107383055D01*
X94514495Y-108518345D01*
X94470412Y-108457670D01*
X94292330Y-108279588D01*
X94231652Y-108235502D01*
X95366942Y-107100213D01*
X95248313Y-106994199D01*
X94955180Y-106786210D01*
X94955173Y-106786206D01*
X94640628Y-106612363D01*
X94640607Y-106612352D01*
X94308560Y-106474815D01*
X93963183Y-106375313D01*
X93963185Y-106375313D01*
X93608865Y-106315113D01*
X93608853Y-106315111D01*
X93250000Y-106294958D01*
X92891146Y-106315111D01*
X92891134Y-106315113D01*
X92536815Y-106375313D01*
X92191439Y-106474815D01*
X91859392Y-106612352D01*
X91859371Y-106612363D01*
X91544826Y-106786206D01*
X91544819Y-106786210D01*
X91251686Y-106994199D01*
X91133055Y-107100212D01*
X92268346Y-108235503D01*
X92207670Y-108279588D01*
X92029588Y-108457670D01*
X91985503Y-108518346D01*
X90850212Y-107383055D01*
X90744199Y-107501686D01*
X90536210Y-107794819D01*
X90536206Y-107794826D01*
X90362363Y-108109371D01*
X90362352Y-108109392D01*
X90224815Y-108441439D01*
X90125313Y-108786815D01*
X90065113Y-109141134D01*
X90065111Y-109141146D01*
X90044958Y-109500000D01*
X89500500Y-109500000D01*
X89500500Y-105324500D01*
X89522174Y-105272174D01*
X89574500Y-105250500D01*
X122065894Y-105250500D01*
X122065894Y-105250499D01*
X122193186Y-105216392D01*
X122307314Y-105150500D01*
X122400500Y-105057314D01*
X122466392Y-104943186D01*
X122500499Y-104815894D01*
X122500500Y-104815894D01*
X122500500Y-92324500D01*
X122522174Y-92272174D01*
X122574500Y-92250500D01*
X171425500Y-92250500D01*
X171477826Y-92272174D01*
G37*
%TD.AperFunction*%
%TD*%
%TA.AperFunction,NonConductor*%
G36*
X134547862Y-101082174D02*
G01*
X134638255Y-101172567D01*
X134659929Y-101224893D01*
X134638255Y-101277219D01*
X134627614Y-101286035D01*
X134566538Y-101327677D01*
X134483034Y-101384609D01*
X134320333Y-101535573D01*
X134267233Y-101555275D01*
X134219667Y-101535573D01*
X134171303Y-101490698D01*
X134056965Y-101384608D01*
X133847620Y-101241879D01*
X133763089Y-101201171D01*
X133725350Y-101158941D01*
X133728525Y-101102393D01*
X133770756Y-101064653D01*
X133795197Y-101060500D01*
X134495536Y-101060500D01*
X134547862Y-101082174D01*
G37*
%TD.AperFunction*%
%TA.AperFunction,NonConductor*%
G36*
X162463075Y-103600953D02*
G01*
X162478402Y-103612714D01*
X162577826Y-103712137D01*
X162599500Y-103764463D01*
X162599500Y-104467168D01*
X162577826Y-104519494D01*
X162525500Y-104541168D01*
X162473174Y-104519494D01*
X162461414Y-104504168D01*
X162340676Y-104295042D01*
X162340675Y-104295040D01*
X162331558Y-104283608D01*
X162182699Y-104096944D01*
X162115125Y-104034245D01*
X162091511Y-103982767D01*
X162111213Y-103929667D01*
X162115126Y-103925754D01*
X162182699Y-103863056D01*
X162340673Y-103664963D01*
X162361989Y-103628040D01*
X162406922Y-103593562D01*
X162463075Y-103600953D01*
G37*
%TD.AperFunction*%
M02*
