%TF.GenerationSoftware,KiCad,Pcbnew,8.0.2*%
%TF.CreationDate,2024-05-21T13:44:33-04:00*%
%TF.ProjectId,LowerPOGO,4c6f7765-7250-44f4-974f-2e6b69636164,rev?*%
%TF.SameCoordinates,Original*%
%TF.FileFunction,Legend,Top*%
%TF.FilePolarity,Positive*%
%FSLAX46Y46*%
G04 Gerber Fmt 4.6, Leading zero omitted, Abs format (unit mm)*
G04 Created by KiCad (PCBNEW 8.0.2) date 2024-05-21 13:44:33*
%MOMM*%
%LPD*%
G01*
G04 APERTURE LIST*
%ADD10C,0.150000*%
%ADD11C,0.120000*%
G04 APERTURE END LIST*
D10*
X135636063Y-96709875D02*
X135159873Y-96709875D01*
X135159873Y-96709875D02*
X135159873Y-95709875D01*
X136112254Y-96709875D02*
X136017016Y-96662256D01*
X136017016Y-96662256D02*
X135969397Y-96614636D01*
X135969397Y-96614636D02*
X135921778Y-96519398D01*
X135921778Y-96519398D02*
X135921778Y-96233684D01*
X135921778Y-96233684D02*
X135969397Y-96138446D01*
X135969397Y-96138446D02*
X136017016Y-96090827D01*
X136017016Y-96090827D02*
X136112254Y-96043208D01*
X136112254Y-96043208D02*
X136255111Y-96043208D01*
X136255111Y-96043208D02*
X136350349Y-96090827D01*
X136350349Y-96090827D02*
X136397968Y-96138446D01*
X136397968Y-96138446D02*
X136445587Y-96233684D01*
X136445587Y-96233684D02*
X136445587Y-96519398D01*
X136445587Y-96519398D02*
X136397968Y-96614636D01*
X136397968Y-96614636D02*
X136350349Y-96662256D01*
X136350349Y-96662256D02*
X136255111Y-96709875D01*
X136255111Y-96709875D02*
X136112254Y-96709875D01*
X136778921Y-96043208D02*
X136969397Y-96709875D01*
X136969397Y-96709875D02*
X137159873Y-96233684D01*
X137159873Y-96233684D02*
X137350349Y-96709875D01*
X137350349Y-96709875D02*
X137540825Y-96043208D01*
X138302730Y-96662256D02*
X138207492Y-96709875D01*
X138207492Y-96709875D02*
X138017016Y-96709875D01*
X138017016Y-96709875D02*
X137921778Y-96662256D01*
X137921778Y-96662256D02*
X137874159Y-96567017D01*
X137874159Y-96567017D02*
X137874159Y-96186065D01*
X137874159Y-96186065D02*
X137921778Y-96090827D01*
X137921778Y-96090827D02*
X138017016Y-96043208D01*
X138017016Y-96043208D02*
X138207492Y-96043208D01*
X138207492Y-96043208D02*
X138302730Y-96090827D01*
X138302730Y-96090827D02*
X138350349Y-96186065D01*
X138350349Y-96186065D02*
X138350349Y-96281303D01*
X138350349Y-96281303D02*
X137874159Y-96376541D01*
X138778921Y-96709875D02*
X138778921Y-96043208D01*
X138778921Y-96233684D02*
X138826540Y-96138446D01*
X138826540Y-96138446D02*
X138874159Y-96090827D01*
X138874159Y-96090827D02*
X138969397Y-96043208D01*
X138969397Y-96043208D02*
X139064635Y-96043208D01*
X140159874Y-96709875D02*
X140159874Y-95709875D01*
X140159874Y-95709875D02*
X140540826Y-95709875D01*
X140540826Y-95709875D02*
X140636064Y-95757494D01*
X140636064Y-95757494D02*
X140683683Y-95805113D01*
X140683683Y-95805113D02*
X140731302Y-95900351D01*
X140731302Y-95900351D02*
X140731302Y-96043208D01*
X140731302Y-96043208D02*
X140683683Y-96138446D01*
X140683683Y-96138446D02*
X140636064Y-96186065D01*
X140636064Y-96186065D02*
X140540826Y-96233684D01*
X140540826Y-96233684D02*
X140159874Y-96233684D01*
X141350350Y-95709875D02*
X141540826Y-95709875D01*
X141540826Y-95709875D02*
X141636064Y-95757494D01*
X141636064Y-95757494D02*
X141731302Y-95852732D01*
X141731302Y-95852732D02*
X141778921Y-96043208D01*
X141778921Y-96043208D02*
X141778921Y-96376541D01*
X141778921Y-96376541D02*
X141731302Y-96567017D01*
X141731302Y-96567017D02*
X141636064Y-96662256D01*
X141636064Y-96662256D02*
X141540826Y-96709875D01*
X141540826Y-96709875D02*
X141350350Y-96709875D01*
X141350350Y-96709875D02*
X141255112Y-96662256D01*
X141255112Y-96662256D02*
X141159874Y-96567017D01*
X141159874Y-96567017D02*
X141112255Y-96376541D01*
X141112255Y-96376541D02*
X141112255Y-96043208D01*
X141112255Y-96043208D02*
X141159874Y-95852732D01*
X141159874Y-95852732D02*
X141255112Y-95757494D01*
X141255112Y-95757494D02*
X141350350Y-95709875D01*
X142731302Y-95757494D02*
X142636064Y-95709875D01*
X142636064Y-95709875D02*
X142493207Y-95709875D01*
X142493207Y-95709875D02*
X142350350Y-95757494D01*
X142350350Y-95757494D02*
X142255112Y-95852732D01*
X142255112Y-95852732D02*
X142207493Y-95947970D01*
X142207493Y-95947970D02*
X142159874Y-96138446D01*
X142159874Y-96138446D02*
X142159874Y-96281303D01*
X142159874Y-96281303D02*
X142207493Y-96471779D01*
X142207493Y-96471779D02*
X142255112Y-96567017D01*
X142255112Y-96567017D02*
X142350350Y-96662256D01*
X142350350Y-96662256D02*
X142493207Y-96709875D01*
X142493207Y-96709875D02*
X142588445Y-96709875D01*
X142588445Y-96709875D02*
X142731302Y-96662256D01*
X142731302Y-96662256D02*
X142778921Y-96614636D01*
X142778921Y-96614636D02*
X142778921Y-96281303D01*
X142778921Y-96281303D02*
X142588445Y-96281303D01*
X143397969Y-95709875D02*
X143588445Y-95709875D01*
X143588445Y-95709875D02*
X143683683Y-95757494D01*
X143683683Y-95757494D02*
X143778921Y-95852732D01*
X143778921Y-95852732D02*
X143826540Y-96043208D01*
X143826540Y-96043208D02*
X143826540Y-96376541D01*
X143826540Y-96376541D02*
X143778921Y-96567017D01*
X143778921Y-96567017D02*
X143683683Y-96662256D01*
X143683683Y-96662256D02*
X143588445Y-96709875D01*
X143588445Y-96709875D02*
X143397969Y-96709875D01*
X143397969Y-96709875D02*
X143302731Y-96662256D01*
X143302731Y-96662256D02*
X143207493Y-96567017D01*
X143207493Y-96567017D02*
X143159874Y-96376541D01*
X143159874Y-96376541D02*
X143159874Y-96043208D01*
X143159874Y-96043208D02*
X143207493Y-95852732D01*
X143207493Y-95852732D02*
X143302731Y-95757494D01*
X143302731Y-95757494D02*
X143397969Y-95709875D01*
X145017017Y-96709875D02*
X145017017Y-95709875D01*
X145017017Y-95709875D02*
X145255112Y-95709875D01*
X145255112Y-95709875D02*
X145397969Y-95757494D01*
X145397969Y-95757494D02*
X145493207Y-95852732D01*
X145493207Y-95852732D02*
X145540826Y-95947970D01*
X145540826Y-95947970D02*
X145588445Y-96138446D01*
X145588445Y-96138446D02*
X145588445Y-96281303D01*
X145588445Y-96281303D02*
X145540826Y-96471779D01*
X145540826Y-96471779D02*
X145493207Y-96567017D01*
X145493207Y-96567017D02*
X145397969Y-96662256D01*
X145397969Y-96662256D02*
X145255112Y-96709875D01*
X145255112Y-96709875D02*
X145017017Y-96709875D01*
X146397969Y-96662256D02*
X146302731Y-96709875D01*
X146302731Y-96709875D02*
X146112255Y-96709875D01*
X146112255Y-96709875D02*
X146017017Y-96662256D01*
X146017017Y-96662256D02*
X145969398Y-96567017D01*
X145969398Y-96567017D02*
X145969398Y-96186065D01*
X145969398Y-96186065D02*
X146017017Y-96090827D01*
X146017017Y-96090827D02*
X146112255Y-96043208D01*
X146112255Y-96043208D02*
X146302731Y-96043208D01*
X146302731Y-96043208D02*
X146397969Y-96090827D01*
X146397969Y-96090827D02*
X146445588Y-96186065D01*
X146445588Y-96186065D02*
X146445588Y-96281303D01*
X146445588Y-96281303D02*
X145969398Y-96376541D01*
X146826541Y-96662256D02*
X146921779Y-96709875D01*
X146921779Y-96709875D02*
X147112255Y-96709875D01*
X147112255Y-96709875D02*
X147207493Y-96662256D01*
X147207493Y-96662256D02*
X147255112Y-96567017D01*
X147255112Y-96567017D02*
X147255112Y-96519398D01*
X147255112Y-96519398D02*
X147207493Y-96424160D01*
X147207493Y-96424160D02*
X147112255Y-96376541D01*
X147112255Y-96376541D02*
X146969398Y-96376541D01*
X146969398Y-96376541D02*
X146874160Y-96328922D01*
X146874160Y-96328922D02*
X146826541Y-96233684D01*
X146826541Y-96233684D02*
X146826541Y-96186065D01*
X146826541Y-96186065D02*
X146874160Y-96090827D01*
X146874160Y-96090827D02*
X146969398Y-96043208D01*
X146969398Y-96043208D02*
X147112255Y-96043208D01*
X147112255Y-96043208D02*
X147207493Y-96090827D01*
X147683684Y-96709875D02*
X147683684Y-96043208D01*
X147683684Y-95709875D02*
X147636065Y-95757494D01*
X147636065Y-95757494D02*
X147683684Y-95805113D01*
X147683684Y-95805113D02*
X147731303Y-95757494D01*
X147731303Y-95757494D02*
X147683684Y-95709875D01*
X147683684Y-95709875D02*
X147683684Y-95805113D01*
X148588445Y-96043208D02*
X148588445Y-96852732D01*
X148588445Y-96852732D02*
X148540826Y-96947970D01*
X148540826Y-96947970D02*
X148493207Y-96995589D01*
X148493207Y-96995589D02*
X148397969Y-97043208D01*
X148397969Y-97043208D02*
X148255112Y-97043208D01*
X148255112Y-97043208D02*
X148159874Y-96995589D01*
X148588445Y-96662256D02*
X148493207Y-96709875D01*
X148493207Y-96709875D02*
X148302731Y-96709875D01*
X148302731Y-96709875D02*
X148207493Y-96662256D01*
X148207493Y-96662256D02*
X148159874Y-96614636D01*
X148159874Y-96614636D02*
X148112255Y-96519398D01*
X148112255Y-96519398D02*
X148112255Y-96233684D01*
X148112255Y-96233684D02*
X148159874Y-96138446D01*
X148159874Y-96138446D02*
X148207493Y-96090827D01*
X148207493Y-96090827D02*
X148302731Y-96043208D01*
X148302731Y-96043208D02*
X148493207Y-96043208D01*
X148493207Y-96043208D02*
X148588445Y-96090827D01*
X149064636Y-96043208D02*
X149064636Y-96709875D01*
X149064636Y-96138446D02*
X149112255Y-96090827D01*
X149112255Y-96090827D02*
X149207493Y-96043208D01*
X149207493Y-96043208D02*
X149350350Y-96043208D01*
X149350350Y-96043208D02*
X149445588Y-96090827D01*
X149445588Y-96090827D02*
X149493207Y-96186065D01*
X149493207Y-96186065D02*
X149493207Y-96709875D01*
X150636065Y-96043208D02*
X150874160Y-96709875D01*
X150874160Y-96709875D02*
X151112255Y-96043208D01*
X151397970Y-95709875D02*
X152017017Y-95709875D01*
X152017017Y-95709875D02*
X151683684Y-96090827D01*
X151683684Y-96090827D02*
X151826541Y-96090827D01*
X151826541Y-96090827D02*
X151921779Y-96138446D01*
X151921779Y-96138446D02*
X151969398Y-96186065D01*
X151969398Y-96186065D02*
X152017017Y-96281303D01*
X152017017Y-96281303D02*
X152017017Y-96519398D01*
X152017017Y-96519398D02*
X151969398Y-96614636D01*
X151969398Y-96614636D02*
X151921779Y-96662256D01*
X151921779Y-96662256D02*
X151826541Y-96709875D01*
X151826541Y-96709875D02*
X151540827Y-96709875D01*
X151540827Y-96709875D02*
X151445589Y-96662256D01*
X151445589Y-96662256D02*
X151397970Y-96614636D01*
X135826539Y-98415057D02*
X135731301Y-98367438D01*
X135731301Y-98367438D02*
X135636063Y-98272200D01*
X135636063Y-98272200D02*
X135493206Y-98129342D01*
X135493206Y-98129342D02*
X135397968Y-98081723D01*
X135397968Y-98081723D02*
X135302730Y-98081723D01*
X135350349Y-98319819D02*
X135255111Y-98272200D01*
X135255111Y-98272200D02*
X135159873Y-98176961D01*
X135159873Y-98176961D02*
X135112254Y-97986485D01*
X135112254Y-97986485D02*
X135112254Y-97653152D01*
X135112254Y-97653152D02*
X135159873Y-97462676D01*
X135159873Y-97462676D02*
X135255111Y-97367438D01*
X135255111Y-97367438D02*
X135350349Y-97319819D01*
X135350349Y-97319819D02*
X135540825Y-97319819D01*
X135540825Y-97319819D02*
X135636063Y-97367438D01*
X135636063Y-97367438D02*
X135731301Y-97462676D01*
X135731301Y-97462676D02*
X135778920Y-97653152D01*
X135778920Y-97653152D02*
X135778920Y-97986485D01*
X135778920Y-97986485D02*
X135731301Y-98176961D01*
X135731301Y-98176961D02*
X135636063Y-98272200D01*
X135636063Y-98272200D02*
X135540825Y-98319819D01*
X135540825Y-98319819D02*
X135350349Y-98319819D01*
X136159873Y-98034104D02*
X136636063Y-98034104D01*
X136064635Y-98319819D02*
X136397968Y-97319819D01*
X136397968Y-97319819D02*
X136731301Y-98319819D01*
X136921778Y-97319819D02*
X137493206Y-97319819D01*
X137207492Y-98319819D02*
X137207492Y-97319819D01*
X138397968Y-98224580D02*
X138350349Y-98272200D01*
X138350349Y-98272200D02*
X138207492Y-98319819D01*
X138207492Y-98319819D02*
X138112254Y-98319819D01*
X138112254Y-98319819D02*
X137969397Y-98272200D01*
X137969397Y-98272200D02*
X137874159Y-98176961D01*
X137874159Y-98176961D02*
X137826540Y-98081723D01*
X137826540Y-98081723D02*
X137778921Y-97891247D01*
X137778921Y-97891247D02*
X137778921Y-97748390D01*
X137778921Y-97748390D02*
X137826540Y-97557914D01*
X137826540Y-97557914D02*
X137874159Y-97462676D01*
X137874159Y-97462676D02*
X137969397Y-97367438D01*
X137969397Y-97367438D02*
X138112254Y-97319819D01*
X138112254Y-97319819D02*
X138207492Y-97319819D01*
X138207492Y-97319819D02*
X138350349Y-97367438D01*
X138350349Y-97367438D02*
X138397968Y-97415057D01*
X138826540Y-98319819D02*
X138826540Y-97319819D01*
X138826540Y-97796009D02*
X139397968Y-97796009D01*
X139397968Y-98319819D02*
X139397968Y-97319819D01*
X140493207Y-97319819D02*
X141064635Y-97319819D01*
X140778921Y-98319819D02*
X140778921Y-97319819D01*
X141778921Y-98272200D02*
X141683683Y-98319819D01*
X141683683Y-98319819D02*
X141493207Y-98319819D01*
X141493207Y-98319819D02*
X141397969Y-98272200D01*
X141397969Y-98272200D02*
X141350350Y-98176961D01*
X141350350Y-98176961D02*
X141350350Y-97796009D01*
X141350350Y-97796009D02*
X141397969Y-97700771D01*
X141397969Y-97700771D02*
X141493207Y-97653152D01*
X141493207Y-97653152D02*
X141683683Y-97653152D01*
X141683683Y-97653152D02*
X141778921Y-97700771D01*
X141778921Y-97700771D02*
X141826540Y-97796009D01*
X141826540Y-97796009D02*
X141826540Y-97891247D01*
X141826540Y-97891247D02*
X141350350Y-97986485D01*
X142683683Y-98272200D02*
X142588445Y-98319819D01*
X142588445Y-98319819D02*
X142397969Y-98319819D01*
X142397969Y-98319819D02*
X142302731Y-98272200D01*
X142302731Y-98272200D02*
X142255112Y-98224580D01*
X142255112Y-98224580D02*
X142207493Y-98129342D01*
X142207493Y-98129342D02*
X142207493Y-97843628D01*
X142207493Y-97843628D02*
X142255112Y-97748390D01*
X142255112Y-97748390D02*
X142302731Y-97700771D01*
X142302731Y-97700771D02*
X142397969Y-97653152D01*
X142397969Y-97653152D02*
X142588445Y-97653152D01*
X142588445Y-97653152D02*
X142683683Y-97700771D01*
X143112255Y-98319819D02*
X143112255Y-97319819D01*
X143540826Y-98319819D02*
X143540826Y-97796009D01*
X143540826Y-97796009D02*
X143493207Y-97700771D01*
X143493207Y-97700771D02*
X143397969Y-97653152D01*
X143397969Y-97653152D02*
X143255112Y-97653152D01*
X143255112Y-97653152D02*
X143159874Y-97700771D01*
X143159874Y-97700771D02*
X143112255Y-97748390D01*
X144017017Y-97653152D02*
X144017017Y-98319819D01*
X144017017Y-97748390D02*
X144064636Y-97700771D01*
X144064636Y-97700771D02*
X144159874Y-97653152D01*
X144159874Y-97653152D02*
X144302731Y-97653152D01*
X144302731Y-97653152D02*
X144397969Y-97700771D01*
X144397969Y-97700771D02*
X144445588Y-97796009D01*
X144445588Y-97796009D02*
X144445588Y-98319819D01*
X145064636Y-98319819D02*
X144969398Y-98272200D01*
X144969398Y-98272200D02*
X144921779Y-98224580D01*
X144921779Y-98224580D02*
X144874160Y-98129342D01*
X144874160Y-98129342D02*
X144874160Y-97843628D01*
X144874160Y-97843628D02*
X144921779Y-97748390D01*
X144921779Y-97748390D02*
X144969398Y-97700771D01*
X144969398Y-97700771D02*
X145064636Y-97653152D01*
X145064636Y-97653152D02*
X145207493Y-97653152D01*
X145207493Y-97653152D02*
X145302731Y-97700771D01*
X145302731Y-97700771D02*
X145350350Y-97748390D01*
X145350350Y-97748390D02*
X145397969Y-97843628D01*
X145397969Y-97843628D02*
X145397969Y-98129342D01*
X145397969Y-98129342D02*
X145350350Y-98224580D01*
X145350350Y-98224580D02*
X145302731Y-98272200D01*
X145302731Y-98272200D02*
X145207493Y-98319819D01*
X145207493Y-98319819D02*
X145064636Y-98319819D01*
X145969398Y-98319819D02*
X145874160Y-98272200D01*
X145874160Y-98272200D02*
X145826541Y-98176961D01*
X145826541Y-98176961D02*
X145826541Y-97319819D01*
X146493208Y-98319819D02*
X146397970Y-98272200D01*
X146397970Y-98272200D02*
X146350351Y-98224580D01*
X146350351Y-98224580D02*
X146302732Y-98129342D01*
X146302732Y-98129342D02*
X146302732Y-97843628D01*
X146302732Y-97843628D02*
X146350351Y-97748390D01*
X146350351Y-97748390D02*
X146397970Y-97700771D01*
X146397970Y-97700771D02*
X146493208Y-97653152D01*
X146493208Y-97653152D02*
X146636065Y-97653152D01*
X146636065Y-97653152D02*
X146731303Y-97700771D01*
X146731303Y-97700771D02*
X146778922Y-97748390D01*
X146778922Y-97748390D02*
X146826541Y-97843628D01*
X146826541Y-97843628D02*
X146826541Y-98129342D01*
X146826541Y-98129342D02*
X146778922Y-98224580D01*
X146778922Y-98224580D02*
X146731303Y-98272200D01*
X146731303Y-98272200D02*
X146636065Y-98319819D01*
X146636065Y-98319819D02*
X146493208Y-98319819D01*
X147683684Y-97653152D02*
X147683684Y-98462676D01*
X147683684Y-98462676D02*
X147636065Y-98557914D01*
X147636065Y-98557914D02*
X147588446Y-98605533D01*
X147588446Y-98605533D02*
X147493208Y-98653152D01*
X147493208Y-98653152D02*
X147350351Y-98653152D01*
X147350351Y-98653152D02*
X147255113Y-98605533D01*
X147683684Y-98272200D02*
X147588446Y-98319819D01*
X147588446Y-98319819D02*
X147397970Y-98319819D01*
X147397970Y-98319819D02*
X147302732Y-98272200D01*
X147302732Y-98272200D02*
X147255113Y-98224580D01*
X147255113Y-98224580D02*
X147207494Y-98129342D01*
X147207494Y-98129342D02*
X147207494Y-97843628D01*
X147207494Y-97843628D02*
X147255113Y-97748390D01*
X147255113Y-97748390D02*
X147302732Y-97700771D01*
X147302732Y-97700771D02*
X147397970Y-97653152D01*
X147397970Y-97653152D02*
X147588446Y-97653152D01*
X147588446Y-97653152D02*
X147683684Y-97700771D01*
X148159875Y-98319819D02*
X148159875Y-97653152D01*
X148159875Y-97319819D02*
X148112256Y-97367438D01*
X148112256Y-97367438D02*
X148159875Y-97415057D01*
X148159875Y-97415057D02*
X148207494Y-97367438D01*
X148207494Y-97367438D02*
X148159875Y-97319819D01*
X148159875Y-97319819D02*
X148159875Y-97415057D01*
X149017017Y-98272200D02*
X148921779Y-98319819D01*
X148921779Y-98319819D02*
X148731303Y-98319819D01*
X148731303Y-98319819D02*
X148636065Y-98272200D01*
X148636065Y-98272200D02*
X148588446Y-98176961D01*
X148588446Y-98176961D02*
X148588446Y-97796009D01*
X148588446Y-97796009D02*
X148636065Y-97700771D01*
X148636065Y-97700771D02*
X148731303Y-97653152D01*
X148731303Y-97653152D02*
X148921779Y-97653152D01*
X148921779Y-97653152D02*
X149017017Y-97700771D01*
X149017017Y-97700771D02*
X149064636Y-97796009D01*
X149064636Y-97796009D02*
X149064636Y-97891247D01*
X149064636Y-97891247D02*
X148588446Y-97986485D01*
X149445589Y-98272200D02*
X149540827Y-98319819D01*
X149540827Y-98319819D02*
X149731303Y-98319819D01*
X149731303Y-98319819D02*
X149826541Y-98272200D01*
X149826541Y-98272200D02*
X149874160Y-98176961D01*
X149874160Y-98176961D02*
X149874160Y-98129342D01*
X149874160Y-98129342D02*
X149826541Y-98034104D01*
X149826541Y-98034104D02*
X149731303Y-97986485D01*
X149731303Y-97986485D02*
X149588446Y-97986485D01*
X149588446Y-97986485D02*
X149493208Y-97938866D01*
X149493208Y-97938866D02*
X149445589Y-97843628D01*
X149445589Y-97843628D02*
X149445589Y-97796009D01*
X149445589Y-97796009D02*
X149493208Y-97700771D01*
X149493208Y-97700771D02*
X149588446Y-97653152D01*
X149588446Y-97653152D02*
X149731303Y-97653152D01*
X149731303Y-97653152D02*
X149826541Y-97700771D01*
X151540827Y-98319819D02*
X151064637Y-98319819D01*
X151064637Y-98319819D02*
X151064637Y-97319819D01*
X152350351Y-98319819D02*
X151874161Y-98319819D01*
X151874161Y-98319819D02*
X151874161Y-97319819D01*
X153255113Y-98224580D02*
X153207494Y-98272200D01*
X153207494Y-98272200D02*
X153064637Y-98319819D01*
X153064637Y-98319819D02*
X152969399Y-98319819D01*
X152969399Y-98319819D02*
X152826542Y-98272200D01*
X152826542Y-98272200D02*
X152731304Y-98176961D01*
X152731304Y-98176961D02*
X152683685Y-98081723D01*
X152683685Y-98081723D02*
X152636066Y-97891247D01*
X152636066Y-97891247D02*
X152636066Y-97748390D01*
X152636066Y-97748390D02*
X152683685Y-97557914D01*
X152683685Y-97557914D02*
X152731304Y-97462676D01*
X152731304Y-97462676D02*
X152826542Y-97367438D01*
X152826542Y-97367438D02*
X152969399Y-97319819D01*
X152969399Y-97319819D02*
X153064637Y-97319819D01*
X153064637Y-97319819D02*
X153207494Y-97367438D01*
X153207494Y-97367438D02*
X153255113Y-97415057D01*
X132666666Y-123304819D02*
X132666666Y-124019104D01*
X132666666Y-124019104D02*
X132619047Y-124161961D01*
X132619047Y-124161961D02*
X132523809Y-124257200D01*
X132523809Y-124257200D02*
X132380952Y-124304819D01*
X132380952Y-124304819D02*
X132285714Y-124304819D01*
X133047619Y-123304819D02*
X133714285Y-123304819D01*
X133714285Y-123304819D02*
X133285714Y-124304819D01*
X120166666Y-135304819D02*
X120166666Y-136019104D01*
X120166666Y-136019104D02*
X120119047Y-136161961D01*
X120119047Y-136161961D02*
X120023809Y-136257200D01*
X120023809Y-136257200D02*
X119880952Y-136304819D01*
X119880952Y-136304819D02*
X119785714Y-136304819D01*
X120785714Y-135733390D02*
X120690476Y-135685771D01*
X120690476Y-135685771D02*
X120642857Y-135638152D01*
X120642857Y-135638152D02*
X120595238Y-135542914D01*
X120595238Y-135542914D02*
X120595238Y-135495295D01*
X120595238Y-135495295D02*
X120642857Y-135400057D01*
X120642857Y-135400057D02*
X120690476Y-135352438D01*
X120690476Y-135352438D02*
X120785714Y-135304819D01*
X120785714Y-135304819D02*
X120976190Y-135304819D01*
X120976190Y-135304819D02*
X121071428Y-135352438D01*
X121071428Y-135352438D02*
X121119047Y-135400057D01*
X121119047Y-135400057D02*
X121166666Y-135495295D01*
X121166666Y-135495295D02*
X121166666Y-135542914D01*
X121166666Y-135542914D02*
X121119047Y-135638152D01*
X121119047Y-135638152D02*
X121071428Y-135685771D01*
X121071428Y-135685771D02*
X120976190Y-135733390D01*
X120976190Y-135733390D02*
X120785714Y-135733390D01*
X120785714Y-135733390D02*
X120690476Y-135781009D01*
X120690476Y-135781009D02*
X120642857Y-135828628D01*
X120642857Y-135828628D02*
X120595238Y-135923866D01*
X120595238Y-135923866D02*
X120595238Y-136114342D01*
X120595238Y-136114342D02*
X120642857Y-136209580D01*
X120642857Y-136209580D02*
X120690476Y-136257200D01*
X120690476Y-136257200D02*
X120785714Y-136304819D01*
X120785714Y-136304819D02*
X120976190Y-136304819D01*
X120976190Y-136304819D02*
X121071428Y-136257200D01*
X121071428Y-136257200D02*
X121119047Y-136209580D01*
X121119047Y-136209580D02*
X121166666Y-136114342D01*
X121166666Y-136114342D02*
X121166666Y-135923866D01*
X121166666Y-135923866D02*
X121119047Y-135828628D01*
X121119047Y-135828628D02*
X121071428Y-135781009D01*
X121071428Y-135781009D02*
X120976190Y-135733390D01*
X119690476Y-144304819D02*
X119690476Y-145019104D01*
X119690476Y-145019104D02*
X119642857Y-145161961D01*
X119642857Y-145161961D02*
X119547619Y-145257200D01*
X119547619Y-145257200D02*
X119404762Y-145304819D01*
X119404762Y-145304819D02*
X119309524Y-145304819D01*
X120690476Y-145304819D02*
X120119048Y-145304819D01*
X120404762Y-145304819D02*
X120404762Y-144304819D01*
X120404762Y-144304819D02*
X120309524Y-144447676D01*
X120309524Y-144447676D02*
X120214286Y-144542914D01*
X120214286Y-144542914D02*
X120119048Y-144590533D01*
X121309524Y-144304819D02*
X121404762Y-144304819D01*
X121404762Y-144304819D02*
X121500000Y-144352438D01*
X121500000Y-144352438D02*
X121547619Y-144400057D01*
X121547619Y-144400057D02*
X121595238Y-144495295D01*
X121595238Y-144495295D02*
X121642857Y-144685771D01*
X121642857Y-144685771D02*
X121642857Y-144923866D01*
X121642857Y-144923866D02*
X121595238Y-145114342D01*
X121595238Y-145114342D02*
X121547619Y-145209580D01*
X121547619Y-145209580D02*
X121500000Y-145257200D01*
X121500000Y-145257200D02*
X121404762Y-145304819D01*
X121404762Y-145304819D02*
X121309524Y-145304819D01*
X121309524Y-145304819D02*
X121214286Y-145257200D01*
X121214286Y-145257200D02*
X121166667Y-145209580D01*
X121166667Y-145209580D02*
X121119048Y-145114342D01*
X121119048Y-145114342D02*
X121071429Y-144923866D01*
X121071429Y-144923866D02*
X121071429Y-144685771D01*
X121071429Y-144685771D02*
X121119048Y-144495295D01*
X121119048Y-144495295D02*
X121166667Y-144400057D01*
X121166667Y-144400057D02*
X121214286Y-144352438D01*
X121214286Y-144352438D02*
X121309524Y-144304819D01*
X171190476Y-150804819D02*
X171190476Y-151519104D01*
X171190476Y-151519104D02*
X171142857Y-151661961D01*
X171142857Y-151661961D02*
X171047619Y-151757200D01*
X171047619Y-151757200D02*
X170904762Y-151804819D01*
X170904762Y-151804819D02*
X170809524Y-151804819D01*
X172190476Y-151804819D02*
X171619048Y-151804819D01*
X171904762Y-151804819D02*
X171904762Y-150804819D01*
X171904762Y-150804819D02*
X171809524Y-150947676D01*
X171809524Y-150947676D02*
X171714286Y-151042914D01*
X171714286Y-151042914D02*
X171619048Y-151090533D01*
X172523810Y-150804819D02*
X173142857Y-150804819D01*
X173142857Y-150804819D02*
X172809524Y-151185771D01*
X172809524Y-151185771D02*
X172952381Y-151185771D01*
X172952381Y-151185771D02*
X173047619Y-151233390D01*
X173047619Y-151233390D02*
X173095238Y-151281009D01*
X173095238Y-151281009D02*
X173142857Y-151376247D01*
X173142857Y-151376247D02*
X173142857Y-151614342D01*
X173142857Y-151614342D02*
X173095238Y-151709580D01*
X173095238Y-151709580D02*
X173047619Y-151757200D01*
X173047619Y-151757200D02*
X172952381Y-151804819D01*
X172952381Y-151804819D02*
X172666667Y-151804819D01*
X172666667Y-151804819D02*
X172571429Y-151757200D01*
X172571429Y-151757200D02*
X172523810Y-151709580D01*
X199988095Y-151154819D02*
X199988095Y-150154819D01*
X199988095Y-150631009D02*
X200559523Y-150631009D01*
X200559523Y-151154819D02*
X200559523Y-150154819D01*
X201464285Y-150488152D02*
X201464285Y-151154819D01*
X201226190Y-150107200D02*
X200988095Y-150821485D01*
X200988095Y-150821485D02*
X201607142Y-150821485D01*
X195690476Y-135304819D02*
X195690476Y-136019104D01*
X195690476Y-136019104D02*
X195642857Y-136161961D01*
X195642857Y-136161961D02*
X195547619Y-136257200D01*
X195547619Y-136257200D02*
X195404762Y-136304819D01*
X195404762Y-136304819D02*
X195309524Y-136304819D01*
X196119048Y-135400057D02*
X196166667Y-135352438D01*
X196166667Y-135352438D02*
X196261905Y-135304819D01*
X196261905Y-135304819D02*
X196500000Y-135304819D01*
X196500000Y-135304819D02*
X196595238Y-135352438D01*
X196595238Y-135352438D02*
X196642857Y-135400057D01*
X196642857Y-135400057D02*
X196690476Y-135495295D01*
X196690476Y-135495295D02*
X196690476Y-135590533D01*
X196690476Y-135590533D02*
X196642857Y-135733390D01*
X196642857Y-135733390D02*
X196071429Y-136304819D01*
X196071429Y-136304819D02*
X196690476Y-136304819D01*
X197071429Y-135400057D02*
X197119048Y-135352438D01*
X197119048Y-135352438D02*
X197214286Y-135304819D01*
X197214286Y-135304819D02*
X197452381Y-135304819D01*
X197452381Y-135304819D02*
X197547619Y-135352438D01*
X197547619Y-135352438D02*
X197595238Y-135400057D01*
X197595238Y-135400057D02*
X197642857Y-135495295D01*
X197642857Y-135495295D02*
X197642857Y-135590533D01*
X197642857Y-135590533D02*
X197595238Y-135733390D01*
X197595238Y-135733390D02*
X197023810Y-136304819D01*
X197023810Y-136304819D02*
X197642857Y-136304819D01*
X92488095Y-106154819D02*
X92488095Y-105154819D01*
X92488095Y-105631009D02*
X93059523Y-105631009D01*
X93059523Y-106154819D02*
X93059523Y-105154819D01*
X94059523Y-106154819D02*
X93488095Y-106154819D01*
X93773809Y-106154819D02*
X93773809Y-105154819D01*
X93773809Y-105154819D02*
X93678571Y-105297676D01*
X93678571Y-105297676D02*
X93583333Y-105392914D01*
X93583333Y-105392914D02*
X93488095Y-105440533D01*
X199988095Y-106154819D02*
X199988095Y-105154819D01*
X199988095Y-105631009D02*
X200559523Y-105631009D01*
X200559523Y-106154819D02*
X200559523Y-105154819D01*
X200988095Y-105250057D02*
X201035714Y-105202438D01*
X201035714Y-105202438D02*
X201130952Y-105154819D01*
X201130952Y-105154819D02*
X201369047Y-105154819D01*
X201369047Y-105154819D02*
X201464285Y-105202438D01*
X201464285Y-105202438D02*
X201511904Y-105250057D01*
X201511904Y-105250057D02*
X201559523Y-105345295D01*
X201559523Y-105345295D02*
X201559523Y-105440533D01*
X201559523Y-105440533D02*
X201511904Y-105583390D01*
X201511904Y-105583390D02*
X200940476Y-106154819D01*
X200940476Y-106154819D02*
X201559523Y-106154819D01*
X122738095Y-151154819D02*
X122738095Y-150154819D01*
X122738095Y-150631009D02*
X123309523Y-150631009D01*
X123309523Y-151154819D02*
X123309523Y-150154819D01*
X123690476Y-150154819D02*
X124309523Y-150154819D01*
X124309523Y-150154819D02*
X123976190Y-150535771D01*
X123976190Y-150535771D02*
X124119047Y-150535771D01*
X124119047Y-150535771D02*
X124214285Y-150583390D01*
X124214285Y-150583390D02*
X124261904Y-150631009D01*
X124261904Y-150631009D02*
X124309523Y-150726247D01*
X124309523Y-150726247D02*
X124309523Y-150964342D01*
X124309523Y-150964342D02*
X124261904Y-151059580D01*
X124261904Y-151059580D02*
X124214285Y-151107200D01*
X124214285Y-151107200D02*
X124119047Y-151154819D01*
X124119047Y-151154819D02*
X123833333Y-151154819D01*
X123833333Y-151154819D02*
X123738095Y-151107200D01*
X123738095Y-151107200D02*
X123690476Y-151059580D01*
X132190476Y-141304819D02*
X132190476Y-142019104D01*
X132190476Y-142019104D02*
X132142857Y-142161961D01*
X132142857Y-142161961D02*
X132047619Y-142257200D01*
X132047619Y-142257200D02*
X131904762Y-142304819D01*
X131904762Y-142304819D02*
X131809524Y-142304819D01*
X133190476Y-142304819D02*
X132619048Y-142304819D01*
X132904762Y-142304819D02*
X132904762Y-141304819D01*
X132904762Y-141304819D02*
X132809524Y-141447676D01*
X132809524Y-141447676D02*
X132714286Y-141542914D01*
X132714286Y-141542914D02*
X132619048Y-141590533D01*
X134142857Y-142304819D02*
X133571429Y-142304819D01*
X133857143Y-142304819D02*
X133857143Y-141304819D01*
X133857143Y-141304819D02*
X133761905Y-141447676D01*
X133761905Y-141447676D02*
X133666667Y-141542914D01*
X133666667Y-141542914D02*
X133571429Y-141590533D01*
X133190476Y-150804819D02*
X133190476Y-151519104D01*
X133190476Y-151519104D02*
X133142857Y-151661961D01*
X133142857Y-151661961D02*
X133047619Y-151757200D01*
X133047619Y-151757200D02*
X132904762Y-151804819D01*
X132904762Y-151804819D02*
X132809524Y-151804819D01*
X134190476Y-151804819D02*
X133619048Y-151804819D01*
X133904762Y-151804819D02*
X133904762Y-150804819D01*
X133904762Y-150804819D02*
X133809524Y-150947676D01*
X133809524Y-150947676D02*
X133714286Y-151042914D01*
X133714286Y-151042914D02*
X133619048Y-151090533D01*
X134571429Y-150900057D02*
X134619048Y-150852438D01*
X134619048Y-150852438D02*
X134714286Y-150804819D01*
X134714286Y-150804819D02*
X134952381Y-150804819D01*
X134952381Y-150804819D02*
X135047619Y-150852438D01*
X135047619Y-150852438D02*
X135095238Y-150900057D01*
X135095238Y-150900057D02*
X135142857Y-150995295D01*
X135142857Y-150995295D02*
X135142857Y-151090533D01*
X135142857Y-151090533D02*
X135095238Y-151233390D01*
X135095238Y-151233390D02*
X134523810Y-151804819D01*
X134523810Y-151804819D02*
X135142857Y-151804819D01*
X94666666Y-123304819D02*
X94666666Y-124019104D01*
X94666666Y-124019104D02*
X94619047Y-124161961D01*
X94619047Y-124161961D02*
X94523809Y-124257200D01*
X94523809Y-124257200D02*
X94380952Y-124304819D01*
X94380952Y-124304819D02*
X94285714Y-124304819D01*
X95666666Y-124304819D02*
X95095238Y-124304819D01*
X95380952Y-124304819D02*
X95380952Y-123304819D01*
X95380952Y-123304819D02*
X95285714Y-123447676D01*
X95285714Y-123447676D02*
X95190476Y-123542914D01*
X95190476Y-123542914D02*
X95095238Y-123590533D01*
X195690476Y-144304819D02*
X195690476Y-145019104D01*
X195690476Y-145019104D02*
X195642857Y-145161961D01*
X195642857Y-145161961D02*
X195547619Y-145257200D01*
X195547619Y-145257200D02*
X195404762Y-145304819D01*
X195404762Y-145304819D02*
X195309524Y-145304819D01*
X196119048Y-144400057D02*
X196166667Y-144352438D01*
X196166667Y-144352438D02*
X196261905Y-144304819D01*
X196261905Y-144304819D02*
X196500000Y-144304819D01*
X196500000Y-144304819D02*
X196595238Y-144352438D01*
X196595238Y-144352438D02*
X196642857Y-144400057D01*
X196642857Y-144400057D02*
X196690476Y-144495295D01*
X196690476Y-144495295D02*
X196690476Y-144590533D01*
X196690476Y-144590533D02*
X196642857Y-144733390D01*
X196642857Y-144733390D02*
X196071429Y-145304819D01*
X196071429Y-145304819D02*
X196690476Y-145304819D01*
X197642857Y-145304819D02*
X197071429Y-145304819D01*
X197357143Y-145304819D02*
X197357143Y-144304819D01*
X197357143Y-144304819D02*
X197261905Y-144447676D01*
X197261905Y-144447676D02*
X197166667Y-144542914D01*
X197166667Y-144542914D02*
X197071429Y-144590533D01*
X170190476Y-123304819D02*
X170190476Y-124019104D01*
X170190476Y-124019104D02*
X170142857Y-124161961D01*
X170142857Y-124161961D02*
X170047619Y-124257200D01*
X170047619Y-124257200D02*
X169904762Y-124304819D01*
X169904762Y-124304819D02*
X169809524Y-124304819D01*
X170619048Y-123400057D02*
X170666667Y-123352438D01*
X170666667Y-123352438D02*
X170761905Y-123304819D01*
X170761905Y-123304819D02*
X171000000Y-123304819D01*
X171000000Y-123304819D02*
X171095238Y-123352438D01*
X171095238Y-123352438D02*
X171142857Y-123400057D01*
X171142857Y-123400057D02*
X171190476Y-123495295D01*
X171190476Y-123495295D02*
X171190476Y-123590533D01*
X171190476Y-123590533D02*
X171142857Y-123733390D01*
X171142857Y-123733390D02*
X170571429Y-124304819D01*
X170571429Y-124304819D02*
X171190476Y-124304819D01*
X171809524Y-123304819D02*
X171904762Y-123304819D01*
X171904762Y-123304819D02*
X172000000Y-123352438D01*
X172000000Y-123352438D02*
X172047619Y-123400057D01*
X172047619Y-123400057D02*
X172095238Y-123495295D01*
X172095238Y-123495295D02*
X172142857Y-123685771D01*
X172142857Y-123685771D02*
X172142857Y-123923866D01*
X172142857Y-123923866D02*
X172095238Y-124114342D01*
X172095238Y-124114342D02*
X172047619Y-124209580D01*
X172047619Y-124209580D02*
X172000000Y-124257200D01*
X172000000Y-124257200D02*
X171904762Y-124304819D01*
X171904762Y-124304819D02*
X171809524Y-124304819D01*
X171809524Y-124304819D02*
X171714286Y-124257200D01*
X171714286Y-124257200D02*
X171666667Y-124209580D01*
X171666667Y-124209580D02*
X171619048Y-124114342D01*
X171619048Y-124114342D02*
X171571429Y-123923866D01*
X171571429Y-123923866D02*
X171571429Y-123685771D01*
X171571429Y-123685771D02*
X171619048Y-123495295D01*
X171619048Y-123495295D02*
X171666667Y-123400057D01*
X171666667Y-123400057D02*
X171714286Y-123352438D01*
X171714286Y-123352438D02*
X171809524Y-123304819D01*
X119666666Y-116304819D02*
X119666666Y-117019104D01*
X119666666Y-117019104D02*
X119619047Y-117161961D01*
X119619047Y-117161961D02*
X119523809Y-117257200D01*
X119523809Y-117257200D02*
X119380952Y-117304819D01*
X119380952Y-117304819D02*
X119285714Y-117304819D01*
X120619047Y-116304819D02*
X120142857Y-116304819D01*
X120142857Y-116304819D02*
X120095238Y-116781009D01*
X120095238Y-116781009D02*
X120142857Y-116733390D01*
X120142857Y-116733390D02*
X120238095Y-116685771D01*
X120238095Y-116685771D02*
X120476190Y-116685771D01*
X120476190Y-116685771D02*
X120571428Y-116733390D01*
X120571428Y-116733390D02*
X120619047Y-116781009D01*
X120619047Y-116781009D02*
X120666666Y-116876247D01*
X120666666Y-116876247D02*
X120666666Y-117114342D01*
X120666666Y-117114342D02*
X120619047Y-117209580D01*
X120619047Y-117209580D02*
X120571428Y-117257200D01*
X120571428Y-117257200D02*
X120476190Y-117304819D01*
X120476190Y-117304819D02*
X120238095Y-117304819D01*
X120238095Y-117304819D02*
X120142857Y-117257200D01*
X120142857Y-117257200D02*
X120095238Y-117209580D01*
X170190476Y-132304819D02*
X170190476Y-133019104D01*
X170190476Y-133019104D02*
X170142857Y-133161961D01*
X170142857Y-133161961D02*
X170047619Y-133257200D01*
X170047619Y-133257200D02*
X169904762Y-133304819D01*
X169904762Y-133304819D02*
X169809524Y-133304819D01*
X171190476Y-133304819D02*
X170619048Y-133304819D01*
X170904762Y-133304819D02*
X170904762Y-132304819D01*
X170904762Y-132304819D02*
X170809524Y-132447676D01*
X170809524Y-132447676D02*
X170714286Y-132542914D01*
X170714286Y-132542914D02*
X170619048Y-132590533D01*
X171761905Y-132733390D02*
X171666667Y-132685771D01*
X171666667Y-132685771D02*
X171619048Y-132638152D01*
X171619048Y-132638152D02*
X171571429Y-132542914D01*
X171571429Y-132542914D02*
X171571429Y-132495295D01*
X171571429Y-132495295D02*
X171619048Y-132400057D01*
X171619048Y-132400057D02*
X171666667Y-132352438D01*
X171666667Y-132352438D02*
X171761905Y-132304819D01*
X171761905Y-132304819D02*
X171952381Y-132304819D01*
X171952381Y-132304819D02*
X172047619Y-132352438D01*
X172047619Y-132352438D02*
X172095238Y-132400057D01*
X172095238Y-132400057D02*
X172142857Y-132495295D01*
X172142857Y-132495295D02*
X172142857Y-132542914D01*
X172142857Y-132542914D02*
X172095238Y-132638152D01*
X172095238Y-132638152D02*
X172047619Y-132685771D01*
X172047619Y-132685771D02*
X171952381Y-132733390D01*
X171952381Y-132733390D02*
X171761905Y-132733390D01*
X171761905Y-132733390D02*
X171666667Y-132781009D01*
X171666667Y-132781009D02*
X171619048Y-132828628D01*
X171619048Y-132828628D02*
X171571429Y-132923866D01*
X171571429Y-132923866D02*
X171571429Y-133114342D01*
X171571429Y-133114342D02*
X171619048Y-133209580D01*
X171619048Y-133209580D02*
X171666667Y-133257200D01*
X171666667Y-133257200D02*
X171761905Y-133304819D01*
X171761905Y-133304819D02*
X171952381Y-133304819D01*
X171952381Y-133304819D02*
X172047619Y-133257200D01*
X172047619Y-133257200D02*
X172095238Y-133209580D01*
X172095238Y-133209580D02*
X172142857Y-133114342D01*
X172142857Y-133114342D02*
X172142857Y-132923866D01*
X172142857Y-132923866D02*
X172095238Y-132828628D01*
X172095238Y-132828628D02*
X172047619Y-132781009D01*
X172047619Y-132781009D02*
X171952381Y-132733390D01*
X94666666Y-132304819D02*
X94666666Y-133019104D01*
X94666666Y-133019104D02*
X94619047Y-133161961D01*
X94619047Y-133161961D02*
X94523809Y-133257200D01*
X94523809Y-133257200D02*
X94380952Y-133304819D01*
X94380952Y-133304819D02*
X94285714Y-133304819D01*
X95095238Y-132400057D02*
X95142857Y-132352438D01*
X95142857Y-132352438D02*
X95238095Y-132304819D01*
X95238095Y-132304819D02*
X95476190Y-132304819D01*
X95476190Y-132304819D02*
X95571428Y-132352438D01*
X95571428Y-132352438D02*
X95619047Y-132400057D01*
X95619047Y-132400057D02*
X95666666Y-132495295D01*
X95666666Y-132495295D02*
X95666666Y-132590533D01*
X95666666Y-132590533D02*
X95619047Y-132733390D01*
X95619047Y-132733390D02*
X95047619Y-133304819D01*
X95047619Y-133304819D02*
X95666666Y-133304819D01*
X94666666Y-141304819D02*
X94666666Y-142019104D01*
X94666666Y-142019104D02*
X94619047Y-142161961D01*
X94619047Y-142161961D02*
X94523809Y-142257200D01*
X94523809Y-142257200D02*
X94380952Y-142304819D01*
X94380952Y-142304819D02*
X94285714Y-142304819D01*
X95047619Y-141304819D02*
X95666666Y-141304819D01*
X95666666Y-141304819D02*
X95333333Y-141685771D01*
X95333333Y-141685771D02*
X95476190Y-141685771D01*
X95476190Y-141685771D02*
X95571428Y-141733390D01*
X95571428Y-141733390D02*
X95619047Y-141781009D01*
X95619047Y-141781009D02*
X95666666Y-141876247D01*
X95666666Y-141876247D02*
X95666666Y-142114342D01*
X95666666Y-142114342D02*
X95619047Y-142209580D01*
X95619047Y-142209580D02*
X95571428Y-142257200D01*
X95571428Y-142257200D02*
X95476190Y-142304819D01*
X95476190Y-142304819D02*
X95190476Y-142304819D01*
X95190476Y-142304819D02*
X95095238Y-142257200D01*
X95095238Y-142257200D02*
X95047619Y-142209580D01*
X120166666Y-126304819D02*
X120166666Y-127019104D01*
X120166666Y-127019104D02*
X120119047Y-127161961D01*
X120119047Y-127161961D02*
X120023809Y-127257200D01*
X120023809Y-127257200D02*
X119880952Y-127304819D01*
X119880952Y-127304819D02*
X119785714Y-127304819D01*
X121071428Y-126304819D02*
X120880952Y-126304819D01*
X120880952Y-126304819D02*
X120785714Y-126352438D01*
X120785714Y-126352438D02*
X120738095Y-126400057D01*
X120738095Y-126400057D02*
X120642857Y-126542914D01*
X120642857Y-126542914D02*
X120595238Y-126733390D01*
X120595238Y-126733390D02*
X120595238Y-127114342D01*
X120595238Y-127114342D02*
X120642857Y-127209580D01*
X120642857Y-127209580D02*
X120690476Y-127257200D01*
X120690476Y-127257200D02*
X120785714Y-127304819D01*
X120785714Y-127304819D02*
X120976190Y-127304819D01*
X120976190Y-127304819D02*
X121071428Y-127257200D01*
X121071428Y-127257200D02*
X121119047Y-127209580D01*
X121119047Y-127209580D02*
X121166666Y-127114342D01*
X121166666Y-127114342D02*
X121166666Y-126876247D01*
X121166666Y-126876247D02*
X121119047Y-126781009D01*
X121119047Y-126781009D02*
X121071428Y-126733390D01*
X121071428Y-126733390D02*
X120976190Y-126685771D01*
X120976190Y-126685771D02*
X120785714Y-126685771D01*
X120785714Y-126685771D02*
X120690476Y-126733390D01*
X120690476Y-126733390D02*
X120642857Y-126781009D01*
X120642857Y-126781009D02*
X120595238Y-126876247D01*
X157690476Y-126304819D02*
X157690476Y-127019104D01*
X157690476Y-127019104D02*
X157642857Y-127161961D01*
X157642857Y-127161961D02*
X157547619Y-127257200D01*
X157547619Y-127257200D02*
X157404762Y-127304819D01*
X157404762Y-127304819D02*
X157309524Y-127304819D01*
X158690476Y-127304819D02*
X158119048Y-127304819D01*
X158404762Y-127304819D02*
X158404762Y-126304819D01*
X158404762Y-126304819D02*
X158309524Y-126447676D01*
X158309524Y-126447676D02*
X158214286Y-126542914D01*
X158214286Y-126542914D02*
X158119048Y-126590533D01*
X159023810Y-126304819D02*
X159690476Y-126304819D01*
X159690476Y-126304819D02*
X159261905Y-127304819D01*
X95666666Y-150804819D02*
X95666666Y-151519104D01*
X95666666Y-151519104D02*
X95619047Y-151661961D01*
X95619047Y-151661961D02*
X95523809Y-151757200D01*
X95523809Y-151757200D02*
X95380952Y-151804819D01*
X95380952Y-151804819D02*
X95285714Y-151804819D01*
X96571428Y-151138152D02*
X96571428Y-151804819D01*
X96333333Y-150757200D02*
X96095238Y-151471485D01*
X96095238Y-151471485D02*
X96714285Y-151471485D01*
X194690476Y-116304819D02*
X194690476Y-117019104D01*
X194690476Y-117019104D02*
X194642857Y-117161961D01*
X194642857Y-117161961D02*
X194547619Y-117257200D01*
X194547619Y-117257200D02*
X194404762Y-117304819D01*
X194404762Y-117304819D02*
X194309524Y-117304819D01*
X195119048Y-116400057D02*
X195166667Y-116352438D01*
X195166667Y-116352438D02*
X195261905Y-116304819D01*
X195261905Y-116304819D02*
X195500000Y-116304819D01*
X195500000Y-116304819D02*
X195595238Y-116352438D01*
X195595238Y-116352438D02*
X195642857Y-116400057D01*
X195642857Y-116400057D02*
X195690476Y-116495295D01*
X195690476Y-116495295D02*
X195690476Y-116590533D01*
X195690476Y-116590533D02*
X195642857Y-116733390D01*
X195642857Y-116733390D02*
X195071429Y-117304819D01*
X195071429Y-117304819D02*
X195690476Y-117304819D01*
X196547619Y-116638152D02*
X196547619Y-117304819D01*
X196309524Y-116257200D02*
X196071429Y-116971485D01*
X196071429Y-116971485D02*
X196690476Y-116971485D01*
X195690476Y-126304819D02*
X195690476Y-127019104D01*
X195690476Y-127019104D02*
X195642857Y-127161961D01*
X195642857Y-127161961D02*
X195547619Y-127257200D01*
X195547619Y-127257200D02*
X195404762Y-127304819D01*
X195404762Y-127304819D02*
X195309524Y-127304819D01*
X196119048Y-126400057D02*
X196166667Y-126352438D01*
X196166667Y-126352438D02*
X196261905Y-126304819D01*
X196261905Y-126304819D02*
X196500000Y-126304819D01*
X196500000Y-126304819D02*
X196595238Y-126352438D01*
X196595238Y-126352438D02*
X196642857Y-126400057D01*
X196642857Y-126400057D02*
X196690476Y-126495295D01*
X196690476Y-126495295D02*
X196690476Y-126590533D01*
X196690476Y-126590533D02*
X196642857Y-126733390D01*
X196642857Y-126733390D02*
X196071429Y-127304819D01*
X196071429Y-127304819D02*
X196690476Y-127304819D01*
X197023810Y-126304819D02*
X197642857Y-126304819D01*
X197642857Y-126304819D02*
X197309524Y-126685771D01*
X197309524Y-126685771D02*
X197452381Y-126685771D01*
X197452381Y-126685771D02*
X197547619Y-126733390D01*
X197547619Y-126733390D02*
X197595238Y-126781009D01*
X197595238Y-126781009D02*
X197642857Y-126876247D01*
X197642857Y-126876247D02*
X197642857Y-127114342D01*
X197642857Y-127114342D02*
X197595238Y-127209580D01*
X197595238Y-127209580D02*
X197547619Y-127257200D01*
X197547619Y-127257200D02*
X197452381Y-127304819D01*
X197452381Y-127304819D02*
X197166667Y-127304819D01*
X197166667Y-127304819D02*
X197071429Y-127257200D01*
X197071429Y-127257200D02*
X197023810Y-127209580D01*
X132666666Y-132304819D02*
X132666666Y-133019104D01*
X132666666Y-133019104D02*
X132619047Y-133161961D01*
X132619047Y-133161961D02*
X132523809Y-133257200D01*
X132523809Y-133257200D02*
X132380952Y-133304819D01*
X132380952Y-133304819D02*
X132285714Y-133304819D01*
X133190476Y-133304819D02*
X133380952Y-133304819D01*
X133380952Y-133304819D02*
X133476190Y-133257200D01*
X133476190Y-133257200D02*
X133523809Y-133209580D01*
X133523809Y-133209580D02*
X133619047Y-133066723D01*
X133619047Y-133066723D02*
X133666666Y-132876247D01*
X133666666Y-132876247D02*
X133666666Y-132495295D01*
X133666666Y-132495295D02*
X133619047Y-132400057D01*
X133619047Y-132400057D02*
X133571428Y-132352438D01*
X133571428Y-132352438D02*
X133476190Y-132304819D01*
X133476190Y-132304819D02*
X133285714Y-132304819D01*
X133285714Y-132304819D02*
X133190476Y-132352438D01*
X133190476Y-132352438D02*
X133142857Y-132400057D01*
X133142857Y-132400057D02*
X133095238Y-132495295D01*
X133095238Y-132495295D02*
X133095238Y-132733390D01*
X133095238Y-132733390D02*
X133142857Y-132828628D01*
X133142857Y-132828628D02*
X133190476Y-132876247D01*
X133190476Y-132876247D02*
X133285714Y-132923866D01*
X133285714Y-132923866D02*
X133476190Y-132923866D01*
X133476190Y-132923866D02*
X133571428Y-132876247D01*
X133571428Y-132876247D02*
X133619047Y-132828628D01*
X133619047Y-132828628D02*
X133666666Y-132733390D01*
X170190476Y-141304819D02*
X170190476Y-142019104D01*
X170190476Y-142019104D02*
X170142857Y-142161961D01*
X170142857Y-142161961D02*
X170047619Y-142257200D01*
X170047619Y-142257200D02*
X169904762Y-142304819D01*
X169904762Y-142304819D02*
X169809524Y-142304819D01*
X171190476Y-142304819D02*
X170619048Y-142304819D01*
X170904762Y-142304819D02*
X170904762Y-141304819D01*
X170904762Y-141304819D02*
X170809524Y-141447676D01*
X170809524Y-141447676D02*
X170714286Y-141542914D01*
X170714286Y-141542914D02*
X170619048Y-141590533D01*
X172047619Y-141638152D02*
X172047619Y-142304819D01*
X171809524Y-141257200D02*
X171571429Y-141971485D01*
X171571429Y-141971485D02*
X172190476Y-141971485D01*
X157190476Y-116304819D02*
X157190476Y-117019104D01*
X157190476Y-117019104D02*
X157142857Y-117161961D01*
X157142857Y-117161961D02*
X157047619Y-117257200D01*
X157047619Y-117257200D02*
X156904762Y-117304819D01*
X156904762Y-117304819D02*
X156809524Y-117304819D01*
X158190476Y-117304819D02*
X157619048Y-117304819D01*
X157904762Y-117304819D02*
X157904762Y-116304819D01*
X157904762Y-116304819D02*
X157809524Y-116447676D01*
X157809524Y-116447676D02*
X157714286Y-116542914D01*
X157714286Y-116542914D02*
X157619048Y-116590533D01*
X158666667Y-117304819D02*
X158857143Y-117304819D01*
X158857143Y-117304819D02*
X158952381Y-117257200D01*
X158952381Y-117257200D02*
X159000000Y-117209580D01*
X159000000Y-117209580D02*
X159095238Y-117066723D01*
X159095238Y-117066723D02*
X159142857Y-116876247D01*
X159142857Y-116876247D02*
X159142857Y-116495295D01*
X159142857Y-116495295D02*
X159095238Y-116400057D01*
X159095238Y-116400057D02*
X159047619Y-116352438D01*
X159047619Y-116352438D02*
X158952381Y-116304819D01*
X158952381Y-116304819D02*
X158761905Y-116304819D01*
X158761905Y-116304819D02*
X158666667Y-116352438D01*
X158666667Y-116352438D02*
X158619048Y-116400057D01*
X158619048Y-116400057D02*
X158571429Y-116495295D01*
X158571429Y-116495295D02*
X158571429Y-116733390D01*
X158571429Y-116733390D02*
X158619048Y-116828628D01*
X158619048Y-116828628D02*
X158666667Y-116876247D01*
X158666667Y-116876247D02*
X158761905Y-116923866D01*
X158761905Y-116923866D02*
X158952381Y-116923866D01*
X158952381Y-116923866D02*
X159047619Y-116876247D01*
X159047619Y-116876247D02*
X159095238Y-116828628D01*
X159095238Y-116828628D02*
X159142857Y-116733390D01*
X157690476Y-143804819D02*
X157690476Y-144519104D01*
X157690476Y-144519104D02*
X157642857Y-144661961D01*
X157642857Y-144661961D02*
X157547619Y-144757200D01*
X157547619Y-144757200D02*
X157404762Y-144804819D01*
X157404762Y-144804819D02*
X157309524Y-144804819D01*
X158690476Y-144804819D02*
X158119048Y-144804819D01*
X158404762Y-144804819D02*
X158404762Y-143804819D01*
X158404762Y-143804819D02*
X158309524Y-143947676D01*
X158309524Y-143947676D02*
X158214286Y-144042914D01*
X158214286Y-144042914D02*
X158119048Y-144090533D01*
X159595238Y-143804819D02*
X159119048Y-143804819D01*
X159119048Y-143804819D02*
X159071429Y-144281009D01*
X159071429Y-144281009D02*
X159119048Y-144233390D01*
X159119048Y-144233390D02*
X159214286Y-144185771D01*
X159214286Y-144185771D02*
X159452381Y-144185771D01*
X159452381Y-144185771D02*
X159547619Y-144233390D01*
X159547619Y-144233390D02*
X159595238Y-144281009D01*
X159595238Y-144281009D02*
X159642857Y-144376247D01*
X159642857Y-144376247D02*
X159642857Y-144614342D01*
X159642857Y-144614342D02*
X159595238Y-144709580D01*
X159595238Y-144709580D02*
X159547619Y-144757200D01*
X159547619Y-144757200D02*
X159452381Y-144804819D01*
X159452381Y-144804819D02*
X159214286Y-144804819D01*
X159214286Y-144804819D02*
X159119048Y-144757200D01*
X159119048Y-144757200D02*
X159071429Y-144709580D01*
X157690476Y-135304819D02*
X157690476Y-136019104D01*
X157690476Y-136019104D02*
X157642857Y-136161961D01*
X157642857Y-136161961D02*
X157547619Y-136257200D01*
X157547619Y-136257200D02*
X157404762Y-136304819D01*
X157404762Y-136304819D02*
X157309524Y-136304819D01*
X158690476Y-136304819D02*
X158119048Y-136304819D01*
X158404762Y-136304819D02*
X158404762Y-135304819D01*
X158404762Y-135304819D02*
X158309524Y-135447676D01*
X158309524Y-135447676D02*
X158214286Y-135542914D01*
X158214286Y-135542914D02*
X158119048Y-135590533D01*
X159547619Y-135304819D02*
X159357143Y-135304819D01*
X159357143Y-135304819D02*
X159261905Y-135352438D01*
X159261905Y-135352438D02*
X159214286Y-135400057D01*
X159214286Y-135400057D02*
X159119048Y-135542914D01*
X159119048Y-135542914D02*
X159071429Y-135733390D01*
X159071429Y-135733390D02*
X159071429Y-136114342D01*
X159071429Y-136114342D02*
X159119048Y-136209580D01*
X159119048Y-136209580D02*
X159166667Y-136257200D01*
X159166667Y-136257200D02*
X159261905Y-136304819D01*
X159261905Y-136304819D02*
X159452381Y-136304819D01*
X159452381Y-136304819D02*
X159547619Y-136257200D01*
X159547619Y-136257200D02*
X159595238Y-136209580D01*
X159595238Y-136209580D02*
X159642857Y-136114342D01*
X159642857Y-136114342D02*
X159642857Y-135876247D01*
X159642857Y-135876247D02*
X159595238Y-135781009D01*
X159595238Y-135781009D02*
X159547619Y-135733390D01*
X159547619Y-135733390D02*
X159452381Y-135685771D01*
X159452381Y-135685771D02*
X159261905Y-135685771D01*
X159261905Y-135685771D02*
X159166667Y-135733390D01*
X159166667Y-135733390D02*
X159119048Y-135781009D01*
X159119048Y-135781009D02*
X159071429Y-135876247D01*
D11*
%TO.C,J7*%
X131150000Y-124650000D02*
X132480000Y-124650000D01*
X131150000Y-125980000D02*
X131150000Y-124650000D01*
X131670000Y-128340000D02*
X131670000Y-128400000D01*
X131670000Y-128340000D02*
X134330000Y-128340000D01*
X131670000Y-128400000D02*
X134330000Y-128400000D01*
X134330000Y-128340000D02*
X134330000Y-128400000D01*
%TO.C,J8*%
X118650000Y-136650000D02*
X119980000Y-136650000D01*
X118650000Y-137980000D02*
X118650000Y-136650000D01*
X119170000Y-140340000D02*
X119170000Y-140400000D01*
X119170000Y-140340000D02*
X121830000Y-140340000D01*
X119170000Y-140400000D02*
X121830000Y-140400000D01*
X121830000Y-140340000D02*
X121830000Y-140400000D01*
%TO.C,J10*%
X118650000Y-145650000D02*
X119980000Y-145650000D01*
X118650000Y-146980000D02*
X118650000Y-145650000D01*
X119170000Y-149340000D02*
X119170000Y-149400000D01*
X119170000Y-149340000D02*
X121830000Y-149340000D01*
X119170000Y-149400000D02*
X121830000Y-149400000D01*
X121830000Y-149340000D02*
X121830000Y-149400000D01*
%TO.C,J13*%
X170150000Y-152150000D02*
X171480000Y-152150000D01*
X170150000Y-153480000D02*
X170150000Y-152150000D01*
X170670000Y-155840000D02*
X170670000Y-155900000D01*
X170670000Y-155840000D02*
X173330000Y-155840000D01*
X170670000Y-155900000D02*
X173330000Y-155900000D01*
X173330000Y-155840000D02*
X173330000Y-155900000D01*
%TO.C,J22*%
X194650000Y-136650000D02*
X195980000Y-136650000D01*
X194650000Y-137980000D02*
X194650000Y-136650000D01*
X195170000Y-140340000D02*
X195170000Y-140400000D01*
X195170000Y-140340000D02*
X197830000Y-140340000D01*
X195170000Y-140400000D02*
X197830000Y-140400000D01*
X197830000Y-140340000D02*
X197830000Y-140400000D01*
%TO.C,J11*%
X131150000Y-142650000D02*
X132480000Y-142650000D01*
X131150000Y-143980000D02*
X131150000Y-142650000D01*
X131670000Y-146340000D02*
X131670000Y-146400000D01*
X131670000Y-146340000D02*
X134330000Y-146340000D01*
X131670000Y-146400000D02*
X134330000Y-146400000D01*
X134330000Y-146340000D02*
X134330000Y-146400000D01*
%TO.C,J12*%
X132150000Y-152150000D02*
X133480000Y-152150000D01*
X132150000Y-153480000D02*
X132150000Y-152150000D01*
X132670000Y-155840000D02*
X132670000Y-155900000D01*
X132670000Y-155840000D02*
X135330000Y-155840000D01*
X132670000Y-155900000D02*
X135330000Y-155900000D01*
X135330000Y-155840000D02*
X135330000Y-155900000D01*
%TO.C,J1*%
X93150000Y-124650000D02*
X94480000Y-124650000D01*
X93150000Y-125980000D02*
X93150000Y-124650000D01*
X93670000Y-128340000D02*
X93670000Y-128400000D01*
X93670000Y-128340000D02*
X96330000Y-128340000D01*
X93670000Y-128400000D02*
X96330000Y-128400000D01*
X96330000Y-128340000D02*
X96330000Y-128400000D01*
%TO.C,J21*%
X194650000Y-145650000D02*
X195980000Y-145650000D01*
X194650000Y-146980000D02*
X194650000Y-145650000D01*
X195170000Y-149340000D02*
X195170000Y-149400000D01*
X195170000Y-149340000D02*
X197830000Y-149340000D01*
X195170000Y-149400000D02*
X197830000Y-149400000D01*
X197830000Y-149340000D02*
X197830000Y-149400000D01*
%TO.C,J20*%
X169150000Y-124650000D02*
X170480000Y-124650000D01*
X169150000Y-125980000D02*
X169150000Y-124650000D01*
X169670000Y-128340000D02*
X169670000Y-128400000D01*
X169670000Y-128340000D02*
X172330000Y-128340000D01*
X169670000Y-128400000D02*
X172330000Y-128400000D01*
X172330000Y-128340000D02*
X172330000Y-128400000D01*
%TO.C,J5*%
X118150000Y-117650000D02*
X119480000Y-117650000D01*
X118150000Y-118980000D02*
X118150000Y-117650000D01*
X118670000Y-121340000D02*
X118670000Y-121400000D01*
X118670000Y-121340000D02*
X121330000Y-121340000D01*
X118670000Y-121400000D02*
X121330000Y-121400000D01*
X121330000Y-121340000D02*
X121330000Y-121400000D01*
%TO.C,J18*%
X169150000Y-133650000D02*
X170480000Y-133650000D01*
X169150000Y-134980000D02*
X169150000Y-133650000D01*
X169670000Y-137340000D02*
X169670000Y-137400000D01*
X169670000Y-137340000D02*
X172330000Y-137340000D01*
X169670000Y-137400000D02*
X172330000Y-137400000D01*
X172330000Y-137340000D02*
X172330000Y-137400000D01*
%TO.C,J2*%
X93150000Y-133650000D02*
X94480000Y-133650000D01*
X93150000Y-134980000D02*
X93150000Y-133650000D01*
X93670000Y-137340000D02*
X93670000Y-137400000D01*
X93670000Y-137340000D02*
X96330000Y-137340000D01*
X93670000Y-137400000D02*
X96330000Y-137400000D01*
X96330000Y-137340000D02*
X96330000Y-137400000D01*
%TO.C,J3*%
X93150000Y-142650000D02*
X94480000Y-142650000D01*
X93150000Y-143980000D02*
X93150000Y-142650000D01*
X93670000Y-146340000D02*
X93670000Y-146400000D01*
X93670000Y-146340000D02*
X96330000Y-146340000D01*
X93670000Y-146400000D02*
X96330000Y-146400000D01*
X96330000Y-146340000D02*
X96330000Y-146400000D01*
%TO.C,J6*%
X118650000Y-127650000D02*
X119980000Y-127650000D01*
X118650000Y-128980000D02*
X118650000Y-127650000D01*
X119170000Y-131340000D02*
X119170000Y-131400000D01*
X119170000Y-131340000D02*
X121830000Y-131340000D01*
X119170000Y-131400000D02*
X121830000Y-131400000D01*
X121830000Y-131340000D02*
X121830000Y-131400000D01*
%TO.C,J17*%
X156650000Y-127650000D02*
X157980000Y-127650000D01*
X156650000Y-128980000D02*
X156650000Y-127650000D01*
X157170000Y-131340000D02*
X157170000Y-131400000D01*
X157170000Y-131340000D02*
X159830000Y-131340000D01*
X157170000Y-131400000D02*
X159830000Y-131400000D01*
X159830000Y-131340000D02*
X159830000Y-131400000D01*
%TO.C,J4*%
X94150000Y-152150000D02*
X95480000Y-152150000D01*
X94150000Y-153480000D02*
X94150000Y-152150000D01*
X94670000Y-155840000D02*
X94670000Y-155900000D01*
X94670000Y-155840000D02*
X97330000Y-155840000D01*
X94670000Y-155900000D02*
X97330000Y-155900000D01*
X97330000Y-155840000D02*
X97330000Y-155900000D01*
%TO.C,J24*%
X193650000Y-117650000D02*
X194980000Y-117650000D01*
X193650000Y-118980000D02*
X193650000Y-117650000D01*
X194170000Y-121340000D02*
X194170000Y-121400000D01*
X194170000Y-121340000D02*
X196830000Y-121340000D01*
X194170000Y-121400000D02*
X196830000Y-121400000D01*
X196830000Y-121340000D02*
X196830000Y-121400000D01*
%TO.C,J23*%
X194650000Y-127650000D02*
X195980000Y-127650000D01*
X194650000Y-128980000D02*
X194650000Y-127650000D01*
X195170000Y-131340000D02*
X195170000Y-131400000D01*
X195170000Y-131340000D02*
X197830000Y-131340000D01*
X195170000Y-131400000D02*
X197830000Y-131400000D01*
X197830000Y-131340000D02*
X197830000Y-131400000D01*
%TO.C,J9*%
X131150000Y-133650000D02*
X132480000Y-133650000D01*
X131150000Y-134980000D02*
X131150000Y-133650000D01*
X131670000Y-137340000D02*
X131670000Y-137400000D01*
X131670000Y-137340000D02*
X134330000Y-137340000D01*
X131670000Y-137400000D02*
X134330000Y-137400000D01*
X134330000Y-137340000D02*
X134330000Y-137400000D01*
%TO.C,J14*%
X169150000Y-142650000D02*
X170480000Y-142650000D01*
X169150000Y-143980000D02*
X169150000Y-142650000D01*
X169670000Y-146340000D02*
X169670000Y-146400000D01*
X169670000Y-146340000D02*
X172330000Y-146340000D01*
X169670000Y-146400000D02*
X172330000Y-146400000D01*
X172330000Y-146340000D02*
X172330000Y-146400000D01*
%TO.C,J19*%
X156150000Y-117650000D02*
X157480000Y-117650000D01*
X156150000Y-118980000D02*
X156150000Y-117650000D01*
X156670000Y-121340000D02*
X156670000Y-121400000D01*
X156670000Y-121340000D02*
X159330000Y-121340000D01*
X156670000Y-121400000D02*
X159330000Y-121400000D01*
X159330000Y-121340000D02*
X159330000Y-121400000D01*
%TO.C,J15*%
X156650000Y-145150000D02*
X157980000Y-145150000D01*
X156650000Y-146480000D02*
X156650000Y-145150000D01*
X157170000Y-148840000D02*
X157170000Y-148900000D01*
X157170000Y-148840000D02*
X159830000Y-148840000D01*
X157170000Y-148900000D02*
X159830000Y-148900000D01*
X159830000Y-148840000D02*
X159830000Y-148900000D01*
%TO.C,J16*%
X156650000Y-136650000D02*
X157980000Y-136650000D01*
X156650000Y-137980000D02*
X156650000Y-136650000D01*
X157170000Y-140340000D02*
X157170000Y-140400000D01*
X157170000Y-140340000D02*
X159830000Y-140340000D01*
X157170000Y-140400000D02*
X159830000Y-140400000D01*
X159830000Y-140340000D02*
X159830000Y-140400000D01*
%TD*%
M02*
