%TF.GenerationSoftware,KiCad,Pcbnew,8.0.5*%
%TF.CreationDate,2024-09-30T14:26:47-04:00*%
%TF.ProjectId,LowerPOGO,4c6f7765-7250-44f4-974f-2e6b69636164,v4*%
%TF.SameCoordinates,Original*%
%TF.FileFunction,Legend,Bot*%
%TF.FilePolarity,Positive*%
%FSLAX46Y46*%
G04 Gerber Fmt 4.6, Leading zero omitted, Abs format (unit mm)*
G04 Created by KiCad (PCBNEW 8.0.5) date 2024-09-30 14:26:47*
%MOMM*%
%LPD*%
G01*
G04 APERTURE LIST*
%ADD10C,0.150000*%
%ADD11C,0.120000*%
G04 APERTURE END LIST*
D10*
X147199523Y-98717319D02*
X147199523Y-99431604D01*
X147199523Y-99431604D02*
X147247142Y-99574461D01*
X147247142Y-99574461D02*
X147342380Y-99669700D01*
X147342380Y-99669700D02*
X147485237Y-99717319D01*
X147485237Y-99717319D02*
X147580475Y-99717319D01*
X146770951Y-98812557D02*
X146723332Y-98764938D01*
X146723332Y-98764938D02*
X146628094Y-98717319D01*
X146628094Y-98717319D02*
X146389999Y-98717319D01*
X146389999Y-98717319D02*
X146294761Y-98764938D01*
X146294761Y-98764938D02*
X146247142Y-98812557D01*
X146247142Y-98812557D02*
X146199523Y-98907795D01*
X146199523Y-98907795D02*
X146199523Y-99003033D01*
X146199523Y-99003033D02*
X146247142Y-99145890D01*
X146247142Y-99145890D02*
X146818570Y-99717319D01*
X146818570Y-99717319D02*
X146199523Y-99717319D01*
X145294761Y-98717319D02*
X145770951Y-98717319D01*
X145770951Y-98717319D02*
X145818570Y-99193509D01*
X145818570Y-99193509D02*
X145770951Y-99145890D01*
X145770951Y-99145890D02*
X145675713Y-99098271D01*
X145675713Y-99098271D02*
X145437618Y-99098271D01*
X145437618Y-99098271D02*
X145342380Y-99145890D01*
X145342380Y-99145890D02*
X145294761Y-99193509D01*
X145294761Y-99193509D02*
X145247142Y-99288747D01*
X145247142Y-99288747D02*
X145247142Y-99526842D01*
X145247142Y-99526842D02*
X145294761Y-99622080D01*
X145294761Y-99622080D02*
X145342380Y-99669700D01*
X145342380Y-99669700D02*
X145437618Y-99717319D01*
X145437618Y-99717319D02*
X145675713Y-99717319D01*
X145675713Y-99717319D02*
X145770951Y-99669700D01*
X145770951Y-99669700D02*
X145818570Y-99622080D01*
D11*
%TO.C,J25*%
X131670000Y-101250000D02*
X131670000Y-92620000D01*
X131670000Y-106360000D02*
X131670000Y-105250000D01*
X131790000Y-101250000D02*
X131790000Y-92620000D01*
X131908095Y-101250000D02*
X131908095Y-92620000D01*
X132026190Y-101250000D02*
X132026190Y-92620000D01*
X132144285Y-101250000D02*
X132144285Y-92620000D01*
X132262380Y-101250000D02*
X132262380Y-92620000D01*
X132380475Y-101250000D02*
X132380475Y-92620000D01*
X132498570Y-101250000D02*
X132498570Y-92620000D01*
X132616665Y-101250000D02*
X132616665Y-92620000D01*
X132640000Y-101660000D02*
X132640000Y-101250000D01*
X132640000Y-104140000D02*
X132640000Y-103760000D01*
X132734760Y-101250000D02*
X132734760Y-92620000D01*
X132852855Y-101250000D02*
X132852855Y-92620000D01*
X132970950Y-101250000D02*
X132970950Y-92620000D01*
X133000000Y-106360000D02*
X131670000Y-106360000D01*
X133089045Y-101250000D02*
X133089045Y-92620000D01*
X133207140Y-101250000D02*
X133207140Y-92620000D01*
X133325235Y-101250000D02*
X133325235Y-92620000D01*
X133360000Y-101660000D02*
X133360000Y-101250000D01*
X133360000Y-104140000D02*
X133360000Y-103760000D01*
X133443330Y-101250000D02*
X133443330Y-92620000D01*
X133561425Y-101250000D02*
X133561425Y-92620000D01*
X133679520Y-101250000D02*
X133679520Y-92620000D01*
X133797615Y-101250000D02*
X133797615Y-92620000D01*
X133915710Y-101250000D02*
X133915710Y-92620000D01*
X134033805Y-101250000D02*
X134033805Y-92620000D01*
X134151900Y-101250000D02*
X134151900Y-92620000D01*
X134270000Y-101250000D02*
X134270000Y-92620000D01*
X135180000Y-101660000D02*
X135180000Y-101250000D01*
X135180000Y-104200000D02*
X135180000Y-103760000D01*
X135900000Y-101660000D02*
X135900000Y-101250000D01*
X135900000Y-104200000D02*
X135900000Y-103760000D01*
X136810000Y-101250000D02*
X136810000Y-92620000D01*
X137720000Y-101660000D02*
X137720000Y-101250000D01*
X137720000Y-104200000D02*
X137720000Y-103760000D01*
X138440000Y-101660000D02*
X138440000Y-101250000D01*
X138440000Y-104200000D02*
X138440000Y-103760000D01*
X139350000Y-101250000D02*
X139350000Y-92620000D01*
X140260000Y-101660000D02*
X140260000Y-101250000D01*
X140260000Y-104200000D02*
X140260000Y-103760000D01*
X140980000Y-101660000D02*
X140980000Y-101250000D01*
X140980000Y-104200000D02*
X140980000Y-103760000D01*
X141890000Y-101250000D02*
X141890000Y-92620000D01*
X142800000Y-101660000D02*
X142800000Y-101250000D01*
X142800000Y-104200000D02*
X142800000Y-103760000D01*
X143520000Y-101660000D02*
X143520000Y-101250000D01*
X143520000Y-104200000D02*
X143520000Y-103760000D01*
X144430000Y-101250000D02*
X144430000Y-92620000D01*
X145340000Y-101660000D02*
X145340000Y-101250000D01*
X145340000Y-104200000D02*
X145340000Y-103760000D01*
X146060000Y-101660000D02*
X146060000Y-101250000D01*
X146060000Y-104200000D02*
X146060000Y-103760000D01*
X146970000Y-101250000D02*
X146970000Y-92620000D01*
X147880000Y-101660000D02*
X147880000Y-101250000D01*
X147880000Y-104200000D02*
X147880000Y-103760000D01*
X148600000Y-101660000D02*
X148600000Y-101250000D01*
X148600000Y-104200000D02*
X148600000Y-103760000D01*
X149510000Y-101250000D02*
X149510000Y-92620000D01*
X150420000Y-101660000D02*
X150420000Y-101250000D01*
X150420000Y-104200000D02*
X150420000Y-103760000D01*
X151140000Y-101660000D02*
X151140000Y-101250000D01*
X151140000Y-104200000D02*
X151140000Y-103760000D01*
X152050000Y-101250000D02*
X152050000Y-92620000D01*
X152960000Y-101660000D02*
X152960000Y-101250000D01*
X152960000Y-104200000D02*
X152960000Y-103760000D01*
X153680000Y-101660000D02*
X153680000Y-101250000D01*
X153680000Y-104200000D02*
X153680000Y-103760000D01*
X154590000Y-101250000D02*
X154590000Y-92620000D01*
X155500000Y-101660000D02*
X155500000Y-101250000D01*
X155500000Y-104200000D02*
X155500000Y-103760000D01*
X156220000Y-101660000D02*
X156220000Y-101250000D01*
X156220000Y-104200000D02*
X156220000Y-103760000D01*
X157130000Y-101250000D02*
X157130000Y-92620000D01*
X158040000Y-101660000D02*
X158040000Y-101250000D01*
X158040000Y-104200000D02*
X158040000Y-103760000D01*
X158760000Y-101660000D02*
X158760000Y-101250000D01*
X158760000Y-104200000D02*
X158760000Y-103760000D01*
X159670000Y-101250000D02*
X159670000Y-92620000D01*
X160580000Y-101660000D02*
X160580000Y-101250000D01*
X160580000Y-104200000D02*
X160580000Y-103760000D01*
X161300000Y-101660000D02*
X161300000Y-101250000D01*
X161300000Y-104200000D02*
X161300000Y-103760000D01*
X162270000Y-92620000D02*
X131670000Y-92620000D01*
X162270000Y-101250000D02*
X131670000Y-101250000D01*
X162270000Y-101250000D02*
X162270000Y-92620000D01*
%TD*%
M02*
