%TF.GenerationSoftware,KiCad,Pcbnew,8.0.1*%
%TF.CreationDate,2024-05-03T16:32:39-04:00*%
%TF.ProjectId,LowerPOGO,4c6f7765-7250-44f4-974f-2e6b69636164,rev?*%
%TF.SameCoordinates,Original*%
%TF.FileFunction,Soldermask,Top*%
%TF.FilePolarity,Negative*%
%FSLAX46Y46*%
G04 Gerber Fmt 4.6, Leading zero omitted, Abs format (unit mm)*
G04 Created by KiCad (PCBNEW 8.0.1) date 2024-05-03 16:32:39*
%MOMM*%
%LPD*%
G01*
G04 APERTURE LIST*
G04 Aperture macros list*
%AMRoundRect*
0 Rectangle with rounded corners*
0 $1 Rounding radius*
0 $2 $3 $4 $5 $6 $7 $8 $9 X,Y pos of 4 corners*
0 Add a 4 corners polygon primitive as box body*
4,1,4,$2,$3,$4,$5,$6,$7,$8,$9,$2,$3,0*
0 Add four circle primitives for the rounded corners*
1,1,$1+$1,$2,$3*
1,1,$1+$1,$4,$5*
1,1,$1+$1,$6,$7*
1,1,$1+$1,$8,$9*
0 Add four rect primitives between the rounded corners*
20,1,$1+$1,$2,$3,$4,$5,0*
20,1,$1+$1,$4,$5,$6,$7,0*
20,1,$1+$1,$6,$7,$8,$9,0*
20,1,$1+$1,$8,$9,$2,$3,0*%
G04 Aperture macros list end*
%ADD10R,1.700000X1.700000*%
%ADD11C,3.000000*%
%ADD12RoundRect,0.250001X-0.499999X-0.499999X0.499999X-0.499999X0.499999X0.499999X-0.499999X0.499999X0*%
%ADD13C,1.500000*%
G04 APERTURE END LIST*
D10*
%TO.C,J21*%
X196500000Y-147500000D03*
%TD*%
%TO.C,J7*%
X133000000Y-126500000D03*
%TD*%
%TO.C,J8*%
X120500000Y-138500000D03*
%TD*%
%TO.C,J10*%
X120500000Y-147500000D03*
%TD*%
%TO.C,J14*%
X172000000Y-154000000D03*
%TD*%
%TO.C,J22*%
X196500000Y-138500000D03*
%TD*%
D11*
%TO.C,J25*%
X129660000Y-102930000D03*
X158360000Y-102930000D03*
D12*
X127500000Y-107250000D03*
D13*
X130500000Y-107250000D03*
X133500000Y-107250000D03*
X136500000Y-107250000D03*
X139500000Y-107250000D03*
X142500000Y-107250000D03*
X145500000Y-107250000D03*
X148500000Y-107250000D03*
X151500000Y-107250000D03*
X154500000Y-107250000D03*
X157500000Y-107250000D03*
X160500000Y-107250000D03*
X127500000Y-110250000D03*
X130500000Y-110250000D03*
X133500000Y-110250000D03*
X136500000Y-110250000D03*
X139500000Y-110250000D03*
X142500000Y-110250000D03*
X145500000Y-110250000D03*
X148500000Y-110250000D03*
X151500000Y-110250000D03*
X154500000Y-110250000D03*
X157500000Y-110250000D03*
X160500000Y-110250000D03*
%TD*%
D10*
%TO.C,J11*%
X133000000Y-144500000D03*
%TD*%
%TO.C,J12*%
X134000000Y-154000000D03*
%TD*%
%TO.C,J1*%
X95000000Y-126500000D03*
%TD*%
%TO.C,J20*%
X171000000Y-126500000D03*
%TD*%
%TO.C,J5*%
X120000000Y-119500000D03*
%TD*%
%TO.C,J18*%
X171000000Y-135500000D03*
%TD*%
%TO.C,J2*%
X95000000Y-135500000D03*
%TD*%
%TO.C,J3*%
X95000000Y-144500000D03*
%TD*%
%TO.C,J6*%
X120500000Y-129500000D03*
%TD*%
%TO.C,J17*%
X158500000Y-129500000D03*
%TD*%
%TO.C,J4*%
X96000000Y-154000000D03*
%TD*%
%TO.C,J24*%
X195500000Y-119500000D03*
%TD*%
%TO.C,J23*%
X196500000Y-129500000D03*
%TD*%
%TO.C,J9*%
X133000000Y-135500000D03*
%TD*%
%TO.C,J16*%
X171000000Y-144500000D03*
%TD*%
%TO.C,J19*%
X158000000Y-119500000D03*
%TD*%
%TO.C,J13*%
X158500000Y-147000000D03*
%TD*%
%TO.C,J15*%
X158500000Y-138500000D03*
%TD*%
M02*
