%TF.GenerationSoftware,KiCad,Pcbnew,8.0.1*%
%TF.CreationDate,2024-05-03T16:32:39-04:00*%
%TF.ProjectId,LowerPOGO,4c6f7765-7250-44f4-974f-2e6b69636164,rev?*%
%TF.SameCoordinates,Original*%
%TF.FileFunction,Copper,L2,Bot*%
%TF.FilePolarity,Positive*%
%FSLAX46Y46*%
G04 Gerber Fmt 4.6, Leading zero omitted, Abs format (unit mm)*
G04 Created by KiCad (PCBNEW 8.0.1) date 2024-05-03 16:32:39*
%MOMM*%
%LPD*%
G01*
G04 APERTURE LIST*
G04 Aperture macros list*
%AMRoundRect*
0 Rectangle with rounded corners*
0 $1 Rounding radius*
0 $2 $3 $4 $5 $6 $7 $8 $9 X,Y pos of 4 corners*
0 Add a 4 corners polygon primitive as box body*
4,1,4,$2,$3,$4,$5,$6,$7,$8,$9,$2,$3,0*
0 Add four circle primitives for the rounded corners*
1,1,$1+$1,$2,$3*
1,1,$1+$1,$4,$5*
1,1,$1+$1,$6,$7*
1,1,$1+$1,$8,$9*
0 Add four rect primitives between the rounded corners*
20,1,$1+$1,$2,$3,$4,$5,0*
20,1,$1+$1,$4,$5,$6,$7,0*
20,1,$1+$1,$6,$7,$8,$9,0*
20,1,$1+$1,$8,$9,$2,$3,0*%
G04 Aperture macros list end*
%TA.AperFunction,ComponentPad*%
%ADD10R,1.700000X1.700000*%
%TD*%
%TA.AperFunction,ComponentPad*%
%ADD11RoundRect,0.250001X-0.499999X-0.499999X0.499999X-0.499999X0.499999X0.499999X-0.499999X0.499999X0*%
%TD*%
%TA.AperFunction,ComponentPad*%
%ADD12C,1.500000*%
%TD*%
%TA.AperFunction,Conductor*%
%ADD13C,0.200000*%
%TD*%
G04 APERTURE END LIST*
D10*
%TO.P,J21,1,Pin_1*%
%TO.N,Net-(J21-MountPin)*%
X196500000Y-147500000D03*
%TD*%
%TO.P,J7,1,Pin_1*%
%TO.N,Net-(J15-Pin_1)*%
X133000000Y-126500000D03*
%TD*%
%TO.P,J8,1,Pin_1*%
%TO.N,Net-(J16-MountPin)*%
X120500000Y-138500000D03*
%TD*%
%TO.P,J10,1,Pin_1*%
%TO.N,Net-(J25-Pin_10)*%
X120500000Y-147500000D03*
%TD*%
%TO.P,J14,1,Pin_1*%
%TO.N,Net-(J18-MountPin)*%
X172000000Y-154000000D03*
%TD*%
%TO.P,J22,1,Pin_1*%
%TO.N,Net-(J22-MountPin)*%
X196500000Y-138500000D03*
%TD*%
D11*
%TO.P,J25,1,Pin_1*%
%TO.N,Net-(J1-MountPin)*%
X127500000Y-107250000D03*
D12*
%TO.P,J25,2,Pin_2*%
%TO.N,Net-(J2-MountPin)*%
X130500000Y-107250000D03*
%TO.P,J25,3,Pin_3*%
%TO.N,Net-(J25-Pin_3)*%
X133500000Y-107250000D03*
%TO.P,J25,4,Pin_4*%
%TO.N,Net-(J25-Pin_4)*%
X136500000Y-107250000D03*
%TO.P,J25,5,Pin_5*%
%TO.N,Net-(J13-MountPin)*%
X139500000Y-107250000D03*
%TO.P,J25,6,Pin_6*%
%TO.N,Net-(J14-MountPin)*%
X142500000Y-107250000D03*
%TO.P,J25,7,Pin_7*%
%TO.N,Net-(J15-Pin_1)*%
X145500000Y-107250000D03*
%TO.P,J25,8,Pin_8*%
%TO.N,Net-(J16-MountPin)*%
X148500000Y-107250000D03*
%TO.P,J25,9,Pin_9*%
%TO.N,Net-(J25-Pin_9)*%
X151500000Y-107250000D03*
%TO.P,J25,10,Pin_10*%
%TO.N,Net-(J25-Pin_10)*%
X154500000Y-107250000D03*
%TO.P,J25,11,Pin_11*%
%TO.N,Net-(J25-Pin_11)*%
X157500000Y-107250000D03*
%TO.P,J25,12,Pin_12*%
%TO.N,Net-(J25-Pin_12)*%
X160500000Y-107250000D03*
%TO.P,J25,13,Pin_13*%
%TO.N,Net-(J17-MountPin)*%
X127500000Y-110250000D03*
%TO.P,J25,14,Pin_14*%
%TO.N,Net-(J18-MountPin)*%
X130500000Y-110250000D03*
%TO.P,J25,15,Pin_15*%
%TO.N,Net-(J19-MountPin)*%
X133500000Y-110250000D03*
%TO.P,J25,16,Pin_16*%
%TO.N,Net-(J20-MountPin)*%
X136500000Y-110250000D03*
%TO.P,J25,17,Pin_17*%
%TO.N,Net-(J25-Pin_17)*%
X139500000Y-110250000D03*
%TO.P,J25,18,Pin_18*%
%TO.N,Net-(J10-MountPin)*%
X142500000Y-110250000D03*
%TO.P,J25,19,Pin_19*%
%TO.N,Net-(J11-MountPin)*%
X145500000Y-110250000D03*
%TO.P,J25,20,Pin_20*%
%TO.N,Net-(J12-MountPin)*%
X148500000Y-110250000D03*
%TO.P,J25,21,Pin_21*%
%TO.N,Net-(J21-MountPin)*%
X151500000Y-110250000D03*
%TO.P,J25,22,Pin_22*%
%TO.N,Net-(J22-MountPin)*%
X154500000Y-110250000D03*
%TO.P,J25,23,Pin_23*%
%TO.N,Net-(J23-MountPin)*%
X157500000Y-110250000D03*
%TO.P,J25,24,Pin_24*%
%TO.N,Net-(J24-MountPin)*%
X160500000Y-110250000D03*
%TD*%
D10*
%TO.P,J11,1,Pin_1*%
%TO.N,Net-(J25-Pin_11)*%
X133000000Y-144500000D03*
%TD*%
%TO.P,J12,1,Pin_1*%
%TO.N,Net-(J25-Pin_12)*%
X134000000Y-154000000D03*
%TD*%
%TO.P,J1,1,Pin_1*%
%TO.N,Net-(J1-MountPin)*%
X95000000Y-126500000D03*
%TD*%
%TO.P,J20,1,Pin_1*%
%TO.N,Net-(J12-MountPin)*%
X171000000Y-126500000D03*
%TD*%
%TO.P,J5,1,Pin_1*%
%TO.N,Net-(J13-MountPin)*%
X120000000Y-119500000D03*
%TD*%
%TO.P,J18,1,Pin_1*%
%TO.N,Net-(J10-MountPin)*%
X171000000Y-135500000D03*
%TD*%
%TO.P,J2,1,Pin_1*%
%TO.N,Net-(J2-MountPin)*%
X95000000Y-135500000D03*
%TD*%
%TO.P,J3,1,Pin_1*%
%TO.N,Net-(J25-Pin_3)*%
X95000000Y-144500000D03*
%TD*%
%TO.P,J6,1,Pin_1*%
%TO.N,Net-(J14-MountPin)*%
X120500000Y-129500000D03*
%TD*%
%TO.P,J17,1,Pin_1*%
%TO.N,Net-(J25-Pin_17)*%
X158500000Y-129500000D03*
%TD*%
%TO.P,J4,1,Pin_1*%
%TO.N,Net-(J25-Pin_4)*%
X96000000Y-154000000D03*
%TD*%
%TO.P,J24,1,Pin_1*%
%TO.N,Net-(J24-MountPin)*%
X195500000Y-119500000D03*
%TD*%
%TO.P,J23,1,Pin_1*%
%TO.N,Net-(J23-MountPin)*%
X196500000Y-129500000D03*
%TD*%
%TO.P,J9,1,Pin_1*%
%TO.N,Net-(J25-Pin_9)*%
X133000000Y-135500000D03*
%TD*%
%TO.P,J16,1,Pin_1*%
%TO.N,Net-(J20-MountPin)*%
X171000000Y-144500000D03*
%TD*%
%TO.P,J19,1,Pin_1*%
%TO.N,Net-(J11-MountPin)*%
X158000000Y-119500000D03*
%TD*%
%TO.P,J13,1,Pin_1*%
%TO.N,Net-(J17-MountPin)*%
X158500000Y-147000000D03*
%TD*%
%TO.P,J15,1,Pin_1*%
%TO.N,Net-(J19-MountPin)*%
X158500000Y-138500000D03*
%TD*%
D13*
%TO.N,Net-(J25-Pin_11)*%
X156000000Y-108960000D02*
X157640000Y-107320000D01*
X156000000Y-111500000D02*
X156000000Y-108960000D01*
X145000000Y-122500000D02*
X156000000Y-111500000D01*
X145000000Y-132500000D02*
X145000000Y-122500000D01*
X133000000Y-144500000D02*
X145000000Y-132500000D01*
%TO.N,Net-(J25-Pin_12)*%
X159000000Y-111500000D02*
X159000000Y-108960000D01*
X159000000Y-108960000D02*
X160640000Y-107320000D01*
X147500000Y-123000000D02*
X159000000Y-111500000D01*
X147500000Y-140500000D02*
X147500000Y-123000000D01*
X134000000Y-154000000D02*
X147500000Y-140500000D01*
%TO.N,Net-(J25-Pin_10)*%
X142500000Y-130500000D02*
X142500000Y-122500000D01*
X153000000Y-112000000D02*
X153000000Y-108960000D01*
X153000000Y-108960000D02*
X154640000Y-107320000D01*
X125500000Y-147500000D02*
X142500000Y-130500000D01*
X120500000Y-147500000D02*
X125500000Y-147500000D01*
X142500000Y-122500000D02*
X153000000Y-112000000D01*
%TO.N,Net-(J25-Pin_9)*%
X150000000Y-108960000D02*
X151640000Y-107320000D01*
X150000000Y-112000000D02*
X150000000Y-108960000D01*
X140000000Y-122000000D02*
X150000000Y-112000000D01*
X140000000Y-128500000D02*
X140000000Y-122000000D01*
X133000000Y-135500000D02*
X140000000Y-128500000D01*
%TO.N,Net-(J16-MountPin)*%
X147000000Y-108960000D02*
X148640000Y-107320000D01*
X137500000Y-121000000D02*
X147000000Y-111500000D01*
X147000000Y-111500000D02*
X147000000Y-108960000D01*
X137500000Y-126500000D02*
X137500000Y-121000000D01*
X120500000Y-138500000D02*
X125500000Y-138500000D01*
X125500000Y-138500000D02*
X137500000Y-126500000D01*
%TO.N,Net-(J15-Pin_1)*%
X144000000Y-108960000D02*
X145640000Y-107320000D01*
X144000000Y-111500000D02*
X144000000Y-108960000D01*
X133500000Y-122000000D02*
X144000000Y-111500000D01*
X133500000Y-126000000D02*
X133500000Y-122000000D01*
X133000000Y-126500000D02*
X133500000Y-126000000D01*
%TO.N,Net-(J14-MountPin)*%
X141000000Y-108960000D02*
X142640000Y-107320000D01*
X141000000Y-111500000D02*
X141000000Y-108960000D01*
X132500000Y-120000000D02*
X141000000Y-111500000D01*
X130000000Y-120000000D02*
X132500000Y-120000000D01*
X120500000Y-129500000D02*
X130000000Y-120000000D01*
%TO.N,Net-(J13-MountPin)*%
X138000000Y-108960000D02*
X139640000Y-107320000D01*
X132000000Y-117500000D02*
X138000000Y-111500000D01*
X138000000Y-111500000D02*
X138000000Y-108960000D01*
X120000000Y-119500000D02*
X122000000Y-117500000D01*
X122000000Y-117500000D02*
X132000000Y-117500000D01*
%TO.N,Net-(J25-Pin_4)*%
X135000000Y-108960000D02*
X136640000Y-107320000D01*
X115000000Y-115000000D02*
X131500000Y-115000000D01*
X135000000Y-111500000D02*
X135000000Y-108960000D01*
X110000000Y-120000000D02*
X115000000Y-115000000D01*
X110000000Y-140000000D02*
X110000000Y-120000000D01*
X96098439Y-153901561D02*
X110000000Y-140000000D01*
X131500000Y-115000000D02*
X135000000Y-111500000D01*
X96098439Y-154152620D02*
X96098439Y-153901561D01*
%TO.N,Net-(J25-Pin_3)*%
X132000000Y-108960000D02*
X133640000Y-107320000D01*
X131000000Y-112500000D02*
X132000000Y-111500000D01*
X112500000Y-112500000D02*
X131000000Y-112500000D01*
X132000000Y-111500000D02*
X132000000Y-108960000D01*
X105000000Y-120000000D02*
X112500000Y-112500000D01*
X95000000Y-144500000D02*
X105000000Y-134500000D01*
X105000000Y-134500000D02*
X105000000Y-120000000D01*
%TO.N,Net-(J2-MountPin)*%
X126000000Y-109000000D02*
X128960000Y-109000000D01*
X128960000Y-109000000D02*
X130640000Y-107320000D01*
X100000000Y-120000000D02*
X110000000Y-110000000D01*
X110000000Y-110000000D02*
X125000000Y-110000000D01*
X100000000Y-130500000D02*
X100000000Y-120000000D01*
X95000000Y-135500000D02*
X100000000Y-130500000D01*
X125000000Y-110000000D02*
X126000000Y-109000000D01*
%TO.N,Net-(J1-MountPin)*%
X107680000Y-107320000D02*
X127640000Y-107320000D01*
X95000000Y-120000000D02*
X107680000Y-107320000D01*
X95000000Y-126503568D02*
X95000000Y-120000000D01*
%TD*%
M02*
