M48
; DRILL file {KiCad 8.0.5} date 2024-09-30T14:27:06-0400
; FORMAT={-:-/ absolute / metric / decimal}
; #@! TF.CreationDate,2024-09-30T14:27:06-04:00
; #@! TF.GenerationSoftware,Kicad,Pcbnew,8.0.5
; #@! TF.FileFunction,Plated,1,2,PTH
FMAT,2
METRIC
; #@! TA.AperFunction,Plated,PTH,ComponentDrill
T1C1.000
; #@! TA.AperFunction,Plated,PTH,ComponentDrill
T2C2.490
; #@! TA.AperFunction,Plated,PTH,ComponentDrill
T3C3.200
%
G90
G05
T1
X133.0Y-102.71
X133.0Y-105.25
X135.54Y-102.71
X135.54Y-105.25
X138.08Y-102.71
X138.08Y-105.25
X140.62Y-102.71
X140.62Y-105.25
X143.16Y-102.71
X143.16Y-105.25
X145.7Y-102.71
X145.7Y-105.25
X148.24Y-102.71
X148.24Y-105.25
X150.78Y-102.71
X150.78Y-105.25
X153.32Y-102.71
X153.32Y-105.25
X155.86Y-102.71
X155.86Y-105.25
X158.4Y-102.71
X158.4Y-105.25
X160.94Y-102.71
X160.94Y-105.25
T2
X97.75Y-126.5
X97.75Y-135.5
X97.75Y-144.5
X99.0Y-154.0
X123.75Y-119.5
X124.25Y-129.5
X124.25Y-138.5
X124.25Y-147.5
X135.25Y-126.5
X135.25Y-135.5
X135.25Y-144.5
X136.5Y-154.0
X161.25Y-119.5
X161.75Y-129.5
X161.75Y-138.5
X161.75Y-147.0
X172.75Y-126.5
X172.75Y-135.5
X172.75Y-144.5
X174.0Y-154.0
X198.5Y-119.5
X199.5Y-129.5
X199.5Y-138.5
X199.5Y-147.5
T3
X93.25Y-109.5
X93.25Y-154.5
X200.75Y-109.5
X200.75Y-154.5
M30
