M48
; DRILL file {KiCad 8.0.2} date 2024-05-21T13:44:40-0400
; FORMAT={-:-/ absolute / metric / decimal}
; #@! TF.CreationDate,2024-05-21T13:44:40-04:00
; #@! TF.GenerationSoftware,Kicad,Pcbnew,8.0.2
; #@! TF.FileFunction,Plated,1,2,PTH
FMAT,2
METRIC
; #@! TA.AperFunction,Plated,PTH,ComponentDrill
T1C1.000
; #@! TA.AperFunction,Plated,PTH,ComponentDrill
T2C2.530
; #@! TA.AperFunction,Plated,PTH,ComponentDrill
T3C3.200
%
G90
G05
T1
X130.21Y-102.71
X130.21Y-105.25
X132.75Y-102.71
X132.75Y-105.25
X135.29Y-102.71
X135.29Y-105.25
X137.83Y-102.71
X137.83Y-105.25
X140.37Y-102.71
X140.37Y-105.25
X142.91Y-102.71
X142.91Y-105.25
X145.45Y-102.71
X145.45Y-105.25
X147.99Y-102.71
X147.99Y-105.25
X150.53Y-102.71
X150.53Y-105.25
X153.07Y-102.71
X153.07Y-105.25
X155.61Y-102.71
X155.61Y-105.25
X158.15Y-102.71
X158.15Y-105.25
T2
X95.0Y-126.5
X95.0Y-135.5
X95.0Y-144.5
X96.0Y-154.0
X120.0Y-119.5
X120.5Y-129.5
X120.5Y-138.5
X120.5Y-147.5
X133.0Y-126.5
X133.0Y-135.5
X133.0Y-144.5
X134.0Y-154.0
X158.0Y-119.5
X158.5Y-129.5
X158.5Y-138.5
X158.5Y-147.0
X171.0Y-126.5
X171.0Y-135.5
X171.0Y-144.5
X172.0Y-154.0
X195.5Y-119.5
X196.5Y-129.5
X196.5Y-138.5
X196.5Y-147.5
T3
X93.25Y-109.5
X123.5Y-154.5
X200.75Y-109.5
X200.75Y-154.5
M30
